<?xml version="1.0" encoding="UTF-8" standalone="no"?>
<!-- Generator: Adobe Illustrator 26.1.0, SVG Export Plug-In . SVG Version: 6.00 Build 0)  -->

<svg
   version="1.1"
   id="Layer_1"
   x="0px"
   y="0px"
   viewBox="0 0 1000 1000"
   xml:space="preserve"
   sodipodi:docname="small logo.svg"
   inkscape:version="1.2.1 (9c6d41e410, 2022-07-14)"
   width="1000"
   height="1000"
   xmlns:inkscape="http://www.inkscape.org/namespaces/inkscape"
   xmlns:sodipodi="http://sodipodi.sourceforge.net/DTD/sodipodi-0.dtd"
   xmlns="http://www.w3.org/2000/svg"
   xmlns:svg="http://www.w3.org/2000/svg"><defs
   id="defs93"><inkscape:path-effect
     effect="bend_path"
     id="path-effect253"
     is_visible="true"
     lpeversion="1"
     bendpath="M 154.25959,499.18649 H 845.44637"
     prop_scale="1.36"
     scale_y_rel="false"
     vertical="false"
     hide_knot="false" /><filter
     style="color-interpolation-filters:sRGB"
     inkscape:label="Drop Shadow"
     id="filter481"
     x="-0.010989546"
     y="-0.02441009"
     width="1.0288476"
     height="1.0640765"><feFlood
       flood-opacity="0"
       flood-color="rgb(0,0,0)"
       result="flood"
       id="feFlood471" /><feComposite
       in="flood"
       in2="SourceGraphic"
       operator="in"
       result="composite1"
       id="feComposite473" /><feGaussianBlur
       in="composite1"
       stdDeviation="4"
       result="blur"
       id="feGaussianBlur475" /><feOffset
       dx="6"
       dy="6"
       result="offset"
       id="feOffset477" /><feComposite
       in="SourceGraphic"
       in2="offset"
       operator="over"
       result="composite2"
       id="feComposite479" /></filter><filter
     style="color-interpolation-filters:sRGB"
     inkscape:label="Drop Shadow"
     id="filter493"
     x="-0.013889155"
     y="-0.013864207"
     width="1.036459"
     height="1.0363935"><feFlood
       flood-opacity="0.49728752260397829"
       flood-color="rgb(0,0,0)"
       result="flood"
       id="feFlood483" /><feComposite
       in="flood"
       in2="SourceGraphic"
       operator="in"
       result="composite1"
       id="feComposite485" /><feGaussianBlur
       in="composite1"
       stdDeviation="4"
       result="blur"
       id="feGaussianBlur487" /><feOffset
       dx="6"
       dy="6"
       result="offset"
       id="feOffset489" /><feComposite
       in="SourceGraphic"
       in2="offset"
       operator="over"
       result="composite2"
       id="feComposite491" /></filter></defs><sodipodi:namedview
   id="namedview91"
   pagecolor="#242424"
   bordercolor="#000000"
   borderopacity="0.24705882"
   inkscape:showpageshadow="2"
   inkscape:pageopacity="0"
   inkscape:pagecheckerboard="0"
   inkscape:deskcolor="#d1d1d1"
   showgrid="false"
   inkscape:zoom="0.22019305"
   inkscape:cx="499.56163"
   inkscape:cy="535.89339"
   inkscape:window-width="1920"
   inkscape:window-height="1057"
   inkscape:window-x="-8"
   inkscape:window-y="-8"
   inkscape:window-maximized="1"
   inkscape:current-layer="Layer_1" />
<style
   type="text/css"
   id="style52">
	.st0{fill:#DB4168;}
	.st1{fill:#3D2645;}
	.st2{fill:#FFFFFF;}
	.st3{fill:none;}
	.st4{font-family:'SegoeUI-Semilight';}
	.st5{font-size:500px;}
</style>


<path
   class="st0"
   d="m 86.96,453.28 c 3.21,0 5.95,-2.37 6.35,-5.56 C 119.07,246.24 291.63,90 500,90 c 208.37,0 380.93,156.24 406.68,357.72 0.41,3.19 3.14,5.56 6.35,5.56 h 17.33 c 3.85,0 6.84,-3.38 6.37,-7.2 C 931.81,405.7 921.34,366.4 905.41,328.73 883.25,276.33 851.52,229.28 811.12,188.88 770.72,148.48 723.66,116.75 671.27,94.59 617.02,71.64 559.39,60 500,60 440.61,60 382.98,71.64 328.73,94.58 c -52.4,22.16 -99.45,53.89 -139.85,94.29 -40.4,40.4 -72.13,87.46 -94.29,139.85 -15.93,37.67 -26.4,76.96 -31.32,117.35 -0.47,3.83 2.52,7.2 6.37,7.2 h 17.32 z"
   id="path56"
   inkscape:label="Circle Top"
   style="fill:#da4167;fill-opacity:1;filter:url(#filter481)" /><path
   class="st0"
   d="m 913.04,546.72 c -3.21,0 -5.95,2.37 -6.35,5.56 C 880.93,753.76 708.37,910 500,910 291.63,910 119.07,753.76 93.32,552.28 c -0.41,-3.19 -3.14,-5.56 -6.35,-5.56 H 69.63 c -3.85,0 -6.84,3.38 -6.37,7.2 4.92,40.38 15.39,79.68 31.32,117.35 22.16,52.4 53.89,99.45 94.29,139.85 40.4,40.4 87.46,72.13 139.85,94.29 C 382.98,928.36 440.61,940 500,940 c 59.39,0 117.02,-11.64 171.27,-34.58 52.4,-22.16 99.45,-53.88 139.85,-94.29 40.4,-40.41 72.13,-87.46 94.29,-139.85 15.93,-37.67 26.4,-76.97 31.32,-117.35 0.47,-3.83 -2.52,-7.2 -6.37,-7.2 h -17.32 z"
   id="path58"
   inkscape:label="Circle Bottom"
   style="fill:#da4167;fill-opacity:1;filter:url(#filter481)" />

<path
   class="st1"
   d="m 817.05,483.77 c -5.12,-2.01 -13.8,-3.34 -19.29,-2.95 l -47.26,3.3 c -5.49,0.38 -14.07,2.57 -19.07,4.85 l -11.64,5.32 c -5,2.29 -13.49,5.12 -18.86,6.29 l -93.66,20.49 c -5.37,1.18 -13.82,4.11 -18.76,6.51 L 585.6,529 c -4.95,2.41 -11.94,0.98 -15.55,-3.18 l -29.23,-33.67 c -3.61,-4.15 -6.05,-12.02 -5.43,-17.49 l 19.44,-172.15 c 0.62,-5.47 2.82,-14.11 4.88,-19.2 l 50.37,-124.05 c 2.07,-5.1 -0.42,-7.61 -5.54,-5.59 l -149.85,59.24 c -5.11,2.02 -13.71,2.77 -19.09,1.66 l -25.22,-5.19 c -5.39,-1.11 -12.68,1.44 -16.2,5.66 L 308.89,317.2 c -3.52,4.22 -10.9,7.89 -16.4,8.16 l -29.62,1.43 c -5.49,0.27 -9.57,4.96 -9.06,10.44 l 9.88,105.67 c 0.51,5.48 -2.37,13.01 -6.41,16.74 l -10.11,9.34 c -4.04,3.73 -3.55,9.2 1.1,12.15 l 133.58,84.95 c 4.64,2.95 5.15,8.44 1.13,12.19 l -5.39,5.03 c -4.02,3.75 -3.09,8.39 2.06,10.3 l 22.18,8.24 c 5.16,1.91 5.45,5.68 0.64,8.36 L 243.5,699 c -4.8,2.68 -11.36,8.53 -14.57,12.99 l -73.1,101.62 c -3.21,4.46 -1.34,8.12 4.16,8.12 h 7 c 5.5,0 8.23,4.14 6.06,9.19 l -4.24,9.88 c -2.17,5.05 -0.66,6.11 3.35,2.35 l 24.3,-22.78 c 4.01,-3.76 7.05,-2.35 6.75,3.15 l -0.56,10.41 c -0.3,5.49 3.07,7.3 7.49,4.02 L 420.86,681.4 c 4.41,-3.28 12.53,-5.96 18.03,-5.96 H 613.9 c 5.5,0 14.09,-1.88 19.09,-4.17 l 64.12,-29.4 c 5,-2.29 12.37,-7.25 16.37,-11.02 l 53.37,-50.24 c 4,-3.77 8.29,-7.46 9.53,-8.2 1.24,-0.74 6.16,-3.57 10.94,-6.3 l 8.45,-4.82 c 4.78,-2.73 11,-8.81 13.84,-13.53 l 6.93,-11.53 c 2.83,-4.71 8.19,-11.89 11.9,-15.95 l 14.83,-16.22 c 3.71,-4.06 2.56,-9.02 -2.56,-11.03 z m -83.35,10.97 c 4.85,-2.22 13.3,-4.34 18.79,-4.72 L 796.52,487 c 5.49,-0.38 14.16,0.97 19.28,2.99 l 7.12,2.81 c 5.12,2.02 4.84,4.27 -0.61,5.01 l -18.32,2.47 c -5.45,0.73 -14.41,1.15 -19.9,0.92 l -49.2,-2.02 c -5.51,-0.23 -6.04,-2.23 -1.19,-4.44 z m 42.78,12.18 c 5.5,0.22 6.68,3.46 2.64,7.19 l -29.67,27.38 c -4.04,3.73 -9.54,2.85 -12.23,-1.95 l -14.69,-26.29 c -2.68,-4.8 -0.38,-8.55 5.11,-8.32 z m -72.94,6.19 c 4.09,-3.67 9.64,-2.75 12.32,2.05 l 15.94,28.51 c 2.68,4.8 0.91,10.85 -3.94,13.44 l -83.32,44.45 c -4.85,2.59 -6.84,0.67 -4.41,-4.27 l 19.57,-39.8 c 2.43,-4.94 7.76,-11.98 11.85,-15.65 z m -72.73,87.62 c -2.42,4.94 -4.65,9.02 -4.95,9.07 -0.3,0.05 -4.99,-0.61 -10.43,-1.46 l -53.35,-8.39 c -5.43,-0.85 -5.9,-3.66 -1.04,-6.24 l 37.86,-20.09 c 4.86,-2.58 13.08,-6.19 18.26,-8.02 l 27.92,-9.86 c 5.19,-1.83 7.45,0.71 5.02,5.65 z m -39.76,-67.57 c 4.95,-2.39 13.4,-5.3 18.78,-6.48 l 81.35,-17.76 c 5.37,-1.17 6.42,0.87 2.32,4.54 l -26.89,24.08 c -4.1,3.67 -11.69,8.16 -16.88,9.99 l -33.2,11.66 c -5.19,1.82 -12.7,0.22 -16.69,-3.57 l -11.4,-10.82 c -3.99,-3.79 -3.2,-8.84 1.75,-11.23 z m -22.94,0.46 c 3.61,4.15 9.86,10.61 13.87,14.37 l 11.45,10.72 c 4.02,3.76 3.32,8.94 -1.54,11.52 l -37.65,19.95 c -4.86,2.58 -9.3,0.21 -9.87,-5.26 l -8.22,-79.2 c -0.57,-5.47 1.92,-6.55 5.54,-2.41 z M 533.46,429.29 c -0.62,5.47 -1.29,5.44 -1.5,-0.06 l -3.87,-100.86 c -0.21,-5.5 2.96,-13 7.05,-16.68 l 5.45,-4.91 c 4.09,-3.68 6.93,-2.22 6.31,3.25 z m 19.75,-148.35 c -2.07,5.1 -7.11,12.27 -11.21,15.94 l -12.22,10.94 c -4.1,3.67 -11.81,7.79 -17.14,9.15 l -70.61,18.08 c -5.33,1.36 -6.52,-0.72 -2.65,-4.63 l 151.9,-153.46 c 3.87,-3.91 5.34,-2.94 3.27,2.16 z m -119.66,72.07 c -3.34,-4.37 -1.72,-9.06 3.61,-10.42 l 73.99,-18.92 c 5.33,-1.36 9.86,2.02 10.08,7.51 l 5.21,133.73 c 0.21,5.5 -2.35,6.42 -5.69,2.05 z m 83.26,119.85 c 3.34,4.37 1.66,7.09 -3.74,6.05 l -132.3,-25.54 c -5.4,-1.04 -7.78,-5.91 -5.3,-10.81 l 42.61,-84.01 c 2.49,-4.91 7.26,-5.34 10.6,-0.97 z m -69.83,-241.1 c 1.04,-5.4 6.08,-11.48 11.19,-13.5 l 127.27,-50.39 c 5.11,-2.02 6.13,-0.48 2.26,3.42 L 434.49,326.03 c -3.87,3.91 -6.18,2.69 -5.14,-2.71 z m -15,-11.63 c 5.39,1.11 8.94,6.43 7.9,11.84 l -15.62,81.02 c -1.04,5.4 -2.56,5.37 -3.38,-0.07 L 407.6,224.7 c -0.82,-5.44 2.92,-8.98 8.31,-7.87 z m -38.68,6.32 c 3.52,-4.22 7.08,-3.23 7.89,2.21 l 15.2,101.16 c 0.82,5.44 -2.98,9.3 -8.43,8.59 l -87.54,-11.5 c -5.45,-0.72 -7.03,-4.76 -3.51,-8.98 z m 11.96,117.77 c 5.45,0.72 10.04,1.88 10.19,2.59 0.15,0.71 -1.76,5.3 -4.24,10.21 L 370.6,437.1 c -2.49,4.91 -6.5,4.88 -8.93,-0.06 l -47.28,-96.37 c -2.42,-4.94 0.06,-8.39 5.51,-7.67 z M 292.08,331.53 c 5.49,-0.27 11.97,3.55 14.39,8.48 l 39.95,81.49 c 2.42,4.94 1.4,5.63 -2.27,1.53 L 270.22,340.4 c -3.67,-4.1 -2.17,-7.68 3.32,-7.95 z m -30.01,18.44 c -0.51,-5.48 2.07,-6.6 5.74,-2.5 l 87.14,97.47 c 3.67,4.1 2.17,7.38 -3.33,7.29 l -70.15,-1.13 c -5.5,-0.09 -10.42,-4.64 -10.93,-10.12 z m -3.22,130.3 c -4.64,-2.95 -5.13,-8.42 -1.09,-12.16 l 3.21,-2.97 c 4.04,-3.73 10.66,-3.74 14.7,-0.01 l 83.62,76.96 c 4.05,3.72 3.56,4.36 -1.08,1.4 z m 25.09,-16.38 c -4.05,-3.72 -2.86,-6.69 2.64,-6.6 l 67.13,1.13 c 5.5,0.09 11.1,4.53 12.44,9.86 l 20.93,82.98 c 1.34,5.33 -0.87,6.65 -4.92,2.93 z m 89.37,4.51 c -1.35,-5.33 -1.26,-9.69 0.2,-9.69 1.46,0 7.08,0.85 12.48,1.9 l 131.65,25.44 c 5.4,1.04 10.28,6.37 10.85,11.84 l 9.17,88.23 c 0.57,5.47 -3.38,9.08 -8.78,8.01 L 408.42,570.37 c -5.4,-1.06 -10.91,-6.3 -12.26,-11.63 z M 517.8,598.21 c 5.4,1.07 5.42,2.92 0.05,4.12 l -55.15,12.36 c -5.37,1.2 -13.14,-0.78 -17.28,-4.4 l -31.38,-27.47 c -4.14,-3.62 -3.11,-5.71 2.29,-4.65 z m -126.48,-6.03 c -4.99,-2.32 -6.06,-7.03 -2.39,-10.46 3.67,-3.43 10.1,-3.32 14.29,0.25 l 41.05,34.97 c 4.19,3.57 12.02,7.39 17.41,8.49 l 13.7,2.81 c 5.39,1.1 5.49,3.33 0.23,4.93 l -46.69,14.28 c -5.26,1.61 -9.28,-1.57 -8.93,-7.05 l 1.5,-23.89 c 0.35,-5.49 -3.45,-11.88 -8.44,-14.2 z M 237.79,717.6 c 1.48,-5.3 6.61,-11.83 11.41,-14.51 l 156.96,-87.77 c 4.8,-2.68 8.45,-0.39 8.1,5.1 l -1.39,22.16 c -0.34,5.49 -4.9,11.38 -10.13,13.09 l -117.36,38.35 c -5.23,1.71 -11.98,6.87 -15,11.46 l -45.27,68.91 c -3.02,4.6 -4.28,4.02 -2.8,-1.27 z m 156.73,-52.67 c 5.23,-1.7 6.1,-0.16 1.94,3.44 l -88.87,76.72 c -4.16,3.59 -9.05,2.29 -10.87,-2.91 l -10.93,-31.29 c -1.81,-5.19 0.98,-10.84 6.21,-12.54 z M 162.67,815.56 c -0.04,0 2.55,-3.65 5.77,-8.11 l 45.17,-62.59 c 3.22,-4.46 3.83,-4.09 1.36,0.83 l -30.61,60.93 c -2.47,4.91 -8.34,8.94 -13.05,8.94 -4.71,0 -8.59,0 -8.64,0 z m 28.32,0.93 c -4.01,3.76 -6.95,6.04 -6.53,5.06 0.42,-0.98 2.79,-5.8 5.25,-10.71 l 28.72,-57.17 c 2.47,-4.91 3.28,-4.6 1.8,0.7 l -10.43,37.37 c -1.48,5.3 -5.97,12.71 -9.98,16.47 z m 21.5,-2.74 c 0.65,-5.46 3.64,-13.69 6.66,-18.29 l 52.47,-79.88 c 3.02,-4.6 6.97,-4.11 8.79,1.08 l 10.61,30.37 c 1.81,5.19 -0.11,12.38 -4.28,15.97 l -68.43,59.01 c -4.17,3.59 -7.04,2.06 -6.4,-3.4 z M 435,664.02 c -4.68,2.88 -8.56,5.24 -8.61,5.24 -0.05,0 -3.7,2.69 -8.12,5.97 L 283.42,775.5 c -4.41,3.28 -4.62,3.03 -0.46,-0.57 L 409.87,665.35 c 4.16,-3.59 11.85,-7.93 17.07,-9.65 l 36.57,-11.97 c 5.23,-1.71 5.67,-0.75 0.99,2.13 z m 13.58,5.24 c -5.5,0 -6.17,-2.36 -1.49,-5.24 l 41.89,-25.8 c 4.68,-2.88 12.77,-3.78 17.97,-1.99 l 86.56,29.78 c 5.2,1.79 4.96,3.25 -0.54,3.25 z m 170.25,-11.45 c -0.74,5.45 -5.59,8.45 -10.8,6.67 l -101.8,-34.87 c -5.2,-1.78 -13.87,-4.15 -19.25,-5.27 l -10.71,-2.22 c -5.39,-1.11 -5.4,-3.01 -0.03,-4.21 l 56.6,-12.65 c 5.37,-1.2 14.2,-1.48 19.64,-0.63 l 56.69,8.92 c 5.43,0.85 10.6,1.67 11.49,1.81 0.89,0.14 2.11,0.33 2.72,0.43 0.61,0.09 0.5,4.63 -0.24,10.08 z m 14.73,6.24 c -5,2.29 -8.49,-0.3 -7.76,-5.75 l 4.17,-30.84 c 0.74,-5.45 5.67,-8.67 10.95,-7.16 l 44.73,12.79 c 5.29,1.51 5.52,4.62 0.52,6.91 z m 76.74,-39.27 c -4.01,3.77 -11.61,5.62 -16.9,4.11 l -49.02,-14 c -5.29,-1.51 -5.28,-3.94 0.02,-5.41 l 106.64,-29.44 c 5.3,-1.46 6.36,0.42 2.36,4.19 z m -34.6,-30.36 c -5.3,1.46 -5.67,0.54 -0.82,-2.04 l 57.27,-30.56 c 4.85,-2.59 12.75,-2.51 17.55,0.17 l 5.62,3.14 c 4.8,2.68 4.39,6.08 -0.91,7.54 z m 105.19,-32.03 c -4.78,2.72 -12.62,2.75 -17.42,0.06 l -1.58,-0.88 c -4.8,-2.68 -4.23,-4.84 1.27,-4.79 l 17.15,0.16 c 5.5,0.05 6.09,2.32 1.31,5.04 z m 41.69,-45.71 c -3.73,4.04 -9.07,11.23 -11.86,15.96 l -5.78,9.78 c -2.8,4.74 -9.59,8.57 -15.09,8.52 l -30.63,-0.28 c -5.5,-0.05 -6.69,-3.14 -2.65,-6.88 l 32.04,-29.57 c 4.04,-3.73 11.81,-7.38 17.26,-8.12 l 20.32,-2.74 c 5.45,-0.73 6.86,1.97 3.13,6.02 z"
   id="path68"
   style="fill:#fafaff;fill-opacity:1;filter:url(#filter493)"
   inkscape:label="Bird" />
</svg>
