%TF.GenerationSoftware,KiCad,Pcbnew,(6.0.5)*%
%TF.CreationDate,2023-05-13T15:18:51-04:00*%
%TF.ProjectId,SAP Mk2,53415020-4d6b-4322-9e6b-696361645f70,rev?*%
%TF.SameCoordinates,Original*%
%TF.FileFunction,Soldermask,Bot*%
%TF.FilePolarity,Negative*%
%FSLAX46Y46*%
G04 Gerber Fmt 4.6, Leading zero omitted, Abs format (unit mm)*
G04 Created by KiCad (PCBNEW (6.0.5)) date 2023-05-13 15:18:51*
%MOMM*%
%LPD*%
G01*
G04 APERTURE LIST*
G04 Aperture macros list*
%AMRoundRect*
0 Rectangle with rounded corners*
0 $1 Rounding radius*
0 $2 $3 $4 $5 $6 $7 $8 $9 X,Y pos of 4 corners*
0 Add a 4 corners polygon primitive as box body*
4,1,4,$2,$3,$4,$5,$6,$7,$8,$9,$2,$3,0*
0 Add four circle primitives for the rounded corners*
1,1,$1+$1,$2,$3*
1,1,$1+$1,$4,$5*
1,1,$1+$1,$6,$7*
1,1,$1+$1,$8,$9*
0 Add four rect primitives between the rounded corners*
20,1,$1+$1,$2,$3,$4,$5,0*
20,1,$1+$1,$4,$5,$6,$7,0*
20,1,$1+$1,$6,$7,$8,$9,0*
20,1,$1+$1,$8,$9,$2,$3,0*%
G04 Aperture macros list end*
%ADD10C,5.500000*%
%ADD11R,4.190000X1.500000*%
%ADD12R,1.700000X1.700000*%
%ADD13O,1.700000X1.700000*%
%ADD14R,0.800000X1.200000*%
%ADD15R,1.500000X2.000000*%
%ADD16R,0.500000X0.500000*%
%ADD17R,1.000000X1.000000*%
%ADD18R,1.050000X2.200000*%
%ADD19RoundRect,0.200000X0.275000X-0.200000X0.275000X0.200000X-0.275000X0.200000X-0.275000X-0.200000X0*%
%ADD20R,0.400000X1.400000*%
%ADD21R,1.750000X1.900000*%
%ADD22R,1.150000X1.450000*%
%ADD23O,1.050000X1.900000*%
%ADD24R,1.800000X2.500000*%
%ADD25R,2.100000X2.100000*%
%ADD26C,2.100000*%
%ADD27C,3.000000*%
%ADD28RoundRect,0.050800X-1.000000X-0.500000X1.000000X-0.500000X1.000000X0.500000X-1.000000X0.500000X0*%
%ADD29RoundRect,0.050800X1.000000X0.500000X-1.000000X0.500000X-1.000000X-0.500000X1.000000X-0.500000X0*%
%ADD30RoundRect,0.225000X-0.250000X0.225000X-0.250000X-0.225000X0.250000X-0.225000X0.250000X0.225000X0*%
%ADD31RoundRect,0.200000X0.200000X0.275000X-0.200000X0.275000X-0.200000X-0.275000X0.200000X-0.275000X0*%
%ADD32R,2.200000X1.200000*%
%ADD33R,6.400000X5.800000*%
%ADD34RoundRect,0.218750X-0.218750X-0.256250X0.218750X-0.256250X0.218750X0.256250X-0.218750X0.256250X0*%
%ADD35RoundRect,0.250000X-0.475000X0.250000X-0.475000X-0.250000X0.475000X-0.250000X0.475000X0.250000X0*%
%ADD36RoundRect,0.218750X0.256250X-0.218750X0.256250X0.218750X-0.256250X0.218750X-0.256250X-0.218750X0*%
%ADD37RoundRect,0.225000X-0.225000X-0.250000X0.225000X-0.250000X0.225000X0.250000X-0.225000X0.250000X0*%
%ADD38R,1.600000X1.600000*%
%ADD39C,1.600000*%
G04 APERTURE END LIST*
D10*
%TO.C,REF\u002A\u002A*%
X168910000Y-133350000D03*
%TD*%
D11*
%TO.C,AE1*%
X196013492Y-127931244D03*
X196013492Y-133742815D03*
%TD*%
D10*
%TO.C,REF\u002A\u002A*%
X103505000Y-133350000D03*
%TD*%
%TO.C,REF\u002A\u002A*%
X103505000Y-105410000D03*
%TD*%
%TO.C,REF\u002A\u002A*%
X168910000Y-105410000D03*
%TD*%
D12*
%TO.C,J4*%
X158750000Y-134620000D03*
D13*
X156210000Y-134620000D03*
X153670000Y-134620000D03*
X151130000Y-134620000D03*
X148590000Y-134620000D03*
X146050000Y-134620000D03*
%TD*%
D14*
%TO.C,J6*%
X141655000Y-106595000D03*
X140555000Y-106595000D03*
X139455000Y-106595000D03*
X138355000Y-106595000D03*
X137255000Y-106595000D03*
X136155000Y-106595000D03*
X135055000Y-106595000D03*
X133955000Y-106595000D03*
D15*
X131485000Y-104395000D03*
X131485000Y-112595000D03*
X145375000Y-112595000D03*
X145375000Y-104395000D03*
%TD*%
D16*
%TO.C,D2*%
X129710000Y-128524000D03*
X131910000Y-128524000D03*
%TD*%
D17*
%TO.C,AE2*%
X193422295Y-107712749D03*
D18*
X194897295Y-106212749D03*
D17*
X193422295Y-104712749D03*
D18*
X191947295Y-106212749D03*
%TD*%
D19*
%TO.C,R36*%
X133985000Y-119570000D03*
X133985000Y-117920000D03*
%TD*%
D20*
%TO.C,J1*%
X139773400Y-133646400D03*
X139123400Y-133646400D03*
X138473400Y-133646400D03*
X137823400Y-133646400D03*
X137173400Y-133646400D03*
D21*
X137348400Y-136296400D03*
X139598400Y-136296400D03*
D22*
X140793400Y-134066400D03*
D23*
X134898400Y-136296400D03*
X142048400Y-136296400D03*
D22*
X136153400Y-134066400D03*
%TD*%
D24*
%TO.C,D1*%
X109474000Y-133622800D03*
X109474000Y-129622800D03*
%TD*%
D25*
%TO.C,J3*%
X101600000Y-123310000D03*
D26*
X104140000Y-123310000D03*
X106680000Y-123310000D03*
X109220000Y-123310000D03*
X111760000Y-123310000D03*
X114300000Y-123310000D03*
X116840000Y-123310000D03*
X119380000Y-123310000D03*
%TD*%
D27*
%TO.C,U7*%
X186890000Y-118275000D03*
D28*
X178690000Y-124225000D03*
X178690000Y-122725000D03*
X178690000Y-121225000D03*
X178690000Y-119725000D03*
X178690000Y-118225000D03*
X178690000Y-116725000D03*
X178690000Y-115225000D03*
X178690000Y-113725000D03*
X178690000Y-112225000D03*
X178690000Y-110725000D03*
D29*
X194690000Y-110725000D03*
X194690000Y-112225000D03*
X194690000Y-113725000D03*
X194690000Y-115225000D03*
X194690000Y-116725000D03*
X194690000Y-118225000D03*
X194690000Y-119725000D03*
X194690000Y-121225000D03*
X194690000Y-122725000D03*
X194690000Y-124225000D03*
%TD*%
D12*
%TO.C,J5*%
X128270000Y-134620000D03*
D13*
X130810000Y-134620000D03*
%TD*%
D19*
%TO.C,R8*%
X139192000Y-129540000D03*
X139192000Y-127890000D03*
%TD*%
%TO.C,R7*%
X137668000Y-129540000D03*
X137668000Y-127890000D03*
%TD*%
D30*
%TO.C,C6*%
X112115600Y-131813000D03*
X112115600Y-133363000D03*
%TD*%
D31*
%TO.C,R9*%
X176085000Y-120015000D03*
X174435000Y-120015000D03*
%TD*%
D32*
%TO.C,U1*%
X114350000Y-133902800D03*
X114350000Y-131622800D03*
D33*
X120650000Y-131622800D03*
D32*
X114350000Y-129342800D03*
%TD*%
D34*
%TO.C,D4*%
X174472500Y-118110000D03*
X176047500Y-118110000D03*
%TD*%
D35*
%TO.C,FB1*%
X173355000Y-124145000D03*
X173355000Y-126045000D03*
%TD*%
D30*
%TO.C,C19*%
X176530000Y-124320000D03*
X176530000Y-125870000D03*
%TD*%
D36*
%TO.C,D3*%
X126365000Y-131978500D03*
X126365000Y-130403500D03*
%TD*%
D37*
%TO.C,C3*%
X111340600Y-136144000D03*
X112890600Y-136144000D03*
%TD*%
D31*
%TO.C,R37*%
X150558000Y-109220000D03*
X148908000Y-109220000D03*
%TD*%
D25*
%TO.C,J2*%
X119383547Y-115435154D03*
D26*
X116843547Y-115435154D03*
X114303547Y-115435154D03*
X111763547Y-115435154D03*
X109223547Y-115435154D03*
X106683547Y-115435154D03*
X104143547Y-115435154D03*
X101603547Y-115435154D03*
%TD*%
D38*
%TO.C,LS1*%
X166116000Y-122630000D03*
D39*
X166116000Y-116130000D03*
%TD*%
M02*
