%TF.GenerationSoftware,KiCad,Pcbnew,(6.0.5)*%
%TF.CreationDate,2023-05-13T15:18:51-04:00*%
%TF.ProjectId,SAP Mk2,53415020-4d6b-4322-9e6b-696361645f70,rev?*%
%TF.SameCoordinates,Original*%
%TF.FileFunction,Copper,L1,Top*%
%TF.FilePolarity,Positive*%
%FSLAX46Y46*%
G04 Gerber Fmt 4.6, Leading zero omitted, Abs format (unit mm)*
G04 Created by KiCad (PCBNEW (6.0.5)) date 2023-05-13 15:18:51*
%MOMM*%
%LPD*%
G01*
G04 APERTURE LIST*
G04 Aperture macros list*
%AMRoundRect*
0 Rectangle with rounded corners*
0 $1 Rounding radius*
0 $2 $3 $4 $5 $6 $7 $8 $9 X,Y pos of 4 corners*
0 Add a 4 corners polygon primitive as box body*
4,1,4,$2,$3,$4,$5,$6,$7,$8,$9,$2,$3,0*
0 Add four circle primitives for the rounded corners*
1,1,$1+$1,$2,$3*
1,1,$1+$1,$4,$5*
1,1,$1+$1,$6,$7*
1,1,$1+$1,$8,$9*
0 Add four rect primitives between the rounded corners*
20,1,$1+$1,$2,$3,$4,$5,0*
20,1,$1+$1,$4,$5,$6,$7,0*
20,1,$1+$1,$6,$7,$8,$9,0*
20,1,$1+$1,$8,$9,$2,$3,0*%
%AMFreePoly0*
4,1,9,-0.284426,1.863909,0.285574,1.863909,0.285574,3.063909,0.985574,3.063909,0.985574,-2.236091,-0.984426,-2.236091,-0.984426,3.063909,-0.284426,3.063909,-0.284426,1.863909,-0.284426,1.863909,$1*%
%AMFreePoly1*
4,1,9,-0.313160,1.982989,0.256840,1.982989,0.256840,3.182989,0.956840,3.182989,0.956840,-2.117011,-1.013160,-2.117011,-1.013160,3.182989,-0.313160,3.182989,-0.313160,1.982989,-0.313160,1.982989,$1*%
G04 Aperture macros list end*
%TA.AperFunction,SMDPad,CuDef*%
%ADD10RoundRect,0.200000X0.200000X0.275000X-0.200000X0.275000X-0.200000X-0.275000X0.200000X-0.275000X0*%
%TD*%
%TA.AperFunction,SMDPad,CuDef*%
%ADD11RoundRect,0.225000X-0.225000X-0.250000X0.225000X-0.250000X0.225000X0.250000X-0.225000X0.250000X0*%
%TD*%
%TA.AperFunction,SMDPad,CuDef*%
%ADD12RoundRect,0.200000X0.275000X-0.200000X0.275000X0.200000X-0.275000X0.200000X-0.275000X-0.200000X0*%
%TD*%
%TA.AperFunction,SMDPad,CuDef*%
%ADD13RoundRect,0.225000X0.250000X-0.225000X0.250000X0.225000X-0.250000X0.225000X-0.250000X-0.225000X0*%
%TD*%
%TA.AperFunction,SMDPad,CuDef*%
%ADD14RoundRect,0.225000X-0.250000X0.225000X-0.250000X-0.225000X0.250000X-0.225000X0.250000X0.225000X0*%
%TD*%
%TA.AperFunction,ComponentPad*%
%ADD15C,5.500000*%
%TD*%
%TA.AperFunction,SMDPad,CuDef*%
%ADD16R,1.150000X0.700000*%
%TD*%
%TA.AperFunction,SMDPad,CuDef*%
%ADD17FreePoly0,90.000000*%
%TD*%
%TA.AperFunction,SMDPad,CuDef*%
%ADD18FreePoly1,90.000000*%
%TD*%
%TA.AperFunction,SMDPad,CuDef*%
%ADD19RoundRect,0.200000X-0.275000X0.200000X-0.275000X-0.200000X0.275000X-0.200000X0.275000X0.200000X0*%
%TD*%
%TA.AperFunction,SMDPad,CuDef*%
%ADD20RoundRect,0.200000X-0.200000X-0.250000X0.200000X-0.250000X0.200000X0.250000X-0.200000X0.250000X0*%
%TD*%
%TA.AperFunction,SMDPad,CuDef*%
%ADD21RoundRect,0.225000X0.225000X0.250000X-0.225000X0.250000X-0.225000X-0.250000X0.225000X-0.250000X0*%
%TD*%
%TA.AperFunction,SMDPad,CuDef*%
%ADD22R,4.190000X1.780000*%
%TD*%
%TA.AperFunction,SMDPad,CuDef*%
%ADD23R,4.190000X1.500000*%
%TD*%
%TA.AperFunction,SMDPad,CuDef*%
%ADD24R,2.000000X1.000000*%
%TD*%
%TA.AperFunction,SMDPad,CuDef*%
%ADD25R,1.050000X0.650000*%
%TD*%
%TA.AperFunction,SMDPad,CuDef*%
%ADD26RoundRect,0.150000X0.325000X0.150000X-0.325000X0.150000X-0.325000X-0.150000X0.325000X-0.150000X0*%
%TD*%
%TA.AperFunction,SMDPad,CuDef*%
%ADD27RoundRect,0.150000X0.150000X0.325000X-0.150000X0.325000X-0.150000X-0.325000X0.150000X-0.325000X0*%
%TD*%
%TA.AperFunction,SMDPad,CuDef*%
%ADD28RoundRect,0.075000X-0.075000X0.700000X-0.075000X-0.700000X0.075000X-0.700000X0.075000X0.700000X0*%
%TD*%
%TA.AperFunction,SMDPad,CuDef*%
%ADD29RoundRect,0.075000X-0.700000X0.075000X-0.700000X-0.075000X0.700000X-0.075000X0.700000X0.075000X0*%
%TD*%
%TA.AperFunction,SMDPad,CuDef*%
%ADD30R,0.550000X0.950000*%
%TD*%
%TA.AperFunction,SMDPad,CuDef*%
%ADD31R,0.230000X0.350000*%
%TD*%
%TA.AperFunction,SMDPad,CuDef*%
%ADD32R,0.350000X0.230000*%
%TD*%
%TA.AperFunction,SMDPad,CuDef*%
%ADD33RoundRect,0.150000X-0.650000X-0.150000X0.650000X-0.150000X0.650000X0.150000X-0.650000X0.150000X0*%
%TD*%
%TA.AperFunction,ComponentPad*%
%ADD34R,1.700000X1.700000*%
%TD*%
%TA.AperFunction,ComponentPad*%
%ADD35O,1.700000X1.700000*%
%TD*%
%TA.AperFunction,ComponentPad*%
%ADD36O,1.050000X1.900000*%
%TD*%
%TA.AperFunction,ComponentPad*%
%ADD37R,2.100000X2.100000*%
%TD*%
%TA.AperFunction,ComponentPad*%
%ADD38C,2.100000*%
%TD*%
%TA.AperFunction,ComponentPad*%
%ADD39R,1.600000X1.600000*%
%TD*%
%TA.AperFunction,ComponentPad*%
%ADD40C,1.600000*%
%TD*%
%TA.AperFunction,ViaPad*%
%ADD41C,0.450000*%
%TD*%
%TA.AperFunction,Conductor*%
%ADD42C,0.250000*%
%TD*%
%TA.AperFunction,Conductor*%
%ADD43C,0.353000*%
%TD*%
%TA.AperFunction,Conductor*%
%ADD44C,0.750000*%
%TD*%
%TA.AperFunction,Conductor*%
%ADD45C,0.300000*%
%TD*%
%TA.AperFunction,Conductor*%
%ADD46C,1.000000*%
%TD*%
%TA.AperFunction,Conductor*%
%ADD47C,0.350000*%
%TD*%
%TA.AperFunction,Conductor*%
%ADD48C,0.500000*%
%TD*%
%TA.AperFunction,Conductor*%
%ADD49C,1.350000*%
%TD*%
%TA.AperFunction,Conductor*%
%ADD50C,0.200000*%
%TD*%
G04 APERTURE END LIST*
D10*
%TO.P,R38,1*%
%TO.N,GNDREF*%
X124675400Y-105867200D03*
%TO.P,R38,2*%
%TO.N,/PY6*%
X123025400Y-105867200D03*
%TD*%
D11*
%TO.P,C8,1*%
%TO.N,GNDREF*%
X157213000Y-103886000D03*
%TO.P,C8,2*%
%TO.N,+3V3*%
X158763000Y-103886000D03*
%TD*%
D12*
%TO.P,R11,1*%
%TO.N,/SCL*%
X153340341Y-117195376D03*
%TO.P,R11,2*%
%TO.N,+3V3*%
X153340341Y-115545376D03*
%TD*%
D13*
%TO.P,C5,1*%
%TO.N,+3V3*%
X157480000Y-115583000D03*
%TO.P,C5,2*%
%TO.N,GNDREF*%
X157480000Y-114033000D03*
%TD*%
D12*
%TO.P,R14,1*%
%TO.N,/SENSE1*%
X123190000Y-136156200D03*
%TO.P,R14,2*%
%TO.N,GNDREF*%
X123190000Y-134506200D03*
%TD*%
D14*
%TO.P,C12,1*%
%TO.N,Net-(C12-Pad1)*%
X137668000Y-121399000D03*
%TO.P,C12,2*%
%TO.N,GNDREF*%
X137668000Y-122949000D03*
%TD*%
D15*
%TO.P,REF\u002A\u002A,1*%
%TO.N,GNDREF*%
X168910000Y-133350000D03*
%TD*%
D12*
%TO.P,R12,1*%
%TO.N,/SDA*%
X154864341Y-117195376D03*
%TO.P,R12,2*%
%TO.N,+3V3*%
X154864341Y-115545376D03*
%TD*%
D16*
%TO.P,Q1,1,S1*%
%TO.N,GNDREF*%
X121131000Y-133985000D03*
%TO.P,Q1,2,G1*%
%TO.N,/PY1*%
X121131000Y-132715000D03*
%TO.P,Q1,3,S2*%
%TO.N,GNDREF*%
X121131000Y-131445000D03*
%TO.P,Q1,4,G2*%
%TO.N,/PY2*%
X121131000Y-130175000D03*
D17*
%TO.P,Q1,5,D1*%
%TO.N,/FET1*%
X117719909Y-133350574D03*
D18*
%TO.P,Q1,6,D2*%
%TO.N,/FET2*%
X117838989Y-130781840D03*
%TD*%
D14*
%TO.P,C2,1*%
%TO.N,GNDREF*%
X169815000Y-113525000D03*
%TO.P,C2,2*%
%TO.N,+3V3*%
X169815000Y-115075000D03*
%TD*%
D12*
%TO.P,R20,1*%
%TO.N,/SENSE2*%
X123190000Y-128333000D03*
%TO.P,R20,2*%
%TO.N,GNDREF*%
X123190000Y-126683000D03*
%TD*%
D19*
%TO.P,R1,1*%
%TO.N,Net-(R1-Pad1)*%
X159512000Y-123127000D03*
%TO.P,R1,2*%
%TO.N,+3V3*%
X159512000Y-124777000D03*
%TD*%
D20*
%TO.P,Y1,1,Tri-State*%
%TO.N,unconnected-(Y1-Pad1)*%
X146341000Y-105755000D03*
%TO.P,Y1,2,GND*%
%TO.N,GNDREF*%
X146341000Y-107605000D03*
%TO.P,Y1,3,OUT*%
%TO.N,Net-(U6-Pad5)*%
X147791000Y-107605000D03*
%TO.P,Y1,4,VDD*%
%TO.N,+3V3*%
X147791000Y-105755000D03*
%TD*%
D21*
%TO.P,C11,1*%
%TO.N,/NRST*%
X133612489Y-109316978D03*
%TO.P,C11,2*%
%TO.N,GNDREF*%
X132062489Y-109316978D03*
%TD*%
D19*
%TO.P,R28,1*%
%TO.N,/SENSE6*%
X123444000Y-102807000D03*
%TO.P,R28,2*%
%TO.N,GNDREF*%
X123444000Y-104457000D03*
%TD*%
D13*
%TO.P,C9,1*%
%TO.N,Net-(C9-Pad1)*%
X159004000Y-115583000D03*
%TO.P,C9,2*%
%TO.N,GNDREF*%
X159004000Y-114033000D03*
%TD*%
D12*
%TO.P,R16,1*%
%TO.N,/SENSE4*%
X131826000Y-115633000D03*
%TO.P,R16,2*%
%TO.N,GNDREF*%
X131826000Y-113983000D03*
%TD*%
D10*
%TO.P,R31,1*%
%TO.N,GNDREF*%
X124269000Y-130302000D03*
%TO.P,R31,2*%
%TO.N,/PY2*%
X122619000Y-130302000D03*
%TD*%
D12*
%TO.P,R6,1*%
%TO.N,+3V3*%
X157988000Y-124777000D03*
%TO.P,R6,2*%
%TO.N,Net-(R6-Pad2)*%
X157988000Y-123127000D03*
%TD*%
D13*
%TO.P,C4,1*%
%TO.N,+3V3*%
X160528000Y-115583000D03*
%TO.P,C4,2*%
%TO.N,GNDREF*%
X160528000Y-114033000D03*
%TD*%
D11*
%TO.P,C13,1*%
%TO.N,+3V3*%
X151867000Y-113792000D03*
%TO.P,C13,2*%
%TO.N,GNDREF*%
X153417000Y-113792000D03*
%TD*%
D13*
%TO.P,C20,1*%
%TO.N,+3V3*%
X193040000Y-124600000D03*
%TO.P,C20,2*%
%TO.N,GNDREF*%
X193040000Y-123050000D03*
%TD*%
D10*
%TO.P,R24,1*%
%TO.N,/SENSE5*%
X121729000Y-110794800D03*
%TO.P,R24,2*%
%TO.N,/FET5*%
X120079000Y-110794800D03*
%TD*%
D22*
%TO.P,AE1,1,A*%
%TO.N,Net-(AE1-Pad1)*%
X196013492Y-130837784D03*
D23*
%TO.P,AE1,2,Shield*%
%TO.N,GNDREF*%
X196013492Y-133744324D03*
X196013492Y-127931244D03*
%TD*%
D24*
%TO.P,U5,1,GND*%
%TO.N,GNDREF*%
X174880000Y-121270000D03*
%TO.P,U5,2,MISO*%
%TO.N,/MISO*%
X174880000Y-123270000D03*
%TO.P,U5,3,MOSI*%
%TO.N,/MOSI*%
X174880000Y-125270000D03*
%TO.P,U5,4,SCK*%
%TO.N,/SCK*%
X174880000Y-127270000D03*
%TO.P,U5,5,NSS*%
%TO.N,/CS_LoRa*%
X174880000Y-129270000D03*
%TO.P,U5,6,RESET*%
%TO.N,/LoRa_RST*%
X174880000Y-131270000D03*
%TO.P,U5,7,DIO5*%
%TO.N,unconnected-(U5-Pad7)*%
X174880000Y-133270000D03*
%TO.P,U5,8,GND*%
%TO.N,GNDREF*%
X174880000Y-135270000D03*
%TO.P,U5,9,ANT*%
%TO.N,Net-(AE1-Pad1)*%
X190880000Y-135270000D03*
%TO.P,U5,10,GND*%
%TO.N,GNDREF*%
X190880000Y-133270000D03*
%TO.P,U5,11,DIO3*%
%TO.N,unconnected-(U5-Pad11)*%
X190880000Y-131270000D03*
%TO.P,U5,12,DIO4*%
%TO.N,unconnected-(U5-Pad12)*%
X190880000Y-129270000D03*
%TO.P,U5,13,3.3V*%
%TO.N,+3V3*%
X190880000Y-127270000D03*
%TO.P,U5,14,DIO0*%
%TO.N,/LoRa_INT*%
X190880000Y-125270000D03*
%TO.P,U5,15,DIO1*%
%TO.N,unconnected-(U5-Pad15)*%
X190880000Y-123270000D03*
%TO.P,U5,16,DIO2*%
%TO.N,unconnected-(U5-Pad16)*%
X190880000Y-121270000D03*
%TD*%
D19*
%TO.P,R21,1*%
%TO.N,/FET5*%
X113284000Y-107887000D03*
%TO.P,R21,2*%
%TO.N,/FIRE5*%
X113284000Y-109537000D03*
%TD*%
%TO.P,R4,1*%
%TO.N,Net-(R4-Pad1)*%
X153416000Y-105855000D03*
%TO.P,R4,2*%
%TO.N,+3V3*%
X153416000Y-107505000D03*
%TD*%
D16*
%TO.P,Q2,1,S1*%
%TO.N,GNDREF*%
X131562011Y-121285000D03*
%TO.P,Q2,2,G1*%
%TO.N,/PY3*%
X131562011Y-120015000D03*
%TO.P,Q2,3,S2*%
%TO.N,GNDREF*%
X131562011Y-118745000D03*
%TO.P,Q2,4,G2*%
%TO.N,/PY4*%
X131562011Y-117475000D03*
D17*
%TO.P,Q2,5,D1*%
%TO.N,/FET3*%
X128150920Y-120650574D03*
D18*
%TO.P,Q2,6,D2*%
%TO.N,/FET4*%
X128270000Y-118081840D03*
%TD*%
D19*
%TO.P,R10,1*%
%TO.N,/MISO*%
X153340341Y-119641121D03*
%TO.P,R10,2*%
%TO.N,+3V3*%
X153340341Y-121291121D03*
%TD*%
D10*
%TO.P,R30,1*%
%TO.N,/SENSE6*%
X121729000Y-102870000D03*
%TO.P,R30,2*%
%TO.N,/FET6*%
X120079000Y-102870000D03*
%TD*%
D13*
%TO.P,C7,1*%
%TO.N,+3V3*%
X171339000Y-115075000D03*
%TO.P,C7,2*%
%TO.N,GNDREF*%
X171339000Y-113525000D03*
%TD*%
D10*
%TO.P,R23,1*%
%TO.N,/SENSE2*%
X121729000Y-128270000D03*
%TO.P,R23,2*%
%TO.N,/FET2*%
X120079000Y-128270000D03*
%TD*%
D25*
%TO.P,SW1,1,A*%
%TO.N,GNDREF*%
X133647000Y-105605000D03*
X129497000Y-105605000D03*
%TO.P,SW1,2,B*%
%TO.N,/NRST*%
X129497000Y-107755000D03*
X133647000Y-107755000D03*
%TD*%
D19*
%TO.P,R27,1*%
%TO.N,/FET6*%
X109220000Y-107887000D03*
%TO.P,R27,2*%
%TO.N,/FIRE6*%
X109220000Y-109537000D03*
%TD*%
D10*
%TO.P,R18,1*%
%TO.N,/SENSE4*%
X130365000Y-115570000D03*
%TO.P,R18,2*%
%TO.N,/FET4*%
X128715000Y-115570000D03*
%TD*%
D19*
%TO.P,R26,1*%
%TO.N,/SENSE3*%
X131826000Y-123127000D03*
%TO.P,R26,2*%
%TO.N,GNDREF*%
X131826000Y-124777000D03*
%TD*%
D11*
%TO.P,C18,1*%
%TO.N,+3V3*%
X142735000Y-109220000D03*
%TO.P,C18,2*%
%TO.N,GNDREF*%
X144285000Y-109220000D03*
%TD*%
D26*
%TO.P,U3,1,Vdd_I/O*%
%TO.N,+3V3*%
X170307000Y-121380000D03*
%TO.P,U3,2,GND*%
%TO.N,GNDREF*%
X170307000Y-120580000D03*
%TO.P,U3,3,RES*%
%TO.N,unconnected-(U3-Pad3)*%
X170307000Y-119780000D03*
%TO.P,U3,4,GND*%
%TO.N,GNDREF*%
X170307000Y-118980000D03*
%TO.P,U3,5,GND*%
X170307000Y-118180000D03*
%TO.P,U3,6,Vs*%
%TO.N,+3V3*%
X170307000Y-117380000D03*
D27*
%TO.P,U3,7,~{CS}*%
%TO.N,Net-(R3-Pad1)*%
X169307000Y-117380000D03*
D26*
%TO.P,U3,8,INT1*%
%TO.N,/HighG_INT*%
X168307000Y-117380000D03*
%TO.P,U3,9,INT2*%
%TO.N,unconnected-(U3-Pad9)*%
X168307000Y-118180000D03*
%TO.P,U3,10,NC*%
%TO.N,unconnected-(U3-Pad10)*%
X168307000Y-118980000D03*
%TO.P,U3,11,RES*%
%TO.N,unconnected-(U3-Pad11)*%
X168307000Y-119780000D03*
%TO.P,U3,12,SDO/ADDR*%
%TO.N,GNDREF*%
X168307000Y-120580000D03*
%TO.P,U3,13,SDA/SDI/SDIO*%
%TO.N,/SDA*%
X168307000Y-121380000D03*
D27*
%TO.P,U3,14,SCL/SCLK*%
%TO.N,/SCL*%
X169307000Y-121380000D03*
%TD*%
D19*
%TO.P,R5,1*%
%TO.N,Net-(R5-Pad1)*%
X161036000Y-123127000D03*
%TO.P,R5,2*%
%TO.N,+3V3*%
X161036000Y-124777000D03*
%TD*%
%TO.P,R22,1*%
%TO.N,/SENSE5*%
X123444000Y-110427000D03*
%TO.P,R22,2*%
%TO.N,GNDREF*%
X123444000Y-112077000D03*
%TD*%
D13*
%TO.P,C10,1*%
%TO.N,Net-(C10-Pad1)*%
X163576000Y-115583000D03*
%TO.P,C10,2*%
%TO.N,GNDREF*%
X163576000Y-114033000D03*
%TD*%
%TO.P,C1,1*%
%TO.N,+3V3*%
X162052000Y-115583000D03*
%TO.P,C1,2*%
%TO.N,GNDREF*%
X162052000Y-114033000D03*
%TD*%
D15*
%TO.P,REF\u002A\u002A,1*%
%TO.N,GNDREF*%
X103505000Y-133350000D03*
%TD*%
D10*
%TO.P,R15,1*%
%TO.N,/FET4*%
X122745000Y-118110000D03*
%TO.P,R15,2*%
%TO.N,/FIRE4*%
X121095000Y-118110000D03*
%TD*%
D28*
%TO.P,U6,1,VBAT*%
%TO.N,+3V3*%
X149038000Y-113705000D03*
%TO.P,U6,2,PC13*%
%TO.N,unconnected-(U6-Pad2)*%
X148538000Y-113705000D03*
%TO.P,U6,3,PC14*%
%TO.N,unconnected-(U6-Pad3)*%
X148038000Y-113705000D03*
%TO.P,U6,4,PC15*%
%TO.N,unconnected-(U6-Pad4)*%
X147538000Y-113705000D03*
%TO.P,U6,5,PH0*%
%TO.N,Net-(U6-Pad5)*%
X147038000Y-113705000D03*
%TO.P,U6,6,PH1*%
%TO.N,unconnected-(U6-Pad6)*%
X146538000Y-113705000D03*
%TO.P,U6,7,NRST*%
%TO.N,/NRST*%
X146038000Y-113705000D03*
%TO.P,U6,8,PC0*%
%TO.N,/CS_SD*%
X145538000Y-113705000D03*
%TO.P,U6,9,PC1*%
%TO.N,/CS_FL*%
X145038000Y-113705000D03*
%TO.P,U6,10,PC2*%
%TO.N,/CS_LoRa*%
X144538000Y-113705000D03*
%TO.P,U6,11,PC3*%
%TO.N,unconnected-(U6-Pad11)*%
X144038000Y-113705000D03*
%TO.P,U6,12,VSSA*%
%TO.N,GNDREF*%
X143538000Y-113705000D03*
%TO.P,U6,13,VDDA*%
%TO.N,+3V3*%
X143038000Y-113705000D03*
%TO.P,U6,14,PA0*%
%TO.N,/SENSE6*%
X142538000Y-113705000D03*
%TO.P,U6,15,PA1*%
%TO.N,/PY6*%
X142038000Y-113705000D03*
%TO.P,U6,16,PA2*%
%TO.N,/PY5*%
X141538000Y-113705000D03*
D29*
%TO.P,U6,17,PA3*%
%TO.N,/SENSE5*%
X139613000Y-115630000D03*
%TO.P,U6,18,VSS*%
%TO.N,GNDREF*%
X139613000Y-116130000D03*
%TO.P,U6,19,VDD*%
%TO.N,+3V3*%
X139613000Y-116630000D03*
%TO.P,U6,20,PA4*%
%TO.N,/SENSE4*%
X139613000Y-117130000D03*
%TO.P,U6,21,PA5*%
%TO.N,/PY4*%
X139613000Y-117630000D03*
%TO.P,U6,22,PA6*%
%TO.N,/PY3*%
X139613000Y-118130000D03*
%TO.P,U6,23,PA7*%
%TO.N,/SENSE3*%
X139613000Y-118630000D03*
%TO.P,U6,24,PC4*%
%TO.N,/SENSE2*%
X139613000Y-119130000D03*
%TO.P,U6,25,PC5*%
%TO.N,/PY2*%
X139613000Y-119630000D03*
%TO.P,U6,26,PB0*%
%TO.N,/PY1*%
X139613000Y-120130000D03*
%TO.P,U6,27,PB1*%
%TO.N,/SENSE1*%
X139613000Y-120630000D03*
%TO.P,U6,28,PB2*%
%TO.N,unconnected-(U6-Pad28)*%
X139613000Y-121130000D03*
%TO.P,U6,29,PB10*%
%TO.N,unconnected-(U6-Pad29)*%
X139613000Y-121630000D03*
%TO.P,U6,30,VCAP_1*%
%TO.N,Net-(C12-Pad1)*%
X139613000Y-122130000D03*
%TO.P,U6,31,VSS*%
%TO.N,GNDREF*%
X139613000Y-122630000D03*
%TO.P,U6,32,VDD*%
%TO.N,+3V3*%
X139613000Y-123130000D03*
D28*
%TO.P,U6,33,PB12*%
%TO.N,/HighG_INT*%
X141538000Y-125055000D03*
%TO.P,U6,34,PB13*%
%TO.N,/IMU_I1*%
X142038000Y-125055000D03*
%TO.P,U6,35,PB14*%
%TO.N,/IMU_I2*%
X142538000Y-125055000D03*
%TO.P,U6,36,PB15*%
%TO.N,/IMU_IM*%
X143038000Y-125055000D03*
%TO.P,U6,37,PC6*%
%TO.N,/SERVO1*%
X143538000Y-125055000D03*
%TO.P,U6,38,PC7*%
%TO.N,/SERVO2*%
X144038000Y-125055000D03*
%TO.P,U6,39,PC8*%
%TO.N,Net-(LS1-Pad1)*%
X144538000Y-125055000D03*
%TO.P,U6,40,PC9*%
%TO.N,unconnected-(U6-Pad40)*%
X145038000Y-125055000D03*
%TO.P,U6,41,PA8*%
%TO.N,unconnected-(U6-Pad41)*%
X145538000Y-125055000D03*
%TO.P,U6,42,PA9*%
%TO.N,unconnected-(U6-Pad42)*%
X146038000Y-125055000D03*
%TO.P,U6,43,PA10*%
%TO.N,unconnected-(U6-Pad43)*%
X146538000Y-125055000D03*
%TO.P,U6,44,PA11*%
%TO.N,/D-*%
X147038000Y-125055000D03*
%TO.P,U6,45,PA12*%
%TO.N,/D+*%
X147538000Y-125055000D03*
%TO.P,U6,46,PA13*%
%TO.N,/SWDIO*%
X148038000Y-125055000D03*
%TO.P,U6,47,VSS*%
%TO.N,GNDREF*%
X148538000Y-125055000D03*
%TO.P,U6,48,VDD*%
%TO.N,+3V3*%
X149038000Y-125055000D03*
D29*
%TO.P,U6,49,PA14*%
%TO.N,/SWCLK*%
X150963000Y-123130000D03*
%TO.P,U6,50,PA15*%
%TO.N,unconnected-(U6-Pad50)*%
X150963000Y-122630000D03*
%TO.P,U6,51,PC10*%
%TO.N,/FIX*%
X150963000Y-122130000D03*
%TO.P,U6,52,PC11*%
%TO.N,/LoRa_RST*%
X150963000Y-121630000D03*
%TO.P,U6,53,PC12*%
%TO.N,/LoRa_INT*%
X150963000Y-121130000D03*
%TO.P,U6,54,PD2*%
%TO.N,unconnected-(U6-Pad54)*%
X150963000Y-120630000D03*
%TO.P,U6,55,PB3*%
%TO.N,/SCK*%
X150963000Y-120130000D03*
%TO.P,U6,56,PB4*%
%TO.N,/MISO*%
X150963000Y-119630000D03*
%TO.P,U6,57,PB5*%
%TO.N,/MOSI*%
X150963000Y-119130000D03*
%TO.P,U6,58,PB6*%
%TO.N,/TX1*%
X150963000Y-118630000D03*
%TO.P,U6,59,PB7*%
%TO.N,/RX1*%
X150963000Y-118130000D03*
%TO.P,U6,60,BOOT0*%
%TO.N,/BOOT0*%
X150963000Y-117630000D03*
%TO.P,U6,61,PB8*%
%TO.N,/SCL*%
X150963000Y-117130000D03*
%TO.P,U6,62,PB9*%
%TO.N,/SDA*%
X150963000Y-116630000D03*
%TO.P,U6,63,VSS*%
%TO.N,GNDREF*%
X150963000Y-116130000D03*
%TO.P,U6,64,VDD*%
%TO.N,+3V3*%
X150963000Y-115630000D03*
%TD*%
D30*
%TO.P,U2,1,VDD*%
%TO.N,+3V3*%
X159355000Y-105605000D03*
%TO.P,U2,2,PS*%
X158105000Y-105605000D03*
%TO.P,U2,3,GND*%
%TO.N,GNDREF*%
X156855000Y-105605000D03*
%TO.P,U2,4,CSB*%
%TO.N,Net-(R4-Pad1)*%
X155605000Y-105605000D03*
%TO.P,U2,5,CSB*%
X155605000Y-107755000D03*
%TO.P,U2,6,SDO*%
%TO.N,unconnected-(U2-Pad6)*%
X156855000Y-107755000D03*
%TO.P,U2,7,SDI/SDA*%
%TO.N,/SDA*%
X158105000Y-107755000D03*
%TO.P,U2,8,SCLK*%
%TO.N,/SCL*%
X159355000Y-107755000D03*
%TD*%
D13*
%TO.P,C15,1*%
%TO.N,+3V3*%
X137160000Y-116091000D03*
%TO.P,C15,2*%
%TO.N,GNDREF*%
X137160000Y-114541000D03*
%TD*%
D19*
%TO.P,R3,1*%
%TO.N,Net-(R3-Pad1)*%
X168291000Y-113475000D03*
%TO.P,R3,2*%
%TO.N,+3V3*%
X168291000Y-115125000D03*
%TD*%
%TO.P,R2,1*%
%TO.N,Net-(R2-Pad1)*%
X162560000Y-123127000D03*
%TO.P,R2,2*%
%TO.N,+3V3*%
X162560000Y-124777000D03*
%TD*%
D14*
%TO.P,C14,1*%
%TO.N,+3V3*%
X150422078Y-126103070D03*
%TO.P,C14,2*%
%TO.N,GNDREF*%
X150422078Y-127653070D03*
%TD*%
D10*
%TO.P,R25,1*%
%TO.N,/FET3*%
X122745000Y-120650000D03*
%TO.P,R25,2*%
%TO.N,/FIRE3*%
X121095000Y-120650000D03*
%TD*%
%TO.P,R34,1*%
%TO.N,GNDREF*%
X124269000Y-133045200D03*
%TO.P,R34,2*%
%TO.N,/PY1*%
X122619000Y-133045200D03*
%TD*%
D12*
%TO.P,R13,1*%
%TO.N,/FET1*%
X109220000Y-130873000D03*
%TO.P,R13,2*%
%TO.N,/FIRE1*%
X109220000Y-129223000D03*
%TD*%
D21*
%TO.P,C16,1*%
%TO.N,+3V3*%
X138512449Y-124475255D03*
%TO.P,C16,2*%
%TO.N,GNDREF*%
X136962449Y-124475255D03*
%TD*%
D16*
%TO.P,Q3,1,S1*%
%TO.N,GNDREF*%
X121131000Y-108585000D03*
%TO.P,Q3,2,G1*%
%TO.N,/PY5*%
X121131000Y-107315000D03*
%TO.P,Q3,3,S2*%
%TO.N,GNDREF*%
X121131000Y-106045000D03*
%TO.P,Q3,4,G2*%
%TO.N,/PY6*%
X121131000Y-104775000D03*
D17*
%TO.P,Q3,5,D1*%
%TO.N,/FET5*%
X117719909Y-107950574D03*
D18*
%TO.P,Q3,6,D2*%
%TO.N,/FET6*%
X117838989Y-105381840D03*
%TD*%
D10*
%TO.P,R39,1*%
%TO.N,GNDREF*%
X124269000Y-108458000D03*
%TO.P,R39,2*%
%TO.N,/PY5*%
X122619000Y-108458000D03*
%TD*%
D31*
%TO.P,U4,1,VDDIO*%
%TO.N,+3V3*%
X159023000Y-118155000D03*
D32*
%TO.P,U4,2,SCL/SPC*%
%TO.N,/SCL*%
X159053000Y-118735000D03*
%TO.P,U4,3,VDDIO*%
%TO.N,+3V3*%
X159053000Y-119165000D03*
%TO.P,U4,4,SDA/SDI/SDO*%
%TO.N,/SDA*%
X159053000Y-119595000D03*
%TO.P,U4,5,SDO_A/G*%
%TO.N,Net-(R6-Pad2)*%
X159053000Y-120025000D03*
D31*
%TO.P,U4,6,SDO_M*%
%TO.N,Net-(R1-Pad1)*%
X159023000Y-120605000D03*
%TO.P,U4,7,CS_A/G*%
%TO.N,Net-(R5-Pad1)*%
X159453000Y-120605000D03*
%TO.P,U4,8,CS_M*%
%TO.N,Net-(R2-Pad1)*%
X159883000Y-120605000D03*
%TO.P,U4,9,DRDY_M*%
%TO.N,/IMU_IM*%
X160313000Y-120605000D03*
%TO.P,U4,10,INT_M*%
%TO.N,unconnected-(U4-Pad10)*%
X160743000Y-120605000D03*
%TO.P,U4,11,INT1_A/G*%
%TO.N,/IMU_I1*%
X161173000Y-120605000D03*
%TO.P,U4,12,INT2_A/G*%
%TO.N,/IMU_I2*%
X161603000Y-120605000D03*
%TO.P,U4,13,DEN_A/G*%
%TO.N,unconnected-(U4-Pad13)*%
X162033000Y-120605000D03*
D32*
%TO.P,U4,14,RES*%
%TO.N,GNDREF*%
X162003000Y-120025000D03*
%TO.P,U4,15,RES*%
X162003000Y-119595000D03*
%TO.P,U4,16,RES*%
X162003000Y-119165000D03*
%TO.P,U4,17,RES*%
X162003000Y-118735000D03*
D31*
%TO.P,U4,18,RES*%
X162033000Y-118155000D03*
%TO.P,U4,19,GND*%
X161603000Y-118155000D03*
%TO.P,U4,20,GND*%
X161173000Y-118155000D03*
%TO.P,U4,21,CAP*%
%TO.N,Net-(C10-Pad1)*%
X160743000Y-118155000D03*
%TO.P,U4,22,VDD*%
%TO.N,+3V3*%
X160313000Y-118155000D03*
%TO.P,U4,23,VDD*%
X159883000Y-118155000D03*
%TO.P,U4,24,C1*%
%TO.N,Net-(C9-Pad1)*%
X159453000Y-118155000D03*
%TD*%
D12*
%TO.P,R35,1*%
%TO.N,GNDREF*%
X134213600Y-121729000D03*
%TO.P,R35,2*%
%TO.N,/PY3*%
X134213600Y-120079000D03*
%TD*%
D10*
%TO.P,R29,1*%
%TO.N,/SENSE3*%
X130365000Y-123190000D03*
%TO.P,R29,2*%
%TO.N,/FET3*%
X128715000Y-123190000D03*
%TD*%
D15*
%TO.P,REF\u002A\u002A,1*%
%TO.N,GNDREF*%
X103505000Y-105410000D03*
%TD*%
D12*
%TO.P,R32,1*%
%TO.N,GNDREF*%
X134213600Y-118681000D03*
%TO.P,R32,2*%
%TO.N,/PY4*%
X134213600Y-117031000D03*
%TD*%
D11*
%TO.P,C17,1*%
%TO.N,+3V3*%
X142735000Y-110744000D03*
%TO.P,C17,2*%
%TO.N,GNDREF*%
X144285000Y-110744000D03*
%TD*%
D12*
%TO.P,R19,1*%
%TO.N,/FET2*%
X113284000Y-130873000D03*
%TO.P,R19,2*%
%TO.N,/FIRE2*%
X113284000Y-129223000D03*
%TD*%
D15*
%TO.P,REF\u002A\u002A,1*%
%TO.N,GNDREF*%
X168910000Y-105410000D03*
%TD*%
D33*
%TO.P,U8,1,~{CS}*%
%TO.N,/CS_FL*%
X179280000Y-111125000D03*
%TO.P,U8,2,DO(IO1)*%
%TO.N,/MISO*%
X179280000Y-112395000D03*
%TO.P,U8,3,IO2*%
%TO.N,unconnected-(U8-Pad3)*%
X179280000Y-113665000D03*
%TO.P,U8,4,GND*%
%TO.N,GNDREF*%
X179280000Y-114935000D03*
%TO.P,U8,5,DI(IO0)*%
%TO.N,/MOSI*%
X186480000Y-114935000D03*
%TO.P,U8,6,CLK*%
%TO.N,/SCK*%
X186480000Y-113665000D03*
%TO.P,U8,7,IO3*%
%TO.N,unconnected-(U8-Pad7)*%
X186480000Y-112395000D03*
%TO.P,U8,8,VCC*%
%TO.N,+3V3*%
X186480000Y-111125000D03*
%TD*%
D10*
%TO.P,R17,1*%
%TO.N,/SENSE1*%
X121729000Y-136093200D03*
%TO.P,R17,2*%
%TO.N,/FET1*%
X120079000Y-136093200D03*
%TD*%
D34*
%TO.P,J4,1,Pin_1*%
%TO.N,/BOOT0*%
X158750000Y-134620000D03*
D35*
%TO.P,J4,2,Pin_2*%
%TO.N,/SWCLK*%
X156210000Y-134620000D03*
%TO.P,J4,3,Pin_3*%
%TO.N,/SWDIO*%
X153670000Y-134620000D03*
%TO.P,J4,4,Pin_4*%
%TO.N,/NRST*%
X151130000Y-134620000D03*
%TO.P,J4,5,Pin_5*%
%TO.N,+3V3*%
X148590000Y-134620000D03*
%TO.P,J4,6,Pin_6*%
%TO.N,GNDREF*%
X146050000Y-134620000D03*
%TD*%
D36*
%TO.P,J1,6,Shield*%
%TO.N,GNDREF*%
X134898400Y-136296400D03*
X142048400Y-136296400D03*
%TD*%
D37*
%TO.P,J3,1,Pin_1*%
%TO.N,/LIPO+*%
X101600000Y-123310000D03*
D38*
%TO.P,J3,2,Pin_2*%
%TO.N,/SW+*%
X104140000Y-123310000D03*
%TO.P,J3,3,Pin_3*%
X106680000Y-123310000D03*
%TO.P,J3,4,Pin_4*%
%TO.N,/FIRE1*%
X109220000Y-123310000D03*
%TO.P,J3,5,Pin_5*%
%TO.N,/SW+*%
X111760000Y-123310000D03*
%TO.P,J3,6,Pin_6*%
%TO.N,/FIRE2*%
X114300000Y-123310000D03*
%TO.P,J3,7,Pin_7*%
%TO.N,/SW+*%
X116840000Y-123310000D03*
%TO.P,J3,8,Pin_8*%
%TO.N,/FIRE3*%
X119380000Y-123310000D03*
%TD*%
D34*
%TO.P,J5,1,Pin_1*%
%TO.N,/SERVO1*%
X128270000Y-134620000D03*
D35*
%TO.P,J5,2,Pin_2*%
%TO.N,/SERVO2*%
X130810000Y-134620000D03*
%TD*%
D37*
%TO.P,J2,1,Pin_1*%
%TO.N,/FIRE4*%
X119383547Y-115435154D03*
D38*
%TO.P,J2,2,Pin_2*%
%TO.N,/SW+*%
X116843547Y-115435154D03*
%TO.P,J2,3,Pin_3*%
%TO.N,/FIRE5*%
X114303547Y-115435154D03*
%TO.P,J2,4,Pin_4*%
%TO.N,/SW+*%
X111763547Y-115435154D03*
%TO.P,J2,5,Pin_5*%
%TO.N,/FIRE6*%
X109223547Y-115435154D03*
%TO.P,J2,6,Pin_6*%
%TO.N,/SW+*%
X106683547Y-115435154D03*
%TO.P,J2,7,Pin_7*%
%TO.N,/LIPO+*%
X104143547Y-115435154D03*
%TO.P,J2,8,Pin_8*%
%TO.N,GNDREF*%
X101603547Y-115435154D03*
%TD*%
D39*
%TO.P,LS1,1,1*%
%TO.N,Net-(LS1-Pad1)*%
X166116000Y-122630000D03*
D40*
%TO.P,LS1,2,2*%
%TO.N,GNDREF*%
X166116000Y-116130000D03*
%TD*%
D41*
%TO.N,GNDREF*%
X127482600Y-130632200D03*
X193141600Y-130911600D03*
X131826000Y-125628400D03*
X193471800Y-133807200D03*
X141579600Y-131775200D03*
X162052000Y-112979200D03*
X171545200Y-118980000D03*
X148336000Y-111963200D03*
X195097400Y-129387600D03*
X138572421Y-122701300D03*
X189357000Y-135534400D03*
X132461000Y-118872000D03*
X133146800Y-118414800D03*
X196443600Y-132232400D03*
X149656800Y-116128800D03*
X135991600Y-123748800D03*
X127203200Y-129946400D03*
X122097800Y-106172000D03*
X150571200Y-128524000D03*
X133654800Y-104698800D03*
X193243200Y-111658400D03*
X195630800Y-132232400D03*
X193827400Y-106781600D03*
X124510800Y-126695200D03*
X196596000Y-112217200D03*
X193497200Y-132892800D03*
X145186400Y-106781600D03*
X132537200Y-118008400D03*
X195961000Y-129387600D03*
X194792600Y-132232400D03*
X122174000Y-106934000D03*
X135026400Y-118110000D03*
X130759200Y-114198400D03*
X192989200Y-109423200D03*
X162712400Y-119837200D03*
X193217800Y-110921800D03*
X142951200Y-117652800D03*
X140868400Y-116128800D03*
X120904000Y-109829600D03*
X189839600Y-136245600D03*
X157480000Y-112928400D03*
X128981200Y-129813300D03*
X193065400Y-106781600D03*
X132740400Y-122072400D03*
X147015200Y-104089200D03*
X135077200Y-131724400D03*
X136967478Y-125544003D03*
X120507064Y-134966285D03*
X163576000Y-112979200D03*
X192227200Y-133400800D03*
X194462400Y-109194600D03*
X192811400Y-135331200D03*
X191109600Y-134289800D03*
X177139600Y-114960400D03*
X132689600Y-120091200D03*
X191947800Y-134188200D03*
X122529600Y-104343200D03*
X136042400Y-115671600D03*
X192760600Y-108661200D03*
X196824600Y-129387600D03*
X124866400Y-112064800D03*
X175463200Y-126288800D03*
X192494752Y-107824392D03*
X133119884Y-117599464D03*
X171339000Y-112429800D03*
X195986400Y-109855000D03*
X121269064Y-134966285D03*
X173228000Y-121259600D03*
X122478800Y-109778800D03*
X136144000Y-105308400D03*
X158800800Y-112979200D03*
X125476000Y-108458000D03*
X193167000Y-110159800D03*
X128066800Y-130200400D03*
X193421000Y-129997200D03*
X164236400Y-119837200D03*
X189433200Y-134721600D03*
X133096000Y-120751600D03*
X194005200Y-132283200D03*
X123672600Y-106984800D03*
X121716800Y-109474000D03*
X197205600Y-132232400D03*
X169824400Y-112420400D03*
X192328800Y-135991600D03*
X122682000Y-135382000D03*
X116738400Y-135737600D03*
X194360800Y-108432600D03*
X125120400Y-133756400D03*
X129286000Y-112369600D03*
X192328800Y-132511800D03*
X190703200Y-136296400D03*
X120243600Y-109474000D03*
X193399039Y-127917839D03*
X175310800Y-119938800D03*
X122986800Y-107340400D03*
X191541400Y-136296400D03*
X125679200Y-106117220D03*
X196138800Y-110667800D03*
X148844000Y-126542800D03*
X196037200Y-125526800D03*
X128707303Y-130485303D03*
X193243200Y-134620000D03*
X196138800Y-111455200D03*
X125171200Y-129946400D03*
X135077200Y-121310400D03*
X172059600Y-122224800D03*
X129692400Y-103784400D03*
X131165600Y-109220000D03*
X112117984Y-134470652D03*
X196596000Y-122174000D03*
X121980264Y-134956819D03*
X190195200Y-134315200D03*
X194513200Y-107696000D03*
X167386000Y-119380000D03*
X160528000Y-112979200D03*
X156210000Y-103886000D03*
X192557400Y-131648200D03*
X195021200Y-109728000D03*
X132486400Y-121310400D03*
X145389600Y-110185200D03*
X154533600Y-113792000D03*
X193395600Y-103276400D03*
X114401600Y-136499600D03*
X194106800Y-129387600D03*
X127457200Y-132181600D03*
%TO.N,+3V3*%
X120904000Y-128270000D03*
X138023600Y-115925600D03*
X149047200Y-105765600D03*
X171551600Y-126034800D03*
X153619200Y-122174000D03*
X171399200Y-108915200D03*
X152400000Y-107492800D03*
X116738400Y-128828800D03*
X138355000Y-105383400D03*
X129895600Y-131622800D03*
X161112200Y-116509800D03*
X141884400Y-115519200D03*
X151485600Y-127050800D03*
X152146000Y-114909600D03*
X171297600Y-136398000D03*
X138328400Y-120657300D03*
X167843200Y-127203200D03*
X120954639Y-136698141D03*
X151638000Y-109220000D03*
X157480000Y-116840000D03*
X117906800Y-136347200D03*
X149606000Y-112471200D03*
X158800800Y-106375200D03*
X125730000Y-135788400D03*
X170586400Y-122428000D03*
X139496800Y-125374400D03*
X169074600Y-115761000D03*
X171348400Y-116027200D03*
%TO.N,/NRST*%
X147523200Y-122123200D03*
%TO.N,/BOOT0*%
X149352000Y-117805200D03*
%TO.N,/CS_SD*%
X145161000Y-116459000D03*
%TO.N,/MOSI*%
X149707600Y-119024400D03*
X168021000Y-124764800D03*
%TO.N,/SCK*%
X147066000Y-118999000D03*
X167894000Y-126238000D03*
X149350193Y-120259620D03*
%TO.N,/MISO*%
X148971000Y-119634000D03*
X169545000Y-124714000D03*
%TO.N,Net-(LS1-Pad1)*%
X148844000Y-123698000D03*
X152958800Y-124339100D03*
%TO.N,/D+*%
X136525000Y-127889000D03*
%TO.N,/D-*%
X140462000Y-127889000D03*
%TO.N,/SCL*%
X158445200Y-118637300D03*
X159385000Y-109093000D03*
X169332400Y-119634000D03*
X153339800Y-117957600D03*
%TO.N,/SDA*%
X159703400Y-119595000D03*
X167021000Y-120904000D03*
%TO.N,/SENSE1*%
X136804400Y-122421700D03*
X140970000Y-120650000D03*
%TO.N,/HighG_INT*%
X167019314Y-117380000D03*
X141478000Y-123647200D03*
%TO.N,/IMU_IM*%
X160324800Y-120142000D03*
X143510000Y-123647200D03*
%TO.N,/IMU_I1*%
X142622864Y-122423157D03*
X160832800Y-121412000D03*
%TO.N,/IMU_I2*%
X161899600Y-121462800D03*
X142798800Y-123164600D03*
%TO.N,/CS_LoRa*%
X172821600Y-129235200D03*
X144526000Y-115468400D03*
%TO.N,/CS_FL*%
X173863000Y-111125000D03*
X146177000Y-110871000D03*
%TO.N,/FIX*%
X177038000Y-116992400D03*
X149656800Y-122123200D03*
%TO.N,/TX1*%
X152298400Y-118973600D03*
%TO.N,/RX1*%
X154279600Y-120904000D03*
%TD*%
D42*
%TO.N,Net-(LS1-Pad1)*%
X164688613Y-124057387D02*
X166116000Y-122630000D01*
X152958800Y-124339100D02*
X153240513Y-124057387D01*
X153240513Y-124057387D02*
X164688613Y-124057387D01*
%TO.N,/IMU_I2*%
X161603000Y-121166200D02*
X161603000Y-120605000D01*
X161899600Y-121462800D02*
X161603000Y-121166200D01*
%TO.N,/IMU_I1*%
X142622864Y-122423157D02*
X142038000Y-123008021D01*
X142038000Y-123008021D02*
X142038000Y-125055000D01*
%TO.N,/SCL*%
X158542900Y-118735000D02*
X159053000Y-118735000D01*
X158445200Y-118637300D02*
X158542900Y-118735000D01*
%TO.N,/SENSE1*%
X124386444Y-136156200D02*
X123190000Y-136156200D01*
X134101283Y-126441361D02*
X124386444Y-136156200D01*
X134101283Y-124856004D02*
X134101283Y-126441361D01*
X136535587Y-122421700D02*
X134101283Y-124856004D01*
X136804400Y-122421700D02*
X136535587Y-122421700D01*
%TO.N,/MOSI*%
X149813200Y-119130000D02*
X150963000Y-119130000D01*
X149707600Y-119024400D02*
X149813200Y-119130000D01*
X168706800Y-124764800D02*
X169212000Y-125270000D01*
X169212000Y-125270000D02*
X174880000Y-125270000D01*
X168021000Y-124764800D02*
X168706800Y-124764800D01*
%TO.N,GNDREF*%
X134658600Y-121729000D02*
X134213600Y-121729000D01*
X135077200Y-121310400D02*
X134658600Y-121729000D01*
X125323600Y-105867200D02*
X124675400Y-105867200D01*
X125573620Y-106117220D02*
X125323600Y-105867200D01*
X125679200Y-106117220D02*
X125573620Y-106117220D01*
X138643721Y-122630000D02*
X139613000Y-122630000D01*
X138572421Y-122701300D02*
X138643721Y-122630000D01*
X192096400Y-133270000D02*
X190880000Y-133270000D01*
X192227200Y-133400800D02*
X192096400Y-133270000D01*
%TO.N,Net-(AE1-Pad1)*%
X190880000Y-135270000D02*
X190933605Y-135270000D01*
X196116236Y-130824379D02*
X195078357Y-130824379D01*
D43*
X192913000Y-133290605D02*
X192913000Y-132989736D01*
X192913079Y-132989736D02*
G75*
G02*
X195078357Y-130824379I2165321J36D01*
G01*
X192913000Y-133290605D02*
G75*
G02*
X190933605Y-135270000I-1979400J5D01*
G01*
D42*
%TO.N,GNDREF*%
X173238400Y-121270000D02*
X173228000Y-121259600D01*
D44*
X120345200Y-134823200D02*
X122165424Y-134823200D01*
D42*
X136967478Y-125544003D02*
X136962449Y-125521151D01*
X169815000Y-113525000D02*
X169815000Y-112429800D01*
X122643400Y-104457000D02*
X122529600Y-104343200D01*
X134455400Y-118681000D02*
X135026400Y-118110000D01*
D44*
X122165424Y-134823200D02*
X122165424Y-134990683D01*
D42*
X123698000Y-134315200D02*
X123202200Y-134315200D01*
X162033000Y-118155000D02*
X162033000Y-118705000D01*
D44*
X132842000Y-117754400D02*
X133096000Y-117754400D01*
D42*
X162052000Y-114033000D02*
X162052000Y-112979200D01*
D44*
X133045200Y-120243600D02*
X132791200Y-120243600D01*
X122165424Y-134990683D02*
X122440630Y-135265889D01*
D45*
X162003000Y-119378200D02*
X162253400Y-119378200D01*
D42*
X150422078Y-128374878D02*
X150571200Y-128524000D01*
X150422078Y-127653070D02*
X150422078Y-128374878D01*
X162003000Y-119378200D02*
X162003000Y-118735000D01*
X136962449Y-124475255D02*
X136962449Y-125521151D01*
X167386000Y-120040400D02*
X167386000Y-119380000D01*
X133647000Y-105605000D02*
X133647000Y-104706600D01*
D44*
X121131000Y-106045000D02*
X121589800Y-106045000D01*
D42*
X153417000Y-113792000D02*
X154533600Y-113792000D01*
X160528000Y-114033000D02*
X160528000Y-112979200D01*
X196116236Y-127917839D02*
X193399039Y-127917839D01*
X193040000Y-123050000D02*
X195084400Y-123050000D01*
X196037200Y-124002800D02*
X196037200Y-125526800D01*
X140868400Y-116128800D02*
X140867200Y-116130000D01*
X129497000Y-105605000D02*
X133647000Y-105605000D01*
D46*
X121131000Y-131445000D02*
X121140320Y-131454320D01*
D42*
X136042400Y-115658600D02*
X136042400Y-115671600D01*
X149658000Y-116130000D02*
X149656800Y-116128800D01*
D46*
X125796880Y-131454320D02*
X126949200Y-130302000D01*
D44*
X131562011Y-121285000D02*
X132715000Y-121285000D01*
D42*
X174880000Y-121270000D02*
X173238400Y-121270000D01*
D44*
X122389862Y-109650200D02*
X122392139Y-109652477D01*
D42*
X146341000Y-107605000D02*
X146009800Y-107605000D01*
X124269000Y-133045200D02*
X124269000Y-133947400D01*
X162003000Y-120025000D02*
X162003000Y-119378200D01*
X136791400Y-122949000D02*
X135991600Y-123748800D01*
X179280000Y-114935000D02*
X177165000Y-114935000D01*
X167925600Y-120580000D02*
X167386000Y-120040400D01*
X144780000Y-109220000D02*
X145389600Y-109829600D01*
D44*
X132723480Y-120979044D02*
X133186280Y-120516244D01*
D42*
X157213000Y-103886000D02*
X156210000Y-103886000D01*
X171545200Y-118980000D02*
X171545200Y-118611600D01*
X124269000Y-133947400D02*
X123698000Y-134518400D01*
D45*
X162253400Y-119378200D02*
X162712400Y-119837200D01*
D44*
X132321633Y-118745000D02*
X132842000Y-118224633D01*
D42*
X169815000Y-112429800D02*
X169824400Y-112420400D01*
X124866400Y-112064800D02*
X124854200Y-112077000D01*
X174880000Y-135270000D02*
X170830000Y-135270000D01*
X196116236Y-133730919D02*
X193624281Y-133730919D01*
X162033000Y-118705000D02*
X162003000Y-118735000D01*
X195084400Y-123050000D02*
X196037200Y-124002800D01*
X156855000Y-105605000D02*
X156855000Y-104244000D01*
X144285000Y-110744000D02*
X144830800Y-110744000D01*
D44*
X132715000Y-121285000D02*
X132723480Y-121276520D01*
X121131000Y-108585000D02*
X121131000Y-109650200D01*
D42*
X121131000Y-133985000D02*
X121132600Y-133985000D01*
X143538000Y-113705000D02*
X143538000Y-117066000D01*
X171545200Y-118611600D02*
X171113600Y-118180000D01*
X137668000Y-122949000D02*
X136791400Y-122949000D01*
D45*
X162554200Y-118155000D02*
X164236400Y-119837200D01*
D42*
X170621677Y-120580000D02*
X171545200Y-119656477D01*
X144830800Y-110744000D02*
X145389600Y-110185200D01*
D46*
X121140320Y-131454320D02*
X125796880Y-131454320D01*
D44*
X121107200Y-109626400D02*
X120396000Y-109626400D01*
D42*
X137160000Y-114541000D02*
X136042400Y-115658600D01*
D44*
X122165424Y-134823200D02*
X122166927Y-134824703D01*
D42*
X124815600Y-130302000D02*
X125171200Y-129946400D01*
D44*
X121131000Y-109650200D02*
X122389862Y-109650200D01*
D42*
X124269000Y-133947400D02*
X125108200Y-133947400D01*
X163576000Y-114033000D02*
X163576000Y-112979200D01*
X170307000Y-118180000D02*
X171113600Y-118180000D01*
X148538000Y-126236800D02*
X148844000Y-126542800D01*
D44*
X121589800Y-106045000D02*
X122682000Y-107137200D01*
D42*
X131826000Y-124777000D02*
X131826000Y-125628400D01*
D44*
X133222507Y-117880907D02*
X133222507Y-118126723D01*
D42*
X150963000Y-116130000D02*
X149658000Y-116130000D01*
D46*
X126949200Y-130302000D02*
X128501670Y-130302000D01*
D44*
X131562011Y-118745000D02*
X132321633Y-118745000D01*
D42*
X131826000Y-113983000D02*
X130974600Y-113983000D01*
D44*
X122682000Y-107137200D02*
X123621800Y-107137200D01*
D42*
X171339000Y-113525000D02*
X171339000Y-112429800D01*
X125120400Y-133935200D02*
X125120400Y-133756400D01*
X171545200Y-118980000D02*
X170307000Y-118980000D01*
D44*
X132842000Y-118224633D02*
X132842000Y-117754400D01*
D42*
X193624281Y-133730919D02*
X193548000Y-133807200D01*
X123444000Y-104457000D02*
X122643400Y-104457000D01*
X145389600Y-109829600D02*
X145389600Y-110185200D01*
X156855000Y-104244000D02*
X157213000Y-103886000D01*
X157480000Y-114033000D02*
X157480000Y-112928400D01*
X134213600Y-118681000D02*
X134455400Y-118681000D01*
D46*
X128501670Y-130302000D02*
X128703335Y-130100335D01*
D44*
X121131000Y-109650200D02*
X121107200Y-109626400D01*
D42*
X123190000Y-126683000D02*
X124498600Y-126683000D01*
X124510800Y-126695200D02*
X124498600Y-126683000D01*
X170830000Y-135270000D02*
X168910000Y-133350000D01*
X177165000Y-114935000D02*
X177139600Y-114960400D01*
X143538000Y-117066000D02*
X142951200Y-117652800D01*
X124269000Y-108458000D02*
X125476000Y-108458000D01*
X132067000Y-109220000D02*
X131165600Y-109220000D01*
X146009800Y-107605000D02*
X145186400Y-106781600D01*
X130974600Y-113983000D02*
X130759200Y-114198400D01*
D44*
X132723480Y-121276520D02*
X132723480Y-121970800D01*
D42*
X161173000Y-118155000D02*
X162033000Y-118155000D01*
X168307000Y-120580000D02*
X167925600Y-120580000D01*
X124269000Y-130302000D02*
X124815600Y-130302000D01*
D44*
X132723480Y-121276520D02*
X132723480Y-120979044D01*
D45*
X162033000Y-118155000D02*
X162554200Y-118155000D01*
D42*
X144285000Y-109220000D02*
X144780000Y-109220000D01*
X170307000Y-120580000D02*
X170621677Y-120580000D01*
X159004000Y-113182400D02*
X158800800Y-112979200D01*
X136956800Y-125526800D02*
X136967478Y-125544003D01*
D44*
X133096000Y-117754400D02*
X133222507Y-117880907D01*
X121132600Y-133985000D02*
X121767600Y-134620000D01*
D42*
X148538000Y-125055000D02*
X148538000Y-126236800D01*
X139613000Y-116130000D02*
X140867200Y-116130000D01*
X159004000Y-114033000D02*
X159004000Y-113182400D01*
X123444000Y-112077000D02*
X124854200Y-112077000D01*
X171545200Y-119656477D02*
X171545200Y-118980000D01*
%TO.N,+3V3*%
X159355000Y-105605000D02*
X159355000Y-104478000D01*
X150963000Y-114696000D02*
X151867000Y-113792000D01*
X171348400Y-115084400D02*
X171348400Y-116027200D01*
X138512449Y-124475255D02*
X138597655Y-124475255D01*
X142341600Y-115519200D02*
X141884400Y-115519200D01*
X143038000Y-114822800D02*
X142341600Y-115519200D01*
D45*
X171450000Y-108864400D02*
X171399200Y-108915200D01*
D42*
X158800800Y-106375200D02*
X158809000Y-106367000D01*
X153340341Y-121291121D02*
X153340341Y-121895141D01*
D47*
X152409200Y-115172800D02*
X152146000Y-114909600D01*
D42*
X153340341Y-121895141D02*
X153619200Y-122174000D01*
X137858200Y-116091000D02*
X138023600Y-115925600D01*
D47*
X190880000Y-127270000D02*
X187791600Y-127270000D01*
D42*
X150422078Y-126103070D02*
X150537870Y-126103070D01*
X158105000Y-105605000D02*
X158809000Y-105605000D01*
X149471070Y-126103070D02*
X150422078Y-126103070D01*
X170307000Y-115567000D02*
X170307000Y-117380000D01*
X157480000Y-117856000D02*
X157480000Y-118465600D01*
X171399200Y-108915200D02*
X171399200Y-108864400D01*
X142735000Y-111904678D02*
X143038000Y-112207678D01*
X157683200Y-118059200D02*
X157480000Y-117856000D01*
D48*
X162560000Y-124777000D02*
X165417000Y-124777000D01*
D47*
X152409200Y-115630000D02*
X152409200Y-115172800D01*
D42*
X170307000Y-122148600D02*
X170586400Y-122428000D01*
D48*
X165417000Y-124777000D02*
X167843200Y-127203200D01*
D42*
X170742338Y-121380000D02*
X170307000Y-121380000D01*
X171339000Y-115075000D02*
X171348400Y-115084400D01*
D48*
X161112200Y-116509800D02*
X161303000Y-116319000D01*
X162052000Y-115583000D02*
X161303000Y-115583000D01*
D42*
X150537870Y-126103070D02*
X151485600Y-127050800D01*
X149038000Y-125670000D02*
X149471070Y-126103070D01*
X169074600Y-115125000D02*
X169765000Y-115125000D01*
D48*
X161303000Y-116319000D02*
X161303000Y-115583000D01*
X157480000Y-116840000D02*
X157480000Y-117856000D01*
D47*
X187791600Y-127270000D02*
X178663600Y-136398000D01*
D42*
X158179400Y-119165000D02*
X159053000Y-119165000D01*
X138597655Y-124475255D02*
X139496800Y-125374400D01*
X142735000Y-110744000D02*
X142735000Y-111904678D01*
D45*
X184835800Y-111125000D02*
X182575200Y-108864400D01*
D42*
X153255717Y-115630000D02*
X152409200Y-115630000D01*
X157480000Y-118465600D02*
X158179400Y-119165000D01*
X138512449Y-123615551D02*
X138512449Y-124475255D01*
X193040000Y-126365000D02*
X192135000Y-127270000D01*
X170307000Y-121380000D02*
X170307000Y-122148600D01*
X137160000Y-116091000D02*
X137858200Y-116091000D01*
X154864341Y-115545376D02*
X153340341Y-115545376D01*
X172364400Y-116100400D02*
X172364400Y-119757938D01*
X172364400Y-119757938D02*
X170742338Y-121380000D01*
X169765000Y-115125000D02*
X169815000Y-115075000D01*
X158809000Y-105605000D02*
X158809000Y-106367000D01*
X149038000Y-125055000D02*
X149038000Y-125670000D01*
X147791000Y-105755000D02*
X149036600Y-105755000D01*
D47*
X178663600Y-136398000D02*
X171297600Y-136398000D01*
D48*
X157480000Y-115583000D02*
X157480000Y-116840000D01*
D42*
X160065000Y-118155000D02*
X160313000Y-118155000D01*
X192135000Y-127270000D02*
X190880000Y-127270000D01*
X138998000Y-123130000D02*
X138512449Y-123615551D01*
D48*
X160065000Y-118155000D02*
X160065000Y-117557000D01*
D42*
X150963000Y-115630000D02*
X150963000Y-114696000D01*
X153416000Y-107505000D02*
X152412200Y-107505000D01*
X171339000Y-115075000D02*
X172364400Y-116100400D01*
D48*
X157988000Y-124777000D02*
X162560000Y-124777000D01*
D42*
X139613000Y-123130000D02*
X138998000Y-123130000D01*
D48*
X161303000Y-115583000D02*
X160528000Y-115583000D01*
D42*
X193040000Y-124600000D02*
X193040000Y-126365000D01*
X149038000Y-113039200D02*
X149606000Y-112471200D01*
D45*
X182575200Y-108864400D02*
X171450000Y-108864400D01*
D42*
X159883000Y-118155000D02*
X160065000Y-118155000D01*
X139613000Y-116630000D02*
X137699000Y-116630000D01*
X168291000Y-115125000D02*
X169074600Y-115125000D01*
X143038000Y-112207678D02*
X143038000Y-113705000D01*
D48*
X160065000Y-117557000D02*
X161112200Y-116509800D01*
D42*
X159023000Y-118155000D02*
X158927200Y-118059200D01*
X152412200Y-107505000D02*
X152400000Y-107492800D01*
X169815000Y-115075000D02*
X170307000Y-115567000D01*
D45*
X169074600Y-115125000D02*
X169074600Y-115761000D01*
D42*
X143038000Y-113705000D02*
X143038000Y-114822800D01*
X153340341Y-115545376D02*
X153255717Y-115630000D01*
X158809000Y-105605000D02*
X159355000Y-105605000D01*
X159355000Y-104478000D02*
X158763000Y-103886000D01*
X152409200Y-115630000D02*
X150963000Y-115630000D01*
X149038000Y-113705000D02*
X149038000Y-113039200D01*
X137699000Y-116630000D02*
X137160000Y-116091000D01*
X158927200Y-118059200D02*
X157683200Y-118059200D01*
D45*
X186480000Y-111125000D02*
X184835800Y-111125000D01*
D42*
X149036600Y-105755000D02*
X149047200Y-105765600D01*
X142735000Y-109220000D02*
X142735000Y-110744000D01*
%TO.N,Net-(C9-Pad1)*%
X159004000Y-116484400D02*
X159453000Y-116933400D01*
X159004000Y-115583000D02*
X159004000Y-116484400D01*
X159453000Y-116933400D02*
X159453000Y-118155000D01*
%TO.N,Net-(C10-Pad1)*%
X163576000Y-115583000D02*
X162014200Y-117144800D01*
X161288578Y-117144800D02*
X160743000Y-117690378D01*
X160743000Y-117690378D02*
X160743000Y-118155000D01*
X162014200Y-117144800D02*
X161288578Y-117144800D01*
%TO.N,/NRST*%
X146939000Y-109601000D02*
X145093000Y-107755000D01*
X133617000Y-109220000D02*
X133617000Y-107785000D01*
X146038000Y-113705000D02*
X146038000Y-112691679D01*
X133617000Y-107785000D02*
X133647000Y-107755000D01*
X146038000Y-120638000D02*
X147523200Y-122123200D01*
X146038000Y-112691679D02*
X146939000Y-111790679D01*
X129497000Y-107755000D02*
X133647000Y-107755000D01*
X145093000Y-107755000D02*
X133647000Y-107755000D01*
X146939000Y-111790679D02*
X146939000Y-109601000D01*
X146038000Y-113705000D02*
X146038000Y-120638000D01*
%TO.N,Net-(C12-Pad1)*%
X138399000Y-122130000D02*
X137668000Y-121399000D01*
X139613000Y-122130000D02*
X138399000Y-122130000D01*
D49*
%TO.N,/FIRE1*%
X109220000Y-129223000D02*
X109220000Y-123310000D01*
%TO.N,/FIRE2*%
X114300000Y-124968000D02*
X114300000Y-123310000D01*
X113284000Y-125984000D02*
X114300000Y-124968000D01*
X113284000Y-129223000D02*
X113284000Y-125984000D01*
%TO.N,/FIRE3*%
X119380000Y-123310000D02*
X119380000Y-121412000D01*
X120142000Y-120650000D02*
X121095000Y-120650000D01*
X119380000Y-121412000D02*
X120142000Y-120650000D01*
%TO.N,/FIRE6*%
X109223547Y-109540547D02*
X109223547Y-115435154D01*
D42*
X109220000Y-109537000D02*
X109223547Y-109540547D01*
D49*
%TO.N,/FIRE5*%
X113284000Y-109537000D02*
X113284000Y-112776000D01*
X113284000Y-112776000D02*
X114303547Y-113795547D01*
X114303547Y-113795547D02*
X114303547Y-115435154D01*
%TO.N,/FIRE4*%
X120142000Y-118110000D02*
X121095000Y-118110000D01*
X119383547Y-117351547D02*
X120142000Y-118110000D01*
X119383547Y-115435154D02*
X119383547Y-117351547D01*
D42*
%TO.N,/BOOT0*%
X149527200Y-117630000D02*
X149352000Y-117805200D01*
X150963000Y-117630000D02*
X149527200Y-117630000D01*
%TO.N,/SWCLK*%
X150963000Y-125105800D02*
X156210000Y-130352800D01*
X156210000Y-130352800D02*
X156210000Y-134620000D01*
X150963000Y-123130000D02*
X150963000Y-125105800D01*
%TO.N,/SWDIO*%
X148038000Y-127311600D02*
X153670000Y-132943600D01*
X148038000Y-125055000D02*
X148038000Y-127311600D01*
X153670000Y-132943600D02*
X153670000Y-134620000D01*
%TO.N,/SERVO1*%
X136160032Y-126826680D02*
X128366712Y-134620000D01*
X143429320Y-126826680D02*
X136160032Y-126826680D01*
X128366712Y-134620000D02*
X128270000Y-134620000D01*
X143538000Y-125055000D02*
X143538000Y-126718000D01*
X143538000Y-126718000D02*
X143429320Y-126826680D01*
%TO.N,/SERVO2*%
X144038000Y-126853000D02*
X144038000Y-125055000D01*
X130810000Y-132781034D02*
X136337034Y-127254000D01*
X130810000Y-134620000D02*
X130810000Y-132781034D01*
X136337034Y-127254000D02*
X143637000Y-127254000D01*
X143637000Y-127254000D02*
X144038000Y-126853000D01*
%TO.N,/CS_SD*%
X145538000Y-116082000D02*
X145538000Y-113705000D01*
X145161000Y-116459000D02*
X145538000Y-116082000D01*
%TO.N,/MOSI*%
X174880000Y-125270000D02*
X177973320Y-122176680D01*
X177973320Y-122176680D02*
X177973320Y-120095680D01*
X177973320Y-120095680D02*
X183134000Y-114935000D01*
X183134000Y-114935000D02*
X186480000Y-114935000D01*
%TO.N,/SCK*%
X188163200Y-114376200D02*
X188163200Y-115265200D01*
X149350193Y-120259620D02*
X149479813Y-120130000D01*
X187604400Y-115824000D02*
X182849322Y-115824000D01*
X178400640Y-125383360D02*
X176514000Y-127270000D01*
X168926000Y-127270000D02*
X174880000Y-127270000D01*
X182849322Y-115824000D02*
X178400640Y-120272682D01*
X176514000Y-127270000D02*
X174880000Y-127270000D01*
X147066000Y-118999000D02*
X147447000Y-118999000D01*
X188163200Y-115265200D02*
X187604400Y-115824000D01*
X149340813Y-120269000D02*
X149350193Y-120259620D01*
X147447000Y-118999000D02*
X148717000Y-120269000D01*
X148717000Y-120269000D02*
X149340813Y-120269000D01*
X186480000Y-113665000D02*
X187452000Y-113665000D01*
X149479813Y-120130000D02*
X150963000Y-120130000D01*
X167894000Y-126238000D02*
X168926000Y-127270000D01*
X187452000Y-113665000D02*
X188163200Y-114376200D01*
X178400640Y-120272682D02*
X178400640Y-125383360D01*
%TO.N,/MISO*%
X170989000Y-123270000D02*
X174880000Y-123270000D01*
X169545000Y-124714000D02*
X170989000Y-123270000D01*
X148975000Y-119630000D02*
X148971000Y-119634000D01*
X149229000Y-119630000D02*
X149225000Y-119634000D01*
X176479200Y-113969800D02*
X178054000Y-112395000D01*
X149229000Y-119630000D02*
X148975000Y-119630000D01*
X174880000Y-123270000D02*
X176196000Y-123270000D01*
X178054000Y-112395000D02*
X179280000Y-112395000D01*
X176196000Y-123270000D02*
X176479200Y-122986800D01*
X153329220Y-119630000D02*
X153340341Y-119641121D01*
X150963000Y-119630000D02*
X153329220Y-119630000D01*
X150963000Y-119630000D02*
X149229000Y-119630000D01*
X176479200Y-122986800D02*
X176479200Y-113969800D01*
%TO.N,Net-(LS1-Pad1)*%
X144907000Y-123698000D02*
X144538000Y-124067000D01*
X148844000Y-123698000D02*
X144907000Y-123698000D01*
X144538000Y-124067000D02*
X144538000Y-125055000D01*
%TO.N,/PY1*%
X133673963Y-126264359D02*
X128315522Y-131622800D01*
X136663960Y-120384040D02*
X136663960Y-121689005D01*
X122288800Y-132715000D02*
X122619000Y-133045200D01*
X127101600Y-131622800D02*
X126456520Y-132267880D01*
X123396320Y-132267880D02*
X122619000Y-133045200D01*
X122492000Y-132715000D02*
X122619000Y-132842000D01*
X128315522Y-131622800D02*
X127101600Y-131622800D01*
X136663960Y-121689005D02*
X133673963Y-124679002D01*
X139613000Y-120130000D02*
X136918000Y-120130000D01*
X133673963Y-124679002D02*
X133673963Y-126264359D01*
X136918000Y-120130000D02*
X136663960Y-120384040D01*
X121131000Y-132715000D02*
X122288800Y-132715000D01*
X126456520Y-132267880D02*
X123396320Y-132267880D01*
%TO.N,/PY2*%
X133246643Y-124502000D02*
X133246643Y-126087357D01*
X121131000Y-130175000D02*
X122492000Y-130175000D01*
X123635000Y-129286000D02*
X122619000Y-130302000D01*
X136594644Y-119630000D02*
X136236640Y-119988004D01*
X139613000Y-119630000D02*
X136594644Y-119630000D01*
X136236640Y-121512003D02*
X133246643Y-124502000D01*
X136236640Y-119988004D02*
X136236640Y-121512003D01*
X122492000Y-130175000D02*
X122619000Y-130302000D01*
X130048000Y-129286000D02*
X123635000Y-129286000D01*
X133246643Y-126087357D02*
X130048000Y-129286000D01*
D49*
%TO.N,/FET1*%
X109220000Y-131826000D02*
X109220000Y-130873000D01*
D42*
X120079000Y-136093200D02*
X120079000Y-135709665D01*
D49*
X117719909Y-133350574D02*
X110744574Y-133350574D01*
D42*
X120079000Y-135709665D02*
X117719909Y-133350574D01*
D49*
X110744574Y-133350574D02*
X109220000Y-131826000D01*
D42*
%TO.N,/FET2*%
X117747829Y-130873000D02*
X117838989Y-130781840D01*
X120079000Y-128270000D02*
X120079000Y-128541829D01*
X120079000Y-128541829D02*
X117838989Y-130781840D01*
D49*
X113284000Y-130873000D02*
X117747829Y-130873000D01*
D42*
%TO.N,/PY3*%
X136124000Y-118130000D02*
X139613000Y-118130000D01*
X133616200Y-119481600D02*
X132095411Y-119481600D01*
X134213600Y-120079000D02*
X133616200Y-119481600D01*
X132095411Y-119481600D02*
X131562011Y-120015000D01*
X134213600Y-120040400D02*
X134213600Y-120079000D01*
X136124000Y-118130000D02*
X134213600Y-120040400D01*
%TO.N,/PY4*%
X132397000Y-117031000D02*
X131953000Y-117475000D01*
X131953000Y-117475000D02*
X131562011Y-117475000D01*
X135827000Y-117031000D02*
X136426000Y-117630000D01*
X136426000Y-117630000D02*
X139613000Y-117630000D01*
X135827000Y-117031000D02*
X134213600Y-117031000D01*
X134213600Y-117031000D02*
X132397000Y-117031000D01*
%TO.N,/FET3*%
X128150346Y-120650000D02*
X128150920Y-120650574D01*
X128715000Y-121214654D02*
X128715000Y-123190000D01*
X128150920Y-120650574D02*
X128715000Y-121214654D01*
D49*
X122745000Y-120650000D02*
X128150346Y-120650000D01*
%TO.N,/FET4*%
X122745000Y-118110000D02*
X128241840Y-118110000D01*
D42*
X128715000Y-117636840D02*
X128270000Y-118081840D01*
X128241840Y-118110000D02*
X128270000Y-118081840D01*
X128715000Y-115570000D02*
X128715000Y-117636840D01*
%TO.N,/PY5*%
X140111678Y-111094322D02*
X141538000Y-112520644D01*
X141538000Y-112520644D02*
X141538000Y-113705000D01*
X128346677Y-109235320D02*
X130205679Y-111094322D01*
X122619000Y-108458000D02*
X123396320Y-109235320D01*
X130205679Y-111094322D02*
X140111678Y-111094322D01*
X121131000Y-107315000D02*
X121476000Y-107315000D01*
X123396320Y-109235320D02*
X128346677Y-109235320D01*
X121476000Y-107315000D02*
X122619000Y-108458000D01*
%TO.N,/PY6*%
X124221320Y-106644520D02*
X126360198Y-106644520D01*
X123025400Y-105867200D02*
X123444000Y-105867200D01*
X126360198Y-106644520D02*
X130378999Y-110663320D01*
X123444000Y-105867200D02*
X124221320Y-106644520D01*
X121933200Y-104775000D02*
X123025400Y-105867200D01*
X142038000Y-112416322D02*
X142038000Y-113705000D01*
X130378999Y-110663320D02*
X140284998Y-110663320D01*
X121131000Y-104775000D02*
X121933200Y-104775000D01*
X140284998Y-110663320D02*
X142038000Y-112416322D01*
%TO.N,/FET5*%
X120079000Y-110794800D02*
X120079000Y-110309665D01*
X113347574Y-107950574D02*
X113284000Y-107887000D01*
D49*
X117719909Y-107950574D02*
X113347574Y-107950574D01*
D42*
X120079000Y-110309665D02*
X117719909Y-107950574D01*
%TO.N,/FET6*%
X120079000Y-102616000D02*
X120079000Y-103141829D01*
X120079000Y-102870000D02*
X117838989Y-105110011D01*
D49*
X117838989Y-105381840D02*
X109883160Y-105381840D01*
X109883160Y-105381840D02*
X109220000Y-106045000D01*
D42*
X117838989Y-105110011D02*
X117838989Y-105381840D01*
D49*
X109220000Y-106045000D02*
X109220000Y-107887000D01*
D42*
%TO.N,Net-(R1-Pad1)*%
X159512000Y-122682000D02*
X159023000Y-122193000D01*
X159023000Y-122193000D02*
X159023000Y-120605000D01*
X159512000Y-123127000D02*
X159512000Y-122682000D01*
%TO.N,Net-(R2-Pad1)*%
X160731200Y-122424680D02*
X159883000Y-121576480D01*
X162560000Y-123127000D02*
X161857680Y-122424680D01*
X159883000Y-121576480D02*
X159883000Y-120605000D01*
X161857680Y-122424680D02*
X160731200Y-122424680D01*
%TO.N,Net-(R3-Pad1)*%
X167361311Y-115910311D02*
X167783000Y-116332000D01*
X167783000Y-116332000D02*
X168799000Y-116332000D01*
X168291000Y-113475000D02*
X167361311Y-114404689D01*
X169307000Y-116840000D02*
X169307000Y-117380000D01*
X167361311Y-114404689D02*
X167361311Y-115910311D01*
X168799000Y-116332000D02*
X169307000Y-116840000D01*
%TO.N,Net-(R4-Pad1)*%
X155605000Y-105605000D02*
X155605000Y-104805000D01*
X155448000Y-104648000D02*
X153924000Y-104648000D01*
X155605000Y-104805000D02*
X155448000Y-104648000D01*
X153924000Y-104648000D02*
X153416000Y-105156000D01*
X153416000Y-105156000D02*
X153416000Y-105855000D01*
X155605000Y-107755000D02*
X155605000Y-105605000D01*
%TO.N,Net-(R5-Pad1)*%
X159453000Y-121810200D02*
X159453000Y-120605000D01*
X160769800Y-123127000D02*
X159453000Y-121810200D01*
X161036000Y-123127000D02*
X160769800Y-123127000D01*
%TO.N,Net-(R6-Pad2)*%
X158708378Y-120025000D02*
X159053000Y-120025000D01*
X157988000Y-123127000D02*
X157988000Y-120745378D01*
X157988000Y-120745378D02*
X158708378Y-120025000D01*
D50*
%TO.N,/D+*%
X135991600Y-128193800D02*
X136296400Y-127889000D01*
X136296400Y-128981200D02*
X135991600Y-128676400D01*
X135991600Y-128676400D02*
X135991600Y-128193800D01*
X147538000Y-125055000D02*
X147538000Y-127594800D01*
X146151600Y-128981200D02*
X136296400Y-128981200D01*
X136296400Y-127889000D02*
X136525000Y-127889000D01*
X147538000Y-127594800D02*
X146151600Y-128981200D01*
%TO.N,/D-*%
X147038000Y-125055000D02*
X147038000Y-127536000D01*
X147038000Y-127536000D02*
X146685000Y-127889000D01*
X146685000Y-127889000D02*
X140462000Y-127889000D01*
D42*
%TO.N,/SCL*%
X159385000Y-109093000D02*
X159385000Y-107785000D01*
X150963000Y-117130000D02*
X153274965Y-117130000D01*
X153340341Y-117195376D02*
X153340341Y-117957059D01*
X153274965Y-117130000D02*
X153340341Y-117195376D01*
X153340341Y-117957059D02*
X153339800Y-117957600D01*
X169332400Y-121354600D02*
X169307000Y-121380000D01*
X169332400Y-119634000D02*
X169332400Y-121354600D01*
X159385000Y-107785000D02*
X159355000Y-107755000D01*
%TO.N,/SDA*%
X155605454Y-117190546D02*
X156210000Y-116586000D01*
X167497000Y-121380000D02*
X168307000Y-121380000D01*
X155605454Y-117195376D02*
X158005078Y-119595000D01*
X159053000Y-119595000D02*
X159703400Y-119595000D01*
X152688934Y-116630000D02*
X152886454Y-116432480D01*
X156210000Y-116586000D02*
X156210000Y-112522000D01*
X158005078Y-119595000D02*
X159053000Y-119595000D01*
X152886454Y-116432480D02*
X154101445Y-116432480D01*
X155605454Y-117195376D02*
X155605454Y-117190546D01*
X154101445Y-116432480D02*
X154864341Y-117195376D01*
X156210000Y-112522000D02*
X158105000Y-110627000D01*
X167021000Y-120904000D02*
X167497000Y-121380000D01*
X150963000Y-116630000D02*
X152688934Y-116630000D01*
X154864341Y-117195376D02*
X155605454Y-117195376D01*
X158105000Y-110627000D02*
X158105000Y-107755000D01*
%TO.N,/SENSE1*%
X121729000Y-136093200D02*
X123127000Y-136093200D01*
X140950000Y-120630000D02*
X140970000Y-120650000D01*
X139613000Y-120630000D02*
X140950000Y-120630000D01*
%TO.N,/SENSE4*%
X130365000Y-115570000D02*
X131763000Y-115570000D01*
X139613000Y-117130000D02*
X136688000Y-117130000D01*
X131763000Y-115570000D02*
X131826000Y-115633000D01*
X135191000Y-115633000D02*
X131826000Y-115633000D01*
X136688000Y-117130000D02*
X135191000Y-115633000D01*
%TO.N,/SENSE2*%
X130396678Y-128333000D02*
X132819323Y-125910355D01*
X121729000Y-128270000D02*
X123127000Y-128270000D01*
X123190000Y-128333000D02*
X130396678Y-128333000D01*
X135809320Y-119811002D02*
X136490322Y-119130000D01*
X123127000Y-128270000D02*
X123190000Y-128333000D01*
X135809320Y-121335001D02*
X135809320Y-119811002D01*
X136490322Y-119130000D02*
X139613000Y-119130000D01*
X132819323Y-125910355D02*
X132819323Y-124324998D01*
X132819323Y-124324998D02*
X135809320Y-121335001D01*
%TO.N,/SENSE5*%
X128934035Y-110427000D02*
X130028678Y-111521642D01*
X136921642Y-111521642D02*
X138176000Y-112776000D01*
X138176000Y-112776000D02*
X138176000Y-115062000D01*
X123444000Y-110427000D02*
X128934035Y-110427000D01*
X138744000Y-115630000D02*
X139613000Y-115630000D01*
X130028678Y-111521642D02*
X136921642Y-111521642D01*
X123076200Y-110794800D02*
X123444000Y-110427000D01*
X138176000Y-115062000D02*
X138744000Y-115630000D01*
X121729000Y-110794800D02*
X123076200Y-110794800D01*
%TO.N,/SENSE3*%
X133654800Y-121005600D02*
X133400800Y-121259600D01*
X131763000Y-123190000D02*
X131826000Y-123127000D01*
X134472387Y-121005600D02*
X133654800Y-121005600D01*
X139613000Y-118630000D02*
X136386000Y-118630000D01*
X133006600Y-123127000D02*
X131826000Y-123127000D01*
X133400800Y-122732800D02*
X133006600Y-123127000D01*
X133400800Y-121259600D02*
X133400800Y-122732800D01*
X135382000Y-119634000D02*
X135382000Y-120095987D01*
X130365000Y-123190000D02*
X131763000Y-123190000D01*
X136386000Y-118630000D02*
X135382000Y-119634000D01*
X135382000Y-120095987D02*
X134472387Y-121005600D01*
%TO.N,/SENSE6*%
X123444000Y-103124000D02*
X130556000Y-110236000D01*
X123381000Y-102870000D02*
X123444000Y-102807000D01*
X140462000Y-110236000D02*
X142538000Y-112312000D01*
X130556000Y-110236000D02*
X140462000Y-110236000D01*
X142538000Y-112312000D02*
X142538000Y-113705000D01*
X121729000Y-102870000D02*
X123381000Y-102870000D01*
%TO.N,/HighG_INT*%
X141528800Y-125045800D02*
X141538000Y-125055000D01*
X141528800Y-123647200D02*
X141528800Y-125045800D01*
X168307000Y-117380000D02*
X167019314Y-117380000D01*
%TO.N,/IMU_IM*%
X160313000Y-120161572D02*
X160324800Y-120142000D01*
X143038000Y-124119200D02*
X143510000Y-123647200D01*
X160324800Y-120142000D02*
X160312731Y-120161303D01*
X160313000Y-120605000D02*
X160313000Y-120161572D01*
X143038000Y-125055000D02*
X143038000Y-124119200D01*
%TO.N,/IMU_I1*%
X161173000Y-120605000D02*
X161173000Y-121069622D01*
X161173000Y-121069622D02*
X160832800Y-121409822D01*
X160832800Y-121412000D02*
X160832800Y-121409822D01*
%TO.N,/IMU_I2*%
X142538000Y-125055000D02*
X142538000Y-123425400D01*
X142538000Y-123425400D02*
X142798800Y-123164600D01*
%TO.N,/CS_LoRa*%
X144526000Y-115468400D02*
X144526000Y-113717000D01*
X172856400Y-129270000D02*
X172821600Y-129235200D01*
X174880000Y-129270000D02*
X172856400Y-129270000D01*
X144526000Y-113717000D02*
X144538000Y-113705000D01*
%TO.N,/LoRa_RST*%
X168254878Y-129286000D02*
X165126198Y-126157320D01*
X170479200Y-129286000D02*
X168254878Y-129286000D01*
X156992920Y-126157320D02*
X156159200Y-125323600D01*
X151942800Y-123957278D02*
X152196800Y-123703278D01*
X151942800Y-124815600D02*
X151942800Y-123957278D01*
X152450800Y-125323600D02*
X151942800Y-124815600D01*
X156159200Y-125323600D02*
X152450800Y-125323600D01*
X174880000Y-131270000D02*
X172463200Y-131270000D01*
X151771611Y-121630000D02*
X150963000Y-121630000D01*
X165126198Y-126157320D02*
X156992920Y-126157320D01*
X152196800Y-123703278D02*
X152196800Y-122055189D01*
X152196800Y-122055189D02*
X151771611Y-121630000D01*
X172463200Y-131270000D02*
X170479200Y-129286000D01*
%TO.N,/LoRa_INT*%
X152755600Y-123748800D02*
X152400000Y-124104400D01*
X152400000Y-124104400D02*
X152400000Y-124561600D01*
X152704800Y-124866400D02*
X156311600Y-124866400D01*
X152755600Y-121920000D02*
X152755600Y-123748800D01*
X157175200Y-125730000D02*
X165303200Y-125730000D01*
X150963000Y-121130000D02*
X151771611Y-121130000D01*
X152400000Y-124561600D02*
X152704800Y-124866400D01*
X167792400Y-128219200D02*
X177342800Y-128219200D01*
X165303200Y-125730000D02*
X167792400Y-128219200D01*
X156311600Y-124866400D02*
X157175200Y-125730000D01*
X151771611Y-121130000D02*
X151799611Y-121158000D01*
X180292000Y-125270000D02*
X190880000Y-125270000D01*
X177342800Y-128219200D02*
X180292000Y-125270000D01*
X151993600Y-121158000D02*
X152755600Y-121920000D01*
X151799611Y-121158000D02*
X151993600Y-121158000D01*
%TO.N,Net-(U6-Pad5)*%
X147791000Y-107605000D02*
X147791000Y-111543000D01*
X147791000Y-111543000D02*
X147038000Y-112296000D01*
X147038000Y-112296000D02*
X147038000Y-113705000D01*
%TO.N,/CS_FL*%
X145034000Y-113701000D02*
X145034000Y-112014000D01*
X145038000Y-113705000D02*
X145034000Y-113701000D01*
X173863000Y-111125000D02*
X179280000Y-111125000D01*
X145034000Y-112014000D02*
X146177000Y-110871000D01*
%TO.N,/FIX*%
X150963000Y-122130000D02*
X149656800Y-122123200D01*
%TO.N,/TX1*%
X151954800Y-118630000D02*
X152263601Y-118938801D01*
X150963000Y-118630000D02*
X151954800Y-118630000D01*
%TO.N,/RX1*%
X150963000Y-118130000D02*
X152470800Y-118130000D01*
X153720800Y-118719600D02*
X153060400Y-118719600D01*
X154279600Y-119278400D02*
X153720800Y-118719600D01*
X154279600Y-120904000D02*
X154279600Y-119278400D01*
X153060400Y-118719600D02*
X152470800Y-118130000D01*
%TD*%
M02*
