M48
; DRILL file {KiCad (6.0.5)} date Sat May 13 15:18:54 2023
; FORMAT={-:-/ absolute / metric / decimal}
; #@! TF.CreationDate,2023-05-13T15:18:54-04:00
; #@! TF.GenerationSoftware,Kicad,Pcbnew,(6.0.5)
; #@! TF.FileFunction,Plated,1,4,PTH
FMAT,2
METRIC
; #@! TA.AperFunction,Plated,PTH,ViaDrill
T1C0.200
; #@! TA.AperFunction,Plated,PTH,ComponentDrill
T2C0.450
; #@! TA.AperFunction,Plated,PTH,ComponentDrill
T3C1.000
; #@! TA.AperFunction,Plated,PTH,ComponentDrill
T4C1.100
; #@! TA.AperFunction,Plated,PTH,ComponentDrill
T5C3.200
%
G90
G05
T1
X112.118Y-134.471
X114.402Y-136.5
X116.738Y-128.829
X116.738Y-135.738
X117.907Y-136.347
X120.244Y-109.474
X120.507Y-134.966
X120.904Y-109.83
X120.904Y-128.27
X120.955Y-136.698
X121.269Y-134.966
X121.717Y-109.474
X121.98Y-134.957
X122.098Y-106.172
X122.174Y-106.934
X122.479Y-109.779
X122.53Y-104.343
X122.682Y-135.382
X122.987Y-107.34
X123.673Y-106.985
X124.511Y-126.695
X124.866Y-112.065
X125.12Y-133.756
X125.171Y-129.946
X125.476Y-108.458
X125.679Y-106.117
X125.73Y-135.788
X127.203Y-129.946
X127.457Y-132.182
X127.483Y-130.632
X128.067Y-130.2
X128.707Y-130.485
X128.981Y-129.813
X129.286Y-112.37
X129.692Y-103.784
X129.896Y-131.623
X130.759Y-114.198
X131.166Y-109.22
X131.826Y-125.628
X132.461Y-118.872
X132.486Y-121.31
X132.537Y-118.008
X132.69Y-120.091
X132.74Y-122.072
X133.096Y-120.752
X133.12Y-117.599
X133.147Y-118.415
X133.655Y-104.699
X135.026Y-118.11
X135.077Y-121.31
X135.077Y-131.724
X135.992Y-123.749
X136.042Y-115.672
X136.144Y-105.308
X136.525Y-127.889
X136.804Y-122.422
X136.967Y-125.544
X138.024Y-115.926
X138.328Y-120.657
X138.355Y-105.383
X138.572Y-122.701
X139.497Y-125.374
X140.462Y-127.889
X140.868Y-116.129
X140.97Y-120.65
X141.478Y-123.647
X141.58Y-131.775
X141.884Y-115.519
X142.623Y-122.423
X142.799Y-123.165
X142.951Y-117.653
X143.51Y-123.647
X144.526Y-115.468
X145.161Y-116.459
X145.186Y-106.782
X145.39Y-110.185
X146.177Y-110.871
X147.015Y-104.089
X147.066Y-118.999
X147.523Y-122.123
X148.336Y-111.963
X148.844Y-123.698
X148.844Y-126.543
X148.971Y-119.634
X149.047Y-105.766
X149.35Y-120.26
X149.352Y-117.805
X149.606Y-112.471
X149.657Y-116.129
X149.657Y-122.123
X149.708Y-119.024
X150.571Y-128.524
X151.486Y-127.051
X151.638Y-109.22
X152.146Y-114.91
X152.298Y-118.974
X152.4Y-107.493
X152.959Y-124.339
X153.34Y-117.958
X153.619Y-122.174
X154.28Y-120.904
X154.534Y-113.792
X156.21Y-103.886
X157.48Y-112.928
X157.48Y-116.84
X158.445Y-118.637
X158.801Y-106.375
X158.801Y-112.979
X159.385Y-109.093
X159.703Y-119.595
X160.325Y-120.142
X160.528Y-112.979
X160.833Y-121.412
X161.112Y-116.51
X161.9Y-121.463
X162.052Y-112.979
X162.712Y-119.837
X163.576Y-112.979
X164.236Y-119.837
X167.019Y-117.38
X167.021Y-120.904
X167.386Y-119.38
X167.843Y-127.203
X167.894Y-126.238
X168.021Y-124.765
X169.075Y-115.761
X169.332Y-119.634
X169.545Y-124.714
X169.824Y-112.42
X170.586Y-122.428
X171.298Y-136.398
X171.339Y-112.43
X171.348Y-116.027
X171.399Y-108.915
X171.545Y-118.98
X171.552Y-126.035
X172.06Y-122.225
X172.822Y-129.235
X173.228Y-121.26
X173.863Y-111.125
X175.311Y-119.939
X175.463Y-126.289
X177.038Y-116.992
X177.14Y-114.96
X189.357Y-135.534
X189.433Y-134.722
X189.84Y-136.246
X190.195Y-134.315
X190.703Y-136.296
X191.11Y-134.29
X191.541Y-136.296
X191.948Y-134.188
X192.227Y-133.401
X192.329Y-132.512
X192.329Y-135.992
X192.495Y-107.824
X192.557Y-131.648
X192.761Y-108.661
X192.811Y-135.331
X192.989Y-109.423
X193.065Y-106.782
X193.142Y-130.912
X193.167Y-110.16
X193.218Y-110.922
X193.243Y-111.658
X193.243Y-134.62
X193.396Y-103.276
X193.399Y-127.918
X193.421Y-129.997
X193.472Y-133.807
X193.497Y-132.893
X193.827Y-106.782
X194.005Y-132.283
X194.107Y-129.388
X194.361Y-108.433
X194.462Y-109.195
X194.513Y-107.696
X194.793Y-132.232
X195.021Y-109.728
X195.097Y-129.388
X195.631Y-132.232
X195.961Y-129.388
X195.986Y-109.855
X196.037Y-125.527
X196.139Y-110.668
X196.139Y-111.455
X196.444Y-132.232
X196.596Y-112.217
X196.596Y-122.174
X196.825Y-129.388
X197.206Y-132.232
T3
X128.27Y-134.62
X130.81Y-134.62
X146.05Y-134.62
X148.59Y-134.62
X151.13Y-134.62
X153.67Y-134.62
X156.21Y-134.62
X158.75Y-134.62
X166.116Y-116.13
X166.116Y-122.63
T4
X101.6Y-123.31
X101.604Y-115.435
X104.14Y-123.31
X104.144Y-115.435
X106.68Y-123.31
X106.684Y-115.435
X109.22Y-123.31
X109.224Y-115.435
X111.76Y-123.31
X111.764Y-115.435
X114.3Y-123.31
X114.304Y-115.435
X116.84Y-123.31
X116.844Y-115.435
X119.38Y-123.31
X119.384Y-115.435
T5
X103.505Y-105.41
X103.505Y-133.35
X168.91Y-105.41
X168.91Y-133.35
T2
X134.898Y-136.696G85X134.898Y-135.896
G05
X142.048Y-135.896G85X142.048Y-136.696
G05
T0
M30
