%TF.GenerationSoftware,KiCad,Pcbnew,9.0.5*%
%TF.CreationDate,2025-11-26T17:53:06-05:00*%
%TF.ProjectId,WINTER,57494e54-4552-42e6-9b69-6361645f7063,3.3*%
%TF.SameCoordinates,Original*%
%TF.FileFunction,Copper,L2,Inr*%
%TF.FilePolarity,Positive*%
%FSLAX46Y46*%
G04 Gerber Fmt 4.6, Leading zero omitted, Abs format (unit mm)*
G04 Created by KiCad (PCBNEW 9.0.5) date 2025-11-26 17:53:06*
%MOMM*%
%LPD*%
G01*
G04 APERTURE LIST*
G04 Aperture macros list*
%AMRoundRect*
0 Rectangle with rounded corners*
0 $1 Rounding radius*
0 $2 $3 $4 $5 $6 $7 $8 $9 X,Y pos of 4 corners*
0 Add a 4 corners polygon primitive as box body*
4,1,4,$2,$3,$4,$5,$6,$7,$8,$9,$2,$3,0*
0 Add four circle primitives for the rounded corners*
1,1,$1+$1,$2,$3*
1,1,$1+$1,$4,$5*
1,1,$1+$1,$6,$7*
1,1,$1+$1,$8,$9*
0 Add four rect primitives between the rounded corners*
20,1,$1+$1,$2,$3,$4,$5,0*
20,1,$1+$1,$4,$5,$6,$7,0*
20,1,$1+$1,$6,$7,$8,$9,0*
20,1,$1+$1,$8,$9,$2,$3,0*%
G04 Aperture macros list end*
%TA.AperFunction,ComponentPad*%
%ADD10R,1.700000X1.700000*%
%TD*%
%TA.AperFunction,ComponentPad*%
%ADD11C,1.700000*%
%TD*%
%TA.AperFunction,ComponentPad*%
%ADD12RoundRect,0.500000X-0.875000X-0.875000X0.875000X-0.875000X0.875000X0.875000X-0.875000X0.875000X0*%
%TD*%
%TA.AperFunction,ComponentPad*%
%ADD13C,2.750000*%
%TD*%
%TA.AperFunction,ViaPad*%
%ADD14C,0.450000*%
%TD*%
%TA.AperFunction,ViaPad*%
%ADD15C,0.500000*%
%TD*%
G04 APERTURE END LIST*
D10*
%TO.N,SERVO4*%
%TO.C,J6*%
X180303888Y-116162189D03*
D11*
%TO.N,SERVO3*%
X177763888Y-116162189D03*
%TO.N,SERVO2*%
X175223888Y-116162189D03*
%TO.N,SERVO1*%
X172683888Y-116162189D03*
%TD*%
D10*
%TO.N,+3V3*%
%TO.C,J5*%
X169034500Y-116176000D03*
D11*
%TO.N,GNDREF*%
X166494500Y-116176000D03*
%TO.N,SWCLK*%
X163954500Y-116176000D03*
%TO.N,SWDIO*%
X161414500Y-116176000D03*
%TO.N,NRST*%
X158874500Y-116176000D03*
%TD*%
D12*
%TO.N,LIPO+*%
%TO.C,J4*%
X148455000Y-85920000D03*
D13*
%TO.N,GNDREF*%
X152701764Y-85920000D03*
%TD*%
D10*
%TO.N,CS_EXT*%
%TO.C,J7*%
X164375111Y-112580203D03*
D11*
%TO.N,SCK_LoRa*%
X166915111Y-112580203D03*
%TO.N,MISO_LoRa*%
X169455111Y-112580203D03*
%TO.N,MOSI_LoRa*%
X171995111Y-112580203D03*
%TD*%
D14*
%TO.N,GNDREF*%
X173130000Y-113130000D03*
X178900000Y-108500000D03*
X177850810Y-107500000D03*
X178900810Y-107500000D03*
X174700000Y-108300000D03*
X174950000Y-91550000D03*
X176100000Y-90350000D03*
X175825000Y-90825000D03*
X175400000Y-91225000D03*
X174800000Y-89525000D03*
X178050000Y-92200000D03*
X177600000Y-93100000D03*
X176200000Y-86975000D03*
X173500000Y-86950000D03*
X175525000Y-86700000D03*
X176925000Y-86975000D03*
X174850000Y-86975000D03*
X174175000Y-86975000D03*
X175524214Y-87872962D03*
X175480000Y-88595646D03*
%TO.N,+1V35*%
X152350000Y-99581205D03*
%TO.N,GNDREF*%
X141450000Y-116600000D03*
X141450000Y-115100000D03*
X141450000Y-113600000D03*
X141450000Y-106450000D03*
X141450000Y-104950000D03*
X141450000Y-103450000D03*
X141450000Y-94700000D03*
X164900000Y-92100000D03*
X163800000Y-93000000D03*
X163800000Y-91000000D03*
X165800000Y-91000000D03*
X149400000Y-89600000D03*
X153200000Y-89600000D03*
X160800000Y-94700000D03*
X162200000Y-92600000D03*
%TO.N,/Power/VBUS*%
X149000000Y-95800000D03*
%TO.N,GNDREF*%
X172129003Y-100600000D03*
%TO.N,+3V3*%
X171500000Y-100600000D03*
%TO.N,GNDREF*%
X163604660Y-96303206D03*
%TO.N,+3V3*%
X164164671Y-96589617D03*
%TO.N,GNDREF*%
X156300000Y-91700000D03*
X162100000Y-101800000D03*
X182050000Y-113100000D03*
X181248894Y-110449575D03*
X180098725Y-110497828D03*
X181050000Y-109500000D03*
X180000810Y-109500000D03*
X148463615Y-88159248D03*
X152413615Y-88159248D03*
X150463615Y-88159248D03*
X154600000Y-90150000D03*
X154600000Y-86200000D03*
X154600000Y-88150000D03*
X187550000Y-109100000D03*
X189500000Y-109100000D03*
X185550000Y-109100000D03*
%TO.N,/LoRa Radio/DIO2*%
X167900000Y-86600000D03*
%TO.N,/Power/VMux*%
X148200000Y-117000000D03*
%TO.N,GNDREF*%
X144700000Y-101500000D03*
X146300000Y-94800000D03*
X179800000Y-104300000D03*
X180900000Y-104300000D03*
X181000000Y-106100000D03*
X181050000Y-107500000D03*
X180000000Y-107500000D03*
X181649871Y-111898469D03*
X182100000Y-110900000D03*
X180598597Y-111447235D03*
X181049190Y-108500000D03*
X180000000Y-108500000D03*
X179800000Y-106300000D03*
X185550000Y-107100000D03*
X143057500Y-93850000D03*
%TO.N,LoRa_BUSY*%
X149100000Y-99500000D03*
%TO.N,GNDREF*%
X149400000Y-96400000D03*
%TO.N,+3V3*%
X152950000Y-116550000D03*
X166550000Y-94150000D03*
X168200000Y-87250000D03*
X177279003Y-95000000D03*
X176107000Y-102303000D03*
X173300000Y-93700000D03*
X179950000Y-98450000D03*
X150050000Y-98150000D03*
X163000000Y-98250000D03*
X151650000Y-105650000D03*
X182800000Y-92200000D03*
%TO.N,/Power/VMux*%
X152300000Y-114600000D03*
%TO.N,+3V3*%
X154500000Y-114800000D03*
X151550000Y-102450000D03*
X175600000Y-98250000D03*
X153928989Y-114800000D03*
X180200000Y-92200000D03*
X154250000Y-105650000D03*
X151450000Y-104050000D03*
X181800000Y-85600000D03*
X161400000Y-100700000D03*
X177950000Y-106624000D03*
X158300000Y-96200000D03*
X167000000Y-106800000D03*
X168150000Y-101050000D03*
X175300000Y-103600000D03*
X167050000Y-110050000D03*
X172150000Y-104450000D03*
X178128978Y-100205307D03*
X153300000Y-116150000D03*
X181800000Y-92200000D03*
X158029003Y-97500000D03*
%TO.N,SCK_SD*%
X160500000Y-101800000D03*
%TO.N,MOSI_SD*%
X162500000Y-102300000D03*
%TO.N,MISO_SD*%
X160181143Y-102512519D03*
%TO.N,CS_SD*%
X159950000Y-101150000D03*
%TO.N,SWDIO*%
X156800000Y-97000000D03*
%TO.N,SWCLK*%
X159400000Y-99200000D03*
%TO.N,GNDREF*%
X171225566Y-88537500D03*
X160807748Y-102348576D03*
X176625000Y-88000000D03*
X158150000Y-107400000D03*
X150250000Y-98750000D03*
X156145680Y-109649861D03*
X189500000Y-103100000D03*
X171150000Y-109450000D03*
X173929003Y-93700000D03*
X173100000Y-111100000D03*
X141450000Y-93200000D03*
X155350000Y-103600000D03*
X174550000Y-84650000D03*
X174800000Y-96100000D03*
X180205217Y-89337500D03*
X182325566Y-87337500D03*
X183925566Y-89062500D03*
X151150000Y-114750000D03*
X157950000Y-108650000D03*
X183550000Y-97100000D03*
X187550000Y-115100000D03*
X160250000Y-105870997D03*
X154445680Y-109374861D03*
X145700000Y-117500000D03*
X189500000Y-105100000D03*
X187550000Y-93100000D03*
X178300000Y-95300000D03*
X147900000Y-89200000D03*
D15*
X180825566Y-90137500D03*
D14*
X151150000Y-116600000D03*
X187550000Y-91100000D03*
X174300000Y-99000000D03*
X185550000Y-115100000D03*
X182550000Y-84650000D03*
X154600000Y-100600000D03*
X185550000Y-99100000D03*
X189500000Y-91100000D03*
X182505217Y-89700000D03*
X153850000Y-101600000D03*
X145350000Y-88050000D03*
X171225566Y-87737500D03*
X169000000Y-97700000D03*
X147150000Y-92000000D03*
X150650000Y-115100000D03*
X185550000Y-93100000D03*
X149000000Y-92350000D03*
D15*
X179625566Y-90137500D03*
D14*
X141450000Y-96200000D03*
D15*
X180825566Y-87537500D03*
D14*
X163300000Y-111100000D03*
X185550000Y-113100000D03*
X167500000Y-92400000D03*
X189500000Y-113100000D03*
X185550000Y-91100000D03*
X183550000Y-93100000D03*
X183550000Y-91100000D03*
X144507500Y-88100000D03*
X157598489Y-116649245D03*
X156600000Y-103600000D03*
X143950000Y-108500000D03*
X173250000Y-85790000D03*
X189500000Y-107100000D03*
X183550000Y-99100000D03*
X175000000Y-111100000D03*
X152600000Y-100600000D03*
X178300000Y-99600000D03*
X143057500Y-95600000D03*
X146200000Y-90000000D03*
X154600000Y-104600000D03*
X183925566Y-87137500D03*
D15*
X179025566Y-90837500D03*
X180225566Y-90837500D03*
D14*
X185550000Y-111100000D03*
D15*
X181325566Y-88337500D03*
D14*
X176800000Y-96100000D03*
X189000000Y-85150000D03*
X145350000Y-115250000D03*
X189500000Y-111100000D03*
X146182500Y-104175000D03*
X187550000Y-97100000D03*
X172350000Y-103750000D03*
X179000000Y-113100000D03*
X171100000Y-111100000D03*
X143300000Y-98250000D03*
X181550000Y-93100000D03*
X152600000Y-102600000D03*
X143082500Y-114350000D03*
X179301000Y-105566200D03*
X159675000Y-111925000D03*
X189500000Y-89100000D03*
X149300000Y-113400000D03*
X185550000Y-105100000D03*
X152600000Y-103600000D03*
D15*
X180225566Y-86837500D03*
D14*
X175600000Y-93100000D03*
X145700000Y-116000000D03*
X186300000Y-88550000D03*
X146182500Y-105775000D03*
X187550000Y-111100000D03*
X183125566Y-88862500D03*
X189500000Y-99100000D03*
X175250000Y-105350000D03*
X143057500Y-108500000D03*
X172500000Y-84625000D03*
X187550000Y-99100000D03*
X163348400Y-86081200D03*
X156600000Y-104600000D03*
X144750000Y-84650000D03*
X185350000Y-87650000D03*
X189500000Y-115100000D03*
X152600000Y-101600000D03*
X166950000Y-94650000D03*
X153850000Y-103600000D03*
X174300000Y-88500000D03*
X169825566Y-88537500D03*
X178300000Y-97300000D03*
X189500000Y-97100000D03*
X167000000Y-97700000D03*
X169000000Y-96500000D03*
X189500000Y-117100000D03*
X162300000Y-98250000D03*
X150150000Y-116600000D03*
X185550000Y-97100000D03*
X163600000Y-107900000D03*
X165600000Y-107900000D03*
X156600000Y-101600000D03*
X171850000Y-107450000D03*
X177000000Y-113100000D03*
X151150000Y-117500000D03*
X153600000Y-100600000D03*
X180550000Y-84650000D03*
X168600000Y-104569814D03*
X143700000Y-117500000D03*
X165600000Y-106800000D03*
X189500000Y-101100000D03*
X156600000Y-102600000D03*
X150650000Y-117050000D03*
X175000000Y-113100000D03*
X176649874Y-97949874D03*
X181550000Y-99100000D03*
X150150000Y-117450000D03*
X152600000Y-104600000D03*
X186300000Y-87650000D03*
X182050000Y-115100000D03*
X170600000Y-84651186D03*
X163600000Y-106800000D03*
X152500000Y-95400000D03*
X157400000Y-97500000D03*
X160900000Y-101200000D03*
X173000000Y-96800000D03*
X151350000Y-96200000D03*
X187550000Y-113100000D03*
X170550000Y-88137500D03*
X169825566Y-87737500D03*
X154600000Y-102600000D03*
X165300000Y-111100000D03*
X155600000Y-100600000D03*
X175525000Y-89725000D03*
X180205217Y-88337500D03*
X176625000Y-89000000D03*
X143076479Y-111742391D03*
X181550000Y-97100000D03*
X176274453Y-89796693D03*
D15*
X181425566Y-86837500D03*
D14*
X146300000Y-110400000D03*
X182325566Y-88862500D03*
X176650000Y-95000000D03*
X171225566Y-86937500D03*
X185350000Y-88550000D03*
X184550000Y-84650000D03*
X143057500Y-101450000D03*
X154903989Y-117173245D03*
X189500000Y-87100000D03*
X150150000Y-114750000D03*
D15*
X181425566Y-90837500D03*
D14*
X143057500Y-105850000D03*
X183125566Y-87337500D03*
X155050000Y-105650000D03*
X167000000Y-96500000D03*
X150150000Y-115600000D03*
X139800000Y-117400000D03*
X155350000Y-101600000D03*
X180800000Y-113100000D03*
X141800000Y-117500000D03*
D15*
X179125566Y-89337500D03*
D14*
X153600000Y-104600000D03*
X176550000Y-84650000D03*
X143700000Y-116000000D03*
X152450000Y-105650000D03*
X156600000Y-100600000D03*
X173000000Y-98800000D03*
X155600000Y-104600000D03*
X151150000Y-115600000D03*
X189500000Y-95100000D03*
X178550000Y-84650000D03*
D15*
X179625566Y-87537500D03*
D14*
X150652200Y-116099999D03*
X151550000Y-104950000D03*
X173950000Y-95250000D03*
X168900000Y-111100000D03*
X179550000Y-93100000D03*
X143057500Y-104100000D03*
X169825566Y-86937500D03*
X148200000Y-110400000D03*
X182050000Y-117100000D03*
X143950000Y-111750000D03*
D15*
X179025566Y-86837500D03*
D14*
X187550000Y-105100000D03*
X143107500Y-86100000D03*
X186550000Y-84650000D03*
D15*
X181325566Y-89337500D03*
D14*
X170550000Y-87337500D03*
X177500000Y-100200000D03*
X169700000Y-90700000D03*
D15*
X179125566Y-88337500D03*
D14*
X189500000Y-93100000D03*
%TO.N,SERVO2*%
X160200000Y-104400000D03*
%TO.N,SERVO3*%
X157650000Y-103600000D03*
X159400000Y-110500000D03*
%TO.N,SERVO4*%
X157700000Y-102750000D03*
X158600000Y-110000000D03*
%TO.N,SERVO1*%
X160400000Y-105100000D03*
%TO.N,BUZZ*%
X167700000Y-98800000D03*
X163500000Y-98800000D03*
%TO.N,MISO_LoRa*%
X163754800Y-85500000D03*
X171250000Y-84625000D03*
%TO.N,SDA*%
X185010635Y-99423619D03*
X177050000Y-104950000D03*
X163000000Y-92600000D03*
%TO.N,SCL*%
X177650000Y-105250000D03*
X187026639Y-99448908D03*
X171720997Y-103750000D03*
X169085352Y-105080216D03*
X161600000Y-94700000D03*
%TO.N,MAG_INT*%
X169350000Y-103850000D03*
X157700000Y-101300000D03*
X163900000Y-98100000D03*
%TO.N,IMU_INT*%
X164000000Y-99400000D03*
X168200000Y-99400000D03*
%TO.N,LoRa_PA-EN*%
X176800000Y-91300000D03*
X155300000Y-97600000D03*
%TO.N,MOSI_LoRa*%
X172831299Y-85162597D03*
%TO.N,HIGHG_INT*%
X159200000Y-97500000D03*
X157700000Y-100400000D03*
%TO.N,CS_LoRa*%
X153750000Y-93500000D03*
X174300000Y-85600000D03*
%TO.N,LoRa_BUSY*%
X168850000Y-84625000D03*
%TO.N,LoRa_RST*%
X169921673Y-84629123D03*
X154450000Y-93500000D03*
%TO.N,LoRa_INT*%
X154100000Y-92300000D03*
X161100000Y-88600000D03*
%TO.N,SCK_LoRa*%
X166200000Y-86200000D03*
X172550000Y-85800000D03*
%TO.N,/LoRa Radio/DIO2*%
X175700000Y-85600000D03*
%TO.N,LIPO-SENSE*%
X150650000Y-108200000D03*
%TO.N,+1V35*%
X157150000Y-105650000D03*
%TO.N,Net-(R22-Pad1)*%
X165386665Y-101399402D03*
X161600000Y-101400000D03*
%TO.N,Net-(U6-BOOT0)*%
X160000000Y-103600000D03*
%TO.N,CS_EXT*%
X152100000Y-107700000D03*
X158300000Y-111100000D03*
%TD*%
%TA.AperFunction,Conductor*%
%TO.N,GNDREF*%
G36*
X147123738Y-84419407D02*
G01*
X147159702Y-84468907D01*
X147159702Y-84530093D01*
X147135552Y-84569501D01*
X147061919Y-84643135D01*
X147061918Y-84643136D01*
X146978256Y-84784602D01*
X146932403Y-84942427D01*
X146932401Y-84942434D01*
X146930486Y-84966773D01*
X146929500Y-84979306D01*
X146929500Y-86860694D01*
X146930316Y-86871057D01*
X146932401Y-86897565D01*
X146932401Y-86897568D01*
X146932402Y-86897569D01*
X146978256Y-87055398D01*
X147061919Y-87196865D01*
X147178135Y-87313081D01*
X147319602Y-87396744D01*
X147477431Y-87442598D01*
X147514306Y-87445500D01*
X147514311Y-87445500D01*
X149395689Y-87445500D01*
X149395694Y-87445500D01*
X149432569Y-87442598D01*
X149590398Y-87396744D01*
X149731865Y-87313081D01*
X149848081Y-87196865D01*
X149931744Y-87055398D01*
X149977598Y-86897569D01*
X149980500Y-86860694D01*
X149980500Y-84979306D01*
X149977598Y-84942431D01*
X149931744Y-84784602D01*
X149848081Y-84643135D01*
X149774447Y-84569501D01*
X149746672Y-84514987D01*
X149756243Y-84454555D01*
X149799508Y-84411290D01*
X149844453Y-84400500D01*
X151857603Y-84400500D01*
X151915794Y-84419407D01*
X151935760Y-84446888D01*
X152611210Y-85122339D01*
X152468413Y-85150743D01*
X152322822Y-85211049D01*
X152191794Y-85298599D01*
X152080363Y-85410030D01*
X151992813Y-85541058D01*
X151932507Y-85686649D01*
X151904103Y-85829447D01*
X151254904Y-85180248D01*
X151195816Y-85296217D01*
X151116776Y-85539480D01*
X151076764Y-85792106D01*
X151076764Y-86047893D01*
X151116776Y-86300519D01*
X151195816Y-86543782D01*
X151254904Y-86659750D01*
X151904102Y-86010551D01*
X151932507Y-86153351D01*
X151992813Y-86298942D01*
X152080363Y-86429970D01*
X152191794Y-86541401D01*
X152322822Y-86628951D01*
X152468413Y-86689257D01*
X152611209Y-86717660D01*
X151962012Y-87366858D01*
X152077986Y-87425949D01*
X152321244Y-87504987D01*
X152573871Y-87545000D01*
X152829657Y-87545000D01*
X153082283Y-87504987D01*
X153325546Y-87425947D01*
X153325551Y-87425945D01*
X153441514Y-87366858D01*
X152792316Y-86717660D01*
X152935115Y-86689257D01*
X153080706Y-86628951D01*
X153211734Y-86541401D01*
X153323165Y-86429970D01*
X153410715Y-86298942D01*
X153471021Y-86153351D01*
X153499424Y-86010553D01*
X154148622Y-86659750D01*
X154161956Y-86633581D01*
X155245500Y-86633581D01*
X155245500Y-87466419D01*
X155266556Y-87545000D01*
X155279882Y-87594734D01*
X155346296Y-87709765D01*
X155346298Y-87709767D01*
X155346300Y-87709770D01*
X155440230Y-87803700D01*
X155440232Y-87803701D01*
X155440234Y-87803703D01*
X155555266Y-87870117D01*
X155555267Y-87870117D01*
X155555270Y-87870119D01*
X155683581Y-87904500D01*
X155683583Y-87904500D01*
X155816417Y-87904500D01*
X155816419Y-87904500D01*
X155944730Y-87870119D01*
X155944732Y-87870117D01*
X155944734Y-87870117D01*
X156059765Y-87803703D01*
X156059765Y-87803702D01*
X156059770Y-87803700D01*
X156153700Y-87709770D01*
X156153703Y-87709765D01*
X156220117Y-87594734D01*
X156220117Y-87594732D01*
X156220119Y-87594730D01*
X156254500Y-87466419D01*
X156254500Y-86633581D01*
X161845500Y-86633581D01*
X161845500Y-87466419D01*
X161866556Y-87545000D01*
X161879882Y-87594734D01*
X161946296Y-87709765D01*
X161946298Y-87709767D01*
X161946300Y-87709770D01*
X162040230Y-87803700D01*
X162040232Y-87803701D01*
X162040234Y-87803703D01*
X162155266Y-87870117D01*
X162155267Y-87870117D01*
X162155270Y-87870119D01*
X162283581Y-87904500D01*
X162283583Y-87904500D01*
X162416417Y-87904500D01*
X162416419Y-87904500D01*
X162544730Y-87870119D01*
X162544732Y-87870117D01*
X162544734Y-87870117D01*
X162659765Y-87803703D01*
X162659765Y-87803702D01*
X162659770Y-87803700D01*
X162753700Y-87709770D01*
X162753703Y-87709765D01*
X162820117Y-87594734D01*
X162820117Y-87594732D01*
X162820119Y-87594730D01*
X162854500Y-87466419D01*
X162854500Y-86633581D01*
X162820119Y-86505270D01*
X162820117Y-86505267D01*
X162820117Y-86505265D01*
X162753703Y-86390234D01*
X162753701Y-86390232D01*
X162753700Y-86390230D01*
X162659770Y-86296300D01*
X162659767Y-86296298D01*
X162659765Y-86296296D01*
X162544733Y-86229882D01*
X162544735Y-86229882D01*
X162494947Y-86216541D01*
X162416419Y-86195500D01*
X162283581Y-86195500D01*
X162205052Y-86216541D01*
X162155265Y-86229882D01*
X162040234Y-86296296D01*
X161946296Y-86390234D01*
X161879882Y-86505265D01*
X161879881Y-86505270D01*
X161845500Y-86633581D01*
X156254500Y-86633581D01*
X156220119Y-86505270D01*
X156220117Y-86505267D01*
X156220117Y-86505265D01*
X156153703Y-86390234D01*
X156153701Y-86390232D01*
X156153700Y-86390230D01*
X156059770Y-86296300D01*
X156059767Y-86296298D01*
X156059765Y-86296296D01*
X155944733Y-86229882D01*
X155944734Y-86229882D01*
X155919296Y-86223066D01*
X155816419Y-86195500D01*
X155683581Y-86195500D01*
X155605052Y-86216541D01*
X155555265Y-86229882D01*
X155440234Y-86296296D01*
X155346296Y-86390234D01*
X155279882Y-86505265D01*
X155279881Y-86505270D01*
X155245500Y-86633581D01*
X154161956Y-86633581D01*
X154188163Y-86582147D01*
X154188164Y-86582146D01*
X154207711Y-86543782D01*
X154286751Y-86300519D01*
X154311107Y-86146747D01*
X165795500Y-86146747D01*
X165795500Y-86253253D01*
X165808165Y-86300519D01*
X165823067Y-86356135D01*
X165876316Y-86448364D01*
X165876318Y-86448366D01*
X165876320Y-86448369D01*
X165951631Y-86523680D01*
X165951633Y-86523681D01*
X165951635Y-86523683D01*
X166043865Y-86576932D01*
X166043863Y-86576932D01*
X166043867Y-86576933D01*
X166043869Y-86576934D01*
X166146747Y-86604500D01*
X166146749Y-86604500D01*
X166253251Y-86604500D01*
X166253253Y-86604500D01*
X166356131Y-86576934D01*
X166356133Y-86576932D01*
X166356135Y-86576932D01*
X166408416Y-86546747D01*
X167495500Y-86546747D01*
X167495500Y-86653253D01*
X167513097Y-86718926D01*
X167523067Y-86756135D01*
X167576316Y-86848364D01*
X167576318Y-86848366D01*
X167576320Y-86848369D01*
X167651631Y-86923680D01*
X167651633Y-86923681D01*
X167651635Y-86923683D01*
X167743865Y-86976932D01*
X167743863Y-86976932D01*
X167743867Y-86976933D01*
X167743869Y-86976934D01*
X167751365Y-86978942D01*
X167802679Y-87012262D01*
X167824609Y-87069382D01*
X167821372Y-87100190D01*
X167795500Y-87196747D01*
X167795500Y-87303253D01*
X167803917Y-87334664D01*
X167823067Y-87406135D01*
X167876316Y-87498364D01*
X167876318Y-87498366D01*
X167876320Y-87498369D01*
X167951631Y-87573680D01*
X167951633Y-87573681D01*
X167951635Y-87573683D01*
X168043865Y-87626932D01*
X168043863Y-87626932D01*
X168043867Y-87626933D01*
X168043869Y-87626934D01*
X168146747Y-87654500D01*
X168146749Y-87654500D01*
X168253251Y-87654500D01*
X168253253Y-87654500D01*
X168356131Y-87626934D01*
X168356133Y-87626932D01*
X168356135Y-87626932D01*
X168448364Y-87573683D01*
X168448364Y-87573682D01*
X168448369Y-87573680D01*
X168523680Y-87498369D01*
X168533667Y-87481071D01*
X168576932Y-87406135D01*
X168576932Y-87406133D01*
X168576934Y-87406131D01*
X168604500Y-87303253D01*
X168604500Y-87196747D01*
X168576934Y-87093869D01*
X168576932Y-87093866D01*
X168576932Y-87093864D01*
X168523683Y-87001635D01*
X168523681Y-87001633D01*
X168523680Y-87001631D01*
X168448369Y-86926320D01*
X168448366Y-86926318D01*
X168448364Y-86926316D01*
X168356134Y-86873067D01*
X168356131Y-86873066D01*
X168348631Y-86871056D01*
X168297317Y-86837733D01*
X168275390Y-86780612D01*
X168278627Y-86749810D01*
X168304500Y-86653253D01*
X168304500Y-86546747D01*
X168276934Y-86443869D01*
X168276932Y-86443866D01*
X168276932Y-86443864D01*
X168223683Y-86351635D01*
X168223681Y-86351633D01*
X168223680Y-86351631D01*
X168148369Y-86276320D01*
X168148366Y-86276318D01*
X168148364Y-86276316D01*
X168056134Y-86223067D01*
X168056136Y-86223067D01*
X168016217Y-86212371D01*
X167953253Y-86195500D01*
X167846747Y-86195500D01*
X167783782Y-86212371D01*
X167743864Y-86223067D01*
X167651635Y-86276316D01*
X167576316Y-86351635D01*
X167523067Y-86443864D01*
X167514696Y-86475107D01*
X167495500Y-86546747D01*
X166408416Y-86546747D01*
X166448364Y-86523683D01*
X166448364Y-86523682D01*
X166448369Y-86523680D01*
X166523680Y-86448369D01*
X166534303Y-86429970D01*
X166576932Y-86356135D01*
X166576932Y-86356133D01*
X166576934Y-86356131D01*
X166604500Y-86253253D01*
X166604500Y-86146747D01*
X166576934Y-86043869D01*
X166576932Y-86043866D01*
X166576932Y-86043864D01*
X166523683Y-85951635D01*
X166523681Y-85951633D01*
X166523680Y-85951631D01*
X166448369Y-85876320D01*
X166448366Y-85876318D01*
X166448364Y-85876316D01*
X166361207Y-85825995D01*
X166361204Y-85825995D01*
X166356132Y-85823066D01*
X166321838Y-85813877D01*
X166253253Y-85795500D01*
X166146747Y-85795500D01*
X166083782Y-85812371D01*
X166043864Y-85823067D01*
X165951635Y-85876316D01*
X165876316Y-85951635D01*
X165823067Y-86043864D01*
X165821860Y-86048369D01*
X165795500Y-86146747D01*
X154311107Y-86146747D01*
X154326764Y-86047893D01*
X154326764Y-85792106D01*
X154286751Y-85539480D01*
X154207711Y-85296217D01*
X154091589Y-85068314D01*
X154090631Y-85066751D01*
X154090486Y-85066151D01*
X154089823Y-85064848D01*
X154090135Y-85064688D01*
X154076344Y-85007257D01*
X154099754Y-84950728D01*
X154151921Y-84918755D01*
X154212918Y-84923551D01*
X154245043Y-84945014D01*
X154834540Y-85534511D01*
X154834539Y-85534511D01*
X154890489Y-85590460D01*
X154959007Y-85630019D01*
X154959011Y-85630021D01*
X155035435Y-85650499D01*
X155035437Y-85650500D01*
X155035438Y-85650500D01*
X162764563Y-85650500D01*
X162764563Y-85650499D01*
X162840989Y-85630021D01*
X162909511Y-85590460D01*
X162948340Y-85551631D01*
X162965461Y-85534511D01*
X163197779Y-85302192D01*
X163252296Y-85274414D01*
X163312728Y-85283985D01*
X163355993Y-85327250D01*
X163365564Y-85387682D01*
X163363410Y-85397816D01*
X163350300Y-85446744D01*
X163350300Y-85446747D01*
X163350300Y-85553253D01*
X163366729Y-85614566D01*
X163377867Y-85656135D01*
X163431116Y-85748364D01*
X163431118Y-85748366D01*
X163431120Y-85748369D01*
X163506431Y-85823680D01*
X163506433Y-85823681D01*
X163506435Y-85823683D01*
X163598665Y-85876932D01*
X163598663Y-85876932D01*
X163598667Y-85876933D01*
X163598669Y-85876934D01*
X163701547Y-85904500D01*
X163701549Y-85904500D01*
X163808051Y-85904500D01*
X163808053Y-85904500D01*
X163910931Y-85876934D01*
X163910933Y-85876932D01*
X163910935Y-85876932D01*
X164003164Y-85823683D01*
X164003164Y-85823682D01*
X164003169Y-85823680D01*
X164078480Y-85748369D01*
X164079416Y-85746748D01*
X164079417Y-85746747D01*
X172145500Y-85746747D01*
X172145500Y-85853253D01*
X172164371Y-85923680D01*
X172173067Y-85956135D01*
X172226316Y-86048364D01*
X172226318Y-86048366D01*
X172226320Y-86048369D01*
X172301631Y-86123680D01*
X172301633Y-86123681D01*
X172301635Y-86123683D01*
X172393865Y-86176932D01*
X172393863Y-86176932D01*
X172393867Y-86176933D01*
X172393869Y-86176934D01*
X172496747Y-86204500D01*
X172496749Y-86204500D01*
X172603251Y-86204500D01*
X172603253Y-86204500D01*
X172706131Y-86176934D01*
X172706133Y-86176932D01*
X172706135Y-86176932D01*
X172798364Y-86123683D01*
X172798364Y-86123682D01*
X172798369Y-86123680D01*
X172873680Y-86048369D01*
X172902303Y-85998793D01*
X172926932Y-85956135D01*
X172926932Y-85956133D01*
X172926934Y-85956131D01*
X172954500Y-85853253D01*
X172954500Y-85746747D01*
X172930283Y-85656368D01*
X172933485Y-85595270D01*
X172971990Y-85547720D01*
X172972111Y-85547642D01*
X172973493Y-85546747D01*
X173895500Y-85546747D01*
X173895500Y-85653253D01*
X173919810Y-85743980D01*
X173923067Y-85756135D01*
X173976316Y-85848364D01*
X173976318Y-85848366D01*
X173976320Y-85848369D01*
X174051631Y-85923680D01*
X174051633Y-85923681D01*
X174051635Y-85923683D01*
X174143865Y-85976932D01*
X174143863Y-85976932D01*
X174143867Y-85976933D01*
X174143869Y-85976934D01*
X174246747Y-86004500D01*
X174246749Y-86004500D01*
X174353251Y-86004500D01*
X174353253Y-86004500D01*
X174456131Y-85976934D01*
X174456133Y-85976932D01*
X174456135Y-85976932D01*
X174548364Y-85923683D01*
X174548364Y-85923682D01*
X174548369Y-85923680D01*
X174623680Y-85848369D01*
X174676934Y-85756131D01*
X174704500Y-85653253D01*
X174704500Y-85546747D01*
X175295500Y-85546747D01*
X175295500Y-85653253D01*
X175319810Y-85743980D01*
X175323067Y-85756135D01*
X175376316Y-85848364D01*
X175376318Y-85848366D01*
X175376320Y-85848369D01*
X175451631Y-85923680D01*
X175451633Y-85923681D01*
X175451635Y-85923683D01*
X175543865Y-85976932D01*
X175543863Y-85976932D01*
X175543867Y-85976933D01*
X175543869Y-85976934D01*
X175646747Y-86004500D01*
X175646749Y-86004500D01*
X175753251Y-86004500D01*
X175753253Y-86004500D01*
X175856131Y-85976934D01*
X175856133Y-85976932D01*
X175856135Y-85976932D01*
X175948364Y-85923683D01*
X175948364Y-85923682D01*
X175948369Y-85923680D01*
X176023680Y-85848369D01*
X176076934Y-85756131D01*
X176104500Y-85653253D01*
X176104500Y-85546747D01*
X181395500Y-85546747D01*
X181395500Y-85653253D01*
X181419810Y-85743980D01*
X181423067Y-85756135D01*
X181476316Y-85848364D01*
X181476318Y-85848366D01*
X181476320Y-85848369D01*
X181551631Y-85923680D01*
X181551633Y-85923681D01*
X181551635Y-85923683D01*
X181643865Y-85976932D01*
X181643863Y-85976932D01*
X181643867Y-85976933D01*
X181643869Y-85976934D01*
X181746747Y-86004500D01*
X181746749Y-86004500D01*
X181853251Y-86004500D01*
X181853253Y-86004500D01*
X181956131Y-85976934D01*
X181956133Y-85976932D01*
X181956135Y-85976932D01*
X182048364Y-85923683D01*
X182048364Y-85923682D01*
X182048369Y-85923680D01*
X182123680Y-85848369D01*
X182176934Y-85756131D01*
X182204500Y-85653253D01*
X182204500Y-85546747D01*
X182176934Y-85443869D01*
X182176932Y-85443866D01*
X182176932Y-85443864D01*
X182123683Y-85351635D01*
X182123681Y-85351633D01*
X182123680Y-85351631D01*
X182048369Y-85276320D01*
X182048366Y-85276318D01*
X182048364Y-85276316D01*
X181956134Y-85223067D01*
X181956136Y-85223067D01*
X181911283Y-85211049D01*
X181853253Y-85195500D01*
X181746747Y-85195500D01*
X181688717Y-85211049D01*
X181643864Y-85223067D01*
X181551635Y-85276316D01*
X181476316Y-85351635D01*
X181423067Y-85443864D01*
X181414372Y-85476316D01*
X181395500Y-85546747D01*
X176104500Y-85546747D01*
X176076934Y-85443869D01*
X176076932Y-85443866D01*
X176076932Y-85443864D01*
X176023683Y-85351635D01*
X176023681Y-85351633D01*
X176023680Y-85351631D01*
X175948369Y-85276320D01*
X175948366Y-85276318D01*
X175948364Y-85276316D01*
X175856134Y-85223067D01*
X175856136Y-85223067D01*
X175811283Y-85211049D01*
X175753253Y-85195500D01*
X175646747Y-85195500D01*
X175588717Y-85211049D01*
X175543864Y-85223067D01*
X175451635Y-85276316D01*
X175376316Y-85351635D01*
X175323067Y-85443864D01*
X175314372Y-85476316D01*
X175295500Y-85546747D01*
X174704500Y-85546747D01*
X174676934Y-85443869D01*
X174676932Y-85443866D01*
X174676932Y-85443864D01*
X174623683Y-85351635D01*
X174623681Y-85351633D01*
X174623680Y-85351631D01*
X174548369Y-85276320D01*
X174548366Y-85276318D01*
X174548364Y-85276316D01*
X174456134Y-85223067D01*
X174456136Y-85223067D01*
X174411283Y-85211049D01*
X174353253Y-85195500D01*
X174246747Y-85195500D01*
X174188717Y-85211049D01*
X174143864Y-85223067D01*
X174051635Y-85276316D01*
X173976316Y-85351635D01*
X173923067Y-85443864D01*
X173914372Y-85476316D01*
X173895500Y-85546747D01*
X172973493Y-85546747D01*
X172982670Y-85540806D01*
X172987430Y-85539531D01*
X173079668Y-85486277D01*
X173154979Y-85410966D01*
X173154982Y-85410961D01*
X173208231Y-85318732D01*
X173208231Y-85318730D01*
X173208233Y-85318728D01*
X173235799Y-85215850D01*
X173235799Y-85109344D01*
X173208233Y-85006466D01*
X173208231Y-85006463D01*
X173208231Y-85006461D01*
X173154982Y-84914232D01*
X173154980Y-84914230D01*
X173154979Y-84914228D01*
X173079668Y-84838917D01*
X173079665Y-84838915D01*
X173079663Y-84838913D01*
X172987433Y-84785664D01*
X172987435Y-84785664D01*
X172947516Y-84774968D01*
X172884552Y-84758097D01*
X172778046Y-84758097D01*
X172715081Y-84774968D01*
X172675163Y-84785664D01*
X172582934Y-84838913D01*
X172507615Y-84914232D01*
X172454366Y-85006461D01*
X172448193Y-85029500D01*
X172426799Y-85109344D01*
X172426799Y-85215850D01*
X172449934Y-85302192D01*
X172451015Y-85306225D01*
X172447812Y-85367327D01*
X172409307Y-85414877D01*
X172395150Y-85422325D01*
X172301635Y-85476316D01*
X172226316Y-85551635D01*
X172173067Y-85643864D01*
X172161603Y-85686649D01*
X172145500Y-85746747D01*
X164079417Y-85746747D01*
X164131732Y-85656135D01*
X164131732Y-85656133D01*
X164131734Y-85656131D01*
X164159300Y-85553253D01*
X164159300Y-85446747D01*
X164131734Y-85343869D01*
X164131732Y-85343866D01*
X164131732Y-85343864D01*
X164078483Y-85251635D01*
X164078481Y-85251633D01*
X164078480Y-85251631D01*
X164003169Y-85176320D01*
X164003166Y-85176318D01*
X164003164Y-85176316D01*
X163910934Y-85123067D01*
X163910936Y-85123067D01*
X163859723Y-85109345D01*
X163808053Y-85095500D01*
X163701547Y-85095500D01*
X163701544Y-85095500D01*
X163652616Y-85108610D01*
X163591515Y-85105407D01*
X163543966Y-85066901D01*
X163528131Y-85007800D01*
X163550059Y-84950679D01*
X163556981Y-84942989D01*
X164070475Y-84429496D01*
X164124992Y-84401719D01*
X164140479Y-84400500D01*
X168362366Y-84400500D01*
X168420557Y-84419407D01*
X168456521Y-84468907D01*
X168457993Y-84525122D01*
X168445500Y-84571747D01*
X168445500Y-84678253D01*
X168446605Y-84682376D01*
X168473067Y-84781135D01*
X168526316Y-84873364D01*
X168526318Y-84873366D01*
X168526320Y-84873369D01*
X168601631Y-84948680D01*
X168601633Y-84948681D01*
X168601635Y-84948683D01*
X168693865Y-85001932D01*
X168693863Y-85001932D01*
X168693867Y-85001933D01*
X168693869Y-85001934D01*
X168796747Y-85029500D01*
X168796749Y-85029500D01*
X168903251Y-85029500D01*
X168903253Y-85029500D01*
X169006131Y-85001934D01*
X169006133Y-85001932D01*
X169006135Y-85001932D01*
X169098364Y-84948683D01*
X169098364Y-84948682D01*
X169098369Y-84948680D01*
X169173680Y-84873369D01*
X169193571Y-84838917D01*
X169226932Y-84781135D01*
X169226932Y-84781133D01*
X169226934Y-84781131D01*
X169254500Y-84678253D01*
X169254500Y-84571747D01*
X169242007Y-84525122D01*
X169243479Y-84497041D01*
X169243479Y-84468907D01*
X169245068Y-84466719D01*
X169245210Y-84464021D01*
X169262906Y-84442168D01*
X169279443Y-84419407D01*
X169282013Y-84418571D01*
X169283715Y-84416471D01*
X169337634Y-84400500D01*
X169435144Y-84400500D01*
X169493335Y-84419407D01*
X169529299Y-84468907D01*
X169530770Y-84525121D01*
X169517173Y-84575870D01*
X169517173Y-84682376D01*
X169537462Y-84758097D01*
X169544740Y-84785258D01*
X169597989Y-84877487D01*
X169597991Y-84877489D01*
X169597993Y-84877492D01*
X169673304Y-84952803D01*
X169673306Y-84952804D01*
X169673308Y-84952806D01*
X169765538Y-85006055D01*
X169765536Y-85006055D01*
X169765540Y-85006056D01*
X169765542Y-85006057D01*
X169868420Y-85033623D01*
X169868422Y-85033623D01*
X169974924Y-85033623D01*
X169974926Y-85033623D01*
X170077804Y-85006057D01*
X170077806Y-85006055D01*
X170077808Y-85006055D01*
X170170037Y-84952806D01*
X170170037Y-84952805D01*
X170170042Y-84952803D01*
X170245353Y-84877492D01*
X170245356Y-84877487D01*
X170298605Y-84785258D01*
X170298605Y-84785256D01*
X170298607Y-84785254D01*
X170326173Y-84682376D01*
X170326173Y-84575870D01*
X170312575Y-84525121D01*
X170315778Y-84464021D01*
X170354283Y-84416472D01*
X170408202Y-84400500D01*
X170762366Y-84400500D01*
X170820557Y-84419407D01*
X170856521Y-84468907D01*
X170857993Y-84525122D01*
X170845500Y-84571747D01*
X170845500Y-84678253D01*
X170846605Y-84682376D01*
X170873067Y-84781135D01*
X170926316Y-84873364D01*
X170926318Y-84873366D01*
X170926320Y-84873369D01*
X171001631Y-84948680D01*
X171001633Y-84948681D01*
X171001635Y-84948683D01*
X171093865Y-85001932D01*
X171093863Y-85001932D01*
X171093867Y-85001933D01*
X171093869Y-85001934D01*
X171196747Y-85029500D01*
X171196749Y-85029500D01*
X171303251Y-85029500D01*
X171303253Y-85029500D01*
X171406131Y-85001934D01*
X171406133Y-85001932D01*
X171406135Y-85001932D01*
X171498364Y-84948683D01*
X171498364Y-84948682D01*
X171498369Y-84948680D01*
X171573680Y-84873369D01*
X171593571Y-84838917D01*
X171626932Y-84781135D01*
X171626932Y-84781133D01*
X171626934Y-84781131D01*
X171654500Y-84678253D01*
X171654500Y-84571747D01*
X171642007Y-84525122D01*
X171645210Y-84464021D01*
X171683715Y-84416471D01*
X171737634Y-84400500D01*
X188002405Y-84400500D01*
X188046462Y-84400500D01*
X188053523Y-84400751D01*
X188284806Y-84417293D01*
X188298787Y-84419304D01*
X188521881Y-84467836D01*
X188535433Y-84471815D01*
X188651184Y-84514987D01*
X188749366Y-84551606D01*
X188762205Y-84557469D01*
X188962607Y-84666898D01*
X188974483Y-84674530D01*
X189122941Y-84785664D01*
X189157263Y-84811357D01*
X189167939Y-84820607D01*
X189329392Y-84982060D01*
X189338642Y-84992736D01*
X189475467Y-85175513D01*
X189483103Y-85187395D01*
X189572783Y-85351631D01*
X189592526Y-85387786D01*
X189598394Y-85400636D01*
X189678184Y-85614566D01*
X189682163Y-85628118D01*
X189730695Y-85851212D01*
X189732706Y-85865193D01*
X189749248Y-86096475D01*
X189749500Y-86103538D01*
X189749500Y-117700500D01*
X189730593Y-117758691D01*
X189681093Y-117794655D01*
X189650500Y-117799500D01*
X140053538Y-117799500D01*
X140046477Y-117799248D01*
X140016467Y-117797101D01*
X139815193Y-117782706D01*
X139801212Y-117780695D01*
X139578118Y-117732163D01*
X139564566Y-117728184D01*
X139350636Y-117648394D01*
X139337786Y-117642526D01*
X139137395Y-117533103D01*
X139125513Y-117525467D01*
X138942736Y-117388642D01*
X138932060Y-117379392D01*
X138770607Y-117217939D01*
X138761357Y-117207263D01*
X138738328Y-117176500D01*
X138624530Y-117024483D01*
X138616897Y-117012605D01*
X138603300Y-116987705D01*
X138580935Y-116946747D01*
X147795500Y-116946747D01*
X147795500Y-117053253D01*
X147819810Y-117143980D01*
X147823067Y-117156135D01*
X147876316Y-117248364D01*
X147876318Y-117248366D01*
X147876320Y-117248369D01*
X147951631Y-117323680D01*
X147951633Y-117323681D01*
X147951635Y-117323683D01*
X148043865Y-117376932D01*
X148043863Y-117376932D01*
X148043867Y-117376933D01*
X148043869Y-117376934D01*
X148146747Y-117404500D01*
X148146749Y-117404500D01*
X148253251Y-117404500D01*
X148253253Y-117404500D01*
X148356131Y-117376934D01*
X148356133Y-117376932D01*
X148356135Y-117376932D01*
X148448364Y-117323683D01*
X148448364Y-117323682D01*
X148448369Y-117323680D01*
X148523680Y-117248369D01*
X148541249Y-117217939D01*
X148576932Y-117156135D01*
X148576932Y-117156133D01*
X148576934Y-117156131D01*
X148604500Y-117053253D01*
X148604500Y-116946747D01*
X148576934Y-116843869D01*
X148576932Y-116843866D01*
X148576932Y-116843864D01*
X148523683Y-116751635D01*
X148523681Y-116751633D01*
X148523680Y-116751631D01*
X148448369Y-116676320D01*
X148448366Y-116676318D01*
X148448364Y-116676316D01*
X148356134Y-116623067D01*
X148356136Y-116623067D01*
X148316217Y-116612371D01*
X148253253Y-116595500D01*
X148146747Y-116595500D01*
X148083782Y-116612371D01*
X148043864Y-116623067D01*
X147951635Y-116676316D01*
X147876316Y-116751635D01*
X147823067Y-116843864D01*
X147823066Y-116843869D01*
X147795500Y-116946747D01*
X138580935Y-116946747D01*
X138507469Y-116812205D01*
X138501605Y-116799363D01*
X138501234Y-116798369D01*
X138472992Y-116722649D01*
X138421815Y-116585433D01*
X138417838Y-116571893D01*
X138401491Y-116496747D01*
X152545500Y-116496747D01*
X152545500Y-116603253D01*
X152565077Y-116676316D01*
X152573067Y-116706135D01*
X152626316Y-116798364D01*
X152626318Y-116798366D01*
X152626320Y-116798369D01*
X152701631Y-116873680D01*
X152701633Y-116873681D01*
X152701635Y-116873683D01*
X152793865Y-116926932D01*
X152793863Y-116926932D01*
X152793867Y-116926933D01*
X152793869Y-116926934D01*
X152896747Y-116954500D01*
X152896749Y-116954500D01*
X153003251Y-116954500D01*
X153003253Y-116954500D01*
X153106131Y-116926934D01*
X153106133Y-116926932D01*
X153106135Y-116926932D01*
X153198364Y-116873683D01*
X153198364Y-116873682D01*
X153198369Y-116873680D01*
X153273680Y-116798369D01*
X153281019Y-116785657D01*
X153326932Y-116706135D01*
X153326932Y-116706133D01*
X153326934Y-116706131D01*
X153353877Y-116605575D01*
X153387200Y-116554264D01*
X153423878Y-116535575D01*
X153456131Y-116526934D01*
X153548369Y-116473680D01*
X153623680Y-116398369D01*
X153623683Y-116398364D01*
X153676932Y-116306135D01*
X153676932Y-116306133D01*
X153676934Y-116306131D01*
X153704500Y-116203253D01*
X153704500Y-116096747D01*
X153699331Y-116077456D01*
X157874000Y-116077456D01*
X157874000Y-116274543D01*
X157912449Y-116467834D01*
X157912449Y-116467836D01*
X157987867Y-116649913D01*
X157987868Y-116649914D01*
X158097361Y-116813782D01*
X158236718Y-116953139D01*
X158400586Y-117062632D01*
X158582665Y-117138051D01*
X158775959Y-117176500D01*
X158775960Y-117176500D01*
X158973040Y-117176500D01*
X158973041Y-117176500D01*
X159166335Y-117138051D01*
X159348414Y-117062632D01*
X159512282Y-116953139D01*
X159651639Y-116813782D01*
X159761132Y-116649914D01*
X159836551Y-116467835D01*
X159875000Y-116274541D01*
X159875000Y-116077459D01*
X159874999Y-116077456D01*
X160414000Y-116077456D01*
X160414000Y-116274543D01*
X160452449Y-116467834D01*
X160452449Y-116467836D01*
X160527867Y-116649913D01*
X160527868Y-116649914D01*
X160637361Y-116813782D01*
X160776718Y-116953139D01*
X160940586Y-117062632D01*
X161122665Y-117138051D01*
X161315959Y-117176500D01*
X161315960Y-117176500D01*
X161513040Y-117176500D01*
X161513041Y-117176500D01*
X161706335Y-117138051D01*
X161888414Y-117062632D01*
X162052282Y-116953139D01*
X162191639Y-116813782D01*
X162301132Y-116649914D01*
X162376551Y-116467835D01*
X162415000Y-116274541D01*
X162415000Y-116077459D01*
X162414999Y-116077456D01*
X162954000Y-116077456D01*
X162954000Y-116274543D01*
X162992449Y-116467834D01*
X162992449Y-116467836D01*
X163067867Y-116649913D01*
X163067868Y-116649914D01*
X163177361Y-116813782D01*
X163316718Y-116953139D01*
X163480586Y-117062632D01*
X163662665Y-117138051D01*
X163855959Y-117176500D01*
X163855960Y-117176500D01*
X164053040Y-117176500D01*
X164053041Y-117176500D01*
X164246335Y-117138051D01*
X164428414Y-117062632D01*
X164592282Y-116953139D01*
X164731639Y-116813782D01*
X164841132Y-116649914D01*
X164916551Y-116467835D01*
X164955000Y-116274541D01*
X164955000Y-116077506D01*
X165494500Y-116077506D01*
X165494500Y-116274493D01*
X165532929Y-116467688D01*
X165532929Y-116467690D01*
X165608309Y-116649674D01*
X165702732Y-116790989D01*
X166063769Y-116429951D01*
X166094401Y-116483007D01*
X166187493Y-116576099D01*
X166240545Y-116606729D01*
X165879509Y-116967766D01*
X166020824Y-117062190D01*
X166202810Y-117137570D01*
X166396006Y-117175999D01*
X166396010Y-117176000D01*
X166592990Y-117176000D01*
X166592993Y-117175999D01*
X166786188Y-117137570D01*
X166786190Y-117137570D01*
X166968175Y-117062190D01*
X167109489Y-116967766D01*
X166748452Y-116606729D01*
X166801507Y-116576099D01*
X166894599Y-116483007D01*
X166925229Y-116429952D01*
X167286266Y-116790989D01*
X167380690Y-116649675D01*
X167456070Y-116467690D01*
X167456070Y-116467688D01*
X167494499Y-116274493D01*
X167494500Y-116274490D01*
X167494500Y-116077509D01*
X167494499Y-116077506D01*
X167456070Y-115884311D01*
X167456070Y-115884309D01*
X167380690Y-115702324D01*
X167380690Y-115702323D01*
X167286266Y-115561009D01*
X166925229Y-115922045D01*
X166894599Y-115868993D01*
X166801507Y-115775901D01*
X166748451Y-115745269D01*
X167109489Y-115384232D01*
X167000146Y-115311172D01*
X168034000Y-115311172D01*
X168034000Y-117040827D01*
X168042732Y-117084720D01*
X168042734Y-117084724D01*
X168069137Y-117124239D01*
X168075996Y-117134504D01*
X168125778Y-117167767D01*
X168136827Y-117169964D01*
X168169672Y-117176499D01*
X168169678Y-117176499D01*
X168169680Y-117176500D01*
X168169681Y-117176500D01*
X169899319Y-117176500D01*
X169899320Y-117176500D01*
X169899321Y-117176499D01*
X169899327Y-117176499D01*
X169921123Y-117172162D01*
X169943222Y-117167767D01*
X169993004Y-117134504D01*
X170026267Y-117084722D01*
X170032527Y-117053251D01*
X170034999Y-117040827D01*
X170035000Y-117040818D01*
X170035000Y-116063645D01*
X171683388Y-116063645D01*
X171683388Y-116260732D01*
X171721837Y-116454023D01*
X171721837Y-116454025D01*
X171797255Y-116636102D01*
X171806484Y-116649914D01*
X171906749Y-116799971D01*
X172046106Y-116939328D01*
X172209974Y-117048821D01*
X172392053Y-117124240D01*
X172585347Y-117162689D01*
X172585348Y-117162689D01*
X172782428Y-117162689D01*
X172782429Y-117162689D01*
X172975723Y-117124240D01*
X173157802Y-117048821D01*
X173321670Y-116939328D01*
X173461027Y-116799971D01*
X173570520Y-116636103D01*
X173645939Y-116454024D01*
X173684388Y-116260730D01*
X173684388Y-116063648D01*
X173684387Y-116063645D01*
X174223388Y-116063645D01*
X174223388Y-116260732D01*
X174261837Y-116454023D01*
X174261837Y-116454025D01*
X174337255Y-116636102D01*
X174346484Y-116649914D01*
X174446749Y-116799971D01*
X174586106Y-116939328D01*
X174749974Y-117048821D01*
X174932053Y-117124240D01*
X175125347Y-117162689D01*
X175125348Y-117162689D01*
X175322428Y-117162689D01*
X175322429Y-117162689D01*
X175515723Y-117124240D01*
X175697802Y-117048821D01*
X175861670Y-116939328D01*
X176001027Y-116799971D01*
X176110520Y-116636103D01*
X176185939Y-116454024D01*
X176224388Y-116260730D01*
X176224388Y-116063648D01*
X176224387Y-116063645D01*
X176763388Y-116063645D01*
X176763388Y-116260732D01*
X176801837Y-116454023D01*
X176801837Y-116454025D01*
X176877255Y-116636102D01*
X176886484Y-116649914D01*
X176986749Y-116799971D01*
X177126106Y-116939328D01*
X177289974Y-117048821D01*
X177472053Y-117124240D01*
X177665347Y-117162689D01*
X177665348Y-117162689D01*
X177862428Y-117162689D01*
X177862429Y-117162689D01*
X178055723Y-117124240D01*
X178237802Y-117048821D01*
X178401670Y-116939328D01*
X178541027Y-116799971D01*
X178650520Y-116636103D01*
X178725939Y-116454024D01*
X178764388Y-116260730D01*
X178764388Y-116063648D01*
X178725939Y-115870354D01*
X178650520Y-115688275D01*
X178541027Y-115524407D01*
X178401670Y-115385050D01*
X178291104Y-115311172D01*
X178270434Y-115297361D01*
X179303388Y-115297361D01*
X179303388Y-117027016D01*
X179312120Y-117070909D01*
X179312121Y-117070911D01*
X179345384Y-117120693D01*
X179395166Y-117153956D01*
X179406100Y-117156131D01*
X179439060Y-117162688D01*
X179439066Y-117162688D01*
X179439068Y-117162689D01*
X179439069Y-117162689D01*
X181168707Y-117162689D01*
X181168708Y-117162689D01*
X181168709Y-117162688D01*
X181168715Y-117162688D01*
X181190511Y-117158351D01*
X181212610Y-117153956D01*
X181262392Y-117120693D01*
X181295655Y-117070911D01*
X181304388Y-117027009D01*
X181304388Y-116196827D01*
X187132134Y-116196827D01*
X187132134Y-116394698D01*
X187170737Y-116588762D01*
X187170737Y-116588764D01*
X187246455Y-116771565D01*
X187246461Y-116771577D01*
X187325071Y-116889223D01*
X187356388Y-116936092D01*
X187496303Y-117076007D01*
X187563176Y-117120690D01*
X187660817Y-117185933D01*
X187660829Y-117185939D01*
X187726006Y-117212936D01*
X187843632Y-117261658D01*
X188037699Y-117300261D01*
X188037700Y-117300261D01*
X188235568Y-117300261D01*
X188235569Y-117300261D01*
X188429636Y-117261658D01*
X188612443Y-117185937D01*
X188612445Y-117185935D01*
X188612450Y-117185933D01*
X188660309Y-117153954D01*
X188776965Y-117076007D01*
X188916880Y-116936092D01*
X189007834Y-116799970D01*
X189026806Y-116771577D01*
X189026812Y-116771565D01*
X189053914Y-116706135D01*
X189102531Y-116588763D01*
X189141134Y-116394696D01*
X189141134Y-116196826D01*
X189102531Y-116002759D01*
X189060644Y-115901635D01*
X189026812Y-115819956D01*
X189026806Y-115819944D01*
X188963747Y-115725572D01*
X188916880Y-115655430D01*
X188776965Y-115515515D01*
X188730096Y-115484198D01*
X188612450Y-115405588D01*
X188612438Y-115405582D01*
X188429636Y-115329864D01*
X188235571Y-115291261D01*
X188235569Y-115291261D01*
X188037699Y-115291261D01*
X188037696Y-115291261D01*
X187843632Y-115329864D01*
X187843630Y-115329864D01*
X187660829Y-115405582D01*
X187660817Y-115405588D01*
X187496303Y-115515515D01*
X187496299Y-115515518D01*
X187356391Y-115655426D01*
X187356388Y-115655430D01*
X187246461Y-115819944D01*
X187246455Y-115819956D01*
X187170737Y-116002757D01*
X187170737Y-116002759D01*
X187132135Y-116196819D01*
X187132134Y-116196827D01*
X181304388Y-116196827D01*
X181304388Y-115297369D01*
X181304387Y-115297367D01*
X181304387Y-115297361D01*
X181295655Y-115253468D01*
X181295653Y-115253464D01*
X181269250Y-115213949D01*
X181262392Y-115203685D01*
X181261728Y-115203241D01*
X181212612Y-115170423D01*
X181212608Y-115170421D01*
X181168715Y-115161689D01*
X181168708Y-115161689D01*
X179439068Y-115161689D01*
X179439060Y-115161689D01*
X179395167Y-115170421D01*
X179395163Y-115170423D01*
X179345386Y-115203683D01*
X179345382Y-115203687D01*
X179312122Y-115253464D01*
X179312120Y-115253468D01*
X179303388Y-115297361D01*
X178270434Y-115297361D01*
X178237801Y-115275556D01*
X178055723Y-115200138D01*
X177862431Y-115161689D01*
X177862429Y-115161689D01*
X177665347Y-115161689D01*
X177665344Y-115161689D01*
X177472053Y-115200138D01*
X177472051Y-115200138D01*
X177289974Y-115275556D01*
X177126106Y-115385050D01*
X177126102Y-115385053D01*
X176986752Y-115524403D01*
X176986749Y-115524407D01*
X176877255Y-115688275D01*
X176801837Y-115870352D01*
X176801837Y-115870354D01*
X176763388Y-116063645D01*
X176224387Y-116063645D01*
X176185939Y-115870354D01*
X176110520Y-115688275D01*
X176001027Y-115524407D01*
X175861670Y-115385050D01*
X175751104Y-115311172D01*
X175697801Y-115275556D01*
X175515723Y-115200138D01*
X175322431Y-115161689D01*
X175322429Y-115161689D01*
X175125347Y-115161689D01*
X175125344Y-115161689D01*
X174932053Y-115200138D01*
X174932051Y-115200138D01*
X174749974Y-115275556D01*
X174586106Y-115385050D01*
X174586102Y-115385053D01*
X174446752Y-115524403D01*
X174446749Y-115524407D01*
X174337255Y-115688275D01*
X174261837Y-115870352D01*
X174261837Y-115870354D01*
X174223388Y-116063645D01*
X173684387Y-116063645D01*
X173645939Y-115870354D01*
X173570520Y-115688275D01*
X173461027Y-115524407D01*
X173321670Y-115385050D01*
X173211104Y-115311172D01*
X173157801Y-115275556D01*
X172975723Y-115200138D01*
X172782431Y-115161689D01*
X172782429Y-115161689D01*
X172585347Y-115161689D01*
X172585344Y-115161689D01*
X172392053Y-115200138D01*
X172392051Y-115200138D01*
X172209974Y-115275556D01*
X172046106Y-115385050D01*
X172046102Y-115385053D01*
X171906752Y-115524403D01*
X171906749Y-115524407D01*
X171797255Y-115688275D01*
X171721837Y-115870352D01*
X171721837Y-115870354D01*
X171683388Y-116063645D01*
X170035000Y-116063645D01*
X170035000Y-115311181D01*
X170034999Y-115311172D01*
X170026267Y-115267279D01*
X170026265Y-115267275D01*
X170025823Y-115266614D01*
X169993004Y-115217496D01*
X169988414Y-115214429D01*
X169943224Y-115184234D01*
X169943220Y-115184232D01*
X169899327Y-115175500D01*
X169899320Y-115175500D01*
X168169680Y-115175500D01*
X168169672Y-115175500D01*
X168125779Y-115184232D01*
X168125775Y-115184234D01*
X168075998Y-115217494D01*
X168075994Y-115217498D01*
X168042734Y-115267275D01*
X168042732Y-115267279D01*
X168034000Y-115311172D01*
X167000146Y-115311172D01*
X166968174Y-115289809D01*
X166786189Y-115214429D01*
X166592993Y-115176000D01*
X166396006Y-115176000D01*
X166202811Y-115214429D01*
X166202809Y-115214429D01*
X166020824Y-115289809D01*
X165879509Y-115384232D01*
X166240547Y-115745270D01*
X166187493Y-115775901D01*
X166094401Y-115868993D01*
X166063770Y-115922047D01*
X165702732Y-115561009D01*
X165608309Y-115702324D01*
X165532929Y-115884309D01*
X165532929Y-115884311D01*
X165494500Y-116077506D01*
X164955000Y-116077506D01*
X164955000Y-116077459D01*
X164916551Y-115884165D01*
X164841132Y-115702086D01*
X164731639Y-115538218D01*
X164592282Y-115398861D01*
X164482788Y-115325699D01*
X164428413Y-115289367D01*
X164246335Y-115213949D01*
X164053043Y-115175500D01*
X164053041Y-115175500D01*
X163855959Y-115175500D01*
X163855956Y-115175500D01*
X163662665Y-115213949D01*
X163662663Y-115213949D01*
X163480586Y-115289367D01*
X163316718Y-115398861D01*
X163316714Y-115398864D01*
X163177364Y-115538214D01*
X163177361Y-115538218D01*
X163067867Y-115702086D01*
X162992449Y-115884163D01*
X162992449Y-115884165D01*
X162954000Y-116077456D01*
X162414999Y-116077456D01*
X162376551Y-115884165D01*
X162301132Y-115702086D01*
X162191639Y-115538218D01*
X162052282Y-115398861D01*
X161942788Y-115325699D01*
X161888413Y-115289367D01*
X161706335Y-115213949D01*
X161513043Y-115175500D01*
X161513041Y-115175500D01*
X161315959Y-115175500D01*
X161315956Y-115175500D01*
X161122665Y-115213949D01*
X161122663Y-115213949D01*
X160940586Y-115289367D01*
X160776718Y-115398861D01*
X160776714Y-115398864D01*
X160637364Y-115538214D01*
X160637361Y-115538218D01*
X160527867Y-115702086D01*
X160452449Y-115884163D01*
X160452449Y-115884165D01*
X160414000Y-116077456D01*
X159874999Y-116077456D01*
X159836551Y-115884165D01*
X159761132Y-115702086D01*
X159651639Y-115538218D01*
X159512282Y-115398861D01*
X159402788Y-115325699D01*
X159348413Y-115289367D01*
X159166335Y-115213949D01*
X158973043Y-115175500D01*
X158973041Y-115175500D01*
X158775959Y-115175500D01*
X158775956Y-115175500D01*
X158582665Y-115213949D01*
X158582663Y-115213949D01*
X158400586Y-115289367D01*
X158236718Y-115398861D01*
X158236714Y-115398864D01*
X158097364Y-115538214D01*
X158097361Y-115538218D01*
X157987867Y-115702086D01*
X157912449Y-115884163D01*
X157912449Y-115884165D01*
X157874000Y-116077456D01*
X153699331Y-116077456D01*
X153676934Y-115993869D01*
X153676932Y-115993865D01*
X153676932Y-115993864D01*
X153623683Y-115901635D01*
X153623681Y-115901633D01*
X153623680Y-115901631D01*
X153548369Y-115826320D01*
X153548366Y-115826318D01*
X153548364Y-115826316D01*
X153456134Y-115773067D01*
X153456136Y-115773067D01*
X153416217Y-115762371D01*
X153353253Y-115745500D01*
X153246747Y-115745500D01*
X153183782Y-115762371D01*
X153143864Y-115773067D01*
X153051635Y-115826316D01*
X152976316Y-115901635D01*
X152923067Y-115993865D01*
X152923065Y-115993869D01*
X152896122Y-116094421D01*
X152862798Y-116145735D01*
X152826122Y-116164423D01*
X152793866Y-116173066D01*
X152793865Y-116173067D01*
X152701635Y-116226316D01*
X152626316Y-116301635D01*
X152573067Y-116393864D01*
X152571860Y-116398369D01*
X152545500Y-116496747D01*
X138401491Y-116496747D01*
X138369303Y-116348784D01*
X138367293Y-116334805D01*
X138364920Y-116301631D01*
X138350752Y-116103523D01*
X138350500Y-116096461D01*
X138350500Y-114960761D01*
X139103000Y-114960761D01*
X139103000Y-115119238D01*
X139133916Y-115274663D01*
X139133916Y-115274665D01*
X139194559Y-115421071D01*
X139194560Y-115421073D01*
X139194561Y-115421074D01*
X139282604Y-115552839D01*
X139394661Y-115664896D01*
X139526426Y-115752939D01*
X139672836Y-115813584D01*
X139828264Y-115844500D01*
X139828265Y-115844500D01*
X139986735Y-115844500D01*
X139986736Y-115844500D01*
X140142164Y-115813584D01*
X140288574Y-115752939D01*
X140420339Y-115664896D01*
X140532396Y-115552839D01*
X140620439Y-115421074D01*
X140681084Y-115274664D01*
X140712000Y-115119236D01*
X140712000Y-114960764D01*
X140681084Y-114805336D01*
X140620439Y-114658926D01*
X140545483Y-114546747D01*
X151895500Y-114546747D01*
X151895500Y-114653253D01*
X151919810Y-114743980D01*
X151923067Y-114756135D01*
X151976316Y-114848364D01*
X151976318Y-114848366D01*
X151976320Y-114848369D01*
X152051631Y-114923680D01*
X152051633Y-114923681D01*
X152051635Y-114923683D01*
X152143865Y-114976932D01*
X152143863Y-114976932D01*
X152143867Y-114976933D01*
X152143869Y-114976934D01*
X152246747Y-115004500D01*
X152246749Y-115004500D01*
X152353251Y-115004500D01*
X152353253Y-115004500D01*
X152456131Y-114976934D01*
X152456133Y-114976932D01*
X152456135Y-114976932D01*
X152548364Y-114923683D01*
X152548364Y-114923682D01*
X152548369Y-114923680D01*
X152623680Y-114848369D01*
X152676934Y-114756131D01*
X152679448Y-114746747D01*
X153524489Y-114746747D01*
X153524489Y-114853253D01*
X153543360Y-114923680D01*
X153552056Y-114956135D01*
X153605305Y-115048364D01*
X153605307Y-115048366D01*
X153605309Y-115048369D01*
X153680620Y-115123680D01*
X153680622Y-115123681D01*
X153680624Y-115123683D01*
X153772854Y-115176932D01*
X153772852Y-115176932D01*
X153772856Y-115176933D01*
X153772858Y-115176934D01*
X153875736Y-115204500D01*
X153875738Y-115204500D01*
X153982240Y-115204500D01*
X153982242Y-115204500D01*
X154085120Y-115176934D01*
X154164995Y-115130817D01*
X154224841Y-115118096D01*
X154263993Y-115130817D01*
X154343869Y-115176934D01*
X154446747Y-115204500D01*
X154446749Y-115204500D01*
X154553251Y-115204500D01*
X154553253Y-115204500D01*
X154656131Y-115176934D01*
X154656133Y-115176932D01*
X154656135Y-115176932D01*
X154748364Y-115123683D01*
X154748364Y-115123682D01*
X154748369Y-115123680D01*
X154823680Y-115048369D01*
X154849008Y-115004500D01*
X154876932Y-114956135D01*
X154876932Y-114956133D01*
X154876934Y-114956131D01*
X154904500Y-114853253D01*
X154904500Y-114746747D01*
X154876934Y-114643869D01*
X154876932Y-114643866D01*
X154876932Y-114643864D01*
X154823683Y-114551635D01*
X154823681Y-114551633D01*
X154823680Y-114551631D01*
X154748369Y-114476320D01*
X154748366Y-114476318D01*
X154748364Y-114476316D01*
X154656134Y-114423067D01*
X154656136Y-114423067D01*
X154616217Y-114412371D01*
X154553253Y-114395500D01*
X154446747Y-114395500D01*
X154395308Y-114409283D01*
X154343867Y-114423066D01*
X154263994Y-114469182D01*
X154204146Y-114481903D01*
X154164994Y-114469181D01*
X154085123Y-114423067D01*
X154085125Y-114423067D01*
X154045206Y-114412371D01*
X153982242Y-114395500D01*
X153875736Y-114395500D01*
X153812771Y-114412371D01*
X153772853Y-114423067D01*
X153680624Y-114476316D01*
X153605305Y-114551635D01*
X153552056Y-114643864D01*
X153548020Y-114658928D01*
X153524489Y-114746747D01*
X152679448Y-114746747D01*
X152704500Y-114653253D01*
X152704500Y-114546747D01*
X152676934Y-114443869D01*
X152676932Y-114443866D01*
X152676932Y-114443864D01*
X152623683Y-114351635D01*
X152623681Y-114351633D01*
X152623680Y-114351631D01*
X152548369Y-114276320D01*
X152548366Y-114276318D01*
X152548364Y-114276316D01*
X152456134Y-114223067D01*
X152456136Y-114223067D01*
X152416217Y-114212371D01*
X152353253Y-114195500D01*
X152246747Y-114195500D01*
X152183782Y-114212371D01*
X152143864Y-114223067D01*
X152051635Y-114276316D01*
X151976316Y-114351635D01*
X151923067Y-114443864D01*
X151916283Y-114469182D01*
X151895500Y-114546747D01*
X140545483Y-114546747D01*
X140532396Y-114527161D01*
X140420339Y-114415104D01*
X140288574Y-114327061D01*
X140288573Y-114327060D01*
X140288571Y-114327059D01*
X140142164Y-114266416D01*
X139986738Y-114235500D01*
X139986736Y-114235500D01*
X139828264Y-114235500D01*
X139828261Y-114235500D01*
X139672836Y-114266416D01*
X139672834Y-114266416D01*
X139526428Y-114327059D01*
X139394661Y-114415104D01*
X139394657Y-114415107D01*
X139282607Y-114527157D01*
X139282604Y-114527161D01*
X139194559Y-114658928D01*
X139133916Y-114805334D01*
X139133916Y-114805336D01*
X139103000Y-114960761D01*
X138350500Y-114960761D01*
X138350500Y-112420761D01*
X139103000Y-112420761D01*
X139103000Y-112579238D01*
X139133916Y-112734663D01*
X139133916Y-112734665D01*
X139194559Y-112881071D01*
X139194560Y-112881073D01*
X139194561Y-112881074D01*
X139282604Y-113012839D01*
X139394661Y-113124896D01*
X139526426Y-113212939D01*
X139526427Y-113212939D01*
X139526428Y-113212940D01*
X139538608Y-113217985D01*
X139672836Y-113273584D01*
X139828264Y-113304500D01*
X139828265Y-113304500D01*
X139986735Y-113304500D01*
X139986736Y-113304500D01*
X140142164Y-113273584D01*
X140288574Y-113212939D01*
X140420339Y-113124896D01*
X140532396Y-113012839D01*
X140620439Y-112881074D01*
X140681084Y-112734664D01*
X140712000Y-112579236D01*
X140712000Y-112420764D01*
X140681084Y-112265336D01*
X140620439Y-112118926D01*
X140532396Y-111987161D01*
X140420339Y-111875104D01*
X140288574Y-111787061D01*
X140288573Y-111787060D01*
X140288571Y-111787059D01*
X140142164Y-111726416D01*
X139986738Y-111695500D01*
X139986736Y-111695500D01*
X139828264Y-111695500D01*
X139828261Y-111695500D01*
X139672836Y-111726416D01*
X139672834Y-111726416D01*
X139526428Y-111787059D01*
X139394661Y-111875104D01*
X139394657Y-111875107D01*
X139282607Y-111987157D01*
X139282604Y-111987161D01*
X139194559Y-112118928D01*
X139133916Y-112265334D01*
X139133916Y-112265336D01*
X139103000Y-112420761D01*
X138350500Y-112420761D01*
X138350500Y-109880761D01*
X139103000Y-109880761D01*
X139103000Y-110039238D01*
X139123610Y-110142854D01*
X139130912Y-110179564D01*
X139133916Y-110194663D01*
X139133916Y-110194665D01*
X139194559Y-110341071D01*
X139194560Y-110341073D01*
X139194561Y-110341074D01*
X139282604Y-110472839D01*
X139394661Y-110584896D01*
X139526426Y-110672939D01*
X139672836Y-110733584D01*
X139828264Y-110764500D01*
X139828265Y-110764500D01*
X139986735Y-110764500D01*
X139986736Y-110764500D01*
X140142164Y-110733584D01*
X140288574Y-110672939D01*
X140420339Y-110584896D01*
X140511839Y-110493396D01*
X149945500Y-110493396D01*
X149945500Y-110706603D01*
X149978851Y-110917174D01*
X150044736Y-111119947D01*
X150141527Y-111309912D01*
X150141531Y-111309918D01*
X150266841Y-111482391D01*
X150266843Y-111482393D01*
X150266846Y-111482397D01*
X150417603Y-111633154D01*
X150417606Y-111633156D01*
X150417608Y-111633158D01*
X150545966Y-111726416D01*
X150590087Y-111758472D01*
X150780053Y-111855264D01*
X150982821Y-111921147D01*
X150982822Y-111921147D01*
X150982825Y-111921148D01*
X151193396Y-111954500D01*
X151193399Y-111954500D01*
X151406604Y-111954500D01*
X151617174Y-111921148D01*
X151617175Y-111921147D01*
X151617179Y-111921147D01*
X151819947Y-111855264D01*
X152009913Y-111758472D01*
X152069230Y-111715375D01*
X163374611Y-111715375D01*
X163374611Y-113445030D01*
X163383343Y-113488923D01*
X163383344Y-113488925D01*
X163416607Y-113538707D01*
X163466389Y-113571970D01*
X163477438Y-113574167D01*
X163510283Y-113580702D01*
X163510289Y-113580702D01*
X163510291Y-113580703D01*
X163510292Y-113580703D01*
X165239930Y-113580703D01*
X165239931Y-113580703D01*
X165239932Y-113580702D01*
X165239938Y-113580702D01*
X165261734Y-113576365D01*
X165283833Y-113571970D01*
X165333615Y-113538707D01*
X165366878Y-113488925D01*
X165375611Y-113445023D01*
X165375611Y-112481661D01*
X165914611Y-112481661D01*
X165914611Y-112678746D01*
X165953060Y-112872037D01*
X165953060Y-112872039D01*
X166028478Y-113054116D01*
X166028479Y-113054117D01*
X166137972Y-113217985D01*
X166277329Y-113357342D01*
X166441197Y-113466835D01*
X166623276Y-113542254D01*
X166816570Y-113580703D01*
X166816571Y-113580703D01*
X167013651Y-113580703D01*
X167013652Y-113580703D01*
X167206946Y-113542254D01*
X167389025Y-113466835D01*
X167552893Y-113357342D01*
X167692250Y-113217985D01*
X167801743Y-113054117D01*
X167877162Y-112872038D01*
X167915611Y-112678744D01*
X167915611Y-112481662D01*
X167915611Y-112481661D01*
X168454611Y-112481661D01*
X168454611Y-112678746D01*
X168493060Y-112872037D01*
X168493060Y-112872039D01*
X168568478Y-113054116D01*
X168568479Y-113054117D01*
X168677972Y-113217985D01*
X168817329Y-113357342D01*
X168981197Y-113466835D01*
X169163276Y-113542254D01*
X169356570Y-113580703D01*
X169356571Y-113580703D01*
X169553651Y-113580703D01*
X169553652Y-113580703D01*
X169746946Y-113542254D01*
X169929025Y-113466835D01*
X170092893Y-113357342D01*
X170232250Y-113217985D01*
X170341743Y-113054117D01*
X170417162Y-112872038D01*
X170455611Y-112678744D01*
X170455611Y-112481662D01*
X170455611Y-112481661D01*
X170994611Y-112481661D01*
X170994611Y-112678746D01*
X171033060Y-112872037D01*
X171033060Y-112872039D01*
X171108478Y-113054116D01*
X171108479Y-113054117D01*
X171217972Y-113217985D01*
X171357329Y-113357342D01*
X171521197Y-113466835D01*
X171703276Y-113542254D01*
X171896570Y-113580703D01*
X171896571Y-113580703D01*
X172093651Y-113580703D01*
X172093652Y-113580703D01*
X172286946Y-113542254D01*
X172469025Y-113466835D01*
X172632893Y-113357342D01*
X172772250Y-113217985D01*
X172881743Y-113054117D01*
X172957162Y-112872038D01*
X172995611Y-112678744D01*
X172995611Y-112481662D01*
X172957162Y-112288368D01*
X172881743Y-112106289D01*
X172772250Y-111942421D01*
X172632893Y-111803064D01*
X172518181Y-111726416D01*
X172469024Y-111693570D01*
X172286946Y-111618152D01*
X172093654Y-111579703D01*
X172093652Y-111579703D01*
X171896570Y-111579703D01*
X171896567Y-111579703D01*
X171703276Y-111618152D01*
X171703274Y-111618152D01*
X171521197Y-111693570D01*
X171357329Y-111803064D01*
X171357325Y-111803067D01*
X171217975Y-111942417D01*
X171217972Y-111942421D01*
X171108478Y-112106289D01*
X171033060Y-112288366D01*
X171033060Y-112288368D01*
X170994611Y-112481661D01*
X170455611Y-112481661D01*
X170417162Y-112288368D01*
X170341743Y-112106289D01*
X170232250Y-111942421D01*
X170092893Y-111803064D01*
X169978181Y-111726416D01*
X169929024Y-111693570D01*
X169746946Y-111618152D01*
X169553654Y-111579703D01*
X169553652Y-111579703D01*
X169356570Y-111579703D01*
X169356567Y-111579703D01*
X169163276Y-111618152D01*
X169163274Y-111618152D01*
X168981197Y-111693570D01*
X168817329Y-111803064D01*
X168817325Y-111803067D01*
X168677975Y-111942417D01*
X168677972Y-111942421D01*
X168568478Y-112106289D01*
X168493060Y-112288366D01*
X168493060Y-112288368D01*
X168454611Y-112481661D01*
X167915611Y-112481661D01*
X167877162Y-112288368D01*
X167801743Y-112106289D01*
X167692250Y-111942421D01*
X167552893Y-111803064D01*
X167438181Y-111726416D01*
X167389024Y-111693570D01*
X167206946Y-111618152D01*
X167013654Y-111579703D01*
X167013652Y-111579703D01*
X166816570Y-111579703D01*
X166816567Y-111579703D01*
X166623276Y-111618152D01*
X166623274Y-111618152D01*
X166441197Y-111693570D01*
X166277329Y-111803064D01*
X166277325Y-111803067D01*
X166137975Y-111942417D01*
X166137972Y-111942421D01*
X166028478Y-112106289D01*
X165953060Y-112288366D01*
X165953060Y-112288368D01*
X165914611Y-112481661D01*
X165375611Y-112481661D01*
X165375611Y-111715383D01*
X165375610Y-111715381D01*
X165375610Y-111715375D01*
X165366878Y-111671482D01*
X165366876Y-111671478D01*
X165366434Y-111670817D01*
X165333615Y-111621699D01*
X165332951Y-111621255D01*
X165283835Y-111588437D01*
X165283831Y-111588435D01*
X165239938Y-111579703D01*
X165239931Y-111579703D01*
X163510291Y-111579703D01*
X163510283Y-111579703D01*
X163466390Y-111588435D01*
X163466386Y-111588437D01*
X163416609Y-111621697D01*
X163416605Y-111621701D01*
X163383345Y-111671478D01*
X163383343Y-111671482D01*
X163374611Y-111715375D01*
X152069230Y-111715375D01*
X152182397Y-111633154D01*
X152333154Y-111482397D01*
X152458472Y-111309913D01*
X152555264Y-111119947D01*
X152579048Y-111046747D01*
X157895500Y-111046747D01*
X157895500Y-111153253D01*
X157919810Y-111243980D01*
X157923067Y-111256135D01*
X157976316Y-111348364D01*
X157976318Y-111348366D01*
X157976320Y-111348369D01*
X158051631Y-111423680D01*
X158051633Y-111423681D01*
X158051635Y-111423683D01*
X158143865Y-111476932D01*
X158143863Y-111476932D01*
X158143867Y-111476933D01*
X158143869Y-111476934D01*
X158246747Y-111504500D01*
X158246749Y-111504500D01*
X158353251Y-111504500D01*
X158353253Y-111504500D01*
X158456131Y-111476934D01*
X158456133Y-111476932D01*
X158456135Y-111476932D01*
X158548364Y-111423683D01*
X158548364Y-111423682D01*
X158548369Y-111423680D01*
X158623680Y-111348369D01*
X158645883Y-111309913D01*
X158676932Y-111256135D01*
X158676932Y-111256133D01*
X158676934Y-111256131D01*
X158704500Y-111153253D01*
X158704500Y-111046747D01*
X158676934Y-110943869D01*
X158676932Y-110943866D01*
X158676932Y-110943864D01*
X158623683Y-110851635D01*
X158623681Y-110851633D01*
X158623680Y-110851631D01*
X158548369Y-110776320D01*
X158548366Y-110776318D01*
X158548364Y-110776316D01*
X158456134Y-110723067D01*
X158456136Y-110723067D01*
X158416217Y-110712371D01*
X158353253Y-110695500D01*
X158246747Y-110695500D01*
X158183782Y-110712371D01*
X158143864Y-110723067D01*
X158051635Y-110776316D01*
X157976316Y-110851635D01*
X157923067Y-110943864D01*
X157923066Y-110943869D01*
X157895500Y-111046747D01*
X152579048Y-111046747D01*
X152621147Y-110917179D01*
X152623155Y-110904500D01*
X152654500Y-110706603D01*
X152654500Y-110493396D01*
X152621148Y-110282825D01*
X152611014Y-110251635D01*
X152555264Y-110080053D01*
X152458472Y-109890087D01*
X152458468Y-109890081D01*
X152333158Y-109717608D01*
X152333156Y-109717606D01*
X152333154Y-109717603D01*
X152182397Y-109566846D01*
X152182393Y-109566843D01*
X152182391Y-109566841D01*
X152009918Y-109441531D01*
X152009912Y-109441527D01*
X151934943Y-109403329D01*
X151819947Y-109344736D01*
X151748766Y-109321608D01*
X157545500Y-109321608D01*
X157545500Y-109428114D01*
X157550603Y-109447157D01*
X157573067Y-109530996D01*
X157626316Y-109623225D01*
X157626318Y-109623227D01*
X157626320Y-109623230D01*
X157701631Y-109698541D01*
X157701633Y-109698542D01*
X157701635Y-109698544D01*
X157793865Y-109751793D01*
X157793863Y-109751793D01*
X157793867Y-109751794D01*
X157793869Y-109751795D01*
X157896747Y-109779361D01*
X157896749Y-109779361D01*
X158003252Y-109779361D01*
X158003253Y-109779361D01*
X158093060Y-109755297D01*
X158154161Y-109758498D01*
X158201711Y-109797003D01*
X158217547Y-109856104D01*
X158214310Y-109876545D01*
X158195500Y-109946747D01*
X158195500Y-110053253D01*
X158214206Y-110123066D01*
X158223067Y-110156135D01*
X158276316Y-110248364D01*
X158276318Y-110248366D01*
X158276320Y-110248369D01*
X158351631Y-110323680D01*
X158351633Y-110323681D01*
X158351635Y-110323683D01*
X158443865Y-110376932D01*
X158443863Y-110376932D01*
X158443867Y-110376933D01*
X158443869Y-110376934D01*
X158546747Y-110404500D01*
X158546749Y-110404500D01*
X158653251Y-110404500D01*
X158653253Y-110404500D01*
X158756131Y-110376934D01*
X158756133Y-110376932D01*
X158756135Y-110376932D01*
X158853989Y-110320436D01*
X158855517Y-110323083D01*
X158901329Y-110306830D01*
X158960006Y-110324171D01*
X158997282Y-110372690D01*
X158999607Y-110431415D01*
X158995500Y-110446747D01*
X158995500Y-110553253D01*
X159003979Y-110584896D01*
X159023067Y-110656135D01*
X159076316Y-110748364D01*
X159076318Y-110748366D01*
X159076320Y-110748369D01*
X159151631Y-110823680D01*
X159151633Y-110823681D01*
X159151635Y-110823683D01*
X159243865Y-110876932D01*
X159243863Y-110876932D01*
X159243867Y-110876933D01*
X159243869Y-110876934D01*
X159346747Y-110904500D01*
X159346749Y-110904500D01*
X159453251Y-110904500D01*
X159453253Y-110904500D01*
X159556131Y-110876934D01*
X159556133Y-110876932D01*
X159556135Y-110876932D01*
X159648364Y-110823683D01*
X159648364Y-110823682D01*
X159648369Y-110823680D01*
X159723680Y-110748369D01*
X159754204Y-110695500D01*
X159776932Y-110656135D01*
X159776932Y-110656133D01*
X159776934Y-110656131D01*
X159804500Y-110553253D01*
X159804500Y-110493396D01*
X176195500Y-110493396D01*
X176195500Y-110706603D01*
X176228851Y-110917174D01*
X176294736Y-111119947D01*
X176391527Y-111309912D01*
X176391531Y-111309918D01*
X176516841Y-111482391D01*
X176516843Y-111482393D01*
X176516846Y-111482397D01*
X176667603Y-111633154D01*
X176667606Y-111633156D01*
X176667608Y-111633158D01*
X176795966Y-111726416D01*
X176840087Y-111758472D01*
X177030053Y-111855264D01*
X177232821Y-111921147D01*
X177232822Y-111921147D01*
X177232825Y-111921148D01*
X177443396Y-111954500D01*
X177443399Y-111954500D01*
X177656604Y-111954500D01*
X177867174Y-111921148D01*
X177867175Y-111921147D01*
X177867179Y-111921147D01*
X178069947Y-111855264D01*
X178259913Y-111758472D01*
X178432397Y-111633154D01*
X178583154Y-111482397D01*
X178708472Y-111309913D01*
X178805264Y-111119947D01*
X178871147Y-110917179D01*
X178873155Y-110904500D01*
X178904500Y-110706603D01*
X178904500Y-110493396D01*
X178871148Y-110282825D01*
X178861014Y-110251635D01*
X178805264Y-110080053D01*
X178708472Y-109890087D01*
X178708468Y-109890081D01*
X178583158Y-109717608D01*
X178583156Y-109717606D01*
X178583154Y-109717603D01*
X178432397Y-109566846D01*
X178432393Y-109566843D01*
X178432391Y-109566841D01*
X178259918Y-109441531D01*
X178259912Y-109441527D01*
X178069947Y-109344736D01*
X177867174Y-109278851D01*
X177656604Y-109245500D01*
X177656601Y-109245500D01*
X177443399Y-109245500D01*
X177443396Y-109245500D01*
X177232825Y-109278851D01*
X177030052Y-109344736D01*
X176840087Y-109441527D01*
X176840081Y-109441531D01*
X176667608Y-109566841D01*
X176516841Y-109717608D01*
X176391531Y-109890081D01*
X176391527Y-109890087D01*
X176294736Y-110080052D01*
X176228851Y-110282825D01*
X176195500Y-110493396D01*
X159804500Y-110493396D01*
X159804500Y-110446747D01*
X159776934Y-110343869D01*
X159776932Y-110343866D01*
X159776932Y-110343864D01*
X159723683Y-110251635D01*
X159723681Y-110251633D01*
X159723680Y-110251631D01*
X159648369Y-110176320D01*
X159648366Y-110176318D01*
X159648364Y-110176316D01*
X159556134Y-110123067D01*
X159556136Y-110123067D01*
X159516217Y-110112371D01*
X159453253Y-110095500D01*
X159346747Y-110095500D01*
X159283782Y-110112371D01*
X159243864Y-110123067D01*
X159146011Y-110179564D01*
X159144502Y-110176951D01*
X159098446Y-110193175D01*
X159039809Y-110175701D01*
X159002642Y-110127098D01*
X158997273Y-110087097D01*
X158997949Y-110077700D01*
X159004500Y-110053253D01*
X159004500Y-109996747D01*
X166645500Y-109996747D01*
X166645500Y-110103253D01*
X166659669Y-110156131D01*
X166673067Y-110206135D01*
X166726316Y-110298364D01*
X166726318Y-110298366D01*
X166726320Y-110298369D01*
X166801631Y-110373680D01*
X166801633Y-110373681D01*
X166801635Y-110373683D01*
X166893865Y-110426932D01*
X166893863Y-110426932D01*
X166893867Y-110426933D01*
X166893869Y-110426934D01*
X166996747Y-110454500D01*
X166996749Y-110454500D01*
X167103251Y-110454500D01*
X167103253Y-110454500D01*
X167206131Y-110426934D01*
X167206133Y-110426932D01*
X167206135Y-110426932D01*
X167246248Y-110403773D01*
X167298364Y-110373683D01*
X167298364Y-110373682D01*
X167298369Y-110373680D01*
X167373680Y-110298369D01*
X167373683Y-110298364D01*
X167426932Y-110206135D01*
X167426932Y-110206133D01*
X167426934Y-110206131D01*
X167454500Y-110103253D01*
X167454500Y-109996747D01*
X167426934Y-109893869D01*
X167426932Y-109893866D01*
X167426932Y-109893864D01*
X167373683Y-109801635D01*
X167373681Y-109801633D01*
X167373680Y-109801631D01*
X167298369Y-109726320D01*
X167298366Y-109726318D01*
X167298364Y-109726316D01*
X167206134Y-109673067D01*
X167206136Y-109673067D01*
X167166217Y-109662371D01*
X167103253Y-109645500D01*
X166996747Y-109645500D01*
X166933782Y-109662371D01*
X166893864Y-109673067D01*
X166801635Y-109726316D01*
X166726316Y-109801635D01*
X166673067Y-109893864D01*
X166673066Y-109893869D01*
X166645500Y-109996747D01*
X159004500Y-109996747D01*
X159004500Y-109946747D01*
X158976934Y-109843869D01*
X158976932Y-109843866D01*
X158976932Y-109843864D01*
X158923683Y-109751635D01*
X158923681Y-109751633D01*
X158923680Y-109751631D01*
X158848369Y-109676320D01*
X158848366Y-109676318D01*
X158848364Y-109676316D01*
X158756134Y-109623067D01*
X158756136Y-109623067D01*
X158716217Y-109612371D01*
X158653253Y-109595500D01*
X158546747Y-109595500D01*
X158456939Y-109619564D01*
X158395837Y-109616361D01*
X158348287Y-109577856D01*
X158332452Y-109518755D01*
X158335687Y-109498324D01*
X158354500Y-109428114D01*
X158354500Y-109321608D01*
X158326934Y-109218730D01*
X158326932Y-109218727D01*
X158326932Y-109218725D01*
X158273683Y-109126496D01*
X158273681Y-109126494D01*
X158273680Y-109126492D01*
X158198369Y-109051181D01*
X158198366Y-109051179D01*
X158198364Y-109051177D01*
X158106134Y-108997928D01*
X158106136Y-108997928D01*
X158066217Y-108987232D01*
X158003253Y-108970361D01*
X157896747Y-108970361D01*
X157833782Y-108987232D01*
X157793864Y-108997928D01*
X157701635Y-109051177D01*
X157626316Y-109126496D01*
X157573067Y-109218725D01*
X157573066Y-109218730D01*
X157545500Y-109321608D01*
X151748766Y-109321608D01*
X151617174Y-109278851D01*
X151406604Y-109245500D01*
X151406601Y-109245500D01*
X151193399Y-109245500D01*
X151193396Y-109245500D01*
X150982825Y-109278851D01*
X150780052Y-109344736D01*
X150590087Y-109441527D01*
X150590081Y-109441531D01*
X150417608Y-109566841D01*
X150266841Y-109717608D01*
X150141531Y-109890081D01*
X150141527Y-109890087D01*
X150044736Y-110080052D01*
X149978851Y-110282825D01*
X149945500Y-110493396D01*
X140511839Y-110493396D01*
X140532396Y-110472839D01*
X140620439Y-110341074D01*
X140681084Y-110194664D01*
X140712000Y-110039236D01*
X140712000Y-109880764D01*
X140681084Y-109725336D01*
X140620439Y-109578926D01*
X140532396Y-109447161D01*
X140420339Y-109335104D01*
X140288574Y-109247061D01*
X140288573Y-109247060D01*
X140288571Y-109247059D01*
X140142164Y-109186416D01*
X139986738Y-109155500D01*
X139986736Y-109155500D01*
X139828264Y-109155500D01*
X139828261Y-109155500D01*
X139672836Y-109186416D01*
X139672834Y-109186416D01*
X139526428Y-109247059D01*
X139394661Y-109335104D01*
X139394657Y-109335107D01*
X139282607Y-109447157D01*
X139282604Y-109447161D01*
X139194559Y-109578928D01*
X139133916Y-109725334D01*
X139133916Y-109725336D01*
X139103000Y-109880761D01*
X138350500Y-109880761D01*
X138350500Y-107340761D01*
X139103000Y-107340761D01*
X139103000Y-107340764D01*
X139103000Y-107499236D01*
X139132341Y-107646748D01*
X139133916Y-107654663D01*
X139133916Y-107654665D01*
X139194559Y-107801071D01*
X139194560Y-107801073D01*
X139194561Y-107801074D01*
X139282604Y-107932839D01*
X139394661Y-108044896D01*
X139526426Y-108132939D01*
X139672836Y-108193584D01*
X139828264Y-108224500D01*
X139828265Y-108224500D01*
X139986735Y-108224500D01*
X139986736Y-108224500D01*
X140142164Y-108193584D01*
X140255239Y-108146747D01*
X150245500Y-108146747D01*
X150245500Y-108253253D01*
X150258506Y-108301793D01*
X150273067Y-108356135D01*
X150326316Y-108448364D01*
X150326318Y-108448366D01*
X150326320Y-108448369D01*
X150401631Y-108523680D01*
X150401633Y-108523681D01*
X150401635Y-108523683D01*
X150493865Y-108576932D01*
X150493863Y-108576932D01*
X150493867Y-108576933D01*
X150493869Y-108576934D01*
X150596747Y-108604500D01*
X150596749Y-108604500D01*
X150703251Y-108604500D01*
X150703253Y-108604500D01*
X150806131Y-108576934D01*
X150806133Y-108576932D01*
X150806135Y-108576932D01*
X150898364Y-108523683D01*
X150898364Y-108523682D01*
X150898369Y-108523680D01*
X150973680Y-108448369D01*
X151026934Y-108356131D01*
X151054500Y-108253253D01*
X151054500Y-108146747D01*
X151026934Y-108043869D01*
X151026932Y-108043866D01*
X151026932Y-108043864D01*
X150973683Y-107951635D01*
X150973681Y-107951633D01*
X150973680Y-107951631D01*
X150898369Y-107876320D01*
X150898366Y-107876318D01*
X150898364Y-107876316D01*
X150806134Y-107823067D01*
X150806136Y-107823067D01*
X150766217Y-107812371D01*
X150703253Y-107795500D01*
X150596747Y-107795500D01*
X150533782Y-107812371D01*
X150493864Y-107823067D01*
X150401635Y-107876316D01*
X150326316Y-107951635D01*
X150273067Y-108043864D01*
X150269295Y-108057943D01*
X150245500Y-108146747D01*
X140255239Y-108146747D01*
X140288574Y-108132939D01*
X140420339Y-108044896D01*
X140532396Y-107932839D01*
X140620439Y-107801074D01*
X140681084Y-107654664D01*
X140682659Y-107646747D01*
X151695500Y-107646747D01*
X151695500Y-107753253D01*
X151699646Y-107768725D01*
X151723067Y-107856135D01*
X151776316Y-107948364D01*
X151776318Y-107948366D01*
X151776320Y-107948369D01*
X151851631Y-108023680D01*
X151851633Y-108023681D01*
X151851635Y-108023683D01*
X151943865Y-108076932D01*
X151943863Y-108076932D01*
X151943867Y-108076933D01*
X151943869Y-108076934D01*
X152046747Y-108104500D01*
X152046749Y-108104500D01*
X152153251Y-108104500D01*
X152153253Y-108104500D01*
X152256131Y-108076934D01*
X152256133Y-108076932D01*
X152256135Y-108076932D01*
X152348364Y-108023683D01*
X152348364Y-108023682D01*
X152348369Y-108023680D01*
X152423680Y-107948369D01*
X152467998Y-107871608D01*
X157345500Y-107871608D01*
X157345500Y-107978114D01*
X157357710Y-108023683D01*
X157373067Y-108080996D01*
X157426316Y-108173225D01*
X157426318Y-108173227D01*
X157426320Y-108173230D01*
X157501631Y-108248541D01*
X157501633Y-108248542D01*
X157501635Y-108248544D01*
X157593865Y-108301793D01*
X157593863Y-108301793D01*
X157593867Y-108301794D01*
X157593869Y-108301795D01*
X157696747Y-108329361D01*
X157696749Y-108329361D01*
X157803251Y-108329361D01*
X157803253Y-108329361D01*
X157906131Y-108301795D01*
X157906133Y-108301793D01*
X157906135Y-108301793D01*
X157998364Y-108248544D01*
X157998364Y-108248543D01*
X157998369Y-108248541D01*
X158073680Y-108173230D01*
X158073683Y-108173225D01*
X158126932Y-108080996D01*
X158126932Y-108080994D01*
X158126934Y-108080992D01*
X158154500Y-107978114D01*
X158154500Y-107871608D01*
X158126934Y-107768730D01*
X158126932Y-107768727D01*
X158126932Y-107768725D01*
X158073683Y-107676496D01*
X158073681Y-107676494D01*
X158073680Y-107676492D01*
X157998369Y-107601181D01*
X157998366Y-107601179D01*
X157998364Y-107601177D01*
X157906134Y-107547928D01*
X157906136Y-107547928D01*
X157866217Y-107537232D01*
X157803253Y-107520361D01*
X157696747Y-107520361D01*
X157633782Y-107537232D01*
X157593864Y-107547928D01*
X157501635Y-107601177D01*
X157426316Y-107676496D01*
X157373067Y-107768725D01*
X157373066Y-107768730D01*
X157345500Y-107871608D01*
X152467998Y-107871608D01*
X152476934Y-107856131D01*
X152504500Y-107753253D01*
X152504500Y-107646747D01*
X152476934Y-107543869D01*
X152476932Y-107543866D01*
X152476932Y-107543864D01*
X152423683Y-107451635D01*
X152423681Y-107451633D01*
X152423680Y-107451631D01*
X152348369Y-107376320D01*
X152348366Y-107376318D01*
X152348364Y-107376316D01*
X152256134Y-107323067D01*
X152256136Y-107323067D01*
X152216217Y-107312371D01*
X152153253Y-107295500D01*
X152046747Y-107295500D01*
X151983782Y-107312371D01*
X151943864Y-107323067D01*
X151851635Y-107376316D01*
X151776316Y-107451635D01*
X151723067Y-107543864D01*
X151718299Y-107561658D01*
X151695500Y-107646747D01*
X140682659Y-107646747D01*
X140712000Y-107499236D01*
X140712000Y-107340764D01*
X140681084Y-107185336D01*
X140650761Y-107112131D01*
X140620440Y-107038928D01*
X140620439Y-107038926D01*
X140532396Y-106907161D01*
X140420339Y-106795104D01*
X140288574Y-106707061D01*
X140288573Y-106707060D01*
X140288571Y-106707059D01*
X140142164Y-106646416D01*
X139986738Y-106615500D01*
X139986736Y-106615500D01*
X139828264Y-106615500D01*
X139828261Y-106615500D01*
X139672836Y-106646416D01*
X139672834Y-106646416D01*
X139526428Y-106707059D01*
X139394661Y-106795104D01*
X139394657Y-106795107D01*
X139282607Y-106907157D01*
X139282604Y-106907161D01*
X139194559Y-107038928D01*
X139133916Y-107185334D01*
X139133916Y-107185336D01*
X139103000Y-107340761D01*
X138350500Y-107340761D01*
X138350500Y-106446747D01*
X159845500Y-106446747D01*
X159845500Y-106553253D01*
X159850188Y-106570748D01*
X159873067Y-106656135D01*
X159926316Y-106748364D01*
X159926318Y-106748366D01*
X159926320Y-106748369D01*
X160001631Y-106823680D01*
X160001633Y-106823681D01*
X160001635Y-106823683D01*
X160093865Y-106876932D01*
X160093863Y-106876932D01*
X160093867Y-106876933D01*
X160093869Y-106876934D01*
X160196747Y-106904500D01*
X160196749Y-106904500D01*
X160303251Y-106904500D01*
X160303253Y-106904500D01*
X160406131Y-106876934D01*
X160406133Y-106876932D01*
X160406135Y-106876932D01*
X160498364Y-106823683D01*
X160498364Y-106823682D01*
X160498369Y-106823680D01*
X160573680Y-106748369D01*
X160574616Y-106746747D01*
X166595500Y-106746747D01*
X166595500Y-106853253D01*
X166609945Y-106907161D01*
X166623067Y-106956135D01*
X166676316Y-107048364D01*
X166676318Y-107048366D01*
X166676320Y-107048369D01*
X166751631Y-107123680D01*
X166751633Y-107123681D01*
X166751635Y-107123683D01*
X166843865Y-107176932D01*
X166843863Y-107176932D01*
X166843867Y-107176933D01*
X166843869Y-107176934D01*
X166946747Y-107204500D01*
X166946749Y-107204500D01*
X167053251Y-107204500D01*
X167053253Y-107204500D01*
X167156131Y-107176934D01*
X167156133Y-107176932D01*
X167156135Y-107176932D01*
X167248364Y-107123683D01*
X167248364Y-107123682D01*
X167248369Y-107123680D01*
X167323680Y-107048369D01*
X167329132Y-107038926D01*
X167376932Y-106956135D01*
X167376932Y-106956133D01*
X167376934Y-106956131D01*
X167404500Y-106853253D01*
X167404500Y-106746747D01*
X167376934Y-106643869D01*
X167376932Y-106643866D01*
X167376932Y-106643864D01*
X167359550Y-106613758D01*
X167334717Y-106570747D01*
X177545500Y-106570747D01*
X177545500Y-106677253D01*
X177569810Y-106767980D01*
X177573067Y-106780135D01*
X177626316Y-106872364D01*
X177626318Y-106872366D01*
X177626320Y-106872369D01*
X177701631Y-106947680D01*
X177701633Y-106947681D01*
X177701635Y-106947683D01*
X177793865Y-107000932D01*
X177793863Y-107000932D01*
X177793867Y-107000933D01*
X177793869Y-107000934D01*
X177896747Y-107028500D01*
X177896749Y-107028500D01*
X178003251Y-107028500D01*
X178003253Y-107028500D01*
X178106131Y-107000934D01*
X178106133Y-107000932D01*
X178106135Y-107000932D01*
X178198364Y-106947683D01*
X178198364Y-106947682D01*
X178198369Y-106947680D01*
X178273680Y-106872369D01*
X178318288Y-106795107D01*
X178326932Y-106780135D01*
X178326932Y-106780133D01*
X178326934Y-106780131D01*
X178354500Y-106677253D01*
X178354500Y-106570747D01*
X178334692Y-106496823D01*
X187132134Y-106496823D01*
X187132134Y-106694698D01*
X187142488Y-106746747D01*
X187163673Y-106853253D01*
X187170737Y-106888762D01*
X187170737Y-106888764D01*
X187246455Y-107071565D01*
X187246461Y-107071577D01*
X187316860Y-107176934D01*
X187356388Y-107236092D01*
X187496303Y-107376007D01*
X187566445Y-107422874D01*
X187660817Y-107485933D01*
X187660829Y-107485939D01*
X187728356Y-107513909D01*
X187843632Y-107561658D01*
X188037699Y-107600261D01*
X188037700Y-107600261D01*
X188235568Y-107600261D01*
X188235569Y-107600261D01*
X188429636Y-107561658D01*
X188612443Y-107485937D01*
X188612445Y-107485935D01*
X188612450Y-107485933D01*
X188663786Y-107451631D01*
X188776965Y-107376007D01*
X188916880Y-107236092D01*
X188995064Y-107119080D01*
X189026806Y-107071577D01*
X189026812Y-107071565D01*
X189040331Y-107038928D01*
X189102531Y-106888763D01*
X189141134Y-106694696D01*
X189141134Y-106496826D01*
X189102531Y-106302759D01*
X189068044Y-106219500D01*
X189026812Y-106119956D01*
X189026806Y-106119944D01*
X188929074Y-105973680D01*
X188916880Y-105955430D01*
X188776965Y-105815515D01*
X188730096Y-105784198D01*
X188612450Y-105705588D01*
X188612438Y-105705582D01*
X188429636Y-105629864D01*
X188235571Y-105591261D01*
X188235569Y-105591261D01*
X188037699Y-105591261D01*
X188037696Y-105591261D01*
X187843632Y-105629864D01*
X187843630Y-105629864D01*
X187660829Y-105705582D01*
X187660817Y-105705588D01*
X187496303Y-105815515D01*
X187496299Y-105815518D01*
X187356391Y-105955426D01*
X187356388Y-105955430D01*
X187246461Y-106119944D01*
X187246455Y-106119956D01*
X187170737Y-106302757D01*
X187170737Y-106302759D01*
X187132134Y-106496823D01*
X178334692Y-106496823D01*
X178326934Y-106467869D01*
X178326932Y-106467866D01*
X178326932Y-106467864D01*
X178273683Y-106375635D01*
X178273681Y-106375633D01*
X178273680Y-106375631D01*
X178198369Y-106300320D01*
X178198366Y-106300318D01*
X178198364Y-106300316D01*
X178106134Y-106247067D01*
X178106136Y-106247067D01*
X178066217Y-106236371D01*
X178003253Y-106219500D01*
X177896747Y-106219500D01*
X177833782Y-106236371D01*
X177793864Y-106247067D01*
X177701635Y-106300316D01*
X177626316Y-106375635D01*
X177573067Y-106467864D01*
X177565308Y-106496823D01*
X177545500Y-106570747D01*
X167334717Y-106570747D01*
X167323683Y-106551635D01*
X167323681Y-106551633D01*
X167323680Y-106551631D01*
X167248369Y-106476320D01*
X167248366Y-106476318D01*
X167248364Y-106476316D01*
X167156134Y-106423067D01*
X167156136Y-106423067D01*
X167116217Y-106412371D01*
X167053253Y-106395500D01*
X166946747Y-106395500D01*
X166883782Y-106412371D01*
X166843864Y-106423067D01*
X166751635Y-106476316D01*
X166676316Y-106551635D01*
X166623067Y-106643864D01*
X166609447Y-106694696D01*
X166595500Y-106746747D01*
X160574616Y-106746747D01*
X160597531Y-106707059D01*
X160606943Y-106690757D01*
X160617444Y-106672567D01*
X160626934Y-106656131D01*
X160654500Y-106553253D01*
X160654500Y-106446747D01*
X160626934Y-106343869D01*
X160626932Y-106343866D01*
X160626932Y-106343864D01*
X160573683Y-106251635D01*
X160573681Y-106251633D01*
X160573680Y-106251631D01*
X160498369Y-106176320D01*
X160498366Y-106176318D01*
X160498364Y-106176316D01*
X160406134Y-106123067D01*
X160406136Y-106123067D01*
X160366217Y-106112371D01*
X160303253Y-106095500D01*
X160196747Y-106095500D01*
X160133782Y-106112371D01*
X160093864Y-106123067D01*
X160001635Y-106176316D01*
X159926316Y-106251635D01*
X159873067Y-106343864D01*
X159873066Y-106343869D01*
X159845500Y-106446747D01*
X138350500Y-106446747D01*
X138350500Y-104800761D01*
X139103000Y-104800761D01*
X139103000Y-104959238D01*
X139133916Y-105114663D01*
X139133916Y-105114665D01*
X139194559Y-105261071D01*
X139194560Y-105261073D01*
X139194561Y-105261074D01*
X139282604Y-105392839D01*
X139394661Y-105504896D01*
X139526426Y-105592939D01*
X139526427Y-105592939D01*
X139526428Y-105592940D01*
X139559595Y-105606678D01*
X139672836Y-105653584D01*
X139828264Y-105684500D01*
X139828265Y-105684500D01*
X139986735Y-105684500D01*
X139986736Y-105684500D01*
X140142164Y-105653584D01*
X140279381Y-105596747D01*
X151245500Y-105596747D01*
X151245500Y-105703253D01*
X151246125Y-105705585D01*
X151273067Y-105806135D01*
X151326316Y-105898364D01*
X151326318Y-105898366D01*
X151326320Y-105898369D01*
X151401631Y-105973680D01*
X151401633Y-105973681D01*
X151401635Y-105973683D01*
X151493865Y-106026932D01*
X151493863Y-106026932D01*
X151493867Y-106026933D01*
X151493869Y-106026934D01*
X151596747Y-106054500D01*
X151596749Y-106054500D01*
X151703251Y-106054500D01*
X151703253Y-106054500D01*
X151806131Y-106026934D01*
X151806133Y-106026932D01*
X151806135Y-106026932D01*
X151898364Y-105973683D01*
X151898364Y-105973682D01*
X151898369Y-105973680D01*
X151973680Y-105898369D01*
X151973683Y-105898364D01*
X152026932Y-105806135D01*
X152026932Y-105806133D01*
X152026934Y-105806131D01*
X152054500Y-105703253D01*
X152054500Y-105596747D01*
X153845500Y-105596747D01*
X153845500Y-105703253D01*
X153846125Y-105705585D01*
X153873067Y-105806135D01*
X153926316Y-105898364D01*
X153926318Y-105898366D01*
X153926320Y-105898369D01*
X154001631Y-105973680D01*
X154001633Y-105973681D01*
X154001635Y-105973683D01*
X154093865Y-106026932D01*
X154093863Y-106026932D01*
X154093867Y-106026933D01*
X154093869Y-106026934D01*
X154196747Y-106054500D01*
X154196749Y-106054500D01*
X154303251Y-106054500D01*
X154303253Y-106054500D01*
X154406131Y-106026934D01*
X154406133Y-106026932D01*
X154406135Y-106026932D01*
X154498364Y-105973683D01*
X154498364Y-105973682D01*
X154498369Y-105973680D01*
X154573680Y-105898369D01*
X154573683Y-105898364D01*
X154626932Y-105806135D01*
X154626932Y-105806133D01*
X154626934Y-105806131D01*
X154654500Y-105703253D01*
X154654500Y-105596747D01*
X156745500Y-105596747D01*
X156745500Y-105703253D01*
X156746125Y-105705585D01*
X156773067Y-105806135D01*
X156826316Y-105898364D01*
X156826318Y-105898366D01*
X156826320Y-105898369D01*
X156901631Y-105973680D01*
X156901633Y-105973681D01*
X156901635Y-105973683D01*
X156993865Y-106026932D01*
X156993863Y-106026932D01*
X156993867Y-106026933D01*
X156993869Y-106026934D01*
X157096747Y-106054500D01*
X157096749Y-106054500D01*
X157203251Y-106054500D01*
X157203253Y-106054500D01*
X157306131Y-106026934D01*
X157306133Y-106026932D01*
X157306135Y-106026932D01*
X157398364Y-105973683D01*
X157398364Y-105973682D01*
X157398369Y-105973680D01*
X157473680Y-105898369D01*
X157473683Y-105898364D01*
X157526932Y-105806135D01*
X157526932Y-105806133D01*
X157526934Y-105806131D01*
X157554500Y-105703253D01*
X157554500Y-105596747D01*
X157526934Y-105493869D01*
X157526932Y-105493866D01*
X157526932Y-105493864D01*
X157473683Y-105401635D01*
X157473681Y-105401633D01*
X157473680Y-105401631D01*
X157398369Y-105326320D01*
X157398366Y-105326318D01*
X157398364Y-105326316D01*
X157306134Y-105273067D01*
X157306136Y-105273067D01*
X157242943Y-105256135D01*
X157203253Y-105245500D01*
X157096747Y-105245500D01*
X157057057Y-105256135D01*
X156993864Y-105273067D01*
X156901635Y-105326316D01*
X156826316Y-105401635D01*
X156773067Y-105493864D01*
X156770111Y-105504896D01*
X156745500Y-105596747D01*
X154654500Y-105596747D01*
X154626934Y-105493869D01*
X154626932Y-105493866D01*
X154626932Y-105493864D01*
X154573683Y-105401635D01*
X154573681Y-105401633D01*
X154573680Y-105401631D01*
X154498369Y-105326320D01*
X154498366Y-105326318D01*
X154498364Y-105326316D01*
X154406134Y-105273067D01*
X154406136Y-105273067D01*
X154342943Y-105256135D01*
X154303253Y-105245500D01*
X154196747Y-105245500D01*
X154157057Y-105256135D01*
X154093864Y-105273067D01*
X154001635Y-105326316D01*
X153926316Y-105401635D01*
X153873067Y-105493864D01*
X153870111Y-105504896D01*
X153845500Y-105596747D01*
X152054500Y-105596747D01*
X152026934Y-105493869D01*
X152026932Y-105493866D01*
X152026932Y-105493864D01*
X151973683Y-105401635D01*
X151973681Y-105401633D01*
X151973680Y-105401631D01*
X151898369Y-105326320D01*
X151898366Y-105326318D01*
X151898364Y-105326316D01*
X151806134Y-105273067D01*
X151806136Y-105273067D01*
X151742943Y-105256135D01*
X151703253Y-105245500D01*
X151596747Y-105245500D01*
X151557057Y-105256135D01*
X151493864Y-105273067D01*
X151401635Y-105326316D01*
X151326316Y-105401635D01*
X151273067Y-105493864D01*
X151270111Y-105504896D01*
X151245500Y-105596747D01*
X140279381Y-105596747D01*
X140288574Y-105592939D01*
X140420339Y-105504896D01*
X140532396Y-105392839D01*
X140620439Y-105261074D01*
X140681084Y-105114664D01*
X140712000Y-104959236D01*
X140712000Y-104800764D01*
X140681084Y-104645336D01*
X140622231Y-104503253D01*
X140620440Y-104498928D01*
X140589921Y-104453253D01*
X140532396Y-104367161D01*
X140420339Y-104255104D01*
X140288574Y-104167061D01*
X140288573Y-104167060D01*
X140288571Y-104167059D01*
X140142164Y-104106416D01*
X140046341Y-104087356D01*
X139986738Y-104075500D01*
X139986736Y-104075500D01*
X139828264Y-104075500D01*
X139828261Y-104075500D01*
X139672836Y-104106416D01*
X139672834Y-104106416D01*
X139526428Y-104167059D01*
X139394661Y-104255104D01*
X139394657Y-104255107D01*
X139282607Y-104367157D01*
X139282604Y-104367161D01*
X139194559Y-104498928D01*
X139133916Y-104645334D01*
X139133916Y-104645336D01*
X139103000Y-104800761D01*
X138350500Y-104800761D01*
X138350500Y-103996747D01*
X151045500Y-103996747D01*
X151045500Y-104103253D01*
X151058462Y-104151628D01*
X151073067Y-104206135D01*
X151126316Y-104298364D01*
X151126318Y-104298366D01*
X151126320Y-104298369D01*
X151201631Y-104373680D01*
X151201633Y-104373681D01*
X151201635Y-104373683D01*
X151293865Y-104426932D01*
X151293863Y-104426932D01*
X151293867Y-104426933D01*
X151293869Y-104426934D01*
X151396747Y-104454500D01*
X151396749Y-104454500D01*
X151503251Y-104454500D01*
X151503253Y-104454500D01*
X151606131Y-104426934D01*
X151606133Y-104426932D01*
X151606135Y-104426932D01*
X151698364Y-104373683D01*
X151698364Y-104373682D01*
X151698369Y-104373680D01*
X151773680Y-104298369D01*
X151781922Y-104284093D01*
X151826932Y-104206135D01*
X151826932Y-104206133D01*
X151826934Y-104206131D01*
X151854500Y-104103253D01*
X151854500Y-103996747D01*
X151826934Y-103893869D01*
X151826932Y-103893866D01*
X151826932Y-103893864D01*
X151773683Y-103801635D01*
X151773681Y-103801633D01*
X151773680Y-103801631D01*
X151698369Y-103726320D01*
X151698366Y-103726318D01*
X151698364Y-103726316D01*
X151606134Y-103673067D01*
X151606136Y-103673067D01*
X151566217Y-103662371D01*
X151503253Y-103645500D01*
X151396747Y-103645500D01*
X151333782Y-103662371D01*
X151293864Y-103673067D01*
X151201635Y-103726316D01*
X151126316Y-103801635D01*
X151073067Y-103893864D01*
X151069780Y-103906131D01*
X151045500Y-103996747D01*
X138350500Y-103996747D01*
X138350500Y-103546747D01*
X157245500Y-103546747D01*
X157245500Y-103653253D01*
X157262280Y-103715878D01*
X157273067Y-103756135D01*
X157326316Y-103848364D01*
X157326318Y-103848366D01*
X157326320Y-103848369D01*
X157401631Y-103923680D01*
X157401633Y-103923681D01*
X157401635Y-103923683D01*
X157493865Y-103976932D01*
X157493863Y-103976932D01*
X157493867Y-103976933D01*
X157493869Y-103976934D01*
X157596747Y-104004500D01*
X157596749Y-104004500D01*
X157703251Y-104004500D01*
X157703253Y-104004500D01*
X157806131Y-103976934D01*
X157806133Y-103976932D01*
X157806135Y-103976932D01*
X157898364Y-103923683D01*
X157898364Y-103923682D01*
X157898369Y-103923680D01*
X157973680Y-103848369D01*
X158000662Y-103801635D01*
X158026932Y-103756135D01*
X158026932Y-103756133D01*
X158026934Y-103756131D01*
X158054500Y-103653253D01*
X158054500Y-103546747D01*
X159595500Y-103546747D01*
X159595500Y-103653253D01*
X159612280Y-103715878D01*
X159623067Y-103756135D01*
X159676316Y-103848364D01*
X159676318Y-103848366D01*
X159676320Y-103848369D01*
X159751631Y-103923680D01*
X159751633Y-103923681D01*
X159751635Y-103923683D01*
X159843865Y-103976932D01*
X159843866Y-103976932D01*
X159843869Y-103976934D01*
X159843871Y-103976934D01*
X159849861Y-103979416D01*
X159849118Y-103981207D01*
X159892919Y-104009644D01*
X159914852Y-104066763D01*
X159899022Y-104125865D01*
X159885994Y-104141956D01*
X159876321Y-104151628D01*
X159876316Y-104151635D01*
X159823067Y-104243864D01*
X159820055Y-104255107D01*
X159795500Y-104346747D01*
X159795500Y-104453253D01*
X159819810Y-104543980D01*
X159823067Y-104556135D01*
X159876316Y-104648364D01*
X159876318Y-104648366D01*
X159876320Y-104648369D01*
X159951631Y-104723680D01*
X160014816Y-104760160D01*
X160055756Y-104805629D01*
X160062152Y-104866479D01*
X160051052Y-104895396D01*
X160023066Y-104943867D01*
X160007589Y-105001631D01*
X159995500Y-105046747D01*
X159995500Y-105153253D01*
X160007589Y-105198369D01*
X160023067Y-105256135D01*
X160076316Y-105348364D01*
X160076318Y-105348366D01*
X160076320Y-105348369D01*
X160151631Y-105423680D01*
X160151633Y-105423681D01*
X160151635Y-105423683D01*
X160243865Y-105476932D01*
X160243863Y-105476932D01*
X160243867Y-105476933D01*
X160243869Y-105476934D01*
X160346747Y-105504500D01*
X160346749Y-105504500D01*
X160453251Y-105504500D01*
X160453253Y-105504500D01*
X160556131Y-105476934D01*
X160556133Y-105476932D01*
X160556135Y-105476932D01*
X160648364Y-105423683D01*
X160648364Y-105423682D01*
X160648369Y-105423680D01*
X160723680Y-105348369D01*
X160727861Y-105341128D01*
X160776932Y-105256135D01*
X160776932Y-105256133D01*
X160776934Y-105256131D01*
X160804500Y-105153253D01*
X160804500Y-105046747D01*
X160799199Y-105026963D01*
X168680852Y-105026963D01*
X168680852Y-105133469D01*
X168697807Y-105196747D01*
X168708419Y-105236351D01*
X168761668Y-105328580D01*
X168761670Y-105328582D01*
X168761672Y-105328585D01*
X168836983Y-105403896D01*
X168836985Y-105403897D01*
X168836987Y-105403899D01*
X168929217Y-105457148D01*
X168929215Y-105457148D01*
X168929219Y-105457149D01*
X168929221Y-105457150D01*
X169032099Y-105484716D01*
X169032101Y-105484716D01*
X169138603Y-105484716D01*
X169138605Y-105484716D01*
X169241483Y-105457150D01*
X169241485Y-105457148D01*
X169241487Y-105457148D01*
X169333716Y-105403899D01*
X169333716Y-105403898D01*
X169333721Y-105403896D01*
X169409032Y-105328585D01*
X169410342Y-105326316D01*
X169462284Y-105236351D01*
X169462284Y-105236349D01*
X169462286Y-105236347D01*
X169489852Y-105133469D01*
X169489852Y-105026963D01*
X169462286Y-104924085D01*
X169462284Y-104924082D01*
X169462284Y-104924080D01*
X169446503Y-104896747D01*
X176645500Y-104896747D01*
X176645500Y-105003253D01*
X176657155Y-105046750D01*
X176673067Y-105106135D01*
X176726316Y-105198364D01*
X176726318Y-105198366D01*
X176726320Y-105198369D01*
X176801631Y-105273680D01*
X176801633Y-105273681D01*
X176801635Y-105273683D01*
X176893865Y-105326932D01*
X176893863Y-105326932D01*
X176893867Y-105326933D01*
X176893869Y-105326934D01*
X176996747Y-105354500D01*
X176996749Y-105354500D01*
X177103252Y-105354500D01*
X177103253Y-105354500D01*
X177153157Y-105341128D01*
X177214256Y-105344329D01*
X177261806Y-105382833D01*
X177269680Y-105400513D01*
X177270584Y-105400139D01*
X177273067Y-105406134D01*
X177326316Y-105498364D01*
X177326318Y-105498366D01*
X177326320Y-105498369D01*
X177401631Y-105573680D01*
X177401633Y-105573681D01*
X177401635Y-105573683D01*
X177493865Y-105626932D01*
X177493863Y-105626932D01*
X177493867Y-105626933D01*
X177493869Y-105626934D01*
X177596747Y-105654500D01*
X177596749Y-105654500D01*
X177703251Y-105654500D01*
X177703253Y-105654500D01*
X177806131Y-105626934D01*
X177806133Y-105626932D01*
X177806135Y-105626932D01*
X177898364Y-105573683D01*
X177898364Y-105573682D01*
X177898369Y-105573680D01*
X177973680Y-105498369D01*
X177997479Y-105457148D01*
X178026932Y-105406135D01*
X178026932Y-105406133D01*
X178026934Y-105406131D01*
X178054500Y-105303253D01*
X178054500Y-105196747D01*
X178026934Y-105093869D01*
X178026932Y-105093866D01*
X178026932Y-105093864D01*
X177973683Y-105001635D01*
X177973681Y-105001633D01*
X177973680Y-105001631D01*
X177898369Y-104926320D01*
X177898366Y-104926318D01*
X177898364Y-104926316D01*
X177806134Y-104873067D01*
X177806136Y-104873067D01*
X177741204Y-104855669D01*
X177703253Y-104845500D01*
X177596747Y-104845500D01*
X177546842Y-104858871D01*
X177485741Y-104855669D01*
X177438191Y-104817164D01*
X177430323Y-104799484D01*
X177429416Y-104799861D01*
X177426932Y-104793865D01*
X177373683Y-104701635D01*
X177373681Y-104701633D01*
X177373680Y-104701631D01*
X177298369Y-104626320D01*
X177298366Y-104626318D01*
X177298364Y-104626316D01*
X177206134Y-104573067D01*
X177206136Y-104573067D01*
X177142943Y-104556135D01*
X177103253Y-104545500D01*
X176996747Y-104545500D01*
X176957057Y-104556135D01*
X176893864Y-104573067D01*
X176801635Y-104626316D01*
X176726316Y-104701635D01*
X176673067Y-104793864D01*
X176669915Y-104805629D01*
X176645500Y-104896747D01*
X169446503Y-104896747D01*
X169409035Y-104831851D01*
X169409033Y-104831849D01*
X169409032Y-104831847D01*
X169333721Y-104756536D01*
X169333718Y-104756534D01*
X169333716Y-104756532D01*
X169241486Y-104703283D01*
X169241488Y-104703283D01*
X169201569Y-104692587D01*
X169138605Y-104675716D01*
X169032099Y-104675716D01*
X168969134Y-104692587D01*
X168929216Y-104703283D01*
X168836987Y-104756532D01*
X168761668Y-104831851D01*
X168708419Y-104924080D01*
X168698999Y-104959236D01*
X168680852Y-105026963D01*
X160799199Y-105026963D01*
X160776934Y-104943869D01*
X160776932Y-104943866D01*
X160776932Y-104943864D01*
X160723683Y-104851635D01*
X160723681Y-104851633D01*
X160723680Y-104851631D01*
X160648369Y-104776320D01*
X160648366Y-104776318D01*
X160648364Y-104776316D01*
X160585184Y-104739839D01*
X160544243Y-104694370D01*
X160537847Y-104633519D01*
X160548947Y-104604604D01*
X160576934Y-104556131D01*
X160604500Y-104453253D01*
X160604500Y-104346747D01*
X160576934Y-104243869D01*
X160576932Y-104243866D01*
X160576932Y-104243864D01*
X160523683Y-104151635D01*
X160523681Y-104151633D01*
X160523680Y-104151631D01*
X160448369Y-104076320D01*
X160448366Y-104076318D01*
X160448364Y-104076316D01*
X160356134Y-104023067D01*
X160350139Y-104020584D01*
X160350879Y-104018796D01*
X160307070Y-103990342D01*
X160285146Y-103933219D01*
X160300012Y-103875650D01*
X160306001Y-103866047D01*
X160323680Y-103848369D01*
X160353484Y-103796747D01*
X168945500Y-103796747D01*
X168945500Y-103903253D01*
X168965242Y-103976932D01*
X168973067Y-104006135D01*
X169026316Y-104098364D01*
X169026318Y-104098366D01*
X169026320Y-104098369D01*
X169101631Y-104173680D01*
X169101633Y-104173681D01*
X169101635Y-104173683D01*
X169193865Y-104226932D01*
X169193863Y-104226932D01*
X169193867Y-104226933D01*
X169193869Y-104226934D01*
X169296747Y-104254500D01*
X169296749Y-104254500D01*
X169403251Y-104254500D01*
X169403253Y-104254500D01*
X169506131Y-104226934D01*
X169506133Y-104226932D01*
X169506135Y-104226932D01*
X169598364Y-104173683D01*
X169598364Y-104173682D01*
X169598369Y-104173680D01*
X169673680Y-104098369D01*
X169673683Y-104098364D01*
X169726932Y-104006135D01*
X169726932Y-104006133D01*
X169726934Y-104006131D01*
X169754500Y-103903253D01*
X169754500Y-103796747D01*
X169732832Y-103715880D01*
X169732832Y-103715878D01*
X169727705Y-103696747D01*
X171316497Y-103696747D01*
X171316497Y-103803253D01*
X171328586Y-103848369D01*
X171344064Y-103906135D01*
X171397313Y-103998364D01*
X171397315Y-103998366D01*
X171397317Y-103998369D01*
X171472628Y-104073680D01*
X171472630Y-104073681D01*
X171472632Y-104073683D01*
X171564862Y-104126932D01*
X171564860Y-104126932D01*
X171564864Y-104126933D01*
X171564866Y-104126934D01*
X171667744Y-104154500D01*
X171667746Y-104154500D01*
X171682630Y-104154500D01*
X171740821Y-104173407D01*
X171776785Y-104222907D01*
X171776785Y-104284093D01*
X171774097Y-104291379D01*
X171773067Y-104293864D01*
X171771860Y-104298369D01*
X171745500Y-104396747D01*
X171745500Y-104503253D01*
X171759670Y-104556135D01*
X171773067Y-104606135D01*
X171826316Y-104698364D01*
X171826318Y-104698366D01*
X171826320Y-104698369D01*
X171901631Y-104773680D01*
X171901633Y-104773681D01*
X171901635Y-104773683D01*
X171993865Y-104826932D01*
X171993863Y-104826932D01*
X171993867Y-104826933D01*
X171993869Y-104826934D01*
X172096747Y-104854500D01*
X172096749Y-104854500D01*
X172203251Y-104854500D01*
X172203253Y-104854500D01*
X172306131Y-104826934D01*
X172306133Y-104826932D01*
X172306135Y-104826932D01*
X172344951Y-104804522D01*
X172398364Y-104773683D01*
X172398364Y-104773682D01*
X172398369Y-104773680D01*
X172473680Y-104698369D01*
X172504300Y-104645334D01*
X172526932Y-104606135D01*
X172526932Y-104606133D01*
X172526934Y-104606131D01*
X172554500Y-104503253D01*
X172554500Y-104396747D01*
X172526934Y-104293869D01*
X172526932Y-104293866D01*
X172526932Y-104293864D01*
X172473683Y-104201635D01*
X172473681Y-104201633D01*
X172473680Y-104201631D01*
X172398369Y-104126320D01*
X172398366Y-104126318D01*
X172398364Y-104126316D01*
X172306134Y-104073067D01*
X172306136Y-104073067D01*
X172266217Y-104062371D01*
X172203253Y-104045500D01*
X172188367Y-104045500D01*
X172130176Y-104026593D01*
X172094212Y-103977093D01*
X172094212Y-103915907D01*
X172096900Y-103908621D01*
X172097929Y-103906135D01*
X172097929Y-103906133D01*
X172097931Y-103906131D01*
X172125497Y-103803253D01*
X172125497Y-103696747D01*
X172097931Y-103593869D01*
X172095558Y-103589760D01*
X172095558Y-103589758D01*
X172070726Y-103546747D01*
X174895500Y-103546747D01*
X174895500Y-103653253D01*
X174912280Y-103715878D01*
X174923067Y-103756135D01*
X174976316Y-103848364D01*
X174976318Y-103848366D01*
X174976320Y-103848369D01*
X175051631Y-103923680D01*
X175051633Y-103923681D01*
X175051635Y-103923683D01*
X175143865Y-103976932D01*
X175143863Y-103976932D01*
X175143867Y-103976933D01*
X175143869Y-103976934D01*
X175246747Y-104004500D01*
X175246749Y-104004500D01*
X175353251Y-104004500D01*
X175353253Y-104004500D01*
X175456131Y-103976934D01*
X175456133Y-103976932D01*
X175456135Y-103976932D01*
X175548364Y-103923683D01*
X175548364Y-103923682D01*
X175548369Y-103923680D01*
X175623680Y-103848369D01*
X175650662Y-103801635D01*
X175676932Y-103756135D01*
X175676932Y-103756133D01*
X175676934Y-103756131D01*
X175704500Y-103653253D01*
X175704500Y-103546747D01*
X175676934Y-103443869D01*
X175676932Y-103443866D01*
X175676932Y-103443864D01*
X175623683Y-103351635D01*
X175623681Y-103351633D01*
X175623680Y-103351631D01*
X175548369Y-103276320D01*
X175548366Y-103276318D01*
X175548364Y-103276316D01*
X175456134Y-103223067D01*
X175456136Y-103223067D01*
X175416217Y-103212371D01*
X175353253Y-103195500D01*
X175246747Y-103195500D01*
X175183782Y-103212371D01*
X175143864Y-103223067D01*
X175051635Y-103276316D01*
X174976316Y-103351635D01*
X174923067Y-103443864D01*
X174923066Y-103443869D01*
X174895500Y-103546747D01*
X172070726Y-103546747D01*
X172044680Y-103501635D01*
X172044678Y-103501633D01*
X172044677Y-103501631D01*
X171969366Y-103426320D01*
X171969363Y-103426318D01*
X171969361Y-103426316D01*
X171877131Y-103373067D01*
X171877133Y-103373067D01*
X171837214Y-103362371D01*
X171774250Y-103345500D01*
X171667744Y-103345500D01*
X171604779Y-103362371D01*
X171564861Y-103373067D01*
X171472632Y-103426316D01*
X171397313Y-103501635D01*
X171344064Y-103593864D01*
X171344063Y-103593869D01*
X171316497Y-103696747D01*
X169727705Y-103696747D01*
X169726934Y-103693869D01*
X169726932Y-103693865D01*
X169673683Y-103601635D01*
X169673681Y-103601633D01*
X169673680Y-103601631D01*
X169598369Y-103526320D01*
X169598366Y-103526318D01*
X169598364Y-103526316D01*
X169506134Y-103473067D01*
X169506136Y-103473067D01*
X169466217Y-103462371D01*
X169403253Y-103445500D01*
X169296747Y-103445500D01*
X169233782Y-103462371D01*
X169193864Y-103473067D01*
X169101635Y-103526316D01*
X169026316Y-103601635D01*
X168973067Y-103693864D01*
X168967169Y-103715878D01*
X168945500Y-103796747D01*
X160353484Y-103796747D01*
X160376934Y-103756131D01*
X160404500Y-103653253D01*
X160404500Y-103546747D01*
X160376934Y-103443869D01*
X160376932Y-103443866D01*
X160376932Y-103443864D01*
X160323683Y-103351635D01*
X160323681Y-103351633D01*
X160323680Y-103351631D01*
X160248369Y-103276320D01*
X160248366Y-103276318D01*
X160248364Y-103276316D01*
X160156134Y-103223067D01*
X160156136Y-103223067D01*
X160116217Y-103212371D01*
X160053253Y-103195500D01*
X159946747Y-103195500D01*
X159883782Y-103212371D01*
X159843864Y-103223067D01*
X159751635Y-103276316D01*
X159676316Y-103351635D01*
X159623067Y-103443864D01*
X159623066Y-103443869D01*
X159595500Y-103546747D01*
X158054500Y-103546747D01*
X158026934Y-103443869D01*
X158026932Y-103443866D01*
X158026932Y-103443864D01*
X157973683Y-103351635D01*
X157973681Y-103351633D01*
X157973680Y-103351631D01*
X157898369Y-103276320D01*
X157898366Y-103276318D01*
X157896371Y-103275166D01*
X157895267Y-103273940D01*
X157893220Y-103272369D01*
X157893511Y-103271989D01*
X157855434Y-103229693D01*
X157849043Y-103168842D01*
X157879640Y-103115857D01*
X157896374Y-103103699D01*
X157948369Y-103073680D01*
X158023680Y-102998369D01*
X158043006Y-102964896D01*
X158076932Y-102906135D01*
X158076932Y-102906133D01*
X158076934Y-102906131D01*
X158104500Y-102803253D01*
X158104500Y-102696747D01*
X158076934Y-102593869D01*
X158076932Y-102593866D01*
X158076932Y-102593864D01*
X158023683Y-102501635D01*
X158023681Y-102501633D01*
X158023680Y-102501631D01*
X157948369Y-102426320D01*
X157948366Y-102426318D01*
X157948364Y-102426316D01*
X157856134Y-102373067D01*
X157856136Y-102373067D01*
X157816217Y-102362371D01*
X157753253Y-102345500D01*
X157646747Y-102345500D01*
X157583782Y-102362371D01*
X157543864Y-102373067D01*
X157451635Y-102426316D01*
X157376316Y-102501635D01*
X157323067Y-102593864D01*
X157307655Y-102651383D01*
X157295500Y-102696747D01*
X157295500Y-102803253D01*
X157309232Y-102854500D01*
X157323067Y-102906135D01*
X157376316Y-102998364D01*
X157376318Y-102998366D01*
X157376320Y-102998369D01*
X157451631Y-103073680D01*
X157451633Y-103073681D01*
X157453624Y-103074831D01*
X157454725Y-103076054D01*
X157456780Y-103077631D01*
X157456487Y-103078011D01*
X157494563Y-103120302D01*
X157500957Y-103181153D01*
X157470362Y-103234140D01*
X157453622Y-103246302D01*
X157401633Y-103276318D01*
X157326316Y-103351635D01*
X157273067Y-103443864D01*
X157273066Y-103443869D01*
X157245500Y-103546747D01*
X138350500Y-103546747D01*
X138350500Y-102260761D01*
X139103000Y-102260761D01*
X139103000Y-102419238D01*
X139119389Y-102501631D01*
X139129282Y-102551369D01*
X139133916Y-102574663D01*
X139133916Y-102574665D01*
X139194559Y-102721071D01*
X139194560Y-102721073D01*
X139194561Y-102721074D01*
X139282604Y-102852839D01*
X139394661Y-102964896D01*
X139526426Y-103052939D01*
X139672836Y-103113584D01*
X139828264Y-103144500D01*
X139828265Y-103144500D01*
X139986735Y-103144500D01*
X139986736Y-103144500D01*
X140142164Y-103113584D01*
X140288574Y-103052939D01*
X140420339Y-102964896D01*
X140532396Y-102852839D01*
X140620439Y-102721074D01*
X140681084Y-102574664D01*
X140712000Y-102419236D01*
X140712000Y-102396747D01*
X151145500Y-102396747D01*
X151145500Y-102503253D01*
X151164635Y-102574665D01*
X151173067Y-102606135D01*
X151226316Y-102698364D01*
X151226318Y-102698366D01*
X151226320Y-102698369D01*
X151301631Y-102773680D01*
X151301633Y-102773681D01*
X151301635Y-102773683D01*
X151393865Y-102826932D01*
X151393863Y-102826932D01*
X151393867Y-102826933D01*
X151393869Y-102826934D01*
X151496747Y-102854500D01*
X151496749Y-102854500D01*
X151603251Y-102854500D01*
X151603253Y-102854500D01*
X151706131Y-102826934D01*
X151706133Y-102826932D01*
X151706135Y-102826932D01*
X151798364Y-102773683D01*
X151798364Y-102773682D01*
X151798369Y-102773680D01*
X151873680Y-102698369D01*
X151874616Y-102696748D01*
X151926932Y-102606135D01*
X151926932Y-102606133D01*
X151926934Y-102606131D01*
X151954500Y-102503253D01*
X151954500Y-102396747D01*
X151926934Y-102293869D01*
X151926932Y-102293866D01*
X151926932Y-102293864D01*
X151873683Y-102201635D01*
X151873681Y-102201633D01*
X151873680Y-102201631D01*
X151798369Y-102126320D01*
X151798366Y-102126318D01*
X151798364Y-102126316D01*
X151706134Y-102073067D01*
X151706136Y-102073067D01*
X151666217Y-102062371D01*
X151603253Y-102045500D01*
X151496747Y-102045500D01*
X151433782Y-102062371D01*
X151393864Y-102073067D01*
X151301635Y-102126316D01*
X151226316Y-102201635D01*
X151173067Y-102293864D01*
X151173066Y-102293869D01*
X151145500Y-102396747D01*
X140712000Y-102396747D01*
X140712000Y-102260764D01*
X140681084Y-102105336D01*
X140650761Y-102032131D01*
X140620440Y-101958928D01*
X140618574Y-101956135D01*
X140532396Y-101827161D01*
X140420339Y-101715104D01*
X140288574Y-101627061D01*
X140288573Y-101627060D01*
X140288571Y-101627059D01*
X140142164Y-101566416D01*
X139986738Y-101535500D01*
X139986736Y-101535500D01*
X139828264Y-101535500D01*
X139828261Y-101535500D01*
X139672836Y-101566416D01*
X139672834Y-101566416D01*
X139526428Y-101627059D01*
X139394661Y-101715104D01*
X139394657Y-101715107D01*
X139282607Y-101827157D01*
X139282604Y-101827161D01*
X139194559Y-101958928D01*
X139133916Y-102105334D01*
X139133916Y-102105336D01*
X139103000Y-102260761D01*
X138350500Y-102260761D01*
X138350500Y-99720761D01*
X139103000Y-99720761D01*
X139103000Y-99879238D01*
X139133916Y-100034663D01*
X139133916Y-100034665D01*
X139194559Y-100181071D01*
X139194560Y-100181073D01*
X139194561Y-100181074D01*
X139282604Y-100312839D01*
X139394661Y-100424896D01*
X139526426Y-100512939D01*
X139672836Y-100573584D01*
X139828264Y-100604500D01*
X139828265Y-100604500D01*
X139986735Y-100604500D01*
X139986736Y-100604500D01*
X140142164Y-100573584D01*
X140288574Y-100512939D01*
X140420339Y-100424896D01*
X140498488Y-100346747D01*
X157295500Y-100346747D01*
X157295500Y-100453253D01*
X157311493Y-100512939D01*
X157323067Y-100556135D01*
X157376316Y-100648364D01*
X157376318Y-100648366D01*
X157376320Y-100648369D01*
X157451631Y-100723680D01*
X157451633Y-100723681D01*
X157521923Y-100764264D01*
X157562863Y-100809734D01*
X157569258Y-100870584D01*
X157538665Y-100923572D01*
X157521923Y-100935736D01*
X157451633Y-100976318D01*
X157376316Y-101051635D01*
X157323067Y-101143864D01*
X157309259Y-101195396D01*
X157295500Y-101246747D01*
X157295500Y-101353253D01*
X157307589Y-101398369D01*
X157323067Y-101456135D01*
X157376316Y-101548364D01*
X157376318Y-101548366D01*
X157376320Y-101548369D01*
X157451631Y-101623680D01*
X157451633Y-101623681D01*
X157451635Y-101623683D01*
X157543865Y-101676932D01*
X157543863Y-101676932D01*
X157543867Y-101676933D01*
X157543869Y-101676934D01*
X157646747Y-101704500D01*
X157646749Y-101704500D01*
X157753251Y-101704500D01*
X157753253Y-101704500D01*
X157856131Y-101676934D01*
X157856133Y-101676932D01*
X157856135Y-101676932D01*
X157948364Y-101623683D01*
X157948364Y-101623682D01*
X157948369Y-101623680D01*
X158023680Y-101548369D01*
X158065280Y-101476316D01*
X158076932Y-101456135D01*
X158076932Y-101456133D01*
X158076934Y-101456131D01*
X158104500Y-101353253D01*
X158104500Y-101246747D01*
X158076934Y-101143869D01*
X158074561Y-101139760D01*
X158074561Y-101139758D01*
X158049729Y-101096747D01*
X159545500Y-101096747D01*
X159545500Y-101203253D01*
X159565953Y-101279584D01*
X159573067Y-101306135D01*
X159626316Y-101398364D01*
X159626318Y-101398366D01*
X159626320Y-101398369D01*
X159701631Y-101473680D01*
X159701633Y-101473681D01*
X159701635Y-101473683D01*
X159793865Y-101526932D01*
X159793863Y-101526932D01*
X159793867Y-101526933D01*
X159793869Y-101526934D01*
X159896747Y-101554500D01*
X159896749Y-101554500D01*
X160003249Y-101554500D01*
X160003253Y-101554500D01*
X160003256Y-101554498D01*
X160005359Y-101554222D01*
X160006860Y-101554500D01*
X160009742Y-101554500D01*
X160009742Y-101555033D01*
X160065522Y-101565364D01*
X160107645Y-101609741D01*
X160115639Y-101670402D01*
X160113921Y-101677995D01*
X160095500Y-101746746D01*
X160095500Y-101746747D01*
X160095500Y-101853253D01*
X160123066Y-101956131D01*
X160123067Y-101956133D01*
X160135146Y-101977054D01*
X160147868Y-102036902D01*
X160122982Y-102092798D01*
X160075034Y-102122181D01*
X160025012Y-102135584D01*
X160025008Y-102135586D01*
X159932778Y-102188835D01*
X159857459Y-102264154D01*
X159804210Y-102356383D01*
X159788798Y-102413902D01*
X159776643Y-102459266D01*
X159776643Y-102565772D01*
X159792160Y-102623683D01*
X159804210Y-102668654D01*
X159857459Y-102760883D01*
X159857461Y-102760885D01*
X159857463Y-102760888D01*
X159932774Y-102836199D01*
X159932776Y-102836200D01*
X159932778Y-102836202D01*
X160025008Y-102889451D01*
X160025006Y-102889451D01*
X160025010Y-102889452D01*
X160025012Y-102889453D01*
X160127890Y-102917019D01*
X160127892Y-102917019D01*
X160234394Y-102917019D01*
X160234396Y-102917019D01*
X160337274Y-102889453D01*
X160337276Y-102889451D01*
X160337278Y-102889451D01*
X160429507Y-102836202D01*
X160429507Y-102836201D01*
X160429512Y-102836199D01*
X160504823Y-102760888D01*
X160540919Y-102698369D01*
X160558075Y-102668654D01*
X160558075Y-102668652D01*
X160558077Y-102668650D01*
X160585643Y-102565772D01*
X160585643Y-102459266D01*
X160558077Y-102356388D01*
X160545996Y-102335464D01*
X160541360Y-102313655D01*
X160532982Y-102292992D01*
X160535128Y-102284338D01*
X160533274Y-102275617D01*
X160542343Y-102255246D01*
X160544451Y-102246747D01*
X162095500Y-102246747D01*
X162095500Y-102353253D01*
X162113180Y-102419235D01*
X162123067Y-102456135D01*
X162176316Y-102548364D01*
X162176318Y-102548366D01*
X162176320Y-102548369D01*
X162251631Y-102623680D01*
X162251633Y-102623681D01*
X162251635Y-102623683D01*
X162343865Y-102676932D01*
X162343863Y-102676932D01*
X162343867Y-102676933D01*
X162343869Y-102676934D01*
X162446747Y-102704500D01*
X162446749Y-102704500D01*
X162553251Y-102704500D01*
X162553253Y-102704500D01*
X162656131Y-102676934D01*
X162656133Y-102676932D01*
X162656135Y-102676932D01*
X162748364Y-102623683D01*
X162748364Y-102623682D01*
X162748369Y-102623680D01*
X162823680Y-102548369D01*
X162850662Y-102501635D01*
X162876932Y-102456135D01*
X162876932Y-102456133D01*
X162876934Y-102456131D01*
X162904500Y-102353253D01*
X162904500Y-102249747D01*
X175702500Y-102249747D01*
X175702500Y-102356253D01*
X175713351Y-102396748D01*
X175730067Y-102459135D01*
X175783316Y-102551364D01*
X175783318Y-102551366D01*
X175783320Y-102551369D01*
X175858631Y-102626680D01*
X175858633Y-102626681D01*
X175858635Y-102626683D01*
X175950865Y-102679932D01*
X175950863Y-102679932D01*
X175950867Y-102679933D01*
X175950869Y-102679934D01*
X176053747Y-102707500D01*
X176053749Y-102707500D01*
X176160251Y-102707500D01*
X176160253Y-102707500D01*
X176263131Y-102679934D01*
X176263133Y-102679932D01*
X176263135Y-102679932D01*
X176355364Y-102626683D01*
X176355364Y-102626682D01*
X176355369Y-102626680D01*
X176430680Y-102551369D01*
X176459394Y-102501635D01*
X176483932Y-102459135D01*
X176483932Y-102459133D01*
X176483934Y-102459131D01*
X176511500Y-102356253D01*
X176511500Y-102249747D01*
X176483934Y-102146869D01*
X176483932Y-102146866D01*
X176483932Y-102146864D01*
X176430683Y-102054635D01*
X176430681Y-102054633D01*
X176430680Y-102054631D01*
X176355369Y-101979320D01*
X176355366Y-101979318D01*
X176355364Y-101979316D01*
X176263134Y-101926067D01*
X176263136Y-101926067D01*
X176223217Y-101915371D01*
X176160253Y-101898500D01*
X176053747Y-101898500D01*
X175990782Y-101915371D01*
X175950864Y-101926067D01*
X175858635Y-101979316D01*
X175783316Y-102054635D01*
X175730067Y-102146864D01*
X175730066Y-102146869D01*
X175702500Y-102249747D01*
X162904500Y-102249747D01*
X162904500Y-102246747D01*
X162876934Y-102143869D01*
X162876932Y-102143866D01*
X162876932Y-102143864D01*
X162823683Y-102051635D01*
X162823681Y-102051633D01*
X162823680Y-102051631D01*
X162748369Y-101976320D01*
X162748366Y-101976318D01*
X162748364Y-101976316D01*
X162656134Y-101923067D01*
X162656136Y-101923067D01*
X162616217Y-101912371D01*
X162553253Y-101895500D01*
X162446747Y-101895500D01*
X162383782Y-101912371D01*
X162343864Y-101923067D01*
X162251635Y-101976316D01*
X162176316Y-102051635D01*
X162123067Y-102143864D01*
X162123066Y-102143869D01*
X162095500Y-102246747D01*
X160544451Y-102246747D01*
X160547710Y-102233606D01*
X160554077Y-102228887D01*
X160558159Y-102219721D01*
X160594532Y-102194218D01*
X160600193Y-102191922D01*
X160656131Y-102176934D01*
X160708205Y-102146869D01*
X160748364Y-102123683D01*
X160748364Y-102123682D01*
X160748369Y-102123680D01*
X160823680Y-102048369D01*
X160823683Y-102048364D01*
X160876932Y-101956135D01*
X160876932Y-101956133D01*
X160876934Y-101956131D01*
X160904500Y-101853253D01*
X160904500Y-101746747D01*
X160876934Y-101643869D01*
X160876932Y-101643866D01*
X160876932Y-101643864D01*
X160823683Y-101551635D01*
X160823681Y-101551633D01*
X160823680Y-101551631D01*
X160748369Y-101476320D01*
X160748366Y-101476318D01*
X160748364Y-101476316D01*
X160656134Y-101423067D01*
X160656136Y-101423067D01*
X160616217Y-101412371D01*
X160553253Y-101395500D01*
X160446747Y-101395500D01*
X160446746Y-101395500D01*
X160444627Y-101395779D01*
X160443122Y-101395500D01*
X160440258Y-101395500D01*
X160440258Y-101394969D01*
X160384466Y-101384629D01*
X160342349Y-101340246D01*
X160334363Y-101279584D01*
X160336075Y-101272016D01*
X160354500Y-101203253D01*
X160354500Y-101096747D01*
X160326934Y-100993869D01*
X160326932Y-100993866D01*
X160326932Y-100993864D01*
X160273683Y-100901635D01*
X160273681Y-100901633D01*
X160273680Y-100901631D01*
X160198369Y-100826320D01*
X160198366Y-100826318D01*
X160198364Y-100826316D01*
X160106134Y-100773067D01*
X160106136Y-100773067D01*
X160042943Y-100756135D01*
X160003253Y-100745500D01*
X159896747Y-100745500D01*
X159857057Y-100756135D01*
X159793864Y-100773067D01*
X159701635Y-100826316D01*
X159626316Y-100901635D01*
X159573067Y-100993864D01*
X159571310Y-101000423D01*
X159545500Y-101096747D01*
X158049729Y-101096747D01*
X158023683Y-101051635D01*
X158023681Y-101051633D01*
X158023680Y-101051631D01*
X157948369Y-100976320D01*
X157948366Y-100976318D01*
X157948364Y-100976316D01*
X157878077Y-100935736D01*
X157837136Y-100890267D01*
X157830740Y-100829417D01*
X157861333Y-100776429D01*
X157878077Y-100764264D01*
X157948364Y-100723683D01*
X157948364Y-100723682D01*
X157948369Y-100723680D01*
X158023680Y-100648369D01*
X158024616Y-100646747D01*
X160995500Y-100646747D01*
X160995500Y-100753253D01*
X161008463Y-100801631D01*
X161023067Y-100856135D01*
X161076316Y-100948364D01*
X161076318Y-100948366D01*
X161076320Y-100948369D01*
X161151631Y-101023680D01*
X161214816Y-101060160D01*
X161255756Y-101105629D01*
X161262152Y-101166479D01*
X161251052Y-101195396D01*
X161223066Y-101243867D01*
X161213496Y-101279584D01*
X161195500Y-101346747D01*
X161195500Y-101453253D01*
X161201680Y-101476316D01*
X161223067Y-101556135D01*
X161276316Y-101648364D01*
X161276318Y-101648366D01*
X161276320Y-101648369D01*
X161351631Y-101723680D01*
X161351633Y-101723681D01*
X161351635Y-101723683D01*
X161443865Y-101776932D01*
X161443863Y-101776932D01*
X161443867Y-101776933D01*
X161443869Y-101776934D01*
X161546747Y-101804500D01*
X161546749Y-101804500D01*
X161653251Y-101804500D01*
X161653253Y-101804500D01*
X161756131Y-101776934D01*
X161756133Y-101776932D01*
X161756135Y-101776932D01*
X161848364Y-101723683D01*
X161848364Y-101723682D01*
X161848369Y-101723680D01*
X161923680Y-101648369D01*
X161935982Y-101627061D01*
X161976932Y-101556135D01*
X161976932Y-101556133D01*
X161976934Y-101556131D01*
X162004500Y-101453253D01*
X162004500Y-101346747D01*
X162004340Y-101346149D01*
X164982165Y-101346149D01*
X164982165Y-101452655D01*
X165002068Y-101526934D01*
X165009732Y-101555537D01*
X165062981Y-101647766D01*
X165062983Y-101647768D01*
X165062985Y-101647771D01*
X165138296Y-101723082D01*
X165138298Y-101723083D01*
X165138300Y-101723085D01*
X165230530Y-101776334D01*
X165230528Y-101776334D01*
X165230532Y-101776335D01*
X165230534Y-101776336D01*
X165333412Y-101803902D01*
X165333414Y-101803902D01*
X165439916Y-101803902D01*
X165439918Y-101803902D01*
X165542796Y-101776336D01*
X165542798Y-101776334D01*
X165542800Y-101776334D01*
X165635029Y-101723085D01*
X165635029Y-101723084D01*
X165635034Y-101723082D01*
X165710345Y-101647771D01*
X165757923Y-101565364D01*
X165763597Y-101555537D01*
X165763597Y-101555535D01*
X165763599Y-101555533D01*
X165791165Y-101452655D01*
X165791165Y-101346149D01*
X165763599Y-101243271D01*
X165763597Y-101243268D01*
X165763597Y-101243266D01*
X165710348Y-101151037D01*
X165710346Y-101151035D01*
X165710345Y-101151033D01*
X165635034Y-101075722D01*
X165635031Y-101075720D01*
X165635030Y-101075719D01*
X165542799Y-101022469D01*
X165542801Y-101022469D01*
X165502882Y-101011773D01*
X165446804Y-100996747D01*
X167745500Y-100996747D01*
X167745500Y-101103253D01*
X167756383Y-101143869D01*
X167773067Y-101206135D01*
X167826316Y-101298364D01*
X167826318Y-101298366D01*
X167826320Y-101298369D01*
X167901631Y-101373680D01*
X167901633Y-101373681D01*
X167901635Y-101373683D01*
X167993865Y-101426932D01*
X167993863Y-101426932D01*
X167993867Y-101426933D01*
X167993869Y-101426934D01*
X168096747Y-101454500D01*
X168096749Y-101454500D01*
X168203251Y-101454500D01*
X168203253Y-101454500D01*
X168306131Y-101426934D01*
X168306133Y-101426932D01*
X168306135Y-101426932D01*
X168398364Y-101373683D01*
X168398364Y-101373682D01*
X168398369Y-101373680D01*
X168473680Y-101298369D01*
X168526934Y-101206131D01*
X168554500Y-101103253D01*
X168554500Y-100996747D01*
X168526934Y-100893869D01*
X168526932Y-100893866D01*
X168526932Y-100893864D01*
X168473683Y-100801635D01*
X168473681Y-100801633D01*
X168473680Y-100801631D01*
X168398369Y-100726320D01*
X168398366Y-100726318D01*
X168398364Y-100726316D01*
X168306134Y-100673067D01*
X168306136Y-100673067D01*
X168266217Y-100662371D01*
X168203253Y-100645500D01*
X168096747Y-100645500D01*
X168033782Y-100662371D01*
X167993864Y-100673067D01*
X167901635Y-100726316D01*
X167826316Y-100801635D01*
X167773067Y-100893864D01*
X167773066Y-100893869D01*
X167745500Y-100996747D01*
X165446804Y-100996747D01*
X165439918Y-100994902D01*
X165333412Y-100994902D01*
X165270447Y-101011773D01*
X165230529Y-101022469D01*
X165138300Y-101075718D01*
X165062981Y-101151037D01*
X165009732Y-101243266D01*
X165008799Y-101246748D01*
X164982165Y-101346149D01*
X162004340Y-101346149D01*
X161976934Y-101243869D01*
X161976932Y-101243866D01*
X161976932Y-101243864D01*
X161923683Y-101151635D01*
X161923681Y-101151633D01*
X161923680Y-101151631D01*
X161848369Y-101076320D01*
X161848366Y-101076318D01*
X161848364Y-101076316D01*
X161785184Y-101039839D01*
X161744243Y-100994370D01*
X161737847Y-100933519D01*
X161748947Y-100904604D01*
X161776934Y-100856131D01*
X161804500Y-100753253D01*
X161804500Y-100646747D01*
X161782832Y-100565880D01*
X161782832Y-100565878D01*
X161777705Y-100546747D01*
X171095500Y-100546747D01*
X171095500Y-100653253D01*
X171114371Y-100723680D01*
X171123067Y-100756135D01*
X171176316Y-100848364D01*
X171176318Y-100848366D01*
X171176320Y-100848369D01*
X171251631Y-100923680D01*
X171251633Y-100923681D01*
X171251635Y-100923683D01*
X171343865Y-100976932D01*
X171343863Y-100976932D01*
X171343867Y-100976933D01*
X171343869Y-100976934D01*
X171446747Y-101004500D01*
X171446749Y-101004500D01*
X171553251Y-101004500D01*
X171553253Y-101004500D01*
X171656131Y-100976934D01*
X171656133Y-100976932D01*
X171656135Y-100976932D01*
X171748364Y-100923683D01*
X171748364Y-100923682D01*
X171748369Y-100923680D01*
X171823680Y-100848369D01*
X171836410Y-100826320D01*
X171876932Y-100756135D01*
X171876932Y-100756133D01*
X171876934Y-100756131D01*
X171904500Y-100653253D01*
X171904500Y-100546747D01*
X171876934Y-100443869D01*
X171876932Y-100443866D01*
X171876932Y-100443864D01*
X171823683Y-100351635D01*
X171823681Y-100351633D01*
X171823680Y-100351631D01*
X171748369Y-100276320D01*
X171748366Y-100276318D01*
X171748364Y-100276316D01*
X171670399Y-100231302D01*
X171670396Y-100231302D01*
X171656132Y-100223066D01*
X171621838Y-100213877D01*
X171553253Y-100195500D01*
X171446747Y-100195500D01*
X171383782Y-100212371D01*
X171343864Y-100223067D01*
X171251635Y-100276316D01*
X171176316Y-100351635D01*
X171123067Y-100443864D01*
X171120438Y-100453676D01*
X171095500Y-100546747D01*
X161777705Y-100546747D01*
X161776934Y-100543869D01*
X161776932Y-100543865D01*
X161723683Y-100451635D01*
X161723681Y-100451633D01*
X161723680Y-100451631D01*
X161648369Y-100376320D01*
X161648366Y-100376318D01*
X161648364Y-100376316D01*
X161556134Y-100323067D01*
X161556136Y-100323067D01*
X161516217Y-100312371D01*
X161453253Y-100295500D01*
X161346747Y-100295500D01*
X161283782Y-100312371D01*
X161243864Y-100323067D01*
X161151635Y-100376316D01*
X161076316Y-100451635D01*
X161023067Y-100543864D01*
X161019780Y-100556131D01*
X160995500Y-100646747D01*
X158024616Y-100646747D01*
X158061860Y-100582241D01*
X158071305Y-100565881D01*
X158076934Y-100556131D01*
X158104500Y-100453253D01*
X158104500Y-100346747D01*
X158076934Y-100243869D01*
X158076932Y-100243866D01*
X158076932Y-100243864D01*
X158023925Y-100152054D01*
X177724478Y-100152054D01*
X177724478Y-100258560D01*
X177734376Y-100295500D01*
X177752045Y-100361442D01*
X177805294Y-100453671D01*
X177805296Y-100453673D01*
X177805298Y-100453676D01*
X177880609Y-100528987D01*
X177880611Y-100528988D01*
X177880613Y-100528990D01*
X177972843Y-100582239D01*
X177972841Y-100582239D01*
X177972845Y-100582240D01*
X177972847Y-100582241D01*
X178075725Y-100609807D01*
X178075727Y-100609807D01*
X178182229Y-100609807D01*
X178182231Y-100609807D01*
X178285109Y-100582241D01*
X178285111Y-100582239D01*
X178285113Y-100582239D01*
X178377342Y-100528990D01*
X178377342Y-100528989D01*
X178377347Y-100528987D01*
X178452658Y-100453676D01*
X178505912Y-100361438D01*
X178533478Y-100258560D01*
X178533478Y-100152054D01*
X178505912Y-100049176D01*
X178505910Y-100049173D01*
X178505910Y-100049171D01*
X178452661Y-99956942D01*
X178452659Y-99956940D01*
X178452658Y-99956938D01*
X178377347Y-99881627D01*
X178377344Y-99881625D01*
X178377342Y-99881623D01*
X178285112Y-99828374D01*
X178285114Y-99828374D01*
X178245195Y-99817678D01*
X178182231Y-99800807D01*
X178075725Y-99800807D01*
X178012760Y-99817678D01*
X177972842Y-99828374D01*
X177880613Y-99881623D01*
X177805294Y-99956942D01*
X177752045Y-100049171D01*
X177752044Y-100049176D01*
X177724478Y-100152054D01*
X158023925Y-100152054D01*
X158023683Y-100151635D01*
X158023681Y-100151633D01*
X158023680Y-100151631D01*
X157948369Y-100076320D01*
X157948366Y-100076318D01*
X157948364Y-100076316D01*
X157856134Y-100023067D01*
X157856136Y-100023067D01*
X157816217Y-100012371D01*
X157753253Y-99995500D01*
X157646747Y-99995500D01*
X157583782Y-100012371D01*
X157543864Y-100023067D01*
X157451635Y-100076316D01*
X157376316Y-100151635D01*
X157323067Y-100243864D01*
X157314372Y-100276316D01*
X157295500Y-100346747D01*
X140498488Y-100346747D01*
X140532396Y-100312839D01*
X140620439Y-100181074D01*
X140681084Y-100034664D01*
X140712000Y-99879236D01*
X140712000Y-99720764D01*
X140681084Y-99565336D01*
X140672104Y-99543658D01*
X140644968Y-99478143D01*
X140631963Y-99446747D01*
X148695500Y-99446747D01*
X148695500Y-99553253D01*
X148702600Y-99579750D01*
X148723067Y-99656135D01*
X148776316Y-99748364D01*
X148776318Y-99748366D01*
X148776320Y-99748369D01*
X148851631Y-99823680D01*
X148851633Y-99823681D01*
X148851635Y-99823683D01*
X148943865Y-99876932D01*
X148943863Y-99876932D01*
X148943867Y-99876933D01*
X148943869Y-99876934D01*
X149046747Y-99904500D01*
X149046749Y-99904500D01*
X149153251Y-99904500D01*
X149153253Y-99904500D01*
X149256131Y-99876934D01*
X149256133Y-99876932D01*
X149256135Y-99876932D01*
X149348364Y-99823683D01*
X149348364Y-99823682D01*
X149348369Y-99823680D01*
X149423680Y-99748369D01*
X149476934Y-99656131D01*
X149504500Y-99553253D01*
X149504500Y-99527952D01*
X151945500Y-99527952D01*
X151945500Y-99634458D01*
X151955555Y-99671983D01*
X151973067Y-99737340D01*
X152026316Y-99829569D01*
X152026318Y-99829571D01*
X152026320Y-99829574D01*
X152101631Y-99904885D01*
X152101633Y-99904886D01*
X152101635Y-99904888D01*
X152193865Y-99958137D01*
X152193863Y-99958137D01*
X152193867Y-99958138D01*
X152193869Y-99958139D01*
X152296747Y-99985705D01*
X152296749Y-99985705D01*
X152403251Y-99985705D01*
X152403253Y-99985705D01*
X152506131Y-99958139D01*
X152506133Y-99958137D01*
X152506135Y-99958137D01*
X152598364Y-99904888D01*
X152598364Y-99904887D01*
X152598369Y-99904885D01*
X152673680Y-99829574D01*
X152674373Y-99828374D01*
X152726932Y-99737340D01*
X152726932Y-99737338D01*
X152726934Y-99737336D01*
X152754500Y-99634458D01*
X152754500Y-99527952D01*
X152726934Y-99425074D01*
X152726932Y-99425071D01*
X152726932Y-99425069D01*
X152673683Y-99332840D01*
X152673681Y-99332838D01*
X152673680Y-99332836D01*
X152598369Y-99257525D01*
X152598366Y-99257523D01*
X152598364Y-99257521D01*
X152543757Y-99225994D01*
X152543756Y-99225994D01*
X152506133Y-99204272D01*
X152506132Y-99204271D01*
X152506131Y-99204271D01*
X152403253Y-99176705D01*
X152296747Y-99176705D01*
X152233782Y-99193576D01*
X152193864Y-99204272D01*
X152101635Y-99257521D01*
X152026316Y-99332840D01*
X151973067Y-99425069D01*
X151973066Y-99425074D01*
X151945500Y-99527952D01*
X149504500Y-99527952D01*
X149504500Y-99446747D01*
X149476934Y-99343869D01*
X149476932Y-99343866D01*
X149476932Y-99343864D01*
X149423683Y-99251635D01*
X149423681Y-99251633D01*
X149423680Y-99251631D01*
X149348369Y-99176320D01*
X149348366Y-99176318D01*
X149348364Y-99176316D01*
X149297149Y-99146747D01*
X158995500Y-99146747D01*
X158995500Y-99253253D01*
X159015830Y-99329124D01*
X159023067Y-99356135D01*
X159076316Y-99448364D01*
X159076318Y-99448366D01*
X159076320Y-99448369D01*
X159151631Y-99523680D01*
X159151633Y-99523681D01*
X159151635Y-99523683D01*
X159243865Y-99576932D01*
X159243863Y-99576932D01*
X159243867Y-99576933D01*
X159243869Y-99576934D01*
X159346747Y-99604500D01*
X159346749Y-99604500D01*
X159453251Y-99604500D01*
X159453253Y-99604500D01*
X159556131Y-99576934D01*
X159556133Y-99576932D01*
X159556135Y-99576932D01*
X159648364Y-99523683D01*
X159648364Y-99523682D01*
X159648369Y-99523680D01*
X159723680Y-99448369D01*
X159724616Y-99446748D01*
X159776932Y-99356135D01*
X159776932Y-99356133D01*
X159776934Y-99356131D01*
X159804500Y-99253253D01*
X159804500Y-99146747D01*
X159776934Y-99043869D01*
X159776932Y-99043866D01*
X159776932Y-99043864D01*
X159723683Y-98951635D01*
X159723681Y-98951633D01*
X159723680Y-98951631D01*
X159648369Y-98876320D01*
X159648366Y-98876318D01*
X159648364Y-98876316D01*
X159556134Y-98823067D01*
X159556136Y-98823067D01*
X159516217Y-98812371D01*
X159453253Y-98795500D01*
X159346747Y-98795500D01*
X159283782Y-98812371D01*
X159243864Y-98823067D01*
X159151635Y-98876316D01*
X159076316Y-98951635D01*
X159023067Y-99043864D01*
X159021860Y-99048369D01*
X158995500Y-99146747D01*
X149297149Y-99146747D01*
X149256134Y-99123067D01*
X149256136Y-99123067D01*
X149216217Y-99112371D01*
X149153253Y-99095500D01*
X149046747Y-99095500D01*
X148983782Y-99112371D01*
X148943864Y-99123067D01*
X148851635Y-99176316D01*
X148776316Y-99251635D01*
X148723067Y-99343864D01*
X148719780Y-99356131D01*
X148695500Y-99446747D01*
X140631963Y-99446747D01*
X140620439Y-99418926D01*
X140604890Y-99395655D01*
X140532396Y-99287161D01*
X140420339Y-99175104D01*
X140288574Y-99087061D01*
X140288573Y-99087060D01*
X140288571Y-99087059D01*
X140142164Y-99026416D01*
X139986738Y-98995500D01*
X139986736Y-98995500D01*
X139828264Y-98995500D01*
X139828261Y-98995500D01*
X139672836Y-99026416D01*
X139672834Y-99026416D01*
X139526428Y-99087059D01*
X139394661Y-99175104D01*
X139394657Y-99175107D01*
X139282607Y-99287157D01*
X139282604Y-99287161D01*
X139194559Y-99418928D01*
X139133916Y-99565334D01*
X139133916Y-99565336D01*
X139103000Y-99720761D01*
X138350500Y-99720761D01*
X138350500Y-98096747D01*
X149645500Y-98096747D01*
X149645500Y-98203253D01*
X149659669Y-98256131D01*
X149673067Y-98306135D01*
X149726316Y-98398364D01*
X149726318Y-98398366D01*
X149726320Y-98398369D01*
X149801631Y-98473680D01*
X149801633Y-98473681D01*
X149801635Y-98473683D01*
X149893865Y-98526932D01*
X149893863Y-98526932D01*
X149893867Y-98526933D01*
X149893869Y-98526934D01*
X149996747Y-98554500D01*
X149996749Y-98554500D01*
X150103251Y-98554500D01*
X150103253Y-98554500D01*
X150206131Y-98526934D01*
X150206133Y-98526932D01*
X150206135Y-98526932D01*
X150298364Y-98473683D01*
X150298364Y-98473682D01*
X150298369Y-98473680D01*
X150373680Y-98398369D01*
X150374616Y-98396748D01*
X150426932Y-98306135D01*
X150426932Y-98306133D01*
X150426934Y-98306131D01*
X150454500Y-98203253D01*
X150454500Y-98196747D01*
X162595500Y-98196747D01*
X162595500Y-98303253D01*
X162619810Y-98393980D01*
X162623067Y-98406135D01*
X162676316Y-98498364D01*
X162676318Y-98498366D01*
X162676320Y-98498369D01*
X162751631Y-98573680D01*
X162751633Y-98573681D01*
X162751635Y-98573683D01*
X162843865Y-98626932D01*
X162843863Y-98626932D01*
X162843867Y-98626933D01*
X162843869Y-98626934D01*
X162946747Y-98654500D01*
X162946749Y-98654500D01*
X162996500Y-98654500D01*
X163054691Y-98673407D01*
X163090655Y-98722907D01*
X163095500Y-98753500D01*
X163095500Y-98853253D01*
X163115285Y-98927093D01*
X163123067Y-98956135D01*
X163176316Y-99048364D01*
X163176318Y-99048366D01*
X163176320Y-99048369D01*
X163251631Y-99123680D01*
X163251633Y-99123681D01*
X163251635Y-99123683D01*
X163343865Y-99176932D01*
X163343863Y-99176932D01*
X163343867Y-99176933D01*
X163343869Y-99176934D01*
X163446747Y-99204500D01*
X163446749Y-99204500D01*
X163504596Y-99204500D01*
X163562787Y-99223407D01*
X163598751Y-99272907D01*
X163600222Y-99329124D01*
X163595500Y-99346744D01*
X163595500Y-99346747D01*
X163595500Y-99453253D01*
X163615516Y-99527953D01*
X163623067Y-99556135D01*
X163676316Y-99648364D01*
X163676318Y-99648366D01*
X163676320Y-99648369D01*
X163751631Y-99723680D01*
X163751633Y-99723681D01*
X163751635Y-99723683D01*
X163843865Y-99776932D01*
X163843863Y-99776932D01*
X163843867Y-99776933D01*
X163843869Y-99776934D01*
X163946747Y-99804500D01*
X163946749Y-99804500D01*
X164053251Y-99804500D01*
X164053253Y-99804500D01*
X164156131Y-99776934D01*
X164156133Y-99776932D01*
X164156135Y-99776932D01*
X164248364Y-99723683D01*
X164248364Y-99723682D01*
X164248369Y-99723680D01*
X164323680Y-99648369D01*
X164331713Y-99634456D01*
X164376932Y-99556135D01*
X164376932Y-99556133D01*
X164376934Y-99556131D01*
X164404500Y-99453253D01*
X164404500Y-99346747D01*
X164376934Y-99243869D01*
X164376932Y-99243866D01*
X164376932Y-99243864D01*
X164323683Y-99151635D01*
X164323681Y-99151633D01*
X164323680Y-99151631D01*
X164248369Y-99076320D01*
X164248366Y-99076318D01*
X164248364Y-99076316D01*
X164156134Y-99023067D01*
X164156136Y-99023067D01*
X164116217Y-99012371D01*
X164053253Y-98995500D01*
X163995404Y-98995500D01*
X163937213Y-98976593D01*
X163901249Y-98927093D01*
X163896537Y-98891377D01*
X163897076Y-98880956D01*
X163904500Y-98853253D01*
X163904500Y-98746747D01*
X167295500Y-98746747D01*
X167295500Y-98853253D01*
X167315285Y-98927093D01*
X167323067Y-98956135D01*
X167376316Y-99048364D01*
X167376318Y-99048366D01*
X167376320Y-99048369D01*
X167451631Y-99123680D01*
X167451633Y-99123681D01*
X167451635Y-99123683D01*
X167543865Y-99176932D01*
X167543863Y-99176932D01*
X167543867Y-99176933D01*
X167543869Y-99176934D01*
X167646747Y-99204500D01*
X167646749Y-99204500D01*
X167704596Y-99204500D01*
X167762787Y-99223407D01*
X167798751Y-99272907D01*
X167800222Y-99329124D01*
X167795500Y-99346744D01*
X167795500Y-99346747D01*
X167795500Y-99453253D01*
X167815516Y-99527953D01*
X167823067Y-99556135D01*
X167876316Y-99648364D01*
X167876318Y-99648366D01*
X167876320Y-99648369D01*
X167951631Y-99723680D01*
X167951633Y-99723681D01*
X167951635Y-99723683D01*
X168043865Y-99776932D01*
X168043863Y-99776932D01*
X168043867Y-99776933D01*
X168043869Y-99776934D01*
X168146747Y-99804500D01*
X168146749Y-99804500D01*
X168253251Y-99804500D01*
X168253253Y-99804500D01*
X168356131Y-99776934D01*
X168356133Y-99776932D01*
X168356135Y-99776932D01*
X168448364Y-99723683D01*
X168448364Y-99723682D01*
X168448369Y-99723680D01*
X168523680Y-99648369D01*
X168531713Y-99634456D01*
X168576932Y-99556135D01*
X168576932Y-99556133D01*
X168576934Y-99556131D01*
X168604500Y-99453253D01*
X168604500Y-99370366D01*
X184606135Y-99370366D01*
X184606135Y-99476872D01*
X184618677Y-99523680D01*
X184633702Y-99579754D01*
X184686951Y-99671983D01*
X184686953Y-99671985D01*
X184686955Y-99671988D01*
X184762266Y-99747299D01*
X184762268Y-99747300D01*
X184762270Y-99747302D01*
X184854500Y-99800551D01*
X184854498Y-99800551D01*
X184854502Y-99800552D01*
X184854504Y-99800553D01*
X184957382Y-99828119D01*
X184957384Y-99828119D01*
X185063886Y-99828119D01*
X185063888Y-99828119D01*
X185166766Y-99800553D01*
X185166768Y-99800551D01*
X185166770Y-99800551D01*
X185258999Y-99747302D01*
X185258999Y-99747301D01*
X185259004Y-99747299D01*
X185334315Y-99671988D01*
X185347952Y-99648369D01*
X185387567Y-99579754D01*
X185387567Y-99579752D01*
X185387569Y-99579750D01*
X185415135Y-99476872D01*
X185415135Y-99395655D01*
X186622139Y-99395655D01*
X186622139Y-99502161D01*
X186635829Y-99553253D01*
X186649706Y-99605043D01*
X186702955Y-99697272D01*
X186702957Y-99697274D01*
X186702959Y-99697277D01*
X186778270Y-99772588D01*
X186778272Y-99772589D01*
X186778274Y-99772591D01*
X186870504Y-99825840D01*
X186870502Y-99825840D01*
X186870506Y-99825841D01*
X186870508Y-99825842D01*
X186973386Y-99853408D01*
X186973388Y-99853408D01*
X187079890Y-99853408D01*
X187079892Y-99853408D01*
X187182770Y-99825842D01*
X187182772Y-99825840D01*
X187182774Y-99825840D01*
X187275003Y-99772591D01*
X187275003Y-99772590D01*
X187275008Y-99772588D01*
X187350319Y-99697277D01*
X187403573Y-99605039D01*
X187431139Y-99502161D01*
X187431139Y-99395655D01*
X187403573Y-99292777D01*
X187403571Y-99292774D01*
X187403571Y-99292772D01*
X187350322Y-99200543D01*
X187350320Y-99200541D01*
X187350319Y-99200539D01*
X187275008Y-99125228D01*
X187275005Y-99125226D01*
X187275003Y-99125224D01*
X187182773Y-99071975D01*
X187182775Y-99071975D01*
X187142856Y-99061279D01*
X187079892Y-99044408D01*
X186973386Y-99044408D01*
X186910421Y-99061279D01*
X186870503Y-99071975D01*
X186778274Y-99125224D01*
X186702955Y-99200543D01*
X186649706Y-99292772D01*
X186649705Y-99292777D01*
X186622139Y-99395655D01*
X185415135Y-99395655D01*
X185415135Y-99370366D01*
X185387569Y-99267488D01*
X185387567Y-99267485D01*
X185387567Y-99267483D01*
X185334318Y-99175254D01*
X185334316Y-99175252D01*
X185334315Y-99175250D01*
X185259004Y-99099939D01*
X185259001Y-99099937D01*
X185258999Y-99099935D01*
X185166769Y-99046686D01*
X185166771Y-99046686D01*
X185126852Y-99035990D01*
X185063888Y-99019119D01*
X184957382Y-99019119D01*
X184894417Y-99035990D01*
X184854499Y-99046686D01*
X184762270Y-99099935D01*
X184686951Y-99175254D01*
X184633702Y-99267483D01*
X184626926Y-99292772D01*
X184606135Y-99370366D01*
X168604500Y-99370366D01*
X168604500Y-99346747D01*
X168576934Y-99243869D01*
X168576932Y-99243866D01*
X168576932Y-99243864D01*
X168523683Y-99151635D01*
X168523681Y-99151633D01*
X168523680Y-99151631D01*
X168448369Y-99076320D01*
X168448366Y-99076318D01*
X168448364Y-99076316D01*
X168356134Y-99023067D01*
X168356136Y-99023067D01*
X168316217Y-99012371D01*
X168253253Y-98995500D01*
X168195404Y-98995500D01*
X168137213Y-98976593D01*
X168101249Y-98927093D01*
X168099778Y-98870876D01*
X168100281Y-98868996D01*
X168104500Y-98853253D01*
X168104500Y-98746747D01*
X168076934Y-98643869D01*
X168076932Y-98643866D01*
X168076932Y-98643864D01*
X168023683Y-98551635D01*
X168023681Y-98551633D01*
X168023680Y-98551631D01*
X167948369Y-98476320D01*
X167948366Y-98476318D01*
X167948364Y-98476316D01*
X167856134Y-98423067D01*
X167856136Y-98423067D01*
X167792943Y-98406135D01*
X167753253Y-98395500D01*
X167646747Y-98395500D01*
X167607057Y-98406135D01*
X167543864Y-98423067D01*
X167451635Y-98476316D01*
X167376316Y-98551635D01*
X167323067Y-98643864D01*
X167323066Y-98643869D01*
X167295500Y-98746747D01*
X163904500Y-98746747D01*
X163876934Y-98643869D01*
X163874304Y-98639313D01*
X163871284Y-98627927D01*
X163872617Y-98603665D01*
X163870711Y-98579432D01*
X163874267Y-98573628D01*
X163874641Y-98566834D01*
X163889982Y-98547986D01*
X163902683Y-98527264D01*
X163909219Y-98524354D01*
X163913267Y-98519382D01*
X163930891Y-98514707D01*
X163947311Y-98507398D01*
X163946985Y-98506179D01*
X163953251Y-98504500D01*
X163953253Y-98504500D01*
X164056131Y-98476934D01*
X164056133Y-98476932D01*
X164056135Y-98476932D01*
X164148364Y-98423683D01*
X164148364Y-98423682D01*
X164148369Y-98423680D01*
X164223680Y-98348369D01*
X164276934Y-98256131D01*
X164292846Y-98196747D01*
X175195500Y-98196747D01*
X175195500Y-98303253D01*
X175219810Y-98393980D01*
X175223067Y-98406135D01*
X175276316Y-98498364D01*
X175276318Y-98498366D01*
X175276320Y-98498369D01*
X175351631Y-98573680D01*
X175351633Y-98573681D01*
X175351635Y-98573683D01*
X175443865Y-98626932D01*
X175443863Y-98626932D01*
X175443867Y-98626933D01*
X175443869Y-98626934D01*
X175546747Y-98654500D01*
X175546749Y-98654500D01*
X175653251Y-98654500D01*
X175653253Y-98654500D01*
X175756131Y-98626934D01*
X175756133Y-98626932D01*
X175756135Y-98626932D01*
X175848364Y-98573683D01*
X175848364Y-98573682D01*
X175848369Y-98573680D01*
X175923680Y-98498369D01*
X175976934Y-98406131D01*
X175979448Y-98396747D01*
X179545500Y-98396747D01*
X179545500Y-98503253D01*
X179564357Y-98573628D01*
X179573067Y-98606135D01*
X179626316Y-98698364D01*
X179626318Y-98698366D01*
X179626320Y-98698369D01*
X179701631Y-98773680D01*
X179701633Y-98773681D01*
X179701635Y-98773683D01*
X179793865Y-98826932D01*
X179793863Y-98826932D01*
X179793867Y-98826933D01*
X179793869Y-98826934D01*
X179896747Y-98854500D01*
X179896749Y-98854500D01*
X180003251Y-98854500D01*
X180003253Y-98854500D01*
X180106131Y-98826934D01*
X180106133Y-98826932D01*
X180106135Y-98826932D01*
X180198364Y-98773683D01*
X180198364Y-98773682D01*
X180198369Y-98773680D01*
X180273680Y-98698369D01*
X180314350Y-98627927D01*
X180326932Y-98606135D01*
X180326932Y-98606133D01*
X180326934Y-98606131D01*
X180354500Y-98503253D01*
X180354500Y-98396747D01*
X180326934Y-98293869D01*
X180326932Y-98293866D01*
X180326932Y-98293864D01*
X180273683Y-98201635D01*
X180273681Y-98201633D01*
X180273680Y-98201631D01*
X180198369Y-98126320D01*
X180198366Y-98126318D01*
X180198364Y-98126316D01*
X180106134Y-98073067D01*
X180106136Y-98073067D01*
X180063246Y-98061575D01*
X180003253Y-98045500D01*
X179896747Y-98045500D01*
X179836754Y-98061575D01*
X179793864Y-98073067D01*
X179701635Y-98126316D01*
X179626316Y-98201635D01*
X179573067Y-98293864D01*
X179569780Y-98306131D01*
X179545500Y-98396747D01*
X175979448Y-98396747D01*
X176004500Y-98303253D01*
X176004500Y-98196747D01*
X175976934Y-98093869D01*
X175976932Y-98093866D01*
X175976932Y-98093864D01*
X175923683Y-98001635D01*
X175923681Y-98001633D01*
X175923680Y-98001631D01*
X175848369Y-97926320D01*
X175848366Y-97926318D01*
X175848364Y-97926316D01*
X175756134Y-97873067D01*
X175756136Y-97873067D01*
X175716217Y-97862371D01*
X175653253Y-97845500D01*
X175546747Y-97845500D01*
X175483782Y-97862371D01*
X175443864Y-97873067D01*
X175351635Y-97926316D01*
X175276316Y-98001635D01*
X175223067Y-98093864D01*
X175214372Y-98126316D01*
X175195500Y-98196747D01*
X164292846Y-98196747D01*
X164304500Y-98153253D01*
X164304500Y-98046747D01*
X164276934Y-97943869D01*
X164276932Y-97943866D01*
X164276932Y-97943864D01*
X164223683Y-97851635D01*
X164223681Y-97851633D01*
X164223680Y-97851631D01*
X164148369Y-97776320D01*
X164148366Y-97776318D01*
X164148364Y-97776316D01*
X164056134Y-97723067D01*
X164056136Y-97723067D01*
X164016217Y-97712371D01*
X163953253Y-97695500D01*
X163846747Y-97695500D01*
X163783782Y-97712371D01*
X163743864Y-97723067D01*
X163651635Y-97776316D01*
X163576316Y-97851635D01*
X163523067Y-97943864D01*
X163523066Y-97943869D01*
X163515277Y-97972940D01*
X163511152Y-97988334D01*
X163477828Y-98039649D01*
X163420706Y-98061575D01*
X163361606Y-98045739D01*
X163329788Y-98012211D01*
X163323682Y-98001635D01*
X163323680Y-98001631D01*
X163248369Y-97926320D01*
X163248366Y-97926318D01*
X163248364Y-97926316D01*
X163156134Y-97873067D01*
X163156136Y-97873067D01*
X163116217Y-97862371D01*
X163053253Y-97845500D01*
X162946747Y-97845500D01*
X162883782Y-97862371D01*
X162843864Y-97873067D01*
X162751635Y-97926316D01*
X162676316Y-98001635D01*
X162623067Y-98093864D01*
X162614372Y-98126316D01*
X162595500Y-98196747D01*
X150454500Y-98196747D01*
X150454500Y-98096747D01*
X150426934Y-97993869D01*
X150426932Y-97993866D01*
X150426932Y-97993864D01*
X150373683Y-97901635D01*
X150373681Y-97901633D01*
X150373680Y-97901631D01*
X150298369Y-97826320D01*
X150298366Y-97826318D01*
X150298364Y-97826316D01*
X150206134Y-97773067D01*
X150206136Y-97773067D01*
X150142943Y-97756135D01*
X150103253Y-97745500D01*
X149996747Y-97745500D01*
X149957057Y-97756135D01*
X149893864Y-97773067D01*
X149801635Y-97826316D01*
X149726316Y-97901635D01*
X149673067Y-97993864D01*
X149658897Y-98046747D01*
X149645500Y-98096747D01*
X138350500Y-98096747D01*
X138350500Y-97180761D01*
X139103000Y-97180761D01*
X139103000Y-97339238D01*
X139133916Y-97494663D01*
X139133916Y-97494665D01*
X139194559Y-97641071D01*
X139194560Y-97641073D01*
X139194561Y-97641074D01*
X139282604Y-97772839D01*
X139394661Y-97884896D01*
X139526426Y-97972939D01*
X139526427Y-97972939D01*
X139526428Y-97972940D01*
X139559595Y-97986678D01*
X139672836Y-98033584D01*
X139828264Y-98064500D01*
X139828265Y-98064500D01*
X139986735Y-98064500D01*
X139986736Y-98064500D01*
X140142164Y-98033584D01*
X140219303Y-98001632D01*
X140226155Y-97998794D01*
X140278934Y-97976932D01*
X140288574Y-97972939D01*
X140420339Y-97884896D01*
X140532396Y-97772839D01*
X140620439Y-97641074D01*
X140659511Y-97546747D01*
X154895500Y-97546747D01*
X154895500Y-97653253D01*
X154906820Y-97695500D01*
X154923067Y-97756135D01*
X154976316Y-97848364D01*
X154976318Y-97848366D01*
X154976320Y-97848369D01*
X155051631Y-97923680D01*
X155051633Y-97923681D01*
X155051635Y-97923683D01*
X155143865Y-97976932D01*
X155143863Y-97976932D01*
X155143867Y-97976933D01*
X155143869Y-97976934D01*
X155246747Y-98004500D01*
X155246749Y-98004500D01*
X155353251Y-98004500D01*
X155353253Y-98004500D01*
X155456131Y-97976934D01*
X155456133Y-97976932D01*
X155456135Y-97976932D01*
X155548364Y-97923683D01*
X155548364Y-97923682D01*
X155548369Y-97923680D01*
X155623680Y-97848369D01*
X155623683Y-97848364D01*
X155676932Y-97756135D01*
X155676932Y-97756133D01*
X155676934Y-97756131D01*
X155704500Y-97653253D01*
X155704500Y-97546747D01*
X155677705Y-97446747D01*
X157624503Y-97446747D01*
X157624503Y-97553253D01*
X157648034Y-97641071D01*
X157652070Y-97656135D01*
X157705319Y-97748364D01*
X157705321Y-97748366D01*
X157705323Y-97748369D01*
X157780634Y-97823680D01*
X157780636Y-97823681D01*
X157780638Y-97823683D01*
X157872868Y-97876932D01*
X157872866Y-97876932D01*
X157872870Y-97876933D01*
X157872872Y-97876934D01*
X157975750Y-97904500D01*
X157975752Y-97904500D01*
X158082254Y-97904500D01*
X158082256Y-97904500D01*
X158185134Y-97876934D01*
X158185136Y-97876932D01*
X158185138Y-97876932D01*
X158277367Y-97823683D01*
X158277367Y-97823682D01*
X158277372Y-97823680D01*
X158352683Y-97748369D01*
X158352686Y-97748364D01*
X158405935Y-97656135D01*
X158405935Y-97656133D01*
X158405937Y-97656131D01*
X158433503Y-97553253D01*
X158433503Y-97446747D01*
X158795500Y-97446747D01*
X158795500Y-97553253D01*
X158819031Y-97641071D01*
X158823067Y-97656135D01*
X158876316Y-97748364D01*
X158876318Y-97748366D01*
X158876320Y-97748369D01*
X158951631Y-97823680D01*
X158951633Y-97823681D01*
X158951635Y-97823683D01*
X159043865Y-97876932D01*
X159043863Y-97876932D01*
X159043867Y-97876933D01*
X159043869Y-97876934D01*
X159146747Y-97904500D01*
X159146749Y-97904500D01*
X159253251Y-97904500D01*
X159253253Y-97904500D01*
X159356131Y-97876934D01*
X159356133Y-97876932D01*
X159356135Y-97876932D01*
X159448364Y-97823683D01*
X159448364Y-97823682D01*
X159448369Y-97823680D01*
X159523680Y-97748369D01*
X159523683Y-97748364D01*
X159576932Y-97656135D01*
X159576932Y-97656133D01*
X159576934Y-97656131D01*
X159604500Y-97553253D01*
X159604500Y-97446747D01*
X159576934Y-97343869D01*
X159576932Y-97343866D01*
X159576932Y-97343864D01*
X159523683Y-97251635D01*
X159523681Y-97251633D01*
X159523680Y-97251631D01*
X159448369Y-97176320D01*
X159448366Y-97176318D01*
X159448364Y-97176316D01*
X159356134Y-97123067D01*
X159356136Y-97123067D01*
X159316217Y-97112371D01*
X159253253Y-97095500D01*
X159146747Y-97095500D01*
X159083782Y-97112371D01*
X159043864Y-97123067D01*
X158951635Y-97176316D01*
X158876316Y-97251635D01*
X158823067Y-97343864D01*
X158814207Y-97376932D01*
X158795500Y-97446747D01*
X158433503Y-97446747D01*
X158405937Y-97343869D01*
X158405935Y-97343866D01*
X158405935Y-97343864D01*
X158352686Y-97251635D01*
X158352684Y-97251633D01*
X158352683Y-97251631D01*
X158277372Y-97176320D01*
X158277369Y-97176318D01*
X158277367Y-97176316D01*
X158185137Y-97123067D01*
X158185139Y-97123067D01*
X158145220Y-97112371D01*
X158082256Y-97095500D01*
X157975750Y-97095500D01*
X157912785Y-97112371D01*
X157872867Y-97123067D01*
X157780638Y-97176316D01*
X157705319Y-97251635D01*
X157652070Y-97343864D01*
X157643210Y-97376932D01*
X157624503Y-97446747D01*
X155677705Y-97446747D01*
X155676934Y-97443869D01*
X155676932Y-97443866D01*
X155676932Y-97443864D01*
X155623683Y-97351635D01*
X155623681Y-97351633D01*
X155623680Y-97351631D01*
X155548369Y-97276320D01*
X155548366Y-97276318D01*
X155548364Y-97276316D01*
X155456134Y-97223067D01*
X155456136Y-97223067D01*
X155416217Y-97212371D01*
X155353253Y-97195500D01*
X155246747Y-97195500D01*
X155183782Y-97212371D01*
X155143864Y-97223067D01*
X155051635Y-97276316D01*
X154976316Y-97351635D01*
X154923067Y-97443864D01*
X154909456Y-97494662D01*
X154895500Y-97546747D01*
X140659511Y-97546747D01*
X140681084Y-97494664D01*
X140712000Y-97339236D01*
X140712000Y-97180764D01*
X140681084Y-97025336D01*
X140620439Y-96878926D01*
X140532396Y-96747161D01*
X140531275Y-96746040D01*
X150444793Y-96746040D01*
X150444793Y-96852546D01*
X150451862Y-96878928D01*
X150472360Y-96955428D01*
X150525609Y-97047657D01*
X150525611Y-97047659D01*
X150525613Y-97047662D01*
X150600924Y-97122973D01*
X150600926Y-97122974D01*
X150600928Y-97122976D01*
X150693158Y-97176225D01*
X150693156Y-97176225D01*
X150693160Y-97176226D01*
X150693162Y-97176227D01*
X150796040Y-97203793D01*
X150796042Y-97203793D01*
X150902544Y-97203793D01*
X150902546Y-97203793D01*
X151005424Y-97176227D01*
X151005426Y-97176225D01*
X151005428Y-97176225D01*
X151097657Y-97122976D01*
X151097657Y-97122975D01*
X151097662Y-97122973D01*
X151172973Y-97047662D01*
X151185864Y-97025334D01*
X151226225Y-96955428D01*
X151226225Y-96955426D01*
X151226227Y-96955424D01*
X151253793Y-96852546D01*
X151253793Y-96746747D01*
X151545500Y-96746747D01*
X151545500Y-96853253D01*
X151569810Y-96943980D01*
X151573067Y-96956135D01*
X151626316Y-97048364D01*
X151626318Y-97048366D01*
X151626320Y-97048369D01*
X151701631Y-97123680D01*
X151701633Y-97123681D01*
X151701635Y-97123683D01*
X151793865Y-97176932D01*
X151793863Y-97176932D01*
X151793867Y-97176933D01*
X151793869Y-97176934D01*
X151896747Y-97204500D01*
X151896749Y-97204500D01*
X152003251Y-97204500D01*
X152003253Y-97204500D01*
X152106131Y-97176934D01*
X152106133Y-97176932D01*
X152106135Y-97176932D01*
X152198364Y-97123683D01*
X152198364Y-97123682D01*
X152198369Y-97123680D01*
X152273680Y-97048369D01*
X152326934Y-96956131D01*
X152329448Y-96946747D01*
X156395500Y-96946747D01*
X156395500Y-97053253D01*
X156406820Y-97095500D01*
X156423067Y-97156135D01*
X156476316Y-97248364D01*
X156476318Y-97248366D01*
X156476320Y-97248369D01*
X156551631Y-97323680D01*
X156551633Y-97323681D01*
X156551635Y-97323683D01*
X156643865Y-97376932D01*
X156643863Y-97376932D01*
X156643867Y-97376933D01*
X156643869Y-97376934D01*
X156746747Y-97404500D01*
X156746749Y-97404500D01*
X156853251Y-97404500D01*
X156853253Y-97404500D01*
X156956131Y-97376934D01*
X156956133Y-97376932D01*
X156956135Y-97376932D01*
X156994951Y-97354522D01*
X157048364Y-97323683D01*
X157048364Y-97323682D01*
X157048369Y-97323680D01*
X157123680Y-97248369D01*
X157162714Y-97180761D01*
X157176932Y-97156135D01*
X157176932Y-97156133D01*
X157176934Y-97156131D01*
X157204500Y-97053253D01*
X157204500Y-96946747D01*
X157176934Y-96843869D01*
X157176932Y-96843866D01*
X157176932Y-96843864D01*
X157123683Y-96751635D01*
X157123681Y-96751633D01*
X157123680Y-96751631D01*
X157048369Y-96676320D01*
X157048366Y-96676318D01*
X157048364Y-96676316D01*
X156956134Y-96623067D01*
X156956136Y-96623067D01*
X156916217Y-96612371D01*
X156853253Y-96595500D01*
X156746747Y-96595500D01*
X156683782Y-96612371D01*
X156643864Y-96623067D01*
X156551635Y-96676316D01*
X156476316Y-96751635D01*
X156423067Y-96843864D01*
X156413672Y-96878928D01*
X156395500Y-96946747D01*
X152329448Y-96946747D01*
X152354500Y-96853253D01*
X152354500Y-96746747D01*
X152326934Y-96643869D01*
X152326932Y-96643866D01*
X152326932Y-96643864D01*
X152273683Y-96551635D01*
X152273681Y-96551633D01*
X152273680Y-96551631D01*
X152198369Y-96476320D01*
X152198366Y-96476318D01*
X152198364Y-96476316D01*
X152106134Y-96423067D01*
X152106136Y-96423067D01*
X152066217Y-96412371D01*
X152003253Y-96395500D01*
X151896747Y-96395500D01*
X151833782Y-96412371D01*
X151793864Y-96423067D01*
X151701635Y-96476316D01*
X151626316Y-96551635D01*
X151573067Y-96643864D01*
X151573066Y-96643869D01*
X151545500Y-96746747D01*
X151253793Y-96746747D01*
X151253793Y-96746040D01*
X151226227Y-96643162D01*
X151226225Y-96643159D01*
X151226225Y-96643157D01*
X151172976Y-96550928D01*
X151172974Y-96550926D01*
X151172973Y-96550924D01*
X151097662Y-96475613D01*
X151097659Y-96475611D01*
X151097657Y-96475609D01*
X151005427Y-96422360D01*
X151005429Y-96422360D01*
X150965510Y-96411664D01*
X150902546Y-96394793D01*
X150796040Y-96394793D01*
X150733075Y-96411664D01*
X150693157Y-96422360D01*
X150600928Y-96475609D01*
X150525609Y-96550928D01*
X150472360Y-96643157D01*
X150463475Y-96676316D01*
X150444793Y-96746040D01*
X140531275Y-96746040D01*
X140420339Y-96635104D01*
X140288574Y-96547061D01*
X140288573Y-96547060D01*
X140288571Y-96547059D01*
X140142164Y-96486416D01*
X139986738Y-96455500D01*
X139986736Y-96455500D01*
X139828264Y-96455500D01*
X139828261Y-96455500D01*
X139672836Y-96486416D01*
X139672834Y-96486416D01*
X139526428Y-96547059D01*
X139394661Y-96635104D01*
X139394657Y-96635107D01*
X139282607Y-96747157D01*
X139282604Y-96747161D01*
X139194559Y-96878928D01*
X139133916Y-97025334D01*
X139133916Y-97025336D01*
X139103000Y-97180761D01*
X138350500Y-97180761D01*
X138350500Y-95746747D01*
X148595500Y-95746747D01*
X148595500Y-95853253D01*
X148601680Y-95876316D01*
X148623067Y-95956135D01*
X148676316Y-96048364D01*
X148676318Y-96048366D01*
X148676320Y-96048369D01*
X148751631Y-96123680D01*
X148751633Y-96123681D01*
X148751635Y-96123683D01*
X148843865Y-96176932D01*
X148843863Y-96176932D01*
X148843867Y-96176933D01*
X148843869Y-96176934D01*
X148946747Y-96204500D01*
X148946749Y-96204500D01*
X149053251Y-96204500D01*
X149053253Y-96204500D01*
X149156131Y-96176934D01*
X149156133Y-96176932D01*
X149156135Y-96176932D01*
X149248364Y-96123683D01*
X149248364Y-96123682D01*
X149248369Y-96123680D01*
X149323680Y-96048369D01*
X149376934Y-95956131D01*
X149404500Y-95853253D01*
X149404500Y-95820420D01*
X152713949Y-95820420D01*
X152713949Y-95926926D01*
X152721776Y-95956135D01*
X152741516Y-96029808D01*
X152794765Y-96122037D01*
X152794767Y-96122039D01*
X152794769Y-96122042D01*
X152870080Y-96197353D01*
X152870082Y-96197354D01*
X152870084Y-96197356D01*
X152962314Y-96250605D01*
X152962312Y-96250605D01*
X152962316Y-96250606D01*
X152962318Y-96250607D01*
X153065196Y-96278173D01*
X153065198Y-96278173D01*
X153171700Y-96278173D01*
X153171702Y-96278173D01*
X153274580Y-96250607D01*
X153274582Y-96250605D01*
X153274584Y-96250605D01*
X153366813Y-96197356D01*
X153366813Y-96197355D01*
X153366818Y-96197353D01*
X153417424Y-96146747D01*
X157895500Y-96146747D01*
X157895500Y-96253253D01*
X157919078Y-96341248D01*
X157923067Y-96356135D01*
X157976316Y-96448364D01*
X157976318Y-96448366D01*
X157976320Y-96448369D01*
X158051631Y-96523680D01*
X158051633Y-96523681D01*
X158051635Y-96523683D01*
X158143865Y-96576932D01*
X158143863Y-96576932D01*
X158143867Y-96576933D01*
X158143869Y-96576934D01*
X158246747Y-96604500D01*
X158246749Y-96604500D01*
X158353251Y-96604500D01*
X158353253Y-96604500D01*
X158456131Y-96576934D01*
X158456133Y-96576932D01*
X158456135Y-96576932D01*
X158526400Y-96536364D01*
X163760171Y-96536364D01*
X163760171Y-96642870D01*
X163760439Y-96643869D01*
X163787738Y-96745752D01*
X163840987Y-96837981D01*
X163840989Y-96837983D01*
X163840991Y-96837986D01*
X163916302Y-96913297D01*
X163916304Y-96913298D01*
X163916306Y-96913300D01*
X164008536Y-96966549D01*
X164008534Y-96966549D01*
X164008538Y-96966550D01*
X164008540Y-96966551D01*
X164111418Y-96994117D01*
X164111420Y-96994117D01*
X164217922Y-96994117D01*
X164217924Y-96994117D01*
X164320802Y-96966551D01*
X164320804Y-96966549D01*
X164320806Y-96966549D01*
X164413035Y-96913300D01*
X164413035Y-96913299D01*
X164413040Y-96913297D01*
X164488351Y-96837986D01*
X164538206Y-96751635D01*
X164541603Y-96745752D01*
X164541603Y-96745750D01*
X164541605Y-96745748D01*
X164569171Y-96642870D01*
X164569171Y-96536364D01*
X164541605Y-96433486D01*
X164541603Y-96433483D01*
X164541603Y-96433481D01*
X164488354Y-96341252D01*
X164488352Y-96341250D01*
X164488351Y-96341248D01*
X164413040Y-96265937D01*
X164413037Y-96265935D01*
X164413035Y-96265933D01*
X164320805Y-96212684D01*
X164320807Y-96212684D01*
X164280888Y-96201988D01*
X164217924Y-96185117D01*
X164111418Y-96185117D01*
X164048453Y-96201988D01*
X164008535Y-96212684D01*
X163916306Y-96265933D01*
X163840987Y-96341252D01*
X163787738Y-96433481D01*
X163787737Y-96433486D01*
X163760171Y-96536364D01*
X158526400Y-96536364D01*
X158548364Y-96523683D01*
X158548364Y-96523682D01*
X158548369Y-96523680D01*
X158623680Y-96448369D01*
X158638289Y-96423066D01*
X158676932Y-96356135D01*
X158676932Y-96356133D01*
X158676934Y-96356131D01*
X158704500Y-96253253D01*
X158704500Y-96146747D01*
X158676934Y-96043869D01*
X158676932Y-96043866D01*
X158676932Y-96043864D01*
X158623683Y-95951635D01*
X158623681Y-95951633D01*
X158623680Y-95951631D01*
X158548369Y-95876320D01*
X158548366Y-95876318D01*
X158548364Y-95876316D01*
X158456134Y-95823067D01*
X158456136Y-95823067D01*
X158416217Y-95812371D01*
X158353253Y-95795500D01*
X158246747Y-95795500D01*
X158183782Y-95812371D01*
X158143864Y-95823067D01*
X158051635Y-95876316D01*
X157976316Y-95951635D01*
X157923067Y-96043864D01*
X157921860Y-96048369D01*
X157895500Y-96146747D01*
X153417424Y-96146747D01*
X153442129Y-96122042D01*
X153484665Y-96048369D01*
X153495381Y-96029808D01*
X153495381Y-96029806D01*
X153495383Y-96029804D01*
X153522949Y-95926926D01*
X153522949Y-95820420D01*
X153495383Y-95717542D01*
X153495381Y-95717539D01*
X153495381Y-95717537D01*
X153442132Y-95625308D01*
X153442130Y-95625306D01*
X153442129Y-95625304D01*
X153366818Y-95549993D01*
X153366815Y-95549991D01*
X153366813Y-95549989D01*
X153274583Y-95496740D01*
X153274585Y-95496740D01*
X153234666Y-95486044D01*
X153171702Y-95469173D01*
X153065196Y-95469173D01*
X153002231Y-95486044D01*
X152962313Y-95496740D01*
X152870084Y-95549989D01*
X152794765Y-95625308D01*
X152741516Y-95717537D01*
X152733689Y-95746748D01*
X152713949Y-95820420D01*
X149404500Y-95820420D01*
X149404500Y-95746747D01*
X149376934Y-95643869D01*
X149376932Y-95643866D01*
X149376932Y-95643864D01*
X149323683Y-95551635D01*
X149323681Y-95551633D01*
X149323680Y-95551631D01*
X149248369Y-95476320D01*
X149248366Y-95476318D01*
X149248364Y-95476316D01*
X149156134Y-95423067D01*
X149156136Y-95423067D01*
X149116217Y-95412371D01*
X149053253Y-95395500D01*
X148946747Y-95395500D01*
X148883782Y-95412371D01*
X148843864Y-95423067D01*
X148751635Y-95476316D01*
X148676316Y-95551635D01*
X148623067Y-95643864D01*
X148623066Y-95643869D01*
X148595500Y-95746747D01*
X138350500Y-95746747D01*
X138350500Y-94640761D01*
X139103000Y-94640761D01*
X139103000Y-94640764D01*
X139103000Y-94799236D01*
X139132341Y-94946748D01*
X139133916Y-94954663D01*
X139133916Y-94954665D01*
X139194559Y-95101071D01*
X139194560Y-95101073D01*
X139194561Y-95101074D01*
X139282604Y-95232839D01*
X139394661Y-95344896D01*
X139526426Y-95432939D01*
X139672836Y-95493584D01*
X139828264Y-95524500D01*
X139828265Y-95524500D01*
X139986735Y-95524500D01*
X139986736Y-95524500D01*
X140142164Y-95493584D01*
X140288574Y-95432939D01*
X140420339Y-95344896D01*
X140532396Y-95232839D01*
X140620439Y-95101074D01*
X140681084Y-94954664D01*
X140712000Y-94799236D01*
X140712000Y-94646747D01*
X161195500Y-94646747D01*
X161195500Y-94753253D01*
X161207821Y-94799235D01*
X161223067Y-94856135D01*
X161276316Y-94948364D01*
X161276318Y-94948366D01*
X161276320Y-94948369D01*
X161351631Y-95023680D01*
X161351633Y-95023681D01*
X161351635Y-95023683D01*
X161443865Y-95076932D01*
X161443863Y-95076932D01*
X161443867Y-95076933D01*
X161443869Y-95076934D01*
X161546747Y-95104500D01*
X161546749Y-95104500D01*
X161653251Y-95104500D01*
X161653253Y-95104500D01*
X161756131Y-95076934D01*
X161756133Y-95076932D01*
X161756135Y-95076932D01*
X161848364Y-95023683D01*
X161848364Y-95023682D01*
X161848369Y-95023680D01*
X161923680Y-94948369D01*
X161924616Y-94946747D01*
X176874503Y-94946747D01*
X176874503Y-95053253D01*
X176887316Y-95101071D01*
X176902070Y-95156135D01*
X176955319Y-95248364D01*
X176955321Y-95248366D01*
X176955323Y-95248369D01*
X177030634Y-95323680D01*
X177030636Y-95323681D01*
X177030638Y-95323683D01*
X177122868Y-95376932D01*
X177122866Y-95376932D01*
X177122870Y-95376933D01*
X177122872Y-95376934D01*
X177225750Y-95404500D01*
X177225752Y-95404500D01*
X177332254Y-95404500D01*
X177332256Y-95404500D01*
X177435134Y-95376934D01*
X177435136Y-95376932D01*
X177435138Y-95376932D01*
X177527367Y-95323683D01*
X177527367Y-95323682D01*
X177527372Y-95323680D01*
X177602683Y-95248369D01*
X177655937Y-95156131D01*
X177683503Y-95053253D01*
X177683503Y-94946747D01*
X177655937Y-94843869D01*
X177655935Y-94843866D01*
X177655935Y-94843864D01*
X177602686Y-94751635D01*
X177602684Y-94751633D01*
X177602683Y-94751631D01*
X177527372Y-94676320D01*
X177527369Y-94676318D01*
X177527367Y-94676316D01*
X177435137Y-94623067D01*
X177435139Y-94623067D01*
X177395220Y-94612371D01*
X177332256Y-94595500D01*
X177225750Y-94595500D01*
X177162785Y-94612371D01*
X177122867Y-94623067D01*
X177030638Y-94676316D01*
X176955319Y-94751635D01*
X176902070Y-94843864D01*
X176902069Y-94843869D01*
X176874503Y-94946747D01*
X161924616Y-94946747D01*
X161976934Y-94856131D01*
X162004500Y-94753253D01*
X162004500Y-94646747D01*
X161976934Y-94543869D01*
X161976932Y-94543866D01*
X161976932Y-94543864D01*
X161923683Y-94451635D01*
X161923681Y-94451633D01*
X161923680Y-94451631D01*
X161848369Y-94376320D01*
X161848366Y-94376318D01*
X161848364Y-94376316D01*
X161756134Y-94323067D01*
X161756136Y-94323067D01*
X161692943Y-94306135D01*
X161653253Y-94295500D01*
X161546747Y-94295500D01*
X161507057Y-94306135D01*
X161443864Y-94323067D01*
X161351635Y-94376316D01*
X161276316Y-94451635D01*
X161223067Y-94543864D01*
X161223066Y-94543869D01*
X161195500Y-94646747D01*
X140712000Y-94646747D01*
X140712000Y-94640764D01*
X140681084Y-94485336D01*
X140635928Y-94376320D01*
X140620440Y-94338928D01*
X140609842Y-94323067D01*
X140532396Y-94207161D01*
X140421982Y-94096747D01*
X166145500Y-94096747D01*
X166145500Y-94203253D01*
X166169810Y-94293980D01*
X166173067Y-94306135D01*
X166226316Y-94398364D01*
X166226318Y-94398366D01*
X166226320Y-94398369D01*
X166301631Y-94473680D01*
X166301633Y-94473681D01*
X166301635Y-94473683D01*
X166393865Y-94526932D01*
X166393863Y-94526932D01*
X166393867Y-94526933D01*
X166393869Y-94526934D01*
X166496747Y-94554500D01*
X166496749Y-94554500D01*
X166603251Y-94554500D01*
X166603253Y-94554500D01*
X166706131Y-94526934D01*
X166706133Y-94526932D01*
X166706135Y-94526932D01*
X166798364Y-94473683D01*
X166798364Y-94473682D01*
X166798369Y-94473680D01*
X166873680Y-94398369D01*
X166886410Y-94376320D01*
X166926932Y-94306135D01*
X166926932Y-94306133D01*
X166926934Y-94306131D01*
X166954500Y-94203253D01*
X166954500Y-94096747D01*
X166926934Y-93993869D01*
X166926932Y-93993866D01*
X166926932Y-93993864D01*
X166873683Y-93901635D01*
X166873681Y-93901633D01*
X166873680Y-93901631D01*
X166798369Y-93826320D01*
X166798366Y-93826318D01*
X166798364Y-93826316D01*
X166706134Y-93773067D01*
X166706136Y-93773067D01*
X166666217Y-93762371D01*
X166603253Y-93745500D01*
X166496747Y-93745500D01*
X166433782Y-93762371D01*
X166393864Y-93773067D01*
X166301635Y-93826316D01*
X166226316Y-93901635D01*
X166173067Y-93993864D01*
X166169531Y-94007061D01*
X166145500Y-94096747D01*
X140421982Y-94096747D01*
X140420339Y-94095104D01*
X140288574Y-94007061D01*
X140288573Y-94007060D01*
X140288571Y-94007059D01*
X140142164Y-93946416D01*
X139986738Y-93915500D01*
X139986736Y-93915500D01*
X139828264Y-93915500D01*
X139828261Y-93915500D01*
X139672836Y-93946416D01*
X139672834Y-93946416D01*
X139526428Y-94007059D01*
X139394661Y-94095104D01*
X139394657Y-94095107D01*
X139282607Y-94207157D01*
X139282604Y-94207161D01*
X139194559Y-94338928D01*
X139133916Y-94485334D01*
X139133916Y-94485336D01*
X139103000Y-94640761D01*
X138350500Y-94640761D01*
X138350500Y-93446747D01*
X153345500Y-93446747D01*
X153345500Y-93553253D01*
X153369810Y-93643980D01*
X153373067Y-93656135D01*
X153426316Y-93748364D01*
X153426318Y-93748366D01*
X153426320Y-93748369D01*
X153501631Y-93823680D01*
X153501633Y-93823681D01*
X153501635Y-93823683D01*
X153593865Y-93876932D01*
X153593863Y-93876932D01*
X153593867Y-93876933D01*
X153593869Y-93876934D01*
X153696747Y-93904500D01*
X153696749Y-93904500D01*
X153803251Y-93904500D01*
X153803253Y-93904500D01*
X153906131Y-93876934D01*
X153906133Y-93876932D01*
X153906135Y-93876932D01*
X153998364Y-93823683D01*
X153998364Y-93823682D01*
X153998369Y-93823680D01*
X154029998Y-93792050D01*
X154084513Y-93764275D01*
X154144945Y-93773846D01*
X154170000Y-93792049D01*
X154201631Y-93823680D01*
X154201633Y-93823681D01*
X154201635Y-93823683D01*
X154293865Y-93876932D01*
X154293863Y-93876932D01*
X154293867Y-93876933D01*
X154293869Y-93876934D01*
X154396747Y-93904500D01*
X154396749Y-93904500D01*
X154503251Y-93904500D01*
X154503253Y-93904500D01*
X154606131Y-93876934D01*
X154606133Y-93876932D01*
X154606135Y-93876932D01*
X154698364Y-93823683D01*
X154698364Y-93823682D01*
X154698369Y-93823680D01*
X154773680Y-93748369D01*
X154775337Y-93745500D01*
X154800000Y-93702781D01*
X154826934Y-93656131D01*
X154829448Y-93646747D01*
X172895500Y-93646747D01*
X172895500Y-93753253D01*
X172901018Y-93773846D01*
X172923067Y-93856135D01*
X172976316Y-93948364D01*
X172976318Y-93948366D01*
X172976320Y-93948369D01*
X173051631Y-94023680D01*
X173051633Y-94023681D01*
X173051635Y-94023683D01*
X173143865Y-94076932D01*
X173143863Y-94076932D01*
X173143867Y-94076933D01*
X173143869Y-94076934D01*
X173246747Y-94104500D01*
X173246749Y-94104500D01*
X173353251Y-94104500D01*
X173353253Y-94104500D01*
X173456131Y-94076934D01*
X173456133Y-94076932D01*
X173456135Y-94076932D01*
X173548364Y-94023683D01*
X173548364Y-94023682D01*
X173548369Y-94023680D01*
X173623680Y-93948369D01*
X173650662Y-93901635D01*
X173676932Y-93856135D01*
X173676932Y-93856133D01*
X173676934Y-93856131D01*
X173704500Y-93753253D01*
X173704500Y-93646747D01*
X173676934Y-93543869D01*
X173676932Y-93543866D01*
X173676932Y-93543864D01*
X173623683Y-93451635D01*
X173623681Y-93451633D01*
X173623680Y-93451631D01*
X173548369Y-93376320D01*
X173548366Y-93376318D01*
X173548364Y-93376316D01*
X173456134Y-93323067D01*
X173456136Y-93323067D01*
X173416217Y-93312371D01*
X173353253Y-93295500D01*
X173246747Y-93295500D01*
X173183782Y-93312371D01*
X173143864Y-93323067D01*
X173051635Y-93376316D01*
X172976316Y-93451635D01*
X172923067Y-93543864D01*
X172907655Y-93601383D01*
X172895500Y-93646747D01*
X154829448Y-93646747D01*
X154854500Y-93553253D01*
X154854500Y-93446747D01*
X154826934Y-93343869D01*
X154826932Y-93343866D01*
X154826932Y-93343864D01*
X154773683Y-93251635D01*
X154773681Y-93251633D01*
X154773680Y-93251631D01*
X154698369Y-93176320D01*
X154698366Y-93176318D01*
X154698364Y-93176316D01*
X154606134Y-93123067D01*
X154606136Y-93123067D01*
X154566217Y-93112371D01*
X154503253Y-93095500D01*
X154396747Y-93095500D01*
X154333782Y-93112371D01*
X154293864Y-93123067D01*
X154201635Y-93176316D01*
X154201634Y-93176317D01*
X154201631Y-93176319D01*
X154201631Y-93176320D01*
X154170001Y-93207949D01*
X154115487Y-93235725D01*
X154055055Y-93226154D01*
X154029999Y-93207950D01*
X153998369Y-93176320D01*
X153998366Y-93176318D01*
X153998364Y-93176316D01*
X153906134Y-93123067D01*
X153906136Y-93123067D01*
X153866217Y-93112371D01*
X153803253Y-93095500D01*
X153696747Y-93095500D01*
X153633782Y-93112371D01*
X153593864Y-93123067D01*
X153501635Y-93176316D01*
X153426316Y-93251635D01*
X153373067Y-93343864D01*
X153373066Y-93343869D01*
X153345500Y-93446747D01*
X138350500Y-93446747D01*
X138350500Y-92100761D01*
X139103000Y-92100761D01*
X139103000Y-92259238D01*
X139133916Y-92414663D01*
X139133916Y-92414665D01*
X139194559Y-92561071D01*
X139194560Y-92561073D01*
X139194561Y-92561074D01*
X139282604Y-92692839D01*
X139394661Y-92804896D01*
X139526426Y-92892939D01*
X139672836Y-92953584D01*
X139828264Y-92984500D01*
X139828265Y-92984500D01*
X139986735Y-92984500D01*
X139986736Y-92984500D01*
X140142164Y-92953584D01*
X140288574Y-92892939D01*
X140420339Y-92804896D01*
X140532396Y-92692839D01*
X140620439Y-92561074D01*
X140681084Y-92414664D01*
X140712000Y-92259236D01*
X140712000Y-92100764D01*
X140681084Y-91945336D01*
X140620439Y-91798926D01*
X140532396Y-91667161D01*
X140420339Y-91555104D01*
X140288574Y-91467061D01*
X140288573Y-91467060D01*
X140288571Y-91467059D01*
X140142164Y-91406416D01*
X139986738Y-91375500D01*
X139986736Y-91375500D01*
X139828264Y-91375500D01*
X139828261Y-91375500D01*
X139672836Y-91406416D01*
X139672834Y-91406416D01*
X139526428Y-91467059D01*
X139394661Y-91555104D01*
X139394657Y-91555107D01*
X139282607Y-91667157D01*
X139282604Y-91667161D01*
X139194559Y-91798928D01*
X139133916Y-91945334D01*
X139133916Y-91945336D01*
X139103000Y-92100761D01*
X138350500Y-92100761D01*
X138350500Y-90993396D01*
X149945500Y-90993396D01*
X149945500Y-91206603D01*
X149978851Y-91417174D01*
X150044736Y-91619947D01*
X150141527Y-91809912D01*
X150141531Y-91809918D01*
X150266841Y-91982391D01*
X150266843Y-91982393D01*
X150266846Y-91982397D01*
X150417603Y-92133154D01*
X150417606Y-92133156D01*
X150417608Y-92133158D01*
X150590081Y-92258468D01*
X150590087Y-92258472D01*
X150780053Y-92355264D01*
X150982821Y-92421147D01*
X150982822Y-92421147D01*
X150982825Y-92421148D01*
X151193396Y-92454500D01*
X151193399Y-92454500D01*
X151406604Y-92454500D01*
X151617174Y-92421148D01*
X151617175Y-92421147D01*
X151617179Y-92421147D01*
X151819947Y-92355264D01*
X152009913Y-92258472D01*
X152026051Y-92246747D01*
X153695500Y-92246747D01*
X153695500Y-92353253D01*
X153711955Y-92414663D01*
X153723067Y-92456135D01*
X153776316Y-92548364D01*
X153776318Y-92548366D01*
X153776320Y-92548369D01*
X153851631Y-92623680D01*
X153851633Y-92623681D01*
X153851635Y-92623683D01*
X153943865Y-92676932D01*
X153943863Y-92676932D01*
X153943867Y-92676933D01*
X153943869Y-92676934D01*
X154046747Y-92704500D01*
X154046749Y-92704500D01*
X154153251Y-92704500D01*
X154153253Y-92704500D01*
X154256131Y-92676934D01*
X154256133Y-92676932D01*
X154256135Y-92676932D01*
X154348364Y-92623683D01*
X154348364Y-92623682D01*
X154348369Y-92623680D01*
X154423680Y-92548369D01*
X154424616Y-92546747D01*
X162595500Y-92546747D01*
X162595500Y-92653253D01*
X162606107Y-92692838D01*
X162623067Y-92756135D01*
X162676316Y-92848364D01*
X162676318Y-92848366D01*
X162676320Y-92848369D01*
X162751631Y-92923680D01*
X162751633Y-92923681D01*
X162751635Y-92923683D01*
X162843865Y-92976932D01*
X162843863Y-92976932D01*
X162843867Y-92976933D01*
X162843869Y-92976934D01*
X162946747Y-93004500D01*
X162946749Y-93004500D01*
X163053251Y-93004500D01*
X163053253Y-93004500D01*
X163156131Y-92976934D01*
X163156133Y-92976932D01*
X163156135Y-92976932D01*
X163248364Y-92923683D01*
X163248364Y-92923682D01*
X163248369Y-92923680D01*
X163323680Y-92848369D01*
X163323683Y-92848364D01*
X163376932Y-92756135D01*
X163376932Y-92756133D01*
X163376934Y-92756131D01*
X163404500Y-92653253D01*
X163404500Y-92546747D01*
X163376934Y-92443869D01*
X163376932Y-92443866D01*
X163376932Y-92443864D01*
X163323683Y-92351635D01*
X163323681Y-92351633D01*
X163323680Y-92351631D01*
X163248369Y-92276320D01*
X163248366Y-92276318D01*
X163248364Y-92276316D01*
X163161207Y-92225995D01*
X163161204Y-92225995D01*
X163156132Y-92223066D01*
X163121838Y-92213877D01*
X163053253Y-92195500D01*
X162946747Y-92195500D01*
X162883782Y-92212371D01*
X162843864Y-92223067D01*
X162751635Y-92276316D01*
X162676316Y-92351635D01*
X162623067Y-92443864D01*
X162621860Y-92448369D01*
X162595500Y-92546747D01*
X154424616Y-92546747D01*
X154476934Y-92456131D01*
X154504500Y-92353253D01*
X154504500Y-92246747D01*
X154477705Y-92146747D01*
X179795500Y-92146747D01*
X179795500Y-92253253D01*
X179801680Y-92276316D01*
X179823067Y-92356135D01*
X179876316Y-92448364D01*
X179876318Y-92448366D01*
X179876320Y-92448369D01*
X179951631Y-92523680D01*
X179951633Y-92523681D01*
X179951635Y-92523683D01*
X180043865Y-92576932D01*
X180043863Y-92576932D01*
X180043867Y-92576933D01*
X180043869Y-92576934D01*
X180146747Y-92604500D01*
X180146749Y-92604500D01*
X180253251Y-92604500D01*
X180253253Y-92604500D01*
X180356131Y-92576934D01*
X180356133Y-92576932D01*
X180356135Y-92576932D01*
X180448364Y-92523683D01*
X180448364Y-92523682D01*
X180448369Y-92523680D01*
X180523680Y-92448369D01*
X180576934Y-92356131D01*
X180604500Y-92253253D01*
X180604500Y-92146747D01*
X181395500Y-92146747D01*
X181395500Y-92253253D01*
X181401680Y-92276316D01*
X181423067Y-92356135D01*
X181476316Y-92448364D01*
X181476318Y-92448366D01*
X181476320Y-92448369D01*
X181551631Y-92523680D01*
X181551633Y-92523681D01*
X181551635Y-92523683D01*
X181643865Y-92576932D01*
X181643863Y-92576932D01*
X181643867Y-92576933D01*
X181643869Y-92576934D01*
X181746747Y-92604500D01*
X181746749Y-92604500D01*
X181853251Y-92604500D01*
X181853253Y-92604500D01*
X181956131Y-92576934D01*
X181956133Y-92576932D01*
X181956135Y-92576932D01*
X182048364Y-92523683D01*
X182048364Y-92523682D01*
X182048369Y-92523680D01*
X182123680Y-92448369D01*
X182176934Y-92356131D01*
X182204500Y-92253253D01*
X182204500Y-92146747D01*
X182395500Y-92146747D01*
X182395500Y-92253253D01*
X182401680Y-92276316D01*
X182423067Y-92356135D01*
X182476316Y-92448364D01*
X182476318Y-92448366D01*
X182476320Y-92448369D01*
X182551631Y-92523680D01*
X182551633Y-92523681D01*
X182551635Y-92523683D01*
X182643865Y-92576932D01*
X182643863Y-92576932D01*
X182643867Y-92576933D01*
X182643869Y-92576934D01*
X182746747Y-92604500D01*
X182746749Y-92604500D01*
X182853251Y-92604500D01*
X182853253Y-92604500D01*
X182956131Y-92576934D01*
X182956133Y-92576932D01*
X182956135Y-92576932D01*
X183048364Y-92523683D01*
X183048364Y-92523682D01*
X183048369Y-92523680D01*
X183123680Y-92448369D01*
X183176934Y-92356131D01*
X183204500Y-92253253D01*
X183204500Y-92146747D01*
X183176934Y-92043869D01*
X183176932Y-92043866D01*
X183176932Y-92043864D01*
X183123683Y-91951635D01*
X183123681Y-91951633D01*
X183123680Y-91951631D01*
X183048369Y-91876320D01*
X183048366Y-91876318D01*
X183048364Y-91876316D01*
X182956134Y-91823067D01*
X182956136Y-91823067D01*
X182907039Y-91809912D01*
X182853253Y-91795500D01*
X182746747Y-91795500D01*
X182692961Y-91809912D01*
X182643864Y-91823067D01*
X182551635Y-91876316D01*
X182476316Y-91951635D01*
X182423067Y-92043864D01*
X182423066Y-92043869D01*
X182395500Y-92146747D01*
X182204500Y-92146747D01*
X182176934Y-92043869D01*
X182176932Y-92043866D01*
X182176932Y-92043864D01*
X182123683Y-91951635D01*
X182123681Y-91951633D01*
X182123680Y-91951631D01*
X182048369Y-91876320D01*
X182048366Y-91876318D01*
X182048364Y-91876316D01*
X181956134Y-91823067D01*
X181956136Y-91823067D01*
X181907039Y-91809912D01*
X181853253Y-91795500D01*
X181746747Y-91795500D01*
X181692961Y-91809912D01*
X181643864Y-91823067D01*
X181551635Y-91876316D01*
X181476316Y-91951635D01*
X181423067Y-92043864D01*
X181423066Y-92043869D01*
X181395500Y-92146747D01*
X180604500Y-92146747D01*
X180576934Y-92043869D01*
X180576932Y-92043866D01*
X180576932Y-92043864D01*
X180523683Y-91951635D01*
X180523681Y-91951633D01*
X180523680Y-91951631D01*
X180448369Y-91876320D01*
X180448366Y-91876318D01*
X180448364Y-91876316D01*
X180356134Y-91823067D01*
X180356136Y-91823067D01*
X180307039Y-91809912D01*
X180253253Y-91795500D01*
X180146747Y-91795500D01*
X180092961Y-91809912D01*
X180043864Y-91823067D01*
X179951635Y-91876316D01*
X179876316Y-91951635D01*
X179823067Y-92043864D01*
X179823066Y-92043869D01*
X179795500Y-92146747D01*
X154477705Y-92146747D01*
X154476934Y-92143869D01*
X154476932Y-92143866D01*
X154476932Y-92143864D01*
X154423683Y-92051635D01*
X154423681Y-92051633D01*
X154423680Y-92051631D01*
X154348369Y-91976320D01*
X154348366Y-91976318D01*
X154348364Y-91976316D01*
X154256134Y-91923067D01*
X154256136Y-91923067D01*
X154216217Y-91912371D01*
X154153253Y-91895500D01*
X154046747Y-91895500D01*
X153983782Y-91912371D01*
X153943864Y-91923067D01*
X153851635Y-91976316D01*
X153776316Y-92051635D01*
X153723067Y-92143864D01*
X153718699Y-92160167D01*
X153695500Y-92246747D01*
X152026051Y-92246747D01*
X152182397Y-92133154D01*
X152333154Y-91982397D01*
X152458472Y-91809913D01*
X152555264Y-91619947D01*
X152579048Y-91546747D01*
X155195500Y-91546747D01*
X155195500Y-91653253D01*
X155209232Y-91704500D01*
X155223067Y-91756135D01*
X155276316Y-91848364D01*
X155276318Y-91848366D01*
X155276320Y-91848369D01*
X155351631Y-91923680D01*
X155351633Y-91923681D01*
X155351635Y-91923683D01*
X155443865Y-91976932D01*
X155443863Y-91976932D01*
X155443867Y-91976933D01*
X155443869Y-91976934D01*
X155546747Y-92004500D01*
X155546749Y-92004500D01*
X155653251Y-92004500D01*
X155653253Y-92004500D01*
X155756131Y-91976934D01*
X155756133Y-91976932D01*
X155756135Y-91976932D01*
X155848364Y-91923683D01*
X155848364Y-91923682D01*
X155848369Y-91923680D01*
X155923680Y-91848369D01*
X155945883Y-91809913D01*
X155976932Y-91756135D01*
X155976932Y-91756133D01*
X155976934Y-91756131D01*
X156004500Y-91653253D01*
X156004500Y-91646747D01*
X156695500Y-91646747D01*
X156695500Y-91753253D01*
X156706820Y-91795500D01*
X156723067Y-91856135D01*
X156776316Y-91948364D01*
X156776318Y-91948366D01*
X156776320Y-91948369D01*
X156851631Y-92023680D01*
X156851633Y-92023681D01*
X156851635Y-92023683D01*
X156943865Y-92076932D01*
X156943863Y-92076932D01*
X156943867Y-92076933D01*
X156943869Y-92076934D01*
X157046747Y-92104500D01*
X157046749Y-92104500D01*
X157153251Y-92104500D01*
X157153253Y-92104500D01*
X157256131Y-92076934D01*
X157256133Y-92076932D01*
X157256135Y-92076932D01*
X157348364Y-92023683D01*
X157348364Y-92023682D01*
X157348369Y-92023680D01*
X157423680Y-91948369D01*
X157476934Y-91856131D01*
X157504500Y-91753253D01*
X157504500Y-91646747D01*
X157476934Y-91543869D01*
X157476932Y-91543866D01*
X157476932Y-91543864D01*
X157423683Y-91451635D01*
X157423681Y-91451633D01*
X157423680Y-91451631D01*
X157348369Y-91376320D01*
X157348366Y-91376318D01*
X157348364Y-91376316D01*
X157261207Y-91325995D01*
X157261204Y-91325995D01*
X157256132Y-91323066D01*
X157221838Y-91313877D01*
X157153253Y-91295500D01*
X157046747Y-91295500D01*
X156983782Y-91312371D01*
X156943864Y-91323067D01*
X156851635Y-91376316D01*
X156776316Y-91451635D01*
X156723067Y-91543864D01*
X156720055Y-91555107D01*
X156695500Y-91646747D01*
X156004500Y-91646747D01*
X156004500Y-91546747D01*
X155976934Y-91443869D01*
X155976932Y-91443866D01*
X155976932Y-91443864D01*
X155923683Y-91351635D01*
X155923681Y-91351633D01*
X155923680Y-91351631D01*
X155848369Y-91276320D01*
X155848366Y-91276318D01*
X155848364Y-91276316D01*
X155797149Y-91246747D01*
X176395500Y-91246747D01*
X176395500Y-91353253D01*
X176401461Y-91375500D01*
X176423067Y-91456135D01*
X176476316Y-91548364D01*
X176476318Y-91548366D01*
X176476320Y-91548369D01*
X176551631Y-91623680D01*
X176551633Y-91623681D01*
X176551635Y-91623683D01*
X176643865Y-91676932D01*
X176643863Y-91676932D01*
X176643867Y-91676933D01*
X176643869Y-91676934D01*
X176746747Y-91704500D01*
X176746749Y-91704500D01*
X176853251Y-91704500D01*
X176853253Y-91704500D01*
X176956131Y-91676934D01*
X176956133Y-91676932D01*
X176956135Y-91676932D01*
X177048364Y-91623683D01*
X177048364Y-91623682D01*
X177048369Y-91623680D01*
X177123680Y-91548369D01*
X177124616Y-91546748D01*
X177176932Y-91456135D01*
X177176932Y-91456133D01*
X177176934Y-91456131D01*
X177204500Y-91353253D01*
X177204500Y-91246747D01*
X177176934Y-91143869D01*
X177176932Y-91143866D01*
X177176932Y-91143864D01*
X177123683Y-91051635D01*
X177123681Y-91051633D01*
X177123680Y-91051631D01*
X177048369Y-90976320D01*
X177048366Y-90976318D01*
X177048364Y-90976316D01*
X176956134Y-90923067D01*
X176956136Y-90923067D01*
X176916217Y-90912371D01*
X176853253Y-90895500D01*
X176746747Y-90895500D01*
X176683782Y-90912371D01*
X176643864Y-90923067D01*
X176551635Y-90976316D01*
X176476316Y-91051635D01*
X176423067Y-91143864D01*
X176423066Y-91143869D01*
X176395500Y-91246747D01*
X155797149Y-91246747D01*
X155756134Y-91223067D01*
X155756136Y-91223067D01*
X155716217Y-91212371D01*
X155653253Y-91195500D01*
X155546747Y-91195500D01*
X155483782Y-91212371D01*
X155443864Y-91223067D01*
X155351635Y-91276316D01*
X155276316Y-91351635D01*
X155223067Y-91443864D01*
X155223066Y-91443869D01*
X155195500Y-91546747D01*
X152579048Y-91546747D01*
X152621147Y-91417179D01*
X152627619Y-91376316D01*
X152654500Y-91206603D01*
X152654500Y-90993396D01*
X152621148Y-90782825D01*
X152621147Y-90782821D01*
X152555264Y-90580053D01*
X152458472Y-90390087D01*
X152431483Y-90352940D01*
X152333158Y-90217608D01*
X152333156Y-90217606D01*
X152333154Y-90217603D01*
X152182397Y-90066846D01*
X152182393Y-90066843D01*
X152182391Y-90066841D01*
X152009918Y-89941531D01*
X152009912Y-89941527D01*
X151819947Y-89844736D01*
X151617174Y-89778851D01*
X151406604Y-89745500D01*
X151406601Y-89745500D01*
X151193399Y-89745500D01*
X151193396Y-89745500D01*
X150982825Y-89778851D01*
X150780052Y-89844736D01*
X150590087Y-89941527D01*
X150590081Y-89941531D01*
X150417608Y-90066841D01*
X150266841Y-90217608D01*
X150141531Y-90390081D01*
X150141527Y-90390087D01*
X150044736Y-90580052D01*
X149978851Y-90782825D01*
X149945500Y-90993396D01*
X138350500Y-90993396D01*
X138350500Y-89560761D01*
X139103000Y-89560761D01*
X139103000Y-89719238D01*
X139133916Y-89874663D01*
X139133916Y-89874665D01*
X139194559Y-90021071D01*
X139194560Y-90021073D01*
X139194561Y-90021074D01*
X139282604Y-90152839D01*
X139394661Y-90264896D01*
X139526426Y-90352939D01*
X139672836Y-90413584D01*
X139828264Y-90444500D01*
X139828265Y-90444500D01*
X139986735Y-90444500D01*
X139986736Y-90444500D01*
X140142164Y-90413584D01*
X140288574Y-90352939D01*
X140420339Y-90264896D01*
X140532396Y-90152839D01*
X140620439Y-90021074D01*
X140681084Y-89874664D01*
X140712000Y-89719236D01*
X140712000Y-89560764D01*
X140681084Y-89405336D01*
X140620439Y-89258926D01*
X140532396Y-89127161D01*
X140420339Y-89015104D01*
X140288574Y-88927061D01*
X140288573Y-88927060D01*
X140288571Y-88927059D01*
X140142164Y-88866416D01*
X139986738Y-88835500D01*
X139986736Y-88835500D01*
X139828264Y-88835500D01*
X139828261Y-88835500D01*
X139672836Y-88866416D01*
X139672834Y-88866416D01*
X139526428Y-88927059D01*
X139394661Y-89015104D01*
X139394657Y-89015107D01*
X139282607Y-89127157D01*
X139282604Y-89127161D01*
X139194559Y-89258928D01*
X139133916Y-89405334D01*
X139133916Y-89405336D01*
X139103000Y-89560761D01*
X138350500Y-89560761D01*
X138350500Y-88546747D01*
X160695500Y-88546747D01*
X160695500Y-88653253D01*
X160719810Y-88743980D01*
X160723067Y-88756135D01*
X160776316Y-88848364D01*
X160776318Y-88848366D01*
X160776320Y-88848369D01*
X160851631Y-88923680D01*
X160851633Y-88923681D01*
X160851635Y-88923683D01*
X160943865Y-88976932D01*
X160943863Y-88976932D01*
X160943867Y-88976933D01*
X160943869Y-88976934D01*
X161046747Y-89004500D01*
X161046749Y-89004500D01*
X161153251Y-89004500D01*
X161153253Y-89004500D01*
X161256131Y-88976934D01*
X161256133Y-88976932D01*
X161256135Y-88976932D01*
X161348364Y-88923683D01*
X161348364Y-88923682D01*
X161348369Y-88923680D01*
X161423680Y-88848369D01*
X161476934Y-88756131D01*
X161504500Y-88653253D01*
X161504500Y-88546747D01*
X161476934Y-88443869D01*
X161476932Y-88443866D01*
X161476932Y-88443864D01*
X161423683Y-88351635D01*
X161423681Y-88351633D01*
X161423680Y-88351631D01*
X161348369Y-88276320D01*
X161348366Y-88276318D01*
X161348364Y-88276316D01*
X161256134Y-88223067D01*
X161256136Y-88223067D01*
X161216217Y-88212371D01*
X161153253Y-88195500D01*
X161046747Y-88195500D01*
X160983782Y-88212371D01*
X160943864Y-88223067D01*
X160851635Y-88276316D01*
X160776316Y-88351635D01*
X160723067Y-88443864D01*
X160723066Y-88443869D01*
X160695500Y-88546747D01*
X138350500Y-88546747D01*
X138350500Y-87020761D01*
X139103000Y-87020761D01*
X139103000Y-87179238D01*
X139133916Y-87334663D01*
X139133916Y-87334665D01*
X139194559Y-87481071D01*
X139194560Y-87481073D01*
X139194561Y-87481074D01*
X139282604Y-87612839D01*
X139394661Y-87724896D01*
X139526426Y-87812939D01*
X139672836Y-87873584D01*
X139828264Y-87904500D01*
X139828265Y-87904500D01*
X139986735Y-87904500D01*
X139986736Y-87904500D01*
X140142164Y-87873584D01*
X140288574Y-87812939D01*
X140420339Y-87724896D01*
X140532396Y-87612839D01*
X140620439Y-87481074D01*
X140681084Y-87334664D01*
X140712000Y-87179236D01*
X140712000Y-87020764D01*
X140681084Y-86865336D01*
X140645990Y-86780612D01*
X140620440Y-86718928D01*
X140620439Y-86718926D01*
X140532396Y-86587161D01*
X140420339Y-86475104D01*
X140288574Y-86387061D01*
X140288573Y-86387060D01*
X140288571Y-86387059D01*
X140142164Y-86326416D01*
X139986738Y-86295500D01*
X139986736Y-86295500D01*
X139828264Y-86295500D01*
X139828261Y-86295500D01*
X139672836Y-86326416D01*
X139672834Y-86326416D01*
X139526428Y-86387059D01*
X139394661Y-86475104D01*
X139394657Y-86475107D01*
X139282607Y-86587157D01*
X139282604Y-86587161D01*
X139194559Y-86718928D01*
X139133916Y-86865334D01*
X139133916Y-86865336D01*
X139103000Y-87020761D01*
X138350500Y-87020761D01*
X138350500Y-86103538D01*
X138350752Y-86096476D01*
X138357738Y-85998793D01*
X138367293Y-85865191D01*
X138369304Y-85851212D01*
X138369923Y-85848369D01*
X138417836Y-85628115D01*
X138421815Y-85614566D01*
X138447110Y-85546747D01*
X138501608Y-85400627D01*
X138507466Y-85387799D01*
X138616901Y-85187385D01*
X138624525Y-85175522D01*
X138761364Y-84992727D01*
X138770600Y-84982067D01*
X138932067Y-84820600D01*
X138942727Y-84811364D01*
X139125522Y-84674525D01*
X139137385Y-84666901D01*
X139337799Y-84557466D01*
X139350627Y-84551608D01*
X139564566Y-84471815D01*
X139578115Y-84467836D01*
X139801215Y-84419303D01*
X139815191Y-84417293D01*
X140046476Y-84400751D01*
X140053538Y-84400500D01*
X140097595Y-84400500D01*
X147065547Y-84400500D01*
X147123738Y-84419407D01*
G37*
%TD.AperFunction*%
%TD*%
M02*
