%TF.GenerationSoftware,KiCad,Pcbnew,9.0.5*%
%TF.CreationDate,2025-11-26T17:53:07-05:00*%
%TF.ProjectId,WINTER,57494e54-4552-42e6-9b69-6361645f7063,3.3*%
%TF.SameCoordinates,Original*%
%TF.FileFunction,Soldermask,Bot*%
%TF.FilePolarity,Negative*%
%FSLAX46Y46*%
G04 Gerber Fmt 4.6, Leading zero omitted, Abs format (unit mm)*
G04 Created by KiCad (PCBNEW 9.0.5) date 2025-11-26 17:53:07*
%MOMM*%
%LPD*%
G01*
G04 APERTURE LIST*
G04 Aperture macros list*
%AMRoundRect*
0 Rectangle with rounded corners*
0 $1 Rounding radius*
0 $2 $3 $4 $5 $6 $7 $8 $9 X,Y pos of 4 corners*
0 Add a 4 corners polygon primitive as box body*
4,1,4,$2,$3,$4,$5,$6,$7,$8,$9,$2,$3,0*
0 Add four circle primitives for the rounded corners*
1,1,$1+$1,$2,$3*
1,1,$1+$1,$4,$5*
1,1,$1+$1,$6,$7*
1,1,$1+$1,$8,$9*
0 Add four rect primitives between the rounded corners*
20,1,$1+$1,$2,$3,$4,$5,0*
20,1,$1+$1,$4,$5,$6,$7,0*
20,1,$1+$1,$6,$7,$8,$9,0*
20,1,$1+$1,$8,$9,$2,$3,0*%
G04 Aperture macros list end*
%ADD10C,0.000000*%
%ADD11C,0.450000*%
%ADD12C,1.100000*%
%ADD13RoundRect,0.244050X-0.269050X0.244050X-0.269050X-0.244050X0.269050X-0.244050X0.269050X0.244050X0*%
%ADD14RoundRect,0.244050X0.244050X0.269050X-0.244050X0.269050X-0.244050X-0.269050X0.244050X-0.269050X0*%
%ADD15RoundRect,0.119050X0.119050X-0.369050X0.119050X0.369050X-0.119050X0.369050X-0.119050X-0.369050X0*%
%ADD16RoundRect,0.038100X1.300000X-1.300000X1.300000X1.300000X-1.300000X1.300000X-1.300000X-1.300000X0*%
%ADD17RoundRect,0.081550X0.369050X-0.081550X0.369050X0.081550X-0.369050X0.081550X-0.369050X-0.081550X0*%
%ADD18RoundRect,0.081550X0.081550X-0.369050X0.081550X0.369050X-0.081550X0.369050X-0.081550X-0.369050X0*%
%ADD19RoundRect,0.038100X2.600000X-2.600000X2.600000X2.600000X-2.600000X2.600000X-2.600000X-2.600000X0*%
%ADD20RoundRect,0.069050X0.381550X-0.069050X0.381550X0.069050X-0.381550X0.069050X-0.381550X-0.069050X0*%
%ADD21RoundRect,0.069050X0.069050X-0.381550X0.069050X0.381550X-0.069050X0.381550X-0.069050X-0.381550X0*%
%ADD22C,2.676200*%
%ADD23RoundRect,0.119050X0.119050X-0.149050X0.119050X0.149050X-0.119050X0.149050X-0.119050X-0.149050X0*%
%ADD24C,1.576200*%
%ADD25RoundRect,0.038100X-0.150000X-0.312500X0.150000X-0.312500X0.150000X0.312500X-0.150000X0.312500X0*%
%ADD26RoundRect,0.038100X-0.300000X-0.150000X0.300000X-0.150000X0.300000X0.150000X-0.300000X0.150000X0*%
%ADD27RoundRect,0.038100X-0.850000X0.850000X-0.850000X-0.850000X0.850000X-0.850000X0.850000X0.850000X0*%
%ADD28C,1.776200*%
%ADD29RoundRect,0.513855X-0.899245X-0.899245X0.899245X-0.899245X0.899245X0.899245X-0.899245X0.899245X0*%
%ADD30C,2.826200*%
%ADD31RoundRect,0.038100X0.850000X-0.850000X0.850000X0.850000X-0.850000X0.850000X-0.850000X-0.850000X0*%
%ADD32C,1.076200*%
%ADD33RoundRect,0.219050X-0.294050X0.219050X-0.294050X-0.219050X0.294050X-0.219050X0.294050X0.219050X0*%
%ADD34RoundRect,0.154050X0.204050X-0.154050X0.204050X0.154050X-0.204050X0.154050X-0.204050X-0.154050X0*%
%ADD35RoundRect,0.219050X0.294050X-0.219050X0.294050X0.219050X-0.294050X0.219050X-0.294050X-0.219050X0*%
%ADD36RoundRect,0.038100X0.500000X-0.500000X0.500000X0.500000X-0.500000X0.500000X-0.500000X-0.500000X0*%
%ADD37RoundRect,0.038100X1.100000X-0.525000X1.100000X0.525000X-1.100000X0.525000X-1.100000X-0.525000X0*%
%ADD38RoundRect,0.219050X0.219050X0.294050X-0.219050X0.294050X-0.219050X-0.294050X0.219050X-0.294050X0*%
%ADD39RoundRect,0.244050X-0.244050X-0.269050X0.244050X-0.269050X0.244050X0.269050X-0.244050X0.269050X0*%
%ADD40RoundRect,0.244050X0.269050X-0.244050X0.269050X0.244050X-0.269050X0.244050X-0.269050X-0.244050X0*%
%ADD41RoundRect,0.038100X0.495000X0.205000X-0.495000X0.205000X-0.495000X-0.205000X0.495000X-0.205000X0*%
%ADD42RoundRect,0.038100X0.862500X0.495000X-0.862500X0.495000X-0.862500X-0.495000X0.862500X-0.495000X0*%
%ADD43RoundRect,0.038100X-0.380000X-0.205000X0.380000X-0.205000X0.380000X0.205000X-0.380000X0.205000X0*%
%ADD44RoundRect,0.106550X-0.226550X-0.106550X0.226550X-0.106550X0.226550X0.106550X-0.226550X0.106550X0*%
%ADD45RoundRect,0.106550X-0.106550X-0.226550X0.106550X-0.226550X0.106550X0.226550X-0.106550X0.226550X0*%
%ADD46RoundRect,0.038100X1.968500X-0.647700X1.968500X0.647700X-1.968500X0.647700X-1.968500X-0.647700X0*%
%ADD47RoundRect,0.219050X-0.219050X-0.294050X0.219050X-0.294050X0.219050X0.294050X-0.219050X0.294050X0*%
%ADD48RoundRect,0.219050X0.269050X-0.219050X0.269050X0.219050X-0.269050X0.219050X-0.269050X-0.219050X0*%
%ADD49RoundRect,0.169050X0.169050X-0.344050X0.169050X0.344050X-0.169050X0.344050X-0.169050X-0.344050X0*%
%ADD50RoundRect,0.169050X0.344050X-0.169050X0.344050X0.169050X-0.344050X0.169050X-0.344050X-0.169050X0*%
%ADD51RoundRect,0.038100X-0.475000X-0.275000X0.475000X-0.275000X0.475000X0.275000X-0.475000X0.275000X0*%
%ADD52RoundRect,0.038100X0.152400X0.228600X-0.152400X0.228600X-0.152400X-0.228600X0.152400X-0.228600X0*%
%ADD53RoundRect,0.038100X-0.228600X0.152400X-0.228600X-0.152400X0.228600X-0.152400X0.228600X0.152400X0*%
%ADD54RoundRect,0.237800X-0.400300X0.237800X-0.400300X-0.237800X0.400300X-0.237800X0.400300X0.237800X0*%
%ADD55RoundRect,0.038100X-0.300000X-0.300000X0.300000X-0.300000X0.300000X0.300000X-0.300000X0.300000X0*%
%ADD56RoundRect,0.119050X-0.119050X-0.594050X0.119050X-0.594050X0.119050X0.594050X-0.119050X0.594050X0*%
%ADD57O,0.976200X1.676200*%
%ADD58RoundRect,0.263607X-0.574493X-0.474493X0.574493X-0.474493X0.574493X0.474493X-0.574493X0.474493X0*%
%ADD59RoundRect,0.260026X-0.728074X-0.728074X0.728074X-0.728074X0.728074X0.728074X-0.728074X0.728074X0*%
%ADD60RoundRect,0.038100X-0.355600X-0.114300X0.355600X-0.114300X0.355600X0.114300X-0.355600X0.114300X0*%
%ADD61RoundRect,0.166550X-0.191550X0.166550X-0.191550X-0.166550X0.191550X-0.166550X0.191550X0.166550X0*%
%ADD62RoundRect,0.102000X-0.700000X0.600000X-0.700000X-0.600000X0.700000X-0.600000X0.700000X0.600000X0*%
%ADD63RoundRect,0.038100X1.100000X-1.100000X1.100000X1.100000X-1.100000X1.100000X-1.100000X-1.100000X0*%
%ADD64C,2.276200*%
G04 APERTURE END LIST*
D10*
G36*
X190149425Y-84813617D02*
G01*
X190149425Y-118063617D01*
X189048398Y-118063617D01*
X189073409Y-85073608D01*
X171649425Y-85071032D01*
X171649425Y-83763617D01*
X189199425Y-83763617D01*
X190149425Y-84813617D01*
G37*
D11*
X151075000Y-96800000D02*
G75*
G02*
X150625000Y-96800000I-225000J0D01*
G01*
X150625000Y-96800000D02*
G75*
G02*
X151075000Y-96800000I225000J0D01*
G01*
D12*
X188050000Y-84525000D02*
G75*
G02*
X189625000Y-86100000I0J-1575000D01*
G01*
D11*
X153350000Y-95875000D02*
G75*
G02*
X152900000Y-95875000I-225000J0D01*
G01*
X152900000Y-95875000D02*
G75*
G02*
X153350000Y-95875000I225000J0D01*
G01*
X152175000Y-96800000D02*
G75*
G02*
X151725000Y-96800000I-225000J0D01*
G01*
X151725000Y-96800000D02*
G75*
G02*
X152175000Y-96800000I225000J0D01*
G01*
%TO.C,U5*%
G36*
X179250000Y-90875000D02*
G01*
X181150000Y-90875000D01*
X181150000Y-86925000D01*
X179250000Y-86925000D01*
X179250000Y-90875000D01*
G37*
%TD*%
D13*
%TO.C,C35*%
X164550000Y-97275000D03*
X164550000Y-95725000D03*
%TD*%
D14*
%TO.C,C17*%
X171250000Y-106800000D03*
X172800000Y-106800000D03*
%TD*%
D15*
%TO.C,U13*%
X175600000Y-97550000D03*
X174300000Y-97550000D03*
X174300000Y-99750000D03*
X174950000Y-99750000D03*
X175600000Y-99750000D03*
%TD*%
D16*
%TO.C,U10*%
X170550000Y-87737500D03*
D17*
X172487500Y-88987500D03*
X172487500Y-88487500D03*
X172487500Y-87987500D03*
X172487500Y-87487500D03*
X172487500Y-86987500D03*
X172487500Y-86487500D03*
D18*
X171800000Y-85800000D03*
X171300000Y-85800000D03*
X170800000Y-85800000D03*
X170300000Y-85800000D03*
X169800000Y-85800000D03*
X169300000Y-85800000D03*
D17*
X168612500Y-86487500D03*
X168612500Y-86987500D03*
X168612500Y-87487500D03*
X168612500Y-87987500D03*
X168612500Y-88487500D03*
X168612500Y-88987500D03*
D18*
X169300000Y-89675000D03*
X169800000Y-89675000D03*
X170300000Y-89675000D03*
X170800000Y-89675000D03*
X171300000Y-89675000D03*
X171800000Y-89675000D03*
%TD*%
D19*
%TO.C,U6*%
X154600000Y-102600000D03*
D20*
X158537500Y-105800000D03*
X158537500Y-105400000D03*
X158537500Y-105000000D03*
X158537500Y-104600000D03*
X158537500Y-104200000D03*
X158537500Y-103800000D03*
X158537500Y-103400000D03*
X158537500Y-103000000D03*
X158537500Y-102600000D03*
X158537500Y-102200000D03*
X158537500Y-101800000D03*
X158537500Y-101400000D03*
X158537500Y-101000000D03*
X158537500Y-100600000D03*
X158537500Y-100200000D03*
X158537500Y-99800000D03*
X158537500Y-99400000D03*
D21*
X157800000Y-98662500D03*
X157400000Y-98662500D03*
X157000000Y-98662500D03*
X156600000Y-98662500D03*
X156200000Y-98662500D03*
X155800000Y-98662500D03*
X155400000Y-98662500D03*
X155000000Y-98662500D03*
X154600000Y-98662500D03*
X154200000Y-98662500D03*
X153800000Y-98662500D03*
X153400000Y-98662500D03*
X153000000Y-98662500D03*
X152600000Y-98662500D03*
X152200000Y-98662500D03*
X151800000Y-98662500D03*
X151400000Y-98662500D03*
D20*
X150662500Y-99400000D03*
X150662500Y-99800000D03*
X150662500Y-100200000D03*
X150662500Y-100600000D03*
X150662500Y-101000000D03*
X150662500Y-101400000D03*
X150662500Y-101800000D03*
X150662500Y-102200000D03*
X150662500Y-102600000D03*
X150662500Y-103000000D03*
X150662500Y-103400000D03*
X150662500Y-103800000D03*
X150662500Y-104200000D03*
X150662500Y-104600000D03*
X150662500Y-105000000D03*
X150662500Y-105400000D03*
X150662500Y-105800000D03*
D21*
X151400000Y-106537500D03*
X151800000Y-106537500D03*
X152200000Y-106537500D03*
X152600000Y-106537500D03*
X153000000Y-106537500D03*
X153400000Y-106537500D03*
X153800000Y-106537500D03*
X154200000Y-106537500D03*
X154600000Y-106537500D03*
X155000000Y-106537500D03*
X155400000Y-106537500D03*
X155800000Y-106537500D03*
X156200000Y-106537500D03*
X156600000Y-106537500D03*
X157000000Y-106537500D03*
X157400000Y-106537500D03*
X157800000Y-106537500D03*
%TD*%
D22*
%TO.C,H3*%
X151300000Y-110600000D03*
%TD*%
%TO.C,H2*%
X177550000Y-110600000D03*
%TD*%
%TO.C,H1*%
X151300000Y-91100000D03*
%TD*%
D23*
%TO.C,C25*%
X174599385Y-90478679D03*
X174599385Y-91118679D03*
%TD*%
%TO.C,C24*%
X175300000Y-90480000D03*
X175300000Y-91120000D03*
%TD*%
D14*
%TO.C,C15*%
X171025000Y-101400000D03*
X172575000Y-101400000D03*
%TD*%
D24*
%TO.C,AE2*%
X188136634Y-116295761D03*
X188136634Y-106595761D03*
%TD*%
D25*
%TO.C,FL1*%
X175462783Y-89312500D03*
D26*
X176162783Y-89000000D03*
X176162783Y-88500000D03*
X176162783Y-88000000D03*
X176162783Y-87500000D03*
D25*
X175462783Y-87187500D03*
D26*
X174762783Y-87500000D03*
X174762783Y-88000000D03*
X174762783Y-88500000D03*
X174762783Y-89000000D03*
%TD*%
D27*
%TO.C,J6*%
X180303888Y-116162189D03*
D28*
X177763888Y-116162189D03*
X175223888Y-116162189D03*
X172683888Y-116162189D03*
%TD*%
D27*
%TO.C,J5*%
X169034500Y-116176000D03*
D28*
X166494500Y-116176000D03*
X163954500Y-116176000D03*
X161414500Y-116176000D03*
X158874500Y-116176000D03*
%TD*%
D29*
%TO.C,J4*%
X148455000Y-85920000D03*
D30*
X152701764Y-85920000D03*
%TD*%
D31*
%TO.C,J7*%
X164375111Y-112580203D03*
D28*
X166915111Y-112580203D03*
X169455111Y-112580203D03*
X171995111Y-112580203D03*
%TD*%
D32*
%TO.C,TP2*%
X174650000Y-109500000D03*
%TD*%
D33*
%TO.C,R17*%
X145407500Y-95525000D03*
X145407500Y-97175000D03*
%TD*%
D14*
%TO.C,C16*%
X178565000Y-102696000D03*
X177015000Y-102696000D03*
%TD*%
D34*
%TO.C,R25*%
X183800000Y-86360000D03*
X183800000Y-85340000D03*
%TD*%
D35*
%TO.C,R5*%
X168150000Y-103475000D03*
X168150000Y-101825000D03*
%TD*%
D14*
%TO.C,C20*%
X162975000Y-97250000D03*
X161425000Y-97250000D03*
%TD*%
D33*
%TO.C,R15*%
X145407500Y-105775000D03*
X145407500Y-107425000D03*
%TD*%
D36*
%TO.C,AE1*%
X184300000Y-88100000D03*
D37*
X185800000Y-89575000D03*
D36*
X187300000Y-88100000D03*
D37*
X185800000Y-86625000D03*
%TD*%
D38*
%TO.C,R8*%
X143982500Y-112850000D03*
X142332500Y-112850000D03*
%TD*%
%TO.C,R38*%
X143982500Y-97100000D03*
X142332500Y-97100000D03*
%TD*%
D39*
%TO.C,C26*%
X184000000Y-92100000D03*
X185550000Y-92100000D03*
%TD*%
D33*
%TO.C,R4*%
X165100000Y-85075000D03*
X165100000Y-86725000D03*
%TD*%
D40*
%TO.C,C22*%
X165100000Y-89775000D03*
X165100000Y-88225000D03*
%TD*%
D41*
%TO.C,Q1*%
X145342500Y-109110000D03*
X145342500Y-109770000D03*
X145342500Y-110430000D03*
X145342500Y-111090000D03*
D42*
X143350000Y-110707500D03*
D43*
X142357500Y-111090000D03*
X142357500Y-110430000D03*
D42*
X143350000Y-109492500D03*
D43*
X142357500Y-109770000D03*
X142357500Y-109110000D03*
%TD*%
D44*
%TO.C,U4*%
X176209000Y-105812000D03*
X176209000Y-105312000D03*
X176209000Y-104812000D03*
X176209000Y-104312000D03*
D45*
X176874000Y-104147000D03*
X177374000Y-104147000D03*
X177874000Y-104147000D03*
D44*
X178539000Y-104312000D03*
X178539000Y-104812000D03*
X178539000Y-105312000D03*
X178539000Y-105812000D03*
D45*
X177874000Y-105977000D03*
X177374000Y-105977000D03*
X176874000Y-105977000D03*
%TD*%
D38*
%TO.C,R35*%
X143982500Y-92350000D03*
X142332500Y-92350000D03*
%TD*%
D46*
%TO.C,LS1*%
X183861299Y-101854751D03*
X183861299Y-95047551D03*
%TD*%
D41*
%TO.C,Q3*%
X145342500Y-88610000D03*
X145342500Y-89270000D03*
X145342500Y-89930000D03*
X145342500Y-90590000D03*
D42*
X143350000Y-90207500D03*
D43*
X142357500Y-90590000D03*
X142357500Y-89930000D03*
D42*
X143350000Y-88992500D03*
D43*
X142357500Y-89270000D03*
X142357500Y-88610000D03*
%TD*%
D33*
%TO.C,R26*%
X171600566Y-95239892D03*
X171600566Y-96889892D03*
%TD*%
D47*
%TO.C,R10*%
X142332500Y-104100000D03*
X143982500Y-104100000D03*
%TD*%
D33*
%TO.C,R19*%
X145407500Y-85275000D03*
X145407500Y-86925000D03*
%TD*%
D38*
%TO.C,R9*%
X143982500Y-105850000D03*
X142332500Y-105850000D03*
%TD*%
D48*
%TO.C,Y1*%
X157070680Y-109374861D03*
X155220680Y-109374861D03*
X155220680Y-107924861D03*
X157070680Y-107924861D03*
%TD*%
D49*
%TO.C,U8*%
X162950000Y-95650000D03*
X162150000Y-95650000D03*
X161350000Y-95650000D03*
X160550000Y-95650000D03*
X159750000Y-95650000D03*
X158950000Y-95650000D03*
D50*
X158950000Y-94650000D03*
D49*
X158950000Y-93650000D03*
X159750000Y-93650000D03*
X160550000Y-93650000D03*
X161350000Y-93650000D03*
X162150000Y-93650000D03*
X162950000Y-93650000D03*
D50*
X162950000Y-94650000D03*
%TD*%
D38*
%TO.C,R6*%
X168575000Y-107850000D03*
X166925000Y-107850000D03*
%TD*%
D33*
%TO.C,R18*%
X145407500Y-92275000D03*
X145407500Y-93925000D03*
%TD*%
D38*
%TO.C,R22*%
X165386665Y-100539402D03*
X163736665Y-100539402D03*
%TD*%
D51*
%TO.C,U7*%
X163461665Y-105924402D03*
X163461665Y-104674402D03*
X163461665Y-103424402D03*
X163461665Y-102174402D03*
X165611665Y-102174402D03*
X165611665Y-103424402D03*
X165611665Y-104674402D03*
X165611665Y-105924402D03*
%TD*%
D14*
%TO.C,C28*%
X168575566Y-95564892D03*
X167025566Y-95564892D03*
%TD*%
D52*
%TO.C,U3*%
X171249998Y-102800002D03*
X171749999Y-102800002D03*
X172249999Y-102800002D03*
X172750000Y-102800002D03*
D53*
X173274998Y-103325000D03*
X173274998Y-103825001D03*
X173274998Y-104325001D03*
X173274998Y-104825002D03*
D52*
X172750000Y-105350000D03*
X172249999Y-105350000D03*
X171749999Y-105350000D03*
X171249998Y-105350000D03*
D53*
X170725000Y-104825002D03*
X170725000Y-104325001D03*
X170725000Y-103825001D03*
X170725000Y-103325000D03*
%TD*%
D38*
%TO.C,R32*%
X143982500Y-107350000D03*
X142332500Y-107350000D03*
%TD*%
%TO.C,R11*%
X143982500Y-95600000D03*
X142332500Y-95600000D03*
%TD*%
D14*
%TO.C,C23*%
X174450566Y-92700000D03*
X172900566Y-92700000D03*
%TD*%
D54*
%TO.C,L1*%
X166875566Y-88175000D03*
X166875566Y-90300000D03*
%TD*%
D40*
%TO.C,C27*%
X170100566Y-96839892D03*
X170100566Y-95289892D03*
%TD*%
D14*
%TO.C,C10*%
X156950000Y-110850000D03*
X155400000Y-110850000D03*
%TD*%
D55*
%TO.C,U5*%
X177900000Y-88100000D03*
X177900000Y-86500000D03*
X177900000Y-89700000D03*
X177900000Y-91300000D03*
X179400000Y-85600000D03*
X181000000Y-85600000D03*
X182500000Y-86500000D03*
X182500000Y-88100000D03*
X182500000Y-89700000D03*
X182500000Y-91300000D03*
X181000000Y-92200000D03*
X179400000Y-92200000D03*
%TD*%
D33*
%TO.C,R14*%
X145407500Y-112775000D03*
X145407500Y-114425000D03*
%TD*%
D14*
%TO.C,C18*%
X178575000Y-101200000D03*
X177025000Y-101200000D03*
%TD*%
D47*
%TO.C,R33*%
X142332500Y-93850000D03*
X143982500Y-93850000D03*
%TD*%
%TO.C,R20*%
X142332500Y-114350000D03*
X143982500Y-114350000D03*
%TD*%
D56*
%TO.C,J1*%
X157750000Y-89725000D03*
X158400000Y-89725000D03*
X159050000Y-89725000D03*
X159700000Y-89725000D03*
X160350000Y-89725000D03*
D57*
X155750000Y-87050000D03*
D58*
X155850000Y-89500000D03*
D59*
X157850000Y-87050000D03*
X160250000Y-87050000D03*
D58*
X162250000Y-89500000D03*
D57*
X162350000Y-87050000D03*
%TD*%
D33*
%TO.C,R16*%
X145407500Y-102525000D03*
X145407500Y-104175000D03*
%TD*%
D13*
%TO.C,C21*%
X161736665Y-103789402D03*
X161736665Y-105339402D03*
%TD*%
D41*
%TO.C,Q2*%
X145342500Y-98860000D03*
X145342500Y-99520000D03*
X145342500Y-100180000D03*
X145342500Y-100840000D03*
D42*
X143350000Y-100457500D03*
D43*
X142357500Y-100840000D03*
X142357500Y-100180000D03*
D42*
X143350000Y-99242500D03*
D43*
X142357500Y-99520000D03*
X142357500Y-98860000D03*
%TD*%
D60*
%TO.C,U2*%
X177349900Y-98950126D03*
X177349900Y-98450000D03*
X177349900Y-97949874D03*
X178950100Y-97949874D03*
X178950100Y-98450000D03*
X178950100Y-98950126D03*
%TD*%
D38*
%TO.C,R36*%
X143982500Y-86850000D03*
X142332500Y-86850000D03*
%TD*%
D61*
%TO.C,L2*%
X173672530Y-89165000D03*
X173672530Y-90135000D03*
%TD*%
D32*
%TO.C,TP1*%
X174650000Y-107200000D03*
%TD*%
D38*
%TO.C,R37*%
X143982500Y-102600000D03*
X142332500Y-102600000D03*
%TD*%
%TO.C,R34*%
X143982500Y-85350000D03*
X142332500Y-85350000D03*
%TD*%
D62*
%TO.C,Y2*%
X168789750Y-92030000D03*
X170989750Y-92030000D03*
X170989750Y-93630000D03*
X168789750Y-93630000D03*
%TD*%
D63*
%TO.C,J3*%
X139907500Y-115040000D03*
D64*
X139907500Y-112500000D03*
X139907500Y-109960000D03*
X139907500Y-107420000D03*
X139907500Y-104880000D03*
X139907500Y-102340000D03*
X139907500Y-99800000D03*
X139907500Y-97260000D03*
X139907500Y-94720000D03*
X139907500Y-92180000D03*
X139907500Y-89640000D03*
X139907500Y-87100000D03*
%TD*%
M02*
