M48
; DRILL file {KiCad 9.0.5} date 2025-11-26T17:53:27-0500
; FORMAT={-:-/ absolute / metric / decimal}
; #@! TF.CreationDate,2025-11-26T17:53:27-05:00
; #@! TF.GenerationSoftware,Kicad,Pcbnew,9.0.5
; #@! TF.FileFunction,Plated,1,6,PTH
FMAT,2
METRIC
; #@! TA.AperFunction,Plated,PTH,ViaDrill
T1C0.200
; #@! TA.AperFunction,Plated,PTH,ViaDrill
T2C0.300
; #@! TA.AperFunction,Plated,PTH,ComponentDrill
T3C0.500
; #@! TA.AperFunction,Plated,PTH,ComponentDrill
T4C1.000
; #@! TA.AperFunction,Plated,PTH,ComponentDrill
T5C1.100
; #@! TA.AperFunction,Plated,PTH,ComponentDrill
T6C1.600
; #@! TA.AperFunction,Plated,PTH,ComponentDrill
T7C2.200
%
G90
G05
T1
X173.5Y-86.95
X174.175Y-86.975
X174.3Y-88.5
X174.8Y-89.525
X174.85Y-86.975
X174.95Y-91.55
X175.4Y-91.225
X175.48Y-88.596
X175.524Y-87.873
X175.525Y-86.7
X175.525Y-89.725
X175.825Y-90.825
X176.1Y-90.35
X176.2Y-86.975
X176.274Y-89.797
X176.625Y-88.0
X176.625Y-89.0
X176.925Y-86.975
T2
X139.8Y-117.4
X141.45Y-93.2
X141.45Y-94.7
X141.45Y-96.2
X141.45Y-103.45
X141.45Y-104.95
X141.45Y-106.45
X141.45Y-113.6
X141.45Y-115.1
X141.45Y-116.6
X141.8Y-117.5
X143.058Y-93.85
X143.058Y-95.6
X143.058Y-101.45
X143.058Y-104.1
X143.058Y-105.85
X143.058Y-108.5
X143.076Y-111.742
X143.082Y-114.35
X143.107Y-86.1
X143.3Y-98.25
X143.7Y-116.0
X143.7Y-117.5
X143.95Y-108.5
X143.95Y-111.75
X144.507Y-88.1
X144.7Y-101.5
X144.75Y-84.65
X145.35Y-88.05
X145.35Y-115.25
X145.7Y-116.0
X145.7Y-117.5
X146.183Y-104.175
X146.183Y-105.775
X146.2Y-90.0
X146.3Y-94.8
X146.3Y-110.4
X147.15Y-92.0
X147.9Y-89.2
X148.2Y-110.4
X148.2Y-117.0
X148.464Y-88.159
X149.0Y-92.35
X149.0Y-95.8
X149.1Y-99.5
X149.3Y-113.4
X149.4Y-89.6
X149.4Y-96.4
X150.05Y-98.15
X150.15Y-114.75
X150.15Y-115.6
X150.15Y-116.6
X150.15Y-117.45
X150.25Y-98.75
X150.464Y-88.159
X150.65Y-108.2
X150.65Y-115.1
X150.65Y-117.05
X150.652Y-116.1
X150.849Y-96.799
X151.15Y-114.75
X151.15Y-115.6
X151.15Y-116.6
X151.15Y-117.5
X151.35Y-96.2
X151.45Y-104.05
X151.55Y-102.45
X151.55Y-104.95
X151.65Y-105.65
X151.95Y-96.8
X152.1Y-107.7
X152.3Y-114.6
X152.35Y-99.581
X152.414Y-88.159
X152.45Y-105.65
X152.5Y-95.4
X152.6Y-100.6
X152.6Y-101.6
X152.6Y-102.6
X152.6Y-103.6
X152.6Y-104.6
X152.95Y-116.55
X153.118Y-95.874
X153.2Y-89.6
X153.3Y-116.15
X153.6Y-100.6
X153.6Y-104.6
X153.75Y-93.5
X153.85Y-101.6
X153.85Y-103.6
X153.929Y-114.8
X154.1Y-92.3
X154.25Y-105.65
X154.446Y-109.375
X154.45Y-93.5
X154.5Y-114.8
X154.6Y-86.2
X154.6Y-88.15
X154.6Y-90.15
X154.6Y-100.6
X154.6Y-102.6
X154.6Y-104.6
X154.904Y-117.173
X155.05Y-105.65
X155.3Y-97.6
X155.35Y-101.6
X155.35Y-103.6
X155.6Y-91.6
X155.6Y-100.6
X155.6Y-104.6
X156.146Y-109.65
X156.3Y-91.7
X156.6Y-100.6
X156.6Y-101.6
X156.6Y-102.6
X156.6Y-103.6
X156.6Y-104.6
X156.8Y-97.0
X157.1Y-91.7
X157.15Y-105.65
X157.4Y-97.5
X157.598Y-116.649
X157.65Y-103.6
X157.7Y-100.4
X157.7Y-101.3
X157.7Y-102.75
X157.75Y-107.925
X157.95Y-108.65
X157.95Y-109.375
X158.029Y-97.5
X158.15Y-107.4
X158.3Y-96.2
X158.3Y-111.1
X158.6Y-110.0
X159.2Y-97.5
X159.4Y-99.2
X159.4Y-110.5
X159.675Y-111.925
X159.95Y-101.15
X160.0Y-103.6
X160.181Y-102.513
X160.2Y-104.4
X160.25Y-105.871
X160.25Y-106.5
X160.4Y-105.1
X160.5Y-101.8
X160.8Y-94.7
X160.808Y-102.349
X160.9Y-101.2
X161.1Y-88.6
X161.4Y-100.7
X161.6Y-94.7
X161.6Y-101.4
X162.1Y-101.8
X162.2Y-92.6
X162.3Y-98.25
X162.5Y-102.3
X163.0Y-92.6
X163.0Y-98.25
X163.3Y-111.1
X163.348Y-86.081
X163.5Y-98.8
X163.6Y-106.8
X163.6Y-107.9
X163.605Y-96.303
X163.755Y-85.5
X163.8Y-91.0
X163.8Y-93.0
X163.9Y-98.1
X164.0Y-99.4
X164.165Y-96.59
X164.9Y-92.1
X165.3Y-111.1
X165.387Y-101.399
X165.6Y-106.8
X165.6Y-107.9
X165.8Y-91.0
X166.2Y-86.2
X166.55Y-94.15
X166.95Y-94.65
X167.0Y-96.5
X167.0Y-97.7
X167.0Y-106.8
X167.05Y-110.05
X167.5Y-92.4
X167.7Y-98.8
X167.9Y-86.6
X168.15Y-101.05
X168.2Y-87.25
X168.2Y-99.4
X168.6Y-104.57
X168.85Y-84.625
X168.9Y-111.1
X169.0Y-96.5
X169.0Y-97.7
X169.085Y-105.08
X169.35Y-103.85
X169.7Y-90.7
X169.826Y-86.938
X169.826Y-87.737
X169.826Y-88.537
X169.922Y-84.629
X170.55Y-87.337
X170.55Y-88.138
X170.6Y-84.651
X171.1Y-111.1
X171.15Y-109.45
X171.226Y-86.938
X171.226Y-87.737
X171.226Y-88.537
X171.25Y-84.625
X171.5Y-100.6
X171.721Y-103.75
X171.85Y-107.45
X172.129Y-100.6
X172.15Y-104.45
X172.35Y-103.75
X172.5Y-84.625
X172.55Y-85.8
X172.831Y-85.163
X173.0Y-96.8
X173.0Y-98.8
X173.1Y-111.1
X173.13Y-113.13
X173.25Y-85.79
X173.3Y-93.7
X173.929Y-93.7
X173.95Y-95.25
X174.3Y-85.6
X174.3Y-99.0
X174.55Y-84.65
X174.7Y-108.3
X174.8Y-96.1
X175.0Y-111.1
X175.0Y-113.1
X175.25Y-105.35
X175.3Y-103.6
X175.6Y-93.1
X175.6Y-98.25
X175.7Y-85.6
X176.107Y-102.303
X176.55Y-84.65
X176.65Y-97.95
X176.65Y-95.0
X176.8Y-91.3
X176.8Y-96.1
X177.0Y-113.1
X177.05Y-104.95
X177.279Y-95.0
X177.5Y-100.2
X177.6Y-93.1
X177.65Y-105.25
X177.851Y-107.5
X177.95Y-106.624
X178.05Y-92.2
X178.129Y-100.205
X178.3Y-95.3
X178.3Y-97.3
X178.3Y-99.6
X178.55Y-84.65
X178.9Y-108.5
X178.901Y-107.5
X179.0Y-113.1
X179.026Y-86.837
X179.026Y-90.837
X179.126Y-88.337
X179.126Y-89.337
X179.301Y-105.566
X179.55Y-93.1
X179.626Y-87.537
X179.626Y-90.138
X179.8Y-104.3
X179.8Y-106.3
X179.95Y-98.45
X180.0Y-107.5
X180.0Y-108.5
X180.001Y-109.5
X180.099Y-110.498
X180.2Y-92.2
X180.205Y-88.337
X180.205Y-89.337
X180.226Y-86.837
X180.226Y-90.837
X180.55Y-84.65
X180.599Y-111.447
X180.8Y-113.1
X180.826Y-87.537
X180.826Y-90.138
X180.9Y-104.3
X181.0Y-106.1
X181.049Y-108.5
X181.05Y-107.5
X181.05Y-109.5
X181.249Y-110.45
X181.326Y-88.337
X181.326Y-89.337
X181.426Y-86.837
X181.426Y-90.837
X181.55Y-93.1
X181.55Y-97.1
X181.55Y-99.1
X181.65Y-111.898
X181.8Y-85.6
X181.8Y-92.2
X182.05Y-113.1
X182.05Y-115.1
X182.05Y-117.1
X182.1Y-110.9
X182.326Y-87.337
X182.326Y-88.862
X182.505Y-89.7
X182.55Y-84.65
X182.8Y-92.2
X183.126Y-87.337
X183.126Y-88.862
X183.55Y-91.1
X183.55Y-93.1
X183.55Y-97.1
X183.55Y-99.1
X183.926Y-87.138
X183.926Y-89.062
X184.55Y-84.65
X185.011Y-99.424
X185.35Y-87.65
X185.35Y-88.55
X185.55Y-91.1
X185.55Y-93.1
X185.55Y-97.1
X185.55Y-99.1
X185.55Y-105.1
X185.55Y-107.1
X185.55Y-109.1
X185.55Y-111.1
X185.55Y-113.1
X185.55Y-115.1
X186.3Y-87.65
X186.3Y-88.55
X186.55Y-84.65
X187.027Y-99.449
X187.55Y-91.1
X187.55Y-93.1
X187.55Y-97.1
X187.55Y-99.1
X187.55Y-105.1
X187.55Y-109.1
X187.55Y-111.1
X187.55Y-113.1
X187.55Y-115.1
X189.0Y-85.15
X189.5Y-87.1
X189.5Y-89.1
X189.5Y-91.1
X189.5Y-93.1
X189.5Y-95.1
X189.5Y-97.1
X189.5Y-99.1
X189.5Y-101.1
X189.5Y-103.1
X189.5Y-105.1
X189.5Y-107.1
X189.5Y-109.1
X189.5Y-111.1
X189.5Y-113.1
X189.5Y-115.1
X189.5Y-117.1
T4
X158.874Y-116.176
X161.415Y-116.176
X163.954Y-116.176
X164.375Y-112.58
X166.494Y-116.176
X166.915Y-112.58
X169.034Y-116.176
X169.455Y-112.58
X171.995Y-112.58
X172.684Y-116.162
X175.224Y-116.162
X177.764Y-116.162
X180.304Y-116.162
T5
X139.907Y-87.1
X139.907Y-89.64
X139.907Y-92.18
X139.907Y-94.72
X139.907Y-97.26
X139.907Y-99.8
X139.907Y-102.34
X139.907Y-104.88
X139.907Y-107.42
X139.907Y-109.96
X139.907Y-112.5
X139.907Y-115.04
T6
X148.455Y-85.92
X152.702Y-85.92
T7
X151.3Y-91.1
X151.3Y-110.6
X177.55Y-110.6
T3
X155.75Y-86.7G85X155.75Y-87.4
G05
X162.35Y-86.7G85X162.35Y-87.4
G05
M30
