%TF.GenerationSoftware,KiCad,Pcbnew,9.0.5*%
%TF.CreationDate,2025-11-26T17:53:07-05:00*%
%TF.ProjectId,WINTER,57494e54-4552-42e6-9b69-6361645f7063,3.3*%
%TF.SameCoordinates,Original*%
%TF.FileFunction,Paste,Top*%
%TF.FilePolarity,Positive*%
%FSLAX46Y46*%
G04 Gerber Fmt 4.6, Leading zero omitted, Abs format (unit mm)*
G04 Created by KiCad (PCBNEW 9.0.5) date 2025-11-26 17:53:07*
%MOMM*%
%LPD*%
G01*
G04 APERTURE LIST*
G04 Aperture macros list*
%AMRoundRect*
0 Rectangle with rounded corners*
0 $1 Rounding radius*
0 $2 $3 $4 $5 $6 $7 $8 $9 X,Y pos of 4 corners*
0 Add a 4 corners polygon primitive as box body*
4,1,4,$2,$3,$4,$5,$6,$7,$8,$9,$2,$3,0*
0 Add four circle primitives for the rounded corners*
1,1,$1+$1,$2,$3*
1,1,$1+$1,$4,$5*
1,1,$1+$1,$6,$7*
1,1,$1+$1,$8,$9*
0 Add four rect primitives between the rounded corners*
20,1,$1+$1,$2,$3,$4,$5,0*
20,1,$1+$1,$4,$5,$6,$7,0*
20,1,$1+$1,$6,$7,$8,$9,0*
20,1,$1+$1,$8,$9,$2,$3,0*%
%AMFreePoly0*
4,1,6,0.220000,-0.105000,-0.180000,-0.105000,-0.180000,-0.075000,0.000000,0.105000,0.220000,0.105000,0.220000,-0.105000,0.220000,-0.105000,$1*%
%AMFreePoly1*
4,1,6,0.220000,-0.105000,0.000000,-0.105000,-0.180000,0.075000,-0.180000,0.105000,0.220000,0.105000,0.220000,-0.105000,0.220000,-0.105000,$1*%
%AMFreePoly2*
4,1,6,0.180000,-0.075000,0.180000,-0.105000,-0.220000,-0.105000,-0.220000,0.105000,0.000000,0.105000,0.180000,-0.075000,0.180000,-0.075000,$1*%
%AMFreePoly3*
4,1,6,0.180000,0.075000,0.000000,-0.105000,-0.220000,-0.105000,-0.220000,0.105000,0.180000,0.105000,0.180000,0.075000,0.180000,0.075000,$1*%
G04 Aperture macros list end*
%ADD10RoundRect,0.112500X-0.159099X0.000000X0.000000X-0.159099X0.159099X0.000000X0.000000X0.159099X0*%
%ADD11FreePoly0,270.000000*%
%ADD12FreePoly1,270.000000*%
%ADD13FreePoly2,270.000000*%
%ADD14FreePoly3,270.000000*%
%ADD15RoundRect,0.100000X0.425000X0.100000X-0.425000X0.100000X-0.425000X-0.100000X0.425000X-0.100000X0*%
%ADD16RoundRect,0.050000X-0.050000X0.250000X-0.050000X-0.250000X0.050000X-0.250000X0.050000X0.250000X0*%
%ADD17R,0.812800X0.254000*%
%ADD18R,1.752600X2.489200*%
%ADD19RoundRect,0.200000X0.275000X-0.200000X0.275000X0.200000X-0.275000X0.200000X-0.275000X-0.200000X0*%
%ADD20RoundRect,0.200000X-0.200000X-0.275000X0.200000X-0.275000X0.200000X0.275000X-0.200000X0.275000X0*%
%ADD21RoundRect,0.147500X-0.147500X-0.172500X0.147500X-0.172500X0.147500X0.172500X-0.147500X0.172500X0*%
%ADD22R,0.250000X0.180000*%
%ADD23RoundRect,0.225000X-0.225000X-0.250000X0.225000X-0.250000X0.225000X0.250000X-0.225000X0.250000X0*%
%ADD24RoundRect,0.225000X-0.250000X0.225000X-0.250000X-0.225000X0.250000X-0.225000X0.250000X0.225000X0*%
%ADD25RoundRect,0.187500X-0.862500X-0.437500X0.862500X-0.437500X0.862500X0.437500X-0.862500X0.437500X0*%
%ADD26RoundRect,0.187500X-0.437500X0.862500X-0.437500X-0.862500X0.437500X-0.862500X0.437500X0.862500X0*%
%ADD27RoundRect,0.225000X0.250000X-0.225000X0.250000X0.225000X-0.250000X0.225000X-0.250000X-0.225000X0*%
%ADD28RoundRect,0.225000X0.225000X0.250000X-0.225000X0.250000X-0.225000X-0.250000X0.225000X-0.250000X0*%
%ADD29RoundRect,0.200000X0.200000X0.275000X-0.200000X0.275000X-0.200000X-0.275000X0.200000X-0.275000X0*%
%ADD30R,0.838200X1.295400*%
%ADD31RoundRect,0.218750X0.218750X0.256250X-0.218750X0.256250X-0.218750X-0.256250X0.218750X-0.256250X0*%
%ADD32R,1.200000X0.800000*%
%ADD33R,2.000000X1.500000*%
%ADD34RoundRect,0.200000X-0.275000X0.200000X-0.275000X-0.200000X0.275000X-0.200000X0.275000X0.200000X0*%
G04 APERTURE END LIST*
D10*
%TO.C,U15*%
X151025000Y-101080000D03*
D11*
X150700000Y-101510000D03*
D12*
X151350000Y-101510000D03*
D13*
X150700000Y-100650000D03*
D14*
X151350000Y-100650000D03*
%TD*%
D15*
%TO.C,U9*%
X146475000Y-97150000D03*
X146475000Y-96450000D03*
D16*
X146550000Y-95650000D03*
X146050000Y-95650000D03*
X145550000Y-95650000D03*
X145050000Y-95650000D03*
D15*
X145125000Y-96450000D03*
X145125000Y-97150000D03*
D16*
X145050000Y-97950000D03*
X145550000Y-97950000D03*
X146050000Y-97950000D03*
X146550000Y-97950000D03*
%TD*%
D17*
%TO.C,U1*%
X152100000Y-117100000D03*
X152100000Y-116599998D03*
X152100000Y-116099999D03*
X152100000Y-115600000D03*
X152100000Y-115099998D03*
X149204400Y-115099998D03*
X149204400Y-115600000D03*
X149204400Y-116099999D03*
X149204400Y-116599998D03*
X149204400Y-117100000D03*
D18*
X150652200Y-116099999D03*
%TD*%
D19*
%TO.C,R23*%
X149000000Y-93175000D03*
X149000000Y-94825000D03*
%TD*%
D20*
%TO.C,R21*%
X183825000Y-104800000D03*
X182175000Y-104800000D03*
%TD*%
D21*
%TO.C,L3*%
X180515000Y-106800000D03*
X181485000Y-106800000D03*
%TD*%
D22*
%TO.C,FL2*%
X180493302Y-105316337D03*
X180493302Y-105701337D03*
X179993302Y-105701337D03*
X179993302Y-105316337D03*
X180243302Y-104931337D03*
%TD*%
D23*
%TO.C,C32*%
X151600000Y-113400000D03*
X150050000Y-113400000D03*
%TD*%
D24*
%TO.C,C31*%
X148200000Y-113075000D03*
X148200000Y-111525000D03*
%TD*%
%TO.C,C30*%
X146400000Y-113075000D03*
X146400000Y-111525000D03*
%TD*%
D23*
%TO.C,C14*%
X146425000Y-99800000D03*
X147975000Y-99800000D03*
%TD*%
D25*
%TO.C,AE2*%
X185536634Y-116445761D03*
D26*
X183561634Y-114945761D03*
X183561634Y-107945761D03*
D25*
X185536634Y-106445761D03*
D26*
X183561634Y-111445761D03*
%TD*%
D27*
%TO.C,C12*%
X146900000Y-115625000D03*
X146900000Y-117175000D03*
%TD*%
%TO.C,C34*%
X148000000Y-96425000D03*
X148000000Y-97975000D03*
%TD*%
D28*
%TO.C,C33*%
X144225000Y-91200000D03*
X145775000Y-91200000D03*
%TD*%
D19*
%TO.C,R13*%
X146500000Y-102925000D03*
X146500000Y-101275000D03*
%TD*%
D29*
%TO.C,R12*%
X147525000Y-93200000D03*
X145875000Y-93200000D03*
%TD*%
D24*
%TO.C,C13*%
X182000000Y-108025000D03*
X182000000Y-109575000D03*
%TD*%
D27*
%TO.C,C11*%
X153926489Y-117148245D03*
X153926489Y-115598245D03*
%TD*%
D30*
%TO.C,U11*%
X188136633Y-94238861D03*
X187036635Y-94238861D03*
X185936635Y-94238861D03*
X184836634Y-94238861D03*
X183736634Y-94238861D03*
X182636634Y-94238861D03*
X181536633Y-94238861D03*
X180436633Y-94238861D03*
X179336633Y-94238861D03*
X179336635Y-103052661D03*
X180436633Y-103052661D03*
X181536633Y-103052661D03*
X182636634Y-103052661D03*
X183736634Y-103052661D03*
X184836634Y-103052661D03*
X185936635Y-103052661D03*
X187036635Y-103052661D03*
X188136635Y-103052661D03*
%TD*%
D31*
%TO.C,D3*%
X155487500Y-113900000D03*
X153912500Y-113900000D03*
%TD*%
D27*
%TO.C,C2*%
X160550000Y-113475000D03*
X160550000Y-111925000D03*
%TD*%
D28*
%TO.C,C9*%
X158400000Y-98650000D03*
X156850000Y-98650000D03*
%TD*%
D24*
%TO.C,C4*%
X150650000Y-103575000D03*
X150650000Y-105125000D03*
%TD*%
D20*
%TO.C,R29*%
X168025000Y-94350000D03*
X169675000Y-94350000D03*
%TD*%
D24*
%TO.C,C3*%
X157850000Y-104875000D03*
X157850000Y-106425000D03*
%TD*%
D23*
%TO.C,C5*%
X154200000Y-106650000D03*
X155750000Y-106650000D03*
%TD*%
D19*
%TO.C,R7*%
X155826489Y-117198245D03*
X155826489Y-115548245D03*
%TD*%
D27*
%TO.C,C8*%
X159400000Y-107175000D03*
X159400000Y-105625000D03*
%TD*%
D19*
%TO.C,R2*%
X158950000Y-103450000D03*
X158950000Y-101800000D03*
%TD*%
D20*
%TO.C,R28*%
X168025000Y-110050000D03*
X169675000Y-110050000D03*
%TD*%
D28*
%TO.C,C29*%
X177825000Y-94200000D03*
X176275000Y-94200000D03*
%TD*%
D32*
%TO.C,J2*%
X170375000Y-99025000D03*
X170375000Y-100125000D03*
X170375000Y-101225000D03*
X170375000Y-102325000D03*
X170375000Y-103425000D03*
X170375000Y-104525000D03*
X170375000Y-105625000D03*
X170375000Y-106725000D03*
D33*
X172575000Y-109195000D03*
X164375000Y-109195000D03*
X164375000Y-95305000D03*
X172575000Y-95305000D03*
%TD*%
D24*
%TO.C,C7*%
X150950000Y-97875000D03*
X150950000Y-99425000D03*
%TD*%
D19*
%TO.C,R3*%
X176150000Y-104675000D03*
X176150000Y-103025000D03*
%TD*%
D34*
%TO.C,R1*%
X148100000Y-105250000D03*
X148100000Y-106900000D03*
%TD*%
D29*
%TO.C,R30*%
X146575000Y-106850000D03*
X144925000Y-106850000D03*
%TD*%
D23*
%TO.C,C6*%
X151175000Y-106650000D03*
X152725000Y-106650000D03*
%TD*%
%TO.C,C1*%
X153475000Y-98650000D03*
X155025000Y-98650000D03*
%TD*%
M02*
