%TF.GenerationSoftware,KiCad,Pcbnew,9.0.5*%
%TF.CreationDate,2025-11-26T17:53:07-05:00*%
%TF.ProjectId,WINTER,57494e54-4552-42e6-9b69-6361645f7063,3.3*%
%TF.SameCoordinates,Original*%
%TF.FileFunction,Soldermask,Top*%
%TF.FilePolarity,Negative*%
%FSLAX46Y46*%
G04 Gerber Fmt 4.6, Leading zero omitted, Abs format (unit mm)*
G04 Created by KiCad (PCBNEW 9.0.5) date 2025-11-26 17:53:07*
%MOMM*%
%LPD*%
G01*
G04 APERTURE LIST*
G04 Aperture macros list*
%AMRoundRect*
0 Rectangle with rounded corners*
0 $1 Rounding radius*
0 $2 $3 $4 $5 $6 $7 $8 $9 X,Y pos of 4 corners*
0 Add a 4 corners polygon primitive as box body*
4,1,4,$2,$3,$4,$5,$6,$7,$8,$9,$2,$3,0*
0 Add four circle primitives for the rounded corners*
1,1,$1+$1,$2,$3*
1,1,$1+$1,$4,$5*
1,1,$1+$1,$6,$7*
1,1,$1+$1,$8,$9*
0 Add four rect primitives between the rounded corners*
20,1,$1+$1,$2,$3,$4,$5,0*
20,1,$1+$1,$4,$5,$6,$7,0*
20,1,$1+$1,$6,$7,$8,$9,0*
20,1,$1+$1,$8,$9,$2,$3,0*%
%AMFreePoly0*
4,1,6,0.180000,-0.105000,-0.180000,-0.105000,-0.180000,-0.075000,0.000000,0.105000,0.180000,0.105000,0.180000,-0.105000,0.180000,-0.105000,$1*%
%AMFreePoly1*
4,1,6,0.180000,-0.105000,0.000000,-0.105000,-0.180000,0.075000,-0.180000,0.105000,0.180000,0.105000,0.180000,-0.105000,0.180000,-0.105000,$1*%
%AMFreePoly2*
4,1,6,0.180000,-0.075000,0.180000,-0.105000,-0.180000,-0.105000,-0.180000,0.105000,0.000000,0.105000,0.180000,-0.075000,0.180000,-0.075000,$1*%
%AMFreePoly3*
4,1,6,0.180000,0.075000,0.000000,-0.105000,-0.180000,-0.105000,-0.180000,0.105000,0.180000,0.105000,0.180000,0.075000,0.180000,0.075000,$1*%
%AMFreePoly4*
4,1,39,0.526941,0.776941,0.538100,0.750000,0.538100,-0.750000,0.526941,-0.776941,0.500000,-0.788100,0.000000,-0.788100,-0.010328,-0.783822,-0.065263,-0.783822,-0.075124,-0.782524,-0.201203,-0.748742,-0.210392,-0.744936,-0.323431,-0.679673,-0.331322,-0.673618,-0.423618,-0.581322,-0.429673,-0.573431,-0.494936,-0.460392,-0.498742,-0.451203,-0.532524,-0.325124,-0.533822,-0.315263,-0.533822,-0.260328,
-0.538100,-0.250000,-0.538100,0.250000,-0.533822,0.260328,-0.533822,0.315263,-0.532524,0.325124,-0.498742,0.451203,-0.494936,0.460392,-0.429673,0.573431,-0.423618,0.581322,-0.331322,0.673618,-0.323431,0.679673,-0.210392,0.744936,-0.201203,0.748742,-0.075124,0.782524,-0.065263,0.783822,-0.010328,0.783822,0.000000,0.788100,0.500000,0.788100,0.526941,0.776941,0.526941,0.776941,
$1*%
%AMFreePoly5*
4,1,39,0.010328,0.783822,0.065263,0.783822,0.075124,0.782524,0.201203,0.748742,0.210392,0.744936,0.323431,0.679673,0.331322,0.673618,0.423618,0.581322,0.429673,0.573431,0.494936,0.460392,0.498742,0.451203,0.532524,0.325124,0.533822,0.315263,0.533822,0.260328,0.538100,0.250000,0.538100,-0.250000,0.533822,-0.260328,0.533822,-0.315263,0.532524,-0.325124,0.498742,-0.451203,
0.494936,-0.460392,0.429673,-0.573431,0.423618,-0.581322,0.331322,-0.673618,0.323431,-0.679673,0.210392,-0.744936,0.201203,-0.748742,0.075124,-0.782524,0.065263,-0.783822,0.010328,-0.783822,0.000000,-0.788100,-0.500000,-0.788100,-0.526941,-0.776941,-0.538100,-0.750000,-0.538100,0.750000,-0.526941,0.776941,-0.500000,0.788100,0.000000,0.788100,0.010328,0.783822,0.010328,0.783822,
$1*%
G04 Aperture macros list end*
%ADD10C,0.000000*%
%ADD11C,0.450000*%
%ADD12C,1.100000*%
%ADD13RoundRect,0.120000X-0.169706X0.000000X0.000000X-0.169706X0.169706X0.000000X0.000000X0.169706X0*%
%ADD14FreePoly0,270.000000*%
%ADD15FreePoly1,270.000000*%
%ADD16FreePoly2,270.000000*%
%ADD17FreePoly3,270.000000*%
%ADD18RoundRect,0.119050X0.444050X0.119050X-0.444050X0.119050X-0.444050X-0.119050X0.444050X-0.119050X0*%
%ADD19RoundRect,0.069050X-0.069050X0.269050X-0.069050X-0.269050X0.069050X-0.269050X0.069050X0.269050X0*%
%ADD20RoundRect,0.038100X0.406400X0.127000X-0.406400X0.127000X-0.406400X-0.127000X0.406400X-0.127000X0*%
%ADD21RoundRect,0.038100X0.876300X1.244600X-0.876300X1.244600X-0.876300X-1.244600X0.876300X-1.244600X0*%
%ADD22RoundRect,0.219050X0.294050X-0.219050X0.294050X0.219050X-0.294050X0.219050X-0.294050X-0.219050X0*%
%ADD23RoundRect,0.219050X-0.219050X-0.294050X0.219050X-0.294050X0.219050X0.294050X-0.219050X0.294050X0*%
%ADD24RoundRect,0.166550X-0.166550X-0.191550X0.166550X-0.191550X0.166550X0.191550X-0.166550X0.191550X0*%
%ADD25C,3.576200*%
%ADD26C,2.676200*%
%ADD27RoundRect,0.038100X-0.125000X-0.090000X0.125000X-0.090000X0.125000X0.090000X-0.125000X0.090000X0*%
%ADD28RoundRect,0.244050X-0.244050X-0.269050X0.244050X-0.269050X0.244050X0.269050X-0.244050X0.269050X0*%
%ADD29RoundRect,0.244050X-0.269050X0.244050X-0.269050X-0.244050X0.269050X-0.244050X0.269050X0.244050X0*%
%ADD30RoundRect,0.198930X-0.889170X-0.464170X0.889170X-0.464170X0.889170X0.464170X-0.889170X0.464170X0*%
%ADD31RoundRect,0.198930X-0.464170X0.889170X-0.464170X-0.889170X0.464170X-0.889170X0.464170X0.889170X0*%
%ADD32C,1.576200*%
%ADD33RoundRect,0.244050X0.269050X-0.244050X0.269050X0.244050X-0.269050X0.244050X-0.269050X-0.244050X0*%
%ADD34RoundRect,0.244050X0.244050X0.269050X-0.244050X0.269050X-0.244050X-0.269050X0.244050X-0.269050X0*%
%ADD35RoundRect,0.219050X0.219050X0.294050X-0.219050X0.294050X-0.219050X-0.294050X0.219050X-0.294050X0*%
%ADD36RoundRect,0.038100X-0.850000X0.850000X-0.850000X-0.850000X0.850000X-0.850000X0.850000X0.850000X0*%
%ADD37C,1.776200*%
%ADD38RoundRect,0.038100X-0.419100X0.647700X-0.419100X-0.647700X0.419100X-0.647700X0.419100X0.647700X0*%
%ADD39RoundRect,0.237800X0.237800X0.275300X-0.237800X0.275300X-0.237800X-0.275300X0.237800X-0.275300X0*%
%ADD40RoundRect,0.513855X-0.899245X-0.899245X0.899245X-0.899245X0.899245X0.899245X-0.899245X0.899245X0*%
%ADD41C,2.826200*%
%ADD42RoundRect,0.038100X0.600000X-0.400000X0.600000X0.400000X-0.600000X0.400000X-0.600000X-0.400000X0*%
%ADD43RoundRect,0.038100X1.000000X-0.750000X1.000000X0.750000X-1.000000X0.750000X-1.000000X-0.750000X0*%
%ADD44RoundRect,0.219050X-0.294050X0.219050X-0.294050X-0.219050X0.294050X-0.219050X0.294050X0.219050X0*%
%ADD45RoundRect,0.038100X0.850000X-0.850000X0.850000X0.850000X-0.850000X0.850000X-0.850000X-0.850000X0*%
%ADD46FreePoly4,0.000000*%
%ADD47FreePoly5,0.000000*%
%ADD48O,0.976200X1.676200*%
%ADD49RoundRect,0.038100X1.100000X-1.100000X1.100000X1.100000X-1.100000X1.100000X-1.100000X-1.100000X0*%
%ADD50C,2.276200*%
G04 APERTURE END LIST*
D10*
G36*
X190150000Y-84800000D02*
G01*
X190150000Y-118050000D01*
X189049088Y-118050000D01*
X189075000Y-85075000D01*
X171650000Y-85075000D01*
X171650000Y-83750000D01*
X189200000Y-83750000D01*
X190150000Y-84800000D01*
G37*
D11*
X151075000Y-96800000D02*
G75*
G02*
X150625000Y-96800000I-225000J0D01*
G01*
X150625000Y-96800000D02*
G75*
G02*
X151075000Y-96800000I225000J0D01*
G01*
X153350000Y-95875000D02*
G75*
G02*
X152900000Y-95875000I-225000J0D01*
G01*
X152900000Y-95875000D02*
G75*
G02*
X153350000Y-95875000I225000J0D01*
G01*
X152175000Y-96800000D02*
G75*
G02*
X151725000Y-96800000I-225000J0D01*
G01*
X151725000Y-96800000D02*
G75*
G02*
X152175000Y-96800000I225000J0D01*
G01*
D12*
X188050000Y-84525000D02*
G75*
G02*
X189625000Y-86100000I0J-1575000D01*
G01*
%TO.C,JP1*%
G36*
X157800000Y-112100000D02*
G01*
X158100000Y-112100000D01*
X158100000Y-113600000D01*
X157800000Y-113600000D01*
X157800000Y-112100000D01*
G37*
%TD*%
D13*
%TO.C,U15*%
X151025000Y-101080000D03*
D14*
X150700000Y-101510000D03*
D15*
X151350000Y-101510000D03*
D16*
X150700000Y-100650000D03*
D17*
X151350000Y-100650000D03*
%TD*%
D18*
%TO.C,U9*%
X146475000Y-97150000D03*
X146475000Y-96450000D03*
D19*
X146550000Y-95650000D03*
X146050000Y-95650000D03*
X145550000Y-95650000D03*
X145050000Y-95650000D03*
D18*
X145125000Y-96450000D03*
X145125000Y-97150000D03*
D19*
X145050000Y-97950000D03*
X145550000Y-97950000D03*
X146050000Y-97950000D03*
X146550000Y-97950000D03*
%TD*%
D20*
%TO.C,U1*%
X152100000Y-117100000D03*
X152100000Y-116599998D03*
X152100000Y-116099999D03*
X152100000Y-115600000D03*
X152100000Y-115099998D03*
X149204400Y-115099998D03*
X149204400Y-115600000D03*
X149204400Y-116099999D03*
X149204400Y-116599998D03*
X149204400Y-117100000D03*
D21*
X150652200Y-116099999D03*
%TD*%
D22*
%TO.C,R23*%
X149000000Y-93175000D03*
X149000000Y-94825000D03*
%TD*%
D23*
%TO.C,R21*%
X183825000Y-104800000D03*
X182175000Y-104800000D03*
%TD*%
D24*
%TO.C,L3*%
X180515000Y-106800000D03*
X181485000Y-106800000D03*
%TD*%
D25*
%TO.C,H3*%
X151300000Y-110600000D03*
D26*
X151300000Y-110600000D03*
%TD*%
D25*
%TO.C,H2*%
X177550000Y-110600000D03*
D26*
X177550000Y-110600000D03*
%TD*%
D25*
%TO.C,H1*%
X151300000Y-91100000D03*
D26*
X151300000Y-91100000D03*
%TD*%
D27*
%TO.C,FL2*%
X180493302Y-105316337D03*
X180493302Y-105701337D03*
X179993302Y-105701337D03*
X179993302Y-105316337D03*
X180243302Y-104931337D03*
%TD*%
D28*
%TO.C,C32*%
X151600000Y-113400000D03*
X150050000Y-113400000D03*
%TD*%
D29*
%TO.C,C31*%
X148200000Y-113075000D03*
X148200000Y-111525000D03*
%TD*%
%TO.C,C30*%
X146400000Y-113075000D03*
X146400000Y-111525000D03*
%TD*%
D28*
%TO.C,C14*%
X146425000Y-99800000D03*
X147975000Y-99800000D03*
%TD*%
D30*
%TO.C,AE2*%
X185536634Y-116445761D03*
D31*
X183561634Y-114945761D03*
X183561634Y-107945761D03*
D30*
X185536634Y-106445761D03*
D31*
X183561634Y-111445761D03*
D32*
X188136634Y-116295761D03*
X188136634Y-106595761D03*
%TD*%
D33*
%TO.C,C12*%
X146900000Y-115625000D03*
X146900000Y-117175000D03*
%TD*%
%TO.C,C34*%
X148000000Y-96425000D03*
X148000000Y-97975000D03*
%TD*%
D34*
%TO.C,C33*%
X144225000Y-91200000D03*
X145775000Y-91200000D03*
%TD*%
D22*
%TO.C,R13*%
X146500000Y-102925000D03*
X146500000Y-101275000D03*
%TD*%
D35*
%TO.C,R12*%
X147525000Y-93200000D03*
X145875000Y-93200000D03*
%TD*%
D36*
%TO.C,J6*%
X180303888Y-116162189D03*
D37*
X177763888Y-116162189D03*
X175223888Y-116162189D03*
X172683888Y-116162189D03*
%TD*%
D29*
%TO.C,C13*%
X182000000Y-108025000D03*
X182000000Y-109575000D03*
%TD*%
D33*
%TO.C,C11*%
X153926489Y-117148245D03*
X153926489Y-115598245D03*
%TD*%
D38*
%TO.C,U11*%
X188136633Y-94238861D03*
X187036635Y-94238861D03*
X185936635Y-94238861D03*
X184836634Y-94238861D03*
X183736634Y-94238861D03*
X182636634Y-94238861D03*
X181536633Y-94238861D03*
X180436633Y-94238861D03*
X179336633Y-94238861D03*
X179336635Y-103052661D03*
X180436633Y-103052661D03*
X181536633Y-103052661D03*
X182636634Y-103052661D03*
X183736634Y-103052661D03*
X184836634Y-103052661D03*
X185936635Y-103052661D03*
X187036635Y-103052661D03*
X188136635Y-103052661D03*
%TD*%
D39*
%TO.C,D3*%
X155487500Y-113900000D03*
X153912500Y-113900000D03*
%TD*%
D36*
%TO.C,J5*%
X169034500Y-116176000D03*
D37*
X166494500Y-116176000D03*
X163954500Y-116176000D03*
X161414500Y-116176000D03*
X158874500Y-116176000D03*
%TD*%
D33*
%TO.C,C2*%
X160550000Y-113475000D03*
X160550000Y-111925000D03*
%TD*%
D34*
%TO.C,C9*%
X158400000Y-98650000D03*
X156850000Y-98650000D03*
%TD*%
D29*
%TO.C,C4*%
X150650000Y-103575000D03*
X150650000Y-105125000D03*
%TD*%
D40*
%TO.C,J4*%
X148455000Y-85920000D03*
D41*
X152701764Y-85920000D03*
%TD*%
D23*
%TO.C,R29*%
X168025000Y-94350000D03*
X169675000Y-94350000D03*
%TD*%
D29*
%TO.C,C3*%
X157850000Y-104875000D03*
X157850000Y-106425000D03*
%TD*%
D28*
%TO.C,C5*%
X154200000Y-106650000D03*
X155750000Y-106650000D03*
%TD*%
D22*
%TO.C,R7*%
X155826489Y-117198245D03*
X155826489Y-115548245D03*
%TD*%
D33*
%TO.C,C8*%
X159400000Y-107175000D03*
X159400000Y-105625000D03*
%TD*%
D22*
%TO.C,R2*%
X158950000Y-103450000D03*
X158950000Y-101800000D03*
%TD*%
D23*
%TO.C,R28*%
X168025000Y-110050000D03*
X169675000Y-110050000D03*
%TD*%
D34*
%TO.C,C29*%
X177825000Y-94200000D03*
X176275000Y-94200000D03*
%TD*%
D42*
%TO.C,J2*%
X170375000Y-99025000D03*
X170375000Y-100125000D03*
X170375000Y-101225000D03*
X170375000Y-102325000D03*
X170375000Y-103425000D03*
X170375000Y-104525000D03*
X170375000Y-105625000D03*
X170375000Y-106725000D03*
D43*
X172575000Y-109195000D03*
X164375000Y-109195000D03*
X164375000Y-95305000D03*
X172575000Y-95305000D03*
%TD*%
D29*
%TO.C,C7*%
X150950000Y-97875000D03*
X150950000Y-99425000D03*
%TD*%
D22*
%TO.C,R3*%
X176150000Y-104675000D03*
X176150000Y-103025000D03*
%TD*%
D44*
%TO.C,R1*%
X148100000Y-105250000D03*
X148100000Y-106900000D03*
%TD*%
D35*
%TO.C,R30*%
X146575000Y-106850000D03*
X144925000Y-106850000D03*
%TD*%
D45*
%TO.C,J7*%
X164375111Y-112580203D03*
D37*
X166915111Y-112580203D03*
X169455111Y-112580203D03*
X171995111Y-112580203D03*
%TD*%
D46*
%TO.C,JP1*%
X157300000Y-112850000D03*
D47*
X158600000Y-112850000D03*
%TD*%
D28*
%TO.C,C6*%
X151175000Y-106650000D03*
X152725000Y-106650000D03*
%TD*%
%TO.C,C1*%
X153475000Y-98650000D03*
X155025000Y-98650000D03*
%TD*%
D48*
%TO.C,J1*%
X155750000Y-87050000D03*
X162350000Y-87050000D03*
%TD*%
D49*
%TO.C,J3*%
X139907500Y-115040000D03*
D50*
X139907500Y-112500000D03*
X139907500Y-109960000D03*
X139907500Y-107420000D03*
X139907500Y-104880000D03*
X139907500Y-102340000D03*
X139907500Y-99800000D03*
X139907500Y-97260000D03*
X139907500Y-94720000D03*
X139907500Y-92180000D03*
X139907500Y-89640000D03*
X139907500Y-87100000D03*
%TD*%
M02*
