%FSLAX45Y45*%
G04 Gerber Fmt 4.5, Leading zero omitted, Abs format (unit mm)*
G04 Created by KiCad (PCBNEW (6.0.5)) date 2023-05-13 15:18:55*
%MOMM*%
%LPD*%
G01*
G04 APERTURE LIST*
%TA.AperFunction,Profile*%
%ADD10C,0.100000*%
%TD*%
%ADD11C,0.200000*%
%ADD12C,0.300000*%
G04 APERTURE END LIST*
D10*
X10160000Y-10096500D02*
X19558000Y-10096500D01*
X19558000Y-13779500D02*
X10160000Y-13779500D01*
X9906000Y-13525500D02*
X9906000Y-10350500D01*
X19812000Y-10350500D02*
G75*
G03*
X19558000Y-10096500I-254000J0D01*
G01*
X10160000Y-10096500D02*
G75*
G03*
X9906000Y-10350500I0J-254000D01*
G01*
X19812000Y-10350500D02*
X19812000Y-13525500D01*
X9906000Y-13525500D02*
G75*
G03*
X10160000Y-13779500I254000J0D01*
G01*
X19558000Y-13779500D02*
G75*
G03*
X19812000Y-13525500I0J254000D01*
G01*
D11*
D12*
X18539000Y-11677500D02*
X18839000Y-11977500D01*
X18839000Y-11677500D02*
X18539000Y-11977500D01*
D11*
X10158619Y-14094976D02*
X10158619Y-13894976D01*
X10206238Y-13894976D01*
X10234810Y-13904500D01*
X10253857Y-13923548D01*
X10263381Y-13942595D01*
X10272905Y-13980690D01*
X10272905Y-14009262D01*
X10263381Y-14047357D01*
X10253857Y-14066405D01*
X10234810Y-14085452D01*
X10206238Y-14094976D01*
X10158619Y-14094976D01*
X10358619Y-14094976D02*
X10358619Y-13961643D01*
X10358619Y-13999738D02*
X10368143Y-13980690D01*
X10377667Y-13971167D01*
X10396714Y-13961643D01*
X10415762Y-13961643D01*
X10482429Y-14094976D02*
X10482429Y-13961643D01*
X10482429Y-13894976D02*
X10472905Y-13904500D01*
X10482429Y-13914024D01*
X10491952Y-13904500D01*
X10482429Y-13894976D01*
X10482429Y-13914024D01*
X10606238Y-14094976D02*
X10587190Y-14085452D01*
X10577667Y-14066405D01*
X10577667Y-13894976D01*
X10711000Y-14094976D02*
X10691952Y-14085452D01*
X10682429Y-14066405D01*
X10682429Y-13894976D01*
X10939571Y-14094976D02*
X10939571Y-13894976D01*
X11006238Y-14037833D01*
X11072905Y-13894976D01*
X11072905Y-14094976D01*
X11253857Y-14094976D02*
X11253857Y-13990214D01*
X11244333Y-13971167D01*
X11225286Y-13961643D01*
X11187190Y-13961643D01*
X11168143Y-13971167D01*
X11253857Y-14085452D02*
X11234809Y-14094976D01*
X11187190Y-14094976D01*
X11168143Y-14085452D01*
X11158619Y-14066405D01*
X11158619Y-14047357D01*
X11168143Y-14028309D01*
X11187190Y-14018786D01*
X11234809Y-14018786D01*
X11253857Y-14009262D01*
X11349095Y-13961643D02*
X11349095Y-14161643D01*
X11349095Y-13971167D02*
X11368143Y-13961643D01*
X11406238Y-13961643D01*
X11425286Y-13971167D01*
X11434809Y-13980690D01*
X11444333Y-13999738D01*
X11444333Y-14056881D01*
X11434809Y-14075928D01*
X11425286Y-14085452D01*
X11406238Y-14094976D01*
X11368143Y-14094976D01*
X11349095Y-14085452D01*
X11530048Y-14075928D02*
X11539571Y-14085452D01*
X11530048Y-14094976D01*
X11520524Y-14085452D01*
X11530048Y-14075928D01*
X11530048Y-14094976D01*
X11530048Y-13971167D02*
X11539571Y-13980690D01*
X11530048Y-13990214D01*
X11520524Y-13980690D01*
X11530048Y-13971167D01*
X11530048Y-13990214D01*
X9701000Y-14324500D02*
X9901000Y-14524500D01*
X9901000Y-14324500D02*
X9701000Y-14524500D01*
X10139571Y-14314976D02*
X10263381Y-14314976D01*
X10196714Y-14391167D01*
X10225286Y-14391167D01*
X10244333Y-14400690D01*
X10253857Y-14410214D01*
X10263381Y-14429262D01*
X10263381Y-14476881D01*
X10253857Y-14495928D01*
X10244333Y-14505452D01*
X10225286Y-14514976D01*
X10168143Y-14514976D01*
X10149095Y-14505452D01*
X10139571Y-14495928D01*
X10349095Y-14495928D02*
X10358619Y-14505452D01*
X10349095Y-14514976D01*
X10339571Y-14505452D01*
X10349095Y-14495928D01*
X10349095Y-14514976D01*
X10482429Y-14314976D02*
X10501476Y-14314976D01*
X10520524Y-14324500D01*
X10530048Y-14334024D01*
X10539571Y-14353071D01*
X10549095Y-14391167D01*
X10549095Y-14438786D01*
X10539571Y-14476881D01*
X10530048Y-14495928D01*
X10520524Y-14505452D01*
X10501476Y-14514976D01*
X10482429Y-14514976D01*
X10463381Y-14505452D01*
X10453857Y-14495928D01*
X10444333Y-14476881D01*
X10434810Y-14438786D01*
X10434810Y-14391167D01*
X10444333Y-14353071D01*
X10453857Y-14334024D01*
X10463381Y-14324500D01*
X10482429Y-14314976D01*
X10672905Y-14314976D02*
X10691952Y-14314976D01*
X10711000Y-14324500D01*
X10720524Y-14334024D01*
X10730048Y-14353071D01*
X10739571Y-14391167D01*
X10739571Y-14438786D01*
X10730048Y-14476881D01*
X10720524Y-14495928D01*
X10711000Y-14505452D01*
X10691952Y-14514976D01*
X10672905Y-14514976D01*
X10653857Y-14505452D01*
X10644333Y-14495928D01*
X10634810Y-14476881D01*
X10625286Y-14438786D01*
X10625286Y-14391167D01*
X10634810Y-14353071D01*
X10644333Y-14334024D01*
X10653857Y-14324500D01*
X10672905Y-14314976D01*
X10863381Y-14314976D02*
X10882429Y-14314976D01*
X10901476Y-14324500D01*
X10911000Y-14334024D01*
X10920524Y-14353071D01*
X10930048Y-14391167D01*
X10930048Y-14438786D01*
X10920524Y-14476881D01*
X10911000Y-14495928D01*
X10901476Y-14505452D01*
X10882429Y-14514976D01*
X10863381Y-14514976D01*
X10844333Y-14505452D01*
X10834810Y-14495928D01*
X10825286Y-14476881D01*
X10815762Y-14438786D01*
X10815762Y-14391167D01*
X10825286Y-14353071D01*
X10834810Y-14334024D01*
X10844333Y-14324500D01*
X10863381Y-14314976D01*
X11015762Y-14514976D02*
X11015762Y-14381643D01*
X11015762Y-14400690D02*
X11025286Y-14391167D01*
X11044333Y-14381643D01*
X11072905Y-14381643D01*
X11091952Y-14391167D01*
X11101476Y-14410214D01*
X11101476Y-14514976D01*
X11101476Y-14410214D02*
X11111000Y-14391167D01*
X11130048Y-14381643D01*
X11158619Y-14381643D01*
X11177667Y-14391167D01*
X11187190Y-14410214D01*
X11187190Y-14514976D01*
X11282428Y-14514976D02*
X11282428Y-14381643D01*
X11282428Y-14400690D02*
X11291952Y-14391167D01*
X11311000Y-14381643D01*
X11339571Y-14381643D01*
X11358619Y-14391167D01*
X11368143Y-14410214D01*
X11368143Y-14514976D01*
X11368143Y-14410214D02*
X11377667Y-14391167D01*
X11396714Y-14381643D01*
X11425286Y-14381643D01*
X11444333Y-14391167D01*
X11453857Y-14410214D01*
X11453857Y-14514976D01*
X11844333Y-14305452D02*
X11672905Y-14562595D01*
X12101476Y-14314976D02*
X12120524Y-14314976D01*
X12139571Y-14324500D01*
X12149095Y-14334024D01*
X12158619Y-14353071D01*
X12168143Y-14391167D01*
X12168143Y-14438786D01*
X12158619Y-14476881D01*
X12149095Y-14495928D01*
X12139571Y-14505452D01*
X12120524Y-14514976D01*
X12101476Y-14514976D01*
X12082428Y-14505452D01*
X12072905Y-14495928D01*
X12063381Y-14476881D01*
X12053857Y-14438786D01*
X12053857Y-14391167D01*
X12063381Y-14353071D01*
X12072905Y-14334024D01*
X12082428Y-14324500D01*
X12101476Y-14314976D01*
X12253857Y-14495928D02*
X12263381Y-14505452D01*
X12253857Y-14514976D01*
X12244333Y-14505452D01*
X12253857Y-14495928D01*
X12253857Y-14514976D01*
X12453857Y-14514976D02*
X12339571Y-14514976D01*
X12396714Y-14514976D02*
X12396714Y-14314976D01*
X12377667Y-14343548D01*
X12358619Y-14362595D01*
X12339571Y-14372119D01*
X12644333Y-14514976D02*
X12530048Y-14514976D01*
X12587190Y-14514976D02*
X12587190Y-14314976D01*
X12568143Y-14343548D01*
X12549095Y-14362595D01*
X12530048Y-14372119D01*
X12758619Y-14400690D02*
X12739571Y-14391167D01*
X12730048Y-14381643D01*
X12720524Y-14362595D01*
X12720524Y-14353071D01*
X12730048Y-14334024D01*
X12739571Y-14324500D01*
X12758619Y-14314976D01*
X12796714Y-14314976D01*
X12815762Y-14324500D01*
X12825286Y-14334024D01*
X12834809Y-14353071D01*
X12834809Y-14362595D01*
X12825286Y-14381643D01*
X12815762Y-14391167D01*
X12796714Y-14400690D01*
X12758619Y-14400690D01*
X12739571Y-14410214D01*
X12730048Y-14419738D01*
X12720524Y-14438786D01*
X12720524Y-14476881D01*
X12730048Y-14495928D01*
X12739571Y-14505452D01*
X12758619Y-14514976D01*
X12796714Y-14514976D01*
X12815762Y-14505452D01*
X12825286Y-14495928D01*
X12834809Y-14476881D01*
X12834809Y-14438786D01*
X12825286Y-14419738D01*
X12815762Y-14410214D01*
X12796714Y-14400690D01*
X13025286Y-14514976D02*
X12911000Y-14514976D01*
X12968143Y-14514976D02*
X12968143Y-14314976D01*
X12949095Y-14343548D01*
X12930048Y-14362595D01*
X12911000Y-14372119D01*
X13101476Y-14314976D02*
X13101476Y-14353071D01*
X13177667Y-14314976D02*
X13177667Y-14353071D01*
X13472905Y-14591167D02*
X13463381Y-14581643D01*
X13444333Y-14553071D01*
X13434809Y-14534024D01*
X13425286Y-14505452D01*
X13415762Y-14457833D01*
X13415762Y-14419738D01*
X13425286Y-14372119D01*
X13434809Y-14343548D01*
X13444333Y-14324500D01*
X13463381Y-14295928D01*
X13472905Y-14286405D01*
X13653857Y-14514976D02*
X13539571Y-14514976D01*
X13596714Y-14514976D02*
X13596714Y-14314976D01*
X13577667Y-14343548D01*
X13558619Y-14362595D01*
X13539571Y-14372119D01*
X13891952Y-14514976D02*
X13891952Y-14314976D01*
X13977667Y-14514976D02*
X13977667Y-14410214D01*
X13968143Y-14391167D01*
X13949095Y-14381643D01*
X13920524Y-14381643D01*
X13901476Y-14391167D01*
X13891952Y-14400690D01*
X14101476Y-14514976D02*
X14082428Y-14505452D01*
X14072905Y-14495928D01*
X14063381Y-14476881D01*
X14063381Y-14419738D01*
X14072905Y-14400690D01*
X14082428Y-14391167D01*
X14101476Y-14381643D01*
X14130048Y-14381643D01*
X14149095Y-14391167D01*
X14158619Y-14400690D01*
X14168143Y-14419738D01*
X14168143Y-14476881D01*
X14158619Y-14495928D01*
X14149095Y-14505452D01*
X14130048Y-14514976D01*
X14101476Y-14514976D01*
X14282428Y-14514976D02*
X14263381Y-14505452D01*
X14253857Y-14486405D01*
X14253857Y-14314976D01*
X14434809Y-14505452D02*
X14415762Y-14514976D01*
X14377667Y-14514976D01*
X14358619Y-14505452D01*
X14349095Y-14486405D01*
X14349095Y-14410214D01*
X14358619Y-14391167D01*
X14377667Y-14381643D01*
X14415762Y-14381643D01*
X14434809Y-14391167D01*
X14444333Y-14410214D01*
X14444333Y-14429262D01*
X14349095Y-14448309D01*
X14511000Y-14591167D02*
X14520524Y-14581643D01*
X14539571Y-14553071D01*
X14549095Y-14534024D01*
X14558619Y-14505452D01*
X14568143Y-14457833D01*
X14568143Y-14419738D01*
X14558619Y-14372119D01*
X14549095Y-14343548D01*
X14539571Y-14324500D01*
X14520524Y-14295928D01*
X14511000Y-14286405D01*
X14872905Y-14591167D02*
X14863381Y-14581643D01*
X14844333Y-14553071D01*
X14834809Y-14534024D01*
X14825286Y-14505452D01*
X14815762Y-14457833D01*
X14815762Y-14419738D01*
X14825286Y-14372119D01*
X14834809Y-14343548D01*
X14844333Y-14324500D01*
X14863381Y-14295928D01*
X14872905Y-14286405D01*
X14949095Y-14381643D02*
X14949095Y-14514976D01*
X14949095Y-14400690D02*
X14958619Y-14391167D01*
X14977667Y-14381643D01*
X15006238Y-14381643D01*
X15025286Y-14391167D01*
X15034809Y-14410214D01*
X15034809Y-14514976D01*
X15158619Y-14514976D02*
X15139571Y-14505452D01*
X15130048Y-14495928D01*
X15120524Y-14476881D01*
X15120524Y-14419738D01*
X15130048Y-14400690D01*
X15139571Y-14391167D01*
X15158619Y-14381643D01*
X15187190Y-14381643D01*
X15206238Y-14391167D01*
X15215762Y-14400690D01*
X15225286Y-14419738D01*
X15225286Y-14476881D01*
X15215762Y-14495928D01*
X15206238Y-14505452D01*
X15187190Y-14514976D01*
X15158619Y-14514976D01*
X15282428Y-14381643D02*
X15358619Y-14381643D01*
X15311000Y-14314976D02*
X15311000Y-14486405D01*
X15320524Y-14505452D01*
X15339571Y-14514976D01*
X15358619Y-14514976D01*
X15577667Y-14381643D02*
X15577667Y-14581643D01*
X15577667Y-14391167D02*
X15596714Y-14381643D01*
X15634809Y-14381643D01*
X15653857Y-14391167D01*
X15663381Y-14400690D01*
X15672905Y-14419738D01*
X15672905Y-14476881D01*
X15663381Y-14495928D01*
X15653857Y-14505452D01*
X15634809Y-14514976D01*
X15596714Y-14514976D01*
X15577667Y-14505452D01*
X15787190Y-14514976D02*
X15768143Y-14505452D01*
X15758619Y-14486405D01*
X15758619Y-14314976D01*
X15949095Y-14514976D02*
X15949095Y-14410214D01*
X15939571Y-14391167D01*
X15920524Y-14381643D01*
X15882428Y-14381643D01*
X15863381Y-14391167D01*
X15949095Y-14505452D02*
X15930048Y-14514976D01*
X15882428Y-14514976D01*
X15863381Y-14505452D01*
X15853857Y-14486405D01*
X15853857Y-14467357D01*
X15863381Y-14448309D01*
X15882428Y-14438786D01*
X15930048Y-14438786D01*
X15949095Y-14429262D01*
X16015762Y-14381643D02*
X16091952Y-14381643D01*
X16044333Y-14314976D02*
X16044333Y-14486405D01*
X16053857Y-14505452D01*
X16072905Y-14514976D01*
X16091952Y-14514976D01*
X16234809Y-14505452D02*
X16215762Y-14514976D01*
X16177667Y-14514976D01*
X16158619Y-14505452D01*
X16149095Y-14486405D01*
X16149095Y-14410214D01*
X16158619Y-14391167D01*
X16177667Y-14381643D01*
X16215762Y-14381643D01*
X16234809Y-14391167D01*
X16244333Y-14410214D01*
X16244333Y-14429262D01*
X16149095Y-14448309D01*
X16415762Y-14514976D02*
X16415762Y-14314976D01*
X16415762Y-14505452D02*
X16396714Y-14514976D01*
X16358619Y-14514976D01*
X16339571Y-14505452D01*
X16330048Y-14495928D01*
X16320524Y-14476881D01*
X16320524Y-14419738D01*
X16330048Y-14400690D01*
X16339571Y-14391167D01*
X16358619Y-14381643D01*
X16396714Y-14381643D01*
X16415762Y-14391167D01*
X16491952Y-14591167D02*
X16501476Y-14581643D01*
X16520524Y-14553071D01*
X16530048Y-14534024D01*
X16539571Y-14505452D01*
X16549095Y-14457833D01*
X16549095Y-14419738D01*
X16539571Y-14372119D01*
X16530048Y-14343548D01*
X16520524Y-14324500D01*
X16501476Y-14295928D01*
X16491952Y-14286405D01*
M02*
