%TF.GenerationSoftware,KiCad,Pcbnew,(6.0.5)*%
%TF.CreationDate,2023-05-13T15:18:51-04:00*%
%TF.ProjectId,SAP Mk2,53415020-4d6b-4322-9e6b-696361645f70,rev?*%
%TF.SameCoordinates,Original*%
%TF.FileFunction,Paste,Bot*%
%TF.FilePolarity,Positive*%
%FSLAX46Y46*%
G04 Gerber Fmt 4.6, Leading zero omitted, Abs format (unit mm)*
G04 Created by KiCad (PCBNEW (6.0.5)) date 2023-05-13 15:18:51*
%MOMM*%
%LPD*%
G01*
G04 APERTURE LIST*
G04 Aperture macros list*
%AMRoundRect*
0 Rectangle with rounded corners*
0 $1 Rounding radius*
0 $2 $3 $4 $5 $6 $7 $8 $9 X,Y pos of 4 corners*
0 Add a 4 corners polygon primitive as box body*
4,1,4,$2,$3,$4,$5,$6,$7,$8,$9,$2,$3,0*
0 Add four circle primitives for the rounded corners*
1,1,$1+$1,$2,$3*
1,1,$1+$1,$4,$5*
1,1,$1+$1,$6,$7*
1,1,$1+$1,$8,$9*
0 Add four rect primitives between the rounded corners*
20,1,$1+$1,$2,$3,$4,$5,0*
20,1,$1+$1,$4,$5,$6,$7,0*
20,1,$1+$1,$6,$7,$8,$9,0*
20,1,$1+$1,$8,$9,$2,$3,0*%
G04 Aperture macros list end*
%ADD10R,4.190000X1.500000*%
%ADD11R,0.800000X1.200000*%
%ADD12R,1.500000X2.000000*%
%ADD13R,0.500000X0.500000*%
%ADD14R,1.000000X1.000000*%
%ADD15R,1.050000X2.200000*%
%ADD16RoundRect,0.200000X0.275000X-0.200000X0.275000X0.200000X-0.275000X0.200000X-0.275000X-0.200000X0*%
%ADD17R,0.400000X1.400000*%
%ADD18R,1.750000X1.900000*%
%ADD19R,1.150000X1.450000*%
%ADD20R,1.800000X2.500000*%
%ADD21R,2.000000X1.000000*%
%ADD22RoundRect,0.225000X-0.250000X0.225000X-0.250000X-0.225000X0.250000X-0.225000X0.250000X0.225000X0*%
%ADD23RoundRect,0.200000X0.200000X0.275000X-0.200000X0.275000X-0.200000X-0.275000X0.200000X-0.275000X0*%
%ADD24R,3.050000X2.750000*%
%ADD25R,2.200000X1.200000*%
%ADD26RoundRect,0.218750X-0.218750X-0.256250X0.218750X-0.256250X0.218750X0.256250X-0.218750X0.256250X0*%
%ADD27RoundRect,0.250000X-0.475000X0.250000X-0.475000X-0.250000X0.475000X-0.250000X0.475000X0.250000X0*%
%ADD28RoundRect,0.218750X0.256250X-0.218750X0.256250X0.218750X-0.256250X0.218750X-0.256250X-0.218750X0*%
%ADD29RoundRect,0.225000X-0.225000X-0.250000X0.225000X-0.250000X0.225000X0.250000X-0.225000X0.250000X0*%
G04 APERTURE END LIST*
D10*
%TO.C,AE1*%
X196013492Y-127931244D03*
X196013492Y-133742815D03*
%TD*%
D11*
%TO.C,J6*%
X141655000Y-106595000D03*
X140555000Y-106595000D03*
X139455000Y-106595000D03*
X138355000Y-106595000D03*
X137255000Y-106595000D03*
X136155000Y-106595000D03*
X135055000Y-106595000D03*
X133955000Y-106595000D03*
D12*
X131485000Y-104395000D03*
X131485000Y-112595000D03*
X145375000Y-112595000D03*
X145375000Y-104395000D03*
%TD*%
D13*
%TO.C,D2*%
X129710000Y-128524000D03*
X131910000Y-128524000D03*
%TD*%
D14*
%TO.C,AE2*%
X193422295Y-107712749D03*
D15*
X194897295Y-106212749D03*
D14*
X193422295Y-104712749D03*
D15*
X191947295Y-106212749D03*
%TD*%
D16*
%TO.C,R36*%
X133985000Y-119570000D03*
X133985000Y-117920000D03*
%TD*%
D17*
%TO.C,J1*%
X139773400Y-133646400D03*
X139123400Y-133646400D03*
X138473400Y-133646400D03*
X137823400Y-133646400D03*
X137173400Y-133646400D03*
D18*
X137348400Y-136296400D03*
X139598400Y-136296400D03*
D19*
X140793400Y-134066400D03*
X136153400Y-134066400D03*
%TD*%
D20*
%TO.C,D1*%
X109474000Y-133622800D03*
X109474000Y-129622800D03*
%TD*%
D21*
%TO.C,U7*%
X178690000Y-124225000D03*
X178690000Y-122725000D03*
X178690000Y-121225000D03*
X178690000Y-119725000D03*
X178690000Y-118225000D03*
X178690000Y-116725000D03*
X178690000Y-115225000D03*
X178690000Y-113725000D03*
X178690000Y-112225000D03*
X178690000Y-110725000D03*
X194690000Y-110725000D03*
X194690000Y-112225000D03*
X194690000Y-113725000D03*
X194690000Y-115225000D03*
X194690000Y-116725000D03*
X194690000Y-118225000D03*
X194690000Y-119725000D03*
X194690000Y-121225000D03*
X194690000Y-122725000D03*
X194690000Y-124225000D03*
%TD*%
D16*
%TO.C,R8*%
X139192000Y-129540000D03*
X139192000Y-127890000D03*
%TD*%
%TO.C,R7*%
X137668000Y-129540000D03*
X137668000Y-127890000D03*
%TD*%
D22*
%TO.C,C6*%
X112115600Y-131813000D03*
X112115600Y-133363000D03*
%TD*%
D23*
%TO.C,R9*%
X176085000Y-120015000D03*
X174435000Y-120015000D03*
%TD*%
D24*
%TO.C,U1*%
X122325000Y-130097800D03*
X118975000Y-130097800D03*
X118975000Y-133147800D03*
X122325000Y-133147800D03*
D25*
X114350000Y-133902800D03*
X114350000Y-131622800D03*
X114350000Y-129342800D03*
%TD*%
D26*
%TO.C,D4*%
X174472500Y-118110000D03*
X176047500Y-118110000D03*
%TD*%
D27*
%TO.C,FB1*%
X173355000Y-124145000D03*
X173355000Y-126045000D03*
%TD*%
D22*
%TO.C,C19*%
X176530000Y-124320000D03*
X176530000Y-125870000D03*
%TD*%
D28*
%TO.C,D3*%
X126365000Y-131978500D03*
X126365000Y-130403500D03*
%TD*%
D29*
%TO.C,C3*%
X111340600Y-136144000D03*
X112890600Y-136144000D03*
%TD*%
D23*
%TO.C,R37*%
X150558000Y-109220000D03*
X148908000Y-109220000D03*
%TD*%
M02*
