%TF.GenerationSoftware,KiCad,Pcbnew,(6.0.5)*%
%TF.CreationDate,2023-05-13T15:18:51-04:00*%
%TF.ProjectId,SAP Mk2,53415020-4d6b-4322-9e6b-696361645f70,rev?*%
%TF.SameCoordinates,Original*%
%TF.FileFunction,Copper,L4,Bot*%
%TF.FilePolarity,Positive*%
%FSLAX46Y46*%
G04 Gerber Fmt 4.6, Leading zero omitted, Abs format (unit mm)*
G04 Created by KiCad (PCBNEW (6.0.5)) date 2023-05-13 15:18:51*
%MOMM*%
%LPD*%
G01*
G04 APERTURE LIST*
G04 Aperture macros list*
%AMRoundRect*
0 Rectangle with rounded corners*
0 $1 Rounding radius*
0 $2 $3 $4 $5 $6 $7 $8 $9 X,Y pos of 4 corners*
0 Add a 4 corners polygon primitive as box body*
4,1,4,$2,$3,$4,$5,$6,$7,$8,$9,$2,$3,0*
0 Add four circle primitives for the rounded corners*
1,1,$1+$1,$2,$3*
1,1,$1+$1,$4,$5*
1,1,$1+$1,$6,$7*
1,1,$1+$1,$8,$9*
0 Add four rect primitives between the rounded corners*
20,1,$1+$1,$2,$3,$4,$5,0*
20,1,$1+$1,$4,$5,$6,$7,0*
20,1,$1+$1,$6,$7,$8,$9,0*
20,1,$1+$1,$8,$9,$2,$3,0*%
G04 Aperture macros list end*
%TA.AperFunction,ComponentPad*%
%ADD10C,5.500000*%
%TD*%
%TA.AperFunction,SMDPad,CuDef*%
%ADD11R,4.190000X1.500000*%
%TD*%
%TA.AperFunction,ComponentPad*%
%ADD12R,1.700000X1.700000*%
%TD*%
%TA.AperFunction,ComponentPad*%
%ADD13O,1.700000X1.700000*%
%TD*%
%TA.AperFunction,SMDPad,CuDef*%
%ADD14R,0.800000X1.200000*%
%TD*%
%TA.AperFunction,SMDPad,CuDef*%
%ADD15R,1.500000X2.000000*%
%TD*%
%TA.AperFunction,SMDPad,CuDef*%
%ADD16R,0.500000X0.500000*%
%TD*%
%TA.AperFunction,SMDPad,CuDef*%
%ADD17R,1.000000X1.000000*%
%TD*%
%TA.AperFunction,SMDPad,CuDef*%
%ADD18R,1.050000X2.200000*%
%TD*%
%TA.AperFunction,SMDPad,CuDef*%
%ADD19RoundRect,0.200000X0.275000X-0.200000X0.275000X0.200000X-0.275000X0.200000X-0.275000X-0.200000X0*%
%TD*%
%TA.AperFunction,SMDPad,CuDef*%
%ADD20R,0.400000X1.400000*%
%TD*%
%TA.AperFunction,SMDPad,CuDef*%
%ADD21R,1.750000X1.900000*%
%TD*%
%TA.AperFunction,SMDPad,CuDef*%
%ADD22R,1.150000X1.450000*%
%TD*%
%TA.AperFunction,ComponentPad*%
%ADD23O,1.050000X1.900000*%
%TD*%
%TA.AperFunction,SMDPad,CuDef*%
%ADD24R,1.800000X2.500000*%
%TD*%
%TA.AperFunction,ComponentPad*%
%ADD25R,2.100000X2.100000*%
%TD*%
%TA.AperFunction,ComponentPad*%
%ADD26C,2.100000*%
%TD*%
%TA.AperFunction,SMDPad,CuDef*%
%ADD27R,2.000000X1.000000*%
%TD*%
%TA.AperFunction,SMDPad,CuDef*%
%ADD28RoundRect,0.225000X-0.250000X0.225000X-0.250000X-0.225000X0.250000X-0.225000X0.250000X0.225000X0*%
%TD*%
%TA.AperFunction,SMDPad,CuDef*%
%ADD29RoundRect,0.200000X0.200000X0.275000X-0.200000X0.275000X-0.200000X-0.275000X0.200000X-0.275000X0*%
%TD*%
%TA.AperFunction,SMDPad,CuDef*%
%ADD30R,2.200000X1.200000*%
%TD*%
%TA.AperFunction,SMDPad,CuDef*%
%ADD31R,6.400000X5.800000*%
%TD*%
%TA.AperFunction,SMDPad,CuDef*%
%ADD32RoundRect,0.218750X-0.218750X-0.256250X0.218750X-0.256250X0.218750X0.256250X-0.218750X0.256250X0*%
%TD*%
%TA.AperFunction,SMDPad,CuDef*%
%ADD33RoundRect,0.250000X-0.475000X0.250000X-0.475000X-0.250000X0.475000X-0.250000X0.475000X0.250000X0*%
%TD*%
%TA.AperFunction,SMDPad,CuDef*%
%ADD34RoundRect,0.218750X0.256250X-0.218750X0.256250X0.218750X-0.256250X0.218750X-0.256250X-0.218750X0*%
%TD*%
%TA.AperFunction,SMDPad,CuDef*%
%ADD35RoundRect,0.225000X-0.225000X-0.250000X0.225000X-0.250000X0.225000X0.250000X-0.225000X0.250000X0*%
%TD*%
%TA.AperFunction,ComponentPad*%
%ADD36R,1.600000X1.600000*%
%TD*%
%TA.AperFunction,ComponentPad*%
%ADD37C,1.600000*%
%TD*%
%TA.AperFunction,ViaPad*%
%ADD38C,0.450000*%
%TD*%
%TA.AperFunction,Conductor*%
%ADD39C,0.250000*%
%TD*%
%TA.AperFunction,Conductor*%
%ADD40C,0.500000*%
%TD*%
%TA.AperFunction,Conductor*%
%ADD41C,0.353000*%
%TD*%
%TA.AperFunction,Conductor*%
%ADD42C,1.350000*%
%TD*%
%TA.AperFunction,Conductor*%
%ADD43C,0.400000*%
%TD*%
%TA.AperFunction,Conductor*%
%ADD44C,1.500000*%
%TD*%
%TA.AperFunction,Conductor*%
%ADD45C,0.200000*%
%TD*%
G04 APERTURE END LIST*
D10*
%TO.P,REF\u002A\u002A,1*%
%TO.N,GNDREF*%
X168910000Y-133350000D03*
%TD*%
D11*
%TO.P,AE1,2,Shield*%
%TO.N,GNDREF*%
X196013492Y-127931244D03*
X196013492Y-133742815D03*
%TD*%
D10*
%TO.P,REF\u002A\u002A,1*%
%TO.N,GNDREF*%
X103505000Y-133350000D03*
%TD*%
%TO.P,REF\u002A\u002A,1*%
%TO.N,GNDREF*%
X103505000Y-105410000D03*
%TD*%
%TO.P,REF\u002A\u002A,1*%
%TO.N,GNDREF*%
X168910000Y-105410000D03*
%TD*%
D12*
%TO.P,J4,1,Pin_1*%
%TO.N,/BOOT0*%
X158750000Y-134620000D03*
D13*
%TO.P,J4,2,Pin_2*%
%TO.N,/SWCLK*%
X156210000Y-134620000D03*
%TO.P,J4,3,Pin_3*%
%TO.N,/SWDIO*%
X153670000Y-134620000D03*
%TO.P,J4,4,Pin_4*%
%TO.N,/NRST*%
X151130000Y-134620000D03*
%TO.P,J4,5,Pin_5*%
%TO.N,+3V3*%
X148590000Y-134620000D03*
%TO.P,J4,6,Pin_6*%
%TO.N,GNDREF*%
X146050000Y-134620000D03*
%TD*%
D14*
%TO.P,J6,1,DAT2*%
%TO.N,Net-(J6-Pad1)*%
X141655000Y-106595000D03*
%TO.P,J6,2,CD/DAT3*%
%TO.N,/CS_SD*%
X140555000Y-106595000D03*
%TO.P,J6,3,CMD*%
%TO.N,/MOSI*%
X139455000Y-106595000D03*
%TO.P,J6,4,VDD*%
%TO.N,+3V3*%
X138355000Y-106595000D03*
%TO.P,J6,5,CLK*%
%TO.N,/SCK*%
X137255000Y-106595000D03*
%TO.P,J6,6,VSS*%
%TO.N,GNDREF*%
X136155000Y-106595000D03*
%TO.P,J6,7,DAT0*%
%TO.N,/MISO*%
X135055000Y-106595000D03*
%TO.P,J6,8,DAT1*%
%TO.N,Net-(J6-Pad8)*%
X133955000Y-106595000D03*
D15*
%TO.P,J6,9,SHIELD*%
%TO.N,GNDREF*%
X131485000Y-104395000D03*
%TO.P,J6,10,SHIELD__1*%
X131485000Y-112595000D03*
%TO.P,J6,11,SHIELD__2*%
X145375000Y-112595000D03*
%TO.P,J6,12,SHIELD__3*%
X145375000Y-104395000D03*
%TD*%
D16*
%TO.P,D2,1,K*%
%TO.N,Net-(C3-Pad1)*%
X129710000Y-128524000D03*
%TO.P,D2,2,A*%
%TO.N,Net-(D2-Pad2)*%
X131910000Y-128524000D03*
%TD*%
D17*
%TO.P,AE2,1,A*%
%TO.N,Net-(AE2-Pad1)*%
X193422295Y-107712749D03*
D18*
%TO.P,AE2,2,Shield*%
%TO.N,GNDREF*%
X194897295Y-106212749D03*
D17*
X193422295Y-104712749D03*
D18*
X191947295Y-106212749D03*
%TD*%
D19*
%TO.P,R36,1*%
%TO.N,+3V3*%
X133985000Y-119570000D03*
%TO.P,R36,2*%
%TO.N,Net-(J6-Pad8)*%
X133985000Y-117920000D03*
%TD*%
D20*
%TO.P,J1,1,VBUS*%
%TO.N,Net-(D2-Pad2)*%
X139773400Y-133646400D03*
%TO.P,J1,2,D-*%
%TO.N,Net-(J1-Pad2)*%
X139123400Y-133646400D03*
%TO.P,J1,3,D+*%
%TO.N,Net-(J1-Pad3)*%
X138473400Y-133646400D03*
%TO.P,J1,4,ID*%
%TO.N,unconnected-(J1-Pad4)*%
X137823400Y-133646400D03*
%TO.P,J1,5,GND*%
%TO.N,GNDREF*%
X137173400Y-133646400D03*
D21*
%TO.P,J1,6,Shield*%
X137348400Y-136296400D03*
X139598400Y-136296400D03*
D22*
X140793400Y-134066400D03*
D23*
X134898400Y-136296400D03*
X142048400Y-136296400D03*
D22*
X136153400Y-134066400D03*
%TD*%
D24*
%TO.P,D1,1,K*%
%TO.N,Net-(C3-Pad1)*%
X109474000Y-133622800D03*
%TO.P,D1,2,A*%
%TO.N,/SW+*%
X109474000Y-129622800D03*
%TD*%
D25*
%TO.P,J3,1,Pin_1*%
%TO.N,/LIPO+*%
X101600000Y-123310000D03*
D26*
%TO.P,J3,2,Pin_2*%
%TO.N,/SW+*%
X104140000Y-123310000D03*
%TO.P,J3,3,Pin_3*%
X106680000Y-123310000D03*
%TO.P,J3,4,Pin_4*%
%TO.N,/FIRE1*%
X109220000Y-123310000D03*
%TO.P,J3,5,Pin_5*%
%TO.N,/SW+*%
X111760000Y-123310000D03*
%TO.P,J3,6,Pin_6*%
%TO.N,/FIRE2*%
X114300000Y-123310000D03*
%TO.P,J3,7,Pin_7*%
%TO.N,/SW+*%
X116840000Y-123310000D03*
%TO.P,J3,8,Pin_8*%
%TO.N,/FIRE3*%
X119380000Y-123310000D03*
%TD*%
D27*
%TO.P,U7,P$1,VCC*%
%TO.N,Net-(C19-Pad1)*%
X178690000Y-124225000D03*
%TO.P,U7,P$2,NRESET*%
%TO.N,unconnected-(U7-PadP$2)*%
X178690000Y-122725000D03*
%TO.P,U7,P$3,GND@1*%
%TO.N,GNDREF*%
X178690000Y-121225000D03*
%TO.P,U7,P$4,VBACKUP*%
%TO.N,unconnected-(U7-PadP$4)*%
X178690000Y-119725000D03*
%TO.P,U7,P$5,3D-FIX*%
%TO.N,/FIX*%
X178690000Y-118225000D03*
%TO.P,U7,P$6,NC@1*%
%TO.N,unconnected-(U7-PadP$6)*%
X178690000Y-116725000D03*
%TO.P,U7,P$7,NC@2*%
%TO.N,unconnected-(U7-PadP$7)*%
X178690000Y-115225000D03*
%TO.P,U7,P$8,GND@2*%
%TO.N,GNDREF*%
X178690000Y-113725000D03*
%TO.P,U7,P$9,TX*%
%TO.N,/RX1*%
X178690000Y-112225000D03*
%TO.P,U7,P$10,RX*%
%TO.N,/TX1*%
X178690000Y-110725000D03*
%TO.P,U7,P$11,EX_ANT*%
%TO.N,Net-(AE2-Pad1)*%
X194690000Y-110725000D03*
%TO.P,U7,P$12,GND@3*%
%TO.N,GNDREF*%
X194690000Y-112225000D03*
%TO.P,U7,P$13,1PPS*%
%TO.N,unconnected-(U7-PadP$13)*%
X194690000Y-113725000D03*
%TO.P,U7,P$14,RTCM*%
%TO.N,unconnected-(U7-PadP$14)*%
X194690000Y-115225000D03*
%TO.P,U7,P$15,NC@3*%
%TO.N,unconnected-(U7-PadP$15)*%
X194690000Y-116725000D03*
%TO.P,U7,P$16,NC@4*%
%TO.N,unconnected-(U7-PadP$16)*%
X194690000Y-118225000D03*
%TO.P,U7,P$17,NC@5*%
%TO.N,unconnected-(U7-PadP$17)*%
X194690000Y-119725000D03*
%TO.P,U7,P$18,NC@6*%
%TO.N,unconnected-(U7-PadP$18)*%
X194690000Y-121225000D03*
%TO.P,U7,P$19,GND@4*%
%TO.N,GNDREF*%
X194690000Y-122725000D03*
%TO.P,U7,P$20,NC@7*%
%TO.N,unconnected-(U7-PadP$20)*%
X194690000Y-124225000D03*
%TD*%
D12*
%TO.P,J5,1,Pin_1*%
%TO.N,/SERVO1*%
X128270000Y-134620000D03*
D13*
%TO.P,J5,2,Pin_2*%
%TO.N,/SERVO2*%
X130810000Y-134620000D03*
%TD*%
D19*
%TO.P,R8,1*%
%TO.N,Net-(J1-Pad2)*%
X139192000Y-129540000D03*
%TO.P,R8,2*%
%TO.N,/D-*%
X139192000Y-127890000D03*
%TD*%
%TO.P,R7,1*%
%TO.N,Net-(J1-Pad3)*%
X137668000Y-129540000D03*
%TO.P,R7,2*%
%TO.N,/D+*%
X137668000Y-127890000D03*
%TD*%
D28*
%TO.P,C6,1*%
%TO.N,+3V3*%
X112115600Y-131813000D03*
%TO.P,C6,2*%
%TO.N,GNDREF*%
X112115600Y-133363000D03*
%TD*%
D29*
%TO.P,R9,1*%
%TO.N,GNDREF*%
X176085000Y-120015000D03*
%TO.P,R9,2*%
%TO.N,Net-(D4-Pad1)*%
X174435000Y-120015000D03*
%TD*%
D30*
%TO.P,U1,1,GND*%
%TO.N,GNDREF*%
X114350000Y-133902800D03*
%TO.P,U1,2,VO*%
%TO.N,+3V3*%
X114350000Y-131622800D03*
D31*
X120650000Y-131622800D03*
D30*
%TO.P,U1,3,VI*%
%TO.N,Net-(C3-Pad1)*%
X114350000Y-129342800D03*
%TD*%
D32*
%TO.P,D4,1,K*%
%TO.N,Net-(D4-Pad1)*%
X174472500Y-118110000D03*
%TO.P,D4,2,A*%
%TO.N,/FIX*%
X176047500Y-118110000D03*
%TD*%
D33*
%TO.P,FB1,1*%
%TO.N,Net-(C19-Pad1)*%
X173355000Y-124145000D03*
%TO.P,FB1,2*%
%TO.N,+3V3*%
X173355000Y-126045000D03*
%TD*%
D28*
%TO.P,C19,1*%
%TO.N,Net-(C19-Pad1)*%
X176530000Y-124320000D03*
%TO.P,C19,2*%
%TO.N,GNDREF*%
X176530000Y-125870000D03*
%TD*%
D34*
%TO.P,D3,1,K*%
%TO.N,GNDREF*%
X126365000Y-131978500D03*
%TO.P,D3,2,A*%
%TO.N,+3V3*%
X126365000Y-130403500D03*
%TD*%
D35*
%TO.P,C3,1*%
%TO.N,Net-(C3-Pad1)*%
X111340600Y-136144000D03*
%TO.P,C3,2*%
%TO.N,GNDREF*%
X112890600Y-136144000D03*
%TD*%
D29*
%TO.P,R37,1*%
%TO.N,+3V3*%
X150558000Y-109220000D03*
%TO.P,R37,2*%
%TO.N,Net-(J6-Pad1)*%
X148908000Y-109220000D03*
%TD*%
D25*
%TO.P,J2,1,Pin_1*%
%TO.N,/FIRE4*%
X119383547Y-115435154D03*
D26*
%TO.P,J2,2,Pin_2*%
%TO.N,/SW+*%
X116843547Y-115435154D03*
%TO.P,J2,3,Pin_3*%
%TO.N,/FIRE5*%
X114303547Y-115435154D03*
%TO.P,J2,4,Pin_4*%
%TO.N,/SW+*%
X111763547Y-115435154D03*
%TO.P,J2,5,Pin_5*%
%TO.N,/FIRE6*%
X109223547Y-115435154D03*
%TO.P,J2,6,Pin_6*%
%TO.N,/SW+*%
X106683547Y-115435154D03*
%TO.P,J2,7,Pin_7*%
%TO.N,/LIPO+*%
X104143547Y-115435154D03*
%TO.P,J2,8,Pin_8*%
%TO.N,GNDREF*%
X101603547Y-115435154D03*
%TD*%
D36*
%TO.P,LS1,1,1*%
%TO.N,Net-(LS1-Pad1)*%
X166116000Y-122630000D03*
D37*
%TO.P,LS1,2,2*%
%TO.N,GNDREF*%
X166116000Y-116130000D03*
%TD*%
D38*
%TO.N,GNDREF*%
X127482600Y-130632200D03*
X193141600Y-130911600D03*
X131826000Y-125628400D03*
X193471800Y-133807200D03*
X141579600Y-131775200D03*
X162052000Y-112979200D03*
X171545200Y-118980000D03*
X148336000Y-111963200D03*
X195097400Y-129387600D03*
X138572421Y-122701300D03*
X189357000Y-135534400D03*
X132461000Y-118872000D03*
X133146800Y-118414800D03*
X196443600Y-132232400D03*
X149656800Y-116128800D03*
X135991600Y-123748800D03*
X127203200Y-129946400D03*
X122097800Y-106172000D03*
X150571200Y-128524000D03*
X133654800Y-104698800D03*
X193243200Y-111658400D03*
X195630800Y-132232400D03*
X193827400Y-106781600D03*
X124510800Y-126695200D03*
X196596000Y-112217200D03*
X193497200Y-132892800D03*
X145186400Y-106781600D03*
X132537200Y-118008400D03*
X195961000Y-129387600D03*
X194792600Y-132232400D03*
X122174000Y-106934000D03*
X135026400Y-118110000D03*
X130759200Y-114198400D03*
X192989200Y-109423200D03*
X162712400Y-119837200D03*
X193217800Y-110921800D03*
X142951200Y-117652800D03*
X140868400Y-116128800D03*
X120904000Y-109829600D03*
X189839600Y-136245600D03*
X157480000Y-112928400D03*
X128981200Y-129813300D03*
X193065400Y-106781600D03*
X132740400Y-122072400D03*
X147015200Y-104089200D03*
X135077200Y-131724400D03*
X136967478Y-125544003D03*
X120507064Y-134966285D03*
X163576000Y-112979200D03*
X192227200Y-133400800D03*
X194462400Y-109194600D03*
X192811400Y-135331200D03*
X191109600Y-134289800D03*
X177139600Y-114960400D03*
X132689600Y-120091200D03*
X191947800Y-134188200D03*
X122529600Y-104343200D03*
X136042400Y-115671600D03*
X192760600Y-108661200D03*
X196824600Y-129387600D03*
X124866400Y-112064800D03*
X175463200Y-126288800D03*
X192494752Y-107824392D03*
X133119884Y-117599464D03*
X171339000Y-112429800D03*
X195986400Y-109855000D03*
X121269064Y-134966285D03*
X173228000Y-121259600D03*
X122478800Y-109778800D03*
X136144000Y-105308400D03*
X158800800Y-112979200D03*
X125476000Y-108458000D03*
X193167000Y-110159800D03*
X128066800Y-130200400D03*
X193421000Y-129997200D03*
X164236400Y-119837200D03*
X189433200Y-134721600D03*
X133096000Y-120751600D03*
X194005200Y-132283200D03*
X123672600Y-106984800D03*
X121716800Y-109474000D03*
X197205600Y-132232400D03*
X169824400Y-112420400D03*
X192328800Y-135991600D03*
X122682000Y-135382000D03*
X116738400Y-135737600D03*
X194360800Y-108432600D03*
X125120400Y-133756400D03*
X129286000Y-112369600D03*
X192328800Y-132511800D03*
X190703200Y-136296400D03*
X120243600Y-109474000D03*
X193399039Y-127917839D03*
X175310800Y-119938800D03*
X122986800Y-107340400D03*
X191541400Y-136296400D03*
X125679200Y-106117220D03*
X196138800Y-110667800D03*
X148844000Y-126542800D03*
X196037200Y-125526800D03*
X128707303Y-130485303D03*
X193243200Y-134620000D03*
X196138800Y-111455200D03*
X125171200Y-129946400D03*
X135077200Y-121310400D03*
X172059600Y-122224800D03*
X129692400Y-103784400D03*
X131165600Y-109220000D03*
X112117984Y-134470652D03*
X196596000Y-122174000D03*
X121980264Y-134956819D03*
X190195200Y-134315200D03*
X194513200Y-107696000D03*
X167386000Y-119380000D03*
X160528000Y-112979200D03*
X156210000Y-103886000D03*
X192557400Y-131648200D03*
X195021200Y-109728000D03*
X132486400Y-121310400D03*
X145389600Y-110185200D03*
X154533600Y-113792000D03*
X193395600Y-103276400D03*
X114401600Y-136499600D03*
X194106800Y-129387600D03*
X127457200Y-132181600D03*
%TO.N,+3V3*%
X120904000Y-128270000D03*
X138023600Y-115925600D03*
X149047200Y-105765600D03*
X171551600Y-126034800D03*
X153619200Y-122174000D03*
X171399200Y-108915200D03*
X152400000Y-107492800D03*
X116738400Y-128828800D03*
X138355000Y-105383400D03*
X129895600Y-131622800D03*
X161112200Y-116509800D03*
X141884400Y-115519200D03*
X151485600Y-127050800D03*
X152146000Y-114909600D03*
X171297600Y-136398000D03*
X138328400Y-120657300D03*
X167843200Y-127203200D03*
X120954639Y-136698141D03*
X151638000Y-109220000D03*
X157480000Y-116840000D03*
X117906800Y-136347200D03*
X149606000Y-112471200D03*
X158800800Y-106375200D03*
X125730000Y-135788400D03*
X170586400Y-122428000D03*
X139496800Y-125374400D03*
X169074600Y-115761000D03*
X171348400Y-116027200D03*
%TO.N,/NRST*%
X147523200Y-122123200D03*
%TO.N,/BOOT0*%
X149352000Y-117805200D03*
%TO.N,/CS_SD*%
X145161000Y-116459000D03*
%TO.N,/MOSI*%
X149707600Y-119024400D03*
X168021000Y-124764800D03*
%TO.N,/SCK*%
X147066000Y-118999000D03*
X167894000Y-126238000D03*
X149350193Y-120259620D03*
%TO.N,/MISO*%
X148971000Y-119634000D03*
X169545000Y-124714000D03*
%TO.N,Net-(LS1-Pad1)*%
X148844000Y-123698000D03*
X152958800Y-124339100D03*
%TO.N,/D+*%
X136525000Y-127889000D03*
%TO.N,/D-*%
X140462000Y-127889000D03*
%TO.N,/SCL*%
X158445200Y-118637300D03*
X159385000Y-109093000D03*
X169332400Y-119634000D03*
X153339800Y-117957600D03*
%TO.N,/SDA*%
X159703400Y-119595000D03*
X167021000Y-120904000D03*
%TO.N,/SENSE1*%
X136804400Y-122421700D03*
X140970000Y-120650000D03*
%TO.N,/HighG_INT*%
X167019314Y-117380000D03*
X141478000Y-123647200D03*
%TO.N,/IMU_IM*%
X160324800Y-120142000D03*
X143510000Y-123647200D03*
%TO.N,/IMU_I1*%
X142622864Y-122423157D03*
X160832800Y-121412000D03*
%TO.N,/IMU_I2*%
X161899600Y-121462800D03*
X142798800Y-123164600D03*
%TO.N,/CS_LoRa*%
X172821600Y-129235200D03*
X144526000Y-115468400D03*
%TO.N,/CS_FL*%
X173863000Y-111125000D03*
X146177000Y-110871000D03*
%TO.N,/FIX*%
X177038000Y-116992400D03*
X149656800Y-122123200D03*
%TO.N,/TX1*%
X152298400Y-118973600D03*
%TO.N,/RX1*%
X154279600Y-120904000D03*
%TD*%
D39*
%TO.N,Net-(LS1-Pad1)*%
X150241000Y-123698000D02*
X148844000Y-123698000D01*
X152958800Y-124339100D02*
X150882100Y-124339100D01*
X150882100Y-124339100D02*
X150241000Y-123698000D01*
%TO.N,/SCL*%
X153339800Y-118186200D02*
X153339800Y-117957600D01*
X158464500Y-118618000D02*
X158750000Y-118618000D01*
X158445200Y-118637300D02*
X158312100Y-118770400D01*
X158312100Y-118770400D02*
X153924000Y-118770400D01*
X153924000Y-118770400D02*
X153339800Y-118186200D01*
X158445200Y-118637300D02*
X158464500Y-118618000D01*
%TO.N,/SENSE1*%
X140716000Y-122174000D02*
X141224000Y-121666000D01*
X137052100Y-122174000D02*
X140716000Y-122174000D01*
X136804400Y-122421700D02*
X137052100Y-122174000D01*
X141224000Y-121666000D02*
X141224000Y-120904000D01*
X141224000Y-120904000D02*
X140970000Y-120650000D01*
%TO.N,/MOSI*%
X139455000Y-109040678D02*
X139455000Y-106595000D01*
X141682422Y-111268100D02*
X139455000Y-109040678D01*
X142733422Y-111268100D02*
X141682422Y-111268100D01*
X143475640Y-112010319D02*
X142733422Y-111268100D01*
X143475640Y-115850996D02*
X143475640Y-112010319D01*
X145988644Y-118364000D02*
X143475640Y-115850996D01*
X149707600Y-119024400D02*
X148742400Y-119024400D01*
X167690800Y-125095000D02*
X168021000Y-124764800D01*
X155702000Y-125095000D02*
X167690800Y-125095000D01*
X148082000Y-118364000D02*
X145988644Y-118364000D01*
X149707600Y-119100600D02*
X155702000Y-125095000D01*
X149707600Y-119024400D02*
X149707600Y-119100600D01*
X148742400Y-119024400D02*
X148082000Y-118364000D01*
%TO.N,/FIX*%
X176987200Y-116992400D02*
X176987200Y-117957600D01*
%TO.N,+3V3*%
X135166600Y-120751600D02*
X133985000Y-119570000D01*
X138328400Y-120657300D02*
X138234100Y-120751600D01*
X138234100Y-120751600D02*
X135166600Y-120751600D01*
%TO.N,GNDREF*%
X127254100Y-131978500D02*
X126365000Y-131978500D01*
X127457200Y-132181600D02*
X127254100Y-131978500D01*
X193040000Y-106781600D02*
X193065400Y-106781600D01*
X192471149Y-106212749D02*
X193040000Y-106781600D01*
X194396251Y-106212749D02*
X193827400Y-106781600D01*
X194897295Y-106212749D02*
X194396251Y-106212749D01*
X177225000Y-121225000D02*
X178690000Y-121225000D01*
X176225200Y-122224800D02*
X177225000Y-121225000D01*
X172059600Y-122224800D02*
X176225200Y-122224800D01*
X140750000Y-133590000D02*
X140750000Y-134625000D01*
X147704200Y-112595000D02*
X148336000Y-111963200D01*
X196116236Y-127917839D02*
X193399039Y-127917839D01*
X191947295Y-106212749D02*
X192471149Y-106212749D01*
X137305000Y-135820000D02*
X139555000Y-135820000D01*
X194690000Y-122725000D02*
X196045000Y-122725000D01*
X137130000Y-133170000D02*
X136530000Y-133170000D01*
X112115600Y-133363000D02*
X112117984Y-134470652D01*
X129511400Y-112595000D02*
X129286000Y-112369600D01*
X193625790Y-133729410D02*
X193548000Y-133807200D01*
X136110000Y-133590000D02*
X136110000Y-132757200D01*
X196045000Y-122725000D02*
X196596000Y-122174000D01*
X196596000Y-112217200D02*
X196588200Y-112225000D01*
X194690000Y-112225000D02*
X196588200Y-112225000D01*
X175387000Y-120015000D02*
X175310800Y-119938800D01*
X176225200Y-126288800D02*
X175463200Y-126288800D01*
X176085000Y-120015000D02*
X175387000Y-120015000D01*
X140750000Y-133590000D02*
X140750000Y-132604800D01*
X145375000Y-112595000D02*
X147704200Y-112595000D01*
X136110000Y-132757200D02*
X135077200Y-131724400D01*
D40*
X114046000Y-136144000D02*
X114401600Y-136499600D01*
D39*
X140750000Y-134625000D02*
X139555000Y-135820000D01*
X130303000Y-104395000D02*
X129692400Y-103784400D01*
X131485000Y-112595000D02*
X129511400Y-112595000D01*
X146658600Y-104395000D02*
X147015200Y-104089200D01*
X193422295Y-103303095D02*
X193395600Y-103276400D01*
D40*
X114350000Y-133902800D02*
X114903600Y-133902800D01*
D39*
X176530000Y-125984000D02*
X176225200Y-126288800D01*
X136110000Y-133590000D02*
X136110000Y-134625000D01*
X176530000Y-125870000D02*
X176530000Y-125984000D01*
X136110000Y-134625000D02*
X137305000Y-135820000D01*
X136155000Y-106595000D02*
X136155000Y-105319400D01*
D40*
X114903600Y-133902800D02*
X116738400Y-135737600D01*
D39*
X145375000Y-104395000D02*
X146658600Y-104395000D01*
X196116236Y-133729410D02*
X193625790Y-133729410D01*
X140750000Y-132604800D02*
X141579600Y-131775200D01*
X178690000Y-113725000D02*
X178085378Y-113725000D01*
X193422295Y-104712749D02*
X193422295Y-103303095D01*
X177139600Y-114670778D02*
X177139600Y-114960400D01*
D40*
X112890600Y-136144000D02*
X114046000Y-136144000D01*
D39*
X178085378Y-113725000D02*
X177139600Y-114670778D01*
X131485000Y-104395000D02*
X130303000Y-104395000D01*
X136530000Y-133170000D02*
X136110000Y-133590000D01*
%TO.N,Net-(AE2-Pad1)*%
X193422295Y-107712749D02*
X193422295Y-108214654D01*
X194300975Y-110335975D02*
X194690000Y-110725000D01*
D41*
X193422329Y-108214654D02*
G75*
G03*
X194300975Y-110335975I2999971J-46D01*
G01*
D39*
%TO.N,+3V3*%
X123977500Y-130530500D02*
X122885200Y-131622800D01*
X138355000Y-106595000D02*
X138355000Y-105383400D01*
D40*
X120650000Y-131622800D02*
X117906800Y-134366000D01*
D39*
X126898400Y-131267200D02*
X129540000Y-131267200D01*
D40*
X119837200Y-135585200D02*
X120954800Y-136702800D01*
X119837200Y-132435600D02*
X119837200Y-135585200D01*
D39*
X126365000Y-130733800D02*
X126898400Y-131267200D01*
D40*
X117906800Y-134366000D02*
X117906800Y-136347200D01*
D39*
X126365000Y-130403500D02*
X126365000Y-130733800D01*
D40*
X120650000Y-128524000D02*
X120904000Y-128270000D01*
X112305800Y-131622800D02*
X112115600Y-131813000D01*
X114350000Y-131622800D02*
X119129502Y-131622800D01*
D39*
X173355000Y-126045000D02*
X171561800Y-126045000D01*
D40*
X114350000Y-131622800D02*
X112305800Y-131622800D01*
X124815600Y-135788400D02*
X125730000Y-135788400D01*
D39*
X150558000Y-109220000D02*
X151638000Y-109220000D01*
X126365000Y-130530500D02*
X123977500Y-130530500D01*
D40*
X120650000Y-131622800D02*
X124815600Y-135788400D01*
D39*
X120650000Y-131622800D02*
X119837200Y-132435600D01*
X171561800Y-126045000D02*
X171551600Y-126034800D01*
D40*
X117856000Y-128828800D02*
X116738400Y-128828800D01*
X120650000Y-131622800D02*
X117856000Y-128828800D01*
X120650000Y-131622800D02*
X120650000Y-128524000D01*
D39*
X129540000Y-131267200D02*
X129895600Y-131622800D01*
X122885200Y-131622800D02*
X120650000Y-131622800D01*
D40*
%TO.N,Net-(C3-Pad1)*%
X116184800Y-127508000D02*
X128397000Y-127508000D01*
X114350000Y-129342800D02*
X112573587Y-129342800D01*
X128397000Y-127508000D02*
X129413000Y-128524000D01*
X112573587Y-129342800D02*
X109474000Y-132442387D01*
X109474000Y-135382000D02*
X110236000Y-136144000D01*
X129413000Y-128524000D02*
X129710000Y-128524000D01*
X114350000Y-129342800D02*
X116184800Y-127508000D01*
X110236000Y-136144000D02*
X111340600Y-136144000D01*
X109474000Y-132442387D02*
X109474000Y-133622800D01*
X109474000Y-133622800D02*
X109474000Y-135382000D01*
D39*
%TO.N,/NRST*%
X147955000Y-127254000D02*
X147955000Y-122555000D01*
X151130000Y-130429000D02*
X151130000Y-134620000D01*
X147955000Y-127254000D02*
X151130000Y-130429000D01*
X147955000Y-122555000D02*
X147523200Y-122123200D01*
D42*
%TO.N,/SW+*%
X106680000Y-123310000D02*
X106680000Y-120650000D01*
D39*
X116843547Y-118741453D02*
X116840000Y-118745000D01*
D42*
X116843547Y-115435154D02*
X116843547Y-118741453D01*
X116840000Y-123310000D02*
X116840000Y-120015000D01*
X106045000Y-120650000D02*
X104140000Y-122555000D01*
X104140000Y-122555000D02*
X104140000Y-123310000D01*
X106683547Y-115435154D02*
X106683547Y-118741453D01*
X111763547Y-115435154D02*
X111763547Y-118741453D01*
X106680000Y-120650000D02*
X106045000Y-120650000D01*
D40*
X109474000Y-129622800D02*
X109474000Y-128016000D01*
X111760000Y-125730000D02*
X111760000Y-123310000D01*
D42*
X111760000Y-123310000D02*
X111760000Y-120650000D01*
D40*
X109474000Y-128016000D02*
X111760000Y-125730000D01*
%TO.N,Net-(D2-Pad2)*%
X139863546Y-128733520D02*
X140208000Y-129077974D01*
X133186515Y-128687485D02*
X137103321Y-128687485D01*
X140208000Y-129077974D02*
X140208000Y-130175000D01*
X133186515Y-128687485D02*
X133023030Y-128524000D01*
X139773400Y-130609600D02*
X139773400Y-133646400D01*
D43*
X139773527Y-128705424D02*
X137062837Y-128705424D01*
D40*
X140208000Y-130175000D02*
X139773400Y-130609600D01*
X133023030Y-128524000D02*
X131910000Y-128524000D01*
D39*
%TO.N,Net-(D4-Pad1)*%
X174472500Y-119977500D02*
X174435000Y-120015000D01*
X174472500Y-118110000D02*
X174472500Y-119977500D01*
%TO.N,Net-(J1-Pad2)*%
X139090400Y-133613400D02*
X139123400Y-133646400D01*
X139090400Y-129641600D02*
X139090400Y-133613400D01*
X139192000Y-129540000D02*
X139090400Y-129641600D01*
%TO.N,Net-(J1-Pad3)*%
X137668000Y-129540000D02*
X137668000Y-130242647D01*
X138473400Y-131048047D02*
X138473400Y-133646400D01*
X137668000Y-130242647D02*
X138473400Y-131048047D01*
D44*
%TO.N,/LIPO+*%
X104140000Y-115438701D02*
X104140000Y-116840000D01*
D39*
X104143547Y-115435154D02*
X104140000Y-115438701D01*
D44*
X104140000Y-116840000D02*
X101600000Y-119380000D01*
X101600000Y-119380000D02*
X101600000Y-123310000D01*
D39*
%TO.N,Net-(J6-Pad1)*%
X142790000Y-106595000D02*
X145415000Y-109220000D01*
X141655000Y-106595000D02*
X142790000Y-106595000D01*
X145415000Y-109220000D02*
X148908000Y-109220000D01*
%TO.N,/CS_SD*%
X140555000Y-109536356D02*
X141859424Y-110840780D01*
X141859424Y-110840780D02*
X142910423Y-110840780D01*
X144687966Y-116459000D02*
X145161000Y-116459000D01*
X143902960Y-111833317D02*
X143902960Y-115673994D01*
X140555000Y-106595000D02*
X140555000Y-109536356D01*
X144670483Y-116441517D02*
X144687966Y-116459000D01*
X143902960Y-115673994D02*
X144670483Y-116441517D01*
X142910423Y-110840780D02*
X143902960Y-111833317D01*
%TO.N,/SCK*%
X137255000Y-107445000D02*
X141505420Y-111695420D01*
X143048320Y-112187320D02*
X143048320Y-116027998D01*
X167605640Y-125949640D02*
X155347997Y-125949640D01*
X155347997Y-125949640D02*
X149657978Y-120259620D01*
X141505420Y-111695420D02*
X142556420Y-111695420D01*
X149657978Y-120259620D02*
X149350193Y-120259620D01*
X142556420Y-111695420D02*
X143048320Y-112187320D01*
X137255000Y-106595000D02*
X137255000Y-107445000D01*
X145971161Y-118950839D02*
X146019322Y-118999000D01*
X167894000Y-126238000D02*
X167605640Y-125949640D01*
X146019322Y-118999000D02*
X147066000Y-118999000D01*
X143048320Y-116027998D02*
X145971161Y-118950839D01*
%TO.N,/MISO*%
X141328418Y-112122740D02*
X142348740Y-112122740D01*
X168736680Y-125522320D02*
X169545000Y-124714000D01*
X155524999Y-125522320D02*
X168736680Y-125522320D01*
X142348740Y-112122740D02*
X142621000Y-112395000D01*
X149636678Y-119634000D02*
X155524999Y-125522320D01*
X135055000Y-107099622D02*
X135452689Y-107497311D01*
X135055000Y-106595000D02*
X135055000Y-107099622D01*
X142621000Y-116205000D02*
X146050000Y-119634000D01*
X146050000Y-119634000D02*
X148971000Y-119634000D01*
X148971000Y-119634000D02*
X149636678Y-119634000D01*
X142621000Y-112395000D02*
X142621000Y-116205000D01*
X135452689Y-107497311D02*
X136702989Y-107497311D01*
X136702989Y-107497311D02*
X141328418Y-112122740D01*
%TO.N,Net-(J6-Pad8)*%
X133955000Y-106595000D02*
X133955000Y-111391256D01*
X133955000Y-111391256D02*
X133150280Y-112195976D01*
X133150280Y-115624280D02*
X133985000Y-116459000D01*
X133985000Y-116459000D02*
X133985000Y-117920000D01*
X133150280Y-112195976D02*
X133150280Y-115624280D01*
D45*
%TO.N,/D+*%
X136526000Y-127890000D02*
X136525000Y-127889000D01*
X137668000Y-127890000D02*
X136526000Y-127890000D01*
%TO.N,/D-*%
X139192000Y-127890000D02*
X140461000Y-127890000D01*
X140461000Y-127890000D02*
X140462000Y-127889000D01*
D39*
%TO.N,/SCL*%
X168976800Y-118745000D02*
X158877000Y-118745000D01*
X159385000Y-117983000D02*
X159385000Y-109093000D01*
X158750000Y-118618000D02*
X159385000Y-117983000D01*
X158877000Y-118745000D02*
X158750000Y-118618000D01*
X169332400Y-119100600D02*
X169332400Y-119634000D01*
X168976800Y-118745000D02*
X169332400Y-119100600D01*
%TO.N,/SDA*%
X160126080Y-119172320D02*
X166305320Y-119172320D01*
X167021000Y-119888000D02*
X167021000Y-120904000D01*
X159703400Y-119595000D02*
X160126080Y-119172320D01*
X166305320Y-119172320D02*
X167021000Y-119888000D01*
%TO.N,/CS_FL*%
X153543000Y-110871000D02*
X156591000Y-107823000D01*
X164401500Y-107823000D02*
X167703500Y-111125000D01*
X146177000Y-110871000D02*
X153543000Y-110871000D01*
X156591000Y-107823000D02*
X164401500Y-107823000D01*
X167703500Y-111125000D02*
X173863000Y-111125000D01*
%TO.N,/FIX*%
X176047500Y-118110000D02*
X176162500Y-118225000D01*
X176987200Y-117957600D02*
X177241200Y-118211600D01*
X176162500Y-118225000D02*
X176719800Y-118225000D01*
X176719800Y-118225000D02*
X177177000Y-118225000D01*
X177177000Y-118225000D02*
X178690000Y-118225000D01*
X176987200Y-117957600D02*
X176719800Y-118225000D01*
%TO.N,/TX1*%
X176396600Y-110725000D02*
X172161200Y-114960400D01*
X153162000Y-119837200D02*
X152298400Y-118973600D01*
X153162000Y-119837200D02*
X154127200Y-119837200D01*
X154127200Y-119837200D02*
X158089600Y-123799600D01*
X167640000Y-123799600D02*
X158089600Y-123799600D01*
X178690000Y-110725000D02*
X176396600Y-110725000D01*
X172161200Y-119278400D02*
X167640000Y-123799600D01*
X172161200Y-114960400D02*
X172161200Y-119278400D01*
%TO.N,/RX1*%
X154279600Y-121158000D02*
X154279600Y-120904000D01*
X167817001Y-124226920D02*
X157348520Y-124226920D01*
X154279600Y-121158000D02*
X157348520Y-124226920D01*
X178690000Y-112225000D02*
X178190000Y-112225000D01*
X178190000Y-112225000D02*
X172588520Y-117826480D01*
X172588520Y-117826480D02*
X172588520Y-119455401D01*
X172588520Y-119455401D02*
X167817001Y-124226920D01*
%TO.N,Net-(C19-Pad1)*%
X173355000Y-124145000D02*
X174589400Y-124145000D01*
X176530000Y-124320000D02*
X178595000Y-124320000D01*
X178595000Y-124320000D02*
X178690000Y-124225000D01*
X174764400Y-124320000D02*
X176530000Y-124320000D01*
X174589400Y-124145000D02*
X174764400Y-124320000D01*
%TD*%
%TA.AperFunction,Conductor*%
%TO.N,/SW+*%
G36*
X117594921Y-117266402D02*
G01*
X117641414Y-117320058D01*
X117652800Y-117372400D01*
X117652800Y-121387600D01*
X117632798Y-121455721D01*
X117579142Y-121502214D01*
X117526800Y-121513600D01*
X105510600Y-121513600D01*
X105442479Y-121493598D01*
X105395986Y-121439942D01*
X105384600Y-121387600D01*
X105384600Y-117372400D01*
X105404602Y-117304279D01*
X105458258Y-117257786D01*
X105510600Y-117246400D01*
X117526800Y-117246400D01*
X117594921Y-117266402D01*
G37*
%TD.AperFunction*%
%TD*%
M02*
