G04 #@! TF.GenerationSoftware,KiCad,Pcbnew,8.0.1*
G04 #@! TF.CreationDate,2024-06-08T15:54:11-04:00*
G04 #@! TF.ProjectId,SAP Mk3.2,53415020-4d6b-4332-9e32-2e6b69636164,rev?*
G04 #@! TF.SameCoordinates,Original*
G04 #@! TF.FileFunction,Copper,L4,Inr*
G04 #@! TF.FilePolarity,Positive*
%FSLAX46Y46*%
G04 Gerber Fmt 4.6, Leading zero omitted, Abs format (unit mm)*
G04 Created by KiCad (PCBNEW 8.0.1) date 2024-06-08 15:54:11*
%MOMM*%
%LPD*%
G01*
G04 APERTURE LIST*
G04 #@! TA.AperFunction,ComponentPad*
%ADD10R,2.200000X2.200000*%
G04 #@! TD*
G04 #@! TA.AperFunction,ComponentPad*
%ADD11C,2.200000*%
G04 #@! TD*
G04 #@! TA.AperFunction,ComponentPad*
%ADD12O,1.050000X1.900000*%
G04 #@! TD*
G04 #@! TA.AperFunction,ComponentPad*
%ADD13R,1.700000X1.700000*%
G04 #@! TD*
G04 #@! TA.AperFunction,ComponentPad*
%ADD14O,1.700000X1.700000*%
G04 #@! TD*
G04 #@! TA.AperFunction,ComponentPad*
%ADD15C,2.600000*%
G04 #@! TD*
G04 #@! TA.AperFunction,ComponentPad*
%ADD16R,1.600000X1.600000*%
G04 #@! TD*
G04 #@! TA.AperFunction,ComponentPad*
%ADD17C,1.600000*%
G04 #@! TD*
G04 #@! TA.AperFunction,ComponentPad*
%ADD18R,1.905000X2.000000*%
G04 #@! TD*
G04 #@! TA.AperFunction,ComponentPad*
%ADD19O,1.905000X2.000000*%
G04 #@! TD*
G04 #@! TA.AperFunction,ViaPad*
%ADD20C,0.800000*%
G04 #@! TD*
G04 #@! TA.AperFunction,ViaPad*
%ADD21C,0.350000*%
G04 #@! TD*
G04 #@! TA.AperFunction,ViaPad*
%ADD22C,0.580000*%
G04 #@! TD*
G04 #@! TA.AperFunction,ViaPad*
%ADD23C,0.600000*%
G04 #@! TD*
G04 #@! TA.AperFunction,Conductor*
%ADD24C,2.000000*%
G04 #@! TD*
G04 APERTURE END LIST*
D10*
X82000000Y-77520000D03*
D11*
X82000000Y-74980000D03*
X82000000Y-72440000D03*
X82000000Y-69900000D03*
X82000000Y-67360000D03*
X82000000Y-64820000D03*
X82000000Y-62280000D03*
X82000000Y-59740000D03*
X82000000Y-57200000D03*
X82000000Y-54660000D03*
X82000000Y-52120000D03*
X82000000Y-49580000D03*
D12*
X111650000Y-77700000D03*
X118800000Y-77700000D03*
D13*
X128950000Y-79150000D03*
D14*
X126410000Y-79150000D03*
X123870000Y-79150000D03*
X121330000Y-79150000D03*
D15*
X126000000Y-57050000D03*
D16*
X109750000Y-65900000D03*
D17*
X113750000Y-65900000D03*
D15*
X92350000Y-56600000D03*
X126050000Y-74400000D03*
D18*
X101540000Y-76755000D03*
D19*
X99000000Y-76755000D03*
X96460000Y-76755000D03*
D13*
X108725000Y-78650000D03*
D14*
X106185000Y-78650000D03*
D13*
X103690000Y-47950000D03*
D14*
X101150000Y-47950000D03*
X98610000Y-47950000D03*
X96070000Y-47950000D03*
X93530000Y-47950000D03*
X90990000Y-47950000D03*
D20*
X94500000Y-75400000D03*
D21*
X107950000Y-69800000D03*
D20*
X93450000Y-76350000D03*
D21*
X120550000Y-63650000D03*
X92300000Y-67500000D03*
X121150000Y-48600000D03*
X108950000Y-50500000D03*
X103800000Y-59475000D03*
X108100000Y-59600000D03*
X103250000Y-55850000D03*
X92300000Y-72100000D03*
X97150000Y-53750000D03*
X103850000Y-65500000D03*
X120550000Y-62500000D03*
X103875000Y-67100000D03*
X99950000Y-54550000D03*
X118050000Y-54300000D03*
X113000000Y-55350000D03*
X108400000Y-50000000D03*
X97950000Y-52000000D03*
X101450000Y-53700000D03*
X109600000Y-59550000D03*
X114950000Y-69650000D03*
D20*
X97800000Y-75350000D03*
D21*
X121150000Y-55200000D03*
X101450000Y-52450000D03*
X95500000Y-72100000D03*
X102250000Y-59475000D03*
X115500000Y-70150000D03*
X95950000Y-63425000D03*
X100200000Y-59950000D03*
X97500000Y-63425000D03*
X99250000Y-62050000D03*
X120600000Y-61450000D03*
D22*
X129350000Y-62532872D03*
D21*
X107950000Y-76050000D03*
X121350000Y-69050000D03*
X119625000Y-72650000D03*
X103900000Y-62100000D03*
X102350000Y-66100000D03*
X101550000Y-66400000D03*
X99100000Y-71450000D03*
X99000000Y-72300000D03*
X98300000Y-72300000D03*
X100000000Y-71450000D03*
X88500000Y-53400000D03*
X88500000Y-50900000D03*
X88500000Y-63500000D03*
X88500000Y-61000000D03*
X88500000Y-71200000D03*
X88500000Y-73700000D03*
X99750000Y-67850000D03*
X103850000Y-63850000D03*
X110929123Y-49079013D03*
X95650000Y-70800000D03*
X108100000Y-61225000D03*
X97150000Y-59700000D03*
X127150000Y-68450000D03*
X113450000Y-68250000D03*
X99050000Y-52550000D03*
X98000000Y-59300000D03*
X128956900Y-68000001D03*
X112200000Y-67650000D03*
X109600000Y-61250000D03*
X88250000Y-55600000D03*
X88250000Y-75950000D03*
X88250000Y-68950000D03*
X88250000Y-65750000D03*
X88250000Y-58700000D03*
X88250000Y-48650000D03*
X108950000Y-49500000D03*
X113800000Y-49150000D03*
X106050000Y-56800000D03*
X109400000Y-48550000D03*
X100050000Y-51500000D03*
X98900000Y-63200000D03*
X104650000Y-56200000D03*
X109924018Y-49052010D03*
X102300000Y-56500000D03*
X110428070Y-48535956D03*
X106750000Y-56800000D03*
X111427175Y-48544957D03*
X108000000Y-63200000D03*
X94700000Y-69000000D03*
X97000000Y-66650000D03*
X111943229Y-49094015D03*
X107000000Y-64200000D03*
X93650000Y-70250000D03*
D20*
X125700000Y-47150000D03*
X116300000Y-59100000D03*
D21*
X102300000Y-54450000D03*
D20*
X112050000Y-47150000D03*
D21*
X84400000Y-47850000D03*
X116279651Y-53562500D03*
X106950000Y-74000000D03*
X87800000Y-76800000D03*
D20*
X124000000Y-54350000D03*
D21*
X84450000Y-76700000D03*
X98850000Y-67350000D03*
X106050000Y-48650000D03*
D20*
X108150000Y-47150000D03*
D21*
X116237217Y-49912500D03*
D20*
X129550000Y-59100000D03*
X121500000Y-74050000D03*
D21*
X103050000Y-52450000D03*
X87450000Y-53200000D03*
X87450000Y-61150000D03*
D20*
X129450000Y-49700000D03*
X121850000Y-59100000D03*
X123750000Y-47150000D03*
X116300000Y-60900000D03*
D21*
X114237217Y-49912500D03*
D20*
X129150000Y-47950000D03*
D21*
X96850000Y-52700000D03*
X97750000Y-55550000D03*
D20*
X123250000Y-72500000D03*
D21*
X102325000Y-67100000D03*
X115587217Y-51612500D03*
D20*
X129450000Y-53600000D03*
D21*
X113537217Y-49912500D03*
X93850000Y-71450000D03*
D20*
X114000000Y-47150000D03*
D21*
X114937217Y-49912500D03*
D20*
X128700000Y-72400000D03*
D21*
X87600000Y-57950000D03*
D20*
X116300000Y-64800000D03*
X123150000Y-70300000D03*
D21*
X116750000Y-52012500D03*
X106050000Y-74800000D03*
X103800000Y-61025000D03*
X97500000Y-61875000D03*
X109500000Y-74200000D03*
X127650000Y-63150000D03*
X106950000Y-75600000D03*
D20*
X117892124Y-72830290D03*
X119900000Y-59100000D03*
X117900000Y-47150000D03*
D21*
X92300000Y-70600000D03*
D20*
X127650000Y-70350000D03*
X121800000Y-56800000D03*
X119000000Y-70199999D03*
X116300000Y-62850000D03*
X121800000Y-47150000D03*
D21*
X87650000Y-68100000D03*
X87450000Y-73500000D03*
X84450000Y-56400000D03*
D20*
X110100000Y-57700000D03*
D21*
X102850000Y-53800000D03*
X84450000Y-57950000D03*
X94900000Y-51650000D03*
X115637217Y-49662500D03*
X87450000Y-63300000D03*
D20*
X123100000Y-65800000D03*
D21*
X102250000Y-61025000D03*
D20*
X127950000Y-59100000D03*
D21*
X114329651Y-51512500D03*
D20*
X117900000Y-56800000D03*
X127650000Y-61350000D03*
X118500000Y-61300000D03*
X116750000Y-69000000D03*
D21*
X100200000Y-59000000D03*
X100050000Y-52500000D03*
D20*
X114000000Y-56800000D03*
D21*
X84450000Y-68150000D03*
X106050000Y-74000000D03*
D20*
X115950000Y-56800000D03*
X119500000Y-74050000D03*
D21*
X115587217Y-51012500D03*
X87450000Y-51000000D03*
D20*
X116948011Y-70992822D03*
D21*
X106050000Y-75600000D03*
D20*
X118550000Y-65800000D03*
D21*
X116550000Y-74700000D03*
D20*
X118050000Y-59100000D03*
X112150000Y-57750000D03*
D21*
X96800000Y-49900000D03*
X98850000Y-55550000D03*
X100800000Y-62050000D03*
X115679651Y-52862500D03*
X116579651Y-52912500D03*
D20*
X116300000Y-66750000D03*
X119850000Y-47150000D03*
X123800000Y-59100000D03*
D21*
X87650000Y-66500000D03*
X95950000Y-61875000D03*
D20*
X127650000Y-47150000D03*
D21*
X92300000Y-65950000D03*
D20*
X119850000Y-56800000D03*
D21*
X106950000Y-74800000D03*
X116937217Y-49912500D03*
X107750000Y-50500000D03*
X115600000Y-68750000D03*
X87600000Y-47800000D03*
X114950000Y-68750000D03*
D20*
X129450000Y-51650000D03*
D21*
X98300000Y-55550000D03*
D20*
X110100000Y-47150000D03*
D21*
X84450000Y-66500000D03*
X122125000Y-72650000D03*
X87600000Y-56450000D03*
X87450000Y-71400000D03*
X97150000Y-60450000D03*
D20*
X127750000Y-54350000D03*
X108150000Y-57700000D03*
X115950000Y-47150000D03*
D21*
X97950000Y-50600000D03*
X116887217Y-51062500D03*
D20*
X123100000Y-61300000D03*
D21*
X119550000Y-55200000D03*
X107950000Y-75100000D03*
D23*
X111500000Y-74100000D03*
D21*
X122650000Y-54300000D03*
D24*
X93530000Y-47950000D02*
X93530000Y-49280000D01*
G04 #@! TA.AperFunction,Conductor*
G36*
X89994386Y-46770462D02*
G01*
X90048924Y-46825000D01*
X90068886Y-46899500D01*
X90048924Y-46974000D01*
X90025245Y-47004859D01*
X89951507Y-47078596D01*
X89838860Y-47239474D01*
X89815965Y-47272171D01*
X89717152Y-47484075D01*
X89716096Y-47486340D01*
X89654937Y-47714590D01*
X89634341Y-47950000D01*
X89654937Y-48185409D01*
X89716095Y-48413658D01*
X89716097Y-48413663D01*
X89815965Y-48627830D01*
X89951505Y-48821401D01*
X90118599Y-48988495D01*
X90312170Y-49124035D01*
X90526337Y-49223903D01*
X90754592Y-49285063D01*
X90990000Y-49305659D01*
X91225408Y-49285063D01*
X91453663Y-49223903D01*
X91667830Y-49124035D01*
X91861401Y-48988495D01*
X92028495Y-48821401D01*
X92164035Y-48627830D01*
X92263903Y-48413663D01*
X92298526Y-48284445D01*
X92337090Y-48217651D01*
X92403884Y-48179086D01*
X92481012Y-48179086D01*
X92547807Y-48217650D01*
X92585033Y-48279756D01*
X92601649Y-48334533D01*
X92694508Y-48508260D01*
X92694509Y-48508262D01*
X92819469Y-48660525D01*
X92819474Y-48660530D01*
X92971737Y-48785490D01*
X92971739Y-48785491D01*
X93145468Y-48878350D01*
X93145467Y-48878350D01*
X93279999Y-48919159D01*
X93280000Y-48919159D01*
X93280000Y-48383012D01*
X93337007Y-48415925D01*
X93464174Y-48450000D01*
X93595826Y-48450000D01*
X93722993Y-48415925D01*
X93780000Y-48383012D01*
X93780000Y-48919159D01*
X93914532Y-48878350D01*
X94088260Y-48785491D01*
X94088262Y-48785490D01*
X94240525Y-48660530D01*
X94240530Y-48660525D01*
X94365490Y-48508262D01*
X94365491Y-48508260D01*
X94458349Y-48334535D01*
X94474965Y-48279758D01*
X94515694Y-48214260D01*
X94583714Y-48177902D01*
X94660801Y-48180424D01*
X94726299Y-48221153D01*
X94761473Y-48284445D01*
X94796096Y-48413661D01*
X94796097Y-48413663D01*
X94895965Y-48627830D01*
X95031505Y-48821401D01*
X95198599Y-48988495D01*
X95392170Y-49124035D01*
X95606337Y-49223903D01*
X95834592Y-49285063D01*
X96070000Y-49305659D01*
X96094435Y-49303521D01*
X96170391Y-49316914D01*
X96229475Y-49366490D01*
X96255855Y-49438967D01*
X96242462Y-49514923D01*
X96230048Y-49536594D01*
X96197482Y-49583774D01*
X96197480Y-49583778D01*
X96139312Y-49737152D01*
X96119539Y-49900000D01*
X96139312Y-50062847D01*
X96185176Y-50183778D01*
X96197482Y-50216226D01*
X96197483Y-50216227D01*
X96290664Y-50351224D01*
X96290665Y-50351225D01*
X96290668Y-50351229D01*
X96413454Y-50460008D01*
X96558705Y-50536242D01*
X96717979Y-50575500D01*
X96717980Y-50575500D01*
X96882020Y-50575500D01*
X96882021Y-50575500D01*
X97041295Y-50536242D01*
X97057449Y-50527763D01*
X97132690Y-50510817D01*
X97206326Y-50533761D01*
X97258625Y-50590450D01*
X97274607Y-50641736D01*
X97289312Y-50762847D01*
X97332324Y-50876258D01*
X97347482Y-50916226D01*
X97371643Y-50951229D01*
X97440664Y-51051224D01*
X97440665Y-51051225D01*
X97440668Y-51051229D01*
X97563454Y-51160008D01*
X97708705Y-51236242D01*
X97867979Y-51275500D01*
X97867980Y-51275500D01*
X98032020Y-51275500D01*
X98032021Y-51275500D01*
X98191295Y-51236242D01*
X98336546Y-51160008D01*
X98459332Y-51051229D01*
X98552518Y-50916226D01*
X98610688Y-50762845D01*
X98630461Y-50600000D01*
X98610688Y-50437155D01*
X98552518Y-50283774D01*
X98483493Y-50183774D01*
X98459335Y-50148775D01*
X98459334Y-50148774D01*
X98459332Y-50148771D01*
X98336546Y-50039992D01*
X98191295Y-49963758D01*
X98032021Y-49924500D01*
X97867979Y-49924500D01*
X97814887Y-49937586D01*
X97708703Y-49963758D01*
X97708699Y-49963760D01*
X97692545Y-49972238D01*
X97617301Y-49989182D01*
X97543666Y-49966234D01*
X97491371Y-49909542D01*
X97475393Y-49858267D01*
X97460688Y-49737155D01*
X97402518Y-49583774D01*
X97309332Y-49448771D01*
X97186546Y-49339992D01*
X97088080Y-49288313D01*
X97041294Y-49263757D01*
X97001955Y-49254061D01*
X96995225Y-49252402D01*
X96927668Y-49215192D01*
X96887767Y-49149187D01*
X96886214Y-49072075D01*
X96923425Y-49004517D01*
X96936769Y-48993091D01*
X96936420Y-48992675D01*
X96941397Y-48988498D01*
X96941397Y-48988497D01*
X96941401Y-48988495D01*
X97108495Y-48821401D01*
X97217947Y-48665086D01*
X97277030Y-48615511D01*
X97352986Y-48602118D01*
X97425463Y-48628497D01*
X97462051Y-48665085D01*
X97571505Y-48821401D01*
X97738599Y-48988495D01*
X97932170Y-49124035D01*
X98146337Y-49223903D01*
X98374592Y-49285063D01*
X98610000Y-49305659D01*
X98845408Y-49285063D01*
X99073663Y-49223903D01*
X99287830Y-49124035D01*
X99481401Y-48988495D01*
X99648495Y-48821401D01*
X99757947Y-48665086D01*
X99817030Y-48615511D01*
X99892986Y-48602118D01*
X99965463Y-48628497D01*
X100002051Y-48665085D01*
X100111505Y-48821401D01*
X100278599Y-48988495D01*
X100472170Y-49124035D01*
X100686337Y-49223903D01*
X100914592Y-49285063D01*
X101150000Y-49305659D01*
X101385408Y-49285063D01*
X101613663Y-49223903D01*
X101827830Y-49124035D01*
X102021401Y-48988495D01*
X102115819Y-48894077D01*
X102182613Y-48855512D01*
X102259741Y-48855512D01*
X102326536Y-48894076D01*
X102360784Y-48947366D01*
X102396202Y-49042329D01*
X102396204Y-49042333D01*
X102482452Y-49157544D01*
X102482455Y-49157547D01*
X102597666Y-49243795D01*
X102597670Y-49243797D01*
X102732517Y-49294091D01*
X102792114Y-49300499D01*
X102792118Y-49300499D01*
X102792127Y-49300500D01*
X104587872Y-49300499D01*
X104647483Y-49294091D01*
X104749224Y-49256144D01*
X104782329Y-49243797D01*
X104782333Y-49243795D01*
X104841465Y-49199528D01*
X104897546Y-49157546D01*
X104945105Y-49094015D01*
X104983795Y-49042333D01*
X104983797Y-49042329D01*
X105018297Y-48949829D01*
X105034091Y-48907483D01*
X105039679Y-48855512D01*
X105040499Y-48847885D01*
X105040499Y-48847882D01*
X105040500Y-48847873D01*
X105040500Y-48650000D01*
X105369539Y-48650000D01*
X105389312Y-48812847D01*
X105437533Y-48939994D01*
X105447482Y-48966226D01*
X105466026Y-48993091D01*
X105540664Y-49101224D01*
X105540665Y-49101225D01*
X105540668Y-49101229D01*
X105663454Y-49210008D01*
X105808705Y-49286242D01*
X105967979Y-49325500D01*
X105967980Y-49325500D01*
X106132020Y-49325500D01*
X106132021Y-49325500D01*
X106291295Y-49286242D01*
X106436546Y-49210008D01*
X106559332Y-49101229D01*
X106652518Y-48966226D01*
X106710688Y-48812845D01*
X106730461Y-48650000D01*
X106710688Y-48487155D01*
X106708816Y-48482220D01*
X106691379Y-48436242D01*
X106652518Y-48333774D01*
X106583493Y-48233774D01*
X106559335Y-48198775D01*
X106559334Y-48198774D01*
X106559332Y-48198771D01*
X106436546Y-48089992D01*
X106291295Y-48013758D01*
X106132021Y-47974500D01*
X105967979Y-47974500D01*
X105910449Y-47988680D01*
X105808704Y-48013758D01*
X105739113Y-48050283D01*
X105663454Y-48089992D01*
X105540668Y-48198771D01*
X105540667Y-48198772D01*
X105540664Y-48198775D01*
X105447483Y-48333772D01*
X105447480Y-48333778D01*
X105389312Y-48487152D01*
X105369539Y-48650000D01*
X105040500Y-48650000D01*
X105040499Y-47052128D01*
X105034091Y-46992517D01*
X105018817Y-46951567D01*
X105011487Y-46874791D01*
X105043527Y-46804633D01*
X105106354Y-46759894D01*
X105158424Y-46750500D01*
X107127883Y-46750500D01*
X107202383Y-46770462D01*
X107256921Y-46825000D01*
X107276883Y-46899500D01*
X107269590Y-46945544D01*
X107264325Y-46961745D01*
X107244540Y-47150000D01*
X107264325Y-47338254D01*
X107283990Y-47398775D01*
X107322821Y-47518284D01*
X107341075Y-47549901D01*
X107417469Y-47682220D01*
X107501913Y-47776003D01*
X107544129Y-47822888D01*
X107697270Y-47934151D01*
X107870197Y-48011144D01*
X107996607Y-48038013D01*
X108055352Y-48050500D01*
X108055354Y-48050500D01*
X108244648Y-48050500D01*
X108284004Y-48042134D01*
X108429803Y-48011144D01*
X108602730Y-47934151D01*
X108744006Y-47831508D01*
X108755966Y-47826916D01*
X108762797Y-47815194D01*
X108882533Y-47682216D01*
X108977179Y-47518284D01*
X108983294Y-47499463D01*
X109025299Y-47434782D01*
X109094020Y-47399766D01*
X109171043Y-47403802D01*
X109235728Y-47445809D01*
X109266705Y-47499462D01*
X109272821Y-47518284D01*
X109291075Y-47549901D01*
X109359346Y-47668150D01*
X109379308Y-47742651D01*
X109359346Y-47817150D01*
X109304808Y-47871688D01*
X109265967Y-47887319D01*
X109158705Y-47913758D01*
X109013454Y-47989992D01*
X108976385Y-48022832D01*
X108972332Y-48026423D01*
X108949122Y-48038013D01*
X108930390Y-48063580D01*
X108890668Y-48098771D01*
X108890665Y-48098773D01*
X108797483Y-48233772D01*
X108797480Y-48233778D01*
X108739312Y-48387152D01*
X108719539Y-48550000D01*
X108739312Y-48712845D01*
X108740806Y-48718904D01*
X108739254Y-48796017D01*
X108699353Y-48862022D01*
X108665384Y-48886494D01*
X108563454Y-48939992D01*
X108563452Y-48939993D01*
X108563451Y-48939994D01*
X108510393Y-48987000D01*
X108440668Y-49048771D01*
X108440667Y-49048772D01*
X108440664Y-49048775D01*
X108347483Y-49183772D01*
X108347480Y-49183778D01*
X108289312Y-49337152D01*
X108269539Y-49500000D01*
X108289312Y-49662847D01*
X108319187Y-49741619D01*
X108326940Y-49818356D01*
X108295286Y-49888689D01*
X108232706Y-49933772D01*
X108155969Y-49941525D01*
X108110626Y-49926388D01*
X107991295Y-49863758D01*
X107968997Y-49858262D01*
X107832021Y-49824500D01*
X107667979Y-49824500D01*
X107640967Y-49831158D01*
X107508704Y-49863758D01*
X107462032Y-49888254D01*
X107363454Y-49939992D01*
X107240668Y-50048771D01*
X107240667Y-50048772D01*
X107240664Y-50048775D01*
X107147483Y-50183772D01*
X107147480Y-50183778D01*
X107089312Y-50337152D01*
X107069539Y-50500000D01*
X107089312Y-50662847D01*
X107137102Y-50788856D01*
X107147482Y-50816226D01*
X107175637Y-50857016D01*
X107240664Y-50951224D01*
X107240665Y-50951225D01*
X107240668Y-50951229D01*
X107363454Y-51060008D01*
X107508705Y-51136242D01*
X107667979Y-51175500D01*
X107667980Y-51175500D01*
X107832020Y-51175500D01*
X107832021Y-51175500D01*
X107991295Y-51136242D01*
X108136546Y-51060008D01*
X108259332Y-50951229D01*
X108352518Y-50816226D01*
X108410688Y-50662845D01*
X108430461Y-50500000D01*
X108410688Y-50337155D01*
X108380811Y-50258378D01*
X108373058Y-50181644D01*
X108404712Y-50111310D01*
X108467292Y-50066227D01*
X108544029Y-50058473D01*
X108589370Y-50073610D01*
X108708705Y-50136242D01*
X108867979Y-50175500D01*
X108867980Y-50175500D01*
X109032020Y-50175500D01*
X109032021Y-50175500D01*
X109191295Y-50136242D01*
X109336546Y-50060008D01*
X109459332Y-49951229D01*
X109486065Y-49912500D01*
X112856756Y-49912500D01*
X112876529Y-50075347D01*
X112904377Y-50148775D01*
X112934699Y-50228726D01*
X112958880Y-50263758D01*
X113027881Y-50363724D01*
X113027882Y-50363725D01*
X113027885Y-50363729D01*
X113150671Y-50472508D01*
X113295922Y-50548742D01*
X113455196Y-50588000D01*
X113455197Y-50588000D01*
X113619238Y-50588000D01*
X113778512Y-50548742D01*
X113817973Y-50528030D01*
X113893214Y-50511084D01*
X113956459Y-50528030D01*
X113995922Y-50548742D01*
X114119581Y-50579221D01*
X114187138Y-50616432D01*
X114227039Y-50682436D01*
X114228592Y-50759549D01*
X114191381Y-50827107D01*
X114125377Y-50867008D01*
X114119584Y-50868560D01*
X114088357Y-50876257D01*
X114015730Y-50914375D01*
X113943105Y-50952492D01*
X113820319Y-51061271D01*
X113820318Y-51061272D01*
X113820315Y-51061275D01*
X113727134Y-51196272D01*
X113727131Y-51196278D01*
X113668963Y-51349652D01*
X113649190Y-51512500D01*
X113668963Y-51675347D01*
X113721110Y-51812845D01*
X113727133Y-51828726D01*
X113741577Y-51849652D01*
X113820315Y-51963724D01*
X113820316Y-51963725D01*
X113820319Y-51963729D01*
X113943105Y-52072508D01*
X114088356Y-52148742D01*
X114247630Y-52188000D01*
X114247631Y-52188000D01*
X114411671Y-52188000D01*
X114411672Y-52188000D01*
X114570946Y-52148742D01*
X114716197Y-52072508D01*
X114818510Y-51981866D01*
X114887508Y-51947406D01*
X114964495Y-51952063D01*
X115028840Y-51994589D01*
X115039937Y-52008753D01*
X115077881Y-52063724D01*
X115077884Y-52063728D01*
X115194360Y-52166918D01*
X115236886Y-52231263D01*
X115241543Y-52308250D01*
X115207081Y-52377251D01*
X115194361Y-52389971D01*
X115170319Y-52411270D01*
X115170316Y-52411273D01*
X115077134Y-52546272D01*
X115077131Y-52546278D01*
X115018963Y-52699652D01*
X114999190Y-52862500D01*
X115018963Y-53025347D01*
X115077131Y-53178721D01*
X115077133Y-53178726D01*
X115109419Y-53225500D01*
X115170315Y-53313724D01*
X115170316Y-53313725D01*
X115170319Y-53313729D01*
X115293105Y-53422508D01*
X115419520Y-53488856D01*
X115438356Y-53498742D01*
X115496312Y-53513027D01*
X115563870Y-53550238D01*
X115603771Y-53616243D01*
X115608567Y-53639736D01*
X115618962Y-53725340D01*
X115618963Y-53725347D01*
X115677131Y-53878721D01*
X115677133Y-53878726D01*
X115684910Y-53889993D01*
X115770315Y-54013724D01*
X115770316Y-54013725D01*
X115770319Y-54013729D01*
X115893105Y-54122508D01*
X116038356Y-54198742D01*
X116197630Y-54238000D01*
X116197631Y-54238000D01*
X116361671Y-54238000D01*
X116361672Y-54238000D01*
X116520946Y-54198742D01*
X116666197Y-54122508D01*
X116788983Y-54013729D01*
X116882169Y-53878726D01*
X116940339Y-53725345D01*
X116960112Y-53562500D01*
X116960112Y-53562496D01*
X116960112Y-53553487D01*
X116961719Y-53553487D01*
X116971101Y-53487382D01*
X117009368Y-53434261D01*
X117088983Y-53363729D01*
X117182169Y-53228726D01*
X117240339Y-53075345D01*
X117260112Y-52912500D01*
X117240339Y-52749655D01*
X117236243Y-52738856D01*
X117200419Y-52644395D01*
X117192665Y-52567658D01*
X117224320Y-52497325D01*
X117240925Y-52480035D01*
X117259332Y-52463729D01*
X117352518Y-52328726D01*
X117410688Y-52175345D01*
X117430461Y-52012500D01*
X117410688Y-51849655D01*
X117395448Y-51809471D01*
X117349322Y-51687846D01*
X117352003Y-51686828D01*
X117338397Y-51626413D01*
X117361343Y-51552777D01*
X117388471Y-51520884D01*
X117396549Y-51513729D01*
X117489735Y-51378726D01*
X117547905Y-51225345D01*
X117567678Y-51062500D01*
X117547905Y-50899655D01*
X117489735Y-50746274D01*
X117404927Y-50623408D01*
X117396554Y-50611278D01*
X117396553Y-50611277D01*
X117396549Y-50611271D01*
X117396543Y-50611266D01*
X117394477Y-50608934D01*
X117393274Y-50606526D01*
X117391429Y-50603853D01*
X117391808Y-50603591D01*
X117360012Y-50539935D01*
X117364664Y-50462947D01*
X117407181Y-50398605D01*
X117446549Y-50363729D01*
X117539735Y-50228726D01*
X117597905Y-50075345D01*
X117617678Y-49912500D01*
X117597905Y-49749655D01*
X117589506Y-49727510D01*
X117579073Y-49700000D01*
X117539735Y-49596274D01*
X117446549Y-49461271D01*
X117323763Y-49352492D01*
X117178512Y-49276258D01*
X117019238Y-49237000D01*
X116855196Y-49237000D01*
X116777527Y-49256144D01*
X116695921Y-49276258D01*
X116656459Y-49296969D01*
X116581215Y-49313914D01*
X116517975Y-49296969D01*
X116478512Y-49276258D01*
X116478513Y-49276258D01*
X116396907Y-49256144D01*
X116319238Y-49237000D01*
X116319237Y-49237000D01*
X116232099Y-49237000D01*
X116157599Y-49217038D01*
X116133297Y-49199531D01*
X116023763Y-49102492D01*
X115878512Y-49026258D01*
X115719238Y-48987000D01*
X115555196Y-48987000D01*
X115484128Y-49004517D01*
X115395921Y-49026258D01*
X115250668Y-49102493D01*
X115250665Y-49102495D01*
X115139441Y-49201032D01*
X115070439Y-49235493D01*
X115022674Y-49237417D01*
X115019240Y-49237000D01*
X115019238Y-49237000D01*
X114855196Y-49237000D01*
X114827628Y-49243795D01*
X114695920Y-49276258D01*
X114687492Y-49279455D01*
X114686747Y-49277492D01*
X114623448Y-49291743D01*
X114549814Y-49268790D01*
X114497522Y-49212096D01*
X114484340Y-49158607D01*
X114481547Y-49158947D01*
X114477308Y-49124033D01*
X114460688Y-48987155D01*
X114402518Y-48833774D01*
X114309332Y-48698771D01*
X114186546Y-48589992D01*
X114041295Y-48513758D01*
X113882021Y-48474500D01*
X113717979Y-48474500D01*
X113638342Y-48494129D01*
X113558704Y-48513758D01*
X113520122Y-48534008D01*
X113413454Y-48589992D01*
X113290668Y-48698771D01*
X113290667Y-48698772D01*
X113290664Y-48698775D01*
X113197483Y-48833772D01*
X113197480Y-48833778D01*
X113139312Y-48987152D01*
X113125307Y-49102493D01*
X113119539Y-49150000D01*
X113135019Y-49277492D01*
X113135336Y-49280096D01*
X113124499Y-49356459D01*
X113086228Y-49409583D01*
X113027885Y-49461271D01*
X113027882Y-49461273D01*
X112934700Y-49596272D01*
X112934697Y-49596278D01*
X112876529Y-49749652D01*
X112856756Y-49912500D01*
X109486065Y-49912500D01*
X109552518Y-49816226D01*
X109561226Y-49793263D01*
X109606307Y-49730687D01*
X109676640Y-49699033D01*
X109736199Y-49701432D01*
X109841997Y-49727510D01*
X109841998Y-49727510D01*
X110006038Y-49727510D01*
X110006039Y-49727510D01*
X110165313Y-49688252D01*
X110310564Y-49612018D01*
X110312520Y-49610284D01*
X110314528Y-49609281D01*
X110317982Y-49606898D01*
X110318320Y-49607387D01*
X110381515Y-49575821D01*
X110458503Y-49580473D01*
X110510136Y-49610281D01*
X110542571Y-49639017D01*
X110542574Y-49639019D01*
X110542575Y-49639019D01*
X110542577Y-49639021D01*
X110687828Y-49715255D01*
X110847102Y-49754513D01*
X110847103Y-49754513D01*
X111011143Y-49754513D01*
X111011144Y-49754513D01*
X111170418Y-49715255D01*
X111315669Y-49639021D01*
X111328901Y-49627297D01*
X111397899Y-49592836D01*
X111474887Y-49597491D01*
X111526512Y-49627295D01*
X111556678Y-49654019D01*
X111556680Y-49654021D01*
X111556681Y-49654021D01*
X111556683Y-49654023D01*
X111701934Y-49730257D01*
X111861208Y-49769515D01*
X111861209Y-49769515D01*
X112025249Y-49769515D01*
X112025250Y-49769515D01*
X112184524Y-49730257D01*
X112329775Y-49654023D01*
X112452561Y-49545244D01*
X112545747Y-49410241D01*
X112603917Y-49256860D01*
X112623690Y-49094015D01*
X112603917Y-48931170D01*
X112598106Y-48915849D01*
X112578351Y-48863758D01*
X112545747Y-48777789D01*
X112464805Y-48660525D01*
X112452564Y-48642790D01*
X112452563Y-48642789D01*
X112452561Y-48642786D01*
X112329775Y-48534007D01*
X112184524Y-48457773D01*
X112184523Y-48457772D01*
X112184522Y-48457772D01*
X112176099Y-48454578D01*
X112176643Y-48453142D01*
X112117920Y-48420798D01*
X112081818Y-48366174D01*
X112069818Y-48334533D01*
X112037327Y-48248862D01*
X112029575Y-48172126D01*
X112061229Y-48101792D01*
X112123809Y-48056710D01*
X112145663Y-48050283D01*
X112329803Y-48011144D01*
X112502730Y-47934151D01*
X112655871Y-47822888D01*
X112748896Y-47719574D01*
X112782530Y-47682220D01*
X112782531Y-47682218D01*
X112782533Y-47682216D01*
X112877179Y-47518284D01*
X112883294Y-47499463D01*
X112925299Y-47434782D01*
X112994020Y-47399766D01*
X113071043Y-47403802D01*
X113135728Y-47445809D01*
X113166705Y-47499462D01*
X113172821Y-47518284D01*
X113191075Y-47549901D01*
X113267469Y-47682220D01*
X113351913Y-47776003D01*
X113394129Y-47822888D01*
X113547270Y-47934151D01*
X113720197Y-48011144D01*
X113846607Y-48038013D01*
X113905352Y-48050500D01*
X113905354Y-48050500D01*
X114094648Y-48050500D01*
X114134004Y-48042134D01*
X114279803Y-48011144D01*
X114452730Y-47934151D01*
X114605871Y-47822888D01*
X114698896Y-47719574D01*
X114732530Y-47682220D01*
X114732531Y-47682218D01*
X114732533Y-47682216D01*
X114827179Y-47518284D01*
X114833294Y-47499463D01*
X114875299Y-47434782D01*
X114944020Y-47399766D01*
X115021043Y-47403802D01*
X115085728Y-47445809D01*
X115116705Y-47499462D01*
X115122821Y-47518284D01*
X115141075Y-47549901D01*
X115217469Y-47682220D01*
X115301913Y-47776003D01*
X115344129Y-47822888D01*
X115497270Y-47934151D01*
X115670197Y-48011144D01*
X115796607Y-48038013D01*
X115855352Y-48050500D01*
X115855354Y-48050500D01*
X116044648Y-48050500D01*
X116084004Y-48042134D01*
X116229803Y-48011144D01*
X116402730Y-47934151D01*
X116555871Y-47822888D01*
X116648896Y-47719574D01*
X116682530Y-47682220D01*
X116682531Y-47682218D01*
X116682533Y-47682216D01*
X116777179Y-47518284D01*
X116783294Y-47499463D01*
X116825299Y-47434782D01*
X116894020Y-47399766D01*
X116971043Y-47403802D01*
X117035728Y-47445809D01*
X117066705Y-47499462D01*
X117072821Y-47518284D01*
X117091075Y-47549901D01*
X117167469Y-47682220D01*
X117251913Y-47776003D01*
X117294129Y-47822888D01*
X117447270Y-47934151D01*
X117620197Y-48011144D01*
X117746607Y-48038013D01*
X117805352Y-48050500D01*
X117805354Y-48050500D01*
X117994648Y-48050500D01*
X118034004Y-48042134D01*
X118179803Y-48011144D01*
X118352730Y-47934151D01*
X118505871Y-47822888D01*
X118598896Y-47719574D01*
X118632530Y-47682220D01*
X118632531Y-47682218D01*
X118632533Y-47682216D01*
X118727179Y-47518284D01*
X118733294Y-47499463D01*
X118775299Y-47434782D01*
X118844020Y-47399766D01*
X118921043Y-47403802D01*
X118985728Y-47445809D01*
X119016705Y-47499462D01*
X119022821Y-47518284D01*
X119041075Y-47549901D01*
X119117469Y-47682220D01*
X119201913Y-47776003D01*
X119244129Y-47822888D01*
X119397270Y-47934151D01*
X119570197Y-48011144D01*
X119696607Y-48038013D01*
X119755352Y-48050500D01*
X119755354Y-48050500D01*
X119944648Y-48050500D01*
X119984004Y-48042134D01*
X120129803Y-48011144D01*
X120302730Y-47934151D01*
X120455871Y-47822888D01*
X120548896Y-47719574D01*
X120582530Y-47682220D01*
X120582531Y-47682218D01*
X120582533Y-47682216D01*
X120677179Y-47518284D01*
X120683294Y-47499463D01*
X120725299Y-47434782D01*
X120794020Y-47399766D01*
X120871043Y-47403802D01*
X120935728Y-47445809D01*
X120966705Y-47499462D01*
X120972821Y-47518284D01*
X120991075Y-47549901D01*
X121067469Y-47682220D01*
X121151913Y-47776003D01*
X121194129Y-47822888D01*
X121347270Y-47934151D01*
X121520197Y-48011144D01*
X121646607Y-48038013D01*
X121705352Y-48050500D01*
X121705354Y-48050500D01*
X121894648Y-48050500D01*
X121934004Y-48042134D01*
X122079803Y-48011144D01*
X122252730Y-47934151D01*
X122405871Y-47822888D01*
X122498896Y-47719574D01*
X122532530Y-47682220D01*
X122532531Y-47682218D01*
X122532533Y-47682216D01*
X122627179Y-47518284D01*
X122633294Y-47499463D01*
X122675299Y-47434782D01*
X122744020Y-47399766D01*
X122821043Y-47403802D01*
X122885728Y-47445809D01*
X122916705Y-47499462D01*
X122922821Y-47518284D01*
X122941075Y-47549901D01*
X123017469Y-47682220D01*
X123101913Y-47776003D01*
X123144129Y-47822888D01*
X123297270Y-47934151D01*
X123470197Y-48011144D01*
X123596607Y-48038013D01*
X123655352Y-48050500D01*
X123655354Y-48050500D01*
X123844648Y-48050500D01*
X123884004Y-48042134D01*
X124029803Y-48011144D01*
X124202730Y-47934151D01*
X124355871Y-47822888D01*
X124448896Y-47719574D01*
X124482530Y-47682220D01*
X124482531Y-47682218D01*
X124482533Y-47682216D01*
X124577179Y-47518284D01*
X124583294Y-47499463D01*
X124625299Y-47434782D01*
X124694020Y-47399766D01*
X124771043Y-47403802D01*
X124835728Y-47445809D01*
X124866705Y-47499462D01*
X124872821Y-47518284D01*
X124891075Y-47549901D01*
X124967469Y-47682220D01*
X125051913Y-47776003D01*
X125094129Y-47822888D01*
X125247270Y-47934151D01*
X125420197Y-48011144D01*
X125546607Y-48038013D01*
X125605352Y-48050500D01*
X125605354Y-48050500D01*
X125794648Y-48050500D01*
X125834004Y-48042134D01*
X125979803Y-48011144D01*
X126152730Y-47934151D01*
X126305871Y-47822888D01*
X126398896Y-47719574D01*
X126432530Y-47682220D01*
X126432531Y-47682218D01*
X126432533Y-47682216D01*
X126527179Y-47518284D01*
X126533294Y-47499463D01*
X126575299Y-47434782D01*
X126644020Y-47399766D01*
X126721043Y-47403802D01*
X126785728Y-47445809D01*
X126816705Y-47499462D01*
X126822821Y-47518284D01*
X126841075Y-47549901D01*
X126917469Y-47682220D01*
X127001913Y-47776003D01*
X127044129Y-47822888D01*
X127197270Y-47934151D01*
X127370197Y-48011144D01*
X127496607Y-48038013D01*
X127555352Y-48050500D01*
X127555354Y-48050500D01*
X127744648Y-48050500D01*
X127803393Y-48038013D01*
X127929803Y-48011144D01*
X128049261Y-47957957D01*
X128125434Y-47945892D01*
X128197440Y-47973531D01*
X128245979Y-48033471D01*
X128258045Y-48078500D01*
X128264325Y-48138254D01*
X128301032Y-48251224D01*
X128322821Y-48318284D01*
X128350470Y-48366174D01*
X128417469Y-48482220D01*
X128544127Y-48622886D01*
X128544129Y-48622888D01*
X128697270Y-48734151D01*
X128803646Y-48781513D01*
X128863586Y-48830051D01*
X128891226Y-48902056D01*
X128879160Y-48978235D01*
X128848455Y-49020500D01*
X128849354Y-49021309D01*
X128717469Y-49167779D01*
X128622822Y-49331714D01*
X128622819Y-49331721D01*
X128564325Y-49511745D01*
X128544540Y-49700000D01*
X128564325Y-49888254D01*
X128597119Y-49989182D01*
X128622821Y-50068284D01*
X128669290Y-50148771D01*
X128717469Y-50232220D01*
X128835879Y-50363726D01*
X128844129Y-50372888D01*
X128997270Y-50484151D01*
X129057162Y-50510817D01*
X129120196Y-50538882D01*
X129180135Y-50587421D01*
X129207775Y-50659426D01*
X129195709Y-50735605D01*
X129147170Y-50795544D01*
X129120196Y-50811118D01*
X128997271Y-50865848D01*
X128844127Y-50977113D01*
X128717469Y-51117779D01*
X128622822Y-51281714D01*
X128622819Y-51281721D01*
X128564325Y-51461745D01*
X128544540Y-51650000D01*
X128564325Y-51838254D01*
X128610989Y-51981868D01*
X128622821Y-52018284D01*
X128661133Y-52084642D01*
X128717469Y-52182220D01*
X128825764Y-52302492D01*
X128844129Y-52322888D01*
X128997270Y-52434151D01*
X129089058Y-52475018D01*
X129120196Y-52488882D01*
X129180135Y-52537421D01*
X129207775Y-52609426D01*
X129195709Y-52685605D01*
X129147170Y-52745544D01*
X129120196Y-52761118D01*
X128997271Y-52815848D01*
X128844127Y-52927113D01*
X128717469Y-53067779D01*
X128622822Y-53231714D01*
X128622819Y-53231721D01*
X128564325Y-53411745D01*
X128550601Y-53542329D01*
X128522961Y-53614335D01*
X128463021Y-53662873D01*
X128386843Y-53674939D01*
X128314838Y-53647299D01*
X128202729Y-53565848D01*
X128029805Y-53488857D01*
X128029803Y-53488856D01*
X127923360Y-53466231D01*
X127844648Y-53449500D01*
X127844646Y-53449500D01*
X127655354Y-53449500D01*
X127655352Y-53449500D01*
X127555392Y-53470747D01*
X127470197Y-53488856D01*
X127470195Y-53488856D01*
X127470194Y-53488857D01*
X127297272Y-53565847D01*
X127144127Y-53677113D01*
X127017469Y-53817779D01*
X126922822Y-53981714D01*
X126922819Y-53981721D01*
X126864325Y-54161745D01*
X126844540Y-54350000D01*
X126864325Y-54538254D01*
X126903883Y-54660000D01*
X126922821Y-54718284D01*
X126950500Y-54766226D01*
X127017469Y-54882220D01*
X127144127Y-55022886D01*
X127144129Y-55022888D01*
X127297270Y-55134151D01*
X127470197Y-55211144D01*
X127611315Y-55241139D01*
X127655352Y-55250500D01*
X127655354Y-55250500D01*
X127844648Y-55250500D01*
X127884004Y-55242134D01*
X128029803Y-55211144D01*
X128202730Y-55134151D01*
X128355871Y-55022888D01*
X128449180Y-54919258D01*
X128482530Y-54882220D01*
X128482531Y-54882218D01*
X128482533Y-54882216D01*
X128577179Y-54718284D01*
X128635674Y-54538256D01*
X128649398Y-54407668D01*
X128677038Y-54335665D01*
X128736977Y-54287126D01*
X128813155Y-54275060D01*
X128885161Y-54302700D01*
X128930534Y-54335665D01*
X128997270Y-54384151D01*
X129170197Y-54461144D01*
X129311315Y-54491139D01*
X129355352Y-54500500D01*
X129355354Y-54500500D01*
X129544648Y-54500500D01*
X129599879Y-54488759D01*
X129729803Y-54461144D01*
X129739895Y-54456650D01*
X129816071Y-54444584D01*
X129888077Y-54472222D01*
X129936617Y-54532161D01*
X129949500Y-54592768D01*
X129949500Y-58080298D01*
X129929538Y-58154798D01*
X129875000Y-58209336D01*
X129800500Y-58229298D01*
X129769522Y-58226042D01*
X129644649Y-58199500D01*
X129644646Y-58199500D01*
X129455354Y-58199500D01*
X129455352Y-58199500D01*
X129355392Y-58220747D01*
X129270197Y-58238856D01*
X129270195Y-58238856D01*
X129270194Y-58238857D01*
X129097272Y-58315847D01*
X128944127Y-58427113D01*
X128860728Y-58519737D01*
X128796043Y-58561744D01*
X128719020Y-58565780D01*
X128650299Y-58530764D01*
X128639272Y-58519737D01*
X128555872Y-58427113D01*
X128519242Y-58400500D01*
X128402730Y-58315849D01*
X128402729Y-58315848D01*
X128402727Y-58315847D01*
X128229805Y-58238857D01*
X128229803Y-58238856D01*
X128123360Y-58216231D01*
X128044648Y-58199500D01*
X128044646Y-58199500D01*
X127855354Y-58199500D01*
X127855352Y-58199500D01*
X127681173Y-58236523D01*
X127604151Y-58232486D01*
X127539466Y-58190480D01*
X127504450Y-58121758D01*
X127508487Y-58044736D01*
X127521151Y-58016289D01*
X127626743Y-57833398D01*
X127725334Y-57582195D01*
X127744375Y-57498771D01*
X127785381Y-57319113D01*
X127785381Y-57319110D01*
X127785383Y-57319103D01*
X127788588Y-57276336D01*
X127805549Y-57050005D01*
X127805549Y-57049994D01*
X127785384Y-56780909D01*
X127785383Y-56780907D01*
X127785383Y-56780897D01*
X127785381Y-56780891D01*
X127785381Y-56780886D01*
X127725336Y-56517812D01*
X127725334Y-56517805D01*
X127707020Y-56471143D01*
X127626743Y-56266602D01*
X127491815Y-56032898D01*
X127323561Y-55821915D01*
X127125741Y-55638365D01*
X126902775Y-55486349D01*
X126902772Y-55486348D01*
X126902770Y-55486346D01*
X126659650Y-55369266D01*
X126659646Y-55369264D01*
X126659641Y-55369262D01*
X126659633Y-55369259D01*
X126659629Y-55369258D01*
X126401777Y-55289721D01*
X126401773Y-55289720D01*
X126134932Y-55249500D01*
X126134929Y-55249500D01*
X125865071Y-55249500D01*
X125865067Y-55249500D01*
X125598226Y-55289720D01*
X125598222Y-55289721D01*
X125340370Y-55369258D01*
X125340349Y-55369266D01*
X125097227Y-55486348D01*
X124874259Y-55638364D01*
X124676438Y-55821915D01*
X124508189Y-56032892D01*
X124508186Y-56032896D01*
X124508185Y-56032898D01*
X124497605Y-56051224D01*
X124373257Y-56266601D01*
X124373255Y-56266606D01*
X124274665Y-56517805D01*
X124274663Y-56517812D01*
X124214618Y-56780886D01*
X124214615Y-56780909D01*
X124194451Y-57049994D01*
X124194451Y-57050005D01*
X124214615Y-57319090D01*
X124214618Y-57319113D01*
X124274663Y-57582187D01*
X124274665Y-57582194D01*
X124355108Y-57787155D01*
X124373257Y-57833398D01*
X124508185Y-58067102D01*
X124508189Y-58067107D01*
X124666982Y-58266227D01*
X124676439Y-58278085D01*
X124874259Y-58461635D01*
X125097226Y-58613651D01*
X125340359Y-58730738D01*
X125598228Y-58810280D01*
X125865071Y-58850500D01*
X125865074Y-58850500D01*
X126134926Y-58850500D01*
X126134929Y-58850500D01*
X126401772Y-58810280D01*
X126659641Y-58730738D01*
X126895039Y-58617376D01*
X126970819Y-58603038D01*
X127043619Y-58628511D01*
X127093929Y-58686972D01*
X127108268Y-58762755D01*
X127101393Y-58797664D01*
X127064325Y-58911748D01*
X127044540Y-59100000D01*
X127064325Y-59288254D01*
X127084312Y-59349766D01*
X127122821Y-59468284D01*
X127122822Y-59468285D01*
X127217469Y-59632220D01*
X127324627Y-59751229D01*
X127344129Y-59772888D01*
X127497270Y-59884151D01*
X127670197Y-59961144D01*
X127811315Y-59991139D01*
X127855352Y-60000500D01*
X127855354Y-60000500D01*
X128044648Y-60000500D01*
X128088644Y-59991148D01*
X128229803Y-59961144D01*
X128402730Y-59884151D01*
X128555871Y-59772888D01*
X128639273Y-59680260D01*
X128703957Y-59638256D01*
X128780979Y-59634219D01*
X128849701Y-59669234D01*
X128860718Y-59680251D01*
X128944129Y-59772888D01*
X129097270Y-59884151D01*
X129270197Y-59961144D01*
X129411315Y-59991139D01*
X129455352Y-60000500D01*
X129455354Y-60000500D01*
X129644648Y-60000500D01*
X129747570Y-59978623D01*
X129769521Y-59973957D01*
X129846543Y-59977993D01*
X129911228Y-60020000D01*
X129946244Y-60088722D01*
X129949500Y-60119701D01*
X129949500Y-61706368D01*
X129929538Y-61780868D01*
X129875000Y-61835406D01*
X129800500Y-61855368D01*
X129726000Y-61835406D01*
X129721230Y-61832531D01*
X129695166Y-61816154D01*
X129695155Y-61816149D01*
X129650432Y-61800500D01*
X129527016Y-61757315D01*
X129527015Y-61757314D01*
X129527013Y-61757314D01*
X129350001Y-61737370D01*
X129349999Y-61737370D01*
X129172986Y-61757314D01*
X129004844Y-61816149D01*
X129004841Y-61816151D01*
X128854013Y-61910923D01*
X128728051Y-62036885D01*
X128633279Y-62187713D01*
X128633277Y-62187716D01*
X128574442Y-62355858D01*
X128554498Y-62532871D01*
X128554498Y-62532872D01*
X128574442Y-62709885D01*
X128574442Y-62709887D01*
X128574443Y-62709888D01*
X128633277Y-62878027D01*
X128728051Y-63028859D01*
X128854013Y-63154821D01*
X129004845Y-63249595D01*
X129172984Y-63308429D01*
X129290994Y-63321725D01*
X129349999Y-63328374D01*
X129350000Y-63328374D01*
X129350001Y-63328374D01*
X129394254Y-63323387D01*
X129527016Y-63308429D01*
X129695155Y-63249595D01*
X129721227Y-63233213D01*
X129794928Y-63210479D01*
X129870123Y-63227642D01*
X129926662Y-63280102D01*
X129949396Y-63353803D01*
X129949500Y-63359375D01*
X129949500Y-77650500D01*
X129929538Y-77725000D01*
X129875000Y-77779538D01*
X129800500Y-77799500D01*
X128052136Y-77799500D01*
X128052111Y-77799502D01*
X127992521Y-77805908D01*
X127992515Y-77805909D01*
X127857670Y-77856202D01*
X127857666Y-77856204D01*
X127742455Y-77942452D01*
X127742452Y-77942455D01*
X127656204Y-78057666D01*
X127656203Y-78057668D01*
X127620784Y-78152634D01*
X127576045Y-78215461D01*
X127505887Y-78247501D01*
X127429108Y-78240170D01*
X127375819Y-78205923D01*
X127281402Y-78111506D01*
X127204514Y-78057668D01*
X127087830Y-77975965D01*
X126873663Y-77876097D01*
X126873661Y-77876096D01*
X126645409Y-77814937D01*
X126410000Y-77794341D01*
X126174590Y-77814937D01*
X125946340Y-77876096D01*
X125946339Y-77876096D01*
X125946337Y-77876097D01*
X125732171Y-77975965D01*
X125732168Y-77975966D01*
X125732168Y-77975967D01*
X125538596Y-78111507D01*
X125371506Y-78278597D01*
X125262054Y-78434912D01*
X125202970Y-78484489D01*
X125127014Y-78497882D01*
X125054537Y-78471503D01*
X125017946Y-78434912D01*
X125003718Y-78414592D01*
X124908495Y-78278599D01*
X124741401Y-78111505D01*
X124547830Y-77975965D01*
X124333663Y-77876097D01*
X124333661Y-77876096D01*
X124105409Y-77814937D01*
X123870000Y-77794341D01*
X123634590Y-77814937D01*
X123406340Y-77876096D01*
X123406339Y-77876096D01*
X123406337Y-77876097D01*
X123192171Y-77975965D01*
X123192168Y-77975966D01*
X123192168Y-77975967D01*
X122998596Y-78111507D01*
X122831506Y-78278597D01*
X122722054Y-78434912D01*
X122662970Y-78484489D01*
X122587014Y-78497882D01*
X122514537Y-78471503D01*
X122477946Y-78434912D01*
X122463718Y-78414592D01*
X122368495Y-78278599D01*
X122201401Y-78111505D01*
X122007830Y-77975965D01*
X121793663Y-77876097D01*
X121793661Y-77876096D01*
X121565409Y-77814937D01*
X121330000Y-77794341D01*
X121094590Y-77814937D01*
X120866340Y-77876096D01*
X120866339Y-77876096D01*
X120866337Y-77876097D01*
X120652171Y-77975965D01*
X120652168Y-77975966D01*
X120652168Y-77975967D01*
X120458596Y-78111507D01*
X120291507Y-78278596D01*
X120175212Y-78444684D01*
X120155965Y-78472171D01*
X120064700Y-78667888D01*
X120056096Y-78686340D01*
X119994937Y-78914590D01*
X119990173Y-78969039D01*
X119963793Y-79041515D01*
X119904709Y-79091092D01*
X119828752Y-79104484D01*
X119756276Y-79078104D01*
X119736381Y-79061410D01*
X119625798Y-78950827D01*
X119587234Y-78884032D01*
X119587234Y-78806904D01*
X119607266Y-78762691D01*
X119682564Y-78650000D01*
X119708783Y-78610761D01*
X119708785Y-78610757D01*
X119708786Y-78610756D01*
X119786091Y-78424127D01*
X119825500Y-78226003D01*
X119825500Y-77173997D01*
X119786091Y-76975873D01*
X119724595Y-76827409D01*
X119708788Y-76789248D01*
X119708783Y-76789238D01*
X119637523Y-76682591D01*
X119596558Y-76621282D01*
X119453718Y-76478442D01*
X119376662Y-76426955D01*
X119285761Y-76366216D01*
X119285751Y-76366211D01*
X119137777Y-76304918D01*
X119099127Y-76288909D01*
X119099125Y-76288908D01*
X119099124Y-76288908D01*
X118901003Y-76249500D01*
X118698997Y-76249500D01*
X118500875Y-76288908D01*
X118314248Y-76366211D01*
X118314238Y-76366216D01*
X118146283Y-76478441D01*
X118146278Y-76478445D01*
X118003445Y-76621278D01*
X118003441Y-76621283D01*
X117891216Y-76789238D01*
X117891211Y-76789248D01*
X117813908Y-76975875D01*
X117774500Y-77173996D01*
X117774500Y-78226003D01*
X117784961Y-78278597D01*
X117813909Y-78424127D01*
X117822424Y-78444684D01*
X117891211Y-78610751D01*
X117891213Y-78610754D01*
X117891214Y-78610756D01*
X117895866Y-78617718D01*
X117920659Y-78690753D01*
X117905613Y-78766399D01*
X117854760Y-78824388D01*
X117781725Y-78849181D01*
X117771978Y-78849500D01*
X112678022Y-78849500D01*
X112603522Y-78829538D01*
X112548984Y-78775000D01*
X112529022Y-78700500D01*
X112548984Y-78626000D01*
X112554134Y-78617718D01*
X112558786Y-78610756D01*
X112636091Y-78424127D01*
X112675500Y-78226003D01*
X112675500Y-77173997D01*
X112636091Y-76975873D01*
X112574595Y-76827409D01*
X112558788Y-76789248D01*
X112558783Y-76789238D01*
X112487523Y-76682591D01*
X112446558Y-76621282D01*
X112303718Y-76478442D01*
X112226662Y-76426955D01*
X112135761Y-76366216D01*
X112135751Y-76366211D01*
X111987777Y-76304918D01*
X111949127Y-76288909D01*
X111949125Y-76288908D01*
X111949124Y-76288908D01*
X111751003Y-76249500D01*
X111548997Y-76249500D01*
X111350875Y-76288908D01*
X111164248Y-76366211D01*
X111164238Y-76366216D01*
X110996283Y-76478441D01*
X110996278Y-76478445D01*
X110853445Y-76621278D01*
X110853441Y-76621283D01*
X110741216Y-76789238D01*
X110741211Y-76789248D01*
X110663908Y-76975875D01*
X110624500Y-77173996D01*
X110624500Y-78226003D01*
X110634961Y-78278597D01*
X110663909Y-78424127D01*
X110672424Y-78444684D01*
X110741211Y-78610751D01*
X110741217Y-78610761D01*
X110842731Y-78762688D01*
X110867523Y-78835723D01*
X110852476Y-78911369D01*
X110824206Y-78950822D01*
X110809537Y-78965491D01*
X110804673Y-78971830D01*
X110795960Y-78982175D01*
X110333985Y-79482648D01*
X110268785Y-79523851D01*
X110191718Y-79526933D01*
X110123435Y-79491070D01*
X110082232Y-79425870D01*
X110075499Y-79381589D01*
X110075499Y-77752128D01*
X110069091Y-77692517D01*
X110047409Y-77634385D01*
X110018797Y-77557670D01*
X110018795Y-77557666D01*
X109932547Y-77442455D01*
X109932544Y-77442452D01*
X109817333Y-77356204D01*
X109817329Y-77356202D01*
X109682482Y-77305908D01*
X109622876Y-77299500D01*
X107827136Y-77299500D01*
X107827111Y-77299502D01*
X107767521Y-77305908D01*
X107767515Y-77305909D01*
X107632670Y-77356202D01*
X107632666Y-77356204D01*
X107517455Y-77442452D01*
X107517452Y-77442455D01*
X107431204Y-77557666D01*
X107431203Y-77557668D01*
X107395784Y-77652634D01*
X107351045Y-77715461D01*
X107280887Y-77747501D01*
X107204108Y-77740170D01*
X107150819Y-77705923D01*
X107056402Y-77611506D01*
X106988617Y-77564042D01*
X106862830Y-77475965D01*
X106648663Y-77376097D01*
X106648661Y-77376096D01*
X106420409Y-77314937D01*
X106185000Y-77294341D01*
X105949590Y-77314937D01*
X105721340Y-77376096D01*
X105721339Y-77376096D01*
X105721337Y-77376097D01*
X105507171Y-77475965D01*
X105507168Y-77475966D01*
X105507168Y-77475967D01*
X105313596Y-77611507D01*
X105146507Y-77778596D01*
X105077008Y-77877852D01*
X105010965Y-77972171D01*
X104911097Y-78186337D01*
X104911096Y-78186340D01*
X104849937Y-78414590D01*
X104829341Y-78650000D01*
X104849937Y-78885409D01*
X104908637Y-79104484D01*
X104911097Y-79113663D01*
X105010965Y-79327830D01*
X105146505Y-79521401D01*
X105313599Y-79688495D01*
X105507170Y-79824035D01*
X105596008Y-79865461D01*
X105655091Y-79915037D01*
X105681470Y-79987514D01*
X105668077Y-80063470D01*
X105618500Y-80122554D01*
X105546023Y-80148933D01*
X105533037Y-80149500D01*
X80255316Y-80149500D01*
X80244687Y-80149120D01*
X80220971Y-80147423D01*
X80018769Y-80132962D01*
X79997726Y-80129937D01*
X79781609Y-80082923D01*
X79761212Y-80076934D01*
X79553986Y-79999643D01*
X79534648Y-79990811D01*
X79340533Y-79884816D01*
X79322649Y-79873323D01*
X79145595Y-79740782D01*
X79129528Y-79726860D01*
X78973139Y-79570471D01*
X78959217Y-79554404D01*
X78954327Y-79547872D01*
X78826674Y-79377347D01*
X78815183Y-79359466D01*
X78709188Y-79165351D01*
X78700356Y-79146013D01*
X78668801Y-79061410D01*
X78623063Y-78938781D01*
X78617078Y-78918397D01*
X78570061Y-78702267D01*
X78567037Y-78681229D01*
X78561997Y-78610761D01*
X78550880Y-78455313D01*
X78550500Y-78444684D01*
X78550500Y-74980000D01*
X80394551Y-74980000D01*
X80414317Y-75231151D01*
X80414319Y-75231158D01*
X80473123Y-75476099D01*
X80473127Y-75476113D01*
X80569532Y-75708856D01*
X80569535Y-75708861D01*
X80638617Y-75821593D01*
X80660523Y-75895545D01*
X80642518Y-75970542D01*
X80600868Y-76018724D01*
X80542456Y-76062451D01*
X80542452Y-76062455D01*
X80456204Y-76177666D01*
X80456202Y-76177670D01*
X80405908Y-76312517D01*
X80399500Y-76372114D01*
X80399500Y-78667863D01*
X80399502Y-78667888D01*
X80405908Y-78727478D01*
X80405909Y-78727484D01*
X80456202Y-78862329D01*
X80456204Y-78862333D01*
X80542452Y-78977544D01*
X80542455Y-78977547D01*
X80657666Y-79063795D01*
X80657670Y-79063797D01*
X80792517Y-79114091D01*
X80852114Y-79120499D01*
X80852118Y-79120499D01*
X80852127Y-79120500D01*
X83147872Y-79120499D01*
X83207483Y-79114091D01*
X83303969Y-79078104D01*
X83342329Y-79063797D01*
X83342333Y-79063795D01*
X83451362Y-78982175D01*
X83457546Y-78977546D01*
X83527551Y-78884032D01*
X83543795Y-78862333D01*
X83543797Y-78862329D01*
X83564469Y-78806904D01*
X83594091Y-78727483D01*
X83595823Y-78711370D01*
X83600499Y-78667885D01*
X83600499Y-78667882D01*
X83600500Y-78667873D01*
X83600499Y-77136565D01*
X83620461Y-77062067D01*
X83674999Y-77007529D01*
X83749499Y-76987567D01*
X83823999Y-77007529D01*
X83872122Y-77051923D01*
X83940668Y-77151229D01*
X84063454Y-77260008D01*
X84208705Y-77336242D01*
X84367979Y-77375500D01*
X84367980Y-77375500D01*
X84532020Y-77375500D01*
X84532021Y-77375500D01*
X84691295Y-77336242D01*
X84836546Y-77260008D01*
X84959332Y-77151229D01*
X85052518Y-77016226D01*
X85110688Y-76862845D01*
X85118319Y-76800000D01*
X87119539Y-76800000D01*
X87139312Y-76962847D01*
X87176942Y-77062067D01*
X87197482Y-77116226D01*
X87221641Y-77151226D01*
X87290664Y-77251224D01*
X87290665Y-77251225D01*
X87290668Y-77251229D01*
X87413454Y-77360008D01*
X87558705Y-77436242D01*
X87717979Y-77475500D01*
X87717980Y-77475500D01*
X87882020Y-77475500D01*
X87882021Y-77475500D01*
X88041295Y-77436242D01*
X88186546Y-77360008D01*
X88309332Y-77251229D01*
X88402518Y-77116226D01*
X88460688Y-76962845D01*
X88466272Y-76916854D01*
X95007000Y-76916854D01*
X95030000Y-77062067D01*
X95042778Y-77142747D01*
X95113448Y-77360248D01*
X95113450Y-77360253D01*
X95113452Y-77360258D01*
X95217281Y-77564035D01*
X95217284Y-77564039D01*
X95217285Y-77564042D01*
X95349080Y-77745441D01*
X95351714Y-77749066D01*
X95513434Y-77910786D01*
X95513437Y-77910788D01*
X95698457Y-78045214D01*
X95698458Y-78045214D01*
X95698462Y-78045217D01*
X95902242Y-78149048D01*
X95902250Y-78149050D01*
X95902251Y-78149051D01*
X96017006Y-78186337D01*
X96119755Y-78219722D01*
X96345646Y-78255500D01*
X96345651Y-78255500D01*
X96574349Y-78255500D01*
X96574354Y-78255500D01*
X96800245Y-78219722D01*
X97017758Y-78149048D01*
X97221538Y-78045217D01*
X97406566Y-77910786D01*
X97568286Y-77749066D01*
X97702717Y-77564038D01*
X97793929Y-77385023D01*
X97845535Y-77327709D01*
X97918888Y-77303874D01*
X97994331Y-77319910D01*
X98051648Y-77371518D01*
X98053899Y-77375413D01*
X98054003Y-77375350D01*
X98057059Y-77380337D01*
X98159057Y-77520726D01*
X98281773Y-77643442D01*
X98422162Y-77745440D01*
X98422162Y-77745441D01*
X98576784Y-77824226D01*
X98741824Y-77877851D01*
X98741829Y-77877852D01*
X98750000Y-77879145D01*
X98750000Y-77245747D01*
X98787708Y-77267518D01*
X98927591Y-77305000D01*
X99072409Y-77305000D01*
X99212292Y-77267518D01*
X99250000Y-77245747D01*
X99250000Y-77879145D01*
X99258170Y-77877852D01*
X99258175Y-77877851D01*
X99423215Y-77824226D01*
X99577837Y-77745441D01*
X99577837Y-77745440D01*
X99718230Y-77643439D01*
X99832641Y-77529028D01*
X99899435Y-77490463D01*
X99976563Y-77490463D01*
X100043358Y-77529027D01*
X100081923Y-77595821D01*
X100087000Y-77634385D01*
X100087000Y-77802863D01*
X100087002Y-77802888D01*
X100093408Y-77862478D01*
X100093409Y-77862484D01*
X100143702Y-77997329D01*
X100143704Y-77997333D01*
X100229952Y-78112544D01*
X100229955Y-78112547D01*
X100345166Y-78198795D01*
X100345170Y-78198797D01*
X100480017Y-78249091D01*
X100539614Y-78255499D01*
X100539618Y-78255499D01*
X100539627Y-78255500D01*
X102540372Y-78255499D01*
X102599983Y-78249091D01*
X102715723Y-78205923D01*
X102734829Y-78198797D01*
X102734833Y-78198795D01*
X102801291Y-78149044D01*
X102850046Y-78112546D01*
X102900451Y-78045214D01*
X102936295Y-77997333D01*
X102936297Y-77997329D01*
X102980376Y-77879145D01*
X102986591Y-77862483D01*
X102992674Y-77805908D01*
X102992999Y-77802885D01*
X102992999Y-77802882D01*
X102993000Y-77802873D01*
X102992999Y-75707128D01*
X102986591Y-75647517D01*
X102968868Y-75600000D01*
X105369539Y-75600000D01*
X105389312Y-75762847D01*
X105436457Y-75887155D01*
X105447482Y-75916226D01*
X105447483Y-75916227D01*
X105540664Y-76051224D01*
X105540665Y-76051225D01*
X105540668Y-76051229D01*
X105663454Y-76160008D01*
X105808705Y-76236242D01*
X105967979Y-76275500D01*
X105967980Y-76275500D01*
X106132020Y-76275500D01*
X106132021Y-76275500D01*
X106291295Y-76236242D01*
X106430758Y-76163045D01*
X106505999Y-76146100D01*
X106569240Y-76163045D01*
X106708705Y-76236242D01*
X106867979Y-76275500D01*
X106867980Y-76275500D01*
X107032020Y-76275500D01*
X107032021Y-76275500D01*
X107160882Y-76243738D01*
X107237992Y-76245291D01*
X107303998Y-76285191D01*
X107335855Y-76335568D01*
X107347482Y-76366226D01*
X107371643Y-76401229D01*
X107440664Y-76501224D01*
X107440665Y-76501225D01*
X107440668Y-76501229D01*
X107563454Y-76610008D01*
X107708705Y-76686242D01*
X107867979Y-76725500D01*
X107867980Y-76725500D01*
X108032020Y-76725500D01*
X108032021Y-76725500D01*
X108191295Y-76686242D01*
X108336546Y-76610008D01*
X108459332Y-76501229D01*
X108552518Y-76366226D01*
X108610688Y-76212845D01*
X108630461Y-76050000D01*
X108610688Y-75887155D01*
X108552518Y-75733774D01*
X108501345Y-75659638D01*
X108475455Y-75586990D01*
X108489358Y-75511125D01*
X108501340Y-75490369D01*
X108552518Y-75416226D01*
X108610688Y-75262845D01*
X108630461Y-75100000D01*
X108610688Y-74937155D01*
X108552518Y-74783774D01*
X108459332Y-74648771D01*
X108336546Y-74539992D01*
X108191295Y-74463758D01*
X108032021Y-74424500D01*
X107867979Y-74424500D01*
X107750337Y-74453496D01*
X107673225Y-74451943D01*
X107607220Y-74412042D01*
X107570009Y-74344484D01*
X107571562Y-74267372D01*
X107575354Y-74256010D01*
X107596596Y-74200000D01*
X108819539Y-74200000D01*
X108839312Y-74362847D01*
X108885176Y-74483778D01*
X108897482Y-74516226D01*
X108897483Y-74516227D01*
X108990664Y-74651224D01*
X108990665Y-74651225D01*
X108990668Y-74651229D01*
X109113454Y-74760008D01*
X109258705Y-74836242D01*
X109417979Y-74875500D01*
X109417980Y-74875500D01*
X109582020Y-74875500D01*
X109582021Y-74875500D01*
X109741295Y-74836242D01*
X109886546Y-74760008D01*
X110009332Y-74651229D01*
X110102518Y-74516226D01*
X110160688Y-74362845D01*
X110180461Y-74200000D01*
X110168319Y-74100001D01*
X110694435Y-74100001D01*
X110714631Y-74279252D01*
X110714631Y-74279254D01*
X110714632Y-74279255D01*
X110774211Y-74449522D01*
X110870184Y-74602262D01*
X110997738Y-74729816D01*
X111150478Y-74825789D01*
X111320745Y-74885368D01*
X111410372Y-74895466D01*
X111499999Y-74905565D01*
X111500000Y-74905565D01*
X111500001Y-74905565D01*
X111544813Y-74900515D01*
X111679255Y-74885368D01*
X111849522Y-74825789D01*
X112002262Y-74729816D01*
X112032078Y-74700000D01*
X115869539Y-74700000D01*
X115889312Y-74862847D01*
X115915613Y-74932195D01*
X115947482Y-75016226D01*
X115947483Y-75016227D01*
X116040664Y-75151224D01*
X116040665Y-75151225D01*
X116040668Y-75151229D01*
X116163454Y-75260008D01*
X116308705Y-75336242D01*
X116467979Y-75375500D01*
X116467980Y-75375500D01*
X116632020Y-75375500D01*
X116632021Y-75375500D01*
X116791295Y-75336242D01*
X116936546Y-75260008D01*
X117059332Y-75151229D01*
X117152518Y-75016226D01*
X117210688Y-74862845D01*
X117230461Y-74700000D01*
X117210688Y-74537155D01*
X117152518Y-74383774D01*
X117072171Y-74267372D01*
X117059335Y-74248775D01*
X117059334Y-74248774D01*
X117059332Y-74248771D01*
X116936546Y-74139992D01*
X116791295Y-74063758D01*
X116632021Y-74024500D01*
X116467979Y-74024500D01*
X116388342Y-74044129D01*
X116308704Y-74063758D01*
X116239656Y-74099998D01*
X116163454Y-74139992D01*
X116040668Y-74248771D01*
X116040667Y-74248772D01*
X116040664Y-74248775D01*
X115947483Y-74383772D01*
X115947480Y-74383778D01*
X115889312Y-74537152D01*
X115869539Y-74700000D01*
X112032078Y-74700000D01*
X112129816Y-74602262D01*
X112225789Y-74449522D01*
X112285368Y-74279255D01*
X112305565Y-74100000D01*
X112302104Y-74069286D01*
X112285368Y-73920747D01*
X112285368Y-73920745D01*
X112225789Y-73750478D01*
X112129816Y-73597738D01*
X112002262Y-73470184D01*
X111849522Y-73374211D01*
X111679255Y-73314632D01*
X111679254Y-73314631D01*
X111679253Y-73314631D01*
X111500001Y-73294435D01*
X111499999Y-73294435D01*
X111320747Y-73314631D01*
X111150477Y-73374211D01*
X110997738Y-73470184D01*
X110870184Y-73597738D01*
X110774211Y-73750477D01*
X110714631Y-73920747D01*
X110694435Y-74099998D01*
X110694435Y-74100001D01*
X110168319Y-74100001D01*
X110160688Y-74037155D01*
X110102518Y-73883774D01*
X110009332Y-73748771D01*
X109886546Y-73639992D01*
X109741295Y-73563758D01*
X109582021Y-73524500D01*
X109417979Y-73524500D01*
X109338342Y-73544129D01*
X109258704Y-73563758D01*
X109219676Y-73584242D01*
X109113454Y-73639992D01*
X108990668Y-73748771D01*
X108990667Y-73748772D01*
X108990664Y-73748775D01*
X108897483Y-73883772D01*
X108897480Y-73883778D01*
X108839312Y-74037152D01*
X108819539Y-74200000D01*
X107596596Y-74200000D01*
X107610688Y-74162845D01*
X107630461Y-74000000D01*
X107610688Y-73837155D01*
X107552518Y-73683774D01*
X107477591Y-73575223D01*
X107459335Y-73548775D01*
X107459334Y-73548774D01*
X107459332Y-73548771D01*
X107336546Y-73439992D01*
X107191295Y-73363758D01*
X107032021Y-73324500D01*
X106867979Y-73324500D01*
X106788342Y-73344129D01*
X106708704Y-73363758D01*
X106569244Y-73436953D01*
X106494000Y-73453899D01*
X106430756Y-73436953D01*
X106291295Y-73363758D01*
X106280682Y-73361142D01*
X106132021Y-73324500D01*
X105967979Y-73324500D01*
X105888342Y-73344129D01*
X105808704Y-73363758D01*
X105770560Y-73383778D01*
X105663454Y-73439992D01*
X105540668Y-73548771D01*
X105540667Y-73548772D01*
X105540664Y-73548775D01*
X105447483Y-73683772D01*
X105447480Y-73683778D01*
X105389312Y-73837152D01*
X105369539Y-74000000D01*
X105389312Y-74162847D01*
X105447480Y-74316221D01*
X105447482Y-74316226D01*
X105447484Y-74316229D01*
X105451671Y-74324206D01*
X105450294Y-74324928D01*
X105472776Y-74388013D01*
X105458872Y-74463877D01*
X105448460Y-74481910D01*
X105447480Y-74483778D01*
X105389312Y-74637152D01*
X105369539Y-74800000D01*
X105389312Y-74962847D01*
X105409557Y-75016227D01*
X105447482Y-75116226D01*
X105447484Y-75116229D01*
X105451671Y-75124206D01*
X105450294Y-75124928D01*
X105472776Y-75188013D01*
X105458872Y-75263877D01*
X105448460Y-75281910D01*
X105447480Y-75283778D01*
X105389312Y-75437152D01*
X105369539Y-75600000D01*
X102968868Y-75600000D01*
X102950678Y-75551229D01*
X102936297Y-75512670D01*
X102936295Y-75512666D01*
X102850047Y-75397455D01*
X102850044Y-75397452D01*
X102734833Y-75311204D01*
X102734829Y-75311202D01*
X102599982Y-75260908D01*
X102540376Y-75254500D01*
X100539636Y-75254500D01*
X100539611Y-75254502D01*
X100480021Y-75260908D01*
X100480015Y-75260909D01*
X100345170Y-75311202D01*
X100345166Y-75311204D01*
X100229955Y-75397452D01*
X100229952Y-75397455D01*
X100143704Y-75512666D01*
X100143702Y-75512670D01*
X100093408Y-75647517D01*
X100087000Y-75707114D01*
X100087000Y-75875613D01*
X100067038Y-75950113D01*
X100012500Y-76004651D01*
X99938000Y-76024613D01*
X99863500Y-76004651D01*
X99832641Y-75980972D01*
X99718226Y-75866557D01*
X99577837Y-75764559D01*
X99577837Y-75764558D01*
X99423215Y-75685773D01*
X99258177Y-75632149D01*
X99258161Y-75632146D01*
X99250000Y-75630853D01*
X99250000Y-76264252D01*
X99212292Y-76242482D01*
X99072409Y-76205000D01*
X98927591Y-76205000D01*
X98787708Y-76242482D01*
X98750000Y-76264252D01*
X98750000Y-75630853D01*
X98741838Y-75632146D01*
X98741822Y-75632149D01*
X98576784Y-75685773D01*
X98422162Y-75764558D01*
X98422162Y-75764559D01*
X98281773Y-75866557D01*
X98159057Y-75989273D01*
X98057059Y-76129662D01*
X98054003Y-76134650D01*
X98051932Y-76133381D01*
X98007652Y-76182412D01*
X97934263Y-76206136D01*
X97858844Y-76189988D01*
X97801604Y-76138294D01*
X97793931Y-76124981D01*
X97702717Y-75945962D01*
X97702716Y-75945960D01*
X97702714Y-75945957D01*
X97587337Y-75787155D01*
X97568286Y-75760934D01*
X97406566Y-75599214D01*
X97389741Y-75586990D01*
X97221542Y-75464785D01*
X97221539Y-75464784D01*
X97221540Y-75464784D01*
X97221538Y-75464783D01*
X97017758Y-75360952D01*
X97017753Y-75360950D01*
X97017748Y-75360948D01*
X96800247Y-75290278D01*
X96735704Y-75280055D01*
X96574354Y-75254500D01*
X96345646Y-75254500D01*
X96204464Y-75276861D01*
X96119752Y-75290278D01*
X95902251Y-75360948D01*
X95902236Y-75360955D01*
X95698460Y-75464784D01*
X95698457Y-75464785D01*
X95513437Y-75599211D01*
X95351711Y-75760937D01*
X95217285Y-75945957D01*
X95217284Y-75945960D01*
X95113455Y-76149736D01*
X95113448Y-76149751D01*
X95042778Y-76367252D01*
X95037397Y-76401229D01*
X95007000Y-76593146D01*
X95007000Y-76916854D01*
X88466272Y-76916854D01*
X88480461Y-76800000D01*
X88469106Y-76706487D01*
X88479943Y-76630128D01*
X88527509Y-76569413D01*
X88547769Y-76556601D01*
X88636546Y-76510008D01*
X88759332Y-76401229D01*
X88852518Y-76266226D01*
X88910688Y-76112845D01*
X88930461Y-75950000D01*
X88910688Y-75787155D01*
X88852518Y-75633774D01*
X88768923Y-75512666D01*
X88759335Y-75498775D01*
X88759334Y-75498774D01*
X88759332Y-75498771D01*
X88636546Y-75389992D01*
X88491295Y-75313758D01*
X88332021Y-75274500D01*
X88167979Y-75274500D01*
X88103966Y-75290278D01*
X88008704Y-75313758D01*
X87932470Y-75353769D01*
X87863454Y-75389992D01*
X87740668Y-75498771D01*
X87740667Y-75498772D01*
X87740664Y-75498775D01*
X87647483Y-75633772D01*
X87647480Y-75633778D01*
X87589312Y-75787152D01*
X87569539Y-75950000D01*
X87580893Y-76043510D01*
X87570056Y-76119873D01*
X87522489Y-76180586D01*
X87502224Y-76193401D01*
X87413455Y-76239991D01*
X87413453Y-76239992D01*
X87362435Y-76285191D01*
X87290668Y-76348771D01*
X87290667Y-76348772D01*
X87290664Y-76348775D01*
X87197483Y-76483772D01*
X87197480Y-76483778D01*
X87139312Y-76637152D01*
X87119539Y-76800000D01*
X85118319Y-76800000D01*
X85130461Y-76700000D01*
X85110688Y-76537155D01*
X85052518Y-76383774D01*
X84959332Y-76248771D01*
X84836546Y-76139992D01*
X84691295Y-76063758D01*
X84532021Y-76024500D01*
X84367979Y-76024500D01*
X84290853Y-76043510D01*
X84208704Y-76063758D01*
X84132470Y-76103769D01*
X84063454Y-76139992D01*
X84052455Y-76149736D01*
X83940663Y-76248775D01*
X83861765Y-76363080D01*
X83803016Y-76413052D01*
X83727151Y-76426955D01*
X83654499Y-76401062D01*
X83604527Y-76342313D01*
X83594133Y-76312697D01*
X83594092Y-76312526D01*
X83594091Y-76312517D01*
X83556916Y-76212845D01*
X83543797Y-76177670D01*
X83543795Y-76177666D01*
X83457547Y-76062455D01*
X83457544Y-76062452D01*
X83399132Y-76018725D01*
X83351455Y-75958098D01*
X83340479Y-75881755D01*
X83361382Y-75821593D01*
X83430466Y-75708859D01*
X83526873Y-75476111D01*
X83585683Y-75231148D01*
X83605449Y-74980000D01*
X83585683Y-74728852D01*
X83534637Y-74516227D01*
X83526876Y-74483900D01*
X83526872Y-74483886D01*
X83430467Y-74251143D01*
X83429016Y-74248775D01*
X83298836Y-74036341D01*
X83135224Y-73844776D01*
X83135220Y-73844773D01*
X83135218Y-73844770D01*
X83110080Y-73823301D01*
X83066394Y-73759738D01*
X83060342Y-73682848D01*
X83093546Y-73613233D01*
X83110080Y-73596699D01*
X83135218Y-73575229D01*
X83135219Y-73575228D01*
X83135224Y-73575224D01*
X83199471Y-73500000D01*
X86769539Y-73500000D01*
X86789312Y-73662847D01*
X86832785Y-73777474D01*
X86847482Y-73816226D01*
X86847483Y-73816227D01*
X86940664Y-73951224D01*
X86940665Y-73951225D01*
X86940668Y-73951229D01*
X87063454Y-74060008D01*
X87208705Y-74136242D01*
X87367979Y-74175500D01*
X87367980Y-74175500D01*
X87532020Y-74175500D01*
X87532021Y-74175500D01*
X87691295Y-74136242D01*
X87786579Y-74086232D01*
X87861820Y-74069286D01*
X87935456Y-74092231D01*
X87978447Y-74133524D01*
X87990664Y-74151224D01*
X87990665Y-74151225D01*
X87990668Y-74151229D01*
X88113454Y-74260008D01*
X88258705Y-74336242D01*
X88417979Y-74375500D01*
X88417980Y-74375500D01*
X88582020Y-74375500D01*
X88582021Y-74375500D01*
X88741295Y-74336242D01*
X88886546Y-74260008D01*
X89009332Y-74151229D01*
X89102518Y-74016226D01*
X89160688Y-73862845D01*
X89180461Y-73700000D01*
X89160688Y-73537155D01*
X89102518Y-73383774D01*
X89021119Y-73265847D01*
X89009335Y-73248775D01*
X89009334Y-73248774D01*
X89009332Y-73248771D01*
X88886546Y-73139992D01*
X88741295Y-73063758D01*
X88582021Y-73024500D01*
X88417979Y-73024500D01*
X88386658Y-73032220D01*
X88258706Y-73063757D01*
X88163420Y-73113767D01*
X88088176Y-73130712D01*
X88014541Y-73107766D01*
X87971553Y-73066475D01*
X87959336Y-73048776D01*
X87959334Y-73048774D01*
X87959332Y-73048771D01*
X87836546Y-72939992D01*
X87691295Y-72863758D01*
X87532021Y-72824500D01*
X87367979Y-72824500D01*
X87288342Y-72844129D01*
X87208704Y-72863758D01*
X87142350Y-72898584D01*
X87063454Y-72939992D01*
X86940668Y-73048771D01*
X86940667Y-73048772D01*
X86940664Y-73048775D01*
X86847483Y-73183772D01*
X86847480Y-73183778D01*
X86789312Y-73337152D01*
X86769539Y-73500000D01*
X83199471Y-73500000D01*
X83298836Y-73383659D01*
X83430466Y-73168859D01*
X83526873Y-72936111D01*
X83585683Y-72691148D01*
X83605449Y-72440000D01*
X83594431Y-72300000D01*
X97619539Y-72300000D01*
X97639312Y-72462847D01*
X97697480Y-72616221D01*
X97697482Y-72616226D01*
X97715296Y-72642034D01*
X97790664Y-72751224D01*
X97790665Y-72751225D01*
X97790668Y-72751229D01*
X97913454Y-72860008D01*
X98058705Y-72936242D01*
X98217979Y-72975500D01*
X98217980Y-72975500D01*
X98382021Y-72975500D01*
X98541295Y-72936242D01*
X98580756Y-72915530D01*
X98655997Y-72898584D01*
X98719242Y-72915530D01*
X98758705Y-72936242D01*
X98917979Y-72975500D01*
X99082020Y-72975500D01*
X99082021Y-72975500D01*
X99241295Y-72936242D01*
X99386546Y-72860008D01*
X99509332Y-72751229D01*
X99602518Y-72616226D01*
X99660688Y-72462845D01*
X99680461Y-72300000D01*
X99677311Y-72274057D01*
X99688146Y-72197695D01*
X99735712Y-72136980D01*
X99807262Y-72108183D01*
X99860877Y-72111425D01*
X99917979Y-72125500D01*
X99917981Y-72125500D01*
X100082020Y-72125500D01*
X100082021Y-72125500D01*
X100241295Y-72086242D01*
X100386546Y-72010008D01*
X100509332Y-71901229D01*
X100602518Y-71766226D01*
X100660688Y-71612845D01*
X100680461Y-71450000D01*
X100660688Y-71287155D01*
X100602518Y-71133774D01*
X100509332Y-70998771D01*
X100386546Y-70889992D01*
X100241295Y-70813758D01*
X100082021Y-70774500D01*
X99917979Y-70774500D01*
X99838342Y-70794129D01*
X99758704Y-70813758D01*
X99619244Y-70886953D01*
X99544000Y-70903899D01*
X99480756Y-70886953D01*
X99341295Y-70813758D01*
X99282280Y-70799212D01*
X99182021Y-70774500D01*
X99017979Y-70774500D01*
X98938342Y-70794129D01*
X98858704Y-70813758D01*
X98782470Y-70853769D01*
X98713454Y-70889992D01*
X98590668Y-70998771D01*
X98590667Y-70998772D01*
X98590664Y-70998775D01*
X98497483Y-71133772D01*
X98497480Y-71133778D01*
X98439312Y-71287152D01*
X98419539Y-71450003D01*
X98420454Y-71457539D01*
X98409618Y-71533902D01*
X98362052Y-71594616D01*
X98290502Y-71623413D01*
X98272541Y-71624500D01*
X98217979Y-71624500D01*
X98159735Y-71638856D01*
X98058704Y-71663758D01*
X97989355Y-71700156D01*
X97913454Y-71739992D01*
X97790668Y-71848771D01*
X97790667Y-71848772D01*
X97790664Y-71848775D01*
X97697483Y-71983772D01*
X97697480Y-71983778D01*
X97639312Y-72137152D01*
X97619539Y-72300000D01*
X83594431Y-72300000D01*
X83585683Y-72188852D01*
X83549045Y-72036241D01*
X83526876Y-71943900D01*
X83526872Y-71943886D01*
X83430467Y-71711143D01*
X83430466Y-71711141D01*
X83298836Y-71496341D01*
X83216553Y-71400000D01*
X86769539Y-71400000D01*
X86789312Y-71562847D01*
X86845554Y-71711143D01*
X86847482Y-71716226D01*
X86847483Y-71716227D01*
X86940664Y-71851224D01*
X86940665Y-71851225D01*
X86940668Y-71851229D01*
X87063454Y-71960008D01*
X87208705Y-72036242D01*
X87367979Y-72075500D01*
X87367980Y-72075500D01*
X87532020Y-72075500D01*
X87532021Y-72075500D01*
X87691295Y-72036242D01*
X87836546Y-71960008D01*
X87959332Y-71851229D01*
X87971552Y-71833525D01*
X88030298Y-71783553D01*
X88106162Y-71769648D01*
X88163420Y-71786232D01*
X88258705Y-71836242D01*
X88417979Y-71875500D01*
X88417980Y-71875500D01*
X88582020Y-71875500D01*
X88582021Y-71875500D01*
X88741295Y-71836242D01*
X88886546Y-71760008D01*
X89009332Y-71651229D01*
X89102518Y-71516226D01*
X89160688Y-71362845D01*
X89180461Y-71200000D01*
X89160688Y-71037155D01*
X89155276Y-71022886D01*
X89140586Y-70984150D01*
X89102518Y-70883774D01*
X89035275Y-70786356D01*
X89009335Y-70748775D01*
X89009334Y-70748774D01*
X89009332Y-70748771D01*
X88886546Y-70639992D01*
X88810348Y-70600000D01*
X91619539Y-70600000D01*
X91639312Y-70762847D01*
X91687533Y-70889993D01*
X91697482Y-70916226D01*
X91719946Y-70948771D01*
X91790664Y-71051224D01*
X91790665Y-71051225D01*
X91790668Y-71051229D01*
X91913454Y-71160008D01*
X92058705Y-71236242D01*
X92217979Y-71275500D01*
X92217980Y-71275500D01*
X92382020Y-71275500D01*
X92382021Y-71275500D01*
X92541295Y-71236242D01*
X92686546Y-71160008D01*
X92809332Y-71051229D01*
X92902518Y-70916226D01*
X92946897Y-70799206D01*
X92991977Y-70736631D01*
X93062310Y-70704977D01*
X93139047Y-70712729D01*
X93185015Y-70740517D01*
X93263454Y-70810008D01*
X93266855Y-70811793D01*
X93269274Y-70814024D01*
X93270867Y-70815124D01*
X93270711Y-70815349D01*
X93323545Y-70864088D01*
X93346492Y-70937724D01*
X93329547Y-71012967D01*
X93320239Y-71028366D01*
X93247482Y-71133774D01*
X93247480Y-71133778D01*
X93189312Y-71287152D01*
X93169539Y-71450000D01*
X93189312Y-71612847D01*
X93237533Y-71739993D01*
X93247482Y-71766226D01*
X93247483Y-71766227D01*
X93340664Y-71901224D01*
X93340665Y-71901225D01*
X93340668Y-71901229D01*
X93463454Y-72010008D01*
X93608705Y-72086242D01*
X93767979Y-72125500D01*
X93767980Y-72125500D01*
X93932020Y-72125500D01*
X93932021Y-72125500D01*
X94091295Y-72086242D01*
X94236546Y-72010008D01*
X94359332Y-71901229D01*
X94452518Y-71766226D01*
X94510688Y-71612845D01*
X94530461Y-71450000D01*
X94510688Y-71287155D01*
X94452518Y-71133774D01*
X94359332Y-70998771D01*
X94236546Y-70889992D01*
X94233138Y-70888203D01*
X94230715Y-70885968D01*
X94229133Y-70884876D01*
X94229288Y-70884651D01*
X94176451Y-70835907D01*
X94165263Y-70800000D01*
X94969539Y-70800000D01*
X94989312Y-70962847D01*
X95047480Y-71116221D01*
X95047482Y-71116226D01*
X95065858Y-71142848D01*
X95140664Y-71251224D01*
X95140665Y-71251225D01*
X95140668Y-71251229D01*
X95263454Y-71360008D01*
X95408705Y-71436242D01*
X95567979Y-71475500D01*
X95567980Y-71475500D01*
X95732020Y-71475500D01*
X95732021Y-71475500D01*
X95891295Y-71436242D01*
X96036546Y-71360008D01*
X96159332Y-71251229D01*
X96252518Y-71116226D01*
X96310688Y-70962845D01*
X96330461Y-70800000D01*
X96310688Y-70637155D01*
X96252518Y-70483774D01*
X96185275Y-70386356D01*
X96159335Y-70348775D01*
X96159334Y-70348774D01*
X96159332Y-70348771D01*
X96036546Y-70239992D01*
X95891295Y-70163758D01*
X95732021Y-70124500D01*
X95567979Y-70124500D01*
X95516174Y-70137269D01*
X95408704Y-70163758D01*
X95339654Y-70199999D01*
X95263454Y-70239992D01*
X95140668Y-70348771D01*
X95140667Y-70348772D01*
X95140664Y-70348775D01*
X95047483Y-70483772D01*
X95047480Y-70483778D01*
X94989312Y-70637152D01*
X94969539Y-70800000D01*
X94165263Y-70800000D01*
X94153507Y-70762270D01*
X94170454Y-70687027D01*
X94179753Y-70671643D01*
X94252518Y-70566226D01*
X94310688Y-70412845D01*
X94330461Y-70250000D01*
X94310688Y-70087155D01*
X94252518Y-69933774D01*
X94182072Y-69831715D01*
X94156758Y-69795041D01*
X94130866Y-69722389D01*
X94140957Y-69667319D01*
X94082605Y-69688116D01*
X94006740Y-69674213D01*
X94001424Y-69671558D01*
X93891295Y-69613758D01*
X93891294Y-69613757D01*
X93891293Y-69613757D01*
X93784119Y-69587341D01*
X93732021Y-69574500D01*
X93567979Y-69574500D01*
X93488342Y-69594129D01*
X93408704Y-69613758D01*
X93341860Y-69648841D01*
X93263454Y-69689992D01*
X93140668Y-69798771D01*
X93140667Y-69798772D01*
X93140664Y-69798775D01*
X93047483Y-69933772D01*
X93047481Y-69933776D01*
X93003104Y-70050789D01*
X92958021Y-70113368D01*
X92887688Y-70145023D01*
X92810950Y-70137269D01*
X92764983Y-70109481D01*
X92686546Y-70039992D01*
X92541295Y-69963758D01*
X92382021Y-69924500D01*
X92217979Y-69924500D01*
X92138342Y-69944129D01*
X92058704Y-69963758D01*
X91982470Y-70003769D01*
X91913454Y-70039992D01*
X91790668Y-70148771D01*
X91790667Y-70148772D01*
X91790664Y-70148775D01*
X91697483Y-70283772D01*
X91697480Y-70283778D01*
X91639312Y-70437152D01*
X91619539Y-70600000D01*
X88810348Y-70600000D01*
X88741295Y-70563758D01*
X88582021Y-70524500D01*
X88417979Y-70524500D01*
X88338342Y-70544129D01*
X88258704Y-70563758D01*
X88250081Y-70568284D01*
X88113454Y-70639992D01*
X87990668Y-70748771D01*
X87990666Y-70748772D01*
X87990663Y-70748776D01*
X87990662Y-70748777D01*
X87978445Y-70766477D01*
X87919695Y-70816449D01*
X87843830Y-70830351D01*
X87786579Y-70813767D01*
X87691295Y-70763758D01*
X87532021Y-70724500D01*
X87367979Y-70724500D01*
X87302988Y-70740519D01*
X87208704Y-70763758D01*
X87141153Y-70799212D01*
X87063454Y-70839992D01*
X86940668Y-70948771D01*
X86940667Y-70948772D01*
X86940664Y-70948775D01*
X86847483Y-71083772D01*
X86847480Y-71083778D01*
X86789312Y-71237152D01*
X86769539Y-71400000D01*
X83216553Y-71400000D01*
X83135224Y-71304776D01*
X83135220Y-71304773D01*
X83135218Y-71304770D01*
X83110080Y-71283301D01*
X83066394Y-71219738D01*
X83060342Y-71142848D01*
X83093546Y-71073233D01*
X83110080Y-71056699D01*
X83132963Y-71037155D01*
X83135224Y-71035224D01*
X83298836Y-70843659D01*
X83430466Y-70628859D01*
X83526873Y-70396111D01*
X83585683Y-70151148D01*
X83605449Y-69900000D01*
X83585683Y-69648852D01*
X83541155Y-69463379D01*
X83526876Y-69403900D01*
X83526872Y-69403886D01*
X83430467Y-69171143D01*
X83394742Y-69112845D01*
X83298836Y-68956341D01*
X83135224Y-68764776D01*
X83135220Y-68764773D01*
X83135218Y-68764770D01*
X83110080Y-68743301D01*
X83066394Y-68679738D01*
X83060342Y-68602848D01*
X83093546Y-68533233D01*
X83110080Y-68516699D01*
X83135218Y-68495229D01*
X83135219Y-68495228D01*
X83135224Y-68495224D01*
X83298836Y-68303659D01*
X83392999Y-68149999D01*
X83769539Y-68149999D01*
X83789312Y-68312847D01*
X83837533Y-68439993D01*
X83847482Y-68466226D01*
X83861298Y-68486242D01*
X83940664Y-68601224D01*
X83940665Y-68601225D01*
X83940668Y-68601229D01*
X84063454Y-68710008D01*
X84208705Y-68786242D01*
X84367979Y-68825500D01*
X84367980Y-68825500D01*
X84532020Y-68825500D01*
X84532021Y-68825500D01*
X84691295Y-68786242D01*
X84836546Y-68710008D01*
X84959332Y-68601229D01*
X85052518Y-68466226D01*
X85110688Y-68312845D01*
X85130461Y-68150000D01*
X85124390Y-68100000D01*
X86969539Y-68100000D01*
X86989312Y-68262847D01*
X87046546Y-68413758D01*
X87047482Y-68416226D01*
X87059595Y-68433774D01*
X87140664Y-68551224D01*
X87140665Y-68551225D01*
X87140668Y-68551229D01*
X87263454Y-68660008D01*
X87408705Y-68736242D01*
X87461900Y-68749353D01*
X87529457Y-68786564D01*
X87569358Y-68852568D01*
X87574155Y-68911982D01*
X87569539Y-68949999D01*
X87589312Y-69112847D01*
X87627237Y-69212845D01*
X87647482Y-69266226D01*
X87647483Y-69266227D01*
X87740664Y-69401224D01*
X87740665Y-69401225D01*
X87740668Y-69401229D01*
X87863454Y-69510008D01*
X88008705Y-69586242D01*
X88167979Y-69625500D01*
X88167980Y-69625500D01*
X88332020Y-69625500D01*
X88332021Y-69625500D01*
X88491295Y-69586242D01*
X88636546Y-69510008D01*
X88759332Y-69401229D01*
X88852518Y-69266226D01*
X88910688Y-69112845D01*
X88924390Y-69000000D01*
X94019539Y-69000000D01*
X94039312Y-69162847D01*
X94091138Y-69299499D01*
X94097482Y-69316226D01*
X94097483Y-69316227D01*
X94193241Y-69454958D01*
X94219133Y-69527610D01*
X94209041Y-69582679D01*
X94267394Y-69561883D01*
X94343259Y-69575786D01*
X94348595Y-69578451D01*
X94458705Y-69636242D01*
X94617979Y-69675500D01*
X94617980Y-69675500D01*
X94782020Y-69675500D01*
X94782021Y-69675500D01*
X94941295Y-69636242D01*
X95086546Y-69560008D01*
X95209332Y-69451229D01*
X95302518Y-69316226D01*
X95360688Y-69162845D01*
X95380461Y-69000000D01*
X95360688Y-68837155D01*
X95302518Y-68683774D01*
X95209332Y-68548771D01*
X95086546Y-68439992D01*
X94941295Y-68363758D01*
X94782021Y-68324500D01*
X94617979Y-68324500D01*
X94568527Y-68336689D01*
X94458704Y-68363758D01*
X94382470Y-68403769D01*
X94313454Y-68439992D01*
X94190668Y-68548771D01*
X94190667Y-68548772D01*
X94190664Y-68548775D01*
X94097483Y-68683772D01*
X94097480Y-68683778D01*
X94039312Y-68837152D01*
X94019539Y-69000000D01*
X88924390Y-69000000D01*
X88930461Y-68950000D01*
X88910688Y-68787155D01*
X88852518Y-68633774D01*
X88759332Y-68498771D01*
X88636546Y-68389992D01*
X88491295Y-68313758D01*
X88438097Y-68300645D01*
X88370541Y-68263434D01*
X88330640Y-68197429D01*
X88325845Y-68138014D01*
X88330461Y-68100000D01*
X88310688Y-67937155D01*
X88301097Y-67911867D01*
X88286173Y-67872514D01*
X88252518Y-67783774D01*
X88171377Y-67666221D01*
X88159335Y-67648775D01*
X88159334Y-67648774D01*
X88159332Y-67648771D01*
X88036546Y-67539992D01*
X87935868Y-67487152D01*
X87891294Y-67463757D01*
X87831407Y-67448996D01*
X87813851Y-67444669D01*
X87746294Y-67407459D01*
X87711559Y-67350000D01*
X98169539Y-67350000D01*
X98189312Y-67512847D01*
X98240862Y-67648771D01*
X98247482Y-67666226D01*
X98247483Y-67666227D01*
X98340664Y-67801224D01*
X98340665Y-67801225D01*
X98340668Y-67801229D01*
X98463454Y-67910008D01*
X98608705Y-67986242D01*
X98767979Y-68025500D01*
X98767980Y-68025500D01*
X98932019Y-68025500D01*
X98932021Y-68025500D01*
X98952086Y-68020554D01*
X99029195Y-68022104D01*
X99095201Y-68062003D01*
X99127063Y-68112386D01*
X99147482Y-68166226D01*
X99147483Y-68166227D01*
X99240664Y-68301224D01*
X99240665Y-68301225D01*
X99240668Y-68301229D01*
X99363454Y-68410008D01*
X99508705Y-68486242D01*
X99667979Y-68525500D01*
X99667980Y-68525500D01*
X99832020Y-68525500D01*
X99832021Y-68525500D01*
X99991295Y-68486242D01*
X100136546Y-68410008D01*
X100259332Y-68301229D01*
X100352518Y-68166226D01*
X100410688Y-68012845D01*
X100430461Y-67850000D01*
X100410688Y-67687155D01*
X100352518Y-67533774D01*
X100285275Y-67436356D01*
X100259335Y-67398775D01*
X100259334Y-67398774D01*
X100259332Y-67398771D01*
X100136546Y-67289992D01*
X99991295Y-67213758D01*
X99832021Y-67174500D01*
X99667979Y-67174500D01*
X99647908Y-67179446D01*
X99570797Y-67177893D01*
X99504793Y-67137991D01*
X99472936Y-67087612D01*
X99452518Y-67033774D01*
X99385275Y-66936356D01*
X99359335Y-66898775D01*
X99359334Y-66898774D01*
X99359332Y-66898771D01*
X99236546Y-66789992D01*
X99091295Y-66713758D01*
X98932021Y-66674500D01*
X98767979Y-66674500D01*
X98688342Y-66694129D01*
X98608704Y-66713758D01*
X98543682Y-66747885D01*
X98463454Y-66789992D01*
X98340668Y-66898771D01*
X98340667Y-66898772D01*
X98340664Y-66898775D01*
X98247483Y-67033772D01*
X98247480Y-67033778D01*
X98189312Y-67187152D01*
X98169539Y-67350000D01*
X87711559Y-67350000D01*
X87706393Y-67341454D01*
X87704840Y-67264342D01*
X87742051Y-67196784D01*
X87808056Y-67156883D01*
X87813841Y-67155332D01*
X87891295Y-67136242D01*
X88036546Y-67060008D01*
X88159332Y-66951229D01*
X88252518Y-66816226D01*
X88310688Y-66662845D01*
X88312248Y-66650000D01*
X96319539Y-66650000D01*
X96339312Y-66812847D01*
X96391792Y-66951224D01*
X96397482Y-66966226D01*
X96397483Y-66966227D01*
X96490664Y-67101224D01*
X96490665Y-67101225D01*
X96490668Y-67101229D01*
X96613454Y-67210008D01*
X96758705Y-67286242D01*
X96917979Y-67325500D01*
X96917980Y-67325500D01*
X97082020Y-67325500D01*
X97082021Y-67325500D01*
X97241295Y-67286242D01*
X97386546Y-67210008D01*
X97509332Y-67101229D01*
X97602518Y-66966226D01*
X97660688Y-66812845D01*
X97680461Y-66650000D01*
X97660688Y-66487155D01*
X97655276Y-66472886D01*
X97633788Y-66416226D01*
X97627634Y-66400000D01*
X100869539Y-66400000D01*
X100889312Y-66562847D01*
X100926591Y-66661142D01*
X100947482Y-66716226D01*
X100969326Y-66747872D01*
X101040664Y-66851224D01*
X101040665Y-66851225D01*
X101040668Y-66851229D01*
X101163454Y-66960008D01*
X101308705Y-67036242D01*
X101467979Y-67075500D01*
X101467980Y-67075500D01*
X101509562Y-67075500D01*
X101584062Y-67095462D01*
X101638600Y-67150000D01*
X101657474Y-67206536D01*
X101658352Y-67213758D01*
X101664312Y-67262847D01*
X101715862Y-67398771D01*
X101722482Y-67416226D01*
X101728193Y-67424500D01*
X101815664Y-67551224D01*
X101815665Y-67551225D01*
X101815668Y-67551229D01*
X101938454Y-67660008D01*
X102083705Y-67736242D01*
X102242979Y-67775500D01*
X102242980Y-67775500D01*
X102407020Y-67775500D01*
X102407021Y-67775500D01*
X102566295Y-67736242D01*
X102711546Y-67660008D01*
X102722843Y-67650000D01*
X111519539Y-67650000D01*
X111539312Y-67812847D01*
X111586457Y-67937155D01*
X111597482Y-67966226D01*
X111611298Y-67986242D01*
X111690664Y-68101224D01*
X111690665Y-68101225D01*
X111690668Y-68101229D01*
X111813454Y-68210008D01*
X111958705Y-68286242D01*
X112117979Y-68325500D01*
X112117980Y-68325500D01*
X112282020Y-68325500D01*
X112282021Y-68325500D01*
X112441295Y-68286242D01*
X112562877Y-68222430D01*
X112638114Y-68205485D01*
X112711750Y-68228430D01*
X112764048Y-68285118D01*
X112780029Y-68336402D01*
X112789311Y-68412841D01*
X112789312Y-68412847D01*
X112834969Y-68533233D01*
X112847482Y-68566226D01*
X112871643Y-68601229D01*
X112940664Y-68701224D01*
X112940665Y-68701225D01*
X112940668Y-68701229D01*
X113063454Y-68810008D01*
X113208705Y-68886242D01*
X113367979Y-68925500D01*
X113367980Y-68925500D01*
X113532020Y-68925500D01*
X113532021Y-68925500D01*
X113691295Y-68886242D01*
X113836546Y-68810008D01*
X113959332Y-68701229D01*
X113999538Y-68642980D01*
X114058284Y-68593010D01*
X114134149Y-68579106D01*
X114206801Y-68604997D01*
X114256774Y-68663746D01*
X114270678Y-68739611D01*
X114270076Y-68745576D01*
X114269618Y-68749353D01*
X114269539Y-68750000D01*
X114276825Y-68810006D01*
X114289312Y-68912847D01*
X114326160Y-69010006D01*
X114347482Y-69066226D01*
X114361298Y-69086242D01*
X114440664Y-69201224D01*
X114440665Y-69201225D01*
X114440668Y-69201229D01*
X114563454Y-69310008D01*
X114708705Y-69386242D01*
X114867979Y-69425500D01*
X114867980Y-69425500D01*
X115032021Y-69425500D01*
X115191295Y-69386242D01*
X115205754Y-69378652D01*
X115280997Y-69361706D01*
X115344245Y-69378652D01*
X115358705Y-69386242D01*
X115517979Y-69425500D01*
X115682020Y-69425500D01*
X115682021Y-69425500D01*
X115813028Y-69393209D01*
X115890140Y-69394762D01*
X115956145Y-69434663D01*
X115977724Y-69463379D01*
X116008016Y-69515847D01*
X116017469Y-69532219D01*
X116139528Y-69667778D01*
X116144129Y-69672888D01*
X116297270Y-69784151D01*
X116470197Y-69861144D01*
X116566949Y-69881709D01*
X116635671Y-69916725D01*
X116677678Y-69981410D01*
X116681714Y-70058432D01*
X116646698Y-70127154D01*
X116596575Y-70163571D01*
X116495282Y-70208670D01*
X116342138Y-70319935D01*
X116215480Y-70460601D01*
X116120833Y-70624536D01*
X116120830Y-70624543D01*
X116062336Y-70804567D01*
X116042551Y-70992822D01*
X116062336Y-71181076D01*
X116102529Y-71304776D01*
X116120832Y-71361106D01*
X116164211Y-71436241D01*
X116215480Y-71525042D01*
X116329101Y-71651229D01*
X116342140Y-71665710D01*
X116495281Y-71776973D01*
X116668208Y-71853966D01*
X116809326Y-71883961D01*
X116853363Y-71893322D01*
X116853365Y-71893322D01*
X117042658Y-71893322D01*
X117074649Y-71886521D01*
X117215110Y-71856666D01*
X117292130Y-71860702D01*
X117356815Y-71902709D01*
X117391831Y-71971430D01*
X117387795Y-72048453D01*
X117345788Y-72113138D01*
X117333667Y-72122953D01*
X117286256Y-72157398D01*
X117286252Y-72157402D01*
X117159593Y-72298069D01*
X117064946Y-72462004D01*
X117064943Y-72462011D01*
X117006449Y-72642035D01*
X116986664Y-72830290D01*
X117006449Y-73018544D01*
X117060136Y-73183774D01*
X117064945Y-73198574D01*
X117093926Y-73248771D01*
X117159593Y-73362510D01*
X117286251Y-73503176D01*
X117286253Y-73503178D01*
X117439394Y-73614441D01*
X117439395Y-73614441D01*
X117439396Y-73614442D01*
X117463872Y-73625339D01*
X117612321Y-73691434D01*
X117753439Y-73721429D01*
X117797476Y-73730790D01*
X117797478Y-73730790D01*
X117986772Y-73730790D01*
X118026128Y-73722424D01*
X118171927Y-73691434D01*
X118344854Y-73614441D01*
X118431790Y-73551278D01*
X118503791Y-73523639D01*
X118579970Y-73535704D01*
X118639910Y-73584242D01*
X118667551Y-73656247D01*
X118661074Y-73717866D01*
X118619839Y-73844779D01*
X118614325Y-73861748D01*
X118594540Y-74050000D01*
X118614325Y-74238254D01*
X118661607Y-74383772D01*
X118672821Y-74418284D01*
X118710632Y-74483774D01*
X118767469Y-74582220D01*
X118873520Y-74700000D01*
X118894129Y-74722888D01*
X119047270Y-74834151D01*
X119220197Y-74911144D01*
X119361315Y-74941139D01*
X119405352Y-74950500D01*
X119405354Y-74950500D01*
X119594648Y-74950500D01*
X119634004Y-74942134D01*
X119779803Y-74911144D01*
X119952730Y-74834151D01*
X120105871Y-74722888D01*
X120214483Y-74602263D01*
X120232530Y-74582220D01*
X120232531Y-74582218D01*
X120232533Y-74582216D01*
X120327179Y-74418284D01*
X120358293Y-74322524D01*
X120400300Y-74257840D01*
X120469021Y-74222825D01*
X120546044Y-74226862D01*
X120610729Y-74268869D01*
X120641706Y-74322524D01*
X120672821Y-74418284D01*
X120710632Y-74483774D01*
X120767469Y-74582220D01*
X120873520Y-74700000D01*
X120894129Y-74722888D01*
X121047270Y-74834151D01*
X121220197Y-74911144D01*
X121361315Y-74941139D01*
X121405352Y-74950500D01*
X121405354Y-74950500D01*
X121594648Y-74950500D01*
X121634004Y-74942134D01*
X121779803Y-74911144D01*
X121952730Y-74834151D01*
X122105871Y-74722888D01*
X122214483Y-74602263D01*
X122232530Y-74582220D01*
X122232531Y-74582218D01*
X122232533Y-74582216D01*
X122327179Y-74418284D01*
X122333118Y-74400005D01*
X124244451Y-74400005D01*
X124264615Y-74669090D01*
X124264618Y-74669113D01*
X124324663Y-74932187D01*
X124324665Y-74932194D01*
X124400309Y-75124928D01*
X124423257Y-75183398D01*
X124558185Y-75417102D01*
X124558189Y-75417107D01*
X124703412Y-75599211D01*
X124726439Y-75628085D01*
X124924259Y-75811635D01*
X125147226Y-75963651D01*
X125390359Y-76080738D01*
X125648228Y-76160280D01*
X125915071Y-76200500D01*
X125915074Y-76200500D01*
X126184926Y-76200500D01*
X126184929Y-76200500D01*
X126451772Y-76160280D01*
X126709641Y-76080738D01*
X126952775Y-75963651D01*
X127175741Y-75811635D01*
X127373561Y-75628085D01*
X127541815Y-75417102D01*
X127676743Y-75183398D01*
X127775334Y-74932195D01*
X127797712Y-74834151D01*
X127835381Y-74669113D01*
X127835381Y-74669110D01*
X127835383Y-74669103D01*
X127854179Y-74418284D01*
X127855549Y-74400005D01*
X127855549Y-74399994D01*
X127835384Y-74130909D01*
X127835383Y-74130907D01*
X127835383Y-74130897D01*
X127835381Y-74130891D01*
X127835381Y-74130886D01*
X127775336Y-73867812D01*
X127775334Y-73867805D01*
X127755091Y-73816227D01*
X127676743Y-73616602D01*
X127541815Y-73382898D01*
X127373561Y-73171915D01*
X127175741Y-72988365D01*
X126952775Y-72836349D01*
X126952772Y-72836348D01*
X126952770Y-72836346D01*
X126709650Y-72719266D01*
X126709646Y-72719264D01*
X126709641Y-72719262D01*
X126709633Y-72719259D01*
X126709629Y-72719258D01*
X126451777Y-72639721D01*
X126451773Y-72639720D01*
X126184932Y-72599500D01*
X126184929Y-72599500D01*
X125915071Y-72599500D01*
X125915067Y-72599500D01*
X125648226Y-72639720D01*
X125648222Y-72639721D01*
X125390370Y-72719258D01*
X125390349Y-72719266D01*
X125147227Y-72836348D01*
X124924259Y-72988364D01*
X124726438Y-73171915D01*
X124558189Y-73382892D01*
X124558186Y-73382896D01*
X124558185Y-73382898D01*
X124557679Y-73383774D01*
X124423257Y-73616601D01*
X124423255Y-73616606D01*
X124324665Y-73867805D01*
X124324663Y-73867812D01*
X124264618Y-74130886D01*
X124264615Y-74130909D01*
X124244451Y-74399994D01*
X124244451Y-74400005D01*
X122333118Y-74400005D01*
X122385674Y-74238256D01*
X122405460Y-74050000D01*
X122385674Y-73861744D01*
X122327179Y-73681716D01*
X122232533Y-73517784D01*
X122232532Y-73517783D01*
X122231310Y-73515666D01*
X122211348Y-73441166D01*
X122231310Y-73366666D01*
X122285848Y-73312128D01*
X122324683Y-73296498D01*
X122366295Y-73286242D01*
X122511546Y-73210008D01*
X122511551Y-73210003D01*
X122518884Y-73204942D01*
X122591535Y-73179047D01*
X122667400Y-73192948D01*
X122691102Y-73207016D01*
X122797270Y-73284151D01*
X122970197Y-73361144D01*
X123111315Y-73391139D01*
X123155352Y-73400500D01*
X123155354Y-73400500D01*
X123344648Y-73400500D01*
X123384004Y-73392134D01*
X123529803Y-73361144D01*
X123702730Y-73284151D01*
X123855871Y-73172888D01*
X123945912Y-73072888D01*
X123982530Y-73032220D01*
X123982531Y-73032218D01*
X123982533Y-73032216D01*
X124077179Y-72868284D01*
X124135674Y-72688256D01*
X124155460Y-72500000D01*
X124144950Y-72400000D01*
X127794540Y-72400000D01*
X127814325Y-72588254D01*
X127846818Y-72688256D01*
X127872821Y-72768284D01*
X127905277Y-72824500D01*
X127967469Y-72932220D01*
X128094127Y-73072886D01*
X128094129Y-73072888D01*
X128247270Y-73184151D01*
X128420197Y-73261144D01*
X128561315Y-73291139D01*
X128605352Y-73300500D01*
X128605354Y-73300500D01*
X128794648Y-73300500D01*
X128834004Y-73292134D01*
X128979803Y-73261144D01*
X129152730Y-73184151D01*
X129305871Y-73072888D01*
X129393560Y-72975500D01*
X129432530Y-72932220D01*
X129432531Y-72932218D01*
X129432533Y-72932216D01*
X129527179Y-72768284D01*
X129585674Y-72588256D01*
X129605460Y-72400000D01*
X129585674Y-72211744D01*
X129527179Y-72031716D01*
X129432533Y-71867784D01*
X129432532Y-71867783D01*
X129432530Y-71867779D01*
X129305872Y-71727113D01*
X129290887Y-71716226D01*
X129152730Y-71615849D01*
X129152729Y-71615848D01*
X129152727Y-71615847D01*
X128979805Y-71538857D01*
X128979803Y-71538856D01*
X128873313Y-71516221D01*
X128794648Y-71499500D01*
X128794646Y-71499500D01*
X128605354Y-71499500D01*
X128605352Y-71499500D01*
X128526659Y-71516227D01*
X128420197Y-71538856D01*
X128420195Y-71538856D01*
X128420194Y-71538857D01*
X128247272Y-71615847D01*
X128094127Y-71727113D01*
X127967469Y-71867779D01*
X127872822Y-72031714D01*
X127872819Y-72031721D01*
X127814325Y-72211745D01*
X127794540Y-72400000D01*
X124144950Y-72400000D01*
X124135674Y-72311744D01*
X124077179Y-72131716D01*
X123982533Y-71967784D01*
X123982532Y-71967783D01*
X123982530Y-71967779D01*
X123855872Y-71827113D01*
X123799605Y-71786233D01*
X123702730Y-71715849D01*
X123702729Y-71715848D01*
X123702727Y-71715847D01*
X123529805Y-71638857D01*
X123529803Y-71638856D01*
X123421553Y-71615847D01*
X123344648Y-71599500D01*
X123344646Y-71599500D01*
X123155354Y-71599500D01*
X123155352Y-71599500D01*
X123078437Y-71615849D01*
X122970197Y-71638856D01*
X122970195Y-71638856D01*
X122970194Y-71638857D01*
X122797272Y-71715847D01*
X122644127Y-71827113D01*
X122515857Y-71969571D01*
X122451172Y-72011578D01*
X122374149Y-72015614D01*
X122369471Y-72014540D01*
X122207021Y-71974500D01*
X122042979Y-71974500D01*
X121963342Y-71994129D01*
X121883704Y-72013758D01*
X121807470Y-72053769D01*
X121738454Y-72089992D01*
X121615668Y-72198771D01*
X121615667Y-72198772D01*
X121615664Y-72198775D01*
X121522483Y-72333772D01*
X121522480Y-72333778D01*
X121464312Y-72487152D01*
X121444539Y-72650000D01*
X121464312Y-72812847D01*
X121516454Y-72950332D01*
X121524208Y-73027069D01*
X121492553Y-73097402D01*
X121429973Y-73142485D01*
X121408117Y-73148912D01*
X121266345Y-73179047D01*
X121220197Y-73188856D01*
X121220196Y-73188856D01*
X121220193Y-73188857D01*
X121047272Y-73265847D01*
X120894127Y-73377113D01*
X120767469Y-73517779D01*
X120672822Y-73681714D01*
X120672819Y-73681721D01*
X120641707Y-73777474D01*
X120599700Y-73842159D01*
X120530978Y-73877174D01*
X120453956Y-73873137D01*
X120389271Y-73831130D01*
X120358293Y-73777474D01*
X120336369Y-73710000D01*
X120327179Y-73681716D01*
X120232533Y-73517784D01*
X120232532Y-73517783D01*
X120232530Y-73517779D01*
X120105871Y-73377112D01*
X120100503Y-73373212D01*
X120051965Y-73313272D01*
X120039900Y-73237094D01*
X120067541Y-73165088D01*
X120089272Y-73141148D01*
X120134332Y-73101229D01*
X120227518Y-72966226D01*
X120285688Y-72812845D01*
X120305461Y-72650000D01*
X120285688Y-72487155D01*
X120227518Y-72333774D01*
X120134332Y-72198771D01*
X120011546Y-72089992D01*
X119866295Y-72013758D01*
X119707021Y-71974500D01*
X119542979Y-71974500D01*
X119463342Y-71994129D01*
X119383704Y-72013758D01*
X119307470Y-72053769D01*
X119238454Y-72089992D01*
X119115668Y-72198771D01*
X119115667Y-72198772D01*
X119115664Y-72198775D01*
X119022483Y-72333772D01*
X119022482Y-72333774D01*
X118984282Y-72434498D01*
X118939198Y-72497077D01*
X118868865Y-72528731D01*
X118792127Y-72520977D01*
X118729548Y-72475893D01*
X118715931Y-72456167D01*
X118624657Y-72298074D01*
X118624656Y-72298073D01*
X118624654Y-72298069D01*
X118497996Y-72157403D01*
X118450579Y-72122953D01*
X118344854Y-72046139D01*
X118344853Y-72046138D01*
X118344851Y-72046137D01*
X118177057Y-71971430D01*
X118171927Y-71969146D01*
X118053087Y-71943886D01*
X117986772Y-71929790D01*
X117986770Y-71929790D01*
X117797478Y-71929790D01*
X117797476Y-71929790D01*
X117625026Y-71966445D01*
X117548003Y-71962408D01*
X117483318Y-71920401D01*
X117448303Y-71851680D01*
X117452340Y-71774657D01*
X117494347Y-71709972D01*
X117506451Y-71700169D01*
X117553882Y-71665710D01*
X117646501Y-71562847D01*
X117680541Y-71525042D01*
X117680542Y-71525040D01*
X117680544Y-71525038D01*
X117775190Y-71361106D01*
X117833685Y-71181078D01*
X117853471Y-70992822D01*
X117833685Y-70804566D01*
X117775190Y-70624538D01*
X117680544Y-70460606D01*
X117680543Y-70460605D01*
X117680541Y-70460601D01*
X117553883Y-70319935D01*
X117504111Y-70283774D01*
X117400741Y-70208671D01*
X117400740Y-70208670D01*
X117400738Y-70208669D01*
X117381265Y-70199999D01*
X118094540Y-70199999D01*
X118114325Y-70388253D01*
X118171351Y-70563758D01*
X118172821Y-70568283D01*
X118212584Y-70637155D01*
X118267469Y-70732219D01*
X118386206Y-70864088D01*
X118394129Y-70872887D01*
X118547270Y-70984150D01*
X118720197Y-71061143D01*
X118861315Y-71091138D01*
X118905352Y-71100499D01*
X118905354Y-71100499D01*
X119094648Y-71100499D01*
X119134004Y-71092133D01*
X119279803Y-71061143D01*
X119452730Y-70984150D01*
X119605871Y-70872887D01*
X119694459Y-70774500D01*
X119732530Y-70732219D01*
X119732531Y-70732217D01*
X119732533Y-70732215D01*
X119827179Y-70568283D01*
X119885674Y-70388255D01*
X119894950Y-70300000D01*
X122244540Y-70300000D01*
X122264325Y-70488254D01*
X122313628Y-70639992D01*
X122322821Y-70668284D01*
X122351689Y-70718285D01*
X122417469Y-70832220D01*
X122522417Y-70948775D01*
X122544129Y-70972888D01*
X122697270Y-71084151D01*
X122870197Y-71161144D01*
X123011315Y-71191139D01*
X123055352Y-71200500D01*
X123055354Y-71200500D01*
X123244648Y-71200500D01*
X123284004Y-71192134D01*
X123429803Y-71161144D01*
X123602730Y-71084151D01*
X123755871Y-70972888D01*
X123845913Y-70872887D01*
X123882530Y-70832220D01*
X123882531Y-70832218D01*
X123882533Y-70832216D01*
X123977179Y-70668284D01*
X124035674Y-70488256D01*
X124050205Y-70350000D01*
X126744540Y-70350000D01*
X126764325Y-70538254D01*
X126806573Y-70668278D01*
X126822821Y-70718284D01*
X126850645Y-70766477D01*
X126917469Y-70882220D01*
X127022417Y-70998775D01*
X127044129Y-71022888D01*
X127197270Y-71134151D01*
X127197271Y-71134151D01*
X127197272Y-71134152D01*
X127221748Y-71145049D01*
X127370197Y-71211144D01*
X127511315Y-71241139D01*
X127555352Y-71250500D01*
X127555354Y-71250500D01*
X127744648Y-71250500D01*
X127784004Y-71242134D01*
X127929803Y-71211144D01*
X128102730Y-71134151D01*
X128255871Y-71022888D01*
X128332553Y-70937724D01*
X128382530Y-70882220D01*
X128382531Y-70882218D01*
X128382533Y-70882216D01*
X128477179Y-70718284D01*
X128535674Y-70538256D01*
X128555460Y-70350000D01*
X128535674Y-70161744D01*
X128477179Y-69981716D01*
X128382533Y-69817784D01*
X128382532Y-69817783D01*
X128382530Y-69817779D01*
X128255872Y-69677113D01*
X128251880Y-69674213D01*
X128102730Y-69565849D01*
X128102729Y-69565848D01*
X128102727Y-69565847D01*
X127929805Y-69488857D01*
X127929803Y-69488856D01*
X127809942Y-69463379D01*
X127744648Y-69449500D01*
X127744646Y-69449500D01*
X127555354Y-69449500D01*
X127555352Y-69449500D01*
X127455392Y-69470747D01*
X127370197Y-69488856D01*
X127370195Y-69488856D01*
X127370194Y-69488857D01*
X127197272Y-69565847D01*
X127044127Y-69677113D01*
X126917469Y-69817779D01*
X126822822Y-69981714D01*
X126822819Y-69981721D01*
X126764325Y-70161745D01*
X126744540Y-70350000D01*
X124050205Y-70350000D01*
X124055460Y-70300000D01*
X124035674Y-70111744D01*
X123977179Y-69931716D01*
X123882533Y-69767784D01*
X123882532Y-69767783D01*
X123882530Y-69767779D01*
X123755872Y-69627113D01*
X123737490Y-69613758D01*
X123602730Y-69515849D01*
X123602729Y-69515848D01*
X123602727Y-69515847D01*
X123429805Y-69438857D01*
X123429803Y-69438856D01*
X123321549Y-69415846D01*
X123244648Y-69399500D01*
X123244646Y-69399500D01*
X123055354Y-69399500D01*
X123055352Y-69399500D01*
X122978451Y-69415846D01*
X122870197Y-69438856D01*
X122870195Y-69438856D01*
X122870194Y-69438857D01*
X122697272Y-69515847D01*
X122544127Y-69627113D01*
X122417469Y-69767779D01*
X122322822Y-69931714D01*
X122322819Y-69931721D01*
X122264325Y-70111745D01*
X122244540Y-70300000D01*
X119894950Y-70300000D01*
X119905460Y-70199999D01*
X119885674Y-70011743D01*
X119827179Y-69831715D01*
X119732533Y-69667783D01*
X119732532Y-69667782D01*
X119732530Y-69667778D01*
X119605872Y-69527112D01*
X119582330Y-69510008D01*
X119452730Y-69415848D01*
X119452729Y-69415847D01*
X119452727Y-69415846D01*
X119279805Y-69338856D01*
X119279803Y-69338855D01*
X119173317Y-69316221D01*
X119094648Y-69299499D01*
X119094646Y-69299499D01*
X118905354Y-69299499D01*
X118905352Y-69299499D01*
X118826659Y-69316226D01*
X118720197Y-69338855D01*
X118720195Y-69338855D01*
X118720194Y-69338856D01*
X118547272Y-69415846D01*
X118394127Y-69527112D01*
X118267469Y-69667778D01*
X118172822Y-69831713D01*
X118172819Y-69831720D01*
X118114325Y-70011744D01*
X118094540Y-70199999D01*
X117381265Y-70199999D01*
X117227817Y-70131679D01*
X117227815Y-70131678D01*
X117227814Y-70131678D01*
X117186079Y-70122807D01*
X117131060Y-70111112D01*
X117062339Y-70076096D01*
X117020332Y-70011410D01*
X117016296Y-69934388D01*
X117051312Y-69865667D01*
X117101437Y-69829250D01*
X117178271Y-69795041D01*
X117202730Y-69784151D01*
X117355871Y-69672888D01*
X117437096Y-69582679D01*
X117482530Y-69532220D01*
X117482531Y-69532218D01*
X117482533Y-69532216D01*
X117577179Y-69368284D01*
X117635674Y-69188256D01*
X117650205Y-69050000D01*
X120669539Y-69050000D01*
X120689312Y-69212847D01*
X120737102Y-69338856D01*
X120747482Y-69366226D01*
X120771643Y-69401229D01*
X120840664Y-69501224D01*
X120840665Y-69501225D01*
X120840668Y-69501229D01*
X120963454Y-69610008D01*
X121108705Y-69686242D01*
X121267979Y-69725500D01*
X121267980Y-69725500D01*
X121432020Y-69725500D01*
X121432021Y-69725500D01*
X121591295Y-69686242D01*
X121736546Y-69610008D01*
X121859332Y-69501229D01*
X121952518Y-69366226D01*
X122010688Y-69212845D01*
X122030461Y-69050000D01*
X122010688Y-68887155D01*
X121952518Y-68733774D01*
X121883493Y-68633774D01*
X121859335Y-68598775D01*
X121859334Y-68598774D01*
X121859332Y-68598771D01*
X121736546Y-68489992D01*
X121660348Y-68450000D01*
X126469539Y-68450000D01*
X126489312Y-68612847D01*
X126541328Y-68750000D01*
X126547482Y-68766226D01*
X126561926Y-68787152D01*
X126640664Y-68901224D01*
X126640665Y-68901225D01*
X126640668Y-68901229D01*
X126763454Y-69010008D01*
X126908705Y-69086242D01*
X127067979Y-69125500D01*
X127067980Y-69125500D01*
X127232020Y-69125500D01*
X127232021Y-69125500D01*
X127391295Y-69086242D01*
X127536546Y-69010008D01*
X127659332Y-68901229D01*
X127752518Y-68766226D01*
X127810688Y-68612845D01*
X127830461Y-68450000D01*
X127810688Y-68287155D01*
X127809915Y-68285118D01*
X127781429Y-68210006D01*
X127752518Y-68133774D01*
X127660181Y-68000001D01*
X128276439Y-68000001D01*
X128296212Y-68162848D01*
X128353099Y-68312845D01*
X128354382Y-68316227D01*
X128361896Y-68327113D01*
X128447564Y-68451225D01*
X128447565Y-68451226D01*
X128447568Y-68451230D01*
X128570354Y-68560009D01*
X128715605Y-68636243D01*
X128874879Y-68675501D01*
X128874880Y-68675501D01*
X129038920Y-68675501D01*
X129038921Y-68675501D01*
X129198195Y-68636243D01*
X129343446Y-68560009D01*
X129466232Y-68451230D01*
X129559418Y-68316227D01*
X129617588Y-68162846D01*
X129637361Y-68000001D01*
X129617588Y-67837156D01*
X129559418Y-67683775D01*
X129467928Y-67551229D01*
X129466235Y-67548776D01*
X129466234Y-67548775D01*
X129466232Y-67548772D01*
X129343446Y-67439993D01*
X129198195Y-67363759D01*
X129038921Y-67324501D01*
X128874879Y-67324501D01*
X128829610Y-67335659D01*
X128715604Y-67363759D01*
X128648888Y-67398775D01*
X128570354Y-67439993D01*
X128447568Y-67548772D01*
X128447567Y-67548773D01*
X128447564Y-67548776D01*
X128354383Y-67683773D01*
X128354380Y-67683779D01*
X128296212Y-67837153D01*
X128276439Y-68000001D01*
X127660181Y-68000001D01*
X127659332Y-67998771D01*
X127536546Y-67889992D01*
X127391295Y-67813758D01*
X127232021Y-67774500D01*
X127067979Y-67774500D01*
X126988342Y-67794129D01*
X126908704Y-67813758D01*
X126864124Y-67837156D01*
X126763454Y-67889992D01*
X126640668Y-67998771D01*
X126640667Y-67998772D01*
X126640664Y-67998775D01*
X126547483Y-68133772D01*
X126547480Y-68133778D01*
X126489312Y-68287152D01*
X126469539Y-68450000D01*
X121660348Y-68450000D01*
X121591295Y-68413758D01*
X121432021Y-68374500D01*
X121267979Y-68374500D01*
X121205126Y-68389992D01*
X121108704Y-68413758D01*
X121039652Y-68450000D01*
X120963454Y-68489992D01*
X120840668Y-68598771D01*
X120840667Y-68598772D01*
X120840664Y-68598775D01*
X120747483Y-68733772D01*
X120747480Y-68733778D01*
X120689312Y-68887152D01*
X120669539Y-69050000D01*
X117650205Y-69050000D01*
X117655460Y-69000000D01*
X117635674Y-68811744D01*
X117577179Y-68631716D01*
X117482533Y-68467784D01*
X117482532Y-68467783D01*
X117482530Y-68467779D01*
X117355872Y-68327113D01*
X117337490Y-68313758D01*
X117202730Y-68215849D01*
X117202729Y-68215848D01*
X117202727Y-68215847D01*
X117029805Y-68138857D01*
X117029803Y-68138856D01*
X116911725Y-68113758D01*
X116844648Y-68099500D01*
X116844646Y-68099500D01*
X116655354Y-68099500D01*
X116655352Y-68099500D01*
X116588265Y-68113760D01*
X116470197Y-68138856D01*
X116470195Y-68138856D01*
X116470194Y-68138857D01*
X116297270Y-68215848D01*
X116239397Y-68257895D01*
X116167392Y-68285534D01*
X116091213Y-68273467D01*
X116053013Y-68248877D01*
X115986550Y-68189995D01*
X115986548Y-68189993D01*
X115841295Y-68113758D01*
X115785477Y-68100000D01*
X115682021Y-68074500D01*
X115517979Y-68074500D01*
X115466648Y-68087152D01*
X115358703Y-68113758D01*
X115358699Y-68113760D01*
X115344239Y-68121349D01*
X115268995Y-68138293D01*
X115205761Y-68121349D01*
X115191300Y-68113760D01*
X115191296Y-68113758D01*
X115090265Y-68088856D01*
X115032021Y-68074500D01*
X114867979Y-68074500D01*
X114809735Y-68088856D01*
X114708704Y-68113758D01*
X114660885Y-68138856D01*
X114563454Y-68189992D01*
X114440668Y-68298771D01*
X114440666Y-68298772D01*
X114440663Y-68298776D01*
X114400462Y-68357018D01*
X114341713Y-68406990D01*
X114265848Y-68420893D01*
X114193196Y-68395000D01*
X114143224Y-68336251D01*
X114129321Y-68260386D01*
X114129925Y-68254411D01*
X114130461Y-68250000D01*
X114110688Y-68087155D01*
X114052518Y-67933774D01*
X113983493Y-67833774D01*
X113959335Y-67798775D01*
X113959334Y-67798774D01*
X113959332Y-67798771D01*
X113836546Y-67689992D01*
X113691295Y-67613758D01*
X113532021Y-67574500D01*
X113367979Y-67574500D01*
X113305126Y-67589992D01*
X113208704Y-67613758D01*
X113152631Y-67643187D01*
X113087124Y-67677568D01*
X113011884Y-67694514D01*
X112938248Y-67671569D01*
X112885950Y-67614879D01*
X112869969Y-67563597D01*
X112860688Y-67487155D01*
X112802518Y-67333774D01*
X112719677Y-67213758D01*
X112709335Y-67198775D01*
X112709334Y-67198774D01*
X112709332Y-67198771D01*
X112586546Y-67089992D01*
X112441295Y-67013758D01*
X112282021Y-66974500D01*
X112117979Y-66974500D01*
X112038342Y-66994129D01*
X111958704Y-67013758D01*
X111882470Y-67053769D01*
X111813454Y-67089992D01*
X111690668Y-67198771D01*
X111690667Y-67198772D01*
X111690664Y-67198775D01*
X111597483Y-67333772D01*
X111597480Y-67333778D01*
X111539312Y-67487152D01*
X111519539Y-67650000D01*
X102722843Y-67650000D01*
X102834332Y-67551229D01*
X102927518Y-67416226D01*
X102985688Y-67262845D01*
X103005461Y-67100000D01*
X102985688Y-66937155D01*
X102927518Y-66783774D01*
X102902730Y-66747863D01*
X108449500Y-66747863D01*
X108449502Y-66747888D01*
X108455908Y-66807478D01*
X108455909Y-66807484D01*
X108506202Y-66942329D01*
X108506204Y-66942333D01*
X108592452Y-67057544D01*
X108592455Y-67057547D01*
X108707666Y-67143795D01*
X108707670Y-67143797D01*
X108842517Y-67194091D01*
X108902114Y-67200499D01*
X108902118Y-67200499D01*
X108902127Y-67200500D01*
X110597872Y-67200499D01*
X110657483Y-67194091D01*
X110761407Y-67155330D01*
X110792329Y-67143797D01*
X110792333Y-67143795D01*
X110867383Y-67087612D01*
X110907546Y-67057546D01*
X110969714Y-66974500D01*
X110993795Y-66942333D01*
X110993797Y-66942329D01*
X111027777Y-66851224D01*
X111044091Y-66807483D01*
X111046640Y-66783772D01*
X111050499Y-66747885D01*
X111050499Y-66747882D01*
X111050500Y-66747873D01*
X111050499Y-65900000D01*
X112444532Y-65900000D01*
X112464365Y-66126693D01*
X112493963Y-66237155D01*
X112523261Y-66346496D01*
X112619432Y-66552734D01*
X112619435Y-66552738D01*
X112619437Y-66552741D01*
X112749951Y-66739137D01*
X112910862Y-66900048D01*
X112971249Y-66942331D01*
X113097266Y-67030568D01*
X113303504Y-67126739D01*
X113523308Y-67185635D01*
X113750000Y-67205468D01*
X113976692Y-67185635D01*
X114196496Y-67126739D01*
X114402734Y-67030568D01*
X114589139Y-66900047D01*
X114739186Y-66750000D01*
X115394540Y-66750000D01*
X115414325Y-66938254D01*
X115462855Y-67087612D01*
X115472821Y-67118284D01*
X115511706Y-67185635D01*
X115567469Y-67282220D01*
X115688126Y-67416221D01*
X115694129Y-67422888D01*
X115847270Y-67534151D01*
X116020197Y-67611144D01*
X116161315Y-67641139D01*
X116205352Y-67650500D01*
X116205354Y-67650500D01*
X116394648Y-67650500D01*
X116434004Y-67642134D01*
X116579803Y-67611144D01*
X116752730Y-67534151D01*
X116905871Y-67422888D01*
X117025531Y-67289993D01*
X117032530Y-67282220D01*
X117032531Y-67282218D01*
X117032533Y-67282216D01*
X117127179Y-67118284D01*
X117185674Y-66938256D01*
X117205460Y-66750000D01*
X117185674Y-66561744D01*
X117127179Y-66381716D01*
X117032533Y-66217784D01*
X117032532Y-66217783D01*
X117032530Y-66217779D01*
X116905872Y-66077113D01*
X116890887Y-66066226D01*
X116752730Y-65965849D01*
X116752729Y-65965848D01*
X116752727Y-65965847D01*
X116629804Y-65911118D01*
X116569864Y-65862580D01*
X116545842Y-65800000D01*
X117644540Y-65800000D01*
X117664325Y-65988254D01*
X117697385Y-66090000D01*
X117722821Y-66168284D01*
X117762582Y-66237152D01*
X117817469Y-66332220D01*
X117944127Y-66472886D01*
X117944129Y-66472888D01*
X118097270Y-66584151D01*
X118270197Y-66661144D01*
X118411315Y-66691139D01*
X118455352Y-66700500D01*
X118455354Y-66700500D01*
X118644648Y-66700500D01*
X118684004Y-66692134D01*
X118829803Y-66661144D01*
X119002730Y-66584151D01*
X119155871Y-66472888D01*
X119237965Y-66381714D01*
X119282530Y-66332220D01*
X119282531Y-66332218D01*
X119282533Y-66332216D01*
X119377179Y-66168284D01*
X119435674Y-65988256D01*
X119455460Y-65800000D01*
X122194540Y-65800000D01*
X122214325Y-65988254D01*
X122247385Y-66090000D01*
X122272821Y-66168284D01*
X122312582Y-66237152D01*
X122367469Y-66332220D01*
X122494127Y-66472886D01*
X122494129Y-66472888D01*
X122647270Y-66584151D01*
X122820197Y-66661144D01*
X122961315Y-66691139D01*
X123005352Y-66700500D01*
X123005354Y-66700500D01*
X123194648Y-66700500D01*
X123234004Y-66692134D01*
X123379803Y-66661144D01*
X123552730Y-66584151D01*
X123705871Y-66472888D01*
X123787965Y-66381714D01*
X123832530Y-66332220D01*
X123832531Y-66332218D01*
X123832533Y-66332216D01*
X123927179Y-66168284D01*
X123985674Y-65988256D01*
X124005460Y-65800000D01*
X123985674Y-65611744D01*
X123927179Y-65431716D01*
X123832533Y-65267784D01*
X123832532Y-65267783D01*
X123832530Y-65267779D01*
X123705872Y-65127113D01*
X123687490Y-65113758D01*
X123552730Y-65015849D01*
X123552729Y-65015848D01*
X123552727Y-65015847D01*
X123379805Y-64938857D01*
X123379803Y-64938856D01*
X123273360Y-64916231D01*
X123194648Y-64899500D01*
X123194646Y-64899500D01*
X123005354Y-64899500D01*
X123005352Y-64899500D01*
X122905392Y-64920747D01*
X122820197Y-64938856D01*
X122820195Y-64938856D01*
X122820194Y-64938857D01*
X122647272Y-65015847D01*
X122494127Y-65127113D01*
X122367469Y-65267779D01*
X122272822Y-65431714D01*
X122272819Y-65431721D01*
X122214325Y-65611745D01*
X122194540Y-65800000D01*
X119455460Y-65800000D01*
X119435674Y-65611744D01*
X119377179Y-65431716D01*
X119282533Y-65267784D01*
X119282532Y-65267783D01*
X119282530Y-65267779D01*
X119155872Y-65127113D01*
X119137490Y-65113758D01*
X119002730Y-65015849D01*
X119002729Y-65015848D01*
X119002727Y-65015847D01*
X118829805Y-64938857D01*
X118829803Y-64938856D01*
X118723360Y-64916231D01*
X118644648Y-64899500D01*
X118644646Y-64899500D01*
X118455354Y-64899500D01*
X118455352Y-64899500D01*
X118355392Y-64920747D01*
X118270197Y-64938856D01*
X118270195Y-64938856D01*
X118270194Y-64938857D01*
X118097272Y-65015847D01*
X117944127Y-65127113D01*
X117817469Y-65267779D01*
X117722822Y-65431714D01*
X117722819Y-65431721D01*
X117664325Y-65611745D01*
X117644540Y-65800000D01*
X116545842Y-65800000D01*
X116542224Y-65790574D01*
X116554290Y-65714396D01*
X116602828Y-65654456D01*
X116629804Y-65638882D01*
X116667948Y-65621898D01*
X116752730Y-65584151D01*
X116905871Y-65472888D01*
X116980511Y-65389992D01*
X117032530Y-65332220D01*
X117032531Y-65332218D01*
X117032533Y-65332216D01*
X117127179Y-65168284D01*
X117185674Y-64988256D01*
X117205460Y-64800000D01*
X117185674Y-64611744D01*
X117127179Y-64431716D01*
X117032533Y-64267784D01*
X117032532Y-64267783D01*
X117032530Y-64267779D01*
X116905872Y-64127113D01*
X116856363Y-64091143D01*
X116752730Y-64015849D01*
X116752729Y-64015848D01*
X116752727Y-64015847D01*
X116629804Y-63961118D01*
X116569864Y-63912580D01*
X116542224Y-63840574D01*
X116554290Y-63764396D01*
X116602828Y-63704456D01*
X116629804Y-63688882D01*
X116687263Y-63663299D01*
X116752730Y-63634151D01*
X116905871Y-63522888D01*
X117002809Y-63415228D01*
X117032530Y-63382220D01*
X117032531Y-63382218D01*
X117032533Y-63382216D01*
X117127179Y-63218284D01*
X117185674Y-63038256D01*
X117205460Y-62850000D01*
X117185674Y-62661744D01*
X117127179Y-62481716D01*
X117032533Y-62317784D01*
X117032532Y-62317783D01*
X117032530Y-62317779D01*
X116905872Y-62177113D01*
X116883892Y-62161144D01*
X116752730Y-62065849D01*
X116752729Y-62065848D01*
X116752727Y-62065847D01*
X116629804Y-62011118D01*
X116569864Y-61962580D01*
X116542224Y-61890574D01*
X116554290Y-61814396D01*
X116602828Y-61754456D01*
X116629804Y-61738882D01*
X116694664Y-61710004D01*
X116752730Y-61684151D01*
X116905871Y-61572888D01*
X116982076Y-61488254D01*
X117032530Y-61432220D01*
X117032531Y-61432218D01*
X117032533Y-61432216D01*
X117108868Y-61300000D01*
X117594540Y-61300000D01*
X117614325Y-61488254D01*
X117662410Y-61636242D01*
X117672821Y-61668284D01*
X117710632Y-61733774D01*
X117767469Y-61832220D01*
X117894127Y-61972886D01*
X117894129Y-61972888D01*
X118047270Y-62084151D01*
X118220197Y-62161144D01*
X118361315Y-62191139D01*
X118405352Y-62200500D01*
X118405354Y-62200500D01*
X118594648Y-62200500D01*
X118638277Y-62191226D01*
X118779803Y-62161144D01*
X118952730Y-62084151D01*
X119105871Y-61972888D01*
X119229661Y-61835406D01*
X119232530Y-61832220D01*
X119232531Y-61832218D01*
X119232533Y-61832216D01*
X119327179Y-61668284D01*
X119385674Y-61488256D01*
X119405460Y-61300000D01*
X122194540Y-61300000D01*
X122214325Y-61488254D01*
X122262410Y-61636242D01*
X122272821Y-61668284D01*
X122310632Y-61733774D01*
X122367469Y-61832220D01*
X122494127Y-61972886D01*
X122494129Y-61972888D01*
X122647270Y-62084151D01*
X122820197Y-62161144D01*
X122961315Y-62191139D01*
X123005352Y-62200500D01*
X123005354Y-62200500D01*
X123194648Y-62200500D01*
X123238277Y-62191226D01*
X123379803Y-62161144D01*
X123552730Y-62084151D01*
X123705871Y-61972888D01*
X123829661Y-61835406D01*
X123832530Y-61832220D01*
X123832531Y-61832218D01*
X123832533Y-61832216D01*
X123927179Y-61668284D01*
X123985674Y-61488256D01*
X124000205Y-61350000D01*
X126744540Y-61350000D01*
X126764325Y-61538254D01*
X126822819Y-61718278D01*
X126822821Y-61718284D01*
X126862737Y-61787421D01*
X126917469Y-61882220D01*
X127039094Y-62017296D01*
X127044129Y-62022888D01*
X127197270Y-62134151D01*
X127370197Y-62211144D01*
X127414941Y-62220654D01*
X127483661Y-62255670D01*
X127525668Y-62320355D01*
X127529704Y-62397378D01*
X127494688Y-62466099D01*
X127430003Y-62508106D01*
X127419628Y-62511065D01*
X127413298Y-62512625D01*
X127408704Y-62513758D01*
X127338699Y-62550500D01*
X127263454Y-62589992D01*
X127140668Y-62698771D01*
X127140667Y-62698772D01*
X127140664Y-62698775D01*
X127047483Y-62833772D01*
X127047480Y-62833778D01*
X126989312Y-62987152D01*
X126969539Y-63150000D01*
X126989312Y-63312847D01*
X127047480Y-63466221D01*
X127047482Y-63466226D01*
X127075134Y-63506287D01*
X127140664Y-63601224D01*
X127140665Y-63601225D01*
X127140668Y-63601229D01*
X127263454Y-63710008D01*
X127408705Y-63786242D01*
X127567979Y-63825500D01*
X127567980Y-63825500D01*
X127732020Y-63825500D01*
X127732021Y-63825500D01*
X127891295Y-63786242D01*
X128036546Y-63710008D01*
X128159332Y-63601229D01*
X128252518Y-63466226D01*
X128310688Y-63312845D01*
X128330461Y-63150000D01*
X128310688Y-62987155D01*
X128252518Y-62833774D01*
X128167006Y-62709888D01*
X128159335Y-62698775D01*
X128159334Y-62698774D01*
X128159332Y-62698771D01*
X128036546Y-62589992D01*
X127938080Y-62538313D01*
X127891294Y-62513757D01*
X127880381Y-62511068D01*
X127812823Y-62473857D01*
X127772922Y-62407852D01*
X127771369Y-62330740D01*
X127808580Y-62263182D01*
X127874585Y-62223281D01*
X127885051Y-62220656D01*
X127929803Y-62211144D01*
X128102730Y-62134151D01*
X128255871Y-62022888D01*
X128366070Y-61900500D01*
X128382530Y-61882220D01*
X128382531Y-61882218D01*
X128382533Y-61882216D01*
X128477179Y-61718284D01*
X128535674Y-61538256D01*
X128555460Y-61350000D01*
X128535674Y-61161744D01*
X128477179Y-60981716D01*
X128382533Y-60817784D01*
X128382532Y-60817783D01*
X128382530Y-60817779D01*
X128255872Y-60677113D01*
X128239190Y-60664993D01*
X128102730Y-60565849D01*
X128102729Y-60565848D01*
X128102727Y-60565847D01*
X127929805Y-60488857D01*
X127929803Y-60488856D01*
X127823360Y-60466231D01*
X127744648Y-60449500D01*
X127744646Y-60449500D01*
X127555354Y-60449500D01*
X127555352Y-60449500D01*
X127464290Y-60468856D01*
X127370197Y-60488856D01*
X127370195Y-60488856D01*
X127370194Y-60488857D01*
X127197272Y-60565847D01*
X127044127Y-60677113D01*
X126917469Y-60817779D01*
X126822822Y-60981714D01*
X126822819Y-60981721D01*
X126764325Y-61161745D01*
X126744540Y-61350000D01*
X124000205Y-61350000D01*
X124005460Y-61300000D01*
X123985674Y-61111744D01*
X123927179Y-60931716D01*
X123832533Y-60767784D01*
X123832532Y-60767783D01*
X123832530Y-60767779D01*
X123705872Y-60627113D01*
X123687490Y-60613758D01*
X123552730Y-60515849D01*
X123552729Y-60515848D01*
X123552727Y-60515847D01*
X123382361Y-60439995D01*
X123379803Y-60438856D01*
X123273360Y-60416231D01*
X123194648Y-60399500D01*
X123194646Y-60399500D01*
X123005354Y-60399500D01*
X123005352Y-60399500D01*
X122905392Y-60420747D01*
X122820197Y-60438856D01*
X122820195Y-60438856D01*
X122820194Y-60438857D01*
X122647272Y-60515847D01*
X122494127Y-60627113D01*
X122367469Y-60767779D01*
X122272822Y-60931714D01*
X122272819Y-60931721D01*
X122214325Y-61111745D01*
X122194540Y-61300000D01*
X119405460Y-61300000D01*
X119385674Y-61111744D01*
X119327179Y-60931716D01*
X119232533Y-60767784D01*
X119232532Y-60767783D01*
X119232530Y-60767779D01*
X119105872Y-60627113D01*
X119087490Y-60613758D01*
X118952730Y-60515849D01*
X118952729Y-60515848D01*
X118952727Y-60515847D01*
X118782361Y-60439995D01*
X118779803Y-60438856D01*
X118673360Y-60416231D01*
X118594648Y-60399500D01*
X118594646Y-60399500D01*
X118405354Y-60399500D01*
X118405352Y-60399500D01*
X118305392Y-60420747D01*
X118220197Y-60438856D01*
X118220195Y-60438856D01*
X118220194Y-60438857D01*
X118047272Y-60515847D01*
X117894127Y-60627113D01*
X117767469Y-60767779D01*
X117672822Y-60931714D01*
X117672819Y-60931721D01*
X117614325Y-61111745D01*
X117594540Y-61300000D01*
X117108868Y-61300000D01*
X117127179Y-61268284D01*
X117185674Y-61088256D01*
X117205460Y-60900000D01*
X117185674Y-60711744D01*
X117127179Y-60531716D01*
X117032533Y-60367784D01*
X117032532Y-60367783D01*
X117032530Y-60367779D01*
X116905872Y-60227113D01*
X116905871Y-60227112D01*
X116759189Y-60120541D01*
X116710653Y-60060604D01*
X116698587Y-59984426D01*
X116726227Y-59912420D01*
X116759187Y-59879459D01*
X116905871Y-59772888D01*
X117032533Y-59632216D01*
X117045962Y-59608955D01*
X117100499Y-59554418D01*
X117174999Y-59534455D01*
X117249499Y-59554417D01*
X117304037Y-59608954D01*
X117304038Y-59608956D01*
X117317468Y-59632218D01*
X117424627Y-59751229D01*
X117444129Y-59772888D01*
X117597270Y-59884151D01*
X117770197Y-59961144D01*
X117911315Y-59991139D01*
X117955352Y-60000500D01*
X117955354Y-60000500D01*
X118144648Y-60000500D01*
X118188644Y-59991148D01*
X118329803Y-59961144D01*
X118502730Y-59884151D01*
X118655871Y-59772888D01*
X118782533Y-59632216D01*
X118845962Y-59522352D01*
X118900499Y-59467815D01*
X118974999Y-59447852D01*
X119049499Y-59467814D01*
X119104035Y-59522349D01*
X119125777Y-59560006D01*
X119167468Y-59632218D01*
X119274627Y-59751229D01*
X119294129Y-59772888D01*
X119447270Y-59884151D01*
X119620197Y-59961144D01*
X119761315Y-59991139D01*
X119805352Y-60000500D01*
X119805354Y-60000500D01*
X119994648Y-60000500D01*
X120038644Y-59991148D01*
X120179803Y-59961144D01*
X120352730Y-59884151D01*
X120505871Y-59772888D01*
X120627095Y-59638256D01*
X120632530Y-59632220D01*
X120632531Y-59632218D01*
X120632533Y-59632216D01*
X120727179Y-59468284D01*
X120733294Y-59449463D01*
X120775299Y-59384782D01*
X120844020Y-59349766D01*
X120921043Y-59353802D01*
X120985728Y-59395809D01*
X121016705Y-59449462D01*
X121022821Y-59468284D01*
X121022822Y-59468285D01*
X121117469Y-59632220D01*
X121224627Y-59751229D01*
X121244129Y-59772888D01*
X121397270Y-59884151D01*
X121570197Y-59961144D01*
X121711315Y-59991139D01*
X121755352Y-60000500D01*
X121755354Y-60000500D01*
X121944648Y-60000500D01*
X121988644Y-59991148D01*
X122129803Y-59961144D01*
X122302730Y-59884151D01*
X122455871Y-59772888D01*
X122577095Y-59638256D01*
X122582530Y-59632220D01*
X122582531Y-59632218D01*
X122582533Y-59632216D01*
X122677179Y-59468284D01*
X122683294Y-59449463D01*
X122725299Y-59384782D01*
X122794020Y-59349766D01*
X122871043Y-59353802D01*
X122935728Y-59395809D01*
X122966705Y-59449462D01*
X122972821Y-59468284D01*
X122972822Y-59468285D01*
X123067469Y-59632220D01*
X123174627Y-59751229D01*
X123194129Y-59772888D01*
X123347270Y-59884151D01*
X123520197Y-59961144D01*
X123661315Y-59991139D01*
X123705352Y-60000500D01*
X123705354Y-60000500D01*
X123894648Y-60000500D01*
X123938644Y-59991148D01*
X124079803Y-59961144D01*
X124252730Y-59884151D01*
X124405871Y-59772888D01*
X124527095Y-59638256D01*
X124532530Y-59632220D01*
X124532531Y-59632218D01*
X124532533Y-59632216D01*
X124627179Y-59468284D01*
X124685674Y-59288256D01*
X124705460Y-59100000D01*
X124685674Y-58911744D01*
X124627179Y-58731716D01*
X124532533Y-58567784D01*
X124532532Y-58567783D01*
X124532530Y-58567779D01*
X124405872Y-58427113D01*
X124369242Y-58400500D01*
X124252730Y-58315849D01*
X124252729Y-58315848D01*
X124252727Y-58315847D01*
X124079805Y-58238857D01*
X124079803Y-58238856D01*
X123973360Y-58216231D01*
X123894648Y-58199500D01*
X123894646Y-58199500D01*
X123705354Y-58199500D01*
X123705352Y-58199500D01*
X123605392Y-58220747D01*
X123520197Y-58238856D01*
X123520195Y-58238856D01*
X123520194Y-58238857D01*
X123347272Y-58315847D01*
X123194127Y-58427113D01*
X123067469Y-58567779D01*
X122972822Y-58731714D01*
X122972819Y-58731721D01*
X122966707Y-58750533D01*
X122924700Y-58815218D01*
X122855978Y-58850233D01*
X122778956Y-58846196D01*
X122714271Y-58804189D01*
X122683293Y-58750533D01*
X122679868Y-58739992D01*
X122677179Y-58731716D01*
X122582533Y-58567784D01*
X122582532Y-58567783D01*
X122582530Y-58567779D01*
X122455872Y-58427113D01*
X122419242Y-58400500D01*
X122302730Y-58315849D01*
X122302729Y-58315848D01*
X122302727Y-58315847D01*
X122129805Y-58238857D01*
X122129803Y-58238856D01*
X122023360Y-58216231D01*
X121944648Y-58199500D01*
X121944646Y-58199500D01*
X121755354Y-58199500D01*
X121755352Y-58199500D01*
X121655392Y-58220747D01*
X121570197Y-58238856D01*
X121570195Y-58238856D01*
X121570194Y-58238857D01*
X121397272Y-58315847D01*
X121244127Y-58427113D01*
X121117469Y-58567779D01*
X121022822Y-58731714D01*
X121022819Y-58731721D01*
X121016707Y-58750533D01*
X120974700Y-58815218D01*
X120905978Y-58850233D01*
X120828956Y-58846196D01*
X120764271Y-58804189D01*
X120733293Y-58750533D01*
X120729868Y-58739992D01*
X120727179Y-58731716D01*
X120632533Y-58567784D01*
X120632532Y-58567783D01*
X120632530Y-58567779D01*
X120505872Y-58427113D01*
X120469242Y-58400500D01*
X120352730Y-58315849D01*
X120352729Y-58315848D01*
X120352727Y-58315847D01*
X120179805Y-58238857D01*
X120179803Y-58238856D01*
X120073360Y-58216231D01*
X119994648Y-58199500D01*
X119994646Y-58199500D01*
X119805354Y-58199500D01*
X119805352Y-58199500D01*
X119705392Y-58220747D01*
X119620197Y-58238856D01*
X119620195Y-58238856D01*
X119620194Y-58238857D01*
X119447272Y-58315847D01*
X119294127Y-58427113D01*
X119167469Y-58567780D01*
X119135737Y-58622740D01*
X119111026Y-58665544D01*
X119104038Y-58677647D01*
X119049500Y-58732185D01*
X118975000Y-58752147D01*
X118900500Y-58732185D01*
X118845962Y-58677647D01*
X118782533Y-58567784D01*
X118782531Y-58567781D01*
X118782530Y-58567780D01*
X118655872Y-58427113D01*
X118619242Y-58400500D01*
X118502730Y-58315849D01*
X118502729Y-58315848D01*
X118502727Y-58315847D01*
X118329805Y-58238857D01*
X118329803Y-58238856D01*
X118223360Y-58216231D01*
X118144648Y-58199500D01*
X118144646Y-58199500D01*
X117955354Y-58199500D01*
X117955352Y-58199500D01*
X117855392Y-58220747D01*
X117770197Y-58238856D01*
X117770195Y-58238856D01*
X117770194Y-58238857D01*
X117597272Y-58315847D01*
X117444127Y-58427113D01*
X117317468Y-58567781D01*
X117304037Y-58591045D01*
X117249499Y-58645582D01*
X117174999Y-58665544D01*
X117100499Y-58645581D01*
X117045963Y-58591045D01*
X117032531Y-58567781D01*
X116905872Y-58427113D01*
X116869242Y-58400500D01*
X116752730Y-58315849D01*
X116752729Y-58315848D01*
X116752727Y-58315847D01*
X116579805Y-58238857D01*
X116579803Y-58238856D01*
X116473360Y-58216231D01*
X116394648Y-58199500D01*
X116394646Y-58199500D01*
X116205354Y-58199500D01*
X116205352Y-58199500D01*
X116105392Y-58220747D01*
X116020197Y-58238856D01*
X116020195Y-58238856D01*
X116020194Y-58238857D01*
X115847272Y-58315847D01*
X115694127Y-58427113D01*
X115567469Y-58567779D01*
X115472822Y-58731714D01*
X115472819Y-58731721D01*
X115414325Y-58911745D01*
X115394540Y-59100000D01*
X115414325Y-59288254D01*
X115434312Y-59349766D01*
X115472821Y-59468284D01*
X115472822Y-59468285D01*
X115567469Y-59632220D01*
X115674627Y-59751229D01*
X115694129Y-59772888D01*
X115840808Y-59879456D01*
X115889346Y-59939396D01*
X115901412Y-60015575D01*
X115873772Y-60087580D01*
X115840808Y-60120544D01*
X115694127Y-60227113D01*
X115567469Y-60367779D01*
X115472822Y-60531714D01*
X115472819Y-60531721D01*
X115414325Y-60711745D01*
X115394540Y-60900000D01*
X115414325Y-61088254D01*
X115454139Y-61210787D01*
X115472821Y-61268284D01*
X115500500Y-61316226D01*
X115567469Y-61432220D01*
X115684988Y-61562736D01*
X115694129Y-61572888D01*
X115847270Y-61684151D01*
X115923920Y-61718278D01*
X115970196Y-61738882D01*
X116030135Y-61787421D01*
X116057775Y-61859426D01*
X116045709Y-61935605D01*
X115997170Y-61995544D01*
X115970196Y-62011118D01*
X115847271Y-62065848D01*
X115694127Y-62177113D01*
X115567469Y-62317779D01*
X115472822Y-62481714D01*
X115472819Y-62481721D01*
X115414325Y-62661745D01*
X115394540Y-62850000D01*
X115414325Y-63038254D01*
X115417744Y-63048775D01*
X115472821Y-63218284D01*
X115508512Y-63280102D01*
X115567469Y-63382220D01*
X115673520Y-63500000D01*
X115694129Y-63522888D01*
X115847270Y-63634151D01*
X115912737Y-63663299D01*
X115970196Y-63688882D01*
X116030135Y-63737421D01*
X116057775Y-63809426D01*
X116045709Y-63885605D01*
X115997170Y-63945544D01*
X115970196Y-63961118D01*
X115847271Y-64015848D01*
X115694127Y-64127113D01*
X115567469Y-64267779D01*
X115472822Y-64431714D01*
X115472819Y-64431721D01*
X115414325Y-64611745D01*
X115394540Y-64800000D01*
X115414325Y-64988254D01*
X115455104Y-65113758D01*
X115472821Y-65168284D01*
X115472822Y-65168285D01*
X115567469Y-65332220D01*
X115676678Y-65453507D01*
X115694129Y-65472888D01*
X115847270Y-65584151D01*
X115939058Y-65625018D01*
X115970196Y-65638882D01*
X116030135Y-65687421D01*
X116057775Y-65759426D01*
X116045709Y-65835605D01*
X115997170Y-65895544D01*
X115970196Y-65911118D01*
X115847271Y-65965848D01*
X115694127Y-66077113D01*
X115567469Y-66217779D01*
X115472822Y-66381714D01*
X115472819Y-66381721D01*
X115414325Y-66561745D01*
X115394540Y-66750000D01*
X114739186Y-66750000D01*
X114750047Y-66739139D01*
X114880568Y-66552734D01*
X114976739Y-66346496D01*
X115035635Y-66126692D01*
X115055468Y-65900000D01*
X115035635Y-65673308D01*
X114976739Y-65453504D01*
X114880568Y-65247266D01*
X114750047Y-65060861D01*
X114589139Y-64899953D01*
X114589137Y-64899951D01*
X114402741Y-64769437D01*
X114402738Y-64769435D01*
X114402734Y-64769432D01*
X114196496Y-64673261D01*
X113976692Y-64614365D01*
X113976693Y-64614365D01*
X113750000Y-64594532D01*
X113523306Y-64614365D01*
X113303507Y-64673260D01*
X113303506Y-64673260D01*
X113303504Y-64673261D01*
X113097266Y-64769432D01*
X113097263Y-64769434D01*
X113097261Y-64769435D01*
X113097258Y-64769437D01*
X112910862Y-64899951D01*
X112749951Y-65060862D01*
X112619437Y-65247258D01*
X112619435Y-65247261D01*
X112619434Y-65247263D01*
X112619432Y-65247266D01*
X112523261Y-65453504D01*
X112523260Y-65453507D01*
X112464365Y-65673306D01*
X112444532Y-65900000D01*
X111050499Y-65900000D01*
X111050499Y-65052128D01*
X111044091Y-64992517D01*
X111009567Y-64899953D01*
X110993797Y-64857670D01*
X110993795Y-64857666D01*
X110907547Y-64742455D01*
X110907544Y-64742452D01*
X110792333Y-64656204D01*
X110792329Y-64656202D01*
X110657482Y-64605908D01*
X110597876Y-64599500D01*
X108902136Y-64599500D01*
X108902111Y-64599502D01*
X108842521Y-64605908D01*
X108842515Y-64605909D01*
X108707670Y-64656202D01*
X108707666Y-64656204D01*
X108592455Y-64742452D01*
X108592452Y-64742455D01*
X108506204Y-64857666D01*
X108506202Y-64857670D01*
X108455908Y-64992517D01*
X108449500Y-65052114D01*
X108449500Y-66747863D01*
X102902730Y-66747863D01*
X102871590Y-66702749D01*
X102845699Y-66630098D01*
X102859602Y-66554233D01*
X102871584Y-66533478D01*
X102952518Y-66416226D01*
X103010688Y-66262845D01*
X103030461Y-66100000D01*
X103010688Y-65937155D01*
X102952518Y-65783774D01*
X102875919Y-65672801D01*
X102859335Y-65648775D01*
X102859334Y-65648774D01*
X102859332Y-65648771D01*
X102736546Y-65539992D01*
X102591295Y-65463758D01*
X102432021Y-65424500D01*
X102267979Y-65424500D01*
X102188342Y-65444129D01*
X102108704Y-65463758D01*
X101963451Y-65539993D01*
X101963449Y-65539995D01*
X101840672Y-65648766D01*
X101840668Y-65648770D01*
X101824081Y-65672801D01*
X101765330Y-65722772D01*
X101689465Y-65736673D01*
X101665804Y-65732826D01*
X101632021Y-65724500D01*
X101467979Y-65724500D01*
X101434200Y-65732826D01*
X101308704Y-65763758D01*
X101239652Y-65800000D01*
X101163454Y-65839992D01*
X101040668Y-65948771D01*
X101040667Y-65948772D01*
X101040664Y-65948775D01*
X100947483Y-66083772D01*
X100947480Y-66083778D01*
X100889312Y-66237152D01*
X100869539Y-66400000D01*
X97627634Y-66400000D01*
X97602518Y-66333774D01*
X97512459Y-66203301D01*
X97509335Y-66198775D01*
X97509334Y-66198774D01*
X97509332Y-66198771D01*
X97386546Y-66089992D01*
X97241295Y-66013758D01*
X97082021Y-65974500D01*
X96917979Y-65974500D01*
X96841977Y-65993233D01*
X96758704Y-66013758D01*
X96708200Y-66040265D01*
X96613454Y-66089992D01*
X96490668Y-66198771D01*
X96490667Y-66198772D01*
X96490664Y-66198775D01*
X96397483Y-66333772D01*
X96397480Y-66333778D01*
X96339312Y-66487152D01*
X96319539Y-66650000D01*
X88312248Y-66650000D01*
X88327341Y-66525691D01*
X88356137Y-66454144D01*
X88416851Y-66406577D01*
X88439579Y-66398988D01*
X88491295Y-66386242D01*
X88636546Y-66310008D01*
X88759332Y-66201229D01*
X88852518Y-66066226D01*
X88896597Y-65950000D01*
X91619539Y-65950000D01*
X91639312Y-66112847D01*
X91697480Y-66266221D01*
X91697482Y-66266226D01*
X91697483Y-66266227D01*
X91790664Y-66401224D01*
X91790665Y-66401225D01*
X91790668Y-66401229D01*
X91913454Y-66510008D01*
X92058705Y-66586242D01*
X92217979Y-66625500D01*
X92217980Y-66625500D01*
X92382020Y-66625500D01*
X92382021Y-66625500D01*
X92541295Y-66586242D01*
X92686546Y-66510008D01*
X92809332Y-66401229D01*
X92902518Y-66266226D01*
X92960688Y-66112845D01*
X92980461Y-65950000D01*
X92960688Y-65787155D01*
X92902518Y-65633774D01*
X92809332Y-65498771D01*
X92686546Y-65389992D01*
X92541295Y-65313758D01*
X92382021Y-65274500D01*
X92217979Y-65274500D01*
X92138342Y-65294129D01*
X92058704Y-65313758D01*
X91982470Y-65353769D01*
X91913454Y-65389992D01*
X91790668Y-65498771D01*
X91790667Y-65498772D01*
X91790664Y-65498775D01*
X91697483Y-65633772D01*
X91697480Y-65633778D01*
X91639312Y-65787152D01*
X91619539Y-65950000D01*
X88896597Y-65950000D01*
X88910688Y-65912845D01*
X88930461Y-65750000D01*
X88910688Y-65587155D01*
X88852518Y-65433774D01*
X88759332Y-65298771D01*
X88636546Y-65189992D01*
X88491295Y-65113758D01*
X88332021Y-65074500D01*
X88167979Y-65074500D01*
X88088342Y-65094129D01*
X88008704Y-65113758D01*
X87983261Y-65127112D01*
X87863454Y-65189992D01*
X87740668Y-65298771D01*
X87740667Y-65298772D01*
X87740664Y-65298775D01*
X87647483Y-65433772D01*
X87647480Y-65433778D01*
X87603837Y-65548856D01*
X87589312Y-65587155D01*
X87573862Y-65714396D01*
X87572659Y-65724306D01*
X87543862Y-65795856D01*
X87483147Y-65843422D01*
X87460405Y-65851015D01*
X87408704Y-65863758D01*
X87360885Y-65888856D01*
X87263454Y-65939992D01*
X87140668Y-66048771D01*
X87140667Y-66048772D01*
X87140664Y-66048775D01*
X87047483Y-66183772D01*
X87047480Y-66183778D01*
X86989312Y-66337152D01*
X86969539Y-66500000D01*
X86989312Y-66662847D01*
X87047480Y-66816221D01*
X87047482Y-66816226D01*
X87071643Y-66851229D01*
X87140664Y-66951224D01*
X87140665Y-66951225D01*
X87140668Y-66951229D01*
X87263454Y-67060008D01*
X87408705Y-67136242D01*
X87486148Y-67155330D01*
X87553705Y-67192541D01*
X87593606Y-67258546D01*
X87595159Y-67335659D01*
X87557948Y-67403216D01*
X87491943Y-67443117D01*
X87486158Y-67444667D01*
X87449546Y-67453691D01*
X87408704Y-67463758D01*
X87364126Y-67487155D01*
X87263454Y-67539992D01*
X87140668Y-67648771D01*
X87140667Y-67648772D01*
X87140664Y-67648775D01*
X87047483Y-67783772D01*
X87047480Y-67783778D01*
X86989312Y-67937152D01*
X86969539Y-68100000D01*
X85124390Y-68100000D01*
X85110688Y-67987155D01*
X85052518Y-67833774D01*
X84959332Y-67698771D01*
X84836546Y-67589992D01*
X84691295Y-67513758D01*
X84532021Y-67474500D01*
X84367979Y-67474500D01*
X84288342Y-67494129D01*
X84208704Y-67513758D01*
X84141992Y-67548772D01*
X84063454Y-67589992D01*
X83940668Y-67698771D01*
X83940667Y-67698772D01*
X83940664Y-67698775D01*
X83847483Y-67833772D01*
X83847482Y-67833774D01*
X83820203Y-67905702D01*
X83788990Y-67949026D01*
X83789161Y-67949437D01*
X83789350Y-67986846D01*
X83789313Y-67987152D01*
X83789312Y-67987155D01*
X83775461Y-68101229D01*
X83769539Y-68149999D01*
X83392999Y-68149999D01*
X83430466Y-68088859D01*
X83503778Y-67911866D01*
X83533973Y-67872514D01*
X83536003Y-67818080D01*
X83537260Y-67812847D01*
X83585683Y-67611148D01*
X83605449Y-67360000D01*
X83585683Y-67108852D01*
X83549949Y-66960008D01*
X83526876Y-66863900D01*
X83526872Y-66863886D01*
X83430467Y-66631143D01*
X83387939Y-66561744D01*
X83350102Y-66500000D01*
X83769539Y-66500000D01*
X83789312Y-66662847D01*
X83847480Y-66816221D01*
X83847482Y-66816226D01*
X83871643Y-66851229D01*
X83940664Y-66951224D01*
X83940665Y-66951225D01*
X83940668Y-66951229D01*
X84063454Y-67060008D01*
X84208705Y-67136242D01*
X84367979Y-67175500D01*
X84367980Y-67175500D01*
X84532020Y-67175500D01*
X84532021Y-67175500D01*
X84691295Y-67136242D01*
X84836546Y-67060008D01*
X84959332Y-66951229D01*
X85052518Y-66816226D01*
X85110688Y-66662845D01*
X85130461Y-66500000D01*
X85110688Y-66337155D01*
X85108816Y-66332220D01*
X85083786Y-66266221D01*
X85052518Y-66183774D01*
X84983493Y-66083774D01*
X84959335Y-66048775D01*
X84959334Y-66048774D01*
X84959332Y-66048771D01*
X84836546Y-65939992D01*
X84691295Y-65863758D01*
X84532021Y-65824500D01*
X84367979Y-65824500D01*
X84322925Y-65835605D01*
X84208704Y-65863758D01*
X84160885Y-65888856D01*
X84063454Y-65939992D01*
X83940668Y-66048771D01*
X83940667Y-66048772D01*
X83940664Y-66048775D01*
X83847483Y-66183772D01*
X83847480Y-66183778D01*
X83789312Y-66337152D01*
X83769539Y-66500000D01*
X83350102Y-66500000D01*
X83298836Y-66416341D01*
X83135224Y-66224776D01*
X83135220Y-66224773D01*
X83135218Y-66224770D01*
X83110080Y-66203301D01*
X83066394Y-66139738D01*
X83060342Y-66062848D01*
X83093546Y-65993233D01*
X83110080Y-65976699D01*
X83135218Y-65955229D01*
X83135219Y-65955228D01*
X83135224Y-65955224D01*
X83298836Y-65763659D01*
X83430466Y-65548859D01*
X83526873Y-65316111D01*
X83585683Y-65071148D01*
X83605449Y-64820000D01*
X83585683Y-64568852D01*
X83536226Y-64362847D01*
X83526876Y-64323900D01*
X83526872Y-64323886D01*
X83430467Y-64091143D01*
X83430466Y-64091141D01*
X83298836Y-63876341D01*
X83135224Y-63684776D01*
X83135220Y-63684773D01*
X83135218Y-63684770D01*
X83110080Y-63663301D01*
X83066394Y-63599738D01*
X83060342Y-63522848D01*
X83093546Y-63453233D01*
X83110080Y-63436699D01*
X83135218Y-63415229D01*
X83135219Y-63415228D01*
X83135224Y-63415224D01*
X83233635Y-63300000D01*
X86769539Y-63300000D01*
X86789312Y-63462847D01*
X86827583Y-63563758D01*
X86847482Y-63616226D01*
X86871643Y-63651229D01*
X86940664Y-63751224D01*
X86940665Y-63751225D01*
X86940668Y-63751229D01*
X87063454Y-63860008D01*
X87208705Y-63936242D01*
X87367979Y-63975500D01*
X87367980Y-63975500D01*
X87532020Y-63975500D01*
X87532021Y-63975500D01*
X87691295Y-63936242D01*
X87786579Y-63886232D01*
X87861820Y-63869286D01*
X87935456Y-63892231D01*
X87978447Y-63933524D01*
X87990664Y-63951224D01*
X87990665Y-63951225D01*
X87990668Y-63951229D01*
X88113454Y-64060008D01*
X88258705Y-64136242D01*
X88417979Y-64175500D01*
X88417980Y-64175500D01*
X88582020Y-64175500D01*
X88582021Y-64175500D01*
X88741295Y-64136242D01*
X88886546Y-64060008D01*
X89009332Y-63951229D01*
X89102518Y-63816226D01*
X89160688Y-63662845D01*
X89180461Y-63500000D01*
X89160688Y-63337155D01*
X89108672Y-63200000D01*
X98219539Y-63200000D01*
X98239312Y-63362847D01*
X98297480Y-63516221D01*
X98297482Y-63516226D01*
X98320795Y-63550000D01*
X98390664Y-63651224D01*
X98390665Y-63651225D01*
X98390668Y-63651229D01*
X98513454Y-63760008D01*
X98658705Y-63836242D01*
X98817979Y-63875500D01*
X98817980Y-63875500D01*
X98982020Y-63875500D01*
X98982021Y-63875500D01*
X99085477Y-63850000D01*
X103169539Y-63850000D01*
X103189312Y-64012847D01*
X103247480Y-64166221D01*
X103247482Y-64166226D01*
X103270795Y-64200000D01*
X103340664Y-64301224D01*
X103340665Y-64301225D01*
X103340668Y-64301229D01*
X103463454Y-64410008D01*
X103608705Y-64486242D01*
X103767979Y-64525500D01*
X103767980Y-64525500D01*
X103932020Y-64525500D01*
X103932021Y-64525500D01*
X104091295Y-64486242D01*
X104236546Y-64410008D01*
X104359332Y-64301229D01*
X104429205Y-64200000D01*
X106319539Y-64200000D01*
X106339312Y-64362847D01*
X106397480Y-64516221D01*
X106397482Y-64516226D01*
X106431103Y-64564934D01*
X106490664Y-64651224D01*
X106490665Y-64651225D01*
X106490668Y-64651229D01*
X106613454Y-64760008D01*
X106758705Y-64836242D01*
X106917979Y-64875500D01*
X106917980Y-64875500D01*
X107082020Y-64875500D01*
X107082021Y-64875500D01*
X107241295Y-64836242D01*
X107386546Y-64760008D01*
X107509332Y-64651229D01*
X107602518Y-64516226D01*
X107660688Y-64362845D01*
X107680461Y-64200000D01*
X107660688Y-64037155D01*
X107660685Y-64037147D01*
X107660609Y-64036837D01*
X107660614Y-64036556D01*
X107659601Y-64028208D01*
X107660785Y-64028064D01*
X107662163Y-63959725D01*
X107702065Y-63893720D01*
X107769623Y-63856509D01*
X107840934Y-63856509D01*
X107917979Y-63875500D01*
X107917981Y-63875500D01*
X108082020Y-63875500D01*
X108082021Y-63875500D01*
X108241295Y-63836242D01*
X108386546Y-63760008D01*
X108509332Y-63651229D01*
X108602518Y-63516226D01*
X108660688Y-63362845D01*
X108680461Y-63200000D01*
X108660688Y-63037155D01*
X108602518Y-62883774D01*
X108528205Y-62776113D01*
X108509335Y-62748775D01*
X108509334Y-62748774D01*
X108509332Y-62748771D01*
X108386546Y-62639992D01*
X108241295Y-62563758D01*
X108082021Y-62524500D01*
X107917979Y-62524500D01*
X107884013Y-62532872D01*
X107758704Y-62563758D01*
X107682470Y-62603769D01*
X107613454Y-62639992D01*
X107490668Y-62748771D01*
X107490667Y-62748772D01*
X107490664Y-62748775D01*
X107397483Y-62883772D01*
X107397480Y-62883778D01*
X107339312Y-63037152D01*
X107327170Y-63137152D01*
X107319539Y-63200000D01*
X107339312Y-63362845D01*
X107339312Y-63362847D01*
X107339314Y-63362856D01*
X107339392Y-63363173D01*
X107339386Y-63363452D01*
X107340399Y-63371792D01*
X107339214Y-63371935D01*
X107337833Y-63440286D01*
X107297926Y-63506287D01*
X107230365Y-63543492D01*
X107159061Y-63543489D01*
X107082021Y-63524500D01*
X106917979Y-63524500D01*
X106840939Y-63543489D01*
X106758704Y-63563758D01*
X106733179Y-63577155D01*
X106613454Y-63639992D01*
X106490668Y-63748771D01*
X106490667Y-63748772D01*
X106490664Y-63748775D01*
X106397483Y-63883772D01*
X106397480Y-63883778D01*
X106339312Y-64037152D01*
X106319539Y-64200000D01*
X104429205Y-64200000D01*
X104452518Y-64166226D01*
X104510688Y-64012845D01*
X104530461Y-63850000D01*
X104510688Y-63687155D01*
X104509783Y-63684770D01*
X104492801Y-63639992D01*
X104452518Y-63533774D01*
X104370692Y-63415229D01*
X104359335Y-63398775D01*
X104359334Y-63398774D01*
X104359332Y-63398771D01*
X104236546Y-63289992D01*
X104091295Y-63213758D01*
X103932021Y-63174500D01*
X103767979Y-63174500D01*
X103688342Y-63194129D01*
X103608704Y-63213758D01*
X103540424Y-63249595D01*
X103463454Y-63289992D01*
X103340668Y-63398771D01*
X103340667Y-63398772D01*
X103340664Y-63398775D01*
X103247483Y-63533772D01*
X103247480Y-63533778D01*
X103189312Y-63687152D01*
X103169539Y-63850000D01*
X99085477Y-63850000D01*
X99141295Y-63836242D01*
X99286546Y-63760008D01*
X99409332Y-63651229D01*
X99502518Y-63516226D01*
X99560688Y-63362845D01*
X99580461Y-63200000D01*
X99560688Y-63037155D01*
X99502518Y-62883774D01*
X99428205Y-62776113D01*
X99409335Y-62748775D01*
X99409334Y-62748774D01*
X99409332Y-62748771D01*
X99286546Y-62639992D01*
X99141295Y-62563758D01*
X98982021Y-62524500D01*
X98817979Y-62524500D01*
X98784013Y-62532872D01*
X98658704Y-62563758D01*
X98582470Y-62603769D01*
X98513454Y-62639992D01*
X98390668Y-62748771D01*
X98390667Y-62748772D01*
X98390664Y-62748775D01*
X98297483Y-62883772D01*
X98297480Y-62883778D01*
X98239312Y-63037152D01*
X98219539Y-63200000D01*
X89108672Y-63200000D01*
X89102518Y-63183774D01*
X89009332Y-63048771D01*
X88886546Y-62939992D01*
X88741295Y-62863758D01*
X88582021Y-62824500D01*
X88417979Y-62824500D01*
X88380353Y-62833774D01*
X88258706Y-62863757D01*
X88163420Y-62913767D01*
X88088176Y-62930712D01*
X88014541Y-62907766D01*
X87971553Y-62866475D01*
X87959336Y-62848776D01*
X87959334Y-62848774D01*
X87959332Y-62848771D01*
X87836546Y-62739992D01*
X87691295Y-62663758D01*
X87532021Y-62624500D01*
X87367979Y-62624500D01*
X87305126Y-62639992D01*
X87208704Y-62663758D01*
X87141994Y-62698771D01*
X87063454Y-62739992D01*
X86940668Y-62848771D01*
X86940667Y-62848772D01*
X86940664Y-62848775D01*
X86847483Y-62983772D01*
X86847480Y-62983778D01*
X86789312Y-63137152D01*
X86769539Y-63300000D01*
X83233635Y-63300000D01*
X83298836Y-63223659D01*
X83430466Y-63008859D01*
X83526873Y-62776111D01*
X83585683Y-62531148D01*
X83605449Y-62280000D01*
X83585683Y-62028852D01*
X83548747Y-61875000D01*
X95269539Y-61875000D01*
X95289312Y-62037847D01*
X95346150Y-62187713D01*
X95347482Y-62191226D01*
X95362405Y-62212845D01*
X95440664Y-62326224D01*
X95440665Y-62326225D01*
X95440668Y-62326229D01*
X95563454Y-62435008D01*
X95708705Y-62511242D01*
X95867979Y-62550500D01*
X95867980Y-62550500D01*
X96032020Y-62550500D01*
X96032021Y-62550500D01*
X96191295Y-62511242D01*
X96336546Y-62435008D01*
X96459332Y-62326229D01*
X96552518Y-62191226D01*
X96585683Y-62103776D01*
X96630766Y-62041197D01*
X96701099Y-62009543D01*
X96777836Y-62017296D01*
X96840416Y-62062379D01*
X96864316Y-62103776D01*
X96897482Y-62191226D01*
X96912405Y-62212845D01*
X96990664Y-62326224D01*
X96990665Y-62326225D01*
X96990668Y-62326229D01*
X97113454Y-62435008D01*
X97258705Y-62511242D01*
X97417979Y-62550500D01*
X97417980Y-62550500D01*
X97582020Y-62550500D01*
X97582021Y-62550500D01*
X97741295Y-62511242D01*
X97886546Y-62435008D01*
X98009332Y-62326229D01*
X98102518Y-62191226D01*
X98156078Y-62050000D01*
X100119539Y-62050000D01*
X100139312Y-62212847D01*
X100179108Y-62317779D01*
X100197482Y-62366226D01*
X100197483Y-62366227D01*
X100290664Y-62501224D01*
X100290665Y-62501225D01*
X100290668Y-62501229D01*
X100413454Y-62610008D01*
X100558705Y-62686242D01*
X100717979Y-62725500D01*
X100717980Y-62725500D01*
X100882020Y-62725500D01*
X100882021Y-62725500D01*
X101041295Y-62686242D01*
X101186546Y-62610008D01*
X101309332Y-62501229D01*
X101402518Y-62366226D01*
X101460688Y-62212845D01*
X101480461Y-62050000D01*
X101460688Y-61887155D01*
X101458816Y-61882220D01*
X101433761Y-61816154D01*
X101402518Y-61733774D01*
X101309332Y-61598771D01*
X101186546Y-61489992D01*
X101041295Y-61413758D01*
X100882021Y-61374500D01*
X100717979Y-61374500D01*
X100663837Y-61387845D01*
X100558704Y-61413758D01*
X100512588Y-61437962D01*
X100413454Y-61489992D01*
X100290668Y-61598771D01*
X100290667Y-61598772D01*
X100290664Y-61598775D01*
X100197483Y-61733772D01*
X100197480Y-61733778D01*
X100139312Y-61887152D01*
X100119539Y-62050000D01*
X98156078Y-62050000D01*
X98160688Y-62037845D01*
X98180461Y-61875000D01*
X98160688Y-61712155D01*
X98102518Y-61558774D01*
X98028285Y-61451229D01*
X98009335Y-61423775D01*
X98009333Y-61423773D01*
X98009332Y-61423771D01*
X97886546Y-61314992D01*
X97741295Y-61238758D01*
X97654751Y-61217426D01*
X97587195Y-61180216D01*
X97547294Y-61114211D01*
X97545741Y-61037098D01*
X97552405Y-61025000D01*
X101569539Y-61025000D01*
X101589312Y-61187847D01*
X101638001Y-61316227D01*
X101647482Y-61341226D01*
X101679661Y-61387845D01*
X101740664Y-61476224D01*
X101740665Y-61476225D01*
X101740668Y-61476229D01*
X101863454Y-61585008D01*
X102008705Y-61661242D01*
X102167979Y-61700500D01*
X102167980Y-61700500D01*
X102332020Y-61700500D01*
X102332021Y-61700500D01*
X102491295Y-61661242D01*
X102636546Y-61585008D01*
X102759332Y-61476229D01*
X102852518Y-61341226D01*
X102885683Y-61253776D01*
X102930766Y-61191197D01*
X103001099Y-61159543D01*
X103077836Y-61167296D01*
X103140416Y-61212379D01*
X103164316Y-61253776D01*
X103197482Y-61341226D01*
X103203538Y-61350000D01*
X103290665Y-61476226D01*
X103290666Y-61476227D01*
X103290668Y-61476229D01*
X103307252Y-61490921D01*
X103327821Y-61509144D01*
X103370347Y-61573489D01*
X103375004Y-61650476D01*
X103351640Y-61705312D01*
X103297483Y-61783772D01*
X103297480Y-61783778D01*
X103239312Y-61937152D01*
X103219539Y-62100000D01*
X103239312Y-62262847D01*
X103290334Y-62397378D01*
X103297482Y-62416226D01*
X103297483Y-62416227D01*
X103390664Y-62551224D01*
X103390665Y-62551225D01*
X103390668Y-62551229D01*
X103513454Y-62660008D01*
X103658705Y-62736242D01*
X103817979Y-62775500D01*
X103817980Y-62775500D01*
X103982020Y-62775500D01*
X103982021Y-62775500D01*
X104141295Y-62736242D01*
X104286546Y-62660008D01*
X104409332Y-62551229D01*
X104502518Y-62416226D01*
X104560688Y-62262845D01*
X104580461Y-62100000D01*
X104560688Y-61937155D01*
X104502518Y-61783774D01*
X104409332Y-61648771D01*
X104372176Y-61615853D01*
X104329652Y-61551510D01*
X104324996Y-61474523D01*
X104348358Y-61419689D01*
X104402518Y-61341226D01*
X104446597Y-61225000D01*
X107419539Y-61225000D01*
X107439312Y-61387847D01*
X107494057Y-61532195D01*
X107497482Y-61541226D01*
X107497483Y-61541227D01*
X107590664Y-61676224D01*
X107590665Y-61676225D01*
X107590668Y-61676229D01*
X107713454Y-61785008D01*
X107858705Y-61861242D01*
X108017979Y-61900500D01*
X108017980Y-61900500D01*
X108182020Y-61900500D01*
X108182021Y-61900500D01*
X108341295Y-61861242D01*
X108486546Y-61785008D01*
X108609332Y-61676229D01*
X108702518Y-61541226D01*
X108705942Y-61532196D01*
X108751021Y-61469619D01*
X108821354Y-61437962D01*
X108898091Y-61445713D01*
X108960672Y-61490794D01*
X108984575Y-61532193D01*
X108997482Y-61566226D01*
X109021643Y-61601229D01*
X109090664Y-61701224D01*
X109090665Y-61701225D01*
X109090668Y-61701229D01*
X109213454Y-61810008D01*
X109358705Y-61886242D01*
X109517979Y-61925500D01*
X109517980Y-61925500D01*
X109682020Y-61925500D01*
X109682021Y-61925500D01*
X109841295Y-61886242D01*
X109986546Y-61810008D01*
X110109332Y-61701229D01*
X110202518Y-61566226D01*
X110260688Y-61412845D01*
X110280461Y-61250000D01*
X110260688Y-61087155D01*
X110202518Y-60933774D01*
X110133493Y-60833774D01*
X110109335Y-60798775D01*
X110109334Y-60798774D01*
X110109332Y-60798771D01*
X109986546Y-60689992D01*
X109841295Y-60613758D01*
X109682021Y-60574500D01*
X109517979Y-60574500D01*
X109466121Y-60587282D01*
X109358704Y-60613758D01*
X109333261Y-60627112D01*
X109213454Y-60689992D01*
X109090668Y-60798771D01*
X109090667Y-60798772D01*
X109090664Y-60798775D01*
X108997483Y-60933772D01*
X108997479Y-60933779D01*
X108994055Y-60942809D01*
X108948970Y-61005387D01*
X108878635Y-61037038D01*
X108801898Y-61029282D01*
X108739320Y-60984197D01*
X108715425Y-60942807D01*
X108702518Y-60908774D01*
X108609332Y-60773771D01*
X108486546Y-60664992D01*
X108341295Y-60588758D01*
X108182021Y-60549500D01*
X108017979Y-60549500D01*
X107951649Y-60565849D01*
X107858704Y-60588758D01*
X107785628Y-60627112D01*
X107713454Y-60664992D01*
X107590668Y-60773771D01*
X107590667Y-60773772D01*
X107590664Y-60773775D01*
X107497483Y-60908772D01*
X107497480Y-60908778D01*
X107439312Y-61062152D01*
X107419539Y-61225000D01*
X104446597Y-61225000D01*
X104460688Y-61187845D01*
X104480461Y-61025000D01*
X104460688Y-60862155D01*
X104402518Y-60708774D01*
X104309332Y-60573771D01*
X104186546Y-60464992D01*
X104041295Y-60388758D01*
X103882021Y-60349500D01*
X103717979Y-60349500D01*
X103660133Y-60363758D01*
X103558704Y-60388758D01*
X103482470Y-60428769D01*
X103413454Y-60464992D01*
X103290668Y-60573771D01*
X103290667Y-60573772D01*
X103290664Y-60573775D01*
X103197483Y-60708772D01*
X103197481Y-60708776D01*
X103164317Y-60796223D01*
X103119234Y-60858802D01*
X103048901Y-60890457D01*
X102972163Y-60882703D01*
X102909584Y-60837620D01*
X102885683Y-60796223D01*
X102852518Y-60708774D01*
X102759332Y-60573771D01*
X102636546Y-60464992D01*
X102491295Y-60388758D01*
X102332021Y-60349500D01*
X102167979Y-60349500D01*
X102110133Y-60363758D01*
X102008704Y-60388758D01*
X101932470Y-60428769D01*
X101863454Y-60464992D01*
X101740668Y-60573771D01*
X101740667Y-60573772D01*
X101740664Y-60573775D01*
X101647483Y-60708772D01*
X101647480Y-60708778D01*
X101589312Y-60862152D01*
X101569539Y-61025000D01*
X97552405Y-61025000D01*
X97582952Y-60969541D01*
X97591592Y-60961241D01*
X97659332Y-60901229D01*
X97752518Y-60766226D01*
X97810688Y-60612845D01*
X97830461Y-60450000D01*
X97810688Y-60287155D01*
X97769008Y-60177256D01*
X97761255Y-60100521D01*
X97792909Y-60030188D01*
X97855489Y-59985105D01*
X97908966Y-59978623D01*
X97908966Y-59975500D01*
X98082020Y-59975500D01*
X98082021Y-59975500D01*
X98241295Y-59936242D01*
X98386546Y-59860008D01*
X98509332Y-59751229D01*
X98602518Y-59616226D01*
X98660688Y-59462845D01*
X98680461Y-59300000D01*
X98660688Y-59137155D01*
X98608672Y-59000000D01*
X99519539Y-59000000D01*
X99539312Y-59162847D01*
X99586874Y-59288256D01*
X99597482Y-59316226D01*
X99611298Y-59336242D01*
X99690664Y-59451224D01*
X99690665Y-59451225D01*
X99690668Y-59451229D01*
X99813454Y-59560008D01*
X99958705Y-59636242D01*
X100117979Y-59675500D01*
X100117980Y-59675500D01*
X100282020Y-59675500D01*
X100282021Y-59675500D01*
X100441295Y-59636242D01*
X100586546Y-59560008D01*
X100709332Y-59451229D01*
X100802518Y-59316226D01*
X100860688Y-59162845D01*
X100880461Y-59000000D01*
X100860688Y-58837155D01*
X100802518Y-58683774D01*
X100721755Y-58566769D01*
X100709335Y-58548775D01*
X100709334Y-58548774D01*
X100709332Y-58548771D01*
X100586546Y-58439992D01*
X100441295Y-58363758D01*
X100282021Y-58324500D01*
X100117979Y-58324500D01*
X100038342Y-58344129D01*
X99958704Y-58363758D01*
X99920560Y-58383778D01*
X99813454Y-58439992D01*
X99690668Y-58548771D01*
X99690667Y-58548772D01*
X99690664Y-58548775D01*
X99597483Y-58683772D01*
X99597480Y-58683778D01*
X99539312Y-58837152D01*
X99519539Y-59000000D01*
X98608672Y-59000000D01*
X98602518Y-58983774D01*
X98519043Y-58862840D01*
X98509335Y-58848775D01*
X98509334Y-58848774D01*
X98509332Y-58848771D01*
X98386546Y-58739992D01*
X98241295Y-58663758D01*
X98082021Y-58624500D01*
X97917979Y-58624500D01*
X97838342Y-58644129D01*
X97758704Y-58663758D01*
X97689652Y-58700000D01*
X97613454Y-58739992D01*
X97613453Y-58739993D01*
X97490663Y-58848775D01*
X97407824Y-58968790D01*
X97349075Y-59018762D01*
X97273210Y-59032665D01*
X97249544Y-59028819D01*
X97244865Y-59027665D01*
X97232021Y-59024500D01*
X97067979Y-59024500D01*
X97034853Y-59032665D01*
X96908704Y-59063758D01*
X96839652Y-59100000D01*
X96763454Y-59139992D01*
X96640668Y-59248771D01*
X96640667Y-59248772D01*
X96640664Y-59248775D01*
X96547483Y-59383772D01*
X96547480Y-59383778D01*
X96489312Y-59537152D01*
X96469539Y-59700000D01*
X96489312Y-59862847D01*
X96549734Y-60022164D01*
X96557488Y-60098901D01*
X96549734Y-60127836D01*
X96489312Y-60287152D01*
X96469539Y-60450000D01*
X96489312Y-60612847D01*
X96526820Y-60711745D01*
X96547482Y-60766226D01*
X96569946Y-60798771D01*
X96640664Y-60901224D01*
X96640665Y-60901225D01*
X96640668Y-60901229D01*
X96763454Y-61010008D01*
X96908705Y-61086242D01*
X96995248Y-61107573D01*
X97062804Y-61144782D01*
X97102705Y-61210787D01*
X97104258Y-61287900D01*
X97067048Y-61355458D01*
X97058395Y-61363768D01*
X96990668Y-61423770D01*
X96990665Y-61423773D01*
X96897483Y-61558772D01*
X96897481Y-61558776D01*
X96864317Y-61646223D01*
X96819234Y-61708802D01*
X96748901Y-61740457D01*
X96672163Y-61732703D01*
X96609584Y-61687620D01*
X96585683Y-61646223D01*
X96567688Y-61598775D01*
X96552518Y-61558774D01*
X96478285Y-61451229D01*
X96459335Y-61423775D01*
X96459333Y-61423773D01*
X96459332Y-61423771D01*
X96336546Y-61314992D01*
X96191295Y-61238758D01*
X96032021Y-61199500D01*
X95867979Y-61199500D01*
X95795247Y-61217427D01*
X95708704Y-61238758D01*
X95652448Y-61268284D01*
X95563454Y-61314992D01*
X95440668Y-61423771D01*
X95440667Y-61423772D01*
X95440664Y-61423775D01*
X95347483Y-61558772D01*
X95347480Y-61558778D01*
X95289312Y-61712152D01*
X95269539Y-61875000D01*
X83548747Y-61875000D01*
X83545444Y-61861242D01*
X83526876Y-61783900D01*
X83526872Y-61783886D01*
X83430467Y-61551143D01*
X83430466Y-61551141D01*
X83298836Y-61336341D01*
X83139686Y-61150000D01*
X86769539Y-61150000D01*
X86789312Y-61312847D01*
X86834585Y-61432220D01*
X86847482Y-61466226D01*
X86847483Y-61466227D01*
X86940664Y-61601224D01*
X86940665Y-61601225D01*
X86940668Y-61601229D01*
X87063454Y-61710008D01*
X87208705Y-61786242D01*
X87367979Y-61825500D01*
X87367980Y-61825500D01*
X87532020Y-61825500D01*
X87532021Y-61825500D01*
X87691295Y-61786242D01*
X87836546Y-61710008D01*
X87959332Y-61601229D01*
X87959331Y-61601229D01*
X87966079Y-61595252D01*
X87967861Y-61597264D01*
X88020076Y-61562736D01*
X88097062Y-61558060D01*
X88136534Y-61572121D01*
X88258705Y-61636242D01*
X88417979Y-61675500D01*
X88417980Y-61675500D01*
X88582020Y-61675500D01*
X88582021Y-61675500D01*
X88741295Y-61636242D01*
X88886546Y-61560008D01*
X89009332Y-61451229D01*
X89102518Y-61316226D01*
X89160688Y-61162845D01*
X89180461Y-61000000D01*
X89160688Y-60837155D01*
X89102518Y-60683774D01*
X89029421Y-60577875D01*
X89009335Y-60548775D01*
X89009334Y-60548774D01*
X89009332Y-60548771D01*
X88886546Y-60439992D01*
X88741295Y-60363758D01*
X88582021Y-60324500D01*
X88417979Y-60324500D01*
X88338342Y-60344129D01*
X88258704Y-60363758D01*
X88113451Y-60439993D01*
X88113449Y-60439995D01*
X87983922Y-60554747D01*
X87982144Y-60552740D01*
X87929865Y-60587282D01*
X87852877Y-60591927D01*
X87813461Y-60577876D01*
X87749335Y-60544219D01*
X87691296Y-60513758D01*
X87590265Y-60488856D01*
X87532021Y-60474500D01*
X87367979Y-60474500D01*
X87309735Y-60488856D01*
X87208704Y-60513758D01*
X87141994Y-60548771D01*
X87063454Y-60589992D01*
X86940668Y-60698771D01*
X86940667Y-60698772D01*
X86940664Y-60698775D01*
X86847483Y-60833772D01*
X86847480Y-60833778D01*
X86789312Y-60987152D01*
X86769539Y-61150000D01*
X83139686Y-61150000D01*
X83135224Y-61144776D01*
X83135220Y-61144773D01*
X83135218Y-61144770D01*
X83110080Y-61123301D01*
X83066394Y-61059738D01*
X83060342Y-60982848D01*
X83093546Y-60913233D01*
X83110080Y-60896699D01*
X83135218Y-60875229D01*
X83135219Y-60875228D01*
X83135224Y-60875224D01*
X83298836Y-60683659D01*
X83430466Y-60468859D01*
X83526873Y-60236111D01*
X83529034Y-60227112D01*
X83559814Y-60098901D01*
X83585683Y-59991148D01*
X83605449Y-59740000D01*
X83585683Y-59488852D01*
X83544240Y-59316227D01*
X83526876Y-59243900D01*
X83526872Y-59243886D01*
X83430467Y-59011143D01*
X83404513Y-58968790D01*
X83298836Y-58796341D01*
X83135224Y-58604776D01*
X83135220Y-58604773D01*
X83135218Y-58604770D01*
X83110080Y-58583301D01*
X83066394Y-58519738D01*
X83060342Y-58442848D01*
X83093546Y-58373233D01*
X83110080Y-58356699D01*
X83135218Y-58335229D01*
X83135219Y-58335228D01*
X83135224Y-58335224D01*
X83298836Y-58143659D01*
X83430466Y-57928859D01*
X83496908Y-57768450D01*
X83529359Y-57726161D01*
X83741556Y-57726161D01*
X83752773Y-57734769D01*
X83782289Y-57806025D01*
X83782478Y-57843434D01*
X83769539Y-57949999D01*
X83789312Y-58112847D01*
X83834585Y-58232220D01*
X83847482Y-58266226D01*
X83881103Y-58314934D01*
X83940664Y-58401224D01*
X83940665Y-58401225D01*
X83940668Y-58401229D01*
X84063454Y-58510008D01*
X84208705Y-58586242D01*
X84367979Y-58625500D01*
X84367980Y-58625500D01*
X84532020Y-58625500D01*
X84532021Y-58625500D01*
X84691295Y-58586242D01*
X84836546Y-58510008D01*
X84959332Y-58401229D01*
X85052518Y-58266226D01*
X85110688Y-58112845D01*
X85130461Y-57950000D01*
X86919539Y-57950000D01*
X86939312Y-58112847D01*
X86984585Y-58232220D01*
X86997482Y-58266226D01*
X87031103Y-58314934D01*
X87090664Y-58401224D01*
X87090665Y-58401225D01*
X87090668Y-58401229D01*
X87213454Y-58510008D01*
X87358705Y-58586242D01*
X87461947Y-58611689D01*
X87529503Y-58648899D01*
X87569404Y-58714903D01*
X87574200Y-58738397D01*
X87589311Y-58862840D01*
X87589312Y-58862847D01*
X87645554Y-59011143D01*
X87647482Y-59016226D01*
X87658829Y-59032665D01*
X87740664Y-59151224D01*
X87740665Y-59151225D01*
X87740668Y-59151229D01*
X87863454Y-59260008D01*
X88008705Y-59336242D01*
X88167979Y-59375500D01*
X88167980Y-59375500D01*
X88332020Y-59375500D01*
X88332021Y-59375500D01*
X88491295Y-59336242D01*
X88636546Y-59260008D01*
X88759332Y-59151229D01*
X88852518Y-59016226D01*
X88910688Y-58862845D01*
X88930461Y-58700000D01*
X88910688Y-58537155D01*
X88852518Y-58383774D01*
X88759332Y-58248771D01*
X88636546Y-58139992D01*
X88491295Y-58063758D01*
X88388052Y-58038310D01*
X88320496Y-58001100D01*
X88280595Y-57935095D01*
X88275799Y-57911607D01*
X88260688Y-57787155D01*
X88202518Y-57633774D01*
X88109332Y-57498771D01*
X87986546Y-57389992D01*
X87875921Y-57331931D01*
X87819233Y-57279635D01*
X87796288Y-57205999D01*
X87813234Y-57130756D01*
X87865532Y-57074066D01*
X87875909Y-57068075D01*
X87986546Y-57010008D01*
X88109332Y-56901229D01*
X88202518Y-56766226D01*
X88260688Y-56612845D01*
X88262247Y-56600005D01*
X90544451Y-56600005D01*
X90564615Y-56869090D01*
X90564618Y-56869113D01*
X90624663Y-57132187D01*
X90624665Y-57132194D01*
X90698018Y-57319090D01*
X90723257Y-57383398D01*
X90858185Y-57617102D01*
X90858189Y-57617107D01*
X91008846Y-57806025D01*
X91026439Y-57828085D01*
X91224259Y-58011635D01*
X91447226Y-58163651D01*
X91690359Y-58280738D01*
X91948228Y-58360280D01*
X92215071Y-58400500D01*
X92215074Y-58400500D01*
X92484926Y-58400500D01*
X92484929Y-58400500D01*
X92751772Y-58360280D01*
X93009641Y-58280738D01*
X93252775Y-58163651D01*
X93475741Y-58011635D01*
X93673561Y-57828085D01*
X93841815Y-57617102D01*
X93976743Y-57383398D01*
X94075334Y-57132195D01*
X94075336Y-57132187D01*
X94135381Y-56869113D01*
X94135381Y-56869110D01*
X94135383Y-56869103D01*
X94138041Y-56833637D01*
X94155549Y-56600005D01*
X94155549Y-56599994D01*
X94148056Y-56500000D01*
X101619539Y-56500000D01*
X101639312Y-56662847D01*
X101691327Y-56799996D01*
X101697482Y-56816226D01*
X101721643Y-56851229D01*
X101790664Y-56951224D01*
X101790665Y-56951225D01*
X101790668Y-56951229D01*
X101913454Y-57060008D01*
X102058705Y-57136242D01*
X102217979Y-57175500D01*
X102217980Y-57175500D01*
X102382020Y-57175500D01*
X102382021Y-57175500D01*
X102541295Y-57136242D01*
X102686546Y-57060008D01*
X102809332Y-56951229D01*
X102902518Y-56816226D01*
X102960688Y-56662845D01*
X102980461Y-56500000D01*
X102960688Y-56337155D01*
X102958310Y-56330886D01*
X102933932Y-56266606D01*
X102908672Y-56200000D01*
X103969539Y-56200000D01*
X103989312Y-56362847D01*
X104035176Y-56483778D01*
X104047482Y-56516226D01*
X104047483Y-56516227D01*
X104140664Y-56651224D01*
X104140665Y-56651225D01*
X104140668Y-56651229D01*
X104263454Y-56760008D01*
X104408705Y-56836242D01*
X104567979Y-56875500D01*
X104567980Y-56875500D01*
X104732020Y-56875500D01*
X104732021Y-56875500D01*
X104891295Y-56836242D01*
X105036546Y-56760008D01*
X105121735Y-56684536D01*
X105190734Y-56650076D01*
X105267721Y-56654733D01*
X105332066Y-56697259D01*
X105366528Y-56766260D01*
X105369539Y-56796065D01*
X105369539Y-56799996D01*
X105369539Y-56800000D01*
X105380328Y-56888856D01*
X105389312Y-56962847D01*
X105439739Y-57095809D01*
X105447482Y-57116226D01*
X105461298Y-57136242D01*
X105540664Y-57251224D01*
X105540665Y-57251225D01*
X105540668Y-57251229D01*
X105663454Y-57360008D01*
X105808705Y-57436242D01*
X105967979Y-57475500D01*
X105967980Y-57475500D01*
X106132021Y-57475500D01*
X106291295Y-57436242D01*
X106330756Y-57415530D01*
X106405997Y-57398584D01*
X106469242Y-57415530D01*
X106508705Y-57436242D01*
X106667979Y-57475500D01*
X106832020Y-57475500D01*
X106832021Y-57475500D01*
X106991295Y-57436242D01*
X107042137Y-57409557D01*
X107117375Y-57392612D01*
X107191011Y-57415556D01*
X107243310Y-57472245D01*
X107260257Y-57547488D01*
X107259562Y-57557065D01*
X107244540Y-57699999D01*
X107264325Y-57888254D01*
X107305923Y-58016279D01*
X107322821Y-58068284D01*
X107351689Y-58118285D01*
X107417469Y-58232220D01*
X107535908Y-58363758D01*
X107544129Y-58372888D01*
X107697270Y-58484151D01*
X107870197Y-58561144D01*
X108010871Y-58591045D01*
X108055352Y-58600500D01*
X108055354Y-58600500D01*
X108244648Y-58600500D01*
X108284004Y-58592134D01*
X108429803Y-58561144D01*
X108602730Y-58484151D01*
X108755871Y-58372888D01*
X108838841Y-58280741D01*
X108882530Y-58232220D01*
X108882531Y-58232218D01*
X108882533Y-58232216D01*
X108977179Y-58068284D01*
X108983294Y-58049463D01*
X109025299Y-57984782D01*
X109094020Y-57949766D01*
X109171043Y-57953802D01*
X109235728Y-57995809D01*
X109266705Y-58049462D01*
X109272821Y-58068284D01*
X109301689Y-58118285D01*
X109367469Y-58232220D01*
X109485908Y-58363758D01*
X109494129Y-58372888D01*
X109647270Y-58484151D01*
X109820197Y-58561144D01*
X109960871Y-58591045D01*
X110005352Y-58600500D01*
X110005354Y-58600500D01*
X110194648Y-58600500D01*
X110234004Y-58592134D01*
X110379803Y-58561144D01*
X110552730Y-58484151D01*
X110705871Y-58372888D01*
X110788841Y-58280741D01*
X110832530Y-58232220D01*
X110832531Y-58232218D01*
X110832533Y-58232216D01*
X110927179Y-58068284D01*
X110975867Y-57918438D01*
X111017871Y-57853758D01*
X111086593Y-57818742D01*
X111163615Y-57822778D01*
X111228300Y-57864785D01*
X111263313Y-57933495D01*
X111264323Y-57938248D01*
X111321054Y-58112845D01*
X111322821Y-58118284D01*
X111349014Y-58163651D01*
X111417469Y-58282220D01*
X111524627Y-58401229D01*
X111544129Y-58422888D01*
X111697270Y-58534151D01*
X111870197Y-58611144D01*
X112011315Y-58641139D01*
X112055352Y-58650500D01*
X112055354Y-58650500D01*
X112244648Y-58650500D01*
X112284004Y-58642134D01*
X112429803Y-58611144D01*
X112602730Y-58534151D01*
X112755871Y-58422888D01*
X112852250Y-58315849D01*
X112882530Y-58282220D01*
X112882531Y-58282218D01*
X112882533Y-58282216D01*
X112977179Y-58118284D01*
X113035674Y-57938256D01*
X113055460Y-57750000D01*
X113035674Y-57561744D01*
X113003942Y-57464086D01*
X112999906Y-57387064D01*
X113034921Y-57318343D01*
X113099606Y-57276336D01*
X113176629Y-57272299D01*
X113245350Y-57307314D01*
X113266200Y-57330472D01*
X113267470Y-57332220D01*
X113393550Y-57472245D01*
X113394129Y-57472888D01*
X113547270Y-57584151D01*
X113720197Y-57661144D01*
X113861315Y-57691139D01*
X113905352Y-57700500D01*
X113905354Y-57700500D01*
X114094648Y-57700500D01*
X114134004Y-57692134D01*
X114279803Y-57661144D01*
X114452730Y-57584151D01*
X114605871Y-57472888D01*
X114680511Y-57389992D01*
X114732530Y-57332220D01*
X114732531Y-57332218D01*
X114732533Y-57332216D01*
X114827179Y-57168284D01*
X114833294Y-57149463D01*
X114875299Y-57084782D01*
X114944020Y-57049766D01*
X115021043Y-57053802D01*
X115085728Y-57095809D01*
X115116705Y-57149462D01*
X115122821Y-57168284D01*
X115157204Y-57227837D01*
X115217469Y-57332220D01*
X115343550Y-57472245D01*
X115344129Y-57472888D01*
X115497270Y-57584151D01*
X115670197Y-57661144D01*
X115811315Y-57691139D01*
X115855352Y-57700500D01*
X115855354Y-57700500D01*
X116044648Y-57700500D01*
X116084004Y-57692134D01*
X116229803Y-57661144D01*
X116402730Y-57584151D01*
X116555871Y-57472888D01*
X116630511Y-57389992D01*
X116682530Y-57332220D01*
X116682531Y-57332218D01*
X116682533Y-57332216D01*
X116777179Y-57168284D01*
X116783294Y-57149463D01*
X116825299Y-57084782D01*
X116894020Y-57049766D01*
X116971043Y-57053802D01*
X117035728Y-57095809D01*
X117066705Y-57149462D01*
X117072821Y-57168284D01*
X117107204Y-57227837D01*
X117167469Y-57332220D01*
X117293550Y-57472245D01*
X117294129Y-57472888D01*
X117447270Y-57584151D01*
X117620197Y-57661144D01*
X117761315Y-57691139D01*
X117805352Y-57700500D01*
X117805354Y-57700500D01*
X117994648Y-57700500D01*
X118034004Y-57692134D01*
X118179803Y-57661144D01*
X118352730Y-57584151D01*
X118505871Y-57472888D01*
X118580511Y-57389992D01*
X118632530Y-57332220D01*
X118632531Y-57332218D01*
X118632533Y-57332216D01*
X118727179Y-57168284D01*
X118733294Y-57149463D01*
X118775299Y-57084782D01*
X118844020Y-57049766D01*
X118921043Y-57053802D01*
X118985728Y-57095809D01*
X119016705Y-57149462D01*
X119022821Y-57168284D01*
X119057204Y-57227837D01*
X119117469Y-57332220D01*
X119243550Y-57472245D01*
X119244129Y-57472888D01*
X119397270Y-57584151D01*
X119570197Y-57661144D01*
X119711315Y-57691139D01*
X119755352Y-57700500D01*
X119755354Y-57700500D01*
X119944648Y-57700500D01*
X119984004Y-57692134D01*
X120129803Y-57661144D01*
X120302730Y-57584151D01*
X120455871Y-57472888D01*
X120530511Y-57389992D01*
X120582530Y-57332220D01*
X120582531Y-57332218D01*
X120582533Y-57332216D01*
X120677179Y-57168284D01*
X120683294Y-57149463D01*
X120725299Y-57084782D01*
X120794020Y-57049766D01*
X120871043Y-57053802D01*
X120935728Y-57095809D01*
X120966705Y-57149462D01*
X120972821Y-57168284D01*
X121007204Y-57227837D01*
X121067469Y-57332220D01*
X121193550Y-57472245D01*
X121194129Y-57472888D01*
X121347270Y-57584151D01*
X121520197Y-57661144D01*
X121661315Y-57691139D01*
X121705352Y-57700500D01*
X121705354Y-57700500D01*
X121894648Y-57700500D01*
X121934004Y-57692134D01*
X122079803Y-57661144D01*
X122252730Y-57584151D01*
X122405871Y-57472888D01*
X122480511Y-57389992D01*
X122532530Y-57332220D01*
X122532531Y-57332218D01*
X122532533Y-57332216D01*
X122627179Y-57168284D01*
X122685674Y-56988256D01*
X122705460Y-56800000D01*
X122685674Y-56611744D01*
X122627179Y-56431716D01*
X122532533Y-56267784D01*
X122532532Y-56267783D01*
X122532530Y-56267779D01*
X122405872Y-56127113D01*
X122382326Y-56110006D01*
X122252730Y-56015849D01*
X122252729Y-56015848D01*
X122252727Y-56015847D01*
X122102072Y-55948771D01*
X122079803Y-55938856D01*
X121973313Y-55916221D01*
X121894648Y-55899500D01*
X121894646Y-55899500D01*
X121705354Y-55899500D01*
X121705352Y-55899500D01*
X121626659Y-55916227D01*
X121520197Y-55938856D01*
X121520195Y-55938856D01*
X121520194Y-55938857D01*
X121347272Y-56015847D01*
X121194127Y-56127113D01*
X121067469Y-56267779D01*
X120972822Y-56431714D01*
X120972819Y-56431721D01*
X120966707Y-56450533D01*
X120924700Y-56515218D01*
X120855978Y-56550233D01*
X120778956Y-56546196D01*
X120714271Y-56504189D01*
X120683293Y-56450533D01*
X120683119Y-56449997D01*
X120677179Y-56431716D01*
X120582533Y-56267784D01*
X120582532Y-56267783D01*
X120582530Y-56267779D01*
X120455872Y-56127113D01*
X120432326Y-56110006D01*
X120302730Y-56015849D01*
X120302729Y-56015848D01*
X120302727Y-56015847D01*
X120152072Y-55948771D01*
X120129803Y-55938856D01*
X120100033Y-55932528D01*
X120031313Y-55897513D01*
X119989306Y-55832828D01*
X119985270Y-55755806D01*
X120020286Y-55687084D01*
X120032191Y-55675273D01*
X120059332Y-55651229D01*
X120152518Y-55516226D01*
X120210688Y-55362845D01*
X120230461Y-55200000D01*
X120210688Y-55037155D01*
X120205276Y-55022886D01*
X120182852Y-54963758D01*
X120152518Y-54883774D01*
X120059332Y-54748771D01*
X119936546Y-54639992D01*
X119791295Y-54563758D01*
X119632021Y-54524500D01*
X119467979Y-54524500D01*
X119388342Y-54544129D01*
X119308704Y-54563758D01*
X119304288Y-54566076D01*
X119163454Y-54639992D01*
X119040668Y-54748771D01*
X119040667Y-54748772D01*
X119040664Y-54748775D01*
X118947483Y-54883772D01*
X118947480Y-54883778D01*
X118889312Y-55037152D01*
X118869539Y-55200000D01*
X118889312Y-55362847D01*
X118936151Y-55486349D01*
X118947482Y-55516226D01*
X118947483Y-55516227D01*
X119040664Y-55651224D01*
X119040665Y-55651225D01*
X119040668Y-55651229D01*
X119163454Y-55760008D01*
X119291250Y-55827080D01*
X119347937Y-55879377D01*
X119370883Y-55953013D01*
X119353937Y-56028256D01*
X119309585Y-56079555D01*
X119244128Y-56127112D01*
X119117469Y-56267779D01*
X119022822Y-56431714D01*
X119022819Y-56431721D01*
X119016707Y-56450533D01*
X118974700Y-56515218D01*
X118905978Y-56550233D01*
X118828956Y-56546196D01*
X118764271Y-56504189D01*
X118733293Y-56450533D01*
X118733119Y-56449997D01*
X118727179Y-56431716D01*
X118632533Y-56267784D01*
X118632532Y-56267783D01*
X118632530Y-56267779D01*
X118505872Y-56127113D01*
X118482326Y-56110006D01*
X118352730Y-56015849D01*
X118352729Y-56015848D01*
X118352727Y-56015847D01*
X118202072Y-55948771D01*
X118179803Y-55938856D01*
X118073313Y-55916221D01*
X117994648Y-55899500D01*
X117994646Y-55899500D01*
X117805354Y-55899500D01*
X117805352Y-55899500D01*
X117726659Y-55916227D01*
X117620197Y-55938856D01*
X117620195Y-55938856D01*
X117620194Y-55938857D01*
X117447272Y-56015847D01*
X117294127Y-56127113D01*
X117167469Y-56267779D01*
X117072822Y-56431714D01*
X117072819Y-56431721D01*
X117066707Y-56450533D01*
X117024700Y-56515218D01*
X116955978Y-56550233D01*
X116878956Y-56546196D01*
X116814271Y-56504189D01*
X116783293Y-56450533D01*
X116783119Y-56449997D01*
X116777179Y-56431716D01*
X116682533Y-56267784D01*
X116682532Y-56267783D01*
X116682530Y-56267779D01*
X116555872Y-56127113D01*
X116532326Y-56110006D01*
X116402730Y-56015849D01*
X116402729Y-56015848D01*
X116402727Y-56015847D01*
X116252072Y-55948771D01*
X116229803Y-55938856D01*
X116123313Y-55916221D01*
X116044648Y-55899500D01*
X116044646Y-55899500D01*
X115855354Y-55899500D01*
X115855352Y-55899500D01*
X115776659Y-55916227D01*
X115670197Y-55938856D01*
X115670195Y-55938856D01*
X115670194Y-55938857D01*
X115497272Y-56015847D01*
X115344127Y-56127113D01*
X115217469Y-56267779D01*
X115122822Y-56431714D01*
X115122819Y-56431721D01*
X115116707Y-56450533D01*
X115074700Y-56515218D01*
X115005978Y-56550233D01*
X114928956Y-56546196D01*
X114864271Y-56504189D01*
X114833293Y-56450533D01*
X114833119Y-56449997D01*
X114827179Y-56431716D01*
X114732533Y-56267784D01*
X114732532Y-56267783D01*
X114732530Y-56267779D01*
X114605872Y-56127113D01*
X114582326Y-56110006D01*
X114452730Y-56015849D01*
X114452729Y-56015848D01*
X114452727Y-56015847D01*
X114302072Y-55948771D01*
X114279803Y-55938856D01*
X114173313Y-55916221D01*
X114094648Y-55899500D01*
X114094646Y-55899500D01*
X113905354Y-55899500D01*
X113905352Y-55899500D01*
X113826659Y-55916227D01*
X113720197Y-55938856D01*
X113720195Y-55938856D01*
X113720194Y-55938857D01*
X113547272Y-56015847D01*
X113394127Y-56127113D01*
X113267469Y-56267779D01*
X113172822Y-56431714D01*
X113172819Y-56431721D01*
X113114325Y-56611745D01*
X113094540Y-56800000D01*
X113111970Y-56965847D01*
X113114326Y-56988256D01*
X113146057Y-57085913D01*
X113150093Y-57162936D01*
X113115077Y-57231657D01*
X113050392Y-57273664D01*
X112973369Y-57277700D01*
X112904648Y-57242684D01*
X112883797Y-57219524D01*
X112882529Y-57217779D01*
X112755872Y-57077113D01*
X112751678Y-57074066D01*
X112602730Y-56965849D01*
X112602729Y-56965848D01*
X112602727Y-56965847D01*
X112429805Y-56888857D01*
X112429803Y-56888856D01*
X112323360Y-56866231D01*
X112244648Y-56849500D01*
X112244646Y-56849500D01*
X112055354Y-56849500D01*
X112055352Y-56849500D01*
X111963128Y-56869103D01*
X111870197Y-56888856D01*
X111870195Y-56888856D01*
X111870194Y-56888857D01*
X111697272Y-56965847D01*
X111544127Y-57077113D01*
X111417469Y-57217779D01*
X111322822Y-57381714D01*
X111322819Y-57381721D01*
X111274134Y-57531557D01*
X111232127Y-57596242D01*
X111163405Y-57631257D01*
X111086383Y-57627220D01*
X111021698Y-57585213D01*
X110986684Y-57516495D01*
X110985674Y-57511746D01*
X110985674Y-57511744D01*
X110927179Y-57331716D01*
X110832533Y-57167784D01*
X110832532Y-57167783D01*
X110832530Y-57167779D01*
X110705872Y-57027113D01*
X110682326Y-57010006D01*
X110552730Y-56915849D01*
X110552729Y-56915848D01*
X110552727Y-56915847D01*
X110379805Y-56838857D01*
X110379803Y-56838856D01*
X110273313Y-56816221D01*
X110194648Y-56799500D01*
X110194646Y-56799500D01*
X110005354Y-56799500D01*
X110005352Y-56799500D01*
X109926659Y-56816227D01*
X109820197Y-56838856D01*
X109820195Y-56838856D01*
X109820194Y-56838857D01*
X109647272Y-56915847D01*
X109494127Y-57027113D01*
X109367469Y-57167779D01*
X109272822Y-57331714D01*
X109272819Y-57331721D01*
X109266707Y-57350533D01*
X109224700Y-57415218D01*
X109155978Y-57450233D01*
X109078956Y-57446196D01*
X109014271Y-57404189D01*
X108983293Y-57350533D01*
X108977179Y-57331716D01*
X108882533Y-57167784D01*
X108882532Y-57167783D01*
X108882530Y-57167779D01*
X108755872Y-57027113D01*
X108732326Y-57010006D01*
X108602730Y-56915849D01*
X108602729Y-56915848D01*
X108602727Y-56915847D01*
X108429805Y-56838857D01*
X108429803Y-56838856D01*
X108323313Y-56816221D01*
X108244648Y-56799500D01*
X108244646Y-56799500D01*
X108055354Y-56799500D01*
X108055352Y-56799500D01*
X107976659Y-56816227D01*
X107870197Y-56838856D01*
X107870195Y-56838856D01*
X107870194Y-56838857D01*
X107697271Y-56915848D01*
X107665938Y-56938612D01*
X107593932Y-56966250D01*
X107517754Y-56954183D01*
X107457815Y-56905643D01*
X107430177Y-56833637D01*
X107430448Y-56800099D01*
X107430461Y-56800000D01*
X107410688Y-56637155D01*
X107352518Y-56483774D01*
X107259332Y-56348771D01*
X107136546Y-56239992D01*
X106991295Y-56163758D01*
X106832021Y-56124500D01*
X106667979Y-56124500D01*
X106588342Y-56144129D01*
X106508704Y-56163758D01*
X106469242Y-56184469D01*
X106393998Y-56201414D01*
X106330758Y-56184469D01*
X106291295Y-56163758D01*
X106291296Y-56163758D01*
X106211658Y-56144129D01*
X106132021Y-56124500D01*
X105967979Y-56124500D01*
X105888342Y-56144129D01*
X105808704Y-56163758D01*
X105663452Y-56239993D01*
X105633413Y-56266606D01*
X105578264Y-56315463D01*
X105509265Y-56349923D01*
X105432278Y-56345266D01*
X105367933Y-56302740D01*
X105333472Y-56233738D01*
X105330461Y-56203934D01*
X105330461Y-56200003D01*
X105330461Y-56200000D01*
X105310688Y-56037155D01*
X105252518Y-55883774D01*
X105185275Y-55786356D01*
X105159335Y-55748775D01*
X105159334Y-55748774D01*
X105159332Y-55748771D01*
X105036546Y-55639992D01*
X104891295Y-55563758D01*
X104732021Y-55524500D01*
X104567979Y-55524500D01*
X104488342Y-55544129D01*
X104408704Y-55563758D01*
X104372233Y-55582900D01*
X104263454Y-55639992D01*
X104140668Y-55748771D01*
X104140667Y-55748772D01*
X104140664Y-55748775D01*
X104047483Y-55883772D01*
X104047480Y-55883778D01*
X103989312Y-56037152D01*
X103969539Y-56200000D01*
X102908672Y-56200000D01*
X102902518Y-56183774D01*
X102833493Y-56083774D01*
X102809335Y-56048775D01*
X102809334Y-56048774D01*
X102809332Y-56048771D01*
X102686546Y-55939992D01*
X102541295Y-55863758D01*
X102382021Y-55824500D01*
X102217979Y-55824500D01*
X102155126Y-55839992D01*
X102058704Y-55863758D01*
X101990605Y-55899500D01*
X101913454Y-55939992D01*
X101790668Y-56048771D01*
X101790667Y-56048772D01*
X101790664Y-56048775D01*
X101697483Y-56183772D01*
X101697480Y-56183778D01*
X101639312Y-56337152D01*
X101619539Y-56500000D01*
X94148056Y-56500000D01*
X94135384Y-56330909D01*
X94135383Y-56330907D01*
X94135383Y-56330897D01*
X94135381Y-56330891D01*
X94135381Y-56330886D01*
X94075336Y-56067812D01*
X94075334Y-56067805D01*
X94061634Y-56032898D01*
X93976743Y-55816602D01*
X93841815Y-55582898D01*
X93815580Y-55550000D01*
X97069539Y-55550000D01*
X97089312Y-55712847D01*
X97137533Y-55839993D01*
X97147482Y-55866226D01*
X97172760Y-55902848D01*
X97240664Y-56001224D01*
X97240665Y-56001225D01*
X97240668Y-56001229D01*
X97363454Y-56110008D01*
X97508705Y-56186242D01*
X97667979Y-56225500D01*
X97667980Y-56225500D01*
X97832020Y-56225500D01*
X97832021Y-56225500D01*
X97989344Y-56186723D01*
X98060656Y-56186723D01*
X98217979Y-56225500D01*
X98217980Y-56225500D01*
X98382020Y-56225500D01*
X98382021Y-56225500D01*
X98539344Y-56186723D01*
X98610656Y-56186723D01*
X98767979Y-56225500D01*
X98767980Y-56225500D01*
X98932020Y-56225500D01*
X98932021Y-56225500D01*
X99091295Y-56186242D01*
X99236546Y-56110008D01*
X99359332Y-56001229D01*
X99452518Y-55866226D01*
X99510688Y-55712845D01*
X99530461Y-55550000D01*
X99510688Y-55387155D01*
X99452518Y-55233774D01*
X99359332Y-55098771D01*
X99236546Y-54989992D01*
X99091295Y-54913758D01*
X98932021Y-54874500D01*
X98767979Y-54874500D01*
X98610658Y-54913276D01*
X98539342Y-54913276D01*
X98382021Y-54874500D01*
X98217979Y-54874500D01*
X98060658Y-54913276D01*
X97989342Y-54913276D01*
X97832021Y-54874500D01*
X97667979Y-54874500D01*
X97588342Y-54894129D01*
X97508704Y-54913758D01*
X97432470Y-54953769D01*
X97363454Y-54989992D01*
X97240668Y-55098771D01*
X97240667Y-55098772D01*
X97240664Y-55098775D01*
X97147483Y-55233772D01*
X97147480Y-55233778D01*
X97089312Y-55387152D01*
X97069539Y-55550000D01*
X93815580Y-55550000D01*
X93673561Y-55371915D01*
X93475741Y-55188365D01*
X93252775Y-55036349D01*
X93252772Y-55036348D01*
X93252770Y-55036346D01*
X93009650Y-54919266D01*
X93009646Y-54919264D01*
X93009641Y-54919262D01*
X93009633Y-54919259D01*
X93009629Y-54919258D01*
X92751777Y-54839721D01*
X92751773Y-54839720D01*
X92484932Y-54799500D01*
X92484929Y-54799500D01*
X92215071Y-54799500D01*
X92215067Y-54799500D01*
X91948226Y-54839720D01*
X91948222Y-54839721D01*
X91690370Y-54919258D01*
X91690349Y-54919266D01*
X91447227Y-55036348D01*
X91224259Y-55188364D01*
X91026438Y-55371915D01*
X90858189Y-55582892D01*
X90858184Y-55582900D01*
X90723257Y-55816601D01*
X90723255Y-55816606D01*
X90624665Y-56067805D01*
X90624663Y-56067812D01*
X90564618Y-56330886D01*
X90564615Y-56330909D01*
X90544451Y-56599994D01*
X90544451Y-56600005D01*
X88262247Y-56600005D01*
X88280461Y-56450000D01*
X88277298Y-56423950D01*
X88288133Y-56347588D01*
X88335699Y-56286873D01*
X88389550Y-56261319D01*
X88491295Y-56236242D01*
X88636546Y-56160008D01*
X88759332Y-56051229D01*
X88852518Y-55916226D01*
X88910688Y-55762845D01*
X88930461Y-55600000D01*
X88910688Y-55437155D01*
X88852518Y-55283774D01*
X88764400Y-55156113D01*
X88759335Y-55148775D01*
X88759334Y-55148774D01*
X88759332Y-55148771D01*
X88636546Y-55039992D01*
X88491295Y-54963758D01*
X88332021Y-54924500D01*
X88167979Y-54924500D01*
X88088342Y-54944129D01*
X88008704Y-54963758D01*
X87932470Y-55003769D01*
X87863454Y-55039992D01*
X87740668Y-55148771D01*
X87740667Y-55148772D01*
X87740664Y-55148775D01*
X87647483Y-55283772D01*
X87647480Y-55283778D01*
X87589312Y-55437152D01*
X87569539Y-55600001D01*
X87572702Y-55626052D01*
X87561864Y-55702415D01*
X87514297Y-55763128D01*
X87460447Y-55788680D01*
X87358705Y-55813758D01*
X87213454Y-55889992D01*
X87090668Y-55998771D01*
X87090667Y-55998772D01*
X87090664Y-55998775D01*
X86997483Y-56133772D01*
X86997480Y-56133778D01*
X86939312Y-56287152D01*
X86919539Y-56450000D01*
X86939312Y-56612847D01*
X86995122Y-56760004D01*
X86997482Y-56766226D01*
X87031103Y-56814934D01*
X87090664Y-56901224D01*
X87090665Y-56901225D01*
X87090668Y-56901229D01*
X87213454Y-57010008D01*
X87324078Y-57068068D01*
X87380766Y-57120365D01*
X87403711Y-57194001D01*
X87386765Y-57269245D01*
X87334467Y-57325934D01*
X87324090Y-57331924D01*
X87213454Y-57389992D01*
X87213452Y-57389993D01*
X87213451Y-57389994D01*
X87150013Y-57446196D01*
X87090668Y-57498771D01*
X87090667Y-57498772D01*
X87090664Y-57498775D01*
X86997483Y-57633772D01*
X86997480Y-57633778D01*
X86939312Y-57787152D01*
X86919539Y-57950000D01*
X85130461Y-57950000D01*
X85110688Y-57787155D01*
X85052518Y-57633774D01*
X84959332Y-57498771D01*
X84836546Y-57389992D01*
X84691295Y-57313758D01*
X84691293Y-57313757D01*
X84683315Y-57309570D01*
X84684101Y-57308071D01*
X84630192Y-57269239D01*
X84598535Y-57198907D01*
X84606286Y-57122169D01*
X84651366Y-57059587D01*
X84683601Y-57040976D01*
X84683315Y-57040430D01*
X84691293Y-57036242D01*
X84691295Y-57036242D01*
X84836546Y-56960008D01*
X84959332Y-56851229D01*
X85052518Y-56716226D01*
X85110688Y-56562845D01*
X85130461Y-56400000D01*
X85110688Y-56237155D01*
X85052518Y-56083774D01*
X84959332Y-55948771D01*
X84836546Y-55839992D01*
X84691295Y-55763758D01*
X84532021Y-55724500D01*
X84367979Y-55724500D01*
X84288342Y-55744129D01*
X84208704Y-55763758D01*
X84161220Y-55788680D01*
X84063454Y-55839992D01*
X83940668Y-55948771D01*
X83940667Y-55948772D01*
X83940664Y-55948775D01*
X83847483Y-56083772D01*
X83847480Y-56083778D01*
X83789312Y-56237152D01*
X83769539Y-56400000D01*
X83789312Y-56562847D01*
X83789526Y-56563712D01*
X83789510Y-56564475D01*
X83790399Y-56571792D01*
X83789360Y-56571918D01*
X83789039Y-56587850D01*
X83813661Y-56627048D01*
X83822830Y-56651224D01*
X83847482Y-56716226D01*
X83847483Y-56716227D01*
X83940664Y-56851224D01*
X83940665Y-56851225D01*
X83940668Y-56851229D01*
X84063454Y-56960008D01*
X84208705Y-57036242D01*
X84208706Y-57036242D01*
X84216685Y-57040430D01*
X84215898Y-57041927D01*
X84269811Y-57080767D01*
X84301465Y-57151100D01*
X84293711Y-57227837D01*
X84248627Y-57290417D01*
X84216398Y-57309024D01*
X84216685Y-57309570D01*
X84208705Y-57313757D01*
X84208705Y-57313758D01*
X84063454Y-57389992D01*
X83940668Y-57498771D01*
X83940667Y-57498772D01*
X83940664Y-57498775D01*
X83847483Y-57633772D01*
X83847478Y-57633782D01*
X83846367Y-57636712D01*
X83844797Y-57638890D01*
X83843294Y-57641755D01*
X83842887Y-57641541D01*
X83801280Y-57699288D01*
X83741556Y-57726161D01*
X83529359Y-57726161D01*
X83543858Y-57707266D01*
X83599902Y-57684050D01*
X83591631Y-57678091D01*
X83559982Y-57607755D01*
X83562170Y-57549083D01*
X83585683Y-57451148D01*
X83605449Y-57200000D01*
X83585683Y-56948852D01*
X83541839Y-56766226D01*
X83529461Y-56714668D01*
X83530070Y-56691378D01*
X83507197Y-56656387D01*
X83505058Y-56651224D01*
X83442420Y-56500000D01*
X83430467Y-56471143D01*
X83417837Y-56450533D01*
X83298836Y-56256341D01*
X83135224Y-56064776D01*
X83135220Y-56064773D01*
X83135218Y-56064770D01*
X83110080Y-56043301D01*
X83066394Y-55979738D01*
X83060342Y-55902848D01*
X83093546Y-55833233D01*
X83110080Y-55816699D01*
X83135218Y-55795229D01*
X83135219Y-55795228D01*
X83135224Y-55795224D01*
X83298836Y-55603659D01*
X83430466Y-55388859D01*
X83526873Y-55156111D01*
X83585683Y-54911148D01*
X83605449Y-54660000D01*
X83588921Y-54450000D01*
X101619539Y-54450000D01*
X101639312Y-54612847D01*
X101690862Y-54748771D01*
X101697482Y-54766226D01*
X101731103Y-54814934D01*
X101790664Y-54901224D01*
X101790665Y-54901225D01*
X101790668Y-54901229D01*
X101913454Y-55010008D01*
X102058705Y-55086242D01*
X102217979Y-55125500D01*
X102217980Y-55125500D01*
X102382020Y-55125500D01*
X102382021Y-55125500D01*
X102541295Y-55086242D01*
X102686546Y-55010008D01*
X102809332Y-54901229D01*
X102902518Y-54766226D01*
X102960688Y-54612845D01*
X102966366Y-54566074D01*
X102995163Y-54494526D01*
X103055877Y-54446959D01*
X103078624Y-54439365D01*
X103091295Y-54436242D01*
X103236546Y-54360008D01*
X103304281Y-54300000D01*
X121969539Y-54300000D01*
X121989312Y-54462847D01*
X122047480Y-54616221D01*
X122047482Y-54616226D01*
X122047483Y-54616227D01*
X122140664Y-54751224D01*
X122140665Y-54751225D01*
X122140668Y-54751229D01*
X122263454Y-54860008D01*
X122408705Y-54936242D01*
X122567979Y-54975500D01*
X122567980Y-54975500D01*
X122732020Y-54975500D01*
X122732021Y-54975500D01*
X122891295Y-54936242D01*
X123036546Y-54860008D01*
X123044354Y-54853091D01*
X123113354Y-54818629D01*
X123190342Y-54823284D01*
X123254687Y-54865810D01*
X123263710Y-54877044D01*
X123267471Y-54882222D01*
X123394127Y-55022886D01*
X123394129Y-55022888D01*
X123547270Y-55134151D01*
X123720197Y-55211144D01*
X123861315Y-55241139D01*
X123905352Y-55250500D01*
X123905354Y-55250500D01*
X124094648Y-55250500D01*
X124134004Y-55242134D01*
X124279803Y-55211144D01*
X124452730Y-55134151D01*
X124605871Y-55022888D01*
X124699180Y-54919258D01*
X124732530Y-54882220D01*
X124732531Y-54882218D01*
X124732533Y-54882216D01*
X124827179Y-54718284D01*
X124885674Y-54538256D01*
X124905460Y-54350000D01*
X124885674Y-54161744D01*
X124827179Y-53981716D01*
X124732533Y-53817784D01*
X124732532Y-53817783D01*
X124732530Y-53817779D01*
X124605872Y-53677113D01*
X124587490Y-53663758D01*
X124452730Y-53565849D01*
X124452729Y-53565848D01*
X124452727Y-53565847D01*
X124279805Y-53488857D01*
X124279803Y-53488856D01*
X124173360Y-53466231D01*
X124094648Y-53449500D01*
X124094646Y-53449500D01*
X123905354Y-53449500D01*
X123905352Y-53449500D01*
X123805392Y-53470747D01*
X123720197Y-53488856D01*
X123720195Y-53488856D01*
X123720194Y-53488857D01*
X123547272Y-53565847D01*
X123394127Y-53677113D01*
X123302864Y-53778471D01*
X123238179Y-53820478D01*
X123161156Y-53824514D01*
X123093331Y-53790299D01*
X123059137Y-53760006D01*
X123036546Y-53739992D01*
X122891295Y-53663758D01*
X122732021Y-53624500D01*
X122567979Y-53624500D01*
X122516620Y-53637159D01*
X122408704Y-53663758D01*
X122387401Y-53674939D01*
X122263454Y-53739992D01*
X122140668Y-53848771D01*
X122140667Y-53848772D01*
X122140664Y-53848775D01*
X122047483Y-53983772D01*
X122047480Y-53983778D01*
X121989312Y-54137152D01*
X121969539Y-54300000D01*
X103304281Y-54300000D01*
X103359332Y-54251229D01*
X103452518Y-54116226D01*
X103510688Y-53962845D01*
X103530461Y-53800000D01*
X103510688Y-53637155D01*
X103502033Y-53614335D01*
X103483644Y-53565847D01*
X103452518Y-53483774D01*
X103359332Y-53348771D01*
X103309503Y-53304626D01*
X103266979Y-53240284D01*
X103262322Y-53163296D01*
X103296783Y-53094295D01*
X103339062Y-53061171D01*
X103436546Y-53010008D01*
X103559332Y-52901229D01*
X103652518Y-52766226D01*
X103710688Y-52612845D01*
X103730461Y-52450000D01*
X103710688Y-52287155D01*
X103652518Y-52133774D01*
X103585275Y-52036356D01*
X103559335Y-51998775D01*
X103559334Y-51998774D01*
X103559332Y-51998771D01*
X103436546Y-51889992D01*
X103291295Y-51813758D01*
X103132021Y-51774500D01*
X102967979Y-51774500D01*
X102955516Y-51777572D01*
X102808704Y-51813758D01*
X102762032Y-51838254D01*
X102663454Y-51889992D01*
X102540668Y-51998771D01*
X102540667Y-51998772D01*
X102540664Y-51998775D01*
X102447483Y-52133772D01*
X102447480Y-52133778D01*
X102389312Y-52287152D01*
X102369539Y-52450000D01*
X102389312Y-52612847D01*
X102427237Y-52712845D01*
X102447482Y-52766226D01*
X102447483Y-52766227D01*
X102540664Y-52901224D01*
X102540665Y-52901225D01*
X102540668Y-52901229D01*
X102590495Y-52945372D01*
X102633020Y-53009715D01*
X102637677Y-53086703D01*
X102603216Y-53155704D01*
X102560933Y-53188830D01*
X102463455Y-53239991D01*
X102463453Y-53239992D01*
X102422020Y-53276699D01*
X102340668Y-53348771D01*
X102340667Y-53348772D01*
X102340664Y-53348775D01*
X102247483Y-53483772D01*
X102247480Y-53483778D01*
X102189312Y-53637152D01*
X102189311Y-53637159D01*
X102183632Y-53683926D01*
X102154835Y-53755476D01*
X102094120Y-53803042D01*
X102071381Y-53810633D01*
X102066126Y-53811928D01*
X102058704Y-53813758D01*
X101991994Y-53848771D01*
X101913454Y-53889992D01*
X101790668Y-53998771D01*
X101790667Y-53998772D01*
X101790664Y-53998775D01*
X101697483Y-54133772D01*
X101697480Y-54133778D01*
X101639312Y-54287152D01*
X101619539Y-54450000D01*
X83588921Y-54450000D01*
X83585683Y-54408852D01*
X83544665Y-54238000D01*
X83526876Y-54163900D01*
X83526872Y-54163886D01*
X83430467Y-53931143D01*
X83430466Y-53931141D01*
X83298836Y-53716341D01*
X83135224Y-53524776D01*
X83135220Y-53524773D01*
X83135218Y-53524770D01*
X83110080Y-53503301D01*
X83066394Y-53439738D01*
X83060342Y-53362848D01*
X83093546Y-53293233D01*
X83110080Y-53276699D01*
X83135218Y-53255229D01*
X83135219Y-53255228D01*
X83135224Y-53255224D01*
X83182390Y-53200000D01*
X86769539Y-53200000D01*
X86789312Y-53362847D01*
X86835176Y-53483778D01*
X86847482Y-53516226D01*
X86879420Y-53562496D01*
X86940664Y-53651224D01*
X86940665Y-53651225D01*
X86940668Y-53651229D01*
X87063454Y-53760008D01*
X87208705Y-53836242D01*
X87367979Y-53875500D01*
X87367980Y-53875500D01*
X87532020Y-53875500D01*
X87532021Y-53875500D01*
X87691295Y-53836242D01*
X87786579Y-53786232D01*
X87861820Y-53769286D01*
X87935456Y-53792231D01*
X87978447Y-53833524D01*
X87990664Y-53851224D01*
X87990665Y-53851225D01*
X87990668Y-53851229D01*
X88113454Y-53960008D01*
X88258705Y-54036242D01*
X88417979Y-54075500D01*
X88417980Y-54075500D01*
X88582020Y-54075500D01*
X88582021Y-54075500D01*
X88741295Y-54036242D01*
X88886546Y-53960008D01*
X89009332Y-53851229D01*
X89102518Y-53716226D01*
X89160688Y-53562845D01*
X89180461Y-53400000D01*
X89160688Y-53237155D01*
X89158624Y-53231714D01*
X89132677Y-53163296D01*
X89102518Y-53083774D01*
X89009332Y-52948771D01*
X88886546Y-52839992D01*
X88741295Y-52763758D01*
X88582021Y-52724500D01*
X88417979Y-52724500D01*
X88378722Y-52734176D01*
X88258706Y-52763757D01*
X88163420Y-52813767D01*
X88088176Y-52830712D01*
X88014541Y-52807766D01*
X87971553Y-52766475D01*
X87959336Y-52748776D01*
X87959334Y-52748774D01*
X87959332Y-52748771D01*
X87904281Y-52700000D01*
X96169539Y-52700000D01*
X96189312Y-52862847D01*
X96233918Y-52980462D01*
X96247482Y-53016226D01*
X96277701Y-53060006D01*
X96340664Y-53151224D01*
X96340665Y-53151225D01*
X96340668Y-53151229D01*
X96463454Y-53260008D01*
X96608705Y-53336242D01*
X96767979Y-53375500D01*
X96767980Y-53375500D01*
X96932020Y-53375500D01*
X96932021Y-53375500D01*
X97091295Y-53336242D01*
X97236546Y-53260008D01*
X97359332Y-53151229D01*
X97452518Y-53016226D01*
X97510688Y-52862845D01*
X97530461Y-52700000D01*
X97512248Y-52550000D01*
X98369539Y-52550000D01*
X98389312Y-52712847D01*
X98447480Y-52866221D01*
X98447482Y-52866226D01*
X98471643Y-52901229D01*
X98540664Y-53001224D01*
X98540665Y-53001225D01*
X98540668Y-53001229D01*
X98663454Y-53110008D01*
X98808705Y-53186242D01*
X98967979Y-53225500D01*
X98967980Y-53225500D01*
X99132020Y-53225500D01*
X99132021Y-53225500D01*
X99291295Y-53186242D01*
X99436546Y-53110008D01*
X99480263Y-53071277D01*
X99549260Y-53036819D01*
X99626247Y-53041474D01*
X99655369Y-53056018D01*
X99655474Y-53055819D01*
X99663451Y-53060006D01*
X99663454Y-53060008D01*
X99808705Y-53136242D01*
X99967979Y-53175500D01*
X99967980Y-53175500D01*
X100132020Y-53175500D01*
X100132021Y-53175500D01*
X100291295Y-53136242D01*
X100436546Y-53060008D01*
X100559332Y-52951229D01*
X100652518Y-52816226D01*
X100710688Y-52662845D01*
X100730461Y-52500000D01*
X100710688Y-52337155D01*
X100705276Y-52322886D01*
X100680311Y-52257059D01*
X100652518Y-52183774D01*
X100584089Y-52084638D01*
X100558198Y-52011990D01*
X100572101Y-51936126D01*
X100584085Y-51915366D01*
X100652518Y-51816226D01*
X100710688Y-51662845D01*
X100730461Y-51500000D01*
X100710688Y-51337155D01*
X100652518Y-51183774D01*
X100569047Y-51062845D01*
X100559335Y-51048775D01*
X100559334Y-51048774D01*
X100559332Y-51048771D01*
X100436546Y-50939992D01*
X100291295Y-50863758D01*
X100132021Y-50824500D01*
X99967979Y-50824500D01*
X99888342Y-50844129D01*
X99808704Y-50863758D01*
X99784890Y-50876257D01*
X99663454Y-50939992D01*
X99540668Y-51048771D01*
X99540667Y-51048772D01*
X99540664Y-51048775D01*
X99447483Y-51183772D01*
X99447480Y-51183778D01*
X99389312Y-51337152D01*
X99374813Y-51456565D01*
X99369539Y-51500000D01*
X99389312Y-51662845D01*
X99394111Y-51675500D01*
X99403720Y-51700835D01*
X99411472Y-51777572D01*
X99379818Y-51847905D01*
X99317237Y-51892988D01*
X99240500Y-51900740D01*
X99228744Y-51898340D01*
X99132021Y-51874500D01*
X98967979Y-51874500D01*
X98905126Y-51889992D01*
X98808704Y-51913758D01*
X98744594Y-51947406D01*
X98663454Y-51989992D01*
X98540668Y-52098771D01*
X98540667Y-52098772D01*
X98540664Y-52098775D01*
X98447483Y-52233772D01*
X98447480Y-52233778D01*
X98389312Y-52387152D01*
X98369539Y-52550000D01*
X97512248Y-52550000D01*
X97510688Y-52537155D01*
X97452518Y-52383774D01*
X97359332Y-52248771D01*
X97236546Y-52139992D01*
X97091295Y-52063758D01*
X96932021Y-52024500D01*
X96767979Y-52024500D01*
X96688342Y-52044129D01*
X96608704Y-52063758D01*
X96568914Y-52084642D01*
X96463454Y-52139992D01*
X96340668Y-52248771D01*
X96340667Y-52248772D01*
X96340664Y-52248775D01*
X96247483Y-52383772D01*
X96247480Y-52383778D01*
X96189312Y-52537152D01*
X96169539Y-52700000D01*
X87904281Y-52700000D01*
X87836546Y-52639992D01*
X87691295Y-52563758D01*
X87532021Y-52524500D01*
X87367979Y-52524500D01*
X87315557Y-52537421D01*
X87208704Y-52563758D01*
X87146751Y-52596274D01*
X87063454Y-52639992D01*
X86940668Y-52748771D01*
X86940667Y-52748772D01*
X86940664Y-52748775D01*
X86847483Y-52883772D01*
X86847480Y-52883778D01*
X86789312Y-53037152D01*
X86769539Y-53200000D01*
X83182390Y-53200000D01*
X83298836Y-53063659D01*
X83430466Y-52848859D01*
X83526873Y-52616111D01*
X83585683Y-52371148D01*
X83605449Y-52120000D01*
X83585683Y-51868852D01*
X83539227Y-51675347D01*
X83526876Y-51623900D01*
X83526872Y-51623886D01*
X83430467Y-51391143D01*
X83430466Y-51391141D01*
X83298836Y-51176341D01*
X83148227Y-51000000D01*
X86769539Y-51000000D01*
X86789312Y-51162847D01*
X86834393Y-51281714D01*
X86847482Y-51316226D01*
X86871643Y-51351229D01*
X86940664Y-51451224D01*
X86940665Y-51451225D01*
X86940668Y-51451229D01*
X87063454Y-51560008D01*
X87208705Y-51636242D01*
X87367979Y-51675500D01*
X87367980Y-51675500D01*
X87532020Y-51675500D01*
X87532021Y-51675500D01*
X87635477Y-51650000D01*
X94219539Y-51650000D01*
X94239312Y-51812847D01*
X94296533Y-51963724D01*
X94297482Y-51966226D01*
X94297483Y-51966227D01*
X94390664Y-52101224D01*
X94390665Y-52101225D01*
X94390668Y-52101229D01*
X94513454Y-52210008D01*
X94658705Y-52286242D01*
X94817979Y-52325500D01*
X94817980Y-52325500D01*
X94982020Y-52325500D01*
X94982021Y-52325500D01*
X95141295Y-52286242D01*
X95286546Y-52210008D01*
X95409332Y-52101229D01*
X95502518Y-51966226D01*
X95560688Y-51812845D01*
X95580461Y-51650000D01*
X95560688Y-51487155D01*
X95502518Y-51333774D01*
X95409332Y-51198771D01*
X95286546Y-51089992D01*
X95141295Y-51013758D01*
X94982021Y-50974500D01*
X94817979Y-50974500D01*
X94776276Y-50984779D01*
X94658704Y-51013758D01*
X94591994Y-51048771D01*
X94513454Y-51089992D01*
X94390668Y-51198771D01*
X94390667Y-51198772D01*
X94390664Y-51198775D01*
X94297483Y-51333772D01*
X94297480Y-51333778D01*
X94239312Y-51487152D01*
X94219539Y-51650000D01*
X87635477Y-51650000D01*
X87691295Y-51636242D01*
X87836546Y-51560008D01*
X87844709Y-51552777D01*
X87933879Y-51473778D01*
X88002880Y-51439316D01*
X88079868Y-51443973D01*
X88105082Y-51456565D01*
X88105474Y-51455819D01*
X88113451Y-51460006D01*
X88113454Y-51460008D01*
X88258705Y-51536242D01*
X88417979Y-51575500D01*
X88417980Y-51575500D01*
X88582020Y-51575500D01*
X88582021Y-51575500D01*
X88741295Y-51536242D01*
X88886546Y-51460008D01*
X89009332Y-51351229D01*
X89102518Y-51216226D01*
X89160688Y-51062845D01*
X89180461Y-50900000D01*
X89160688Y-50737155D01*
X89102518Y-50583774D01*
X89033753Y-50484151D01*
X89009335Y-50448775D01*
X89009334Y-50448774D01*
X89009332Y-50448771D01*
X88886546Y-50339992D01*
X88741295Y-50263758D01*
X88582021Y-50224500D01*
X88417979Y-50224500D01*
X88338342Y-50244129D01*
X88258704Y-50263758D01*
X88113451Y-50339993D01*
X88113448Y-50339995D01*
X88016119Y-50426222D01*
X87947117Y-50460683D01*
X87870130Y-50456026D01*
X87844917Y-50443435D01*
X87844526Y-50444181D01*
X87836547Y-50439993D01*
X87836546Y-50439992D01*
X87691295Y-50363758D01*
X87532021Y-50324500D01*
X87367979Y-50324500D01*
X87313208Y-50338000D01*
X87208704Y-50363758D01*
X87191309Y-50372888D01*
X87063454Y-50439992D01*
X86940668Y-50548771D01*
X86940667Y-50548772D01*
X86940664Y-50548775D01*
X86847483Y-50683772D01*
X86847480Y-50683778D01*
X86789312Y-50837152D01*
X86769539Y-51000000D01*
X83148227Y-51000000D01*
X83135224Y-50984776D01*
X83135220Y-50984773D01*
X83135218Y-50984770D01*
X83110080Y-50963301D01*
X83066394Y-50899738D01*
X83060342Y-50822848D01*
X83093546Y-50753233D01*
X83110080Y-50736699D01*
X83135218Y-50715229D01*
X83135219Y-50715228D01*
X83135224Y-50715224D01*
X83298836Y-50523659D01*
X83430466Y-50308859D01*
X83526873Y-50076111D01*
X83527057Y-50075347D01*
X83547743Y-49989182D01*
X83585683Y-49831148D01*
X83605449Y-49580000D01*
X83585683Y-49328852D01*
X83544557Y-49157547D01*
X83526876Y-49083900D01*
X83526872Y-49083886D01*
X83430467Y-48851143D01*
X83430073Y-48850500D01*
X83298836Y-48636341D01*
X83135224Y-48444776D01*
X82943659Y-48281164D01*
X82728859Y-48149534D01*
X82728856Y-48149533D01*
X82728855Y-48149532D01*
X82728856Y-48149532D01*
X82496113Y-48053127D01*
X82496099Y-48053123D01*
X82251158Y-47994319D01*
X82251151Y-47994317D01*
X82000000Y-47974551D01*
X81748848Y-47994317D01*
X81748841Y-47994319D01*
X81503900Y-48053123D01*
X81503886Y-48053127D01*
X81271143Y-48149532D01*
X81056340Y-48281164D01*
X80864779Y-48444773D01*
X80864773Y-48444779D01*
X80701164Y-48636340D01*
X80569532Y-48851143D01*
X80473127Y-49083886D01*
X80473123Y-49083900D01*
X80414319Y-49328841D01*
X80414317Y-49328848D01*
X80394551Y-49580000D01*
X80414317Y-49831151D01*
X80414319Y-49831158D01*
X80473123Y-50076099D01*
X80473127Y-50076113D01*
X80569532Y-50308856D01*
X80676953Y-50484151D01*
X80701164Y-50523659D01*
X80864776Y-50715224D01*
X80864781Y-50715228D01*
X80889922Y-50736701D01*
X80933607Y-50800265D01*
X80939658Y-50877155D01*
X80906452Y-50946769D01*
X80889922Y-50963299D01*
X80864781Y-50984771D01*
X80864773Y-50984779D01*
X80701164Y-51176340D01*
X80569532Y-51391143D01*
X80473127Y-51623886D01*
X80473123Y-51623900D01*
X80414319Y-51868841D01*
X80414317Y-51868848D01*
X80394551Y-52120000D01*
X80414317Y-52371151D01*
X80414319Y-52371158D01*
X80473123Y-52616099D01*
X80473127Y-52616113D01*
X80569532Y-52848856D01*
X80672094Y-53016221D01*
X80701164Y-53063659D01*
X80864776Y-53255224D01*
X80878373Y-53266836D01*
X80889922Y-53276701D01*
X80933607Y-53340265D01*
X80939658Y-53417155D01*
X80906452Y-53486769D01*
X80889922Y-53503299D01*
X80864781Y-53524771D01*
X80864773Y-53524779D01*
X80701164Y-53716340D01*
X80569532Y-53931143D01*
X80473127Y-54163886D01*
X80473123Y-54163900D01*
X80414319Y-54408841D01*
X80414317Y-54408848D01*
X80394551Y-54660000D01*
X80414317Y-54911151D01*
X80414319Y-54911158D01*
X80473123Y-55156099D01*
X80473127Y-55156113D01*
X80569532Y-55388856D01*
X80629276Y-55486349D01*
X80701164Y-55603659D01*
X80864776Y-55795224D01*
X80864781Y-55795228D01*
X80889922Y-55816701D01*
X80933607Y-55880265D01*
X80939658Y-55957155D01*
X80906452Y-56026769D01*
X80889922Y-56043299D01*
X80864781Y-56064771D01*
X80864773Y-56064779D01*
X80701164Y-56256340D01*
X80569532Y-56471143D01*
X80473127Y-56703886D01*
X80473123Y-56703900D01*
X80414319Y-56948841D01*
X80414317Y-56948848D01*
X80394551Y-57200000D01*
X80414317Y-57451151D01*
X80414319Y-57451158D01*
X80473123Y-57696099D01*
X80473127Y-57696113D01*
X80569532Y-57928856D01*
X80620259Y-58011635D01*
X80701164Y-58143659D01*
X80864776Y-58335224D01*
X80864781Y-58335228D01*
X80889922Y-58356701D01*
X80933607Y-58420265D01*
X80939658Y-58497155D01*
X80906452Y-58566769D01*
X80889922Y-58583299D01*
X80864781Y-58604771D01*
X80864773Y-58604779D01*
X80701164Y-58796340D01*
X80569532Y-59011143D01*
X80473127Y-59243886D01*
X80473123Y-59243900D01*
X80414319Y-59488841D01*
X80414317Y-59488848D01*
X80394551Y-59740000D01*
X80414317Y-59991151D01*
X80414319Y-59991158D01*
X80473123Y-60236099D01*
X80473127Y-60236113D01*
X80569532Y-60468856D01*
X80608052Y-60531714D01*
X80701164Y-60683659D01*
X80864776Y-60875224D01*
X80864781Y-60875228D01*
X80889922Y-60896701D01*
X80933607Y-60960265D01*
X80939658Y-61037155D01*
X80906452Y-61106769D01*
X80889922Y-61123299D01*
X80864781Y-61144771D01*
X80864773Y-61144779D01*
X80701164Y-61336340D01*
X80569532Y-61551143D01*
X80473127Y-61783886D01*
X80473123Y-61783900D01*
X80414319Y-62028841D01*
X80414317Y-62028848D01*
X80394551Y-62280000D01*
X80414317Y-62531151D01*
X80414319Y-62531158D01*
X80473123Y-62776099D01*
X80473127Y-62776113D01*
X80569532Y-63008856D01*
X80595547Y-63051308D01*
X80701164Y-63223659D01*
X80864776Y-63415224D01*
X80864781Y-63415228D01*
X80889922Y-63436701D01*
X80933607Y-63500265D01*
X80939658Y-63577155D01*
X80906452Y-63646769D01*
X80889922Y-63663299D01*
X80864781Y-63684771D01*
X80864773Y-63684779D01*
X80701164Y-63876340D01*
X80569532Y-64091143D01*
X80473127Y-64323886D01*
X80473123Y-64323900D01*
X80414319Y-64568841D01*
X80414317Y-64568848D01*
X80394551Y-64820000D01*
X80414317Y-65071151D01*
X80414319Y-65071158D01*
X80473123Y-65316099D01*
X80473127Y-65316113D01*
X80569532Y-65548856D01*
X80676108Y-65722772D01*
X80701164Y-65763659D01*
X80864776Y-65955224D01*
X80864781Y-65955228D01*
X80889922Y-65976701D01*
X80933607Y-66040265D01*
X80939658Y-66117155D01*
X80906452Y-66186769D01*
X80889922Y-66203299D01*
X80864781Y-66224771D01*
X80864773Y-66224779D01*
X80701164Y-66416340D01*
X80569532Y-66631143D01*
X80473127Y-66863886D01*
X80473123Y-66863900D01*
X80414319Y-67108841D01*
X80414317Y-67108848D01*
X80394551Y-67360000D01*
X80414317Y-67611151D01*
X80414319Y-67611158D01*
X80473123Y-67856099D01*
X80473127Y-67856113D01*
X80569532Y-68088856D01*
X80631509Y-68189993D01*
X80701164Y-68303659D01*
X80864776Y-68495224D01*
X80864781Y-68495228D01*
X80889922Y-68516701D01*
X80933607Y-68580265D01*
X80939658Y-68657155D01*
X80906452Y-68726769D01*
X80889922Y-68743299D01*
X80864781Y-68764771D01*
X80864773Y-68764779D01*
X80701164Y-68956340D01*
X80569532Y-69171143D01*
X80473127Y-69403886D01*
X80473123Y-69403900D01*
X80414319Y-69648841D01*
X80414317Y-69648848D01*
X80394551Y-69900000D01*
X80414317Y-70151151D01*
X80414319Y-70151158D01*
X80473123Y-70396099D01*
X80473127Y-70396113D01*
X80569532Y-70628856D01*
X80643016Y-70748771D01*
X80701164Y-70843659D01*
X80864776Y-71035224D01*
X80867037Y-71037155D01*
X80889922Y-71056701D01*
X80933607Y-71120265D01*
X80939658Y-71197155D01*
X80906452Y-71266769D01*
X80889922Y-71283299D01*
X80864781Y-71304771D01*
X80864773Y-71304779D01*
X80701164Y-71496340D01*
X80569532Y-71711143D01*
X80473127Y-71943886D01*
X80473123Y-71943900D01*
X80414319Y-72188841D01*
X80414317Y-72188848D01*
X80394551Y-72440000D01*
X80414317Y-72691151D01*
X80414319Y-72691158D01*
X80473123Y-72936099D01*
X80473127Y-72936113D01*
X80569532Y-73168856D01*
X80618504Y-73248771D01*
X80701164Y-73383659D01*
X80864776Y-73575224D01*
X80864781Y-73575228D01*
X80889922Y-73596701D01*
X80933607Y-73660265D01*
X80939658Y-73737155D01*
X80906452Y-73806769D01*
X80889922Y-73823299D01*
X80864781Y-73844771D01*
X80864773Y-73844779D01*
X80701164Y-74036340D01*
X80569532Y-74251143D01*
X80473127Y-74483886D01*
X80473123Y-74483900D01*
X80414319Y-74728841D01*
X80414317Y-74728848D01*
X80394551Y-74980000D01*
X78550500Y-74980000D01*
X78550500Y-48455315D01*
X78550880Y-48444686D01*
X78552500Y-48422032D01*
X78567037Y-48218763D01*
X78570060Y-48197734D01*
X78617078Y-47981599D01*
X78623062Y-47961222D01*
X78664545Y-47850000D01*
X83719539Y-47850000D01*
X83739312Y-48012847D01*
X83797480Y-48166221D01*
X83797482Y-48166226D01*
X83810723Y-48185409D01*
X83890664Y-48301224D01*
X83890665Y-48301225D01*
X83890668Y-48301229D01*
X84013454Y-48410008D01*
X84158705Y-48486242D01*
X84317979Y-48525500D01*
X84317980Y-48525500D01*
X84482020Y-48525500D01*
X84482021Y-48525500D01*
X84641295Y-48486242D01*
X84786546Y-48410008D01*
X84909332Y-48301229D01*
X85002518Y-48166226D01*
X85060688Y-48012845D01*
X85080461Y-47850000D01*
X85074390Y-47800000D01*
X86919539Y-47800000D01*
X86939312Y-47962847D01*
X86990802Y-48098612D01*
X86997482Y-48116226D01*
X86997483Y-48116227D01*
X87090664Y-48251224D01*
X87090665Y-48251225D01*
X87090668Y-48251229D01*
X87213454Y-48360008D01*
X87358705Y-48436242D01*
X87460446Y-48461319D01*
X87528004Y-48498530D01*
X87567905Y-48564535D01*
X87572702Y-48623947D01*
X87570415Y-48642786D01*
X87569539Y-48650000D01*
X87579425Y-48731422D01*
X87589312Y-48812847D01*
X87637533Y-48939994D01*
X87647482Y-48966226D01*
X87666026Y-48993091D01*
X87740664Y-49101224D01*
X87740665Y-49101225D01*
X87740668Y-49101229D01*
X87863454Y-49210008D01*
X88008705Y-49286242D01*
X88167979Y-49325500D01*
X88167980Y-49325500D01*
X88332020Y-49325500D01*
X88332021Y-49325500D01*
X88491295Y-49286242D01*
X88636546Y-49210008D01*
X88759332Y-49101229D01*
X88852518Y-48966226D01*
X88910688Y-48812845D01*
X88930461Y-48650000D01*
X88910688Y-48487155D01*
X88908816Y-48482220D01*
X88891379Y-48436242D01*
X88852518Y-48333774D01*
X88783493Y-48233774D01*
X88759335Y-48198775D01*
X88759334Y-48198774D01*
X88759332Y-48198771D01*
X88636546Y-48089992D01*
X88491295Y-48013758D01*
X88444815Y-48002301D01*
X88389552Y-47988680D01*
X88321994Y-47951468D01*
X88282093Y-47885463D01*
X88277298Y-47826048D01*
X88277682Y-47822886D01*
X88280461Y-47800000D01*
X88260688Y-47637155D01*
X88254274Y-47620244D01*
X88221482Y-47533778D01*
X88202518Y-47483774D01*
X88109332Y-47348771D01*
X87986546Y-47239992D01*
X87841295Y-47163758D01*
X87682021Y-47124500D01*
X87517979Y-47124500D01*
X87438342Y-47144129D01*
X87358704Y-47163758D01*
X87282470Y-47203769D01*
X87213454Y-47239992D01*
X87090668Y-47348771D01*
X87090667Y-47348772D01*
X87090664Y-47348775D01*
X86997483Y-47483772D01*
X86997480Y-47483778D01*
X86939312Y-47637152D01*
X86919539Y-47800000D01*
X85074390Y-47800000D01*
X85060688Y-47687155D01*
X85058816Y-47682220D01*
X85035311Y-47620242D01*
X85002518Y-47533774D01*
X84909332Y-47398771D01*
X84786546Y-47289992D01*
X84641295Y-47213758D01*
X84482021Y-47174500D01*
X84317979Y-47174500D01*
X84238342Y-47194129D01*
X84158704Y-47213758D01*
X84082470Y-47253769D01*
X84013454Y-47289992D01*
X83890668Y-47398771D01*
X83890667Y-47398772D01*
X83890664Y-47398775D01*
X83797483Y-47533772D01*
X83797480Y-47533778D01*
X83739312Y-47687152D01*
X83719539Y-47850000D01*
X78664545Y-47850000D01*
X78700357Y-47753983D01*
X78709188Y-47734648D01*
X78762425Y-47637152D01*
X78815185Y-47540529D01*
X78826670Y-47522658D01*
X78959222Y-47345588D01*
X78973132Y-47329535D01*
X79129535Y-47173132D01*
X79145588Y-47159222D01*
X79322658Y-47026670D01*
X79340529Y-47015185D01*
X79468067Y-46945544D01*
X79534648Y-46909188D01*
X79553983Y-46900357D01*
X79761222Y-46823062D01*
X79781599Y-46817078D01*
X79997734Y-46770060D01*
X80018763Y-46767037D01*
X80244687Y-46750880D01*
X80255316Y-46750500D01*
X80297595Y-46750500D01*
X89919886Y-46750500D01*
X89994386Y-46770462D01*
G37*
G04 #@! TD.AperFunction*
G04 #@! TA.AperFunction,Conductor*
G36*
X95074386Y-46770462D02*
G01*
X95128924Y-46825000D01*
X95148886Y-46899500D01*
X95128924Y-46974000D01*
X95105245Y-47004859D01*
X95031507Y-47078596D01*
X94918860Y-47239474D01*
X94895965Y-47272171D01*
X94869219Y-47329528D01*
X94796096Y-47486339D01*
X94761473Y-47615555D01*
X94722908Y-47682349D01*
X94656113Y-47720913D01*
X94578985Y-47720913D01*
X94512191Y-47682348D01*
X94474966Y-47620242D01*
X94458350Y-47565467D01*
X94365491Y-47391739D01*
X94365490Y-47391737D01*
X94240530Y-47239474D01*
X94240525Y-47239469D01*
X94088262Y-47114509D01*
X94088256Y-47114505D01*
X93931853Y-47030907D01*
X93875559Y-46978183D01*
X93853170Y-46904376D01*
X93870683Y-46829263D01*
X93923407Y-46772969D01*
X93997214Y-46750580D01*
X94002090Y-46750500D01*
X94999886Y-46750500D01*
X95074386Y-46770462D01*
G37*
G04 #@! TD.AperFunction*
M02*
