%TF.GenerationSoftware,KiCad,Pcbnew,8.0.1*%
%TF.CreationDate,2024-06-08T15:54:59-04:00*%
%TF.ProjectId,SAP Mk3.2,53415020-4d6b-4332-9e32-2e6b69636164,rev?*%
%TF.SameCoordinates,Original*%
%TF.FileFunction,Drillmap*%
%TF.FilePolarity,Positive*%
%FSLAX45Y45*%
G04 Gerber Fmt 4.5, Leading zero omitted, Abs format (unit mm)*
G04 Created by KiCad (PCBNEW 8.0.1) date 2024-06-08 15:54:59*
%MOMM*%
%LPD*%
G01*
G04 APERTURE LIST*
%ADD10C,0.100000*%
%ADD11C,0.200000*%
%ADD12C,0.110000*%
%ADD13C,0.220000*%
G04 APERTURE END LIST*
D10*
X11940000Y-7915000D02*
X12070000Y-8045000D01*
X12825000Y-4645000D02*
G75*
G02*
X13025000Y-4845000I0J-200000D01*
G01*
X7825000Y-7845000D02*
X7825000Y-4845000D01*
X13025000Y-4845000D02*
X13025000Y-8045000D01*
X7825000Y-4845000D02*
G75*
G02*
X8025000Y-4645000I200000J0D01*
G01*
X11105000Y-7915000D02*
X11940000Y-7915000D01*
X8025000Y-8045000D02*
X10985000Y-8045000D01*
X8025000Y-8045000D02*
G75*
G02*
X7825000Y-7845000I0J200000D01*
G01*
X8025000Y-4645000D02*
X12825000Y-4645000D01*
X13025000Y-8045000D02*
X12070000Y-8045000D01*
X10985000Y-8045000D02*
X11105000Y-7915000D01*
D11*
D10*
X8430000Y-4775000D02*
X8450000Y-4795000D01*
X8450000Y-4775000D02*
X8430000Y-4795000D01*
X8435000Y-5630000D02*
X8455000Y-5650000D01*
X8455000Y-5630000D02*
X8435000Y-5650000D01*
X8435000Y-5785000D02*
X8455000Y-5805000D01*
X8455000Y-5785000D02*
X8435000Y-5805000D01*
X8435000Y-6640000D02*
X8455000Y-6660000D01*
X8455000Y-6640000D02*
X8435000Y-6660000D01*
X8435000Y-6805000D02*
X8455000Y-6825000D01*
X8455000Y-6805000D02*
X8435000Y-6825000D01*
X8435000Y-7660000D02*
X8455000Y-7680000D01*
X8455000Y-7660000D02*
X8435000Y-7680000D01*
X8735000Y-5090000D02*
X8755000Y-5110000D01*
X8755000Y-5090000D02*
X8735000Y-5110000D01*
X8735000Y-5310000D02*
X8755000Y-5330000D01*
X8755000Y-5310000D02*
X8735000Y-5330000D01*
X8735000Y-6105000D02*
X8755000Y-6125000D01*
X8755000Y-6105000D02*
X8735000Y-6125000D01*
X8735000Y-6320000D02*
X8755000Y-6340000D01*
X8755000Y-6320000D02*
X8735000Y-6340000D01*
X8735000Y-7130000D02*
X8755000Y-7150000D01*
X8755000Y-7130000D02*
X8735000Y-7150000D01*
X8735000Y-7340000D02*
X8755000Y-7360000D01*
X8755000Y-7340000D02*
X8735000Y-7360000D01*
X8750000Y-4770000D02*
X8770000Y-4790000D01*
X8770000Y-4770000D02*
X8750000Y-4790000D01*
X8750000Y-5635000D02*
X8770000Y-5655000D01*
X8770000Y-5635000D02*
X8750000Y-5655000D01*
X8750000Y-5785000D02*
X8770000Y-5805000D01*
X8770000Y-5785000D02*
X8750000Y-5805000D01*
X8755000Y-6640000D02*
X8775000Y-6660000D01*
X8775000Y-6640000D02*
X8755000Y-6660000D01*
X8755000Y-6800000D02*
X8775000Y-6820000D01*
X8775000Y-6800000D02*
X8755000Y-6820000D01*
X8770000Y-7670000D02*
X8790000Y-7690000D01*
X8790000Y-7670000D02*
X8770000Y-7690000D01*
X8815000Y-4855000D02*
X8835000Y-4875000D01*
X8835000Y-4855000D02*
X8815000Y-4875000D01*
X8815000Y-5550000D02*
X8835000Y-5570000D01*
X8835000Y-5550000D02*
X8815000Y-5570000D01*
X8815000Y-5860000D02*
X8835000Y-5880000D01*
X8835000Y-5860000D02*
X8815000Y-5880000D01*
X8815000Y-6565000D02*
X8835000Y-6585000D01*
X8835000Y-6565000D02*
X8815000Y-6585000D01*
X8815000Y-6885000D02*
X8835000Y-6905000D01*
X8835000Y-6885000D02*
X8815000Y-6905000D01*
X8815000Y-7585000D02*
X8835000Y-7605000D01*
X8835000Y-7585000D02*
X8815000Y-7605000D01*
X8840000Y-5080000D02*
X8860000Y-5100000D01*
X8860000Y-5080000D02*
X8840000Y-5100000D01*
X8840000Y-5330000D02*
X8860000Y-5350000D01*
X8860000Y-5330000D02*
X8840000Y-5350000D01*
X8840000Y-6090000D02*
X8860000Y-6110000D01*
X8860000Y-6090000D02*
X8840000Y-6110000D01*
X8840000Y-6340000D02*
X8860000Y-6360000D01*
X8860000Y-6340000D02*
X8840000Y-6360000D01*
X8840000Y-7110000D02*
X8860000Y-7130000D01*
X8860000Y-7110000D02*
X8840000Y-7130000D01*
X8840000Y-7360000D02*
X8860000Y-7380000D01*
X8860000Y-7360000D02*
X8840000Y-7380000D01*
X9220000Y-6585000D02*
X9240000Y-6605000D01*
X9240000Y-6585000D02*
X9220000Y-6605000D01*
X9220000Y-6740000D02*
X9240000Y-6760000D01*
X9240000Y-6740000D02*
X9220000Y-6760000D01*
X9220000Y-7050000D02*
X9240000Y-7070000D01*
X9240000Y-7050000D02*
X9220000Y-7070000D01*
X9220000Y-7200000D02*
X9240000Y-7220000D01*
X9240000Y-7200000D02*
X9220000Y-7220000D01*
X9355000Y-7015000D02*
X9375000Y-7035000D01*
X9375000Y-7015000D02*
X9355000Y-7035000D01*
X9375000Y-7135000D02*
X9395000Y-7155000D01*
X9395000Y-7135000D02*
X9375000Y-7155000D01*
X9460000Y-6890000D02*
X9480000Y-6910000D01*
X9480000Y-6890000D02*
X9460000Y-6910000D01*
X9480000Y-5155000D02*
X9500000Y-5175000D01*
X9500000Y-5155000D02*
X9480000Y-5175000D01*
X9540000Y-7200000D02*
X9560000Y-7220000D01*
X9560000Y-7200000D02*
X9540000Y-7220000D01*
X9555000Y-7070000D02*
X9575000Y-7090000D01*
X9575000Y-7070000D02*
X9555000Y-7090000D01*
X9585000Y-6177500D02*
X9605000Y-6197500D01*
X9605000Y-6177500D02*
X9585000Y-6197500D01*
X9585000Y-6332500D02*
X9605000Y-6352500D01*
X9605000Y-6332500D02*
X9585000Y-6352500D01*
X9670000Y-4980000D02*
X9690000Y-5000000D01*
X9690000Y-4980000D02*
X9670000Y-5000000D01*
X9675000Y-5260000D02*
X9695000Y-5280000D01*
X9695000Y-5260000D02*
X9675000Y-5280000D01*
X9690000Y-6655000D02*
X9710000Y-6675000D01*
X9710000Y-6655000D02*
X9690000Y-6675000D01*
X9705000Y-5365000D02*
X9725000Y-5385000D01*
X9725000Y-5365000D02*
X9705000Y-5385000D01*
X9705000Y-5960000D02*
X9725000Y-5980000D01*
X9725000Y-5960000D02*
X9705000Y-5980000D01*
X9705000Y-6035000D02*
X9725000Y-6055000D01*
X9725000Y-6035000D02*
X9705000Y-6055000D01*
X9740000Y-6177500D02*
X9760000Y-6197500D01*
X9760000Y-6177500D02*
X9740000Y-6197500D01*
X9740000Y-6332500D02*
X9760000Y-6352500D01*
X9760000Y-6332500D02*
X9740000Y-6352500D01*
X9765000Y-5545000D02*
X9785000Y-5565000D01*
X9785000Y-5545000D02*
X9765000Y-5565000D01*
X9785000Y-5050000D02*
X9805000Y-5070000D01*
X9805000Y-5050000D02*
X9785000Y-5070000D01*
X9785000Y-5190000D02*
X9805000Y-5210000D01*
X9805000Y-5190000D02*
X9785000Y-5210000D01*
X9790000Y-5920000D02*
X9810000Y-5940000D01*
X9810000Y-5920000D02*
X9790000Y-5940000D01*
X9820000Y-5545000D02*
X9840000Y-5565000D01*
X9840000Y-5545000D02*
X9820000Y-5565000D01*
X9820000Y-7220000D02*
X9840000Y-7240000D01*
X9840000Y-7220000D02*
X9820000Y-7240000D01*
X9875000Y-5545000D02*
X9895000Y-5565000D01*
X9895000Y-5545000D02*
X9875000Y-5565000D01*
X9875000Y-6725000D02*
X9895000Y-6745000D01*
X9895000Y-6725000D02*
X9875000Y-6745000D01*
X9880000Y-6310000D02*
X9900000Y-6330000D01*
X9900000Y-6310000D02*
X9880000Y-6330000D01*
X9890000Y-7220000D02*
X9910000Y-7240000D01*
X9910000Y-7220000D02*
X9890000Y-7240000D01*
X9895000Y-5245000D02*
X9915000Y-5265000D01*
X9915000Y-5245000D02*
X9895000Y-5265000D01*
X9900000Y-7135000D02*
X9920000Y-7155000D01*
X9920000Y-7135000D02*
X9900000Y-7155000D01*
X9915000Y-6195000D02*
X9935000Y-6215000D01*
X9935000Y-6195000D02*
X9915000Y-6215000D01*
X9965000Y-6775000D02*
X9985000Y-6795000D01*
X9985000Y-6775000D02*
X9965000Y-6795000D01*
X9985000Y-5445000D02*
X10005000Y-5465000D01*
X10005000Y-5445000D02*
X9985000Y-5465000D01*
X9990000Y-7135000D02*
X10010000Y-7155000D01*
X10010000Y-7135000D02*
X9990000Y-7155000D01*
X9995000Y-5140000D02*
X10015000Y-5160000D01*
X10015000Y-5140000D02*
X9995000Y-5160000D01*
X9995000Y-5240000D02*
X10015000Y-5260000D01*
X10015000Y-5240000D02*
X9995000Y-5260000D01*
X10010000Y-5890000D02*
X10030000Y-5910000D01*
X10030000Y-5890000D02*
X10010000Y-5910000D01*
X10010000Y-5985000D02*
X10030000Y-6005000D01*
X10030000Y-5985000D02*
X10010000Y-6005000D01*
X10070000Y-6195000D02*
X10090000Y-6215000D01*
X10090000Y-6195000D02*
X10070000Y-6215000D01*
X10135000Y-5235000D02*
X10155000Y-5255000D01*
X10155000Y-5235000D02*
X10135000Y-5255000D01*
X10135000Y-5360000D02*
X10155000Y-5380000D01*
X10155000Y-5360000D02*
X10135000Y-5380000D01*
X10145000Y-6630000D02*
X10165000Y-6650000D01*
X10165000Y-6630000D02*
X10145000Y-6650000D01*
X10215000Y-5937500D02*
X10235000Y-5957500D01*
X10235000Y-5937500D02*
X10215000Y-5957500D01*
X10215000Y-6092500D02*
X10235000Y-6112500D01*
X10235000Y-6092500D02*
X10215000Y-6112500D01*
X10220000Y-5435000D02*
X10240000Y-5455000D01*
X10240000Y-5435000D02*
X10220000Y-5455000D01*
X10220000Y-5640000D02*
X10240000Y-5660000D01*
X10240000Y-5640000D02*
X10220000Y-5660000D01*
X10222500Y-6700000D02*
X10242500Y-6720000D01*
X10242500Y-6700000D02*
X10222500Y-6720000D01*
X10225000Y-6600000D02*
X10245000Y-6620000D01*
X10245000Y-6600000D02*
X10225000Y-6620000D01*
X10275000Y-5370000D02*
X10295000Y-5390000D01*
X10295000Y-5370000D02*
X10275000Y-5390000D01*
X10295000Y-5235000D02*
X10315000Y-5255000D01*
X10315000Y-5235000D02*
X10295000Y-5255000D01*
X10315000Y-5575000D02*
X10335000Y-5595000D01*
X10335000Y-5575000D02*
X10315000Y-5595000D01*
X10370000Y-5937500D02*
X10390000Y-5957500D01*
X10390000Y-5937500D02*
X10370000Y-5957500D01*
X10370000Y-6092500D02*
X10390000Y-6112500D01*
X10390000Y-6092500D02*
X10370000Y-6112500D01*
X10375000Y-6375000D02*
X10395000Y-6395000D01*
X10395000Y-6375000D02*
X10375000Y-6395000D01*
X10375000Y-6540000D02*
X10395000Y-6560000D01*
X10395000Y-6540000D02*
X10375000Y-6560000D01*
X10377500Y-6700000D02*
X10397500Y-6720000D01*
X10397500Y-6700000D02*
X10377500Y-6720000D01*
X10380000Y-6200000D02*
X10400000Y-6220000D01*
X10400000Y-6200000D02*
X10380000Y-6220000D01*
X10455000Y-5610000D02*
X10475000Y-5630000D01*
X10475000Y-5610000D02*
X10455000Y-5630000D01*
X10595000Y-4855000D02*
X10615000Y-4875000D01*
X10615000Y-4855000D02*
X10595000Y-4875000D01*
X10595000Y-5670000D02*
X10615000Y-5690000D01*
X10615000Y-5670000D02*
X10595000Y-5690000D01*
X10595000Y-7390000D02*
X10615000Y-7410000D01*
X10615000Y-7390000D02*
X10595000Y-7410000D01*
X10595000Y-7470000D02*
X10615000Y-7490000D01*
X10615000Y-7470000D02*
X10595000Y-7490000D01*
X10595000Y-7550000D02*
X10615000Y-7570000D01*
X10615000Y-7550000D02*
X10595000Y-7570000D01*
X10665000Y-5670000D02*
X10685000Y-5690000D01*
X10685000Y-5670000D02*
X10665000Y-5690000D01*
X10685000Y-7390000D02*
X10705000Y-7410000D01*
X10705000Y-7390000D02*
X10685000Y-7410000D01*
X10685000Y-7470000D02*
X10705000Y-7490000D01*
X10705000Y-7470000D02*
X10685000Y-7490000D01*
X10685000Y-7550000D02*
X10705000Y-7570000D01*
X10705000Y-7550000D02*
X10685000Y-7570000D01*
X10690000Y-6410000D02*
X10710000Y-6430000D01*
X10710000Y-6410000D02*
X10690000Y-6430000D01*
X10765000Y-5040000D02*
X10785000Y-5060000D01*
X10785000Y-5040000D02*
X10765000Y-5060000D01*
X10785000Y-6970000D02*
X10805000Y-6990000D01*
X10805000Y-6970000D02*
X10785000Y-6990000D01*
X10785000Y-7500000D02*
X10805000Y-7520000D01*
X10805000Y-7500000D02*
X10785000Y-7520000D01*
X10785000Y-7595000D02*
X10805000Y-7615000D01*
X10805000Y-7595000D02*
X10785000Y-7615000D01*
X10790000Y-6310000D02*
X10810000Y-6330000D01*
X10810000Y-6310000D02*
X10790000Y-6330000D01*
X10800000Y-5950000D02*
X10820000Y-5970000D01*
X10820000Y-5950000D02*
X10800000Y-5970000D01*
X10800000Y-6112500D02*
X10820000Y-6132500D01*
X10820000Y-6112500D02*
X10800000Y-6132500D01*
X10830000Y-4990000D02*
X10850000Y-5010000D01*
X10850000Y-4990000D02*
X10830000Y-5010000D01*
X10885000Y-4940000D02*
X10905000Y-4960000D01*
X10905000Y-4940000D02*
X10885000Y-4960000D01*
X10885000Y-5040000D02*
X10905000Y-5060000D01*
X10905000Y-5040000D02*
X10885000Y-5060000D01*
X10930000Y-4845000D02*
X10950000Y-4865000D01*
X10950000Y-4845000D02*
X10930000Y-4865000D01*
X10940000Y-7410000D02*
X10960000Y-7430000D01*
X10960000Y-7410000D02*
X10940000Y-7430000D01*
X10950000Y-5945000D02*
X10970000Y-5965000D01*
X10970000Y-5945000D02*
X10950000Y-5965000D01*
X10950000Y-6115000D02*
X10970000Y-6135000D01*
X10970000Y-6115000D02*
X10950000Y-6135000D01*
X10982402Y-4895201D02*
X11002402Y-4915201D01*
X11002402Y-4895201D02*
X10982402Y-4915201D01*
X11032807Y-4843596D02*
X11052807Y-4863596D01*
X11052807Y-4843596D02*
X11032807Y-4863596D01*
X11082912Y-4897901D02*
X11102912Y-4917901D01*
X11102912Y-4897901D02*
X11082912Y-4917901D01*
X11132718Y-4844496D02*
X11152718Y-4864496D01*
X11152718Y-4844496D02*
X11132718Y-4864496D01*
X11184323Y-4899402D02*
X11204323Y-4919402D01*
X11204323Y-4899402D02*
X11184323Y-4919402D01*
X11210000Y-6755000D02*
X11230000Y-6775000D01*
X11230000Y-6755000D02*
X11210000Y-6775000D01*
X11290000Y-5525000D02*
X11310000Y-5545000D01*
X11310000Y-5525000D02*
X11290000Y-5545000D01*
X11335000Y-6815000D02*
X11355000Y-6835000D01*
X11355000Y-6815000D02*
X11335000Y-6835000D01*
X11343722Y-4981250D02*
X11363722Y-5001250D01*
X11363722Y-4981250D02*
X11343722Y-5001250D01*
X11370000Y-4905000D02*
X11390000Y-4925000D01*
X11390000Y-4905000D02*
X11370000Y-4925000D01*
X11413722Y-4981250D02*
X11433722Y-5001250D01*
X11433722Y-4981250D02*
X11413722Y-5001250D01*
X11422965Y-5141250D02*
X11442965Y-5161250D01*
X11442965Y-5141250D02*
X11422965Y-5161250D01*
X11483722Y-4981250D02*
X11503722Y-5001250D01*
X11503722Y-4981250D02*
X11483722Y-5001250D01*
X11485000Y-6865000D02*
X11505000Y-6885000D01*
X11505000Y-6865000D02*
X11485000Y-6885000D01*
X11485000Y-6955000D02*
X11505000Y-6975000D01*
X11505000Y-6955000D02*
X11485000Y-6975000D01*
X11540000Y-7005000D02*
X11560000Y-7025000D01*
X11560000Y-7005000D02*
X11540000Y-7025000D01*
X11548722Y-5091250D02*
X11568722Y-5111250D01*
X11568722Y-5091250D02*
X11548722Y-5111250D01*
X11548722Y-5151250D02*
X11568722Y-5171250D01*
X11568722Y-5151250D02*
X11548722Y-5171250D01*
X11550000Y-6865000D02*
X11570000Y-6885000D01*
X11570000Y-6865000D02*
X11550000Y-6885000D01*
X11553722Y-4956250D02*
X11573722Y-4976250D01*
X11573722Y-4956250D02*
X11553722Y-4976250D01*
X11557965Y-5276250D02*
X11577965Y-5296250D01*
X11577965Y-5276250D02*
X11557965Y-5296250D01*
X11613722Y-4981250D02*
X11633722Y-5001250D01*
X11633722Y-4981250D02*
X11613722Y-5001250D01*
X11617965Y-5346250D02*
X11637965Y-5366250D01*
X11637965Y-5346250D02*
X11617965Y-5366250D01*
X11645000Y-7460000D02*
X11665000Y-7480000D01*
X11665000Y-7460000D02*
X11645000Y-7480000D01*
X11647965Y-5281250D02*
X11667965Y-5301250D01*
X11667965Y-5281250D02*
X11647965Y-5301250D01*
X11665000Y-5191250D02*
X11685000Y-5211250D01*
X11685000Y-5191250D02*
X11665000Y-5211250D01*
X11678722Y-5096250D02*
X11698722Y-5116250D01*
X11698722Y-5096250D02*
X11678722Y-5116250D01*
X11683722Y-4981250D02*
X11703722Y-5001250D01*
X11703722Y-4981250D02*
X11683722Y-5001250D01*
X11795000Y-5420000D02*
X11815000Y-5440000D01*
X11815000Y-5420000D02*
X11795000Y-5440000D01*
X11945000Y-5510000D02*
X11965000Y-5530000D01*
X11965000Y-5510000D02*
X11945000Y-5530000D01*
X11952500Y-7255000D02*
X11972500Y-7275000D01*
X11972500Y-7255000D02*
X11952500Y-7275000D01*
X12045000Y-6240000D02*
X12065000Y-6260000D01*
X12065000Y-6240000D02*
X12045000Y-6260000D01*
X12045000Y-6355000D02*
X12065000Y-6375000D01*
X12065000Y-6355000D02*
X12045000Y-6375000D01*
X12050000Y-6135000D02*
X12070000Y-6155000D01*
X12070000Y-6135000D02*
X12050000Y-6155000D01*
X12105000Y-4850000D02*
X12125000Y-4870000D01*
X12125000Y-4850000D02*
X12105000Y-4870000D01*
X12105000Y-5510000D02*
X12125000Y-5530000D01*
X12125000Y-5510000D02*
X12105000Y-5530000D01*
X12125000Y-6895000D02*
X12145000Y-6915000D01*
X12145000Y-6895000D02*
X12125000Y-6915000D01*
X12202500Y-7255000D02*
X12222500Y-7275000D01*
X12222500Y-7255000D02*
X12202500Y-7275000D01*
X12255000Y-5420000D02*
X12275000Y-5440000D01*
X12275000Y-5420000D02*
X12255000Y-5440000D01*
X12705000Y-6835000D02*
X12725000Y-6855000D01*
X12725000Y-6835000D02*
X12705000Y-6855000D01*
X12755000Y-6305000D02*
X12775000Y-6325000D01*
X12775000Y-6305000D02*
X12755000Y-6325000D01*
X12885690Y-6790000D02*
X12905690Y-6810000D01*
X12905690Y-6790000D02*
X12885690Y-6810000D01*
X12925000Y-6243287D02*
X12945000Y-6263287D01*
X12945000Y-6243287D02*
X12925000Y-6263287D01*
X11170000Y-7410000D02*
G75*
G02*
X11130000Y-7410000I-20000J0D01*
G01*
X11130000Y-7410000D02*
G75*
G02*
X11170000Y-7410000I20000J0D01*
G01*
X11165000Y-7747500D02*
X11165000Y-7792500D01*
X11142500Y-7770000D02*
X11187500Y-7770000D01*
X11187500Y-7810000D02*
X11187500Y-7730000D01*
X11142500Y-7730000D02*
G75*
G02*
X11187500Y-7730000I22500J0D01*
G01*
X11142500Y-7730000D02*
X11142500Y-7810000D01*
X11142500Y-7810000D02*
G75*
G03*
X11187500Y-7810000I22500J0D01*
G01*
X11880000Y-7747500D02*
X11880000Y-7792500D01*
X11857500Y-7770000D02*
X11902500Y-7770000D01*
X11857500Y-7730000D02*
X11857500Y-7810000D01*
X11902500Y-7810000D02*
G75*
G02*
X11857500Y-7810000I-22500J0D01*
G01*
X11902500Y-7810000D02*
X11902500Y-7730000D01*
X11902500Y-7730000D02*
G75*
G03*
X11857500Y-7730000I-22500J0D01*
G01*
X9362678Y-7652678D02*
X9362678Y-7617322D01*
X9327322Y-7617322D01*
X9327322Y-7652678D01*
X9362678Y-7652678D01*
X9467678Y-7557678D02*
X9467678Y-7522322D01*
X9432322Y-7522322D01*
X9432322Y-7557678D01*
X9467678Y-7557678D01*
X9797678Y-7552678D02*
X9797678Y-7517322D01*
X9762322Y-7517322D01*
X9762322Y-7552678D01*
X9797678Y-7552678D01*
X10832678Y-4732678D02*
X10832678Y-4697322D01*
X10797322Y-4697322D01*
X10797322Y-4732678D01*
X10832678Y-4732678D01*
X10832678Y-5787678D02*
X10832678Y-5752322D01*
X10797322Y-5752322D01*
X10797322Y-5787678D01*
X10832678Y-5787678D01*
X11027678Y-4732678D02*
X11027678Y-4697322D01*
X10992322Y-4697322D01*
X10992322Y-4732678D01*
X11027678Y-4732678D01*
X11027678Y-5787678D02*
X11027678Y-5752322D01*
X10992322Y-5752322D01*
X10992322Y-5787678D01*
X11027678Y-5787678D01*
X11222678Y-4732678D02*
X11222678Y-4697322D01*
X11187322Y-4697322D01*
X11187322Y-4732678D01*
X11222678Y-4732678D01*
X11232678Y-5792678D02*
X11232678Y-5757322D01*
X11197322Y-5757322D01*
X11197322Y-5792678D01*
X11232678Y-5792678D01*
X11417678Y-4732678D02*
X11417678Y-4697322D01*
X11382322Y-4697322D01*
X11382322Y-4732678D01*
X11417678Y-4732678D01*
X11417678Y-5697678D02*
X11417678Y-5662322D01*
X11382322Y-5662322D01*
X11382322Y-5697678D01*
X11417678Y-5697678D01*
X11612678Y-4732678D02*
X11612678Y-4697322D01*
X11577322Y-4697322D01*
X11577322Y-4732678D01*
X11612678Y-4732678D01*
X11612678Y-5697678D02*
X11612678Y-5662322D01*
X11577322Y-5662322D01*
X11577322Y-5697678D01*
X11612678Y-5697678D01*
X11647678Y-5927678D02*
X11647678Y-5892322D01*
X11612322Y-5892322D01*
X11612322Y-5927678D01*
X11647678Y-5927678D01*
X11647678Y-6107678D02*
X11647678Y-6072322D01*
X11612322Y-6072322D01*
X11612322Y-6107678D01*
X11647678Y-6107678D01*
X11647678Y-6302678D02*
X11647678Y-6267322D01*
X11612322Y-6267322D01*
X11612322Y-6302678D01*
X11647678Y-6302678D01*
X11647678Y-6497678D02*
X11647678Y-6462322D01*
X11612322Y-6462322D01*
X11612322Y-6497678D01*
X11647678Y-6497678D01*
X11647678Y-6692678D02*
X11647678Y-6657322D01*
X11612322Y-6657322D01*
X11612322Y-6692678D01*
X11647678Y-6692678D01*
X11692678Y-6917678D02*
X11692678Y-6882322D01*
X11657322Y-6882322D01*
X11657322Y-6917678D01*
X11692678Y-6917678D01*
X11712479Y-7116960D02*
X11712479Y-7081604D01*
X11677123Y-7081604D01*
X11677123Y-7116960D01*
X11712479Y-7116960D01*
X11806890Y-7300707D02*
X11806890Y-7265351D01*
X11771535Y-7265351D01*
X11771535Y-7300707D01*
X11806890Y-7300707D01*
X11807678Y-4732678D02*
X11807678Y-4697322D01*
X11772322Y-4697322D01*
X11772322Y-4732678D01*
X11807678Y-4732678D01*
X11807678Y-5697678D02*
X11807678Y-5662322D01*
X11772322Y-5662322D01*
X11772322Y-5697678D01*
X11807678Y-5697678D01*
X11822678Y-5927678D02*
X11822678Y-5892322D01*
X11787322Y-5892322D01*
X11787322Y-5927678D01*
X11822678Y-5927678D01*
X11867678Y-6147678D02*
X11867678Y-6112322D01*
X11832322Y-6112322D01*
X11832322Y-6147678D01*
X11867678Y-6147678D01*
X11872678Y-6597678D02*
X11872678Y-6562322D01*
X11837322Y-6562322D01*
X11837322Y-6597678D01*
X11872678Y-6597678D01*
X11917678Y-7037678D02*
X11917678Y-7002322D01*
X11882322Y-7002322D01*
X11882322Y-7037678D01*
X11917678Y-7037678D01*
X11967678Y-7422678D02*
X11967678Y-7387322D01*
X11932322Y-7387322D01*
X11932322Y-7422678D01*
X11967678Y-7422678D01*
X12002678Y-4732678D02*
X12002678Y-4697322D01*
X11967322Y-4697322D01*
X11967322Y-4732678D01*
X12002678Y-4732678D01*
X12002678Y-5697678D02*
X12002678Y-5662322D01*
X11967322Y-5662322D01*
X11967322Y-5697678D01*
X12002678Y-5697678D01*
X12007678Y-5927678D02*
X12007678Y-5892322D01*
X11972322Y-5892322D01*
X11972322Y-5927678D01*
X12007678Y-5927678D01*
X12167678Y-7422678D02*
X12167678Y-7387322D01*
X12132322Y-7387322D01*
X12132322Y-7422678D01*
X12167678Y-7422678D01*
X12197678Y-4732678D02*
X12197678Y-4697322D01*
X12162322Y-4697322D01*
X12162322Y-4732678D01*
X12197678Y-4732678D01*
X12197678Y-5697678D02*
X12197678Y-5662322D01*
X12162322Y-5662322D01*
X12162322Y-5697678D01*
X12197678Y-5697678D01*
X12202678Y-5927678D02*
X12202678Y-5892322D01*
X12167322Y-5892322D01*
X12167322Y-5927678D01*
X12202678Y-5927678D01*
X12327678Y-6147678D02*
X12327678Y-6112322D01*
X12292322Y-6112322D01*
X12292322Y-6147678D01*
X12327678Y-6147678D01*
X12327678Y-6597678D02*
X12327678Y-6562322D01*
X12292322Y-6562322D01*
X12292322Y-6597678D01*
X12327678Y-6597678D01*
X12332678Y-7047678D02*
X12332678Y-7012322D01*
X12297322Y-7012322D01*
X12297322Y-7047678D01*
X12332678Y-7047678D01*
X12342678Y-7267678D02*
X12342678Y-7232322D01*
X12307322Y-7232322D01*
X12307322Y-7267678D01*
X12342678Y-7267678D01*
X12392678Y-4732678D02*
X12392678Y-4697322D01*
X12357322Y-4697322D01*
X12357322Y-4732678D01*
X12392678Y-4732678D01*
X12397678Y-5927678D02*
X12397678Y-5892322D01*
X12362322Y-5892322D01*
X12362322Y-5927678D01*
X12397678Y-5927678D01*
X12417678Y-5452678D02*
X12417678Y-5417322D01*
X12382322Y-5417322D01*
X12382322Y-5452678D01*
X12417678Y-5452678D01*
X12587678Y-4732678D02*
X12587678Y-4697322D01*
X12552322Y-4697322D01*
X12552322Y-4732678D01*
X12587678Y-4732678D01*
X12782678Y-4732678D02*
X12782678Y-4697322D01*
X12747322Y-4697322D01*
X12747322Y-4732678D01*
X12782678Y-4732678D01*
X12782678Y-6152678D02*
X12782678Y-6117322D01*
X12747322Y-6117322D01*
X12747322Y-6152678D01*
X12782678Y-6152678D01*
X12782678Y-7052678D02*
X12782678Y-7017322D01*
X12747322Y-7017322D01*
X12747322Y-7052678D01*
X12782678Y-7052678D01*
X12792678Y-5452678D02*
X12792678Y-5417322D01*
X12757322Y-5417322D01*
X12757322Y-5452678D01*
X12792678Y-5452678D01*
X12812678Y-5927678D02*
X12812678Y-5892322D01*
X12777322Y-5892322D01*
X12777322Y-5927678D01*
X12812678Y-5927678D01*
X12887678Y-7257678D02*
X12887678Y-7222322D01*
X12852322Y-7222322D01*
X12852322Y-7257678D01*
X12887678Y-7257678D01*
X12932678Y-4812678D02*
X12932678Y-4777322D01*
X12897322Y-4777322D01*
X12897322Y-4812678D01*
X12932678Y-4812678D01*
X12962678Y-4987678D02*
X12962678Y-4952322D01*
X12927322Y-4952322D01*
X12927322Y-4987678D01*
X12962678Y-4987678D01*
X12962678Y-5182678D02*
X12962678Y-5147322D01*
X12927322Y-5147322D01*
X12927322Y-5182678D01*
X12962678Y-5182678D01*
X12962678Y-5377678D02*
X12962678Y-5342322D01*
X12927322Y-5342322D01*
X12927322Y-5377678D01*
X12962678Y-5377678D01*
X12972678Y-5927678D02*
X12972678Y-5892322D01*
X12937322Y-5892322D01*
X12937322Y-5927678D01*
X12972678Y-5927678D01*
X9099000Y-4845000D02*
X9149000Y-4795000D01*
X9099000Y-4745000D01*
X9049000Y-4795000D01*
X9099000Y-4845000D01*
X9353000Y-4845000D02*
X9403000Y-4795000D01*
X9353000Y-4745000D01*
X9303000Y-4795000D01*
X9353000Y-4845000D01*
X9607000Y-4845000D02*
X9657000Y-4795000D01*
X9607000Y-4745000D01*
X9557000Y-4795000D01*
X9607000Y-4845000D01*
X9861000Y-4845000D02*
X9911000Y-4795000D01*
X9861000Y-4745000D01*
X9811000Y-4795000D01*
X9861000Y-4845000D01*
X10115000Y-4845000D02*
X10165000Y-4795000D01*
X10115000Y-4745000D01*
X10065000Y-4795000D01*
X10115000Y-4845000D01*
X10369000Y-4845000D02*
X10419000Y-4795000D01*
X10369000Y-4745000D01*
X10319000Y-4795000D01*
X10369000Y-4845000D01*
X10618500Y-7915000D02*
X10668500Y-7865000D01*
X10618500Y-7815000D01*
X10568500Y-7865000D01*
X10618500Y-7915000D01*
X10872500Y-7915000D02*
X10922500Y-7865000D01*
X10872500Y-7815000D01*
X10822500Y-7865000D01*
X10872500Y-7915000D01*
X10975000Y-6640000D02*
X11025000Y-6590000D01*
X10975000Y-6540000D01*
X10925000Y-6590000D01*
X10975000Y-6640000D01*
X11375000Y-6640000D02*
X11425000Y-6590000D01*
X11375000Y-6540000D01*
X11325000Y-6590000D01*
X11375000Y-6640000D01*
X12133000Y-7965000D02*
X12183000Y-7915000D01*
X12133000Y-7865000D01*
X12083000Y-7915000D01*
X12133000Y-7965000D01*
X12387000Y-7965000D02*
X12437000Y-7915000D01*
X12387000Y-7865000D01*
X12337000Y-7915000D01*
X12387000Y-7965000D01*
X12641000Y-7965000D02*
X12691000Y-7915000D01*
X12641000Y-7865000D01*
X12591000Y-7915000D01*
X12641000Y-7965000D01*
X12895000Y-7965000D02*
X12945000Y-7915000D01*
X12895000Y-7865000D01*
X12845000Y-7915000D01*
X12895000Y-7965000D01*
D12*
X8145000Y-4903000D02*
X8255000Y-5013000D01*
X8255000Y-4903000D02*
X8145000Y-5013000D01*
X8255000Y-4958000D02*
G75*
G02*
X8145000Y-4958000I-55000J0D01*
G01*
X8145000Y-4958000D02*
G75*
G02*
X8255000Y-4958000I55000J0D01*
G01*
X8145000Y-5157000D02*
X8255000Y-5267000D01*
X8255000Y-5157000D02*
X8145000Y-5267000D01*
X8255000Y-5212000D02*
G75*
G02*
X8145000Y-5212000I-55000J0D01*
G01*
X8145000Y-5212000D02*
G75*
G02*
X8255000Y-5212000I55000J0D01*
G01*
X8145000Y-5411000D02*
X8255000Y-5521000D01*
X8255000Y-5411000D02*
X8145000Y-5521000D01*
X8255000Y-5466000D02*
G75*
G02*
X8145000Y-5466000I-55000J0D01*
G01*
X8145000Y-5466000D02*
G75*
G02*
X8255000Y-5466000I55000J0D01*
G01*
X8145000Y-5665000D02*
X8255000Y-5775000D01*
X8255000Y-5665000D02*
X8145000Y-5775000D01*
X8255000Y-5720000D02*
G75*
G02*
X8145000Y-5720000I-55000J0D01*
G01*
X8145000Y-5720000D02*
G75*
G02*
X8255000Y-5720000I55000J0D01*
G01*
X8145000Y-5919000D02*
X8255000Y-6029000D01*
X8255000Y-5919000D02*
X8145000Y-6029000D01*
X8255000Y-5974000D02*
G75*
G02*
X8145000Y-5974000I-55000J0D01*
G01*
X8145000Y-5974000D02*
G75*
G02*
X8255000Y-5974000I55000J0D01*
G01*
X8145000Y-6173000D02*
X8255000Y-6283000D01*
X8255000Y-6173000D02*
X8145000Y-6283000D01*
X8255000Y-6228000D02*
G75*
G02*
X8145000Y-6228000I-55000J0D01*
G01*
X8145000Y-6228000D02*
G75*
G02*
X8255000Y-6228000I55000J0D01*
G01*
X8145000Y-6427000D02*
X8255000Y-6537000D01*
X8255000Y-6427000D02*
X8145000Y-6537000D01*
X8255000Y-6482000D02*
G75*
G02*
X8145000Y-6482000I-55000J0D01*
G01*
X8145000Y-6482000D02*
G75*
G02*
X8255000Y-6482000I55000J0D01*
G01*
X8145000Y-6681000D02*
X8255000Y-6791000D01*
X8255000Y-6681000D02*
X8145000Y-6791000D01*
X8255000Y-6736000D02*
G75*
G02*
X8145000Y-6736000I-55000J0D01*
G01*
X8145000Y-6736000D02*
G75*
G02*
X8255000Y-6736000I55000J0D01*
G01*
X8145000Y-6935000D02*
X8255000Y-7045000D01*
X8255000Y-6935000D02*
X8145000Y-7045000D01*
X8255000Y-6990000D02*
G75*
G02*
X8145000Y-6990000I-55000J0D01*
G01*
X8145000Y-6990000D02*
G75*
G02*
X8255000Y-6990000I55000J0D01*
G01*
X8145000Y-7189000D02*
X8255000Y-7299000D01*
X8255000Y-7189000D02*
X8145000Y-7299000D01*
X8255000Y-7244000D02*
G75*
G02*
X8145000Y-7244000I-55000J0D01*
G01*
X8145000Y-7244000D02*
G75*
G02*
X8255000Y-7244000I55000J0D01*
G01*
X8145000Y-7443000D02*
X8255000Y-7553000D01*
X8255000Y-7443000D02*
X8145000Y-7553000D01*
X8255000Y-7498000D02*
G75*
G02*
X8145000Y-7498000I-55000J0D01*
G01*
X8145000Y-7498000D02*
G75*
G02*
X8255000Y-7498000I55000J0D01*
G01*
X8145000Y-7697000D02*
X8255000Y-7807000D01*
X8255000Y-7697000D02*
X8145000Y-7807000D01*
X8255000Y-7752000D02*
G75*
G02*
X8145000Y-7752000I-55000J0D01*
G01*
X8145000Y-7752000D02*
G75*
G02*
X8255000Y-7752000I55000J0D01*
G01*
X9591000Y-7620500D02*
X9701000Y-7730500D01*
X9701000Y-7620500D02*
X9591000Y-7730500D01*
X9701000Y-7675500D02*
G75*
G02*
X9591000Y-7675500I-55000J0D01*
G01*
X9591000Y-7675500D02*
G75*
G02*
X9701000Y-7675500I55000J0D01*
G01*
X9845000Y-7620500D02*
X9955000Y-7730500D01*
X9955000Y-7620500D02*
X9845000Y-7730500D01*
X9955000Y-7675500D02*
G75*
G02*
X9845000Y-7675500I-55000J0D01*
G01*
X9845000Y-7675500D02*
G75*
G02*
X9955000Y-7675500I55000J0D01*
G01*
X10099000Y-7620500D02*
X10209000Y-7730500D01*
X10209000Y-7620500D02*
X10099000Y-7730500D01*
X10209000Y-7675500D02*
G75*
G02*
X10099000Y-7675500I-55000J0D01*
G01*
X10099000Y-7675500D02*
G75*
G02*
X10209000Y-7675500I55000J0D01*
G01*
D13*
X9125000Y-5550000D02*
X9345000Y-5770000D01*
X9345000Y-5550000D02*
X9125000Y-5770000D01*
X9235000Y-5550000D02*
X9235000Y-5770000D01*
X9125000Y-5660000D02*
X9345000Y-5660000D01*
X12490000Y-5595000D02*
X12710000Y-5815000D01*
X12710000Y-5595000D02*
X12490000Y-5815000D01*
X12600000Y-5595000D02*
X12600000Y-5815000D01*
X12490000Y-5705000D02*
X12710000Y-5705000D01*
X12495000Y-7330000D02*
X12715000Y-7550000D01*
X12715000Y-7330000D02*
X12495000Y-7550000D01*
X12605000Y-7330000D02*
X12605000Y-7550000D01*
X12495000Y-7440000D02*
X12715000Y-7440000D01*
D11*
X8080777Y-8361484D02*
X8080777Y-8161484D01*
X8080777Y-8161484D02*
X8128396Y-8161484D01*
X8128396Y-8161484D02*
X8156967Y-8171008D01*
X8156967Y-8171008D02*
X8176015Y-8190055D01*
X8176015Y-8190055D02*
X8185539Y-8209103D01*
X8185539Y-8209103D02*
X8195062Y-8247198D01*
X8195062Y-8247198D02*
X8195062Y-8275769D01*
X8195062Y-8275769D02*
X8185539Y-8313865D01*
X8185539Y-8313865D02*
X8176015Y-8332912D01*
X8176015Y-8332912D02*
X8156967Y-8351960D01*
X8156967Y-8351960D02*
X8128396Y-8361484D01*
X8128396Y-8361484D02*
X8080777Y-8361484D01*
X8280777Y-8361484D02*
X8280777Y-8228150D01*
X8280777Y-8266246D02*
X8290301Y-8247198D01*
X8290301Y-8247198D02*
X8299824Y-8237674D01*
X8299824Y-8237674D02*
X8318872Y-8228150D01*
X8318872Y-8228150D02*
X8337920Y-8228150D01*
X8404586Y-8361484D02*
X8404586Y-8228150D01*
X8404586Y-8161484D02*
X8395063Y-8171008D01*
X8395063Y-8171008D02*
X8404586Y-8180531D01*
X8404586Y-8180531D02*
X8414110Y-8171008D01*
X8414110Y-8171008D02*
X8404586Y-8161484D01*
X8404586Y-8161484D02*
X8404586Y-8180531D01*
X8528396Y-8361484D02*
X8509348Y-8351960D01*
X8509348Y-8351960D02*
X8499824Y-8332912D01*
X8499824Y-8332912D02*
X8499824Y-8161484D01*
X8633158Y-8361484D02*
X8614110Y-8351960D01*
X8614110Y-8351960D02*
X8604586Y-8332912D01*
X8604586Y-8332912D02*
X8604586Y-8161484D01*
X8861729Y-8361484D02*
X8861729Y-8161484D01*
X8861729Y-8161484D02*
X8928396Y-8304341D01*
X8928396Y-8304341D02*
X8995063Y-8161484D01*
X8995063Y-8161484D02*
X8995063Y-8361484D01*
X9176015Y-8361484D02*
X9176015Y-8256722D01*
X9176015Y-8256722D02*
X9166491Y-8237674D01*
X9166491Y-8237674D02*
X9147444Y-8228150D01*
X9147444Y-8228150D02*
X9109348Y-8228150D01*
X9109348Y-8228150D02*
X9090301Y-8237674D01*
X9176015Y-8351960D02*
X9156967Y-8361484D01*
X9156967Y-8361484D02*
X9109348Y-8361484D01*
X9109348Y-8361484D02*
X9090301Y-8351960D01*
X9090301Y-8351960D02*
X9080777Y-8332912D01*
X9080777Y-8332912D02*
X9080777Y-8313865D01*
X9080777Y-8313865D02*
X9090301Y-8294817D01*
X9090301Y-8294817D02*
X9109348Y-8285293D01*
X9109348Y-8285293D02*
X9156967Y-8285293D01*
X9156967Y-8285293D02*
X9176015Y-8275769D01*
X9271253Y-8228150D02*
X9271253Y-8428150D01*
X9271253Y-8237674D02*
X9290301Y-8228150D01*
X9290301Y-8228150D02*
X9328396Y-8228150D01*
X9328396Y-8228150D02*
X9347444Y-8237674D01*
X9347444Y-8237674D02*
X9356967Y-8247198D01*
X9356967Y-8247198D02*
X9366491Y-8266246D01*
X9366491Y-8266246D02*
X9366491Y-8323388D01*
X9366491Y-8323388D02*
X9356967Y-8342436D01*
X9356967Y-8342436D02*
X9347444Y-8351960D01*
X9347444Y-8351960D02*
X9328396Y-8361484D01*
X9328396Y-8361484D02*
X9290301Y-8361484D01*
X9290301Y-8361484D02*
X9271253Y-8351960D01*
X9452205Y-8342436D02*
X9461729Y-8351960D01*
X9461729Y-8351960D02*
X9452205Y-8361484D01*
X9452205Y-8361484D02*
X9442682Y-8351960D01*
X9442682Y-8351960D02*
X9452205Y-8342436D01*
X9452205Y-8342436D02*
X9452205Y-8361484D01*
X9452205Y-8237674D02*
X9461729Y-8247198D01*
X9461729Y-8247198D02*
X9452205Y-8256722D01*
X9452205Y-8256722D02*
X9442682Y-8247198D01*
X9442682Y-8247198D02*
X9452205Y-8237674D01*
X9452205Y-8237674D02*
X9452205Y-8256722D01*
D10*
X7800000Y-8680000D02*
X7820000Y-8700000D01*
X7820000Y-8680000D02*
X7800000Y-8700000D01*
D11*
X8118872Y-8581484D02*
X8137920Y-8581484D01*
X8137920Y-8581484D02*
X8156967Y-8591008D01*
X8156967Y-8591008D02*
X8166491Y-8600531D01*
X8166491Y-8600531D02*
X8176015Y-8619579D01*
X8176015Y-8619579D02*
X8185539Y-8657674D01*
X8185539Y-8657674D02*
X8185539Y-8705293D01*
X8185539Y-8705293D02*
X8176015Y-8743389D01*
X8176015Y-8743389D02*
X8166491Y-8762436D01*
X8166491Y-8762436D02*
X8156967Y-8771960D01*
X8156967Y-8771960D02*
X8137920Y-8781484D01*
X8137920Y-8781484D02*
X8118872Y-8781484D01*
X8118872Y-8781484D02*
X8099824Y-8771960D01*
X8099824Y-8771960D02*
X8090301Y-8762436D01*
X8090301Y-8762436D02*
X8080777Y-8743389D01*
X8080777Y-8743389D02*
X8071253Y-8705293D01*
X8071253Y-8705293D02*
X8071253Y-8657674D01*
X8071253Y-8657674D02*
X8080777Y-8619579D01*
X8080777Y-8619579D02*
X8090301Y-8600531D01*
X8090301Y-8600531D02*
X8099824Y-8591008D01*
X8099824Y-8591008D02*
X8118872Y-8581484D01*
X8271253Y-8762436D02*
X8280777Y-8771960D01*
X8280777Y-8771960D02*
X8271253Y-8781484D01*
X8271253Y-8781484D02*
X8261729Y-8771960D01*
X8261729Y-8771960D02*
X8271253Y-8762436D01*
X8271253Y-8762436D02*
X8271253Y-8781484D01*
X8356967Y-8600531D02*
X8366491Y-8591008D01*
X8366491Y-8591008D02*
X8385539Y-8581484D01*
X8385539Y-8581484D02*
X8433158Y-8581484D01*
X8433158Y-8581484D02*
X8452205Y-8591008D01*
X8452205Y-8591008D02*
X8461729Y-8600531D01*
X8461729Y-8600531D02*
X8471253Y-8619579D01*
X8471253Y-8619579D02*
X8471253Y-8638627D01*
X8471253Y-8638627D02*
X8461729Y-8667198D01*
X8461729Y-8667198D02*
X8347443Y-8781484D01*
X8347443Y-8781484D02*
X8471253Y-8781484D01*
X8595063Y-8581484D02*
X8614110Y-8581484D01*
X8614110Y-8581484D02*
X8633158Y-8591008D01*
X8633158Y-8591008D02*
X8642682Y-8600531D01*
X8642682Y-8600531D02*
X8652205Y-8619579D01*
X8652205Y-8619579D02*
X8661729Y-8657674D01*
X8661729Y-8657674D02*
X8661729Y-8705293D01*
X8661729Y-8705293D02*
X8652205Y-8743389D01*
X8652205Y-8743389D02*
X8642682Y-8762436D01*
X8642682Y-8762436D02*
X8633158Y-8771960D01*
X8633158Y-8771960D02*
X8614110Y-8781484D01*
X8614110Y-8781484D02*
X8595063Y-8781484D01*
X8595063Y-8781484D02*
X8576015Y-8771960D01*
X8576015Y-8771960D02*
X8566491Y-8762436D01*
X8566491Y-8762436D02*
X8556967Y-8743389D01*
X8556967Y-8743389D02*
X8547444Y-8705293D01*
X8547444Y-8705293D02*
X8547444Y-8657674D01*
X8547444Y-8657674D02*
X8556967Y-8619579D01*
X8556967Y-8619579D02*
X8566491Y-8600531D01*
X8566491Y-8600531D02*
X8576015Y-8591008D01*
X8576015Y-8591008D02*
X8595063Y-8581484D01*
X8785539Y-8581484D02*
X8804586Y-8581484D01*
X8804586Y-8581484D02*
X8823634Y-8591008D01*
X8823634Y-8591008D02*
X8833158Y-8600531D01*
X8833158Y-8600531D02*
X8842682Y-8619579D01*
X8842682Y-8619579D02*
X8852205Y-8657674D01*
X8852205Y-8657674D02*
X8852205Y-8705293D01*
X8852205Y-8705293D02*
X8842682Y-8743389D01*
X8842682Y-8743389D02*
X8833158Y-8762436D01*
X8833158Y-8762436D02*
X8823634Y-8771960D01*
X8823634Y-8771960D02*
X8804586Y-8781484D01*
X8804586Y-8781484D02*
X8785539Y-8781484D01*
X8785539Y-8781484D02*
X8766491Y-8771960D01*
X8766491Y-8771960D02*
X8756967Y-8762436D01*
X8756967Y-8762436D02*
X8747444Y-8743389D01*
X8747444Y-8743389D02*
X8737920Y-8705293D01*
X8737920Y-8705293D02*
X8737920Y-8657674D01*
X8737920Y-8657674D02*
X8747444Y-8619579D01*
X8747444Y-8619579D02*
X8756967Y-8600531D01*
X8756967Y-8600531D02*
X8766491Y-8591008D01*
X8766491Y-8591008D02*
X8785539Y-8581484D01*
X8937920Y-8781484D02*
X8937920Y-8648150D01*
X8937920Y-8667198D02*
X8947444Y-8657674D01*
X8947444Y-8657674D02*
X8966491Y-8648150D01*
X8966491Y-8648150D02*
X8995063Y-8648150D01*
X8995063Y-8648150D02*
X9014110Y-8657674D01*
X9014110Y-8657674D02*
X9023634Y-8676722D01*
X9023634Y-8676722D02*
X9023634Y-8781484D01*
X9023634Y-8676722D02*
X9033158Y-8657674D01*
X9033158Y-8657674D02*
X9052205Y-8648150D01*
X9052205Y-8648150D02*
X9080777Y-8648150D01*
X9080777Y-8648150D02*
X9099825Y-8657674D01*
X9099825Y-8657674D02*
X9109348Y-8676722D01*
X9109348Y-8676722D02*
X9109348Y-8781484D01*
X9204586Y-8781484D02*
X9204586Y-8648150D01*
X9204586Y-8667198D02*
X9214110Y-8657674D01*
X9214110Y-8657674D02*
X9233158Y-8648150D01*
X9233158Y-8648150D02*
X9261729Y-8648150D01*
X9261729Y-8648150D02*
X9280777Y-8657674D01*
X9280777Y-8657674D02*
X9290301Y-8676722D01*
X9290301Y-8676722D02*
X9290301Y-8781484D01*
X9290301Y-8676722D02*
X9299825Y-8657674D01*
X9299825Y-8657674D02*
X9318872Y-8648150D01*
X9318872Y-8648150D02*
X9347444Y-8648150D01*
X9347444Y-8648150D02*
X9366491Y-8657674D01*
X9366491Y-8657674D02*
X9376015Y-8676722D01*
X9376015Y-8676722D02*
X9376015Y-8781484D01*
X9766491Y-8571960D02*
X9595063Y-8829103D01*
X10023634Y-8581484D02*
X10042682Y-8581484D01*
X10042682Y-8581484D02*
X10061729Y-8591008D01*
X10061729Y-8591008D02*
X10071253Y-8600531D01*
X10071253Y-8600531D02*
X10080777Y-8619579D01*
X10080777Y-8619579D02*
X10090301Y-8657674D01*
X10090301Y-8657674D02*
X10090301Y-8705293D01*
X10090301Y-8705293D02*
X10080777Y-8743389D01*
X10080777Y-8743389D02*
X10071253Y-8762436D01*
X10071253Y-8762436D02*
X10061729Y-8771960D01*
X10061729Y-8771960D02*
X10042682Y-8781484D01*
X10042682Y-8781484D02*
X10023634Y-8781484D01*
X10023634Y-8781484D02*
X10004587Y-8771960D01*
X10004587Y-8771960D02*
X9995063Y-8762436D01*
X9995063Y-8762436D02*
X9985539Y-8743389D01*
X9985539Y-8743389D02*
X9976015Y-8705293D01*
X9976015Y-8705293D02*
X9976015Y-8657674D01*
X9976015Y-8657674D02*
X9985539Y-8619579D01*
X9985539Y-8619579D02*
X9995063Y-8600531D01*
X9995063Y-8600531D02*
X10004587Y-8591008D01*
X10004587Y-8591008D02*
X10023634Y-8581484D01*
X10176015Y-8762436D02*
X10185539Y-8771960D01*
X10185539Y-8771960D02*
X10176015Y-8781484D01*
X10176015Y-8781484D02*
X10166491Y-8771960D01*
X10166491Y-8771960D02*
X10176015Y-8762436D01*
X10176015Y-8762436D02*
X10176015Y-8781484D01*
X10309348Y-8581484D02*
X10328396Y-8581484D01*
X10328396Y-8581484D02*
X10347444Y-8591008D01*
X10347444Y-8591008D02*
X10356968Y-8600531D01*
X10356968Y-8600531D02*
X10366491Y-8619579D01*
X10366491Y-8619579D02*
X10376015Y-8657674D01*
X10376015Y-8657674D02*
X10376015Y-8705293D01*
X10376015Y-8705293D02*
X10366491Y-8743389D01*
X10366491Y-8743389D02*
X10356968Y-8762436D01*
X10356968Y-8762436D02*
X10347444Y-8771960D01*
X10347444Y-8771960D02*
X10328396Y-8781484D01*
X10328396Y-8781484D02*
X10309348Y-8781484D01*
X10309348Y-8781484D02*
X10290301Y-8771960D01*
X10290301Y-8771960D02*
X10280777Y-8762436D01*
X10280777Y-8762436D02*
X10271253Y-8743389D01*
X10271253Y-8743389D02*
X10261729Y-8705293D01*
X10261729Y-8705293D02*
X10261729Y-8657674D01*
X10261729Y-8657674D02*
X10271253Y-8619579D01*
X10271253Y-8619579D02*
X10280777Y-8600531D01*
X10280777Y-8600531D02*
X10290301Y-8591008D01*
X10290301Y-8591008D02*
X10309348Y-8581484D01*
X10499825Y-8581484D02*
X10518872Y-8581484D01*
X10518872Y-8581484D02*
X10537920Y-8591008D01*
X10537920Y-8591008D02*
X10547444Y-8600531D01*
X10547444Y-8600531D02*
X10556968Y-8619579D01*
X10556968Y-8619579D02*
X10566491Y-8657674D01*
X10566491Y-8657674D02*
X10566491Y-8705293D01*
X10566491Y-8705293D02*
X10556968Y-8743389D01*
X10556968Y-8743389D02*
X10547444Y-8762436D01*
X10547444Y-8762436D02*
X10537920Y-8771960D01*
X10537920Y-8771960D02*
X10518872Y-8781484D01*
X10518872Y-8781484D02*
X10499825Y-8781484D01*
X10499825Y-8781484D02*
X10480777Y-8771960D01*
X10480777Y-8771960D02*
X10471253Y-8762436D01*
X10471253Y-8762436D02*
X10461729Y-8743389D01*
X10461729Y-8743389D02*
X10452206Y-8705293D01*
X10452206Y-8705293D02*
X10452206Y-8657674D01*
X10452206Y-8657674D02*
X10461729Y-8619579D01*
X10461729Y-8619579D02*
X10471253Y-8600531D01*
X10471253Y-8600531D02*
X10480777Y-8591008D01*
X10480777Y-8591008D02*
X10499825Y-8581484D01*
X10633158Y-8581484D02*
X10766491Y-8581484D01*
X10766491Y-8581484D02*
X10680777Y-8781484D01*
X10852206Y-8781484D02*
X10890301Y-8781484D01*
X10890301Y-8781484D02*
X10909349Y-8771960D01*
X10909349Y-8771960D02*
X10918872Y-8762436D01*
X10918872Y-8762436D02*
X10937920Y-8733865D01*
X10937920Y-8733865D02*
X10947444Y-8695770D01*
X10947444Y-8695770D02*
X10947444Y-8619579D01*
X10947444Y-8619579D02*
X10937920Y-8600531D01*
X10937920Y-8600531D02*
X10928396Y-8591008D01*
X10928396Y-8591008D02*
X10909349Y-8581484D01*
X10909349Y-8581484D02*
X10871253Y-8581484D01*
X10871253Y-8581484D02*
X10852206Y-8591008D01*
X10852206Y-8591008D02*
X10842682Y-8600531D01*
X10842682Y-8600531D02*
X10833158Y-8619579D01*
X10833158Y-8619579D02*
X10833158Y-8667198D01*
X10833158Y-8667198D02*
X10842682Y-8686246D01*
X10842682Y-8686246D02*
X10852206Y-8695770D01*
X10852206Y-8695770D02*
X10871253Y-8705293D01*
X10871253Y-8705293D02*
X10909349Y-8705293D01*
X10909349Y-8705293D02*
X10928396Y-8695770D01*
X10928396Y-8695770D02*
X10937920Y-8686246D01*
X10937920Y-8686246D02*
X10947444Y-8667198D01*
X11023634Y-8581484D02*
X11023634Y-8619579D01*
X11099825Y-8581484D02*
X11099825Y-8619579D01*
X11395063Y-8857674D02*
X11385539Y-8848150D01*
X11385539Y-8848150D02*
X11366491Y-8819579D01*
X11366491Y-8819579D02*
X11356968Y-8800531D01*
X11356968Y-8800531D02*
X11347444Y-8771960D01*
X11347444Y-8771960D02*
X11337920Y-8724341D01*
X11337920Y-8724341D02*
X11337920Y-8686246D01*
X11337920Y-8686246D02*
X11347444Y-8638627D01*
X11347444Y-8638627D02*
X11356968Y-8610055D01*
X11356968Y-8610055D02*
X11366491Y-8591008D01*
X11366491Y-8591008D02*
X11385539Y-8562436D01*
X11385539Y-8562436D02*
X11395063Y-8552912D01*
X11576015Y-8781484D02*
X11461729Y-8781484D01*
X11518872Y-8781484D02*
X11518872Y-8581484D01*
X11518872Y-8581484D02*
X11499825Y-8610055D01*
X11499825Y-8610055D02*
X11480777Y-8629103D01*
X11480777Y-8629103D02*
X11461729Y-8638627D01*
X11756968Y-8581484D02*
X11661729Y-8581484D01*
X11661729Y-8581484D02*
X11652206Y-8676722D01*
X11652206Y-8676722D02*
X11661729Y-8667198D01*
X11661729Y-8667198D02*
X11680777Y-8657674D01*
X11680777Y-8657674D02*
X11728396Y-8657674D01*
X11728396Y-8657674D02*
X11747444Y-8667198D01*
X11747444Y-8667198D02*
X11756968Y-8676722D01*
X11756968Y-8676722D02*
X11766491Y-8695770D01*
X11766491Y-8695770D02*
X11766491Y-8743389D01*
X11766491Y-8743389D02*
X11756968Y-8762436D01*
X11756968Y-8762436D02*
X11747444Y-8771960D01*
X11747444Y-8771960D02*
X11728396Y-8781484D01*
X11728396Y-8781484D02*
X11680777Y-8781484D01*
X11680777Y-8781484D02*
X11661729Y-8771960D01*
X11661729Y-8771960D02*
X11652206Y-8762436D01*
X11833158Y-8581484D02*
X11966491Y-8581484D01*
X11966491Y-8581484D02*
X11880777Y-8781484D01*
X12195063Y-8781484D02*
X12195063Y-8581484D01*
X12280777Y-8781484D02*
X12280777Y-8676722D01*
X12280777Y-8676722D02*
X12271253Y-8657674D01*
X12271253Y-8657674D02*
X12252206Y-8648150D01*
X12252206Y-8648150D02*
X12223634Y-8648150D01*
X12223634Y-8648150D02*
X12204587Y-8657674D01*
X12204587Y-8657674D02*
X12195063Y-8667198D01*
X12404587Y-8781484D02*
X12385539Y-8771960D01*
X12385539Y-8771960D02*
X12376015Y-8762436D01*
X12376015Y-8762436D02*
X12366491Y-8743389D01*
X12366491Y-8743389D02*
X12366491Y-8686246D01*
X12366491Y-8686246D02*
X12376015Y-8667198D01*
X12376015Y-8667198D02*
X12385539Y-8657674D01*
X12385539Y-8657674D02*
X12404587Y-8648150D01*
X12404587Y-8648150D02*
X12433158Y-8648150D01*
X12433158Y-8648150D02*
X12452206Y-8657674D01*
X12452206Y-8657674D02*
X12461730Y-8667198D01*
X12461730Y-8667198D02*
X12471253Y-8686246D01*
X12471253Y-8686246D02*
X12471253Y-8743389D01*
X12471253Y-8743389D02*
X12461730Y-8762436D01*
X12461730Y-8762436D02*
X12452206Y-8771960D01*
X12452206Y-8771960D02*
X12433158Y-8781484D01*
X12433158Y-8781484D02*
X12404587Y-8781484D01*
X12585539Y-8781484D02*
X12566491Y-8771960D01*
X12566491Y-8771960D02*
X12556968Y-8752912D01*
X12556968Y-8752912D02*
X12556968Y-8581484D01*
X12737920Y-8771960D02*
X12718872Y-8781484D01*
X12718872Y-8781484D02*
X12680777Y-8781484D01*
X12680777Y-8781484D02*
X12661730Y-8771960D01*
X12661730Y-8771960D02*
X12652206Y-8752912D01*
X12652206Y-8752912D02*
X12652206Y-8676722D01*
X12652206Y-8676722D02*
X12661730Y-8657674D01*
X12661730Y-8657674D02*
X12680777Y-8648150D01*
X12680777Y-8648150D02*
X12718872Y-8648150D01*
X12718872Y-8648150D02*
X12737920Y-8657674D01*
X12737920Y-8657674D02*
X12747444Y-8676722D01*
X12747444Y-8676722D02*
X12747444Y-8695770D01*
X12747444Y-8695770D02*
X12652206Y-8714817D01*
X12823634Y-8771960D02*
X12842682Y-8781484D01*
X12842682Y-8781484D02*
X12880777Y-8781484D01*
X12880777Y-8781484D02*
X12899825Y-8771960D01*
X12899825Y-8771960D02*
X12909349Y-8752912D01*
X12909349Y-8752912D02*
X12909349Y-8743389D01*
X12909349Y-8743389D02*
X12899825Y-8724341D01*
X12899825Y-8724341D02*
X12880777Y-8714817D01*
X12880777Y-8714817D02*
X12852206Y-8714817D01*
X12852206Y-8714817D02*
X12833158Y-8705293D01*
X12833158Y-8705293D02*
X12823634Y-8686246D01*
X12823634Y-8686246D02*
X12823634Y-8676722D01*
X12823634Y-8676722D02*
X12833158Y-8657674D01*
X12833158Y-8657674D02*
X12852206Y-8648150D01*
X12852206Y-8648150D02*
X12880777Y-8648150D01*
X12880777Y-8648150D02*
X12899825Y-8657674D01*
X12976015Y-8857674D02*
X12985539Y-8848150D01*
X12985539Y-8848150D02*
X13004587Y-8819579D01*
X13004587Y-8819579D02*
X13014111Y-8800531D01*
X13014111Y-8800531D02*
X13023634Y-8771960D01*
X13023634Y-8771960D02*
X13033158Y-8724341D01*
X13033158Y-8724341D02*
X13033158Y-8686246D01*
X13033158Y-8686246D02*
X13023634Y-8638627D01*
X13023634Y-8638627D02*
X13014111Y-8610055D01*
X13014111Y-8610055D02*
X13004587Y-8591008D01*
X13004587Y-8591008D02*
X12985539Y-8562436D01*
X12985539Y-8562436D02*
X12976015Y-8552912D01*
D10*
X7820000Y-8954000D02*
G75*
G02*
X7780000Y-8954000I-20000J0D01*
G01*
X7780000Y-8954000D02*
G75*
G02*
X7820000Y-8954000I20000J0D01*
G01*
D11*
X8118872Y-8845484D02*
X8137920Y-8845484D01*
X8137920Y-8845484D02*
X8156967Y-8855008D01*
X8156967Y-8855008D02*
X8166491Y-8864531D01*
X8166491Y-8864531D02*
X8176015Y-8883579D01*
X8176015Y-8883579D02*
X8185539Y-8921674D01*
X8185539Y-8921674D02*
X8185539Y-8969293D01*
X8185539Y-8969293D02*
X8176015Y-9007389D01*
X8176015Y-9007389D02*
X8166491Y-9026436D01*
X8166491Y-9026436D02*
X8156967Y-9035960D01*
X8156967Y-9035960D02*
X8137920Y-9045484D01*
X8137920Y-9045484D02*
X8118872Y-9045484D01*
X8118872Y-9045484D02*
X8099824Y-9035960D01*
X8099824Y-9035960D02*
X8090301Y-9026436D01*
X8090301Y-9026436D02*
X8080777Y-9007389D01*
X8080777Y-9007389D02*
X8071253Y-8969293D01*
X8071253Y-8969293D02*
X8071253Y-8921674D01*
X8071253Y-8921674D02*
X8080777Y-8883579D01*
X8080777Y-8883579D02*
X8090301Y-8864531D01*
X8090301Y-8864531D02*
X8099824Y-8855008D01*
X8099824Y-8855008D02*
X8118872Y-8845484D01*
X8271253Y-9026436D02*
X8280777Y-9035960D01*
X8280777Y-9035960D02*
X8271253Y-9045484D01*
X8271253Y-9045484D02*
X8261729Y-9035960D01*
X8261729Y-9035960D02*
X8271253Y-9026436D01*
X8271253Y-9026436D02*
X8271253Y-9045484D01*
X8452205Y-8912150D02*
X8452205Y-9045484D01*
X8404586Y-8835960D02*
X8356967Y-8978817D01*
X8356967Y-8978817D02*
X8480777Y-8978817D01*
X8595063Y-8845484D02*
X8614110Y-8845484D01*
X8614110Y-8845484D02*
X8633158Y-8855008D01*
X8633158Y-8855008D02*
X8642682Y-8864531D01*
X8642682Y-8864531D02*
X8652205Y-8883579D01*
X8652205Y-8883579D02*
X8661729Y-8921674D01*
X8661729Y-8921674D02*
X8661729Y-8969293D01*
X8661729Y-8969293D02*
X8652205Y-9007389D01*
X8652205Y-9007389D02*
X8642682Y-9026436D01*
X8642682Y-9026436D02*
X8633158Y-9035960D01*
X8633158Y-9035960D02*
X8614110Y-9045484D01*
X8614110Y-9045484D02*
X8595063Y-9045484D01*
X8595063Y-9045484D02*
X8576015Y-9035960D01*
X8576015Y-9035960D02*
X8566491Y-9026436D01*
X8566491Y-9026436D02*
X8556967Y-9007389D01*
X8556967Y-9007389D02*
X8547444Y-8969293D01*
X8547444Y-8969293D02*
X8547444Y-8921674D01*
X8547444Y-8921674D02*
X8556967Y-8883579D01*
X8556967Y-8883579D02*
X8566491Y-8864531D01*
X8566491Y-8864531D02*
X8576015Y-8855008D01*
X8576015Y-8855008D02*
X8595063Y-8845484D01*
X8785539Y-8845484D02*
X8804586Y-8845484D01*
X8804586Y-8845484D02*
X8823634Y-8855008D01*
X8823634Y-8855008D02*
X8833158Y-8864531D01*
X8833158Y-8864531D02*
X8842682Y-8883579D01*
X8842682Y-8883579D02*
X8852205Y-8921674D01*
X8852205Y-8921674D02*
X8852205Y-8969293D01*
X8852205Y-8969293D02*
X8842682Y-9007389D01*
X8842682Y-9007389D02*
X8833158Y-9026436D01*
X8833158Y-9026436D02*
X8823634Y-9035960D01*
X8823634Y-9035960D02*
X8804586Y-9045484D01*
X8804586Y-9045484D02*
X8785539Y-9045484D01*
X8785539Y-9045484D02*
X8766491Y-9035960D01*
X8766491Y-9035960D02*
X8756967Y-9026436D01*
X8756967Y-9026436D02*
X8747444Y-9007389D01*
X8747444Y-9007389D02*
X8737920Y-8969293D01*
X8737920Y-8969293D02*
X8737920Y-8921674D01*
X8737920Y-8921674D02*
X8747444Y-8883579D01*
X8747444Y-8883579D02*
X8756967Y-8864531D01*
X8756967Y-8864531D02*
X8766491Y-8855008D01*
X8766491Y-8855008D02*
X8785539Y-8845484D01*
X8937920Y-9045484D02*
X8937920Y-8912150D01*
X8937920Y-8931198D02*
X8947444Y-8921674D01*
X8947444Y-8921674D02*
X8966491Y-8912150D01*
X8966491Y-8912150D02*
X8995063Y-8912150D01*
X8995063Y-8912150D02*
X9014110Y-8921674D01*
X9014110Y-8921674D02*
X9023634Y-8940722D01*
X9023634Y-8940722D02*
X9023634Y-9045484D01*
X9023634Y-8940722D02*
X9033158Y-8921674D01*
X9033158Y-8921674D02*
X9052205Y-8912150D01*
X9052205Y-8912150D02*
X9080777Y-8912150D01*
X9080777Y-8912150D02*
X9099825Y-8921674D01*
X9099825Y-8921674D02*
X9109348Y-8940722D01*
X9109348Y-8940722D02*
X9109348Y-9045484D01*
X9204586Y-9045484D02*
X9204586Y-8912150D01*
X9204586Y-8931198D02*
X9214110Y-8921674D01*
X9214110Y-8921674D02*
X9233158Y-8912150D01*
X9233158Y-8912150D02*
X9261729Y-8912150D01*
X9261729Y-8912150D02*
X9280777Y-8921674D01*
X9280777Y-8921674D02*
X9290301Y-8940722D01*
X9290301Y-8940722D02*
X9290301Y-9045484D01*
X9290301Y-8940722D02*
X9299825Y-8921674D01*
X9299825Y-8921674D02*
X9318872Y-8912150D01*
X9318872Y-8912150D02*
X9347444Y-8912150D01*
X9347444Y-8912150D02*
X9366491Y-8921674D01*
X9366491Y-8921674D02*
X9376015Y-8940722D01*
X9376015Y-8940722D02*
X9376015Y-9045484D01*
X9766491Y-8835960D02*
X9595063Y-9093103D01*
X10023634Y-8845484D02*
X10042682Y-8845484D01*
X10042682Y-8845484D02*
X10061729Y-8855008D01*
X10061729Y-8855008D02*
X10071253Y-8864531D01*
X10071253Y-8864531D02*
X10080777Y-8883579D01*
X10080777Y-8883579D02*
X10090301Y-8921674D01*
X10090301Y-8921674D02*
X10090301Y-8969293D01*
X10090301Y-8969293D02*
X10080777Y-9007389D01*
X10080777Y-9007389D02*
X10071253Y-9026436D01*
X10071253Y-9026436D02*
X10061729Y-9035960D01*
X10061729Y-9035960D02*
X10042682Y-9045484D01*
X10042682Y-9045484D02*
X10023634Y-9045484D01*
X10023634Y-9045484D02*
X10004587Y-9035960D01*
X10004587Y-9035960D02*
X9995063Y-9026436D01*
X9995063Y-9026436D02*
X9985539Y-9007389D01*
X9985539Y-9007389D02*
X9976015Y-8969293D01*
X9976015Y-8969293D02*
X9976015Y-8921674D01*
X9976015Y-8921674D02*
X9985539Y-8883579D01*
X9985539Y-8883579D02*
X9995063Y-8864531D01*
X9995063Y-8864531D02*
X10004587Y-8855008D01*
X10004587Y-8855008D02*
X10023634Y-8845484D01*
X10176015Y-9026436D02*
X10185539Y-9035960D01*
X10185539Y-9035960D02*
X10176015Y-9045484D01*
X10176015Y-9045484D02*
X10166491Y-9035960D01*
X10166491Y-9035960D02*
X10176015Y-9026436D01*
X10176015Y-9026436D02*
X10176015Y-9045484D01*
X10309348Y-8845484D02*
X10328396Y-8845484D01*
X10328396Y-8845484D02*
X10347444Y-8855008D01*
X10347444Y-8855008D02*
X10356968Y-8864531D01*
X10356968Y-8864531D02*
X10366491Y-8883579D01*
X10366491Y-8883579D02*
X10376015Y-8921674D01*
X10376015Y-8921674D02*
X10376015Y-8969293D01*
X10376015Y-8969293D02*
X10366491Y-9007389D01*
X10366491Y-9007389D02*
X10356968Y-9026436D01*
X10356968Y-9026436D02*
X10347444Y-9035960D01*
X10347444Y-9035960D02*
X10328396Y-9045484D01*
X10328396Y-9045484D02*
X10309348Y-9045484D01*
X10309348Y-9045484D02*
X10290301Y-9035960D01*
X10290301Y-9035960D02*
X10280777Y-9026436D01*
X10280777Y-9026436D02*
X10271253Y-9007389D01*
X10271253Y-9007389D02*
X10261729Y-8969293D01*
X10261729Y-8969293D02*
X10261729Y-8921674D01*
X10261729Y-8921674D02*
X10271253Y-8883579D01*
X10271253Y-8883579D02*
X10280777Y-8864531D01*
X10280777Y-8864531D02*
X10290301Y-8855008D01*
X10290301Y-8855008D02*
X10309348Y-8845484D01*
X10566491Y-9045484D02*
X10452206Y-9045484D01*
X10509348Y-9045484D02*
X10509348Y-8845484D01*
X10509348Y-8845484D02*
X10490301Y-8874055D01*
X10490301Y-8874055D02*
X10471253Y-8893103D01*
X10471253Y-8893103D02*
X10452206Y-8902627D01*
X10747444Y-8845484D02*
X10652206Y-8845484D01*
X10652206Y-8845484D02*
X10642682Y-8940722D01*
X10642682Y-8940722D02*
X10652206Y-8931198D01*
X10652206Y-8931198D02*
X10671253Y-8921674D01*
X10671253Y-8921674D02*
X10718872Y-8921674D01*
X10718872Y-8921674D02*
X10737920Y-8931198D01*
X10737920Y-8931198D02*
X10747444Y-8940722D01*
X10747444Y-8940722D02*
X10756968Y-8959770D01*
X10756968Y-8959770D02*
X10756968Y-9007389D01*
X10756968Y-9007389D02*
X10747444Y-9026436D01*
X10747444Y-9026436D02*
X10737920Y-9035960D01*
X10737920Y-9035960D02*
X10718872Y-9045484D01*
X10718872Y-9045484D02*
X10671253Y-9045484D01*
X10671253Y-9045484D02*
X10652206Y-9035960D01*
X10652206Y-9035960D02*
X10642682Y-9026436D01*
X10823634Y-8845484D02*
X10956968Y-8845484D01*
X10956968Y-8845484D02*
X10871253Y-9045484D01*
X11023634Y-8845484D02*
X11023634Y-8883579D01*
X11099825Y-8845484D02*
X11099825Y-8883579D01*
X11395063Y-9121674D02*
X11385539Y-9112150D01*
X11385539Y-9112150D02*
X11366491Y-9083579D01*
X11366491Y-9083579D02*
X11356968Y-9064531D01*
X11356968Y-9064531D02*
X11347444Y-9035960D01*
X11347444Y-9035960D02*
X11337920Y-8988341D01*
X11337920Y-8988341D02*
X11337920Y-8950246D01*
X11337920Y-8950246D02*
X11347444Y-8902627D01*
X11347444Y-8902627D02*
X11356968Y-8874055D01*
X11356968Y-8874055D02*
X11366491Y-8855008D01*
X11366491Y-8855008D02*
X11385539Y-8826436D01*
X11385539Y-8826436D02*
X11395063Y-8816912D01*
X11576015Y-9045484D02*
X11461729Y-9045484D01*
X11518872Y-9045484D02*
X11518872Y-8845484D01*
X11518872Y-8845484D02*
X11499825Y-8874055D01*
X11499825Y-8874055D02*
X11480777Y-8893103D01*
X11480777Y-8893103D02*
X11461729Y-8902627D01*
X11814110Y-9045484D02*
X11814110Y-8845484D01*
X11899825Y-9045484D02*
X11899825Y-8940722D01*
X11899825Y-8940722D02*
X11890301Y-8921674D01*
X11890301Y-8921674D02*
X11871253Y-8912150D01*
X11871253Y-8912150D02*
X11842682Y-8912150D01*
X11842682Y-8912150D02*
X11823634Y-8921674D01*
X11823634Y-8921674D02*
X11814110Y-8931198D01*
X12023634Y-9045484D02*
X12004587Y-9035960D01*
X12004587Y-9035960D02*
X11995063Y-9026436D01*
X11995063Y-9026436D02*
X11985539Y-9007389D01*
X11985539Y-9007389D02*
X11985539Y-8950246D01*
X11985539Y-8950246D02*
X11995063Y-8931198D01*
X11995063Y-8931198D02*
X12004587Y-8921674D01*
X12004587Y-8921674D02*
X12023634Y-8912150D01*
X12023634Y-8912150D02*
X12052206Y-8912150D01*
X12052206Y-8912150D02*
X12071253Y-8921674D01*
X12071253Y-8921674D02*
X12080777Y-8931198D01*
X12080777Y-8931198D02*
X12090301Y-8950246D01*
X12090301Y-8950246D02*
X12090301Y-9007389D01*
X12090301Y-9007389D02*
X12080777Y-9026436D01*
X12080777Y-9026436D02*
X12071253Y-9035960D01*
X12071253Y-9035960D02*
X12052206Y-9045484D01*
X12052206Y-9045484D02*
X12023634Y-9045484D01*
X12204587Y-9045484D02*
X12185539Y-9035960D01*
X12185539Y-9035960D02*
X12176015Y-9016912D01*
X12176015Y-9016912D02*
X12176015Y-8845484D01*
X12356968Y-9035960D02*
X12337920Y-9045484D01*
X12337920Y-9045484D02*
X12299825Y-9045484D01*
X12299825Y-9045484D02*
X12280777Y-9035960D01*
X12280777Y-9035960D02*
X12271253Y-9016912D01*
X12271253Y-9016912D02*
X12271253Y-8940722D01*
X12271253Y-8940722D02*
X12280777Y-8921674D01*
X12280777Y-8921674D02*
X12299825Y-8912150D01*
X12299825Y-8912150D02*
X12337920Y-8912150D01*
X12337920Y-8912150D02*
X12356968Y-8921674D01*
X12356968Y-8921674D02*
X12366491Y-8940722D01*
X12366491Y-8940722D02*
X12366491Y-8959770D01*
X12366491Y-8959770D02*
X12271253Y-8978817D01*
X12433158Y-9121674D02*
X12442682Y-9112150D01*
X12442682Y-9112150D02*
X12461730Y-9083579D01*
X12461730Y-9083579D02*
X12471253Y-9064531D01*
X12471253Y-9064531D02*
X12480777Y-9035960D01*
X12480777Y-9035960D02*
X12490301Y-8988341D01*
X12490301Y-8988341D02*
X12490301Y-8950246D01*
X12490301Y-8950246D02*
X12480777Y-8902627D01*
X12480777Y-8902627D02*
X12471253Y-8874055D01*
X12471253Y-8874055D02*
X12461730Y-8855008D01*
X12461730Y-8855008D02*
X12442682Y-8826436D01*
X12442682Y-8826436D02*
X12433158Y-8816912D01*
D10*
X7797500Y-9195500D02*
X7797500Y-9240500D01*
X7775000Y-9218000D02*
X7820000Y-9218000D01*
D11*
X8118872Y-9109484D02*
X8137920Y-9109484D01*
X8137920Y-9109484D02*
X8156967Y-9119008D01*
X8156967Y-9119008D02*
X8166491Y-9128531D01*
X8166491Y-9128531D02*
X8176015Y-9147579D01*
X8176015Y-9147579D02*
X8185539Y-9185674D01*
X8185539Y-9185674D02*
X8185539Y-9233293D01*
X8185539Y-9233293D02*
X8176015Y-9271389D01*
X8176015Y-9271389D02*
X8166491Y-9290436D01*
X8166491Y-9290436D02*
X8156967Y-9299960D01*
X8156967Y-9299960D02*
X8137920Y-9309484D01*
X8137920Y-9309484D02*
X8118872Y-9309484D01*
X8118872Y-9309484D02*
X8099824Y-9299960D01*
X8099824Y-9299960D02*
X8090301Y-9290436D01*
X8090301Y-9290436D02*
X8080777Y-9271389D01*
X8080777Y-9271389D02*
X8071253Y-9233293D01*
X8071253Y-9233293D02*
X8071253Y-9185674D01*
X8071253Y-9185674D02*
X8080777Y-9147579D01*
X8080777Y-9147579D02*
X8090301Y-9128531D01*
X8090301Y-9128531D02*
X8099824Y-9119008D01*
X8099824Y-9119008D02*
X8118872Y-9109484D01*
X8271253Y-9290436D02*
X8280777Y-9299960D01*
X8280777Y-9299960D02*
X8271253Y-9309484D01*
X8271253Y-9309484D02*
X8261729Y-9299960D01*
X8261729Y-9299960D02*
X8271253Y-9290436D01*
X8271253Y-9290436D02*
X8271253Y-9309484D01*
X8452205Y-9176150D02*
X8452205Y-9309484D01*
X8404586Y-9099960D02*
X8356967Y-9242817D01*
X8356967Y-9242817D02*
X8480777Y-9242817D01*
X8652205Y-9109484D02*
X8556967Y-9109484D01*
X8556967Y-9109484D02*
X8547444Y-9204722D01*
X8547444Y-9204722D02*
X8556967Y-9195198D01*
X8556967Y-9195198D02*
X8576015Y-9185674D01*
X8576015Y-9185674D02*
X8623634Y-9185674D01*
X8623634Y-9185674D02*
X8642682Y-9195198D01*
X8642682Y-9195198D02*
X8652205Y-9204722D01*
X8652205Y-9204722D02*
X8661729Y-9223770D01*
X8661729Y-9223770D02*
X8661729Y-9271389D01*
X8661729Y-9271389D02*
X8652205Y-9290436D01*
X8652205Y-9290436D02*
X8642682Y-9299960D01*
X8642682Y-9299960D02*
X8623634Y-9309484D01*
X8623634Y-9309484D02*
X8576015Y-9309484D01*
X8576015Y-9309484D02*
X8556967Y-9299960D01*
X8556967Y-9299960D02*
X8547444Y-9290436D01*
X8785539Y-9109484D02*
X8804586Y-9109484D01*
X8804586Y-9109484D02*
X8823634Y-9119008D01*
X8823634Y-9119008D02*
X8833158Y-9128531D01*
X8833158Y-9128531D02*
X8842682Y-9147579D01*
X8842682Y-9147579D02*
X8852205Y-9185674D01*
X8852205Y-9185674D02*
X8852205Y-9233293D01*
X8852205Y-9233293D02*
X8842682Y-9271389D01*
X8842682Y-9271389D02*
X8833158Y-9290436D01*
X8833158Y-9290436D02*
X8823634Y-9299960D01*
X8823634Y-9299960D02*
X8804586Y-9309484D01*
X8804586Y-9309484D02*
X8785539Y-9309484D01*
X8785539Y-9309484D02*
X8766491Y-9299960D01*
X8766491Y-9299960D02*
X8756967Y-9290436D01*
X8756967Y-9290436D02*
X8747444Y-9271389D01*
X8747444Y-9271389D02*
X8737920Y-9233293D01*
X8737920Y-9233293D02*
X8737920Y-9185674D01*
X8737920Y-9185674D02*
X8747444Y-9147579D01*
X8747444Y-9147579D02*
X8756967Y-9128531D01*
X8756967Y-9128531D02*
X8766491Y-9119008D01*
X8766491Y-9119008D02*
X8785539Y-9109484D01*
X8937920Y-9309484D02*
X8937920Y-9176150D01*
X8937920Y-9195198D02*
X8947444Y-9185674D01*
X8947444Y-9185674D02*
X8966491Y-9176150D01*
X8966491Y-9176150D02*
X8995063Y-9176150D01*
X8995063Y-9176150D02*
X9014110Y-9185674D01*
X9014110Y-9185674D02*
X9023634Y-9204722D01*
X9023634Y-9204722D02*
X9023634Y-9309484D01*
X9023634Y-9204722D02*
X9033158Y-9185674D01*
X9033158Y-9185674D02*
X9052205Y-9176150D01*
X9052205Y-9176150D02*
X9080777Y-9176150D01*
X9080777Y-9176150D02*
X9099825Y-9185674D01*
X9099825Y-9185674D02*
X9109348Y-9204722D01*
X9109348Y-9204722D02*
X9109348Y-9309484D01*
X9204586Y-9309484D02*
X9204586Y-9176150D01*
X9204586Y-9195198D02*
X9214110Y-9185674D01*
X9214110Y-9185674D02*
X9233158Y-9176150D01*
X9233158Y-9176150D02*
X9261729Y-9176150D01*
X9261729Y-9176150D02*
X9280777Y-9185674D01*
X9280777Y-9185674D02*
X9290301Y-9204722D01*
X9290301Y-9204722D02*
X9290301Y-9309484D01*
X9290301Y-9204722D02*
X9299825Y-9185674D01*
X9299825Y-9185674D02*
X9318872Y-9176150D01*
X9318872Y-9176150D02*
X9347444Y-9176150D01*
X9347444Y-9176150D02*
X9366491Y-9185674D01*
X9366491Y-9185674D02*
X9376015Y-9204722D01*
X9376015Y-9204722D02*
X9376015Y-9309484D01*
X9766491Y-9099960D02*
X9595063Y-9357103D01*
X10023634Y-9109484D02*
X10042682Y-9109484D01*
X10042682Y-9109484D02*
X10061729Y-9119008D01*
X10061729Y-9119008D02*
X10071253Y-9128531D01*
X10071253Y-9128531D02*
X10080777Y-9147579D01*
X10080777Y-9147579D02*
X10090301Y-9185674D01*
X10090301Y-9185674D02*
X10090301Y-9233293D01*
X10090301Y-9233293D02*
X10080777Y-9271389D01*
X10080777Y-9271389D02*
X10071253Y-9290436D01*
X10071253Y-9290436D02*
X10061729Y-9299960D01*
X10061729Y-9299960D02*
X10042682Y-9309484D01*
X10042682Y-9309484D02*
X10023634Y-9309484D01*
X10023634Y-9309484D02*
X10004587Y-9299960D01*
X10004587Y-9299960D02*
X9995063Y-9290436D01*
X9995063Y-9290436D02*
X9985539Y-9271389D01*
X9985539Y-9271389D02*
X9976015Y-9233293D01*
X9976015Y-9233293D02*
X9976015Y-9185674D01*
X9976015Y-9185674D02*
X9985539Y-9147579D01*
X9985539Y-9147579D02*
X9995063Y-9128531D01*
X9995063Y-9128531D02*
X10004587Y-9119008D01*
X10004587Y-9119008D02*
X10023634Y-9109484D01*
X10176015Y-9290436D02*
X10185539Y-9299960D01*
X10185539Y-9299960D02*
X10176015Y-9309484D01*
X10176015Y-9309484D02*
X10166491Y-9299960D01*
X10166491Y-9299960D02*
X10176015Y-9290436D01*
X10176015Y-9290436D02*
X10176015Y-9309484D01*
X10309348Y-9109484D02*
X10328396Y-9109484D01*
X10328396Y-9109484D02*
X10347444Y-9119008D01*
X10347444Y-9119008D02*
X10356968Y-9128531D01*
X10356968Y-9128531D02*
X10366491Y-9147579D01*
X10366491Y-9147579D02*
X10376015Y-9185674D01*
X10376015Y-9185674D02*
X10376015Y-9233293D01*
X10376015Y-9233293D02*
X10366491Y-9271389D01*
X10366491Y-9271389D02*
X10356968Y-9290436D01*
X10356968Y-9290436D02*
X10347444Y-9299960D01*
X10347444Y-9299960D02*
X10328396Y-9309484D01*
X10328396Y-9309484D02*
X10309348Y-9309484D01*
X10309348Y-9309484D02*
X10290301Y-9299960D01*
X10290301Y-9299960D02*
X10280777Y-9290436D01*
X10280777Y-9290436D02*
X10271253Y-9271389D01*
X10271253Y-9271389D02*
X10261729Y-9233293D01*
X10261729Y-9233293D02*
X10261729Y-9185674D01*
X10261729Y-9185674D02*
X10271253Y-9147579D01*
X10271253Y-9147579D02*
X10280777Y-9128531D01*
X10280777Y-9128531D02*
X10290301Y-9119008D01*
X10290301Y-9119008D02*
X10309348Y-9109484D01*
X10566491Y-9309484D02*
X10452206Y-9309484D01*
X10509348Y-9309484D02*
X10509348Y-9109484D01*
X10509348Y-9109484D02*
X10490301Y-9138055D01*
X10490301Y-9138055D02*
X10471253Y-9157103D01*
X10471253Y-9157103D02*
X10452206Y-9166627D01*
X10633158Y-9109484D02*
X10766491Y-9109484D01*
X10766491Y-9109484D02*
X10680777Y-9309484D01*
X10823634Y-9109484D02*
X10956968Y-9109484D01*
X10956968Y-9109484D02*
X10871253Y-9309484D01*
X11023634Y-9109484D02*
X11023634Y-9147579D01*
X11099825Y-9109484D02*
X11099825Y-9147579D01*
X11395063Y-9385674D02*
X11385539Y-9376150D01*
X11385539Y-9376150D02*
X11366491Y-9347579D01*
X11366491Y-9347579D02*
X11356968Y-9328531D01*
X11356968Y-9328531D02*
X11347444Y-9299960D01*
X11347444Y-9299960D02*
X11337920Y-9252341D01*
X11337920Y-9252341D02*
X11337920Y-9214246D01*
X11337920Y-9214246D02*
X11347444Y-9166627D01*
X11347444Y-9166627D02*
X11356968Y-9138055D01*
X11356968Y-9138055D02*
X11366491Y-9119008D01*
X11366491Y-9119008D02*
X11385539Y-9090436D01*
X11385539Y-9090436D02*
X11395063Y-9080912D01*
X11509348Y-9109484D02*
X11528396Y-9109484D01*
X11528396Y-9109484D02*
X11547444Y-9119008D01*
X11547444Y-9119008D02*
X11556968Y-9128531D01*
X11556968Y-9128531D02*
X11566491Y-9147579D01*
X11566491Y-9147579D02*
X11576015Y-9185674D01*
X11576015Y-9185674D02*
X11576015Y-9233293D01*
X11576015Y-9233293D02*
X11566491Y-9271389D01*
X11566491Y-9271389D02*
X11556968Y-9290436D01*
X11556968Y-9290436D02*
X11547444Y-9299960D01*
X11547444Y-9299960D02*
X11528396Y-9309484D01*
X11528396Y-9309484D02*
X11509348Y-9309484D01*
X11509348Y-9309484D02*
X11490301Y-9299960D01*
X11490301Y-9299960D02*
X11480777Y-9290436D01*
X11480777Y-9290436D02*
X11471253Y-9271389D01*
X11471253Y-9271389D02*
X11461729Y-9233293D01*
X11461729Y-9233293D02*
X11461729Y-9185674D01*
X11461729Y-9185674D02*
X11471253Y-9147579D01*
X11471253Y-9147579D02*
X11480777Y-9128531D01*
X11480777Y-9128531D02*
X11490301Y-9119008D01*
X11490301Y-9119008D02*
X11509348Y-9109484D01*
X11814110Y-9309484D02*
X11814110Y-9109484D01*
X11899825Y-9309484D02*
X11899825Y-9204722D01*
X11899825Y-9204722D02*
X11890301Y-9185674D01*
X11890301Y-9185674D02*
X11871253Y-9176150D01*
X11871253Y-9176150D02*
X11842682Y-9176150D01*
X11842682Y-9176150D02*
X11823634Y-9185674D01*
X11823634Y-9185674D02*
X11814110Y-9195198D01*
X12023634Y-9309484D02*
X12004587Y-9299960D01*
X12004587Y-9299960D02*
X11995063Y-9290436D01*
X11995063Y-9290436D02*
X11985539Y-9271389D01*
X11985539Y-9271389D02*
X11985539Y-9214246D01*
X11985539Y-9214246D02*
X11995063Y-9195198D01*
X11995063Y-9195198D02*
X12004587Y-9185674D01*
X12004587Y-9185674D02*
X12023634Y-9176150D01*
X12023634Y-9176150D02*
X12052206Y-9176150D01*
X12052206Y-9176150D02*
X12071253Y-9185674D01*
X12071253Y-9185674D02*
X12080777Y-9195198D01*
X12080777Y-9195198D02*
X12090301Y-9214246D01*
X12090301Y-9214246D02*
X12090301Y-9271389D01*
X12090301Y-9271389D02*
X12080777Y-9290436D01*
X12080777Y-9290436D02*
X12071253Y-9299960D01*
X12071253Y-9299960D02*
X12052206Y-9309484D01*
X12052206Y-9309484D02*
X12023634Y-9309484D01*
X12204587Y-9309484D02*
X12185539Y-9299960D01*
X12185539Y-9299960D02*
X12176015Y-9280912D01*
X12176015Y-9280912D02*
X12176015Y-9109484D01*
X12356968Y-9299960D02*
X12337920Y-9309484D01*
X12337920Y-9309484D02*
X12299825Y-9309484D01*
X12299825Y-9309484D02*
X12280777Y-9299960D01*
X12280777Y-9299960D02*
X12271253Y-9280912D01*
X12271253Y-9280912D02*
X12271253Y-9204722D01*
X12271253Y-9204722D02*
X12280777Y-9185674D01*
X12280777Y-9185674D02*
X12299825Y-9176150D01*
X12299825Y-9176150D02*
X12337920Y-9176150D01*
X12337920Y-9176150D02*
X12356968Y-9185674D01*
X12356968Y-9185674D02*
X12366491Y-9204722D01*
X12366491Y-9204722D02*
X12366491Y-9223770D01*
X12366491Y-9223770D02*
X12271253Y-9242817D01*
X12442682Y-9299960D02*
X12461730Y-9309484D01*
X12461730Y-9309484D02*
X12499825Y-9309484D01*
X12499825Y-9309484D02*
X12518872Y-9299960D01*
X12518872Y-9299960D02*
X12528396Y-9280912D01*
X12528396Y-9280912D02*
X12528396Y-9271389D01*
X12528396Y-9271389D02*
X12518872Y-9252341D01*
X12518872Y-9252341D02*
X12499825Y-9242817D01*
X12499825Y-9242817D02*
X12471253Y-9242817D01*
X12471253Y-9242817D02*
X12452206Y-9233293D01*
X12452206Y-9233293D02*
X12442682Y-9214246D01*
X12442682Y-9214246D02*
X12442682Y-9204722D01*
X12442682Y-9204722D02*
X12452206Y-9185674D01*
X12452206Y-9185674D02*
X12471253Y-9176150D01*
X12471253Y-9176150D02*
X12499825Y-9176150D01*
X12499825Y-9176150D02*
X12518872Y-9185674D01*
X12766492Y-9233293D02*
X12918873Y-9233293D01*
X12842682Y-9309484D02*
X12842682Y-9157103D01*
X13156968Y-9128531D02*
X13166492Y-9119008D01*
X13166492Y-9119008D02*
X13185539Y-9109484D01*
X13185539Y-9109484D02*
X13233158Y-9109484D01*
X13233158Y-9109484D02*
X13252206Y-9119008D01*
X13252206Y-9119008D02*
X13261730Y-9128531D01*
X13261730Y-9128531D02*
X13271253Y-9147579D01*
X13271253Y-9147579D02*
X13271253Y-9166627D01*
X13271253Y-9166627D02*
X13261730Y-9195198D01*
X13261730Y-9195198D02*
X13147444Y-9309484D01*
X13147444Y-9309484D02*
X13271253Y-9309484D01*
X13499825Y-9299960D02*
X13518873Y-9309484D01*
X13518873Y-9309484D02*
X13556968Y-9309484D01*
X13556968Y-9309484D02*
X13576015Y-9299960D01*
X13576015Y-9299960D02*
X13585539Y-9280912D01*
X13585539Y-9280912D02*
X13585539Y-9271389D01*
X13585539Y-9271389D02*
X13576015Y-9252341D01*
X13576015Y-9252341D02*
X13556968Y-9242817D01*
X13556968Y-9242817D02*
X13528396Y-9242817D01*
X13528396Y-9242817D02*
X13509349Y-9233293D01*
X13509349Y-9233293D02*
X13499825Y-9214246D01*
X13499825Y-9214246D02*
X13499825Y-9204722D01*
X13499825Y-9204722D02*
X13509349Y-9185674D01*
X13509349Y-9185674D02*
X13528396Y-9176150D01*
X13528396Y-9176150D02*
X13556968Y-9176150D01*
X13556968Y-9176150D02*
X13576015Y-9185674D01*
X13699825Y-9309484D02*
X13680777Y-9299960D01*
X13680777Y-9299960D02*
X13671254Y-9280912D01*
X13671254Y-9280912D02*
X13671254Y-9109484D01*
X13804587Y-9309484D02*
X13785539Y-9299960D01*
X13785539Y-9299960D02*
X13776015Y-9290436D01*
X13776015Y-9290436D02*
X13766492Y-9271389D01*
X13766492Y-9271389D02*
X13766492Y-9214246D01*
X13766492Y-9214246D02*
X13776015Y-9195198D01*
X13776015Y-9195198D02*
X13785539Y-9185674D01*
X13785539Y-9185674D02*
X13804587Y-9176150D01*
X13804587Y-9176150D02*
X13833158Y-9176150D01*
X13833158Y-9176150D02*
X13852206Y-9185674D01*
X13852206Y-9185674D02*
X13861730Y-9195198D01*
X13861730Y-9195198D02*
X13871254Y-9214246D01*
X13871254Y-9214246D02*
X13871254Y-9271389D01*
X13871254Y-9271389D02*
X13861730Y-9290436D01*
X13861730Y-9290436D02*
X13852206Y-9299960D01*
X13852206Y-9299960D02*
X13833158Y-9309484D01*
X13833158Y-9309484D02*
X13804587Y-9309484D01*
X13928396Y-9176150D02*
X14004587Y-9176150D01*
X13956968Y-9109484D02*
X13956968Y-9280912D01*
X13956968Y-9280912D02*
X13966492Y-9299960D01*
X13966492Y-9299960D02*
X13985539Y-9309484D01*
X13985539Y-9309484D02*
X14004587Y-9309484D01*
X14061730Y-9299960D02*
X14080777Y-9309484D01*
X14080777Y-9309484D02*
X14118873Y-9309484D01*
X14118873Y-9309484D02*
X14137920Y-9299960D01*
X14137920Y-9299960D02*
X14147444Y-9280912D01*
X14147444Y-9280912D02*
X14147444Y-9271389D01*
X14147444Y-9271389D02*
X14137920Y-9252341D01*
X14137920Y-9252341D02*
X14118873Y-9242817D01*
X14118873Y-9242817D02*
X14090301Y-9242817D01*
X14090301Y-9242817D02*
X14071254Y-9233293D01*
X14071254Y-9233293D02*
X14061730Y-9214246D01*
X14061730Y-9214246D02*
X14061730Y-9204722D01*
X14061730Y-9204722D02*
X14071254Y-9185674D01*
X14071254Y-9185674D02*
X14090301Y-9176150D01*
X14090301Y-9176150D02*
X14118873Y-9176150D01*
X14118873Y-9176150D02*
X14137920Y-9185674D01*
X14214111Y-9385674D02*
X14223635Y-9376150D01*
X14223635Y-9376150D02*
X14242682Y-9347579D01*
X14242682Y-9347579D02*
X14252206Y-9328531D01*
X14252206Y-9328531D02*
X14261730Y-9299960D01*
X14261730Y-9299960D02*
X14271254Y-9252341D01*
X14271254Y-9252341D02*
X14271254Y-9214246D01*
X14271254Y-9214246D02*
X14261730Y-9166627D01*
X14261730Y-9166627D02*
X14252206Y-9138055D01*
X14252206Y-9138055D02*
X14242682Y-9119008D01*
X14242682Y-9119008D02*
X14223635Y-9090436D01*
X14223635Y-9090436D02*
X14214111Y-9080912D01*
D10*
X7812678Y-9499678D02*
X7812678Y-9464322D01*
X7777322Y-9464322D01*
X7777322Y-9499678D01*
X7812678Y-9499678D01*
D11*
X8118872Y-9373484D02*
X8137920Y-9373484D01*
X8137920Y-9373484D02*
X8156967Y-9383008D01*
X8156967Y-9383008D02*
X8166491Y-9392531D01*
X8166491Y-9392531D02*
X8176015Y-9411579D01*
X8176015Y-9411579D02*
X8185539Y-9449674D01*
X8185539Y-9449674D02*
X8185539Y-9497293D01*
X8185539Y-9497293D02*
X8176015Y-9535389D01*
X8176015Y-9535389D02*
X8166491Y-9554436D01*
X8166491Y-9554436D02*
X8156967Y-9563960D01*
X8156967Y-9563960D02*
X8137920Y-9573484D01*
X8137920Y-9573484D02*
X8118872Y-9573484D01*
X8118872Y-9573484D02*
X8099824Y-9563960D01*
X8099824Y-9563960D02*
X8090301Y-9554436D01*
X8090301Y-9554436D02*
X8080777Y-9535389D01*
X8080777Y-9535389D02*
X8071253Y-9497293D01*
X8071253Y-9497293D02*
X8071253Y-9449674D01*
X8071253Y-9449674D02*
X8080777Y-9411579D01*
X8080777Y-9411579D02*
X8090301Y-9392531D01*
X8090301Y-9392531D02*
X8099824Y-9383008D01*
X8099824Y-9383008D02*
X8118872Y-9373484D01*
X8271253Y-9554436D02*
X8280777Y-9563960D01*
X8280777Y-9563960D02*
X8271253Y-9573484D01*
X8271253Y-9573484D02*
X8261729Y-9563960D01*
X8261729Y-9563960D02*
X8271253Y-9554436D01*
X8271253Y-9554436D02*
X8271253Y-9573484D01*
X8461729Y-9373484D02*
X8366491Y-9373484D01*
X8366491Y-9373484D02*
X8356967Y-9468722D01*
X8356967Y-9468722D02*
X8366491Y-9459198D01*
X8366491Y-9459198D02*
X8385539Y-9449674D01*
X8385539Y-9449674D02*
X8433158Y-9449674D01*
X8433158Y-9449674D02*
X8452205Y-9459198D01*
X8452205Y-9459198D02*
X8461729Y-9468722D01*
X8461729Y-9468722D02*
X8471253Y-9487770D01*
X8471253Y-9487770D02*
X8471253Y-9535389D01*
X8471253Y-9535389D02*
X8461729Y-9554436D01*
X8461729Y-9554436D02*
X8452205Y-9563960D01*
X8452205Y-9563960D02*
X8433158Y-9573484D01*
X8433158Y-9573484D02*
X8385539Y-9573484D01*
X8385539Y-9573484D02*
X8366491Y-9563960D01*
X8366491Y-9563960D02*
X8356967Y-9554436D01*
X8595063Y-9373484D02*
X8614110Y-9373484D01*
X8614110Y-9373484D02*
X8633158Y-9383008D01*
X8633158Y-9383008D02*
X8642682Y-9392531D01*
X8642682Y-9392531D02*
X8652205Y-9411579D01*
X8652205Y-9411579D02*
X8661729Y-9449674D01*
X8661729Y-9449674D02*
X8661729Y-9497293D01*
X8661729Y-9497293D02*
X8652205Y-9535389D01*
X8652205Y-9535389D02*
X8642682Y-9554436D01*
X8642682Y-9554436D02*
X8633158Y-9563960D01*
X8633158Y-9563960D02*
X8614110Y-9573484D01*
X8614110Y-9573484D02*
X8595063Y-9573484D01*
X8595063Y-9573484D02*
X8576015Y-9563960D01*
X8576015Y-9563960D02*
X8566491Y-9554436D01*
X8566491Y-9554436D02*
X8556967Y-9535389D01*
X8556967Y-9535389D02*
X8547444Y-9497293D01*
X8547444Y-9497293D02*
X8547444Y-9449674D01*
X8547444Y-9449674D02*
X8556967Y-9411579D01*
X8556967Y-9411579D02*
X8566491Y-9392531D01*
X8566491Y-9392531D02*
X8576015Y-9383008D01*
X8576015Y-9383008D02*
X8595063Y-9373484D01*
X8785539Y-9373484D02*
X8804586Y-9373484D01*
X8804586Y-9373484D02*
X8823634Y-9383008D01*
X8823634Y-9383008D02*
X8833158Y-9392531D01*
X8833158Y-9392531D02*
X8842682Y-9411579D01*
X8842682Y-9411579D02*
X8852205Y-9449674D01*
X8852205Y-9449674D02*
X8852205Y-9497293D01*
X8852205Y-9497293D02*
X8842682Y-9535389D01*
X8842682Y-9535389D02*
X8833158Y-9554436D01*
X8833158Y-9554436D02*
X8823634Y-9563960D01*
X8823634Y-9563960D02*
X8804586Y-9573484D01*
X8804586Y-9573484D02*
X8785539Y-9573484D01*
X8785539Y-9573484D02*
X8766491Y-9563960D01*
X8766491Y-9563960D02*
X8756967Y-9554436D01*
X8756967Y-9554436D02*
X8747444Y-9535389D01*
X8747444Y-9535389D02*
X8737920Y-9497293D01*
X8737920Y-9497293D02*
X8737920Y-9449674D01*
X8737920Y-9449674D02*
X8747444Y-9411579D01*
X8747444Y-9411579D02*
X8756967Y-9392531D01*
X8756967Y-9392531D02*
X8766491Y-9383008D01*
X8766491Y-9383008D02*
X8785539Y-9373484D01*
X8937920Y-9573484D02*
X8937920Y-9440150D01*
X8937920Y-9459198D02*
X8947444Y-9449674D01*
X8947444Y-9449674D02*
X8966491Y-9440150D01*
X8966491Y-9440150D02*
X8995063Y-9440150D01*
X8995063Y-9440150D02*
X9014110Y-9449674D01*
X9014110Y-9449674D02*
X9023634Y-9468722D01*
X9023634Y-9468722D02*
X9023634Y-9573484D01*
X9023634Y-9468722D02*
X9033158Y-9449674D01*
X9033158Y-9449674D02*
X9052205Y-9440150D01*
X9052205Y-9440150D02*
X9080777Y-9440150D01*
X9080777Y-9440150D02*
X9099825Y-9449674D01*
X9099825Y-9449674D02*
X9109348Y-9468722D01*
X9109348Y-9468722D02*
X9109348Y-9573484D01*
X9204586Y-9573484D02*
X9204586Y-9440150D01*
X9204586Y-9459198D02*
X9214110Y-9449674D01*
X9214110Y-9449674D02*
X9233158Y-9440150D01*
X9233158Y-9440150D02*
X9261729Y-9440150D01*
X9261729Y-9440150D02*
X9280777Y-9449674D01*
X9280777Y-9449674D02*
X9290301Y-9468722D01*
X9290301Y-9468722D02*
X9290301Y-9573484D01*
X9290301Y-9468722D02*
X9299825Y-9449674D01*
X9299825Y-9449674D02*
X9318872Y-9440150D01*
X9318872Y-9440150D02*
X9347444Y-9440150D01*
X9347444Y-9440150D02*
X9366491Y-9449674D01*
X9366491Y-9449674D02*
X9376015Y-9468722D01*
X9376015Y-9468722D02*
X9376015Y-9573484D01*
X9766491Y-9363960D02*
X9595063Y-9621103D01*
X10023634Y-9373484D02*
X10042682Y-9373484D01*
X10042682Y-9373484D02*
X10061729Y-9383008D01*
X10061729Y-9383008D02*
X10071253Y-9392531D01*
X10071253Y-9392531D02*
X10080777Y-9411579D01*
X10080777Y-9411579D02*
X10090301Y-9449674D01*
X10090301Y-9449674D02*
X10090301Y-9497293D01*
X10090301Y-9497293D02*
X10080777Y-9535389D01*
X10080777Y-9535389D02*
X10071253Y-9554436D01*
X10071253Y-9554436D02*
X10061729Y-9563960D01*
X10061729Y-9563960D02*
X10042682Y-9573484D01*
X10042682Y-9573484D02*
X10023634Y-9573484D01*
X10023634Y-9573484D02*
X10004587Y-9563960D01*
X10004587Y-9563960D02*
X9995063Y-9554436D01*
X9995063Y-9554436D02*
X9985539Y-9535389D01*
X9985539Y-9535389D02*
X9976015Y-9497293D01*
X9976015Y-9497293D02*
X9976015Y-9449674D01*
X9976015Y-9449674D02*
X9985539Y-9411579D01*
X9985539Y-9411579D02*
X9995063Y-9392531D01*
X9995063Y-9392531D02*
X10004587Y-9383008D01*
X10004587Y-9383008D02*
X10023634Y-9373484D01*
X10176015Y-9554436D02*
X10185539Y-9563960D01*
X10185539Y-9563960D02*
X10176015Y-9573484D01*
X10176015Y-9573484D02*
X10166491Y-9563960D01*
X10166491Y-9563960D02*
X10176015Y-9554436D01*
X10176015Y-9554436D02*
X10176015Y-9573484D01*
X10309348Y-9373484D02*
X10328396Y-9373484D01*
X10328396Y-9373484D02*
X10347444Y-9383008D01*
X10347444Y-9383008D02*
X10356968Y-9392531D01*
X10356968Y-9392531D02*
X10366491Y-9411579D01*
X10366491Y-9411579D02*
X10376015Y-9449674D01*
X10376015Y-9449674D02*
X10376015Y-9497293D01*
X10376015Y-9497293D02*
X10366491Y-9535389D01*
X10366491Y-9535389D02*
X10356968Y-9554436D01*
X10356968Y-9554436D02*
X10347444Y-9563960D01*
X10347444Y-9563960D02*
X10328396Y-9573484D01*
X10328396Y-9573484D02*
X10309348Y-9573484D01*
X10309348Y-9573484D02*
X10290301Y-9563960D01*
X10290301Y-9563960D02*
X10280777Y-9554436D01*
X10280777Y-9554436D02*
X10271253Y-9535389D01*
X10271253Y-9535389D02*
X10261729Y-9497293D01*
X10261729Y-9497293D02*
X10261729Y-9449674D01*
X10261729Y-9449674D02*
X10271253Y-9411579D01*
X10271253Y-9411579D02*
X10280777Y-9392531D01*
X10280777Y-9392531D02*
X10290301Y-9383008D01*
X10290301Y-9383008D02*
X10309348Y-9373484D01*
X10566491Y-9573484D02*
X10452206Y-9573484D01*
X10509348Y-9573484D02*
X10509348Y-9373484D01*
X10509348Y-9373484D02*
X10490301Y-9402055D01*
X10490301Y-9402055D02*
X10471253Y-9421103D01*
X10471253Y-9421103D02*
X10452206Y-9430627D01*
X10661729Y-9573484D02*
X10699825Y-9573484D01*
X10699825Y-9573484D02*
X10718872Y-9563960D01*
X10718872Y-9563960D02*
X10728396Y-9554436D01*
X10728396Y-9554436D02*
X10747444Y-9525865D01*
X10747444Y-9525865D02*
X10756968Y-9487770D01*
X10756968Y-9487770D02*
X10756968Y-9411579D01*
X10756968Y-9411579D02*
X10747444Y-9392531D01*
X10747444Y-9392531D02*
X10737920Y-9383008D01*
X10737920Y-9383008D02*
X10718872Y-9373484D01*
X10718872Y-9373484D02*
X10680777Y-9373484D01*
X10680777Y-9373484D02*
X10661729Y-9383008D01*
X10661729Y-9383008D02*
X10652206Y-9392531D01*
X10652206Y-9392531D02*
X10642682Y-9411579D01*
X10642682Y-9411579D02*
X10642682Y-9459198D01*
X10642682Y-9459198D02*
X10652206Y-9478246D01*
X10652206Y-9478246D02*
X10661729Y-9487770D01*
X10661729Y-9487770D02*
X10680777Y-9497293D01*
X10680777Y-9497293D02*
X10718872Y-9497293D01*
X10718872Y-9497293D02*
X10737920Y-9487770D01*
X10737920Y-9487770D02*
X10747444Y-9478246D01*
X10747444Y-9478246D02*
X10756968Y-9459198D01*
X10823634Y-9373484D02*
X10956968Y-9373484D01*
X10956968Y-9373484D02*
X10871253Y-9573484D01*
X11023634Y-9373484D02*
X11023634Y-9411579D01*
X11099825Y-9373484D02*
X11099825Y-9411579D01*
X11395063Y-9649674D02*
X11385539Y-9640150D01*
X11385539Y-9640150D02*
X11366491Y-9611579D01*
X11366491Y-9611579D02*
X11356968Y-9592531D01*
X11356968Y-9592531D02*
X11347444Y-9563960D01*
X11347444Y-9563960D02*
X11337920Y-9516341D01*
X11337920Y-9516341D02*
X11337920Y-9478246D01*
X11337920Y-9478246D02*
X11347444Y-9430627D01*
X11347444Y-9430627D02*
X11356968Y-9402055D01*
X11356968Y-9402055D02*
X11366491Y-9383008D01*
X11366491Y-9383008D02*
X11385539Y-9354436D01*
X11385539Y-9354436D02*
X11395063Y-9344912D01*
X11566491Y-9373484D02*
X11471253Y-9373484D01*
X11471253Y-9373484D02*
X11461729Y-9468722D01*
X11461729Y-9468722D02*
X11471253Y-9459198D01*
X11471253Y-9459198D02*
X11490301Y-9449674D01*
X11490301Y-9449674D02*
X11537920Y-9449674D01*
X11537920Y-9449674D02*
X11556968Y-9459198D01*
X11556968Y-9459198D02*
X11566491Y-9468722D01*
X11566491Y-9468722D02*
X11576015Y-9487770D01*
X11576015Y-9487770D02*
X11576015Y-9535389D01*
X11576015Y-9535389D02*
X11566491Y-9554436D01*
X11566491Y-9554436D02*
X11556968Y-9563960D01*
X11556968Y-9563960D02*
X11537920Y-9573484D01*
X11537920Y-9573484D02*
X11490301Y-9573484D01*
X11490301Y-9573484D02*
X11471253Y-9563960D01*
X11471253Y-9563960D02*
X11461729Y-9554436D01*
X11747444Y-9440150D02*
X11747444Y-9573484D01*
X11699825Y-9363960D02*
X11652206Y-9506817D01*
X11652206Y-9506817D02*
X11776015Y-9506817D01*
X12004587Y-9573484D02*
X12004587Y-9373484D01*
X12090301Y-9573484D02*
X12090301Y-9468722D01*
X12090301Y-9468722D02*
X12080777Y-9449674D01*
X12080777Y-9449674D02*
X12061730Y-9440150D01*
X12061730Y-9440150D02*
X12033158Y-9440150D01*
X12033158Y-9440150D02*
X12014110Y-9449674D01*
X12014110Y-9449674D02*
X12004587Y-9459198D01*
X12214110Y-9573484D02*
X12195063Y-9563960D01*
X12195063Y-9563960D02*
X12185539Y-9554436D01*
X12185539Y-9554436D02*
X12176015Y-9535389D01*
X12176015Y-9535389D02*
X12176015Y-9478246D01*
X12176015Y-9478246D02*
X12185539Y-9459198D01*
X12185539Y-9459198D02*
X12195063Y-9449674D01*
X12195063Y-9449674D02*
X12214110Y-9440150D01*
X12214110Y-9440150D02*
X12242682Y-9440150D01*
X12242682Y-9440150D02*
X12261730Y-9449674D01*
X12261730Y-9449674D02*
X12271253Y-9459198D01*
X12271253Y-9459198D02*
X12280777Y-9478246D01*
X12280777Y-9478246D02*
X12280777Y-9535389D01*
X12280777Y-9535389D02*
X12271253Y-9554436D01*
X12271253Y-9554436D02*
X12261730Y-9563960D01*
X12261730Y-9563960D02*
X12242682Y-9573484D01*
X12242682Y-9573484D02*
X12214110Y-9573484D01*
X12395063Y-9573484D02*
X12376015Y-9563960D01*
X12376015Y-9563960D02*
X12366491Y-9544912D01*
X12366491Y-9544912D02*
X12366491Y-9373484D01*
X12547444Y-9563960D02*
X12528396Y-9573484D01*
X12528396Y-9573484D02*
X12490301Y-9573484D01*
X12490301Y-9573484D02*
X12471253Y-9563960D01*
X12471253Y-9563960D02*
X12461730Y-9544912D01*
X12461730Y-9544912D02*
X12461730Y-9468722D01*
X12461730Y-9468722D02*
X12471253Y-9449674D01*
X12471253Y-9449674D02*
X12490301Y-9440150D01*
X12490301Y-9440150D02*
X12528396Y-9440150D01*
X12528396Y-9440150D02*
X12547444Y-9449674D01*
X12547444Y-9449674D02*
X12556968Y-9468722D01*
X12556968Y-9468722D02*
X12556968Y-9487770D01*
X12556968Y-9487770D02*
X12461730Y-9506817D01*
X12633158Y-9563960D02*
X12652206Y-9573484D01*
X12652206Y-9573484D02*
X12690301Y-9573484D01*
X12690301Y-9573484D02*
X12709349Y-9563960D01*
X12709349Y-9563960D02*
X12718872Y-9544912D01*
X12718872Y-9544912D02*
X12718872Y-9535389D01*
X12718872Y-9535389D02*
X12709349Y-9516341D01*
X12709349Y-9516341D02*
X12690301Y-9506817D01*
X12690301Y-9506817D02*
X12661730Y-9506817D01*
X12661730Y-9506817D02*
X12642682Y-9497293D01*
X12642682Y-9497293D02*
X12633158Y-9478246D01*
X12633158Y-9478246D02*
X12633158Y-9468722D01*
X12633158Y-9468722D02*
X12642682Y-9449674D01*
X12642682Y-9449674D02*
X12661730Y-9440150D01*
X12661730Y-9440150D02*
X12690301Y-9440150D01*
X12690301Y-9440150D02*
X12709349Y-9449674D01*
X12785539Y-9649674D02*
X12795063Y-9640150D01*
X12795063Y-9640150D02*
X12814111Y-9611579D01*
X12814111Y-9611579D02*
X12823634Y-9592531D01*
X12823634Y-9592531D02*
X12833158Y-9563960D01*
X12833158Y-9563960D02*
X12842682Y-9516341D01*
X12842682Y-9516341D02*
X12842682Y-9478246D01*
X12842682Y-9478246D02*
X12833158Y-9430627D01*
X12833158Y-9430627D02*
X12823634Y-9402055D01*
X12823634Y-9402055D02*
X12814111Y-9383008D01*
X12814111Y-9383008D02*
X12795063Y-9354436D01*
X12795063Y-9354436D02*
X12785539Y-9344912D01*
D10*
X7770000Y-9796000D02*
X7820000Y-9746000D01*
X7770000Y-9696000D01*
X7720000Y-9746000D01*
X7770000Y-9796000D01*
D11*
X8185539Y-9837484D02*
X8071253Y-9837484D01*
X8128396Y-9837484D02*
X8128396Y-9637484D01*
X8128396Y-9637484D02*
X8109348Y-9666055D01*
X8109348Y-9666055D02*
X8090301Y-9685103D01*
X8090301Y-9685103D02*
X8071253Y-9694627D01*
X8271253Y-9818436D02*
X8280777Y-9827960D01*
X8280777Y-9827960D02*
X8271253Y-9837484D01*
X8271253Y-9837484D02*
X8261729Y-9827960D01*
X8261729Y-9827960D02*
X8271253Y-9818436D01*
X8271253Y-9818436D02*
X8271253Y-9837484D01*
X8404586Y-9637484D02*
X8423634Y-9637484D01*
X8423634Y-9637484D02*
X8442682Y-9647008D01*
X8442682Y-9647008D02*
X8452205Y-9656531D01*
X8452205Y-9656531D02*
X8461729Y-9675579D01*
X8461729Y-9675579D02*
X8471253Y-9713674D01*
X8471253Y-9713674D02*
X8471253Y-9761293D01*
X8471253Y-9761293D02*
X8461729Y-9799389D01*
X8461729Y-9799389D02*
X8452205Y-9818436D01*
X8452205Y-9818436D02*
X8442682Y-9827960D01*
X8442682Y-9827960D02*
X8423634Y-9837484D01*
X8423634Y-9837484D02*
X8404586Y-9837484D01*
X8404586Y-9837484D02*
X8385539Y-9827960D01*
X8385539Y-9827960D02*
X8376015Y-9818436D01*
X8376015Y-9818436D02*
X8366491Y-9799389D01*
X8366491Y-9799389D02*
X8356967Y-9761293D01*
X8356967Y-9761293D02*
X8356967Y-9713674D01*
X8356967Y-9713674D02*
X8366491Y-9675579D01*
X8366491Y-9675579D02*
X8376015Y-9656531D01*
X8376015Y-9656531D02*
X8385539Y-9647008D01*
X8385539Y-9647008D02*
X8404586Y-9637484D01*
X8595063Y-9637484D02*
X8614110Y-9637484D01*
X8614110Y-9637484D02*
X8633158Y-9647008D01*
X8633158Y-9647008D02*
X8642682Y-9656531D01*
X8642682Y-9656531D02*
X8652205Y-9675579D01*
X8652205Y-9675579D02*
X8661729Y-9713674D01*
X8661729Y-9713674D02*
X8661729Y-9761293D01*
X8661729Y-9761293D02*
X8652205Y-9799389D01*
X8652205Y-9799389D02*
X8642682Y-9818436D01*
X8642682Y-9818436D02*
X8633158Y-9827960D01*
X8633158Y-9827960D02*
X8614110Y-9837484D01*
X8614110Y-9837484D02*
X8595063Y-9837484D01*
X8595063Y-9837484D02*
X8576015Y-9827960D01*
X8576015Y-9827960D02*
X8566491Y-9818436D01*
X8566491Y-9818436D02*
X8556967Y-9799389D01*
X8556967Y-9799389D02*
X8547444Y-9761293D01*
X8547444Y-9761293D02*
X8547444Y-9713674D01*
X8547444Y-9713674D02*
X8556967Y-9675579D01*
X8556967Y-9675579D02*
X8566491Y-9656531D01*
X8566491Y-9656531D02*
X8576015Y-9647008D01*
X8576015Y-9647008D02*
X8595063Y-9637484D01*
X8785539Y-9637484D02*
X8804586Y-9637484D01*
X8804586Y-9637484D02*
X8823634Y-9647008D01*
X8823634Y-9647008D02*
X8833158Y-9656531D01*
X8833158Y-9656531D02*
X8842682Y-9675579D01*
X8842682Y-9675579D02*
X8852205Y-9713674D01*
X8852205Y-9713674D02*
X8852205Y-9761293D01*
X8852205Y-9761293D02*
X8842682Y-9799389D01*
X8842682Y-9799389D02*
X8833158Y-9818436D01*
X8833158Y-9818436D02*
X8823634Y-9827960D01*
X8823634Y-9827960D02*
X8804586Y-9837484D01*
X8804586Y-9837484D02*
X8785539Y-9837484D01*
X8785539Y-9837484D02*
X8766491Y-9827960D01*
X8766491Y-9827960D02*
X8756967Y-9818436D01*
X8756967Y-9818436D02*
X8747444Y-9799389D01*
X8747444Y-9799389D02*
X8737920Y-9761293D01*
X8737920Y-9761293D02*
X8737920Y-9713674D01*
X8737920Y-9713674D02*
X8747444Y-9675579D01*
X8747444Y-9675579D02*
X8756967Y-9656531D01*
X8756967Y-9656531D02*
X8766491Y-9647008D01*
X8766491Y-9647008D02*
X8785539Y-9637484D01*
X8937920Y-9837484D02*
X8937920Y-9704150D01*
X8937920Y-9723198D02*
X8947444Y-9713674D01*
X8947444Y-9713674D02*
X8966491Y-9704150D01*
X8966491Y-9704150D02*
X8995063Y-9704150D01*
X8995063Y-9704150D02*
X9014110Y-9713674D01*
X9014110Y-9713674D02*
X9023634Y-9732722D01*
X9023634Y-9732722D02*
X9023634Y-9837484D01*
X9023634Y-9732722D02*
X9033158Y-9713674D01*
X9033158Y-9713674D02*
X9052205Y-9704150D01*
X9052205Y-9704150D02*
X9080777Y-9704150D01*
X9080777Y-9704150D02*
X9099825Y-9713674D01*
X9099825Y-9713674D02*
X9109348Y-9732722D01*
X9109348Y-9732722D02*
X9109348Y-9837484D01*
X9204586Y-9837484D02*
X9204586Y-9704150D01*
X9204586Y-9723198D02*
X9214110Y-9713674D01*
X9214110Y-9713674D02*
X9233158Y-9704150D01*
X9233158Y-9704150D02*
X9261729Y-9704150D01*
X9261729Y-9704150D02*
X9280777Y-9713674D01*
X9280777Y-9713674D02*
X9290301Y-9732722D01*
X9290301Y-9732722D02*
X9290301Y-9837484D01*
X9290301Y-9732722D02*
X9299825Y-9713674D01*
X9299825Y-9713674D02*
X9318872Y-9704150D01*
X9318872Y-9704150D02*
X9347444Y-9704150D01*
X9347444Y-9704150D02*
X9366491Y-9713674D01*
X9366491Y-9713674D02*
X9376015Y-9732722D01*
X9376015Y-9732722D02*
X9376015Y-9837484D01*
X9766491Y-9627960D02*
X9595063Y-9885103D01*
X10023634Y-9637484D02*
X10042682Y-9637484D01*
X10042682Y-9637484D02*
X10061729Y-9647008D01*
X10061729Y-9647008D02*
X10071253Y-9656531D01*
X10071253Y-9656531D02*
X10080777Y-9675579D01*
X10080777Y-9675579D02*
X10090301Y-9713674D01*
X10090301Y-9713674D02*
X10090301Y-9761293D01*
X10090301Y-9761293D02*
X10080777Y-9799389D01*
X10080777Y-9799389D02*
X10071253Y-9818436D01*
X10071253Y-9818436D02*
X10061729Y-9827960D01*
X10061729Y-9827960D02*
X10042682Y-9837484D01*
X10042682Y-9837484D02*
X10023634Y-9837484D01*
X10023634Y-9837484D02*
X10004587Y-9827960D01*
X10004587Y-9827960D02*
X9995063Y-9818436D01*
X9995063Y-9818436D02*
X9985539Y-9799389D01*
X9985539Y-9799389D02*
X9976015Y-9761293D01*
X9976015Y-9761293D02*
X9976015Y-9713674D01*
X9976015Y-9713674D02*
X9985539Y-9675579D01*
X9985539Y-9675579D02*
X9995063Y-9656531D01*
X9995063Y-9656531D02*
X10004587Y-9647008D01*
X10004587Y-9647008D02*
X10023634Y-9637484D01*
X10176015Y-9818436D02*
X10185539Y-9827960D01*
X10185539Y-9827960D02*
X10176015Y-9837484D01*
X10176015Y-9837484D02*
X10166491Y-9827960D01*
X10166491Y-9827960D02*
X10176015Y-9818436D01*
X10176015Y-9818436D02*
X10176015Y-9837484D01*
X10309348Y-9637484D02*
X10328396Y-9637484D01*
X10328396Y-9637484D02*
X10347444Y-9647008D01*
X10347444Y-9647008D02*
X10356968Y-9656531D01*
X10356968Y-9656531D02*
X10366491Y-9675579D01*
X10366491Y-9675579D02*
X10376015Y-9713674D01*
X10376015Y-9713674D02*
X10376015Y-9761293D01*
X10376015Y-9761293D02*
X10366491Y-9799389D01*
X10366491Y-9799389D02*
X10356968Y-9818436D01*
X10356968Y-9818436D02*
X10347444Y-9827960D01*
X10347444Y-9827960D02*
X10328396Y-9837484D01*
X10328396Y-9837484D02*
X10309348Y-9837484D01*
X10309348Y-9837484D02*
X10290301Y-9827960D01*
X10290301Y-9827960D02*
X10280777Y-9818436D01*
X10280777Y-9818436D02*
X10271253Y-9799389D01*
X10271253Y-9799389D02*
X10261729Y-9761293D01*
X10261729Y-9761293D02*
X10261729Y-9713674D01*
X10261729Y-9713674D02*
X10271253Y-9675579D01*
X10271253Y-9675579D02*
X10280777Y-9656531D01*
X10280777Y-9656531D02*
X10290301Y-9647008D01*
X10290301Y-9647008D02*
X10309348Y-9637484D01*
X10442682Y-9637484D02*
X10566491Y-9637484D01*
X10566491Y-9637484D02*
X10499825Y-9713674D01*
X10499825Y-9713674D02*
X10528396Y-9713674D01*
X10528396Y-9713674D02*
X10547444Y-9723198D01*
X10547444Y-9723198D02*
X10556968Y-9732722D01*
X10556968Y-9732722D02*
X10566491Y-9751770D01*
X10566491Y-9751770D02*
X10566491Y-9799389D01*
X10566491Y-9799389D02*
X10556968Y-9818436D01*
X10556968Y-9818436D02*
X10547444Y-9827960D01*
X10547444Y-9827960D02*
X10528396Y-9837484D01*
X10528396Y-9837484D02*
X10471253Y-9837484D01*
X10471253Y-9837484D02*
X10452206Y-9827960D01*
X10452206Y-9827960D02*
X10442682Y-9818436D01*
X10661729Y-9837484D02*
X10699825Y-9837484D01*
X10699825Y-9837484D02*
X10718872Y-9827960D01*
X10718872Y-9827960D02*
X10728396Y-9818436D01*
X10728396Y-9818436D02*
X10747444Y-9789865D01*
X10747444Y-9789865D02*
X10756968Y-9751770D01*
X10756968Y-9751770D02*
X10756968Y-9675579D01*
X10756968Y-9675579D02*
X10747444Y-9656531D01*
X10747444Y-9656531D02*
X10737920Y-9647008D01*
X10737920Y-9647008D02*
X10718872Y-9637484D01*
X10718872Y-9637484D02*
X10680777Y-9637484D01*
X10680777Y-9637484D02*
X10661729Y-9647008D01*
X10661729Y-9647008D02*
X10652206Y-9656531D01*
X10652206Y-9656531D02*
X10642682Y-9675579D01*
X10642682Y-9675579D02*
X10642682Y-9723198D01*
X10642682Y-9723198D02*
X10652206Y-9742246D01*
X10652206Y-9742246D02*
X10661729Y-9751770D01*
X10661729Y-9751770D02*
X10680777Y-9761293D01*
X10680777Y-9761293D02*
X10718872Y-9761293D01*
X10718872Y-9761293D02*
X10737920Y-9751770D01*
X10737920Y-9751770D02*
X10747444Y-9742246D01*
X10747444Y-9742246D02*
X10756968Y-9723198D01*
X10928396Y-9704150D02*
X10928396Y-9837484D01*
X10880777Y-9627960D02*
X10833158Y-9770817D01*
X10833158Y-9770817D02*
X10956968Y-9770817D01*
X11023634Y-9637484D02*
X11023634Y-9675579D01*
X11099825Y-9637484D02*
X11099825Y-9675579D01*
X11395063Y-9913674D02*
X11385539Y-9904150D01*
X11385539Y-9904150D02*
X11366491Y-9875579D01*
X11366491Y-9875579D02*
X11356968Y-9856531D01*
X11356968Y-9856531D02*
X11347444Y-9827960D01*
X11347444Y-9827960D02*
X11337920Y-9780341D01*
X11337920Y-9780341D02*
X11337920Y-9742246D01*
X11337920Y-9742246D02*
X11347444Y-9694627D01*
X11347444Y-9694627D02*
X11356968Y-9666055D01*
X11356968Y-9666055D02*
X11366491Y-9647008D01*
X11366491Y-9647008D02*
X11385539Y-9618436D01*
X11385539Y-9618436D02*
X11395063Y-9608912D01*
X11576015Y-9837484D02*
X11461729Y-9837484D01*
X11518872Y-9837484D02*
X11518872Y-9637484D01*
X11518872Y-9637484D02*
X11499825Y-9666055D01*
X11499825Y-9666055D02*
X11480777Y-9685103D01*
X11480777Y-9685103D02*
X11461729Y-9694627D01*
X11747444Y-9704150D02*
X11747444Y-9837484D01*
X11699825Y-9627960D02*
X11652206Y-9770817D01*
X11652206Y-9770817D02*
X11776015Y-9770817D01*
X12004587Y-9837484D02*
X12004587Y-9637484D01*
X12090301Y-9837484D02*
X12090301Y-9732722D01*
X12090301Y-9732722D02*
X12080777Y-9713674D01*
X12080777Y-9713674D02*
X12061730Y-9704150D01*
X12061730Y-9704150D02*
X12033158Y-9704150D01*
X12033158Y-9704150D02*
X12014110Y-9713674D01*
X12014110Y-9713674D02*
X12004587Y-9723198D01*
X12214110Y-9837484D02*
X12195063Y-9827960D01*
X12195063Y-9827960D02*
X12185539Y-9818436D01*
X12185539Y-9818436D02*
X12176015Y-9799389D01*
X12176015Y-9799389D02*
X12176015Y-9742246D01*
X12176015Y-9742246D02*
X12185539Y-9723198D01*
X12185539Y-9723198D02*
X12195063Y-9713674D01*
X12195063Y-9713674D02*
X12214110Y-9704150D01*
X12214110Y-9704150D02*
X12242682Y-9704150D01*
X12242682Y-9704150D02*
X12261730Y-9713674D01*
X12261730Y-9713674D02*
X12271253Y-9723198D01*
X12271253Y-9723198D02*
X12280777Y-9742246D01*
X12280777Y-9742246D02*
X12280777Y-9799389D01*
X12280777Y-9799389D02*
X12271253Y-9818436D01*
X12271253Y-9818436D02*
X12261730Y-9827960D01*
X12261730Y-9827960D02*
X12242682Y-9837484D01*
X12242682Y-9837484D02*
X12214110Y-9837484D01*
X12395063Y-9837484D02*
X12376015Y-9827960D01*
X12376015Y-9827960D02*
X12366491Y-9808912D01*
X12366491Y-9808912D02*
X12366491Y-9637484D01*
X12547444Y-9827960D02*
X12528396Y-9837484D01*
X12528396Y-9837484D02*
X12490301Y-9837484D01*
X12490301Y-9837484D02*
X12471253Y-9827960D01*
X12471253Y-9827960D02*
X12461730Y-9808912D01*
X12461730Y-9808912D02*
X12461730Y-9732722D01*
X12461730Y-9732722D02*
X12471253Y-9713674D01*
X12471253Y-9713674D02*
X12490301Y-9704150D01*
X12490301Y-9704150D02*
X12528396Y-9704150D01*
X12528396Y-9704150D02*
X12547444Y-9713674D01*
X12547444Y-9713674D02*
X12556968Y-9732722D01*
X12556968Y-9732722D02*
X12556968Y-9751770D01*
X12556968Y-9751770D02*
X12461730Y-9770817D01*
X12633158Y-9827960D02*
X12652206Y-9837484D01*
X12652206Y-9837484D02*
X12690301Y-9837484D01*
X12690301Y-9837484D02*
X12709349Y-9827960D01*
X12709349Y-9827960D02*
X12718872Y-9808912D01*
X12718872Y-9808912D02*
X12718872Y-9799389D01*
X12718872Y-9799389D02*
X12709349Y-9780341D01*
X12709349Y-9780341D02*
X12690301Y-9770817D01*
X12690301Y-9770817D02*
X12661730Y-9770817D01*
X12661730Y-9770817D02*
X12642682Y-9761293D01*
X12642682Y-9761293D02*
X12633158Y-9742246D01*
X12633158Y-9742246D02*
X12633158Y-9732722D01*
X12633158Y-9732722D02*
X12642682Y-9713674D01*
X12642682Y-9713674D02*
X12661730Y-9704150D01*
X12661730Y-9704150D02*
X12690301Y-9704150D01*
X12690301Y-9704150D02*
X12709349Y-9713674D01*
X12785539Y-9913674D02*
X12795063Y-9904150D01*
X12795063Y-9904150D02*
X12814111Y-9875579D01*
X12814111Y-9875579D02*
X12823634Y-9856531D01*
X12823634Y-9856531D02*
X12833158Y-9827960D01*
X12833158Y-9827960D02*
X12842682Y-9780341D01*
X12842682Y-9780341D02*
X12842682Y-9742246D01*
X12842682Y-9742246D02*
X12833158Y-9694627D01*
X12833158Y-9694627D02*
X12823634Y-9666055D01*
X12823634Y-9666055D02*
X12814111Y-9647008D01*
X12814111Y-9647008D02*
X12795063Y-9618436D01*
X12795063Y-9618436D02*
X12785539Y-9608912D01*
D12*
X7710000Y-9955000D02*
X7820000Y-10065000D01*
X7820000Y-9955000D02*
X7710000Y-10065000D01*
X7820000Y-10010000D02*
G75*
G02*
X7710000Y-10010000I-55000J0D01*
G01*
X7710000Y-10010000D02*
G75*
G02*
X7820000Y-10010000I55000J0D01*
G01*
D11*
X8185539Y-10101484D02*
X8071253Y-10101484D01*
X8128396Y-10101484D02*
X8128396Y-9901484D01*
X8128396Y-9901484D02*
X8109348Y-9930055D01*
X8109348Y-9930055D02*
X8090301Y-9949103D01*
X8090301Y-9949103D02*
X8071253Y-9958627D01*
X8271253Y-10082436D02*
X8280777Y-10091960D01*
X8280777Y-10091960D02*
X8271253Y-10101484D01*
X8271253Y-10101484D02*
X8261729Y-10091960D01*
X8261729Y-10091960D02*
X8271253Y-10082436D01*
X8271253Y-10082436D02*
X8271253Y-10101484D01*
X8471253Y-10101484D02*
X8356967Y-10101484D01*
X8414110Y-10101484D02*
X8414110Y-9901484D01*
X8414110Y-9901484D02*
X8395063Y-9930055D01*
X8395063Y-9930055D02*
X8376015Y-9949103D01*
X8376015Y-9949103D02*
X8356967Y-9958627D01*
X8595063Y-9901484D02*
X8614110Y-9901484D01*
X8614110Y-9901484D02*
X8633158Y-9911008D01*
X8633158Y-9911008D02*
X8642682Y-9920531D01*
X8642682Y-9920531D02*
X8652205Y-9939579D01*
X8652205Y-9939579D02*
X8661729Y-9977674D01*
X8661729Y-9977674D02*
X8661729Y-10025293D01*
X8661729Y-10025293D02*
X8652205Y-10063389D01*
X8652205Y-10063389D02*
X8642682Y-10082436D01*
X8642682Y-10082436D02*
X8633158Y-10091960D01*
X8633158Y-10091960D02*
X8614110Y-10101484D01*
X8614110Y-10101484D02*
X8595063Y-10101484D01*
X8595063Y-10101484D02*
X8576015Y-10091960D01*
X8576015Y-10091960D02*
X8566491Y-10082436D01*
X8566491Y-10082436D02*
X8556967Y-10063389D01*
X8556967Y-10063389D02*
X8547444Y-10025293D01*
X8547444Y-10025293D02*
X8547444Y-9977674D01*
X8547444Y-9977674D02*
X8556967Y-9939579D01*
X8556967Y-9939579D02*
X8566491Y-9920531D01*
X8566491Y-9920531D02*
X8576015Y-9911008D01*
X8576015Y-9911008D02*
X8595063Y-9901484D01*
X8785539Y-9901484D02*
X8804586Y-9901484D01*
X8804586Y-9901484D02*
X8823634Y-9911008D01*
X8823634Y-9911008D02*
X8833158Y-9920531D01*
X8833158Y-9920531D02*
X8842682Y-9939579D01*
X8842682Y-9939579D02*
X8852205Y-9977674D01*
X8852205Y-9977674D02*
X8852205Y-10025293D01*
X8852205Y-10025293D02*
X8842682Y-10063389D01*
X8842682Y-10063389D02*
X8833158Y-10082436D01*
X8833158Y-10082436D02*
X8823634Y-10091960D01*
X8823634Y-10091960D02*
X8804586Y-10101484D01*
X8804586Y-10101484D02*
X8785539Y-10101484D01*
X8785539Y-10101484D02*
X8766491Y-10091960D01*
X8766491Y-10091960D02*
X8756967Y-10082436D01*
X8756967Y-10082436D02*
X8747444Y-10063389D01*
X8747444Y-10063389D02*
X8737920Y-10025293D01*
X8737920Y-10025293D02*
X8737920Y-9977674D01*
X8737920Y-9977674D02*
X8747444Y-9939579D01*
X8747444Y-9939579D02*
X8756967Y-9920531D01*
X8756967Y-9920531D02*
X8766491Y-9911008D01*
X8766491Y-9911008D02*
X8785539Y-9901484D01*
X8937920Y-10101484D02*
X8937920Y-9968150D01*
X8937920Y-9987198D02*
X8947444Y-9977674D01*
X8947444Y-9977674D02*
X8966491Y-9968150D01*
X8966491Y-9968150D02*
X8995063Y-9968150D01*
X8995063Y-9968150D02*
X9014110Y-9977674D01*
X9014110Y-9977674D02*
X9023634Y-9996722D01*
X9023634Y-9996722D02*
X9023634Y-10101484D01*
X9023634Y-9996722D02*
X9033158Y-9977674D01*
X9033158Y-9977674D02*
X9052205Y-9968150D01*
X9052205Y-9968150D02*
X9080777Y-9968150D01*
X9080777Y-9968150D02*
X9099825Y-9977674D01*
X9099825Y-9977674D02*
X9109348Y-9996722D01*
X9109348Y-9996722D02*
X9109348Y-10101484D01*
X9204586Y-10101484D02*
X9204586Y-9968150D01*
X9204586Y-9987198D02*
X9214110Y-9977674D01*
X9214110Y-9977674D02*
X9233158Y-9968150D01*
X9233158Y-9968150D02*
X9261729Y-9968150D01*
X9261729Y-9968150D02*
X9280777Y-9977674D01*
X9280777Y-9977674D02*
X9290301Y-9996722D01*
X9290301Y-9996722D02*
X9290301Y-10101484D01*
X9290301Y-9996722D02*
X9299825Y-9977674D01*
X9299825Y-9977674D02*
X9318872Y-9968150D01*
X9318872Y-9968150D02*
X9347444Y-9968150D01*
X9347444Y-9968150D02*
X9366491Y-9977674D01*
X9366491Y-9977674D02*
X9376015Y-9996722D01*
X9376015Y-9996722D02*
X9376015Y-10101484D01*
X9766491Y-9891960D02*
X9595063Y-10149103D01*
X10023634Y-9901484D02*
X10042682Y-9901484D01*
X10042682Y-9901484D02*
X10061729Y-9911008D01*
X10061729Y-9911008D02*
X10071253Y-9920531D01*
X10071253Y-9920531D02*
X10080777Y-9939579D01*
X10080777Y-9939579D02*
X10090301Y-9977674D01*
X10090301Y-9977674D02*
X10090301Y-10025293D01*
X10090301Y-10025293D02*
X10080777Y-10063389D01*
X10080777Y-10063389D02*
X10071253Y-10082436D01*
X10071253Y-10082436D02*
X10061729Y-10091960D01*
X10061729Y-10091960D02*
X10042682Y-10101484D01*
X10042682Y-10101484D02*
X10023634Y-10101484D01*
X10023634Y-10101484D02*
X10004587Y-10091960D01*
X10004587Y-10091960D02*
X9995063Y-10082436D01*
X9995063Y-10082436D02*
X9985539Y-10063389D01*
X9985539Y-10063389D02*
X9976015Y-10025293D01*
X9976015Y-10025293D02*
X9976015Y-9977674D01*
X9976015Y-9977674D02*
X9985539Y-9939579D01*
X9985539Y-9939579D02*
X9995063Y-9920531D01*
X9995063Y-9920531D02*
X10004587Y-9911008D01*
X10004587Y-9911008D02*
X10023634Y-9901484D01*
X10176015Y-10082436D02*
X10185539Y-10091960D01*
X10185539Y-10091960D02*
X10176015Y-10101484D01*
X10176015Y-10101484D02*
X10166491Y-10091960D01*
X10166491Y-10091960D02*
X10176015Y-10082436D01*
X10176015Y-10082436D02*
X10176015Y-10101484D01*
X10309348Y-9901484D02*
X10328396Y-9901484D01*
X10328396Y-9901484D02*
X10347444Y-9911008D01*
X10347444Y-9911008D02*
X10356968Y-9920531D01*
X10356968Y-9920531D02*
X10366491Y-9939579D01*
X10366491Y-9939579D02*
X10376015Y-9977674D01*
X10376015Y-9977674D02*
X10376015Y-10025293D01*
X10376015Y-10025293D02*
X10366491Y-10063389D01*
X10366491Y-10063389D02*
X10356968Y-10082436D01*
X10356968Y-10082436D02*
X10347444Y-10091960D01*
X10347444Y-10091960D02*
X10328396Y-10101484D01*
X10328396Y-10101484D02*
X10309348Y-10101484D01*
X10309348Y-10101484D02*
X10290301Y-10091960D01*
X10290301Y-10091960D02*
X10280777Y-10082436D01*
X10280777Y-10082436D02*
X10271253Y-10063389D01*
X10271253Y-10063389D02*
X10261729Y-10025293D01*
X10261729Y-10025293D02*
X10261729Y-9977674D01*
X10261729Y-9977674D02*
X10271253Y-9939579D01*
X10271253Y-9939579D02*
X10280777Y-9920531D01*
X10280777Y-9920531D02*
X10290301Y-9911008D01*
X10290301Y-9911008D02*
X10309348Y-9901484D01*
X10547444Y-9968150D02*
X10547444Y-10101484D01*
X10499825Y-9891960D02*
X10452206Y-10034817D01*
X10452206Y-10034817D02*
X10576015Y-10034817D01*
X10633158Y-9901484D02*
X10756968Y-9901484D01*
X10756968Y-9901484D02*
X10690301Y-9977674D01*
X10690301Y-9977674D02*
X10718872Y-9977674D01*
X10718872Y-9977674D02*
X10737920Y-9987198D01*
X10737920Y-9987198D02*
X10747444Y-9996722D01*
X10747444Y-9996722D02*
X10756968Y-10015770D01*
X10756968Y-10015770D02*
X10756968Y-10063389D01*
X10756968Y-10063389D02*
X10747444Y-10082436D01*
X10747444Y-10082436D02*
X10737920Y-10091960D01*
X10737920Y-10091960D02*
X10718872Y-10101484D01*
X10718872Y-10101484D02*
X10661729Y-10101484D01*
X10661729Y-10101484D02*
X10642682Y-10091960D01*
X10642682Y-10091960D02*
X10633158Y-10082436D01*
X10823634Y-9901484D02*
X10947444Y-9901484D01*
X10947444Y-9901484D02*
X10880777Y-9977674D01*
X10880777Y-9977674D02*
X10909349Y-9977674D01*
X10909349Y-9977674D02*
X10928396Y-9987198D01*
X10928396Y-9987198D02*
X10937920Y-9996722D01*
X10937920Y-9996722D02*
X10947444Y-10015770D01*
X10947444Y-10015770D02*
X10947444Y-10063389D01*
X10947444Y-10063389D02*
X10937920Y-10082436D01*
X10937920Y-10082436D02*
X10928396Y-10091960D01*
X10928396Y-10091960D02*
X10909349Y-10101484D01*
X10909349Y-10101484D02*
X10852206Y-10101484D01*
X10852206Y-10101484D02*
X10833158Y-10091960D01*
X10833158Y-10091960D02*
X10823634Y-10082436D01*
X11023634Y-9901484D02*
X11023634Y-9939579D01*
X11099825Y-9901484D02*
X11099825Y-9939579D01*
X11395063Y-10177674D02*
X11385539Y-10168150D01*
X11385539Y-10168150D02*
X11366491Y-10139579D01*
X11366491Y-10139579D02*
X11356968Y-10120531D01*
X11356968Y-10120531D02*
X11347444Y-10091960D01*
X11347444Y-10091960D02*
X11337920Y-10044341D01*
X11337920Y-10044341D02*
X11337920Y-10006246D01*
X11337920Y-10006246D02*
X11347444Y-9958627D01*
X11347444Y-9958627D02*
X11356968Y-9930055D01*
X11356968Y-9930055D02*
X11366491Y-9911008D01*
X11366491Y-9911008D02*
X11385539Y-9882436D01*
X11385539Y-9882436D02*
X11395063Y-9872912D01*
X11576015Y-10101484D02*
X11461729Y-10101484D01*
X11518872Y-10101484D02*
X11518872Y-9901484D01*
X11518872Y-9901484D02*
X11499825Y-9930055D01*
X11499825Y-9930055D02*
X11480777Y-9949103D01*
X11480777Y-9949103D02*
X11461729Y-9958627D01*
X11756968Y-9901484D02*
X11661729Y-9901484D01*
X11661729Y-9901484D02*
X11652206Y-9996722D01*
X11652206Y-9996722D02*
X11661729Y-9987198D01*
X11661729Y-9987198D02*
X11680777Y-9977674D01*
X11680777Y-9977674D02*
X11728396Y-9977674D01*
X11728396Y-9977674D02*
X11747444Y-9987198D01*
X11747444Y-9987198D02*
X11756968Y-9996722D01*
X11756968Y-9996722D02*
X11766491Y-10015770D01*
X11766491Y-10015770D02*
X11766491Y-10063389D01*
X11766491Y-10063389D02*
X11756968Y-10082436D01*
X11756968Y-10082436D02*
X11747444Y-10091960D01*
X11747444Y-10091960D02*
X11728396Y-10101484D01*
X11728396Y-10101484D02*
X11680777Y-10101484D01*
X11680777Y-10101484D02*
X11661729Y-10091960D01*
X11661729Y-10091960D02*
X11652206Y-10082436D01*
X12004587Y-10101484D02*
X12004587Y-9901484D01*
X12090301Y-10101484D02*
X12090301Y-9996722D01*
X12090301Y-9996722D02*
X12080777Y-9977674D01*
X12080777Y-9977674D02*
X12061730Y-9968150D01*
X12061730Y-9968150D02*
X12033158Y-9968150D01*
X12033158Y-9968150D02*
X12014110Y-9977674D01*
X12014110Y-9977674D02*
X12004587Y-9987198D01*
X12214110Y-10101484D02*
X12195063Y-10091960D01*
X12195063Y-10091960D02*
X12185539Y-10082436D01*
X12185539Y-10082436D02*
X12176015Y-10063389D01*
X12176015Y-10063389D02*
X12176015Y-10006246D01*
X12176015Y-10006246D02*
X12185539Y-9987198D01*
X12185539Y-9987198D02*
X12195063Y-9977674D01*
X12195063Y-9977674D02*
X12214110Y-9968150D01*
X12214110Y-9968150D02*
X12242682Y-9968150D01*
X12242682Y-9968150D02*
X12261730Y-9977674D01*
X12261730Y-9977674D02*
X12271253Y-9987198D01*
X12271253Y-9987198D02*
X12280777Y-10006246D01*
X12280777Y-10006246D02*
X12280777Y-10063389D01*
X12280777Y-10063389D02*
X12271253Y-10082436D01*
X12271253Y-10082436D02*
X12261730Y-10091960D01*
X12261730Y-10091960D02*
X12242682Y-10101484D01*
X12242682Y-10101484D02*
X12214110Y-10101484D01*
X12395063Y-10101484D02*
X12376015Y-10091960D01*
X12376015Y-10091960D02*
X12366491Y-10072912D01*
X12366491Y-10072912D02*
X12366491Y-9901484D01*
X12547444Y-10091960D02*
X12528396Y-10101484D01*
X12528396Y-10101484D02*
X12490301Y-10101484D01*
X12490301Y-10101484D02*
X12471253Y-10091960D01*
X12471253Y-10091960D02*
X12461730Y-10072912D01*
X12461730Y-10072912D02*
X12461730Y-9996722D01*
X12461730Y-9996722D02*
X12471253Y-9977674D01*
X12471253Y-9977674D02*
X12490301Y-9968150D01*
X12490301Y-9968150D02*
X12528396Y-9968150D01*
X12528396Y-9968150D02*
X12547444Y-9977674D01*
X12547444Y-9977674D02*
X12556968Y-9996722D01*
X12556968Y-9996722D02*
X12556968Y-10015770D01*
X12556968Y-10015770D02*
X12461730Y-10034817D01*
X12633158Y-10091960D02*
X12652206Y-10101484D01*
X12652206Y-10101484D02*
X12690301Y-10101484D01*
X12690301Y-10101484D02*
X12709349Y-10091960D01*
X12709349Y-10091960D02*
X12718872Y-10072912D01*
X12718872Y-10072912D02*
X12718872Y-10063389D01*
X12718872Y-10063389D02*
X12709349Y-10044341D01*
X12709349Y-10044341D02*
X12690301Y-10034817D01*
X12690301Y-10034817D02*
X12661730Y-10034817D01*
X12661730Y-10034817D02*
X12642682Y-10025293D01*
X12642682Y-10025293D02*
X12633158Y-10006246D01*
X12633158Y-10006246D02*
X12633158Y-9996722D01*
X12633158Y-9996722D02*
X12642682Y-9977674D01*
X12642682Y-9977674D02*
X12661730Y-9968150D01*
X12661730Y-9968150D02*
X12690301Y-9968150D01*
X12690301Y-9968150D02*
X12709349Y-9977674D01*
X12785539Y-10177674D02*
X12795063Y-10168150D01*
X12795063Y-10168150D02*
X12814111Y-10139579D01*
X12814111Y-10139579D02*
X12823634Y-10120531D01*
X12823634Y-10120531D02*
X12833158Y-10091960D01*
X12833158Y-10091960D02*
X12842682Y-10044341D01*
X12842682Y-10044341D02*
X12842682Y-10006246D01*
X12842682Y-10006246D02*
X12833158Y-9958627D01*
X12833158Y-9958627D02*
X12823634Y-9930055D01*
X12823634Y-9930055D02*
X12814111Y-9911008D01*
X12814111Y-9911008D02*
X12795063Y-9882436D01*
X12795063Y-9882436D02*
X12785539Y-9872912D01*
X7620000Y-10174000D02*
X7820000Y-10374000D01*
X7820000Y-10174000D02*
X7620000Y-10374000D01*
X7720000Y-10174000D02*
X7720000Y-10374000D01*
X7620000Y-10274000D02*
X7820000Y-10274000D01*
X8071253Y-10184531D02*
X8080777Y-10175008D01*
X8080777Y-10175008D02*
X8099824Y-10165484D01*
X8099824Y-10165484D02*
X8147443Y-10165484D01*
X8147443Y-10165484D02*
X8166491Y-10175008D01*
X8166491Y-10175008D02*
X8176015Y-10184531D01*
X8176015Y-10184531D02*
X8185539Y-10203579D01*
X8185539Y-10203579D02*
X8185539Y-10222627D01*
X8185539Y-10222627D02*
X8176015Y-10251198D01*
X8176015Y-10251198D02*
X8061729Y-10365484D01*
X8061729Y-10365484D02*
X8185539Y-10365484D01*
X8271253Y-10346436D02*
X8280777Y-10355960D01*
X8280777Y-10355960D02*
X8271253Y-10365484D01*
X8271253Y-10365484D02*
X8261729Y-10355960D01*
X8261729Y-10355960D02*
X8271253Y-10346436D01*
X8271253Y-10346436D02*
X8271253Y-10365484D01*
X8356967Y-10184531D02*
X8366491Y-10175008D01*
X8366491Y-10175008D02*
X8385539Y-10165484D01*
X8385539Y-10165484D02*
X8433158Y-10165484D01*
X8433158Y-10165484D02*
X8452205Y-10175008D01*
X8452205Y-10175008D02*
X8461729Y-10184531D01*
X8461729Y-10184531D02*
X8471253Y-10203579D01*
X8471253Y-10203579D02*
X8471253Y-10222627D01*
X8471253Y-10222627D02*
X8461729Y-10251198D01*
X8461729Y-10251198D02*
X8347443Y-10365484D01*
X8347443Y-10365484D02*
X8471253Y-10365484D01*
X8595063Y-10165484D02*
X8614110Y-10165484D01*
X8614110Y-10165484D02*
X8633158Y-10175008D01*
X8633158Y-10175008D02*
X8642682Y-10184531D01*
X8642682Y-10184531D02*
X8652205Y-10203579D01*
X8652205Y-10203579D02*
X8661729Y-10241674D01*
X8661729Y-10241674D02*
X8661729Y-10289293D01*
X8661729Y-10289293D02*
X8652205Y-10327389D01*
X8652205Y-10327389D02*
X8642682Y-10346436D01*
X8642682Y-10346436D02*
X8633158Y-10355960D01*
X8633158Y-10355960D02*
X8614110Y-10365484D01*
X8614110Y-10365484D02*
X8595063Y-10365484D01*
X8595063Y-10365484D02*
X8576015Y-10355960D01*
X8576015Y-10355960D02*
X8566491Y-10346436D01*
X8566491Y-10346436D02*
X8556967Y-10327389D01*
X8556967Y-10327389D02*
X8547444Y-10289293D01*
X8547444Y-10289293D02*
X8547444Y-10241674D01*
X8547444Y-10241674D02*
X8556967Y-10203579D01*
X8556967Y-10203579D02*
X8566491Y-10184531D01*
X8566491Y-10184531D02*
X8576015Y-10175008D01*
X8576015Y-10175008D02*
X8595063Y-10165484D01*
X8785539Y-10165484D02*
X8804586Y-10165484D01*
X8804586Y-10165484D02*
X8823634Y-10175008D01*
X8823634Y-10175008D02*
X8833158Y-10184531D01*
X8833158Y-10184531D02*
X8842682Y-10203579D01*
X8842682Y-10203579D02*
X8852205Y-10241674D01*
X8852205Y-10241674D02*
X8852205Y-10289293D01*
X8852205Y-10289293D02*
X8842682Y-10327389D01*
X8842682Y-10327389D02*
X8833158Y-10346436D01*
X8833158Y-10346436D02*
X8823634Y-10355960D01*
X8823634Y-10355960D02*
X8804586Y-10365484D01*
X8804586Y-10365484D02*
X8785539Y-10365484D01*
X8785539Y-10365484D02*
X8766491Y-10355960D01*
X8766491Y-10355960D02*
X8756967Y-10346436D01*
X8756967Y-10346436D02*
X8747444Y-10327389D01*
X8747444Y-10327389D02*
X8737920Y-10289293D01*
X8737920Y-10289293D02*
X8737920Y-10241674D01*
X8737920Y-10241674D02*
X8747444Y-10203579D01*
X8747444Y-10203579D02*
X8756967Y-10184531D01*
X8756967Y-10184531D02*
X8766491Y-10175008D01*
X8766491Y-10175008D02*
X8785539Y-10165484D01*
X8937920Y-10365484D02*
X8937920Y-10232150D01*
X8937920Y-10251198D02*
X8947444Y-10241674D01*
X8947444Y-10241674D02*
X8966491Y-10232150D01*
X8966491Y-10232150D02*
X8995063Y-10232150D01*
X8995063Y-10232150D02*
X9014110Y-10241674D01*
X9014110Y-10241674D02*
X9023634Y-10260722D01*
X9023634Y-10260722D02*
X9023634Y-10365484D01*
X9023634Y-10260722D02*
X9033158Y-10241674D01*
X9033158Y-10241674D02*
X9052205Y-10232150D01*
X9052205Y-10232150D02*
X9080777Y-10232150D01*
X9080777Y-10232150D02*
X9099825Y-10241674D01*
X9099825Y-10241674D02*
X9109348Y-10260722D01*
X9109348Y-10260722D02*
X9109348Y-10365484D01*
X9204586Y-10365484D02*
X9204586Y-10232150D01*
X9204586Y-10251198D02*
X9214110Y-10241674D01*
X9214110Y-10241674D02*
X9233158Y-10232150D01*
X9233158Y-10232150D02*
X9261729Y-10232150D01*
X9261729Y-10232150D02*
X9280777Y-10241674D01*
X9280777Y-10241674D02*
X9290301Y-10260722D01*
X9290301Y-10260722D02*
X9290301Y-10365484D01*
X9290301Y-10260722D02*
X9299825Y-10241674D01*
X9299825Y-10241674D02*
X9318872Y-10232150D01*
X9318872Y-10232150D02*
X9347444Y-10232150D01*
X9347444Y-10232150D02*
X9366491Y-10241674D01*
X9366491Y-10241674D02*
X9376015Y-10260722D01*
X9376015Y-10260722D02*
X9376015Y-10365484D01*
X9766491Y-10155960D02*
X9595063Y-10413103D01*
X10023634Y-10165484D02*
X10042682Y-10165484D01*
X10042682Y-10165484D02*
X10061729Y-10175008D01*
X10061729Y-10175008D02*
X10071253Y-10184531D01*
X10071253Y-10184531D02*
X10080777Y-10203579D01*
X10080777Y-10203579D02*
X10090301Y-10241674D01*
X10090301Y-10241674D02*
X10090301Y-10289293D01*
X10090301Y-10289293D02*
X10080777Y-10327389D01*
X10080777Y-10327389D02*
X10071253Y-10346436D01*
X10071253Y-10346436D02*
X10061729Y-10355960D01*
X10061729Y-10355960D02*
X10042682Y-10365484D01*
X10042682Y-10365484D02*
X10023634Y-10365484D01*
X10023634Y-10365484D02*
X10004587Y-10355960D01*
X10004587Y-10355960D02*
X9995063Y-10346436D01*
X9995063Y-10346436D02*
X9985539Y-10327389D01*
X9985539Y-10327389D02*
X9976015Y-10289293D01*
X9976015Y-10289293D02*
X9976015Y-10241674D01*
X9976015Y-10241674D02*
X9985539Y-10203579D01*
X9985539Y-10203579D02*
X9995063Y-10184531D01*
X9995063Y-10184531D02*
X10004587Y-10175008D01*
X10004587Y-10175008D02*
X10023634Y-10165484D01*
X10176015Y-10346436D02*
X10185539Y-10355960D01*
X10185539Y-10355960D02*
X10176015Y-10365484D01*
X10176015Y-10365484D02*
X10166491Y-10355960D01*
X10166491Y-10355960D02*
X10176015Y-10346436D01*
X10176015Y-10346436D02*
X10176015Y-10365484D01*
X10309348Y-10165484D02*
X10328396Y-10165484D01*
X10328396Y-10165484D02*
X10347444Y-10175008D01*
X10347444Y-10175008D02*
X10356968Y-10184531D01*
X10356968Y-10184531D02*
X10366491Y-10203579D01*
X10366491Y-10203579D02*
X10376015Y-10241674D01*
X10376015Y-10241674D02*
X10376015Y-10289293D01*
X10376015Y-10289293D02*
X10366491Y-10327389D01*
X10366491Y-10327389D02*
X10356968Y-10346436D01*
X10356968Y-10346436D02*
X10347444Y-10355960D01*
X10347444Y-10355960D02*
X10328396Y-10365484D01*
X10328396Y-10365484D02*
X10309348Y-10365484D01*
X10309348Y-10365484D02*
X10290301Y-10355960D01*
X10290301Y-10355960D02*
X10280777Y-10346436D01*
X10280777Y-10346436D02*
X10271253Y-10327389D01*
X10271253Y-10327389D02*
X10261729Y-10289293D01*
X10261729Y-10289293D02*
X10261729Y-10241674D01*
X10261729Y-10241674D02*
X10271253Y-10203579D01*
X10271253Y-10203579D02*
X10280777Y-10184531D01*
X10280777Y-10184531D02*
X10290301Y-10175008D01*
X10290301Y-10175008D02*
X10309348Y-10165484D01*
X10490301Y-10251198D02*
X10471253Y-10241674D01*
X10471253Y-10241674D02*
X10461729Y-10232150D01*
X10461729Y-10232150D02*
X10452206Y-10213103D01*
X10452206Y-10213103D02*
X10452206Y-10203579D01*
X10452206Y-10203579D02*
X10461729Y-10184531D01*
X10461729Y-10184531D02*
X10471253Y-10175008D01*
X10471253Y-10175008D02*
X10490301Y-10165484D01*
X10490301Y-10165484D02*
X10528396Y-10165484D01*
X10528396Y-10165484D02*
X10547444Y-10175008D01*
X10547444Y-10175008D02*
X10556968Y-10184531D01*
X10556968Y-10184531D02*
X10566491Y-10203579D01*
X10566491Y-10203579D02*
X10566491Y-10213103D01*
X10566491Y-10213103D02*
X10556968Y-10232150D01*
X10556968Y-10232150D02*
X10547444Y-10241674D01*
X10547444Y-10241674D02*
X10528396Y-10251198D01*
X10528396Y-10251198D02*
X10490301Y-10251198D01*
X10490301Y-10251198D02*
X10471253Y-10260722D01*
X10471253Y-10260722D02*
X10461729Y-10270246D01*
X10461729Y-10270246D02*
X10452206Y-10289293D01*
X10452206Y-10289293D02*
X10452206Y-10327389D01*
X10452206Y-10327389D02*
X10461729Y-10346436D01*
X10461729Y-10346436D02*
X10471253Y-10355960D01*
X10471253Y-10355960D02*
X10490301Y-10365484D01*
X10490301Y-10365484D02*
X10528396Y-10365484D01*
X10528396Y-10365484D02*
X10547444Y-10355960D01*
X10547444Y-10355960D02*
X10556968Y-10346436D01*
X10556968Y-10346436D02*
X10566491Y-10327389D01*
X10566491Y-10327389D02*
X10566491Y-10289293D01*
X10566491Y-10289293D02*
X10556968Y-10270246D01*
X10556968Y-10270246D02*
X10547444Y-10260722D01*
X10547444Y-10260722D02*
X10528396Y-10251198D01*
X10737920Y-10165484D02*
X10699825Y-10165484D01*
X10699825Y-10165484D02*
X10680777Y-10175008D01*
X10680777Y-10175008D02*
X10671253Y-10184531D01*
X10671253Y-10184531D02*
X10652206Y-10213103D01*
X10652206Y-10213103D02*
X10642682Y-10251198D01*
X10642682Y-10251198D02*
X10642682Y-10327389D01*
X10642682Y-10327389D02*
X10652206Y-10346436D01*
X10652206Y-10346436D02*
X10661729Y-10355960D01*
X10661729Y-10355960D02*
X10680777Y-10365484D01*
X10680777Y-10365484D02*
X10718872Y-10365484D01*
X10718872Y-10365484D02*
X10737920Y-10355960D01*
X10737920Y-10355960D02*
X10747444Y-10346436D01*
X10747444Y-10346436D02*
X10756968Y-10327389D01*
X10756968Y-10327389D02*
X10756968Y-10279770D01*
X10756968Y-10279770D02*
X10747444Y-10260722D01*
X10747444Y-10260722D02*
X10737920Y-10251198D01*
X10737920Y-10251198D02*
X10718872Y-10241674D01*
X10718872Y-10241674D02*
X10680777Y-10241674D01*
X10680777Y-10241674D02*
X10661729Y-10251198D01*
X10661729Y-10251198D02*
X10652206Y-10260722D01*
X10652206Y-10260722D02*
X10642682Y-10279770D01*
X10928396Y-10165484D02*
X10890301Y-10165484D01*
X10890301Y-10165484D02*
X10871253Y-10175008D01*
X10871253Y-10175008D02*
X10861729Y-10184531D01*
X10861729Y-10184531D02*
X10842682Y-10213103D01*
X10842682Y-10213103D02*
X10833158Y-10251198D01*
X10833158Y-10251198D02*
X10833158Y-10327389D01*
X10833158Y-10327389D02*
X10842682Y-10346436D01*
X10842682Y-10346436D02*
X10852206Y-10355960D01*
X10852206Y-10355960D02*
X10871253Y-10365484D01*
X10871253Y-10365484D02*
X10909349Y-10365484D01*
X10909349Y-10365484D02*
X10928396Y-10355960D01*
X10928396Y-10355960D02*
X10937920Y-10346436D01*
X10937920Y-10346436D02*
X10947444Y-10327389D01*
X10947444Y-10327389D02*
X10947444Y-10279770D01*
X10947444Y-10279770D02*
X10937920Y-10260722D01*
X10937920Y-10260722D02*
X10928396Y-10251198D01*
X10928396Y-10251198D02*
X10909349Y-10241674D01*
X10909349Y-10241674D02*
X10871253Y-10241674D01*
X10871253Y-10241674D02*
X10852206Y-10251198D01*
X10852206Y-10251198D02*
X10842682Y-10260722D01*
X10842682Y-10260722D02*
X10833158Y-10279770D01*
X11023634Y-10165484D02*
X11023634Y-10203579D01*
X11099825Y-10165484D02*
X11099825Y-10203579D01*
X11395063Y-10441674D02*
X11385539Y-10432150D01*
X11385539Y-10432150D02*
X11366491Y-10403579D01*
X11366491Y-10403579D02*
X11356968Y-10384531D01*
X11356968Y-10384531D02*
X11347444Y-10355960D01*
X11347444Y-10355960D02*
X11337920Y-10308341D01*
X11337920Y-10308341D02*
X11337920Y-10270246D01*
X11337920Y-10270246D02*
X11347444Y-10222627D01*
X11347444Y-10222627D02*
X11356968Y-10194055D01*
X11356968Y-10194055D02*
X11366491Y-10175008D01*
X11366491Y-10175008D02*
X11385539Y-10146436D01*
X11385539Y-10146436D02*
X11395063Y-10136912D01*
X11452206Y-10165484D02*
X11576015Y-10165484D01*
X11576015Y-10165484D02*
X11509348Y-10241674D01*
X11509348Y-10241674D02*
X11537920Y-10241674D01*
X11537920Y-10241674D02*
X11556968Y-10251198D01*
X11556968Y-10251198D02*
X11566491Y-10260722D01*
X11566491Y-10260722D02*
X11576015Y-10279770D01*
X11576015Y-10279770D02*
X11576015Y-10327389D01*
X11576015Y-10327389D02*
X11566491Y-10346436D01*
X11566491Y-10346436D02*
X11556968Y-10355960D01*
X11556968Y-10355960D02*
X11537920Y-10365484D01*
X11537920Y-10365484D02*
X11480777Y-10365484D01*
X11480777Y-10365484D02*
X11461729Y-10355960D01*
X11461729Y-10355960D02*
X11452206Y-10346436D01*
X11814110Y-10365484D02*
X11814110Y-10165484D01*
X11899825Y-10365484D02*
X11899825Y-10260722D01*
X11899825Y-10260722D02*
X11890301Y-10241674D01*
X11890301Y-10241674D02*
X11871253Y-10232150D01*
X11871253Y-10232150D02*
X11842682Y-10232150D01*
X11842682Y-10232150D02*
X11823634Y-10241674D01*
X11823634Y-10241674D02*
X11814110Y-10251198D01*
X12023634Y-10365484D02*
X12004587Y-10355960D01*
X12004587Y-10355960D02*
X11995063Y-10346436D01*
X11995063Y-10346436D02*
X11985539Y-10327389D01*
X11985539Y-10327389D02*
X11985539Y-10270246D01*
X11985539Y-10270246D02*
X11995063Y-10251198D01*
X11995063Y-10251198D02*
X12004587Y-10241674D01*
X12004587Y-10241674D02*
X12023634Y-10232150D01*
X12023634Y-10232150D02*
X12052206Y-10232150D01*
X12052206Y-10232150D02*
X12071253Y-10241674D01*
X12071253Y-10241674D02*
X12080777Y-10251198D01*
X12080777Y-10251198D02*
X12090301Y-10270246D01*
X12090301Y-10270246D02*
X12090301Y-10327389D01*
X12090301Y-10327389D02*
X12080777Y-10346436D01*
X12080777Y-10346436D02*
X12071253Y-10355960D01*
X12071253Y-10355960D02*
X12052206Y-10365484D01*
X12052206Y-10365484D02*
X12023634Y-10365484D01*
X12204587Y-10365484D02*
X12185539Y-10355960D01*
X12185539Y-10355960D02*
X12176015Y-10336912D01*
X12176015Y-10336912D02*
X12176015Y-10165484D01*
X12356968Y-10355960D02*
X12337920Y-10365484D01*
X12337920Y-10365484D02*
X12299825Y-10365484D01*
X12299825Y-10365484D02*
X12280777Y-10355960D01*
X12280777Y-10355960D02*
X12271253Y-10336912D01*
X12271253Y-10336912D02*
X12271253Y-10260722D01*
X12271253Y-10260722D02*
X12280777Y-10241674D01*
X12280777Y-10241674D02*
X12299825Y-10232150D01*
X12299825Y-10232150D02*
X12337920Y-10232150D01*
X12337920Y-10232150D02*
X12356968Y-10241674D01*
X12356968Y-10241674D02*
X12366491Y-10260722D01*
X12366491Y-10260722D02*
X12366491Y-10279770D01*
X12366491Y-10279770D02*
X12271253Y-10298817D01*
X12442682Y-10355960D02*
X12461730Y-10365484D01*
X12461730Y-10365484D02*
X12499825Y-10365484D01*
X12499825Y-10365484D02*
X12518872Y-10355960D01*
X12518872Y-10355960D02*
X12528396Y-10336912D01*
X12528396Y-10336912D02*
X12528396Y-10327389D01*
X12528396Y-10327389D02*
X12518872Y-10308341D01*
X12518872Y-10308341D02*
X12499825Y-10298817D01*
X12499825Y-10298817D02*
X12471253Y-10298817D01*
X12471253Y-10298817D02*
X12452206Y-10289293D01*
X12452206Y-10289293D02*
X12442682Y-10270246D01*
X12442682Y-10270246D02*
X12442682Y-10260722D01*
X12442682Y-10260722D02*
X12452206Y-10241674D01*
X12452206Y-10241674D02*
X12471253Y-10232150D01*
X12471253Y-10232150D02*
X12499825Y-10232150D01*
X12499825Y-10232150D02*
X12518872Y-10241674D01*
X12595063Y-10441674D02*
X12604587Y-10432150D01*
X12604587Y-10432150D02*
X12623634Y-10403579D01*
X12623634Y-10403579D02*
X12633158Y-10384531D01*
X12633158Y-10384531D02*
X12642682Y-10355960D01*
X12642682Y-10355960D02*
X12652206Y-10308341D01*
X12652206Y-10308341D02*
X12652206Y-10270246D01*
X12652206Y-10270246D02*
X12642682Y-10222627D01*
X12642682Y-10222627D02*
X12633158Y-10194055D01*
X12633158Y-10194055D02*
X12623634Y-10175008D01*
X12623634Y-10175008D02*
X12604587Y-10146436D01*
X12604587Y-10146436D02*
X12595063Y-10136912D01*
M02*
