G04 #@! TF.GenerationSoftware,KiCad,Pcbnew,8.0.1*
G04 #@! TF.CreationDate,2024-06-08T15:54:11-04:00*
G04 #@! TF.ProjectId,SAP Mk3.2,53415020-4d6b-4332-9e32-2e6b69636164,rev?*
G04 #@! TF.SameCoordinates,Original*
G04 #@! TF.FileFunction,Legend,Bot*
G04 #@! TF.FilePolarity,Positive*
%FSLAX46Y46*%
G04 Gerber Fmt 4.6, Leading zero omitted, Abs format (unit mm)*
G04 Created by KiCad (PCBNEW 8.0.1) date 2024-06-08 15:54:11*
%MOMM*%
%LPD*%
G01*
G04 APERTURE LIST*
G04 Aperture macros list*
%AMRoundRect*
0 Rectangle with rounded corners*
0 $1 Rounding radius*
0 $2 $3 $4 $5 $6 $7 $8 $9 X,Y pos of 4 corners*
0 Add a 4 corners polygon primitive as box body*
4,1,4,$2,$3,$4,$5,$6,$7,$8,$9,$2,$3,0*
0 Add four circle primitives for the rounded corners*
1,1,$1+$1,$2,$3*
1,1,$1+$1,$4,$5*
1,1,$1+$1,$6,$7*
1,1,$1+$1,$8,$9*
0 Add four rect primitives between the rounded corners*
20,1,$1+$1,$2,$3,$4,$5,0*
20,1,$1+$1,$4,$5,$6,$7,0*
20,1,$1+$1,$6,$7,$8,$9,0*
20,1,$1+$1,$8,$9,$2,$3,0*%
G04 Aperture macros list end*
%ADD10C,0.200000*%
%ADD11C,0.175000*%
%ADD12C,0.000000*%
%ADD13C,0.150000*%
%ADD14C,0.120000*%
%ADD15C,0.127000*%
%ADD16C,0.300000*%
%ADD17C,0.152400*%
%ADD18C,0.010000*%
%ADD19RoundRect,0.237750X-0.400250X0.237750X-0.400250X-0.237750X0.400250X-0.237750X0.400250X0.237750X0*%
%ADD20RoundRect,0.038000X1.100000X-1.100000X1.100000X1.100000X-1.100000X1.100000X-1.100000X-1.100000X0*%
%ADD21C,2.276000*%
%ADD22O,1.126000X1.976000*%
%ADD23RoundRect,0.038000X-0.850000X0.850000X-0.850000X-0.850000X0.850000X-0.850000X0.850000X0.850000X0*%
%ADD24O,1.776000X1.776000*%
%ADD25C,2.676000*%
%ADD26C,3.876000*%
%ADD27RoundRect,0.038000X-0.800000X-0.800000X0.800000X-0.800000X0.800000X0.800000X-0.800000X0.800000X0*%
%ADD28C,1.676000*%
%ADD29RoundRect,0.038000X0.952500X1.000000X-0.952500X1.000000X-0.952500X-1.000000X0.952500X-1.000000X0*%
%ADD30O,1.981000X2.076000*%
%ADD31RoundRect,0.219000X-0.294000X0.219000X-0.294000X-0.219000X0.294000X-0.219000X0.294000X0.219000X0*%
%ADD32RoundRect,0.244000X0.244000X0.269000X-0.244000X0.269000X-0.244000X-0.269000X0.244000X-0.269000X0*%
%ADD33RoundRect,0.131500X0.256500X-0.131500X0.256500X0.131500X-0.256500X0.131500X-0.256500X-0.131500X0*%
%ADD34RoundRect,0.119000X0.119000X-0.149000X0.119000X0.149000X-0.119000X0.149000X-0.119000X-0.149000X0*%
%ADD35RoundRect,0.038000X0.500000X-0.500000X0.500000X0.500000X-0.500000X0.500000X-0.500000X-0.500000X0*%
%ADD36RoundRect,0.038000X1.100000X-0.525000X1.100000X0.525000X-1.100000X0.525000X-1.100000X-0.525000X0*%
%ADD37RoundRect,0.219000X-0.219000X-0.294000X0.219000X-0.294000X0.219000X0.294000X-0.219000X0.294000X0*%
%ADD38RoundRect,0.244000X-0.244000X-0.269000X0.244000X-0.269000X0.244000X0.269000X-0.244000X0.269000X0*%
%ADD39RoundRect,0.244000X0.269000X-0.244000X0.269000X0.244000X-0.269000X0.244000X-0.269000X-0.244000X0*%
%ADD40RoundRect,0.038000X0.275000X-0.475000X0.275000X0.475000X-0.275000X0.475000X-0.275000X-0.475000X0*%
%ADD41RoundRect,0.102000X0.495000X0.205000X-0.495000X0.205000X-0.495000X-0.205000X0.495000X-0.205000X0*%
%ADD42RoundRect,0.102000X0.862500X0.495000X-0.862500X0.495000X-0.862500X-0.495000X0.862500X-0.495000X0*%
%ADD43RoundRect,0.102000X-0.380000X-0.205000X0.380000X-0.205000X0.380000X0.205000X-0.380000X0.205000X0*%
%ADD44RoundRect,0.219000X0.219000X0.294000X-0.219000X0.294000X-0.219000X-0.294000X0.219000X-0.294000X0*%
%ADD45RoundRect,0.081500X0.081500X-0.369000X0.081500X0.369000X-0.081500X0.369000X-0.081500X-0.369000X0*%
%ADD46RoundRect,0.081500X0.369000X-0.081500X0.369000X0.081500X-0.369000X0.081500X-0.369000X-0.081500X0*%
%ADD47RoundRect,0.038000X1.300000X-1.300000X1.300000X1.300000X-1.300000X1.300000X-1.300000X-1.300000X0*%
%ADD48RoundRect,0.219000X0.294000X-0.219000X0.294000X0.219000X-0.294000X0.219000X-0.294000X-0.219000X0*%
%ADD49RoundRect,0.260556X0.677444X-1.027444X0.677444X1.027444X-0.677444X1.027444X-0.677444X-1.027444X0*%
%ADD50RoundRect,0.038000X-0.300000X-0.300000X0.300000X-0.300000X0.300000X0.300000X-0.300000X0.300000X0*%
%ADD51RoundRect,0.244000X-0.269000X0.244000X-0.269000X-0.244000X0.269000X-0.244000X0.269000X0.244000X0*%
%ADD52RoundRect,0.166500X-0.191500X0.166500X-0.191500X-0.166500X0.191500X-0.166500X0.191500X0.166500X0*%
%ADD53RoundRect,0.038000X-0.152400X-0.228600X0.152400X-0.228600X0.152400X0.228600X-0.152400X0.228600X0*%
%ADD54RoundRect,0.038000X0.228600X-0.152400X0.228600X0.152400X-0.228600X0.152400X-0.228600X-0.152400X0*%
%ADD55RoundRect,0.169000X0.669000X0.169000X-0.669000X0.169000X-0.669000X-0.169000X0.669000X-0.169000X0*%
%ADD56RoundRect,0.038000X-0.647700X-0.419100X0.647700X-0.419100X0.647700X0.419100X-0.647700X0.419100X0*%
%ADD57RoundRect,0.169000X-0.169000X0.344000X-0.169000X-0.344000X0.169000X-0.344000X0.169000X0.344000X0*%
%ADD58RoundRect,0.169000X-0.344000X0.169000X-0.344000X-0.169000X0.344000X-0.169000X0.344000X0.169000X0*%
%ADD59RoundRect,0.102000X-0.700000X0.600000X-0.700000X-0.600000X0.700000X-0.600000X0.700000X0.600000X0*%
%ADD60RoundRect,0.038000X-0.300000X-0.150000X0.300000X-0.150000X0.300000X0.150000X-0.300000X0.150000X0*%
%ADD61RoundRect,0.038000X-0.150000X-0.312500X0.150000X-0.312500X0.150000X0.312500X-0.150000X0.312500X0*%
G04 APERTURE END LIST*
D10*
X93882780Y-51732707D02*
X93882780Y-51144612D01*
X93882780Y-51144612D02*
X93501828Y-51461279D01*
X93501828Y-51461279D02*
X93501828Y-51325564D01*
X93501828Y-51325564D02*
X93454209Y-51235088D01*
X93454209Y-51235088D02*
X93406590Y-51189850D01*
X93406590Y-51189850D02*
X93311352Y-51144612D01*
X93311352Y-51144612D02*
X93073257Y-51144612D01*
X93073257Y-51144612D02*
X92978019Y-51189850D01*
X92978019Y-51189850D02*
X92930400Y-51235088D01*
X92930400Y-51235088D02*
X92882780Y-51325564D01*
X92882780Y-51325564D02*
X92882780Y-51596993D01*
X92882780Y-51596993D02*
X92930400Y-51687469D01*
X92930400Y-51687469D02*
X92978019Y-51732707D01*
X93549447Y-50827945D02*
X92882780Y-50601755D01*
X92882780Y-50601755D02*
X93549447Y-50375564D01*
X93882780Y-50104135D02*
X93882780Y-49516040D01*
X93882780Y-49516040D02*
X93501828Y-49832707D01*
X93501828Y-49832707D02*
X93501828Y-49696992D01*
X93501828Y-49696992D02*
X93454209Y-49606516D01*
X93454209Y-49606516D02*
X93406590Y-49561278D01*
X93406590Y-49561278D02*
X93311352Y-49516040D01*
X93311352Y-49516040D02*
X93073257Y-49516040D01*
X93073257Y-49516040D02*
X92978019Y-49561278D01*
X92978019Y-49561278D02*
X92930400Y-49606516D01*
X92930400Y-49606516D02*
X92882780Y-49696992D01*
X92882780Y-49696992D02*
X92882780Y-49968421D01*
X92882780Y-49968421D02*
X92930400Y-50058897D01*
X92930400Y-50058897D02*
X92978019Y-50104135D01*
X91335161Y-51394612D02*
X91382780Y-51485088D01*
X91382780Y-51485088D02*
X91382780Y-51620802D01*
X91382780Y-51620802D02*
X91335161Y-51756517D01*
X91335161Y-51756517D02*
X91239923Y-51846993D01*
X91239923Y-51846993D02*
X91144685Y-51892231D01*
X91144685Y-51892231D02*
X90954209Y-51937469D01*
X90954209Y-51937469D02*
X90811352Y-51937469D01*
X90811352Y-51937469D02*
X90620876Y-51892231D01*
X90620876Y-51892231D02*
X90525638Y-51846993D01*
X90525638Y-51846993D02*
X90430400Y-51756517D01*
X90430400Y-51756517D02*
X90382780Y-51620802D01*
X90382780Y-51620802D02*
X90382780Y-51530326D01*
X90382780Y-51530326D02*
X90430400Y-51394612D01*
X90430400Y-51394612D02*
X90478019Y-51349374D01*
X90478019Y-51349374D02*
X90811352Y-51349374D01*
X90811352Y-51349374D02*
X90811352Y-51530326D01*
X90382780Y-50942231D02*
X91382780Y-50942231D01*
X91382780Y-50942231D02*
X90382780Y-50399374D01*
X90382780Y-50399374D02*
X91382780Y-50399374D01*
X90382780Y-49946993D02*
X91382780Y-49946993D01*
X91382780Y-49946993D02*
X91382780Y-49720803D01*
X91382780Y-49720803D02*
X91335161Y-49585088D01*
X91335161Y-49585088D02*
X91239923Y-49494612D01*
X91239923Y-49494612D02*
X91144685Y-49449374D01*
X91144685Y-49449374D02*
X90954209Y-49404136D01*
X90954209Y-49404136D02*
X90811352Y-49404136D01*
X90811352Y-49404136D02*
X90620876Y-49449374D01*
X90620876Y-49449374D02*
X90525638Y-49494612D01*
X90525638Y-49494612D02*
X90430400Y-49585088D01*
X90430400Y-49585088D02*
X90382780Y-49720803D01*
X90382780Y-49720803D02*
X90382780Y-49946993D01*
D11*
X129115821Y-77523280D02*
X129161059Y-77570900D01*
X129161059Y-77570900D02*
X129296773Y-77618519D01*
X129296773Y-77618519D02*
X129387249Y-77618519D01*
X129387249Y-77618519D02*
X129522964Y-77570900D01*
X129522964Y-77570900D02*
X129613440Y-77475661D01*
X129613440Y-77475661D02*
X129658678Y-77380423D01*
X129658678Y-77380423D02*
X129703916Y-77189947D01*
X129703916Y-77189947D02*
X129703916Y-77047090D01*
X129703916Y-77047090D02*
X129658678Y-76856614D01*
X129658678Y-76856614D02*
X129613440Y-76761376D01*
X129613440Y-76761376D02*
X129522964Y-76666138D01*
X129522964Y-76666138D02*
X129387249Y-76618519D01*
X129387249Y-76618519D02*
X129296773Y-76618519D01*
X129296773Y-76618519D02*
X129161059Y-76666138D01*
X129161059Y-76666138D02*
X129115821Y-76713757D01*
X128301535Y-76618519D02*
X128482488Y-76618519D01*
X128482488Y-76618519D02*
X128572964Y-76666138D01*
X128572964Y-76666138D02*
X128618202Y-76713757D01*
X128618202Y-76713757D02*
X128708678Y-76856614D01*
X128708678Y-76856614D02*
X128753916Y-77047090D01*
X128753916Y-77047090D02*
X128753916Y-77428042D01*
X128753916Y-77428042D02*
X128708678Y-77523280D01*
X128708678Y-77523280D02*
X128663440Y-77570900D01*
X128663440Y-77570900D02*
X128572964Y-77618519D01*
X128572964Y-77618519D02*
X128392011Y-77618519D01*
X128392011Y-77618519D02*
X128301535Y-77570900D01*
X128301535Y-77570900D02*
X128256297Y-77523280D01*
X128256297Y-77523280D02*
X128211059Y-77428042D01*
X128211059Y-77428042D02*
X128211059Y-77189947D01*
X128211059Y-77189947D02*
X128256297Y-77094709D01*
X128256297Y-77094709D02*
X128301535Y-77047090D01*
X128301535Y-77047090D02*
X128392011Y-76999471D01*
X128392011Y-76999471D02*
X128572964Y-76999471D01*
X128572964Y-76999471D02*
X128663440Y-77047090D01*
X128663440Y-77047090D02*
X128708678Y-77094709D01*
X128708678Y-77094709D02*
X128753916Y-77189947D01*
X126537249Y-77523280D02*
X126582487Y-77570900D01*
X126582487Y-77570900D02*
X126718201Y-77618519D01*
X126718201Y-77618519D02*
X126808677Y-77618519D01*
X126808677Y-77618519D02*
X126944392Y-77570900D01*
X126944392Y-77570900D02*
X127034868Y-77475661D01*
X127034868Y-77475661D02*
X127080106Y-77380423D01*
X127080106Y-77380423D02*
X127125344Y-77189947D01*
X127125344Y-77189947D02*
X127125344Y-77047090D01*
X127125344Y-77047090D02*
X127080106Y-76856614D01*
X127080106Y-76856614D02*
X127034868Y-76761376D01*
X127034868Y-76761376D02*
X126944392Y-76666138D01*
X126944392Y-76666138D02*
X126808677Y-76618519D01*
X126808677Y-76618519D02*
X126718201Y-76618519D01*
X126718201Y-76618519D02*
X126582487Y-76666138D01*
X126582487Y-76666138D02*
X126537249Y-76713757D01*
X126220582Y-76618519D02*
X125587249Y-76618519D01*
X125587249Y-76618519D02*
X125994392Y-77618519D01*
X123958677Y-77523280D02*
X124003915Y-77570900D01*
X124003915Y-77570900D02*
X124139629Y-77618519D01*
X124139629Y-77618519D02*
X124230105Y-77618519D01*
X124230105Y-77618519D02*
X124365820Y-77570900D01*
X124365820Y-77570900D02*
X124456296Y-77475661D01*
X124456296Y-77475661D02*
X124501534Y-77380423D01*
X124501534Y-77380423D02*
X124546772Y-77189947D01*
X124546772Y-77189947D02*
X124546772Y-77047090D01*
X124546772Y-77047090D02*
X124501534Y-76856614D01*
X124501534Y-76856614D02*
X124456296Y-76761376D01*
X124456296Y-76761376D02*
X124365820Y-76666138D01*
X124365820Y-76666138D02*
X124230105Y-76618519D01*
X124230105Y-76618519D02*
X124139629Y-76618519D01*
X124139629Y-76618519D02*
X124003915Y-76666138D01*
X124003915Y-76666138D02*
X123958677Y-76713757D01*
X123415820Y-77047090D02*
X123506296Y-76999471D01*
X123506296Y-76999471D02*
X123551534Y-76951852D01*
X123551534Y-76951852D02*
X123596772Y-76856614D01*
X123596772Y-76856614D02*
X123596772Y-76808995D01*
X123596772Y-76808995D02*
X123551534Y-76713757D01*
X123551534Y-76713757D02*
X123506296Y-76666138D01*
X123506296Y-76666138D02*
X123415820Y-76618519D01*
X123415820Y-76618519D02*
X123234867Y-76618519D01*
X123234867Y-76618519D02*
X123144391Y-76666138D01*
X123144391Y-76666138D02*
X123099153Y-76713757D01*
X123099153Y-76713757D02*
X123053915Y-76808995D01*
X123053915Y-76808995D02*
X123053915Y-76856614D01*
X123053915Y-76856614D02*
X123099153Y-76951852D01*
X123099153Y-76951852D02*
X123144391Y-76999471D01*
X123144391Y-76999471D02*
X123234867Y-77047090D01*
X123234867Y-77047090D02*
X123415820Y-77047090D01*
X123415820Y-77047090D02*
X123506296Y-77094709D01*
X123506296Y-77094709D02*
X123551534Y-77142328D01*
X123551534Y-77142328D02*
X123596772Y-77237566D01*
X123596772Y-77237566D02*
X123596772Y-77428042D01*
X123596772Y-77428042D02*
X123551534Y-77523280D01*
X123551534Y-77523280D02*
X123506296Y-77570900D01*
X123506296Y-77570900D02*
X123415820Y-77618519D01*
X123415820Y-77618519D02*
X123234867Y-77618519D01*
X123234867Y-77618519D02*
X123144391Y-77570900D01*
X123144391Y-77570900D02*
X123099153Y-77523280D01*
X123099153Y-77523280D02*
X123053915Y-77428042D01*
X123053915Y-77428042D02*
X123053915Y-77237566D01*
X123053915Y-77237566D02*
X123099153Y-77142328D01*
X123099153Y-77142328D02*
X123144391Y-77094709D01*
X123144391Y-77094709D02*
X123234867Y-77047090D01*
X121380105Y-77523280D02*
X121425343Y-77570900D01*
X121425343Y-77570900D02*
X121561057Y-77618519D01*
X121561057Y-77618519D02*
X121651533Y-77618519D01*
X121651533Y-77618519D02*
X121787248Y-77570900D01*
X121787248Y-77570900D02*
X121877724Y-77475661D01*
X121877724Y-77475661D02*
X121922962Y-77380423D01*
X121922962Y-77380423D02*
X121968200Y-77189947D01*
X121968200Y-77189947D02*
X121968200Y-77047090D01*
X121968200Y-77047090D02*
X121922962Y-76856614D01*
X121922962Y-76856614D02*
X121877724Y-76761376D01*
X121877724Y-76761376D02*
X121787248Y-76666138D01*
X121787248Y-76666138D02*
X121651533Y-76618519D01*
X121651533Y-76618519D02*
X121561057Y-76618519D01*
X121561057Y-76618519D02*
X121425343Y-76666138D01*
X121425343Y-76666138D02*
X121380105Y-76713757D01*
X120927724Y-77618519D02*
X120746772Y-77618519D01*
X120746772Y-77618519D02*
X120656295Y-77570900D01*
X120656295Y-77570900D02*
X120611057Y-77523280D01*
X120611057Y-77523280D02*
X120520581Y-77380423D01*
X120520581Y-77380423D02*
X120475343Y-77189947D01*
X120475343Y-77189947D02*
X120475343Y-76808995D01*
X120475343Y-76808995D02*
X120520581Y-76713757D01*
X120520581Y-76713757D02*
X120565819Y-76666138D01*
X120565819Y-76666138D02*
X120656295Y-76618519D01*
X120656295Y-76618519D02*
X120837248Y-76618519D01*
X120837248Y-76618519D02*
X120927724Y-76666138D01*
X120927724Y-76666138D02*
X120972962Y-76713757D01*
X120972962Y-76713757D02*
X121018200Y-76808995D01*
X121018200Y-76808995D02*
X121018200Y-77047090D01*
X121018200Y-77047090D02*
X120972962Y-77142328D01*
X120972962Y-77142328D02*
X120927724Y-77189947D01*
X120927724Y-77189947D02*
X120837248Y-77237566D01*
X120837248Y-77237566D02*
X120656295Y-77237566D01*
X120656295Y-77237566D02*
X120565819Y-77189947D01*
X120565819Y-77189947D02*
X120520581Y-77142328D01*
X120520581Y-77142328D02*
X120475343Y-77047090D01*
D12*
G36*
X114524546Y-61145471D02*
G01*
X114530139Y-61145879D01*
X114535651Y-61146552D01*
X114541075Y-61147483D01*
X114546403Y-61148665D01*
X114551630Y-61150091D01*
X114556747Y-61151755D01*
X114561748Y-61153650D01*
X114566627Y-61155769D01*
X114571376Y-61158106D01*
X114575988Y-61160654D01*
X114580457Y-61163407D01*
X114584775Y-61166358D01*
X114588935Y-61169500D01*
X114592931Y-61172826D01*
X114596756Y-61176330D01*
X114600403Y-61180006D01*
X114603865Y-61183846D01*
X114607134Y-61187844D01*
X114610205Y-61191993D01*
X114613069Y-61196287D01*
X114615721Y-61200719D01*
X114618153Y-61205283D01*
X114620359Y-61209971D01*
X114622331Y-61214777D01*
X114624062Y-61219694D01*
X114625546Y-61224716D01*
X114626776Y-61229837D01*
X114627745Y-61235049D01*
X114628445Y-61240345D01*
X114628870Y-61245720D01*
X114629014Y-61251166D01*
X114629014Y-61659048D01*
X114833505Y-61413197D01*
X114837402Y-61409242D01*
X114841460Y-61405521D01*
X114845668Y-61402034D01*
X114850015Y-61398783D01*
X114854494Y-61395768D01*
X114859093Y-61392989D01*
X114863803Y-61390447D01*
X114868615Y-61388143D01*
X114873518Y-61386076D01*
X114878502Y-61384247D01*
X114883559Y-61382658D01*
X114888677Y-61381307D01*
X114893848Y-61380197D01*
X114899062Y-61379326D01*
X114904308Y-61378697D01*
X114909578Y-61378309D01*
X114914860Y-61378163D01*
X114920147Y-61378259D01*
X114925427Y-61378598D01*
X114930690Y-61379181D01*
X114935929Y-61380007D01*
X114941131Y-61381078D01*
X114946288Y-61382393D01*
X114951390Y-61383954D01*
X114956427Y-61385761D01*
X114961389Y-61387814D01*
X114966267Y-61390114D01*
X114971051Y-61392661D01*
X114975731Y-61395456D01*
X114980297Y-61398500D01*
X114984739Y-61401792D01*
X114989048Y-61405334D01*
X114993165Y-61409079D01*
X114997039Y-61412978D01*
X115000667Y-61417022D01*
X115004051Y-61421200D01*
X115007189Y-61425504D01*
X115010082Y-61429923D01*
X115012727Y-61434450D01*
X115015126Y-61439073D01*
X115017277Y-61443785D01*
X115019180Y-61448575D01*
X115020834Y-61453434D01*
X115022239Y-61458352D01*
X115023394Y-61463321D01*
X115024300Y-61468331D01*
X115024955Y-61473373D01*
X115025358Y-61478436D01*
X115025510Y-61483512D01*
X115025410Y-61488592D01*
X115025057Y-61493665D01*
X115024451Y-61498724D01*
X115023591Y-61503757D01*
X115022476Y-61508756D01*
X115021108Y-61513711D01*
X115019483Y-61518613D01*
X115017604Y-61523453D01*
X115015467Y-61528222D01*
X115013074Y-61532909D01*
X115010424Y-61537505D01*
X115007516Y-61542001D01*
X115004349Y-61546388D01*
X115000924Y-61550657D01*
X114997240Y-61554797D01*
X114629019Y-61865000D01*
X114629019Y-62308711D01*
X115012257Y-62086853D01*
X115096067Y-61612005D01*
X115097800Y-61606735D01*
X115099774Y-61601627D01*
X115101979Y-61596684D01*
X115104409Y-61591910D01*
X115107053Y-61587310D01*
X115109905Y-61582889D01*
X115112955Y-61578650D01*
X115116195Y-61574597D01*
X115119617Y-61570736D01*
X115123212Y-61567069D01*
X115126972Y-61563602D01*
X115130889Y-61560339D01*
X115134955Y-61557283D01*
X115139160Y-61554440D01*
X115143497Y-61551813D01*
X115147957Y-61549407D01*
X115152532Y-61547225D01*
X115157213Y-61545273D01*
X115161993Y-61543554D01*
X115166862Y-61542073D01*
X115171813Y-61540834D01*
X115176836Y-61539841D01*
X115181925Y-61539098D01*
X115187069Y-61538610D01*
X115192262Y-61538381D01*
X115197494Y-61538415D01*
X115202757Y-61538716D01*
X115208043Y-61539289D01*
X115213343Y-61540138D01*
X115218650Y-61541267D01*
X115223954Y-61542681D01*
X115229248Y-61544383D01*
X115234461Y-61546354D01*
X115239525Y-61548566D01*
X115244436Y-61551010D01*
X115249190Y-61553676D01*
X115253781Y-61556557D01*
X115258207Y-61559643D01*
X115262461Y-61562926D01*
X115266540Y-61566397D01*
X115270439Y-61570047D01*
X115274153Y-61573867D01*
X115277679Y-61577849D01*
X115281012Y-61581985D01*
X115284147Y-61586264D01*
X115287079Y-61590680D01*
X115289806Y-61595222D01*
X115292321Y-61599882D01*
X115294621Y-61604651D01*
X115296700Y-61609522D01*
X115298556Y-61614484D01*
X115300182Y-61619529D01*
X115301575Y-61624649D01*
X115302730Y-61629835D01*
X115303643Y-61635077D01*
X115304310Y-61640368D01*
X115304725Y-61645698D01*
X115304884Y-61651060D01*
X115304784Y-61656443D01*
X115304419Y-61661839D01*
X115303785Y-61667241D01*
X115302878Y-61672638D01*
X115301692Y-61678022D01*
X115300225Y-61683384D01*
X115190131Y-61983882D01*
X115542419Y-61779941D01*
X115547194Y-61777343D01*
X115552049Y-61775025D01*
X115556974Y-61772986D01*
X115561959Y-61771221D01*
X115566996Y-61769729D01*
X115572076Y-61768507D01*
X115577189Y-61767552D01*
X115582325Y-61766862D01*
X115587477Y-61766433D01*
X115592634Y-61766264D01*
X115597788Y-61766351D01*
X115602929Y-61766691D01*
X115608048Y-61767283D01*
X115613135Y-61768123D01*
X115618183Y-61769209D01*
X115623180Y-61770538D01*
X115628119Y-61772107D01*
X115632990Y-61773914D01*
X115637784Y-61775956D01*
X115642491Y-61778231D01*
X115647103Y-61780735D01*
X115651610Y-61783465D01*
X115656003Y-61786421D01*
X115660273Y-61789597D01*
X115664410Y-61792993D01*
X115668406Y-61796605D01*
X115672251Y-61800430D01*
X115675936Y-61804466D01*
X115679452Y-61808711D01*
X115682789Y-61813161D01*
X115685939Y-61817813D01*
X115688892Y-61822666D01*
X115691607Y-61827657D01*
X115694051Y-61832718D01*
X115696226Y-61837841D01*
X115698134Y-61843016D01*
X115699778Y-61848235D01*
X115701160Y-61853486D01*
X115702281Y-61858762D01*
X115703146Y-61864053D01*
X115703754Y-61869349D01*
X115704110Y-61874641D01*
X115704215Y-61879921D01*
X115704072Y-61885178D01*
X115703683Y-61890403D01*
X115703049Y-61895587D01*
X115702175Y-61900720D01*
X115701060Y-61905794D01*
X115699709Y-61910798D01*
X115698123Y-61915724D01*
X115696305Y-61920563D01*
X115694257Y-61925304D01*
X115691980Y-61929939D01*
X115689478Y-61934458D01*
X115686753Y-61938851D01*
X115683807Y-61943111D01*
X115680642Y-61947226D01*
X115677260Y-61951189D01*
X115673665Y-61954989D01*
X115669857Y-61958617D01*
X115665840Y-61962064D01*
X115661616Y-61965320D01*
X115657187Y-61968377D01*
X115652554Y-61971225D01*
X115300272Y-62175165D01*
X115614851Y-62229812D01*
X115620216Y-62231219D01*
X115625459Y-62232882D01*
X115630574Y-62234792D01*
X115635556Y-62236942D01*
X115640400Y-62239324D01*
X115645100Y-62241928D01*
X115649651Y-62244747D01*
X115654047Y-62247773D01*
X115658284Y-62250997D01*
X115662355Y-62254411D01*
X115666257Y-62258007D01*
X115669982Y-62261776D01*
X115673527Y-62265711D01*
X115676886Y-62269804D01*
X115680052Y-62274045D01*
X115683022Y-62278426D01*
X115685790Y-62282941D01*
X115688350Y-62287579D01*
X115690697Y-62292333D01*
X115692826Y-62297195D01*
X115694732Y-62302157D01*
X115696408Y-62307210D01*
X115697851Y-62312346D01*
X115699054Y-62317556D01*
X115700012Y-62322834D01*
X115700720Y-62328169D01*
X115701172Y-62333555D01*
X115701364Y-62338982D01*
X115701290Y-62344443D01*
X115700944Y-62349929D01*
X115700322Y-62355433D01*
X115699417Y-62360945D01*
X115698241Y-62366394D01*
X115696810Y-62371707D01*
X115695132Y-62376880D01*
X115693216Y-62381907D01*
X115691068Y-62386784D01*
X115688697Y-62391506D01*
X115686111Y-62396066D01*
X115683317Y-62400461D01*
X115680323Y-62404685D01*
X115677137Y-62408732D01*
X115673768Y-62412598D01*
X115670222Y-62416278D01*
X115666509Y-62419766D01*
X115662634Y-62423057D01*
X115658608Y-62426146D01*
X115654436Y-62429028D01*
X115650128Y-62431699D01*
X115645690Y-62434151D01*
X115641132Y-62436382D01*
X115636460Y-62438384D01*
X115631683Y-62440154D01*
X115626808Y-62441686D01*
X115621844Y-62442975D01*
X115616798Y-62444016D01*
X115611677Y-62444803D01*
X115606491Y-62445332D01*
X115601246Y-62445598D01*
X115595951Y-62445595D01*
X115590613Y-62445318D01*
X115585241Y-62444761D01*
X115579841Y-62443921D01*
X115574423Y-62442791D01*
X115122393Y-62278141D01*
X114687757Y-62500000D01*
X115122387Y-62721863D01*
X115574417Y-62557213D01*
X115579835Y-62556083D01*
X115585234Y-62555243D01*
X115590606Y-62554687D01*
X115595944Y-62554410D01*
X115601239Y-62554407D01*
X115606483Y-62554672D01*
X115611669Y-62555201D01*
X115616789Y-62555989D01*
X115621835Y-62557029D01*
X115626800Y-62558318D01*
X115631674Y-62559850D01*
X115636451Y-62561620D01*
X115641123Y-62563623D01*
X115645681Y-62565853D01*
X115650119Y-62568306D01*
X115654427Y-62570976D01*
X115658598Y-62573858D01*
X115662625Y-62576948D01*
X115666500Y-62580239D01*
X115670213Y-62583727D01*
X115673759Y-62587406D01*
X115677129Y-62591272D01*
X115680314Y-62595320D01*
X115683308Y-62599543D01*
X115686103Y-62603938D01*
X115688689Y-62608499D01*
X115691061Y-62613220D01*
X115693209Y-62618097D01*
X115695126Y-62623125D01*
X115696804Y-62628298D01*
X115698235Y-62633611D01*
X115699412Y-62639059D01*
X115700263Y-62644191D01*
X115700868Y-62649315D01*
X115701234Y-62654426D01*
X115701363Y-62659516D01*
X115701260Y-62664580D01*
X115700930Y-62669610D01*
X115700376Y-62674599D01*
X115699604Y-62679542D01*
X115698617Y-62684431D01*
X115697419Y-62689259D01*
X115696015Y-62694020D01*
X115694410Y-62698708D01*
X115692607Y-62703315D01*
X115690611Y-62707835D01*
X115688426Y-62712262D01*
X115686056Y-62716587D01*
X115683111Y-62721423D01*
X115679936Y-62726108D01*
X115676536Y-62730632D01*
X115672919Y-62734984D01*
X115669089Y-62739154D01*
X115665054Y-62743134D01*
X115660821Y-62746912D01*
X115656395Y-62750478D01*
X115651784Y-62753823D01*
X115646993Y-62756936D01*
X115642029Y-62759808D01*
X115636899Y-62762428D01*
X115631608Y-62764787D01*
X115626164Y-62766873D01*
X115620573Y-62768679D01*
X115614841Y-62770192D01*
X115300262Y-62824839D01*
X115652549Y-63028780D01*
X115657182Y-63031627D01*
X115661611Y-63034683D01*
X115665836Y-63037939D01*
X115669853Y-63041386D01*
X115673661Y-63045014D01*
X115677257Y-63048813D01*
X115680638Y-63052775D01*
X115683804Y-63056891D01*
X115686750Y-63061150D01*
X115689475Y-63065543D01*
X115691977Y-63070062D01*
X115694253Y-63074696D01*
X115696302Y-63079437D01*
X115698120Y-63084275D01*
X115699705Y-63089201D01*
X115701056Y-63094205D01*
X115702170Y-63099279D01*
X115703045Y-63104412D01*
X115703678Y-63109596D01*
X115704067Y-63114821D01*
X115704210Y-63120077D01*
X115704104Y-63125356D01*
X115703748Y-63130648D01*
X115703139Y-63135944D01*
X115702274Y-63141235D01*
X115701152Y-63146510D01*
X115699770Y-63151762D01*
X115698126Y-63156979D01*
X115696217Y-63162154D01*
X115694042Y-63167277D01*
X115691597Y-63172338D01*
X115688882Y-63177328D01*
X115685929Y-63182180D01*
X115682780Y-63186833D01*
X115679443Y-63191283D01*
X115675927Y-63195528D01*
X115672242Y-63199564D01*
X115668398Y-63203390D01*
X115664402Y-63207002D01*
X115660265Y-63210397D01*
X115655995Y-63213574D01*
X115651602Y-63216529D01*
X115647095Y-63219261D01*
X115642483Y-63221765D01*
X115637776Y-63224039D01*
X115632982Y-63226081D01*
X115628111Y-63227888D01*
X115623172Y-63229458D01*
X115618174Y-63230787D01*
X115613126Y-63231873D01*
X115608039Y-63232713D01*
X115602920Y-63233305D01*
X115597778Y-63233646D01*
X115592625Y-63233733D01*
X115587467Y-63233563D01*
X115582315Y-63233134D01*
X115577179Y-63232444D01*
X115572066Y-63231489D01*
X115566986Y-63230266D01*
X115561949Y-63228774D01*
X115556963Y-63227009D01*
X115552038Y-63224969D01*
X115547184Y-63222651D01*
X115542408Y-63220053D01*
X115190121Y-63016112D01*
X115300214Y-63316609D01*
X115301682Y-63321972D01*
X115302868Y-63327355D01*
X115303775Y-63332752D01*
X115304410Y-63338153D01*
X115304775Y-63343549D01*
X115304875Y-63348932D01*
X115304716Y-63354293D01*
X115304301Y-63359623D01*
X115303634Y-63364914D01*
X115302721Y-63370157D01*
X115301566Y-63375342D01*
X115300173Y-63380462D01*
X115298546Y-63385508D01*
X115296691Y-63390470D01*
X115294611Y-63395340D01*
X115292311Y-63400110D01*
X115289796Y-63404770D01*
X115287069Y-63409313D01*
X115284136Y-63413728D01*
X115281001Y-63418008D01*
X115277669Y-63422143D01*
X115274143Y-63426126D01*
X115270429Y-63429946D01*
X115266530Y-63433597D01*
X115262451Y-63437067D01*
X115258197Y-63440350D01*
X115253773Y-63443437D01*
X115249181Y-63446317D01*
X115244428Y-63448984D01*
X115239518Y-63451427D01*
X115234454Y-63453639D01*
X115229242Y-63455611D01*
X115223949Y-63457313D01*
X115218644Y-63458727D01*
X115213338Y-63459856D01*
X115208038Y-63460705D01*
X115202752Y-63461278D01*
X115197488Y-63461579D01*
X115192256Y-63461613D01*
X115187064Y-63461384D01*
X115181919Y-63460896D01*
X115176831Y-63460153D01*
X115171807Y-63459160D01*
X115166857Y-63457921D01*
X115161988Y-63456440D01*
X115157208Y-63454721D01*
X115152527Y-63452769D01*
X115147952Y-63450587D01*
X115143492Y-63448181D01*
X115139155Y-63445554D01*
X115134949Y-63442711D01*
X115130884Y-63439655D01*
X115126967Y-63436392D01*
X115123207Y-63432925D01*
X115119611Y-63429258D01*
X115116189Y-63425397D01*
X115112949Y-63421344D01*
X115109899Y-63417105D01*
X115107048Y-63412684D01*
X115104403Y-63408084D01*
X115101974Y-63403310D01*
X115099768Y-63398367D01*
X115097795Y-63393259D01*
X115096061Y-63387989D01*
X115012252Y-62913136D01*
X114629014Y-62691278D01*
X114629014Y-63135000D01*
X114997240Y-63445202D01*
X115000924Y-63449342D01*
X115004350Y-63453611D01*
X115007516Y-63457998D01*
X115010424Y-63462494D01*
X115013074Y-63467090D01*
X115015467Y-63471777D01*
X115017604Y-63476545D01*
X115019484Y-63481385D01*
X115021108Y-63486287D01*
X115022477Y-63491242D01*
X115023591Y-63496241D01*
X115024451Y-63501274D01*
X115025057Y-63506332D01*
X115025410Y-63511405D01*
X115025510Y-63516485D01*
X115025358Y-63521561D01*
X115024955Y-63526624D01*
X115024300Y-63531666D01*
X115023395Y-63536676D01*
X115022239Y-63541644D01*
X115020834Y-63546563D01*
X115019180Y-63551422D01*
X115017277Y-63556212D01*
X115015126Y-63560924D01*
X115012727Y-63565547D01*
X115010082Y-63570074D01*
X115007190Y-63574494D01*
X115004051Y-63578798D01*
X115000668Y-63582976D01*
X114997039Y-63587020D01*
X114993166Y-63590919D01*
X114989048Y-63594665D01*
X114985041Y-63597970D01*
X114980918Y-63601059D01*
X114976687Y-63603932D01*
X114972355Y-63606590D01*
X114967930Y-63609033D01*
X114963421Y-63611261D01*
X114958834Y-63613275D01*
X114954179Y-63615075D01*
X114949463Y-63616663D01*
X114944694Y-63618037D01*
X114939880Y-63619198D01*
X114935029Y-63620148D01*
X114930148Y-63620886D01*
X114925246Y-63621412D01*
X114920330Y-63621728D01*
X114915409Y-63621833D01*
X114909761Y-63621695D01*
X114904128Y-63621280D01*
X114898522Y-63620590D01*
X114892955Y-63619625D01*
X114887438Y-63618385D01*
X114881984Y-63616871D01*
X114876605Y-63615084D01*
X114871312Y-63613024D01*
X114866117Y-63610692D01*
X114861032Y-63608089D01*
X114856070Y-63605214D01*
X114851241Y-63602069D01*
X114846559Y-63598654D01*
X114842034Y-63594970D01*
X114837679Y-63591018D01*
X114833505Y-63586797D01*
X114629014Y-63340946D01*
X114629014Y-63748833D01*
X114628870Y-63754279D01*
X114628445Y-63759654D01*
X114627745Y-63764951D01*
X114626776Y-63770162D01*
X114625546Y-63775283D01*
X114624062Y-63780305D01*
X114622331Y-63785223D01*
X114620359Y-63790029D01*
X114618153Y-63794717D01*
X114615721Y-63799280D01*
X114613069Y-63803712D01*
X114610205Y-63808006D01*
X114607134Y-63812155D01*
X114603865Y-63816153D01*
X114600403Y-63819993D01*
X114596756Y-63823669D01*
X114592931Y-63827173D01*
X114588935Y-63830500D01*
X114584775Y-63833641D01*
X114580457Y-63836592D01*
X114575988Y-63839345D01*
X114571376Y-63841893D01*
X114566627Y-63844230D01*
X114561749Y-63846350D01*
X114556747Y-63848244D01*
X114551630Y-63849908D01*
X114546403Y-63851334D01*
X114541075Y-63852516D01*
X114535651Y-63853447D01*
X114530139Y-63854120D01*
X114524546Y-63854528D01*
X114518878Y-63854666D01*
X114513210Y-63854528D01*
X114507617Y-63854120D01*
X114502105Y-63853447D01*
X114496682Y-63852516D01*
X114491353Y-63851334D01*
X114486127Y-63849908D01*
X114481009Y-63848244D01*
X114476008Y-63846350D01*
X114471129Y-63844230D01*
X114466380Y-63841893D01*
X114461768Y-63839345D01*
X114457300Y-63836592D01*
X114452982Y-63833641D01*
X114448821Y-63830500D01*
X114444825Y-63827173D01*
X114441000Y-63823669D01*
X114437353Y-63819993D01*
X114433892Y-63816153D01*
X114430622Y-63812155D01*
X114427552Y-63808006D01*
X114424687Y-63803712D01*
X114422035Y-63799280D01*
X114419603Y-63794717D01*
X114417398Y-63790029D01*
X114415426Y-63785223D01*
X114413694Y-63780305D01*
X114412210Y-63775283D01*
X114410980Y-63770162D01*
X114410012Y-63764951D01*
X114409311Y-63759654D01*
X114408886Y-63754279D01*
X114408743Y-63748833D01*
X114408743Y-63340946D01*
X114204252Y-63586797D01*
X114200354Y-63590753D01*
X114196296Y-63594474D01*
X114192089Y-63597961D01*
X114187741Y-63601212D01*
X114183262Y-63604227D01*
X114178663Y-63607006D01*
X114173952Y-63609548D01*
X114169141Y-63611852D01*
X114164238Y-63613919D01*
X114159253Y-63615747D01*
X114154196Y-63617336D01*
X114149078Y-63618687D01*
X114143906Y-63619797D01*
X114138693Y-63620667D01*
X114133446Y-63621296D01*
X114128177Y-63621683D01*
X114122894Y-63621829D01*
X114117608Y-63621733D01*
X114112328Y-63621394D01*
X114107064Y-63620811D01*
X114101826Y-63619985D01*
X114096623Y-63618914D01*
X114091466Y-63617599D01*
X114086364Y-63616038D01*
X114081327Y-63614232D01*
X114076365Y-63612180D01*
X114071487Y-63609880D01*
X114066704Y-63607334D01*
X114062024Y-63604539D01*
X114057459Y-63601497D01*
X114053017Y-63598206D01*
X114048708Y-63594665D01*
X114044592Y-63590919D01*
X114040719Y-63587020D01*
X114037090Y-63582976D01*
X114033707Y-63578798D01*
X114030569Y-63574494D01*
X114027677Y-63570074D01*
X114025031Y-63565547D01*
X114022633Y-63560924D01*
X114020482Y-63556212D01*
X114018579Y-63551422D01*
X114016925Y-63546563D01*
X114015520Y-63541645D01*
X114014365Y-63536676D01*
X114013459Y-63531666D01*
X114012804Y-63526624D01*
X114012401Y-63521561D01*
X114012249Y-63516485D01*
X114012349Y-63511406D01*
X114012702Y-63506332D01*
X114013309Y-63501274D01*
X114014169Y-63496241D01*
X114015283Y-63491242D01*
X114016652Y-63486287D01*
X114018276Y-63481385D01*
X114020156Y-63476545D01*
X114022292Y-63471777D01*
X114024686Y-63467090D01*
X114027336Y-63462494D01*
X114030245Y-63457998D01*
X114033411Y-63453611D01*
X114036837Y-63449343D01*
X114040522Y-63445202D01*
X114408743Y-63135000D01*
X114408743Y-62691278D01*
X114025504Y-62913136D01*
X113941695Y-63387989D01*
X113939962Y-63393259D01*
X113937988Y-63398367D01*
X113935782Y-63403310D01*
X113933353Y-63408084D01*
X113930709Y-63412684D01*
X113927857Y-63417105D01*
X113924807Y-63421344D01*
X113921567Y-63425397D01*
X113918145Y-63429258D01*
X113914550Y-63432925D01*
X113910789Y-63436392D01*
X113906872Y-63439655D01*
X113902807Y-63442711D01*
X113898601Y-63445554D01*
X113894264Y-63448181D01*
X113889804Y-63450587D01*
X113885229Y-63452769D01*
X113880548Y-63454721D01*
X113875768Y-63456440D01*
X113870898Y-63457921D01*
X113865948Y-63459160D01*
X113860924Y-63460153D01*
X113855835Y-63460896D01*
X113850690Y-63461384D01*
X113845498Y-63461613D01*
X113840265Y-63461579D01*
X113835002Y-63461278D01*
X113829715Y-63460705D01*
X113824415Y-63459856D01*
X113819108Y-63458727D01*
X113813803Y-63457313D01*
X113808509Y-63455611D01*
X113803652Y-63453785D01*
X113798923Y-63451749D01*
X113794326Y-63449511D01*
X113789865Y-63447078D01*
X113785543Y-63444458D01*
X113781364Y-63441656D01*
X113777331Y-63438681D01*
X113773448Y-63435539D01*
X113769720Y-63432237D01*
X113766148Y-63428782D01*
X113762738Y-63425183D01*
X113759492Y-63421445D01*
X113756414Y-63417575D01*
X113753508Y-63413582D01*
X113750778Y-63409471D01*
X113748226Y-63405250D01*
X113745522Y-63400277D01*
X113743064Y-63395178D01*
X113740857Y-63389965D01*
X113738907Y-63384648D01*
X113737220Y-63379237D01*
X113735801Y-63373744D01*
X113734655Y-63368179D01*
X113733787Y-63362553D01*
X113733204Y-63356876D01*
X113732911Y-63351159D01*
X113732913Y-63345412D01*
X113733215Y-63339647D01*
X113733823Y-63333873D01*
X113734742Y-63328102D01*
X113735979Y-63322344D01*
X113737537Y-63316610D01*
X113847630Y-63016117D01*
X113495343Y-63220058D01*
X113490568Y-63222657D01*
X113485713Y-63224975D01*
X113480788Y-63227015D01*
X113475803Y-63228780D01*
X113470766Y-63230272D01*
X113465686Y-63231494D01*
X113460573Y-63232449D01*
X113455437Y-63233140D01*
X113450285Y-63233568D01*
X113445128Y-63233738D01*
X113439974Y-63233651D01*
X113434833Y-63233310D01*
X113429714Y-63232718D01*
X113424627Y-63231878D01*
X113419579Y-63230792D01*
X113414582Y-63229463D01*
X113409643Y-63227894D01*
X113404772Y-63226086D01*
X113399978Y-63224044D01*
X113395271Y-63221770D01*
X113390659Y-63219266D01*
X113386152Y-63216535D01*
X113381759Y-63213579D01*
X113377489Y-63210403D01*
X113373352Y-63207007D01*
X113369356Y-63203395D01*
X113365511Y-63199569D01*
X113361826Y-63195533D01*
X113358310Y-63191288D01*
X113354972Y-63186838D01*
X113351823Y-63182186D01*
X113348870Y-63177333D01*
X113346155Y-63172342D01*
X113343711Y-63167281D01*
X113341536Y-63162158D01*
X113339628Y-63156983D01*
X113337984Y-63151765D01*
X113336602Y-63146513D01*
X113335480Y-63141237D01*
X113334616Y-63135946D01*
X113334007Y-63130650D01*
X113333651Y-63125358D01*
X113333546Y-63120078D01*
X113333689Y-63114822D01*
X113334078Y-63109597D01*
X113334712Y-63104413D01*
X113335586Y-63099279D01*
X113336700Y-63094205D01*
X113338051Y-63089201D01*
X113339637Y-63084275D01*
X113341455Y-63079436D01*
X113343503Y-63074695D01*
X113345779Y-63070061D01*
X113348280Y-63065542D01*
X113351005Y-63061148D01*
X113353951Y-63056889D01*
X113357115Y-63052773D01*
X113360496Y-63048811D01*
X113364091Y-63045011D01*
X113367898Y-63041383D01*
X113371914Y-63037936D01*
X113376137Y-63034679D01*
X113380566Y-63031622D01*
X113385197Y-63028775D01*
X113737484Y-62824834D01*
X113422900Y-62770182D01*
X113417535Y-62768775D01*
X113412292Y-62767112D01*
X113407177Y-62765202D01*
X113402195Y-62763051D01*
X113397352Y-62760670D01*
X113392652Y-62758065D01*
X113388102Y-62755246D01*
X113383706Y-62752220D01*
X113379469Y-62748996D01*
X113375398Y-62745581D01*
X113371497Y-62741985D01*
X113367772Y-62738215D01*
X113364227Y-62734280D01*
X113360869Y-62730187D01*
X113357702Y-62725946D01*
X113354733Y-62721564D01*
X113351965Y-62717049D01*
X113349406Y-62712411D01*
X113347059Y-62707656D01*
X113344930Y-62702794D01*
X113343024Y-62697832D01*
X113341348Y-62692780D01*
X113339905Y-62687644D01*
X113338702Y-62682433D01*
X113337744Y-62677156D01*
X113337035Y-62671821D01*
X113336582Y-62666436D01*
X113336390Y-62661009D01*
X113336464Y-62655549D01*
X113336809Y-62650063D01*
X113337430Y-62644560D01*
X113338334Y-62639049D01*
X113339511Y-62633601D01*
X113340943Y-62628288D01*
X113342621Y-62623116D01*
X113344539Y-62618089D01*
X113346687Y-62613212D01*
X113349059Y-62608491D01*
X113351646Y-62603931D01*
X113354440Y-62599536D01*
X113357434Y-62595313D01*
X113360620Y-62591266D01*
X113363989Y-62587400D01*
X113367535Y-62583720D01*
X113371249Y-62580232D01*
X113375123Y-62576941D01*
X113379150Y-62573852D01*
X113383322Y-62570970D01*
X113387630Y-62568300D01*
X113392067Y-62565848D01*
X113396626Y-62563617D01*
X113401297Y-62561615D01*
X113406074Y-62559845D01*
X113410949Y-62558313D01*
X113415913Y-62557024D01*
X113420960Y-62555983D01*
X113426080Y-62555196D01*
X113431266Y-62554667D01*
X113436511Y-62554401D01*
X113441806Y-62554405D01*
X113447144Y-62554682D01*
X113452516Y-62555238D01*
X113457915Y-62556078D01*
X113463334Y-62557208D01*
X113915364Y-62721858D01*
X114350000Y-62500000D01*
X113915369Y-62278146D01*
X113463344Y-62442797D01*
X113457926Y-62443926D01*
X113452527Y-62444767D01*
X113447154Y-62445323D01*
X113441816Y-62445600D01*
X113436521Y-62445603D01*
X113431276Y-62445338D01*
X113426090Y-62444809D01*
X113420969Y-62444021D01*
X113415923Y-62442980D01*
X113410959Y-62441691D01*
X113406084Y-62440159D01*
X113401307Y-62438390D01*
X113396635Y-62436387D01*
X113392076Y-62434157D01*
X113387639Y-62431704D01*
X113383330Y-62429034D01*
X113379159Y-62426152D01*
X113375132Y-62423063D01*
X113371257Y-62419772D01*
X113367543Y-62416284D01*
X113363998Y-62412605D01*
X113360628Y-62408739D01*
X113357442Y-62404692D01*
X113354448Y-62400468D01*
X113351654Y-62396074D01*
X113349067Y-62391514D01*
X113346696Y-62386793D01*
X113344548Y-62381916D01*
X113342631Y-62376889D01*
X113340953Y-62371716D01*
X113339521Y-62366404D01*
X113338345Y-62360956D01*
X113337441Y-62355443D01*
X113336819Y-62349940D01*
X113336474Y-62344454D01*
X113336401Y-62338993D01*
X113336593Y-62333565D01*
X113337046Y-62328180D01*
X113337754Y-62322844D01*
X113338713Y-62317567D01*
X113339916Y-62312356D01*
X113341358Y-62307220D01*
X113343035Y-62302167D01*
X113344940Y-62297206D01*
X113347069Y-62292344D01*
X113349416Y-62287589D01*
X113351976Y-62282951D01*
X113354743Y-62278437D01*
X113357713Y-62274055D01*
X113360880Y-62269814D01*
X113364238Y-62265722D01*
X113367782Y-62261787D01*
X113371508Y-62258017D01*
X113375409Y-62254421D01*
X113379480Y-62251007D01*
X113383716Y-62247783D01*
X113388112Y-62244757D01*
X113392663Y-62241938D01*
X113397362Y-62239334D01*
X113402206Y-62236953D01*
X113407188Y-62234803D01*
X113412303Y-62232892D01*
X113417545Y-62231230D01*
X113422911Y-62229823D01*
X113737495Y-62175171D01*
X113385208Y-61971230D01*
X113380575Y-61968382D01*
X113376146Y-61965325D01*
X113371922Y-61962069D01*
X113367905Y-61958622D01*
X113364098Y-61954994D01*
X113360502Y-61951194D01*
X113357121Y-61947231D01*
X113353956Y-61943116D01*
X113351010Y-61938857D01*
X113348285Y-61934463D01*
X113345783Y-61929944D01*
X113343507Y-61925309D01*
X113341458Y-61920568D01*
X113339640Y-61915730D01*
X113338055Y-61910804D01*
X113336704Y-61905799D01*
X113335589Y-61900725D01*
X113334715Y-61895592D01*
X113334082Y-61890408D01*
X113333692Y-61885183D01*
X113333549Y-61879926D01*
X113333654Y-61874647D01*
X113334010Y-61869354D01*
X113334619Y-61864058D01*
X113335483Y-61858767D01*
X113336604Y-61853491D01*
X113337986Y-61848240D01*
X113339629Y-61843022D01*
X113341537Y-61837847D01*
X113343712Y-61832724D01*
X113346155Y-61827662D01*
X113348870Y-61822672D01*
X113351822Y-61817819D01*
X113354972Y-61813166D01*
X113358309Y-61808716D01*
X113361824Y-61804471D01*
X113365509Y-61800435D01*
X113369354Y-61796610D01*
X113373350Y-61792998D01*
X113377487Y-61789602D01*
X113381757Y-61786425D01*
X113386149Y-61783470D01*
X113390656Y-61780739D01*
X113395268Y-61778235D01*
X113399976Y-61775960D01*
X113404770Y-61773918D01*
X113409641Y-61772111D01*
X113414580Y-61770541D01*
X113419578Y-61769212D01*
X113424625Y-61768126D01*
X113429713Y-61767286D01*
X113434832Y-61766694D01*
X113439973Y-61766353D01*
X113445127Y-61766266D01*
X113450284Y-61766436D01*
X113455436Y-61766865D01*
X113460573Y-61767555D01*
X113465686Y-61768510D01*
X113470765Y-61769733D01*
X113475803Y-61771225D01*
X113480788Y-61772990D01*
X113485713Y-61775030D01*
X113490568Y-61777348D01*
X113495343Y-61779947D01*
X113847625Y-61983887D01*
X113737532Y-61683390D01*
X113736064Y-61678027D01*
X113734879Y-61672643D01*
X113733972Y-61667246D01*
X113733337Y-61661844D01*
X113732972Y-61656448D01*
X113732872Y-61651064D01*
X113733031Y-61645703D01*
X113733446Y-61640373D01*
X113734112Y-61635082D01*
X113735025Y-61629839D01*
X113736180Y-61624653D01*
X113737573Y-61619533D01*
X113739200Y-61614488D01*
X113741055Y-61609525D01*
X113743134Y-61604655D01*
X113745434Y-61599885D01*
X113747949Y-61595225D01*
X113750675Y-61590683D01*
X113753608Y-61586267D01*
X113756743Y-61581988D01*
X113760075Y-61577852D01*
X113763601Y-61573870D01*
X113767316Y-61570050D01*
X113771215Y-61566400D01*
X113775294Y-61562929D01*
X113779548Y-61559646D01*
X113783973Y-61556560D01*
X113788565Y-61553680D01*
X113793319Y-61551014D01*
X113798231Y-61548571D01*
X113803296Y-61546359D01*
X113808509Y-61544388D01*
X113813803Y-61542686D01*
X113819107Y-61541272D01*
X113824413Y-61540143D01*
X113829714Y-61539294D01*
X113835000Y-61538721D01*
X113840263Y-61538420D01*
X113845495Y-61538386D01*
X113850687Y-61538615D01*
X113855832Y-61539103D01*
X113860920Y-61539846D01*
X113865944Y-61540839D01*
X113870895Y-61542078D01*
X113875764Y-61543559D01*
X113880544Y-61545278D01*
X113885225Y-61547231D01*
X113889800Y-61549412D01*
X113894261Y-61551818D01*
X113898598Y-61554445D01*
X113902803Y-61557289D01*
X113906869Y-61560344D01*
X113910786Y-61563607D01*
X113914546Y-61567074D01*
X113918142Y-61570741D01*
X113921564Y-61574602D01*
X113924805Y-61578655D01*
X113927855Y-61582894D01*
X113930707Y-61587316D01*
X113933351Y-61591915D01*
X113935781Y-61596689D01*
X113937987Y-61601632D01*
X113939961Y-61606741D01*
X113941695Y-61612010D01*
X114025505Y-62086863D01*
X114408743Y-62308722D01*
X114408743Y-61865000D01*
X114040522Y-61554797D01*
X114036837Y-61550657D01*
X114033412Y-61546388D01*
X114030246Y-61542001D01*
X114027338Y-61537505D01*
X114024687Y-61532909D01*
X114022294Y-61528222D01*
X114020158Y-61523453D01*
X114018278Y-61518614D01*
X114016654Y-61513711D01*
X114015285Y-61508756D01*
X114014171Y-61503757D01*
X114013311Y-61498724D01*
X114012705Y-61493665D01*
X114012351Y-61488592D01*
X114012251Y-61483512D01*
X114012403Y-61478436D01*
X114012806Y-61473373D01*
X114013461Y-61468331D01*
X114014366Y-61463321D01*
X114015521Y-61458352D01*
X114016926Y-61453434D01*
X114018580Y-61448575D01*
X114020483Y-61443785D01*
X114022634Y-61439073D01*
X114025032Y-61434450D01*
X114027677Y-61429923D01*
X114030569Y-61425504D01*
X114033707Y-61421200D01*
X114037090Y-61417022D01*
X114040719Y-61412978D01*
X114044591Y-61409079D01*
X114048708Y-61405334D01*
X114053017Y-61401792D01*
X114057460Y-61398500D01*
X114062026Y-61395457D01*
X114066705Y-61392662D01*
X114071489Y-61390115D01*
X114076367Y-61387815D01*
X114081329Y-61385762D01*
X114086366Y-61383955D01*
X114091468Y-61382395D01*
X114096625Y-61381079D01*
X114101828Y-61380008D01*
X114107066Y-61379182D01*
X114112330Y-61378599D01*
X114117610Y-61378260D01*
X114122896Y-61378163D01*
X114128179Y-61378309D01*
X114133448Y-61378697D01*
X114138694Y-61379326D01*
X114143908Y-61380196D01*
X114149079Y-61381306D01*
X114154198Y-61382656D01*
X114159254Y-61384246D01*
X114164239Y-61386074D01*
X114169141Y-61388141D01*
X114173953Y-61390446D01*
X114178663Y-61392988D01*
X114183262Y-61395767D01*
X114187741Y-61398782D01*
X114192089Y-61402033D01*
X114196296Y-61405520D01*
X114200354Y-61409241D01*
X114204251Y-61413197D01*
X114408743Y-61659048D01*
X114408743Y-61251166D01*
X114408886Y-61245720D01*
X114409311Y-61240345D01*
X114410012Y-61235049D01*
X114410980Y-61229837D01*
X114412210Y-61224716D01*
X114413694Y-61219694D01*
X114415425Y-61214777D01*
X114417397Y-61209971D01*
X114419603Y-61205283D01*
X114422035Y-61200719D01*
X114424687Y-61196287D01*
X114427552Y-61191993D01*
X114430622Y-61187844D01*
X114433892Y-61183846D01*
X114437353Y-61180006D01*
X114441000Y-61176330D01*
X114444825Y-61172826D01*
X114448821Y-61169500D01*
X114452982Y-61166358D01*
X114457300Y-61163407D01*
X114461768Y-61160654D01*
X114466380Y-61158106D01*
X114471129Y-61155769D01*
X114476008Y-61153650D01*
X114481009Y-61151755D01*
X114486127Y-61150091D01*
X114491353Y-61148665D01*
X114496682Y-61147483D01*
X114502105Y-61146552D01*
X114507617Y-61145879D01*
X114513210Y-61145471D01*
X114518878Y-61145333D01*
X114524546Y-61145471D01*
G37*
D10*
X112425564Y-61904980D02*
X112187469Y-63004980D01*
X112187469Y-63004980D02*
X111996993Y-62219266D01*
X111996993Y-62219266D02*
X111806517Y-63004980D01*
X111806517Y-63004980D02*
X111568422Y-61904980D01*
X111187469Y-63004980D02*
X111187469Y-61904980D01*
X110711279Y-63004980D02*
X110711279Y-61904980D01*
X110711279Y-61904980D02*
X110139851Y-63004980D01*
X110139851Y-63004980D02*
X110139851Y-61904980D01*
X109806517Y-61904980D02*
X109235089Y-61904980D01*
X109520803Y-63004980D02*
X109520803Y-61904980D01*
X108901755Y-62428790D02*
X108568422Y-62428790D01*
X108425565Y-63004980D02*
X108901755Y-63004980D01*
X108901755Y-63004980D02*
X108901755Y-61904980D01*
X108901755Y-61904980D02*
X108425565Y-61904980D01*
X107425565Y-63004980D02*
X107758898Y-62481171D01*
X107996993Y-63004980D02*
X107996993Y-61904980D01*
X107996993Y-61904980D02*
X107616041Y-61904980D01*
X107616041Y-61904980D02*
X107520803Y-61957361D01*
X107520803Y-61957361D02*
X107473184Y-62009742D01*
X107473184Y-62009742D02*
X107425565Y-62114504D01*
X107425565Y-62114504D02*
X107425565Y-62271647D01*
X107425565Y-62271647D02*
X107473184Y-62376409D01*
X107473184Y-62376409D02*
X107520803Y-62428790D01*
X107520803Y-62428790D02*
X107616041Y-62481171D01*
X107616041Y-62481171D02*
X107996993Y-62481171D01*
X106330326Y-61904980D02*
X105711279Y-61904980D01*
X105711279Y-61904980D02*
X106044612Y-62324028D01*
X106044612Y-62324028D02*
X105901755Y-62324028D01*
X105901755Y-62324028D02*
X105806517Y-62376409D01*
X105806517Y-62376409D02*
X105758898Y-62428790D01*
X105758898Y-62428790D02*
X105711279Y-62533552D01*
X105711279Y-62533552D02*
X105711279Y-62795457D01*
X105711279Y-62795457D02*
X105758898Y-62900219D01*
X105758898Y-62900219D02*
X105806517Y-62952600D01*
X105806517Y-62952600D02*
X105901755Y-63004980D01*
X105901755Y-63004980D02*
X106187469Y-63004980D01*
X106187469Y-63004980D02*
X106282707Y-62952600D01*
X106282707Y-62952600D02*
X106330326Y-62900219D01*
X105282707Y-62900219D02*
X105235088Y-62952600D01*
X105235088Y-62952600D02*
X105282707Y-63004980D01*
X105282707Y-63004980D02*
X105330326Y-62952600D01*
X105330326Y-62952600D02*
X105282707Y-62900219D01*
X105282707Y-62900219D02*
X105282707Y-63004980D01*
X104854136Y-62009742D02*
X104806517Y-61957361D01*
X104806517Y-61957361D02*
X104711279Y-61904980D01*
X104711279Y-61904980D02*
X104473184Y-61904980D01*
X104473184Y-61904980D02*
X104377946Y-61957361D01*
X104377946Y-61957361D02*
X104330327Y-62009742D01*
X104330327Y-62009742D02*
X104282708Y-62114504D01*
X104282708Y-62114504D02*
X104282708Y-62219266D01*
X104282708Y-62219266D02*
X104330327Y-62376409D01*
X104330327Y-62376409D02*
X104901755Y-63004980D01*
X104901755Y-63004980D02*
X104282708Y-63004980D01*
D13*
X105904819Y-52083333D02*
X105904819Y-51607143D01*
X105904819Y-51607143D02*
X104904819Y-51607143D01*
X105904819Y-52940476D02*
X105904819Y-52369048D01*
X105904819Y-52654762D02*
X104904819Y-52654762D01*
X104904819Y-52654762D02*
X105047676Y-52559524D01*
X105047676Y-52559524D02*
X105142914Y-52464286D01*
X105142914Y-52464286D02*
X105190533Y-52369048D01*
X99626180Y-53463600D02*
X99388085Y-53463600D01*
X99483323Y-53701695D02*
X99388085Y-53463600D01*
X99388085Y-53463600D02*
X99483323Y-53225505D01*
X99197609Y-53606457D02*
X99388085Y-53463600D01*
X99388085Y-53463600D02*
X99197609Y-53320743D01*
X98535819Y-53463601D02*
X98773914Y-53463601D01*
X98678676Y-53225506D02*
X98773914Y-53463601D01*
X98773914Y-53463601D02*
X98678676Y-53701696D01*
X98964390Y-53320744D02*
X98773914Y-53463601D01*
X98773914Y-53463601D02*
X98964390Y-53606458D01*
D14*
X106440000Y-52649622D02*
X106440000Y-51850378D01*
X107560000Y-52649622D02*
X107560000Y-51850378D01*
X87077500Y-58987258D02*
X87077500Y-58512742D01*
X88122500Y-58987258D02*
X88122500Y-58512742D01*
X108584420Y-73990000D02*
X108865580Y-73990000D01*
X108584420Y-75010000D02*
X108865580Y-75010000D01*
X100580000Y-66840000D02*
X99170000Y-66840000D01*
X100580000Y-66840000D02*
X100580000Y-67500000D01*
X100580000Y-68500000D02*
X100580000Y-69160000D01*
X100580000Y-69160000D02*
X99170000Y-69160000D01*
X99040000Y-69470000D02*
X98560000Y-69470000D01*
X98800000Y-69140000D01*
X99040000Y-69470000D01*
G36*
X99040000Y-69470000D02*
G01*
X98560000Y-69470000D01*
X98800000Y-69140000D01*
X99040000Y-69470000D01*
G37*
X102959420Y-66590000D02*
X103240580Y-66590000D01*
X102959420Y-67610000D02*
X103240580Y-67610000D01*
X123929651Y-50412500D02*
X124429651Y-50412500D01*
X123929651Y-51812500D02*
X124429651Y-51812500D01*
X124429651Y-49612500D02*
X124629651Y-49612500D01*
X124429651Y-50412500D02*
X124429651Y-49612500D01*
X124429651Y-52412500D02*
X124429651Y-51812500D01*
X124629651Y-52612500D02*
X124429651Y-52412500D01*
X127229651Y-49612500D02*
X127429651Y-49612500D01*
X127429651Y-49612500D02*
X127429651Y-50412500D01*
X127429651Y-51812500D02*
X127429651Y-52612500D01*
X127429651Y-52612500D02*
X127229651Y-52612500D01*
X85512258Y-54327500D02*
X85037742Y-54327500D01*
X85512258Y-55372500D02*
X85037742Y-55372500D01*
X102390580Y-51953996D02*
X102109420Y-51953996D01*
X102390580Y-52973996D02*
X102109420Y-52973996D01*
X96990000Y-62509420D02*
X96990000Y-62790580D01*
X98010000Y-62509420D02*
X98010000Y-62790580D01*
X108975000Y-67325000D02*
X109475000Y-67325000D01*
X108975000Y-67825000D02*
X108975000Y-67325000D01*
X108975000Y-70625000D02*
X108975000Y-70125000D01*
X109475000Y-70625000D02*
X108975000Y-70625000D01*
X113675000Y-67325000D02*
X114175000Y-67325000D01*
X114175000Y-67325000D02*
X114175000Y-67825000D01*
X114175000Y-69575000D02*
X114175000Y-70325000D01*
X114175000Y-70885000D02*
X114175000Y-70525000D01*
X114535000Y-70525000D01*
X114175000Y-70885000D01*
G36*
X114175000Y-70885000D02*
G01*
X114175000Y-70525000D01*
X114535000Y-70525000D01*
X114175000Y-70885000D01*
G37*
X85512258Y-55877500D02*
X85037742Y-55877500D01*
X85512258Y-56922500D02*
X85037742Y-56922500D01*
X85512258Y-57427500D02*
X85037742Y-57427500D01*
X85512258Y-58472500D02*
X85037742Y-58472500D01*
X104740000Y-51874528D02*
X104740000Y-52155688D01*
X105760000Y-51874528D02*
X105760000Y-52155688D01*
D10*
X84357500Y-70792500D02*
X87657500Y-70792500D01*
X84357500Y-74092500D02*
X87657500Y-74092500D01*
D14*
X120212742Y-72127500D02*
X120687258Y-72127500D01*
X120212742Y-73172500D02*
X120687258Y-73172500D01*
X85512258Y-74677500D02*
X85037742Y-74677500D01*
X85512258Y-75722500D02*
X85037742Y-75722500D01*
X107427500Y-69212258D02*
X107427500Y-68737742D01*
X108472500Y-69212258D02*
X108472500Y-68737742D01*
X85512258Y-48877500D02*
X85037742Y-48877500D01*
X85512258Y-49922500D02*
X85037742Y-49922500D01*
D10*
X84357500Y-60592500D02*
X87657500Y-60592500D01*
X84357500Y-63892500D02*
X87657500Y-63892500D01*
D14*
X85512258Y-64427500D02*
X85037742Y-64427500D01*
X85512258Y-65472500D02*
X85037742Y-65472500D01*
X108564434Y-48640000D02*
X108564434Y-49115000D01*
X108564434Y-52860000D02*
X108564434Y-52385000D01*
X109039434Y-48640000D02*
X108564434Y-48640000D01*
X109039434Y-52860000D02*
X108564434Y-52860000D01*
X112309434Y-48640000D02*
X112784434Y-48640000D01*
X112544434Y-52860000D02*
X112309434Y-52860000D01*
X112784434Y-48640000D02*
X112784434Y-49115000D01*
X112784434Y-52560000D02*
X112784434Y-52385000D01*
X113114434Y-53100000D02*
X112784434Y-52860000D01*
X113114434Y-52620000D01*
X113114434Y-53100000D01*
G36*
X113114434Y-53100000D02*
G01*
X112784434Y-52860000D01*
X113114434Y-52620000D01*
X113114434Y-53100000D01*
G37*
X85512258Y-69177500D02*
X85037742Y-69177500D01*
X85512258Y-70222500D02*
X85037742Y-70222500D01*
X99640000Y-59309420D02*
X99640000Y-59590580D01*
X100660000Y-59309420D02*
X100660000Y-59590580D01*
X85512258Y-76227500D02*
X85037742Y-76227500D01*
X85512258Y-77272500D02*
X85037742Y-77272500D01*
X87077500Y-75712742D02*
X87077500Y-76187258D01*
X88122500Y-75712742D02*
X88122500Y-76187258D01*
X88500000Y-74000000D02*
X88500000Y-79510000D01*
X88500000Y-79510000D02*
X91800000Y-79510000D01*
X91800000Y-74000000D02*
X91800000Y-79510000D01*
X99834420Y-61240000D02*
X100115580Y-61240000D01*
X99834420Y-62260000D02*
X100115580Y-62260000D01*
X94390000Y-50734420D02*
X94390000Y-51015580D01*
X95410000Y-50734420D02*
X95410000Y-51015580D01*
D15*
X96600000Y-58200000D02*
X96100000Y-58200000D01*
X96600000Y-60700000D02*
X96100000Y-60700000D01*
X98600000Y-58200000D02*
X99100000Y-58200000D01*
X98600000Y-60700000D02*
X99100000Y-60700000D01*
D10*
X99700000Y-58700000D02*
G75*
G02*
X99500000Y-58700000I-100000J0D01*
G01*
X99500000Y-58700000D02*
G75*
G02*
X99700000Y-58700000I100000J0D01*
G01*
D14*
X95440000Y-62509420D02*
X95440000Y-62790580D01*
X96460000Y-62509420D02*
X96460000Y-62790580D01*
X108584420Y-75540000D02*
X108865580Y-75540000D01*
X108584420Y-76560000D02*
X108865580Y-76560000D01*
X113639071Y-54802500D02*
X113920231Y-54802500D01*
X113639071Y-55822500D02*
X113920231Y-55822500D01*
X87077500Y-69187258D02*
X87077500Y-68712742D01*
X88122500Y-69187258D02*
X88122500Y-68712742D01*
D10*
X84365000Y-50470000D02*
X87665000Y-50470000D01*
X84365000Y-53770000D02*
X87665000Y-53770000D01*
D16*
X117479651Y-55912500D02*
G75*
G02*
X117179651Y-55912500I-150000J0D01*
G01*
X117179651Y-55912500D02*
G75*
G02*
X117479651Y-55912500I150000J0D01*
G01*
D14*
X87077500Y-65462742D02*
X87077500Y-65937258D01*
X88122500Y-65462742D02*
X88122500Y-65937258D01*
X87077500Y-48887258D02*
X87077500Y-48412742D01*
X88122500Y-48887258D02*
X88122500Y-48412742D01*
X87077500Y-55362742D02*
X87077500Y-55837258D01*
X88122500Y-55362742D02*
X88122500Y-55837258D01*
X102487258Y-55027500D02*
X102012742Y-55027500D01*
X102487258Y-56072500D02*
X102012742Y-56072500D01*
X85487258Y-47327500D02*
X85012742Y-47327500D01*
X85487258Y-48372500D02*
X85012742Y-48372500D01*
X85512258Y-65977500D02*
X85037742Y-65977500D01*
X85512258Y-67022500D02*
X85037742Y-67022500D01*
X85512258Y-67627500D02*
X85037742Y-67627500D01*
X85512258Y-68672500D02*
X85037742Y-68672500D01*
X103290000Y-60390580D02*
X103290000Y-60109420D01*
X104310000Y-60390580D02*
X104310000Y-60109420D01*
X114740000Y-69265580D02*
X114740000Y-68984420D01*
X115760000Y-69265580D02*
X115760000Y-68984420D01*
X85512258Y-58977500D02*
X85037742Y-58977500D01*
X85512258Y-60022500D02*
X85037742Y-60022500D01*
X102109420Y-53490000D02*
X102390580Y-53490000D01*
X102109420Y-54510000D02*
X102390580Y-54510000D01*
X101740000Y-60390580D02*
X101740000Y-60109420D01*
X102760000Y-60390580D02*
X102760000Y-60109420D01*
D17*
X95820400Y-49445401D02*
X95820400Y-53204601D01*
X95820400Y-53204601D02*
X99579600Y-53204601D01*
X99579600Y-49445401D02*
X95820400Y-49445401D01*
X99579600Y-53204601D02*
X99579600Y-49445401D01*
D12*
G36*
X97640501Y-49567402D02*
G01*
X97259500Y-49567402D01*
X97259500Y-49313402D01*
X97640501Y-49313402D01*
X97640501Y-49567402D01*
G37*
D14*
X90675000Y-66820000D02*
X93400000Y-66820000D01*
X90675000Y-67080000D02*
X90675000Y-66820000D01*
X90675000Y-72010000D02*
X90675000Y-72270000D01*
X90675000Y-72270000D02*
X93400000Y-72270000D01*
X96125000Y-66820000D02*
X93400000Y-66820000D01*
X96125000Y-67080000D02*
X96125000Y-66820000D01*
X96125000Y-72010000D02*
X96125000Y-72270000D01*
X96125000Y-72270000D02*
X93400000Y-72270000D01*
X96907500Y-67080000D02*
X96667500Y-66750000D01*
X97147500Y-66750000D01*
X96907500Y-67080000D01*
G36*
X96907500Y-67080000D02*
G01*
X96667500Y-66750000D01*
X97147500Y-66750000D01*
X96907500Y-67080000D01*
G37*
D17*
X119571600Y-70981600D02*
X129528400Y-70981600D01*
X129528400Y-60618400D02*
X119571600Y-60618400D01*
X118446200Y-70200000D02*
G75*
G02*
X118243000Y-70200000I-101600J0D01*
G01*
X118243000Y-70200000D02*
G75*
G02*
X118446200Y-70200000I101600J0D01*
G01*
D14*
X95340000Y-54240000D02*
X95340000Y-54990000D01*
X95340000Y-57160000D02*
X95340000Y-56110000D01*
X100560000Y-53940000D02*
X100560000Y-54990000D01*
X100560000Y-57160000D02*
X100560000Y-56110000D01*
X95340000Y-53940000D02*
X95150000Y-54080000D01*
X95150000Y-53800000D01*
X95340000Y-53940000D01*
G36*
X95340000Y-53940000D02*
G01*
X95150000Y-54080000D01*
X95150000Y-53800000D01*
X95340000Y-53940000D01*
G37*
D15*
X110009184Y-54165108D02*
X109869184Y-54165108D01*
X110009184Y-56665108D02*
X109869184Y-56665108D01*
D10*
X108890184Y-53345108D02*
G75*
G02*
X108690184Y-53345108I-100000J0D01*
G01*
X108690184Y-53345108D02*
G75*
G02*
X108890184Y-53345108I100000J0D01*
G01*
D14*
X103327500Y-64912258D02*
X103327500Y-64437742D01*
X104372500Y-64912258D02*
X104372500Y-64437742D01*
X114852217Y-50152500D02*
X115177217Y-50152500D01*
X116322217Y-50152500D02*
X115997217Y-50152500D01*
X116322217Y-52372500D02*
X115997217Y-52372500D01*
X115087217Y-52712500D02*
X114607217Y-52712500D01*
X114847217Y-52382500D01*
X115087217Y-52712500D01*
G36*
X115087217Y-52712500D02*
G01*
X114607217Y-52712500D01*
X114847217Y-52382500D01*
X115087217Y-52712500D01*
G37*
%LPC*%
D18*
X96775000Y-58925000D02*
X96100000Y-58925000D01*
X96100000Y-58475000D01*
X96775000Y-58475000D01*
X96775000Y-58925000D01*
G36*
X96775000Y-58925000D02*
G01*
X96100000Y-58925000D01*
X96100000Y-58475000D01*
X96775000Y-58475000D01*
X96775000Y-58925000D01*
G37*
X96775000Y-59425000D02*
X96100000Y-59425000D01*
X96100000Y-58975000D01*
X96775000Y-58975000D01*
X96775000Y-59425000D01*
G36*
X96775000Y-59425000D02*
G01*
X96100000Y-59425000D01*
X96100000Y-58975000D01*
X96775000Y-58975000D01*
X96775000Y-59425000D01*
G37*
X96775000Y-59925000D02*
X96100000Y-59925000D01*
X96100000Y-59475000D01*
X96775000Y-59475000D01*
X96775000Y-59925000D01*
G36*
X96775000Y-59925000D02*
G01*
X96100000Y-59925000D01*
X96100000Y-59475000D01*
X96775000Y-59475000D01*
X96775000Y-59925000D01*
G37*
X96775000Y-60425000D02*
X96100000Y-60425000D01*
X96100000Y-59975000D01*
X96775000Y-59975000D01*
X96775000Y-60425000D01*
G36*
X96775000Y-60425000D02*
G01*
X96100000Y-60425000D01*
X96100000Y-59975000D01*
X96775000Y-59975000D01*
X96775000Y-60425000D01*
G37*
X97325000Y-58875000D02*
X96875000Y-58875000D01*
X96875000Y-58200000D01*
X97325000Y-58200000D01*
X97325000Y-58875000D01*
G36*
X97325000Y-58875000D02*
G01*
X96875000Y-58875000D01*
X96875000Y-58200000D01*
X97325000Y-58200000D01*
X97325000Y-58875000D01*
G37*
X97325000Y-60700000D02*
X96875000Y-60700000D01*
X96875000Y-60025000D01*
X97325000Y-60025000D01*
X97325000Y-60700000D01*
G36*
X97325000Y-60700000D02*
G01*
X96875000Y-60700000D01*
X96875000Y-60025000D01*
X97325000Y-60025000D01*
X97325000Y-60700000D01*
G37*
X97825000Y-58875000D02*
X97375000Y-58875000D01*
X97375000Y-58200000D01*
X97825000Y-58200000D01*
X97825000Y-58875000D01*
G36*
X97825000Y-58875000D02*
G01*
X97375000Y-58875000D01*
X97375000Y-58200000D01*
X97825000Y-58200000D01*
X97825000Y-58875000D01*
G37*
X97825000Y-60700000D02*
X97375000Y-60700000D01*
X97375000Y-60025000D01*
X97825000Y-60025000D01*
X97825000Y-60700000D01*
G36*
X97825000Y-60700000D02*
G01*
X97375000Y-60700000D01*
X97375000Y-60025000D01*
X97825000Y-60025000D01*
X97825000Y-60700000D01*
G37*
X98325000Y-58875000D02*
X97875000Y-58875000D01*
X97875000Y-58200000D01*
X98325000Y-58200000D01*
X98325000Y-58875000D01*
G36*
X98325000Y-58875000D02*
G01*
X97875000Y-58875000D01*
X97875000Y-58200000D01*
X98325000Y-58200000D01*
X98325000Y-58875000D01*
G37*
X98325000Y-60700000D02*
X97875000Y-60700000D01*
X97875000Y-60025000D01*
X98325000Y-60025000D01*
X98325000Y-60700000D01*
G36*
X98325000Y-60700000D02*
G01*
X97875000Y-60700000D01*
X97875000Y-60025000D01*
X98325000Y-60025000D01*
X98325000Y-60700000D01*
G37*
X99100000Y-58925000D02*
X98425000Y-58925000D01*
X98425000Y-58475000D01*
X99100000Y-58475000D01*
X99100000Y-58925000D01*
G36*
X99100000Y-58925000D02*
G01*
X98425000Y-58925000D01*
X98425000Y-58475000D01*
X99100000Y-58475000D01*
X99100000Y-58925000D01*
G37*
X99100000Y-59425000D02*
X98425000Y-59425000D01*
X98425000Y-58975000D01*
X99100000Y-58975000D01*
X99100000Y-59425000D01*
G36*
X99100000Y-59425000D02*
G01*
X98425000Y-59425000D01*
X98425000Y-58975000D01*
X99100000Y-58975000D01*
X99100000Y-59425000D01*
G37*
X99100000Y-59925000D02*
X98425000Y-59925000D01*
X98425000Y-59475000D01*
X99100000Y-59475000D01*
X99100000Y-59925000D01*
G36*
X99100000Y-59925000D02*
G01*
X98425000Y-59925000D01*
X98425000Y-59475000D01*
X99100000Y-59475000D01*
X99100000Y-59925000D01*
G37*
X99100000Y-60425000D02*
X98425000Y-60425000D01*
X98425000Y-59975000D01*
X99100000Y-59975000D01*
X99100000Y-60425000D01*
G36*
X99100000Y-60425000D02*
G01*
X98425000Y-60425000D01*
X98425000Y-59975000D01*
X99100000Y-59975000D01*
X99100000Y-60425000D01*
G37*
G36*
X121279651Y-49937500D02*
G01*
X119379651Y-49937500D01*
X119379651Y-53887500D01*
X121279651Y-53887500D01*
X121279651Y-49937500D01*
G37*
D19*
X107000000Y-51187500D03*
X107000000Y-53312500D03*
D20*
X82000000Y-77520000D03*
D21*
X82000000Y-74980000D03*
X82000000Y-72440000D03*
X82000000Y-69900000D03*
X82000000Y-67360000D03*
X82000000Y-64820000D03*
X82000000Y-62280000D03*
X82000000Y-59740000D03*
X82000000Y-57200000D03*
X82000000Y-54660000D03*
X82000000Y-52120000D03*
X82000000Y-49580000D03*
D22*
X111650000Y-77700000D03*
X118800000Y-77700000D03*
D23*
X128950000Y-79150000D03*
D24*
X126410000Y-79150000D03*
X123870000Y-79150000D03*
X121330000Y-79150000D03*
D25*
X126000000Y-57050000D03*
D26*
X126000000Y-57050000D03*
D27*
X109750000Y-65900000D03*
D28*
X113750000Y-65900000D03*
D25*
X92350000Y-56600000D03*
D26*
X92350000Y-56600000D03*
D25*
X126050000Y-74400000D03*
D26*
X126050000Y-74400000D03*
D29*
X101540000Y-76755000D03*
D30*
X99000000Y-76755000D03*
X96460000Y-76755000D03*
D23*
X108725000Y-78650000D03*
D24*
X106185000Y-78650000D03*
D23*
X103690000Y-47950000D03*
D24*
X101150000Y-47950000D03*
X98610000Y-47950000D03*
X96070000Y-47950000D03*
X93530000Y-47950000D03*
X90990000Y-47950000D03*
D31*
X87600000Y-57925000D03*
X87600000Y-59575000D03*
D32*
X109500000Y-74500000D03*
X107950000Y-74500000D03*
D33*
X98850000Y-68650000D03*
X98850000Y-67350000D03*
X100850000Y-68000000D03*
D32*
X103875000Y-67100000D03*
X102325000Y-67100000D03*
D34*
X115674651Y-54127500D03*
X115674651Y-53487500D03*
D35*
X124429651Y-51112500D03*
D36*
X125929651Y-52587500D03*
D35*
X127429651Y-51112500D03*
D36*
X125929651Y-49637500D03*
D37*
X84450000Y-54850000D03*
X86100000Y-54850000D03*
D38*
X101475000Y-52463996D03*
X103025000Y-52463996D03*
D39*
X97500000Y-63425000D03*
X97500000Y-61875000D03*
D40*
X113450000Y-70050000D03*
X112200000Y-70050000D03*
X110950000Y-70050000D03*
X109700000Y-70050000D03*
X109700000Y-67900000D03*
X110950000Y-67900000D03*
X112200000Y-67900000D03*
X113450000Y-67900000D03*
D37*
X84450000Y-56400000D03*
X86100000Y-56400000D03*
X84450000Y-57950000D03*
X86100000Y-57950000D03*
D39*
X105250000Y-52790108D03*
X105250000Y-51240108D03*
D41*
X87442500Y-71452500D03*
X87442500Y-72112500D03*
X87442500Y-72772500D03*
X87442500Y-73432500D03*
D42*
X85450000Y-73050000D03*
D43*
X84457500Y-73432500D03*
X84457500Y-72772500D03*
D42*
X85450000Y-71835000D03*
D43*
X84457500Y-72112500D03*
X84457500Y-71452500D03*
D44*
X121275000Y-72650000D03*
X119625000Y-72650000D03*
D37*
X84450000Y-75200000D03*
X86100000Y-75200000D03*
D34*
X114924651Y-54132500D03*
X114924651Y-53492500D03*
D31*
X107950000Y-68150000D03*
X107950000Y-69800000D03*
D37*
X84450000Y-49400000D03*
X86100000Y-49400000D03*
D41*
X87442500Y-61252500D03*
X87442500Y-61912500D03*
X87442500Y-62572500D03*
X87442500Y-63232500D03*
D42*
X85450000Y-62850000D03*
D43*
X84457500Y-63232500D03*
X84457500Y-62572500D03*
D42*
X85450000Y-61635000D03*
D43*
X84457500Y-61912500D03*
X84457500Y-61252500D03*
D37*
X84450000Y-64950000D03*
X86100000Y-64950000D03*
D45*
X111924434Y-52687500D03*
X111424434Y-52687500D03*
X110924434Y-52687500D03*
X110424434Y-52687500D03*
X109924434Y-52687500D03*
X109424434Y-52687500D03*
D46*
X108736934Y-52000000D03*
X108736934Y-51500000D03*
X108736934Y-51000000D03*
X108736934Y-50500000D03*
X108736934Y-50000000D03*
X108736934Y-49500000D03*
D45*
X109424434Y-48812500D03*
X109924434Y-48812500D03*
X110424434Y-48812500D03*
X110924434Y-48812500D03*
X111424434Y-48812500D03*
X111924434Y-48812500D03*
D46*
X112611934Y-49500000D03*
X112611934Y-50000000D03*
X112611934Y-50500000D03*
X112611934Y-51000000D03*
X112611934Y-51500000D03*
X112611934Y-52000000D03*
D47*
X110674434Y-50750000D03*
D37*
X84450000Y-69700000D03*
X86100000Y-69700000D03*
D39*
X100150000Y-60225000D03*
X100150000Y-58675000D03*
D37*
X84450000Y-76750000D03*
X86100000Y-76750000D03*
D48*
X87600000Y-76775000D03*
X87600000Y-75125000D03*
D49*
X90150000Y-78000000D03*
X90150000Y-74000000D03*
D32*
X100750000Y-61750000D03*
X99200000Y-61750000D03*
D39*
X94900000Y-51650000D03*
X94900000Y-50100000D03*
X95950000Y-63425000D03*
X95950000Y-61875000D03*
D32*
X109500000Y-76050000D03*
X107950000Y-76050000D03*
X114554651Y-55312500D03*
X113004651Y-55312500D03*
D31*
X87600000Y-68125000D03*
X87600000Y-69775000D03*
D41*
X87450000Y-51130000D03*
X87450000Y-51790000D03*
X87450000Y-52450000D03*
X87450000Y-53110000D03*
D42*
X85457500Y-52727500D03*
D43*
X84465000Y-53110000D03*
X84465000Y-52450000D03*
D42*
X85457500Y-51512500D03*
D43*
X84465000Y-51790000D03*
X84465000Y-51130000D03*
D50*
X118029651Y-54312500D03*
X118029651Y-52712500D03*
X118029651Y-51112500D03*
X118029651Y-49512500D03*
X119529651Y-48612500D03*
X121129651Y-48612500D03*
X122629651Y-49512500D03*
X122629651Y-51112500D03*
X122629651Y-52712500D03*
X122629651Y-54312500D03*
X121129651Y-55212500D03*
X119529651Y-55212500D03*
D48*
X87600000Y-66525000D03*
X87600000Y-64875000D03*
D31*
X87600000Y-47825000D03*
X87600000Y-49475000D03*
D48*
X87600000Y-56425000D03*
X87600000Y-54775000D03*
D37*
X101425000Y-55550000D03*
X103075000Y-55550000D03*
X84425000Y-47850000D03*
X86075000Y-47850000D03*
X84450000Y-66500000D03*
X86100000Y-66500000D03*
X84450000Y-68150000D03*
X86100000Y-68150000D03*
D51*
X103800000Y-59475000D03*
X103800000Y-61025000D03*
X115250000Y-68350000D03*
X115250000Y-69900000D03*
D37*
X84450000Y-59500000D03*
X86100000Y-59500000D03*
D52*
X113796964Y-52177500D03*
X113796964Y-53147500D03*
D32*
X103025000Y-54000000D03*
X101475000Y-54000000D03*
D51*
X102250000Y-59475000D03*
X102250000Y-61025000D03*
D53*
X98450001Y-52600000D03*
X97950000Y-52600000D03*
X97450000Y-52600000D03*
X96949999Y-52600000D03*
D54*
X96425001Y-52075002D03*
X96425001Y-51575001D03*
X96425001Y-51075001D03*
X96425001Y-50575000D03*
D53*
X96949999Y-50050002D03*
X97450000Y-50050002D03*
X97950000Y-50050002D03*
X98450001Y-50050002D03*
D54*
X98974999Y-50575000D03*
X98974999Y-51075001D03*
X98974999Y-51575001D03*
X98974999Y-52075002D03*
D55*
X97000000Y-67640000D03*
X97000000Y-68910000D03*
X97000000Y-70180000D03*
X97000000Y-71450000D03*
X89800000Y-71450000D03*
X89800000Y-70180000D03*
X89800000Y-68910000D03*
X89800000Y-67640000D03*
D56*
X120143100Y-70199999D03*
X120143100Y-69100001D03*
X120143100Y-68000001D03*
X120143100Y-66900000D03*
X120143100Y-65800000D03*
X120143100Y-64700000D03*
X120143100Y-63599999D03*
X120143100Y-62499999D03*
X120143100Y-61399999D03*
X128956900Y-61400001D03*
X128956900Y-62499999D03*
X128956900Y-63599999D03*
X128956900Y-64700000D03*
X128956900Y-65800000D03*
X128956900Y-66900000D03*
X128956900Y-68000001D03*
X128956900Y-69100001D03*
X128956900Y-70200001D03*
D57*
X95950000Y-54550000D03*
X96750000Y-54550000D03*
X97550000Y-54550000D03*
X98350000Y-54550000D03*
X99150000Y-54550000D03*
X99950000Y-54550000D03*
D58*
X99950000Y-55550000D03*
D57*
X99950000Y-56550000D03*
X99150000Y-56550000D03*
X98350000Y-56550000D03*
X97550000Y-56550000D03*
X96750000Y-56550000D03*
X95950000Y-56550000D03*
D58*
X95950000Y-55550000D03*
D59*
X108839184Y-54615108D03*
X111039184Y-54615108D03*
X111039184Y-56215108D03*
X108839184Y-56215108D03*
D31*
X103850000Y-63850000D03*
X103850000Y-65500000D03*
D60*
X114887217Y-52012500D03*
X114887217Y-51512500D03*
X114887217Y-51012500D03*
X114887217Y-50512500D03*
D61*
X115587217Y-50200000D03*
D60*
X116287217Y-50512500D03*
X116287217Y-51012500D03*
X116287217Y-51512500D03*
X116287217Y-52012500D03*
D61*
X115587217Y-52325000D03*
%LPD*%
M02*
