G04 #@! TF.GenerationSoftware,KiCad,Pcbnew,8.0.1*
G04 #@! TF.CreationDate,2024-06-08T15:54:10-04:00*
G04 #@! TF.ProjectId,SAP Mk3.2,53415020-4d6b-4332-9e32-2e6b69636164,rev?*
G04 #@! TF.SameCoordinates,Original*
G04 #@! TF.FileFunction,Copper,L1,Top*
G04 #@! TF.FilePolarity,Positive*
%FSLAX46Y46*%
G04 Gerber Fmt 4.6, Leading zero omitted, Abs format (unit mm)*
G04 Created by KiCad (PCBNEW 8.0.1) date 2024-06-08 15:54:10*
%MOMM*%
%LPD*%
G01*
G04 APERTURE LIST*
G04 Aperture macros list*
%AMRoundRect*
0 Rectangle with rounded corners*
0 $1 Rounding radius*
0 $2 $3 $4 $5 $6 $7 $8 $9 X,Y pos of 4 corners*
0 Add a 4 corners polygon primitive as box body*
4,1,4,$2,$3,$4,$5,$6,$7,$8,$9,$2,$3,0*
0 Add four circle primitives for the rounded corners*
1,1,$1+$1,$2,$3*
1,1,$1+$1,$4,$5*
1,1,$1+$1,$6,$7*
1,1,$1+$1,$8,$9*
0 Add four rect primitives between the rounded corners*
20,1,$1+$1,$2,$3,$4,$5,0*
20,1,$1+$1,$4,$5,$6,$7,0*
20,1,$1+$1,$6,$7,$8,$9,0*
20,1,$1+$1,$8,$9,$2,$3,0*%
G04 Aperture macros list end*
G04 #@! TA.AperFunction,ComponentPad*
%ADD10R,2.200000X2.200000*%
G04 #@! TD*
G04 #@! TA.AperFunction,ComponentPad*
%ADD11C,2.200000*%
G04 #@! TD*
G04 #@! TA.AperFunction,SMDPad,CuDef*
%ADD12RoundRect,0.125000X-0.125000X-0.125000X0.125000X-0.125000X0.125000X0.125000X-0.125000X0.125000X0*%
G04 #@! TD*
G04 #@! TA.AperFunction,SMDPad,CuDef*
%ADD13RoundRect,0.200000X0.200000X0.275000X-0.200000X0.275000X-0.200000X-0.275000X0.200000X-0.275000X0*%
G04 #@! TD*
G04 #@! TA.AperFunction,SMDPad,CuDef*
%ADD14RoundRect,0.225000X-0.250000X0.225000X-0.250000X-0.225000X0.250000X-0.225000X0.250000X0.225000X0*%
G04 #@! TD*
G04 #@! TA.AperFunction,SMDPad,CuDef*
%ADD15RoundRect,0.200000X-0.275000X0.200000X-0.275000X-0.200000X0.275000X-0.200000X0.275000X0.200000X0*%
G04 #@! TD*
G04 #@! TA.AperFunction,SMDPad,CuDef*
%ADD16RoundRect,0.225000X-0.225000X-0.250000X0.225000X-0.250000X0.225000X0.250000X-0.225000X0.250000X0*%
G04 #@! TD*
G04 #@! TA.AperFunction,SMDPad,CuDef*
%ADD17RoundRect,0.075000X-0.075000X0.700000X-0.075000X-0.700000X0.075000X-0.700000X0.075000X0.700000X0*%
G04 #@! TD*
G04 #@! TA.AperFunction,SMDPad,CuDef*
%ADD18RoundRect,0.075000X-0.700000X0.075000X-0.700000X-0.075000X0.700000X-0.075000X0.700000X0.075000X0*%
G04 #@! TD*
G04 #@! TA.AperFunction,SMDPad,CuDef*
%ADD19R,0.400000X1.400000*%
G04 #@! TD*
G04 #@! TA.AperFunction,ComponentPad*
%ADD20O,1.050000X1.900000*%
G04 #@! TD*
G04 #@! TA.AperFunction,SMDPad,CuDef*
%ADD21R,1.150000X1.450000*%
G04 #@! TD*
G04 #@! TA.AperFunction,SMDPad,CuDef*
%ADD22R,1.750000X1.900000*%
G04 #@! TD*
G04 #@! TA.AperFunction,SMDPad,CuDef*
%ADD23RoundRect,0.225000X0.250000X-0.225000X0.250000X0.225000X-0.250000X0.225000X-0.250000X-0.225000X0*%
G04 #@! TD*
G04 #@! TA.AperFunction,SMDPad,CuDef*
%ADD24R,0.812800X0.254000*%
G04 #@! TD*
G04 #@! TA.AperFunction,SMDPad,CuDef*
%ADD25R,1.701800X2.438400*%
G04 #@! TD*
G04 #@! TA.AperFunction,ComponentPad*
%ADD26R,1.700000X1.700000*%
G04 #@! TD*
G04 #@! TA.AperFunction,ComponentPad*
%ADD27O,1.700000X1.700000*%
G04 #@! TD*
G04 #@! TA.AperFunction,SMDPad,CuDef*
%ADD28RoundRect,0.250000X-0.362500X-1.425000X0.362500X-1.425000X0.362500X1.425000X-0.362500X1.425000X0*%
G04 #@! TD*
G04 #@! TA.AperFunction,SMDPad,CuDef*
%ADD29RoundRect,0.218750X-0.218750X-0.256250X0.218750X-0.256250X0.218750X0.256250X-0.218750X0.256250X0*%
G04 #@! TD*
G04 #@! TA.AperFunction,SMDPad,CuDef*
%ADD30RoundRect,0.200000X0.275000X-0.200000X0.275000X0.200000X-0.275000X0.200000X-0.275000X-0.200000X0*%
G04 #@! TD*
G04 #@! TA.AperFunction,ComponentPad*
%ADD31C,2.600000*%
G04 #@! TD*
G04 #@! TA.AperFunction,ConnectorPad*
%ADD32C,3.800000*%
G04 #@! TD*
G04 #@! TA.AperFunction,SMDPad,CuDef*
%ADD33RoundRect,0.225000X0.225000X0.250000X-0.225000X0.250000X-0.225000X-0.250000X0.225000X-0.250000X0*%
G04 #@! TD*
G04 #@! TA.AperFunction,SMDPad,CuDef*
%ADD34RoundRect,0.200000X-0.250000X0.200000X-0.250000X-0.200000X0.250000X-0.200000X0.250000X0.200000X0*%
G04 #@! TD*
G04 #@! TA.AperFunction,ComponentPad*
%ADD35R,1.600000X1.600000*%
G04 #@! TD*
G04 #@! TA.AperFunction,ComponentPad*
%ADD36C,1.600000*%
G04 #@! TD*
G04 #@! TA.AperFunction,ComponentPad*
%ADD37R,1.905000X2.000000*%
G04 #@! TD*
G04 #@! TA.AperFunction,ComponentPad*
%ADD38O,1.905000X2.000000*%
G04 #@! TD*
G04 #@! TA.AperFunction,SMDPad,CuDef*
%ADD39RoundRect,0.218750X0.256250X-0.218750X0.256250X0.218750X-0.256250X0.218750X-0.256250X-0.218750X0*%
G04 #@! TD*
G04 #@! TA.AperFunction,SMDPad,CuDef*
%ADD40R,1.050000X0.650000*%
G04 #@! TD*
G04 #@! TA.AperFunction,SMDPad,CuDef*
%ADD41R,2.300000X2.300000*%
G04 #@! TD*
G04 #@! TA.AperFunction,SMDPad,CuDef*
%ADD42R,1.500000X1.500000*%
G04 #@! TD*
G04 #@! TA.AperFunction,ViaPad*
%ADD43C,0.800000*%
G04 #@! TD*
G04 #@! TA.AperFunction,ViaPad*
%ADD44C,0.350000*%
G04 #@! TD*
G04 #@! TA.AperFunction,ViaPad*
%ADD45C,0.580000*%
G04 #@! TD*
G04 #@! TA.AperFunction,ViaPad*
%ADD46C,0.600000*%
G04 #@! TD*
G04 #@! TA.AperFunction,Conductor*
%ADD47C,0.250000*%
G04 #@! TD*
G04 #@! TA.AperFunction,Conductor*
%ADD48C,1.500000*%
G04 #@! TD*
G04 #@! TA.AperFunction,Conductor*
%ADD49C,0.188000*%
G04 #@! TD*
G04 #@! TA.AperFunction,Conductor*
%ADD50C,0.200000*%
G04 #@! TD*
G04 #@! TA.AperFunction,Conductor*
%ADD51C,0.500000*%
G04 #@! TD*
G04 #@! TA.AperFunction,Conductor*
%ADD52C,1.000000*%
G04 #@! TD*
G04 #@! TA.AperFunction,Conductor*
%ADD53C,0.170000*%
G04 #@! TD*
G04 #@! TA.AperFunction,Conductor*
%ADD54C,0.140000*%
G04 #@! TD*
G04 APERTURE END LIST*
D10*
X82000000Y-77520000D03*
D11*
X82000000Y-74980000D03*
X82000000Y-72440000D03*
X82000000Y-69900000D03*
X82000000Y-67360000D03*
X82000000Y-64820000D03*
X82000000Y-62280000D03*
X82000000Y-59740000D03*
X82000000Y-57200000D03*
X82000000Y-54660000D03*
X82000000Y-52120000D03*
X82000000Y-49580000D03*
D12*
X110600000Y-72400000D03*
X112800000Y-72400000D03*
D13*
X97125000Y-72100000D03*
X95475000Y-72100000D03*
D14*
X109500000Y-74175000D03*
X109500000Y-75725000D03*
D15*
X106300000Y-47250000D03*
X106300000Y-48900000D03*
D16*
X102025000Y-74100000D03*
X103575000Y-74100000D03*
D17*
X103600000Y-57775000D03*
X103100000Y-57775000D03*
X102600000Y-57775000D03*
X102100000Y-57775000D03*
X101600000Y-57775000D03*
X101100000Y-57775000D03*
X100600000Y-57775000D03*
X100100000Y-57775000D03*
X99600000Y-57775000D03*
X99100000Y-57775000D03*
X98600000Y-57775000D03*
X98100000Y-57775000D03*
X97600000Y-57775000D03*
X97100000Y-57775000D03*
X96600000Y-57775000D03*
X96100000Y-57775000D03*
D18*
X94175000Y-59700000D03*
X94175000Y-60200000D03*
X94175000Y-60700000D03*
X94175000Y-61200000D03*
X94175000Y-61700000D03*
X94175000Y-62200000D03*
X94175000Y-62700000D03*
X94175000Y-63200000D03*
X94175000Y-63700000D03*
X94175000Y-64200000D03*
X94175000Y-64700000D03*
X94175000Y-65200000D03*
X94175000Y-65700000D03*
X94175000Y-66200000D03*
X94175000Y-66700000D03*
X94175000Y-67200000D03*
D17*
X96100000Y-69125000D03*
X96600000Y-69125000D03*
X97100000Y-69125000D03*
X97600000Y-69125000D03*
X98100000Y-69125000D03*
X98600000Y-69125000D03*
X99100000Y-69125000D03*
X99600000Y-69125000D03*
X100100000Y-69125000D03*
X100600000Y-69125000D03*
X101100000Y-69125000D03*
X101600000Y-69125000D03*
X102100000Y-69125000D03*
X102600000Y-69125000D03*
X103100000Y-69125000D03*
X103600000Y-69125000D03*
D18*
X105525000Y-67200000D03*
X105525000Y-66700000D03*
X105525000Y-66200000D03*
X105525000Y-65700000D03*
X105525000Y-65200000D03*
X105525000Y-64700000D03*
X105525000Y-64200000D03*
X105525000Y-63700000D03*
X105525000Y-63200000D03*
X105525000Y-62700000D03*
X105525000Y-62200000D03*
X105525000Y-61700000D03*
X105525000Y-61200000D03*
X105525000Y-60700000D03*
X105525000Y-60200000D03*
X105525000Y-59700000D03*
D19*
X113925000Y-75050000D03*
X114575000Y-75050000D03*
X115225000Y-75050000D03*
X115875000Y-75050000D03*
X116525000Y-75050000D03*
D20*
X111650000Y-77700000D03*
D21*
X112905000Y-75470000D03*
D22*
X114100000Y-77700000D03*
X116350000Y-77700000D03*
D21*
X117545000Y-75470000D03*
D20*
X118800000Y-77700000D03*
D23*
X92300000Y-67475000D03*
X92300000Y-65925000D03*
D14*
X92300000Y-69025000D03*
X92300000Y-70575000D03*
D24*
X107945600Y-75600001D03*
X107945600Y-75100000D03*
X107945600Y-74600000D03*
X107945600Y-74099999D03*
X105050000Y-74099999D03*
X105050000Y-74600000D03*
X105050000Y-75100000D03*
X105050000Y-75600001D03*
D25*
X106497800Y-74850000D03*
D26*
X128950000Y-79150000D03*
D27*
X126410000Y-79150000D03*
X123870000Y-79150000D03*
X121330000Y-79150000D03*
D28*
X86650000Y-77600000D03*
X92575000Y-77600000D03*
D29*
X119650000Y-72650000D03*
X121225000Y-72650000D03*
D30*
X108100000Y-61225000D03*
X108100000Y-59575000D03*
D31*
X126000000Y-57050000D03*
D32*
X126000000Y-57050000D03*
D33*
X100100000Y-55850000D03*
X98550000Y-55850000D03*
D34*
X103450000Y-54500000D03*
X101600000Y-54500000D03*
X101600000Y-55950000D03*
X103450000Y-55950000D03*
D35*
X109750000Y-65900000D03*
D36*
X113750000Y-65900000D03*
D16*
X106375000Y-72200000D03*
X107925000Y-72200000D03*
D31*
X92350000Y-56600000D03*
D32*
X92350000Y-56600000D03*
D31*
X126050000Y-74400000D03*
D32*
X126050000Y-74400000D03*
D15*
X93850000Y-71475000D03*
X93850000Y-73125000D03*
D14*
X97900000Y-50875000D03*
X97900000Y-52425000D03*
D37*
X101540000Y-76755000D03*
D38*
X99000000Y-76755000D03*
X96460000Y-76755000D03*
D39*
X92300000Y-73637500D03*
X92300000Y-72062500D03*
D40*
X104225000Y-52900000D03*
X100075000Y-52900000D03*
X104225000Y-50750000D03*
X100075000Y-50750000D03*
D30*
X114100000Y-73100000D03*
X114100000Y-71450000D03*
D16*
X98950000Y-74100000D03*
X100500000Y-74100000D03*
D26*
X108725000Y-78650000D03*
D27*
X106185000Y-78650000D03*
D30*
X115650000Y-73100000D03*
X115650000Y-71450000D03*
D41*
X118600000Y-70300000D03*
X123100000Y-70300000D03*
X127600000Y-70300000D03*
X118600000Y-65800000D03*
X123100000Y-65800000D03*
X118600000Y-61300000D03*
X123100000Y-61300000D03*
X127600000Y-61300000D03*
D42*
X129000000Y-65800000D03*
D30*
X109600000Y-61225000D03*
X109600000Y-59575000D03*
D26*
X103690000Y-47950000D03*
D27*
X101150000Y-47950000D03*
X98610000Y-47950000D03*
X96070000Y-47950000D03*
X93530000Y-47950000D03*
X90990000Y-47950000D03*
D43*
X94500000Y-75400000D03*
D44*
X107950000Y-69800000D03*
D43*
X93450000Y-76350000D03*
D44*
X120550000Y-63650000D03*
X92300000Y-67500000D03*
X121150000Y-48600000D03*
X108950000Y-50500000D03*
X103800000Y-59475000D03*
X108100000Y-59600000D03*
X103250000Y-55850000D03*
X92300000Y-72100000D03*
X97150000Y-53750000D03*
X103850000Y-65500000D03*
X120550000Y-62500000D03*
X103875000Y-67100000D03*
X99950000Y-54550000D03*
X118050000Y-54300000D03*
X113000000Y-55350000D03*
X108400000Y-50000000D03*
X97950000Y-52000000D03*
X101450000Y-53700000D03*
X109600000Y-59550000D03*
X114950000Y-69650000D03*
D43*
X97800000Y-75350000D03*
D44*
X121150000Y-55200000D03*
X101450000Y-52450000D03*
X95500000Y-72100000D03*
X102250000Y-59475000D03*
X115500000Y-70150000D03*
X95950000Y-63425000D03*
X100200000Y-59950000D03*
X97500000Y-63425000D03*
X99250000Y-62050000D03*
X120600000Y-61450000D03*
D45*
X129350000Y-62532872D03*
D44*
X107950000Y-76050000D03*
X121350000Y-69050000D03*
X119625000Y-72650000D03*
X103900000Y-62100000D03*
X102350000Y-66100000D03*
X101550000Y-66400000D03*
X99100000Y-71450000D03*
X99000000Y-72300000D03*
X98300000Y-72300000D03*
X100000000Y-71450000D03*
X88500000Y-53400000D03*
X88500000Y-50900000D03*
X88500000Y-63500000D03*
X88500000Y-61000000D03*
X88500000Y-71200000D03*
X88500000Y-73700000D03*
X99750000Y-67850000D03*
X103850000Y-63850000D03*
X110929123Y-49079013D03*
X95650000Y-70800000D03*
X108100000Y-61225000D03*
X97150000Y-59700000D03*
X127150000Y-68450000D03*
X113450000Y-68250000D03*
X99050000Y-52550000D03*
X98000000Y-59300000D03*
X128956900Y-68000001D03*
X112200000Y-67650000D03*
X109600000Y-61250000D03*
X88250000Y-55600000D03*
X88250000Y-75950000D03*
X88250000Y-68950000D03*
X88250000Y-65750000D03*
X88250000Y-58700000D03*
X88250000Y-48650000D03*
X108950000Y-49500000D03*
X113800000Y-49150000D03*
X106050000Y-56800000D03*
X109400000Y-48550000D03*
X100050000Y-51500000D03*
X98900000Y-63200000D03*
X104650000Y-56200000D03*
X109924018Y-49052010D03*
X102300000Y-56500000D03*
X110428070Y-48535956D03*
X106750000Y-56800000D03*
X111427175Y-48544957D03*
X108000000Y-63200000D03*
X94700000Y-69000000D03*
X97000000Y-66650000D03*
X111943229Y-49094015D03*
X107000000Y-64200000D03*
X93650000Y-70250000D03*
D43*
X125700000Y-47150000D03*
X116300000Y-59100000D03*
D44*
X102300000Y-54450000D03*
D43*
X112050000Y-47150000D03*
D44*
X84400000Y-47850000D03*
X116279651Y-53562500D03*
X106950000Y-74000000D03*
X87800000Y-76800000D03*
D43*
X124000000Y-54350000D03*
D44*
X84450000Y-76700000D03*
X98850000Y-67350000D03*
X106050000Y-48650000D03*
D43*
X108150000Y-47150000D03*
D44*
X116237217Y-49912500D03*
D43*
X129550000Y-59100000D03*
X121500000Y-74050000D03*
D44*
X103050000Y-52450000D03*
X87450000Y-53200000D03*
X87450000Y-61150000D03*
D43*
X129450000Y-49700000D03*
X121850000Y-59100000D03*
X123750000Y-47150000D03*
X116300000Y-60900000D03*
D44*
X114237217Y-49912500D03*
D43*
X129150000Y-47950000D03*
D44*
X96850000Y-52700000D03*
X97750000Y-55550000D03*
D43*
X123250000Y-72500000D03*
D44*
X102325000Y-67100000D03*
X115587217Y-51612500D03*
D43*
X129450000Y-53600000D03*
D44*
X113537217Y-49912500D03*
X93850000Y-71450000D03*
D43*
X114000000Y-47150000D03*
D44*
X114937217Y-49912500D03*
D43*
X128700000Y-72400000D03*
D44*
X87600000Y-57950000D03*
D43*
X116300000Y-64800000D03*
X123150000Y-70300000D03*
D44*
X116750000Y-52012500D03*
X106050000Y-74800000D03*
X103800000Y-61025000D03*
X97500000Y-61875000D03*
X109500000Y-74200000D03*
X127650000Y-63150000D03*
X106950000Y-75600000D03*
D43*
X117892124Y-72830290D03*
X119900000Y-59100000D03*
X117900000Y-47150000D03*
D44*
X92300000Y-70600000D03*
D43*
X127650000Y-70350000D03*
X121800000Y-56800000D03*
X119000000Y-70199999D03*
X116300000Y-62850000D03*
X121800000Y-47150000D03*
D44*
X87650000Y-68100000D03*
X87450000Y-73500000D03*
X84450000Y-56400000D03*
D43*
X110100000Y-57700000D03*
D44*
X102850000Y-53800000D03*
X84450000Y-57950000D03*
X94900000Y-51650000D03*
X115637217Y-49662500D03*
X87450000Y-63300000D03*
D43*
X123100000Y-65800000D03*
D44*
X102250000Y-61025000D03*
D43*
X127950000Y-59100000D03*
D44*
X114329651Y-51512500D03*
D43*
X117900000Y-56800000D03*
X127650000Y-61350000D03*
X118500000Y-61300000D03*
X116750000Y-69000000D03*
D44*
X100200000Y-59000000D03*
X100050000Y-52500000D03*
D43*
X114000000Y-56800000D03*
D44*
X84450000Y-68150000D03*
X106050000Y-74000000D03*
D43*
X115950000Y-56800000D03*
X119500000Y-74050000D03*
D44*
X115587217Y-51012500D03*
X87450000Y-51000000D03*
D43*
X116948011Y-70992822D03*
D44*
X106050000Y-75600000D03*
D43*
X118550000Y-65800000D03*
D44*
X116550000Y-74700000D03*
D43*
X118050000Y-59100000D03*
X112150000Y-57750000D03*
D44*
X96800000Y-49900000D03*
X98850000Y-55550000D03*
X100800000Y-62050000D03*
X115679651Y-52862500D03*
X116579651Y-52912500D03*
D43*
X116300000Y-66750000D03*
X119850000Y-47150000D03*
X123800000Y-59100000D03*
D44*
X87650000Y-66500000D03*
X95950000Y-61875000D03*
D43*
X127650000Y-47150000D03*
D44*
X92300000Y-65950000D03*
D43*
X119850000Y-56800000D03*
D44*
X106950000Y-74800000D03*
X116937217Y-49912500D03*
X107750000Y-50500000D03*
X115600000Y-68750000D03*
X87600000Y-47800000D03*
X114950000Y-68750000D03*
D43*
X129450000Y-51650000D03*
D44*
X98300000Y-55550000D03*
D43*
X110100000Y-47150000D03*
D44*
X84450000Y-66500000D03*
X122125000Y-72650000D03*
X87600000Y-56450000D03*
X87450000Y-71400000D03*
X97150000Y-60450000D03*
D43*
X127750000Y-54350000D03*
X108150000Y-57700000D03*
X115950000Y-47150000D03*
D44*
X97950000Y-50600000D03*
X116887217Y-51062500D03*
D43*
X123100000Y-61300000D03*
D44*
X119550000Y-55200000D03*
X107950000Y-75100000D03*
D46*
X111500000Y-74100000D03*
D44*
X122650000Y-54300000D03*
D47*
X101250000Y-50750000D02*
X101192000Y-50750000D01*
X101250000Y-50750000D02*
X100750000Y-50750000D01*
X104225000Y-50750000D02*
X101250000Y-50750000D01*
X101192000Y-50750000D02*
X100971000Y-50971000D01*
X100971000Y-50971000D02*
X100750000Y-50750000D01*
X100971000Y-53500000D02*
X100971000Y-50971000D01*
X100847200Y-55102800D02*
X100847200Y-53623800D01*
X100847200Y-53623800D02*
X100971000Y-53500000D01*
X100750000Y-50750000D02*
X100075000Y-50750000D01*
X100100000Y-55850000D02*
X100847200Y-55102800D01*
X103500000Y-52900000D02*
X103050000Y-52450000D01*
X104225000Y-52900000D02*
X103500000Y-52900000D01*
X99102800Y-49102800D02*
X100075000Y-50075000D01*
X100075000Y-50075000D02*
X100075000Y-50750000D01*
X97222800Y-49102800D02*
X99102800Y-49102800D01*
X96070000Y-47950000D02*
X97222800Y-49102800D01*
X97150000Y-59022591D02*
X96650000Y-59522591D01*
X103250000Y-55850000D02*
X103450000Y-55950000D01*
X103600000Y-67375000D02*
X103875000Y-67100000D01*
D48*
X97600000Y-74650000D02*
X94400000Y-74650000D01*
X94400000Y-74650000D02*
X92575000Y-76475000D01*
D47*
X95471000Y-61184632D02*
X95471000Y-62946000D01*
X94986368Y-60700000D02*
X95471000Y-61184632D01*
X92300000Y-67500000D02*
X92275000Y-67500000D01*
X105250000Y-75100000D02*
X98050000Y-75100000D01*
X97600000Y-59022591D02*
X97150000Y-59022591D01*
X103600000Y-57775000D02*
X103600000Y-58586368D01*
X105050000Y-75100000D02*
X105250000Y-75100000D01*
X104025000Y-59700000D02*
X103800000Y-59475000D01*
X92575000Y-67200000D02*
X92300000Y-67475000D01*
X98075000Y-74975000D02*
X98075000Y-75125000D01*
D48*
X99000000Y-76050000D02*
X98075000Y-75125000D01*
D47*
X105525000Y-59700000D02*
X104025000Y-59700000D01*
X103600000Y-69125000D02*
X103600000Y-67375000D01*
D48*
X92575000Y-76475000D02*
X92575000Y-77600000D01*
D47*
X97600000Y-57775000D02*
X97600000Y-59022591D01*
X94175000Y-67200000D02*
X92575000Y-67200000D01*
D48*
X98075000Y-75125000D02*
X97600000Y-74650000D01*
D47*
X96650000Y-59522591D02*
X96650000Y-62575000D01*
X98950000Y-74100000D02*
X98075000Y-74975000D01*
X95471000Y-62946000D02*
X95950000Y-63425000D01*
X103600000Y-56100000D02*
X103250000Y-55850000D01*
X103600000Y-58586368D02*
X102711368Y-59475000D01*
X103600000Y-57775000D02*
X103600000Y-56100000D01*
X94175000Y-60700000D02*
X94986368Y-60700000D01*
X98050000Y-75100000D02*
X97600000Y-74650000D01*
X96650000Y-62575000D02*
X97500000Y-63425000D01*
D48*
X99000000Y-76755000D02*
X99000000Y-76050000D01*
D47*
X102711368Y-59475000D02*
X102250000Y-59475000D01*
X92300000Y-67475000D02*
X92300000Y-67500000D01*
X92275000Y-67500000D02*
X92300000Y-67475000D01*
D49*
X129000000Y-65800000D02*
X129000000Y-62850000D01*
X129000000Y-62850000D02*
X129317128Y-62532872D01*
X129317128Y-62532872D02*
X129350000Y-62532872D01*
D47*
X100600000Y-56350000D02*
X100600000Y-57775000D01*
X100100000Y-55850000D02*
X100600000Y-56350000D01*
X95200000Y-66200000D02*
X94175000Y-66200000D01*
X95500000Y-67300000D02*
X95500000Y-66500000D01*
X95500000Y-66500000D02*
X95200000Y-66200000D01*
X93450000Y-67850000D02*
X94950000Y-67850000D01*
X92300000Y-69025000D02*
X92300000Y-69000000D01*
X94950000Y-67850000D02*
X95500000Y-67300000D01*
X92300000Y-69000000D02*
X93450000Y-67850000D01*
X107945600Y-76045600D02*
X107950000Y-76050000D01*
X107945600Y-75600001D02*
X107945600Y-76045600D01*
X105050000Y-74099999D02*
X103575000Y-74100000D01*
X105050000Y-74600000D02*
X105050000Y-74099999D01*
D50*
X108700000Y-74434599D02*
X108534599Y-74600000D01*
X108534599Y-74600000D02*
X107945600Y-74600000D01*
X107925000Y-72200000D02*
X108700000Y-72975000D01*
X108700000Y-72975000D02*
X108700000Y-74434599D01*
D47*
X121350000Y-69050000D02*
X121350000Y-72525000D01*
X121350000Y-72525000D02*
X121225000Y-72650000D01*
X92300000Y-73637500D02*
X93337500Y-73637500D01*
X93337500Y-73637500D02*
X93850000Y-73125000D01*
D51*
X113925000Y-74525000D02*
X113925000Y-75050000D01*
X112800000Y-73400000D02*
X113925000Y-74525000D01*
X112800000Y-72400000D02*
X112800000Y-73400000D01*
D52*
X79700000Y-72450000D02*
X79700000Y-73350000D01*
X79700000Y-63650000D02*
X79700000Y-66450000D01*
X82000000Y-52120000D02*
X80580000Y-52120000D01*
X80610000Y-72440000D02*
X79700000Y-73350000D01*
X79720000Y-62280000D02*
X80600000Y-62280000D01*
X80900000Y-67360000D02*
X80610000Y-67360000D01*
X80900000Y-72440000D02*
X82000000Y-72440000D01*
X79700000Y-53000000D02*
X79700000Y-56050000D01*
X82080000Y-77600000D02*
X82000000Y-77520000D01*
X79700000Y-58400000D02*
X79700000Y-61150000D01*
X79700000Y-61150000D02*
X79700000Y-62300000D01*
X79700000Y-62300000D02*
X79720000Y-62280000D01*
X79700000Y-61380000D02*
X80600000Y-62280000D01*
X80900000Y-67360000D02*
X80590000Y-67360000D01*
X79700000Y-76750000D02*
X80470000Y-77520000D01*
X79700000Y-66450000D02*
X79700000Y-67350000D01*
X80590000Y-72440000D02*
X79700000Y-71550000D01*
X79700000Y-57200000D02*
X79700000Y-58400000D01*
X79700000Y-72450000D02*
X79710000Y-72440000D01*
X79700000Y-73350000D02*
X79700000Y-76750000D01*
X79710000Y-72440000D02*
X80900000Y-72440000D01*
X79700000Y-57200000D02*
X80550000Y-57200000D01*
X79700000Y-56050000D02*
X79700000Y-57200000D01*
X79700000Y-62300000D02*
X79700000Y-63650000D01*
X79700000Y-63180000D02*
X80600000Y-62280000D01*
X82000000Y-67360000D02*
X80900000Y-67360000D01*
X80470000Y-77520000D02*
X82000000Y-77520000D01*
X80900000Y-67360000D02*
X79710000Y-67360000D01*
X79700000Y-68250000D02*
X79700000Y-71550000D01*
X79700000Y-58050000D02*
X80550000Y-57200000D01*
X80900000Y-72440000D02*
X80610000Y-72440000D01*
X79700000Y-58400000D02*
X79700000Y-58050000D01*
X80900000Y-72440000D02*
X80590000Y-72440000D01*
X79700000Y-67350000D02*
X79700000Y-68250000D01*
X79700000Y-71550000D02*
X79700000Y-72450000D01*
X79700000Y-61150000D02*
X79700000Y-61380000D01*
X80550000Y-57200000D02*
X79700000Y-56350000D01*
X79700000Y-56050000D02*
X79700000Y-56350000D01*
X80590000Y-67360000D02*
X79700000Y-68250000D01*
X86650000Y-77600000D02*
X82080000Y-77600000D01*
X80600000Y-62280000D02*
X82000000Y-62280000D01*
X79700000Y-63650000D02*
X79700000Y-63180000D01*
X80580000Y-52120000D02*
X79700000Y-53000000D01*
X80610000Y-67360000D02*
X79700000Y-66450000D01*
X80550000Y-57200000D02*
X82000000Y-57200000D01*
D47*
X104700000Y-47950000D02*
X105400000Y-47250000D01*
X105400000Y-47250000D02*
X106300000Y-47250000D01*
X104300000Y-61700000D02*
X103900000Y-62100000D01*
X105525000Y-61700000D02*
X104300000Y-61700000D01*
X103690000Y-47950000D02*
X104700000Y-47950000D01*
X103050000Y-66500000D02*
X102750000Y-66500000D01*
X105525000Y-67200000D02*
X104713632Y-67200000D01*
X104013632Y-66500000D02*
X103050000Y-66500000D01*
X104713632Y-67200000D02*
X104013632Y-66500000D01*
X102750000Y-66500000D02*
X102350000Y-66100000D01*
X101550000Y-67002409D02*
X101550000Y-66400000D01*
X102600000Y-68052409D02*
X101550000Y-67002409D01*
X102600000Y-69125000D02*
X102600000Y-68052409D01*
X99100000Y-71450000D02*
X99100000Y-69125000D01*
X98600000Y-71900000D02*
X98600000Y-69125000D01*
X99000000Y-72300000D02*
X98600000Y-71900000D01*
X98100000Y-72100000D02*
X98100000Y-69125000D01*
X98300000Y-72300000D02*
X98100000Y-72100000D01*
X100000000Y-71450000D02*
X99600000Y-71050000D01*
X99600000Y-71050000D02*
X99600000Y-69125000D01*
D53*
X115225000Y-75050000D02*
X115225000Y-73525000D01*
X115225000Y-73525000D02*
X115650000Y-73100000D01*
X114575000Y-75050000D02*
X114575000Y-73575000D01*
X114575000Y-73575000D02*
X114100000Y-73100000D01*
D47*
X93700000Y-53400000D02*
X88500000Y-53400000D01*
X96100000Y-55800000D02*
X93700000Y-53400000D01*
X96100000Y-57775000D02*
X96100000Y-55800000D01*
X96600000Y-57775000D02*
X96600000Y-55500000D01*
X92000000Y-50900000D02*
X88500000Y-50900000D01*
X96600000Y-55500000D02*
X92000000Y-50900000D01*
X94175000Y-62200000D02*
X90400000Y-62200000D01*
X90400000Y-62200000D02*
X89100000Y-63500000D01*
X89100000Y-63500000D02*
X88500000Y-63500000D01*
X91150000Y-61700000D02*
X90450000Y-61000000D01*
X90450000Y-61000000D02*
X88500000Y-61000000D01*
X94175000Y-61700000D02*
X91150000Y-61700000D01*
X90000000Y-69700000D02*
X88500000Y-71200000D01*
X90000000Y-64690000D02*
X90000000Y-69700000D01*
X90990000Y-63700000D02*
X90000000Y-64690000D01*
X94175000Y-63700000D02*
X90990000Y-63700000D01*
X91200000Y-64200000D02*
X90550000Y-64850000D01*
X90550000Y-71650000D02*
X88500000Y-73700000D01*
X90550000Y-64850000D02*
X90550000Y-71650000D01*
X94175000Y-64200000D02*
X91200000Y-64200000D01*
X100600000Y-69125000D02*
X100600000Y-68313632D01*
X100136368Y-67850000D02*
X99750000Y-67850000D01*
X100600000Y-68313632D02*
X100136368Y-67850000D01*
X104000000Y-63700000D02*
X103850000Y-63850000D01*
X105525000Y-63700000D02*
X104000000Y-63700000D01*
X95900000Y-71050000D02*
X95650000Y-70800000D01*
X97100000Y-71050000D02*
X97100000Y-72075000D01*
X97100000Y-69125000D02*
X97100000Y-71050000D01*
X97100000Y-71050000D02*
X95900000Y-71050000D01*
X105525000Y-61200000D02*
X108075000Y-61200000D01*
X108075000Y-61200000D02*
X108100000Y-61225000D01*
X108897200Y-60522200D02*
X106877800Y-60522200D01*
X105525000Y-60700000D02*
X106700000Y-60700000D01*
X109600000Y-61225000D02*
X108897200Y-60522200D01*
X106877800Y-60522200D02*
X106700000Y-60700000D01*
X94175000Y-59700000D02*
X91200000Y-59700000D01*
X88850000Y-56200000D02*
X88250000Y-55600000D01*
X91200000Y-59700000D02*
X88850000Y-57350000D01*
X88850000Y-57350000D02*
X88850000Y-56200000D01*
D54*
X102100000Y-69858588D02*
X102100000Y-69125000D01*
X102532200Y-71132200D02*
X102000000Y-70600000D01*
X113303974Y-71132200D02*
X102532200Y-71132200D01*
X113633974Y-70802200D02*
X113303974Y-71132200D01*
X115002200Y-70802200D02*
X113633974Y-70802200D01*
X102000000Y-70600000D02*
X102000000Y-69958588D01*
X115650000Y-71450000D02*
X115002200Y-70802200D01*
X102000000Y-69958588D02*
X102100000Y-69858588D01*
X114100000Y-71450000D02*
X102400563Y-71450000D01*
X101682200Y-70731637D02*
X101682200Y-69982200D01*
X101682200Y-69982200D02*
X101600000Y-69900000D01*
X102400563Y-71450000D02*
X101682200Y-70731637D01*
X101600000Y-69900000D02*
X101600000Y-69125000D01*
D47*
X91050000Y-73150000D02*
X88250000Y-75950000D01*
X91400000Y-64700000D02*
X91050000Y-65050000D01*
X94175000Y-64700000D02*
X91400000Y-64700000D01*
X91050000Y-65050000D02*
X91050000Y-73150000D01*
X90790000Y-63200000D02*
X89400000Y-64590000D01*
X89400000Y-67800000D02*
X88250000Y-68950000D01*
X94175000Y-63200000D02*
X90790000Y-63200000D01*
X89400000Y-64590000D02*
X89400000Y-67800000D01*
X88250000Y-65045000D02*
X88250000Y-65750000D01*
X94175000Y-62700000D02*
X90595000Y-62700000D01*
X90595000Y-62700000D02*
X88250000Y-65045000D01*
X88950000Y-58700000D02*
X88250000Y-58700000D01*
X91450000Y-61200000D02*
X88950000Y-58700000D01*
X94175000Y-61200000D02*
X91450000Y-61200000D01*
X97100000Y-55200000D02*
X91450000Y-49550000D01*
X89350000Y-48650000D02*
X88250000Y-48650000D01*
X97100000Y-57775000D02*
X97100000Y-55200000D01*
X91450000Y-49550000D02*
X90250000Y-49550000D01*
X90250000Y-49550000D02*
X89350000Y-48650000D01*
X113100000Y-49600000D02*
X113550000Y-49150000D01*
X108950000Y-49500000D02*
X109650000Y-49500000D01*
X109750000Y-49600000D02*
X113100000Y-49600000D01*
X109650000Y-49500000D02*
X109750000Y-49600000D01*
X113550000Y-49150000D02*
X113800000Y-49150000D01*
X110450000Y-61566608D02*
X106816608Y-65200000D01*
X110122200Y-58872200D02*
X110450000Y-59200000D01*
X106816608Y-65200000D02*
X105525000Y-65200000D01*
X106050000Y-57198910D02*
X107723290Y-58872200D01*
X107723290Y-58872200D02*
X110122200Y-58872200D01*
X110450000Y-59200000D02*
X110450000Y-61566608D01*
X106050000Y-56800000D02*
X106050000Y-57198910D01*
X99100000Y-61522591D02*
X98771000Y-61851591D01*
X98771000Y-63071000D02*
X98900000Y-63200000D01*
X99100000Y-57775000D02*
X99100000Y-61522591D01*
X98771000Y-61851591D02*
X98771000Y-63071000D01*
X102100000Y-56700000D02*
X102100000Y-57775000D01*
X102300000Y-56500000D02*
X102100000Y-56700000D01*
X107900490Y-58444400D02*
X106750000Y-57293910D01*
X110299400Y-58444400D02*
X108550000Y-58444400D01*
X106750000Y-57293910D02*
X106750000Y-56800000D01*
X105525000Y-65700000D02*
X106921608Y-65700000D01*
X110877800Y-61389408D02*
X110877800Y-59022800D01*
X110452500Y-58597500D02*
X110299400Y-58444400D01*
X110877800Y-59022800D02*
X110452500Y-58597500D01*
X108550000Y-58444400D02*
X107900490Y-58444400D01*
X110877800Y-61743808D02*
X110877800Y-61389408D01*
X106921608Y-65700000D02*
X110877800Y-61743808D01*
X108000000Y-63200000D02*
X105525000Y-63200000D01*
X97600000Y-68219232D02*
X97600000Y-69125000D01*
X97130768Y-67750000D02*
X97600000Y-68219232D01*
X94700000Y-69000000D02*
X95950000Y-67750000D01*
X95950000Y-67750000D02*
X97130768Y-67750000D01*
X99900000Y-63750000D02*
X97000000Y-66650000D01*
X99900000Y-60327409D02*
X99900000Y-63750000D01*
X99600000Y-60027409D02*
X99900000Y-60327409D01*
X99600000Y-57775000D02*
X99600000Y-60027409D01*
X107000000Y-64200000D02*
X105525000Y-64200000D01*
X101600000Y-57775000D02*
X101600000Y-55950000D01*
X93650000Y-70250000D02*
X96286368Y-70250000D01*
X96286368Y-70250000D02*
X96600000Y-69936368D01*
X96600000Y-69936368D02*
X96600000Y-69125000D01*
X98100000Y-58722591D02*
X98479000Y-59101591D01*
X106375000Y-72200000D02*
X106375000Y-74727200D01*
X93075000Y-66700000D02*
X92325000Y-65950000D01*
X103800000Y-60550000D02*
X103800000Y-61025000D01*
X103100000Y-69125000D02*
X103100000Y-67875000D01*
X98479000Y-60896000D02*
X97500000Y-61875000D01*
X107247801Y-74099999D02*
X106497800Y-74850000D01*
X101250000Y-73750000D02*
X101677800Y-73322200D01*
X107945600Y-74099999D02*
X107247801Y-74099999D01*
X106375000Y-74727200D02*
X106497800Y-74850000D01*
X101250000Y-74100000D02*
X102025000Y-74100000D01*
X101250000Y-74100000D02*
X101250000Y-73750000D01*
X100500000Y-74100000D02*
X101250000Y-74100000D01*
X101677800Y-73322200D02*
X105372200Y-73322200D01*
X92325000Y-65950000D02*
X92300000Y-65950000D01*
X98100000Y-57775000D02*
X98100000Y-58722591D01*
X95950000Y-60750000D02*
X95950000Y-61875000D01*
X94175000Y-60200000D02*
X95400000Y-60200000D01*
X95400000Y-60200000D02*
X95950000Y-60750000D01*
X105372200Y-73322200D02*
X106050000Y-74000000D01*
X102250000Y-54500000D02*
X102300000Y-54450000D01*
X104150000Y-60200000D02*
X103800000Y-60550000D01*
X105525000Y-60200000D02*
X104150000Y-60200000D01*
X98479000Y-59101591D02*
X98479000Y-60896000D01*
X92300000Y-65950000D02*
X92300000Y-65925000D01*
X94175000Y-66700000D02*
X93075000Y-66700000D01*
X103100000Y-67875000D02*
X102325000Y-67100000D01*
X92300000Y-65925000D02*
X92300000Y-65925000D01*
X101600000Y-54500000D02*
X102250000Y-54500000D01*
D51*
X105050000Y-76900000D02*
X104825000Y-77125000D01*
X110600000Y-74625000D02*
X110600000Y-72400000D01*
X103050000Y-78900000D02*
X104825000Y-77125000D01*
X105203000Y-76747000D02*
X108458600Y-76747000D01*
X96460000Y-77560000D02*
X97800000Y-78900000D01*
X109500000Y-75725000D02*
X110600000Y-74625000D01*
D48*
X96500000Y-76715000D02*
X96460000Y-76755000D01*
D51*
X96460000Y-76755000D02*
X96460000Y-77560000D01*
X109500000Y-75725000D02*
X109480600Y-75725000D01*
X104825000Y-77125000D02*
X105203000Y-76747000D01*
X109480600Y-75725000D02*
X108458600Y-76747000D01*
D47*
X105050000Y-75600001D02*
X105050000Y-76900000D01*
D51*
X97800000Y-78900000D02*
X103050000Y-78900000D01*
G04 #@! TA.AperFunction,Conductor*
G36*
X98511415Y-73918306D02*
G01*
X98945783Y-74097264D01*
X98952127Y-74103584D01*
X98952411Y-74104338D01*
X99106995Y-74561972D01*
X99106396Y-74570906D01*
X99099654Y-74576801D01*
X99097831Y-74577257D01*
X98954336Y-74601137D01*
X98954323Y-74601140D01*
X98797266Y-74646779D01*
X98797264Y-74646780D01*
X98640222Y-74711911D01*
X98640200Y-74711921D01*
X98483131Y-74796564D01*
X98334050Y-74895411D01*
X98325262Y-74897127D01*
X98319312Y-74893933D01*
X98155612Y-74730233D01*
X98152185Y-74721960D01*
X98153719Y-74716169D01*
X98219440Y-74600858D01*
X98289580Y-74458294D01*
X98359720Y-74296231D01*
X98429860Y-74114667D01*
X98495928Y-73925275D01*
X98501887Y-73918595D01*
X98510828Y-73918084D01*
X98511415Y-73918306D01*
G37*
G04 #@! TD.AperFunction*
G04 #@! TA.AperFunction,Conductor*
G36*
X129095790Y-64303427D02*
G01*
X129097437Y-64305496D01*
X129225204Y-64509791D01*
X129356400Y-64689676D01*
X129487599Y-64839676D01*
X129487602Y-64839679D01*
X129487605Y-64839682D01*
X129531757Y-64880101D01*
X129618798Y-64959783D01*
X129738418Y-65042036D01*
X129743294Y-65049548D01*
X129741430Y-65058306D01*
X129740068Y-65059945D01*
X129008279Y-65792709D01*
X129000008Y-65796141D01*
X128991732Y-65792720D01*
X128991721Y-65792709D01*
X128582712Y-65383156D01*
X128259930Y-65059943D01*
X128256510Y-65051669D01*
X128259942Y-65043398D01*
X128261576Y-65042039D01*
X128381200Y-64959784D01*
X128512400Y-64839676D01*
X128643599Y-64689676D01*
X128774799Y-64509784D01*
X128902563Y-64305496D01*
X128909856Y-64300299D01*
X128912483Y-64300000D01*
X129087517Y-64300000D01*
X129095790Y-64303427D01*
G37*
G04 #@! TD.AperFunction*
M02*
