M48
; DRILL file {KiCad 8.0.1} date 2024-06-08T15:54:48-0400
; FORMAT={-:-/ absolute / metric / decimal}
; #@! TF.CreationDate,2024-06-08T15:54:48-04:00
; #@! TF.GenerationSoftware,Kicad,Pcbnew,8.0.1
; #@! TF.FileFunction,Plated,1,8,PTH
FMAT,2
METRIC
; #@! TA.AperFunction,Plated,PTH,ViaDrill
T1C0.200
; #@! TA.AperFunction,Plated,PTH,ViaDrill
T2C0.400
; #@! TA.AperFunction,Plated,PTH,ComponentDrill
T3C0.450
; #@! TA.AperFunction,Plated,PTH,ViaDrill
T4C0.500
; #@! TA.AperFunction,Plated,PTH,ComponentDrill
T5C1.000
; #@! TA.AperFunction,Plated,PTH,ComponentDrill
T6C1.100
; #@! TA.AperFunction,Plated,PTH,ComponentDrill
T7C2.200
%
G90
G05
T1
X84.4Y-47.85
X84.45Y-56.4
X84.45Y-57.95
X84.45Y-66.5
X84.45Y-68.15
X84.45Y-76.7
X87.45Y-51.0
X87.45Y-53.2
X87.45Y-61.15
X87.45Y-63.3
X87.45Y-71.4
X87.45Y-73.5
X87.6Y-47.8
X87.6Y-56.45
X87.6Y-57.95
X87.65Y-66.5
X87.65Y-68.1
X87.8Y-76.8
X88.25Y-48.65
X88.25Y-55.6
X88.25Y-58.7
X88.25Y-65.75
X88.25Y-68.95
X88.25Y-75.95
X88.5Y-50.9
X88.5Y-53.4
X88.5Y-61.0
X88.5Y-63.5
X88.5Y-71.2
X88.5Y-73.7
X92.3Y-65.95
X92.3Y-67.5
X92.3Y-70.6
X92.3Y-72.1
X93.65Y-70.25
X93.85Y-71.45
X94.7Y-69.0
X94.9Y-51.65
X95.5Y-72.1
X95.65Y-70.8
X95.95Y-61.875
X95.95Y-63.425
X96.8Y-49.9
X96.85Y-52.7
X97.0Y-66.65
X97.15Y-53.75
X97.15Y-59.7
X97.15Y-60.45
X97.5Y-61.875
X97.5Y-63.425
X97.75Y-55.55
X97.95Y-50.6
X97.95Y-52.0
X98.0Y-59.3
X98.3Y-55.55
X98.3Y-72.3
X98.85Y-55.55
X98.85Y-67.35
X98.9Y-63.2
X99.0Y-72.3
X99.05Y-52.55
X99.1Y-71.45
X99.25Y-62.05
X99.75Y-67.85
X99.95Y-54.55
X100.0Y-71.45
X100.05Y-51.5
X100.05Y-52.5
X100.2Y-59.0
X100.2Y-59.95
X100.8Y-62.05
X101.45Y-52.45
X101.45Y-53.7
X101.55Y-66.4
X102.25Y-59.475
X102.25Y-61.025
X102.3Y-54.45
X102.3Y-56.5
X102.325Y-67.1
X102.35Y-66.1
X102.85Y-53.8
X103.05Y-52.45
X103.25Y-55.85
X103.8Y-59.475
X103.8Y-61.025
X103.85Y-63.85
X103.85Y-65.5
X103.875Y-67.1
X103.9Y-62.1
X104.65Y-56.2
X106.05Y-48.65
X106.05Y-56.8
X106.05Y-74.0
X106.05Y-74.8
X106.05Y-75.6
X106.75Y-56.8
X106.95Y-74.0
X106.95Y-74.8
X106.95Y-75.6
X107.0Y-64.2
X107.75Y-50.5
X107.95Y-69.8
X107.95Y-75.1
X107.95Y-76.05
X108.0Y-63.2
X108.1Y-59.6
X108.1Y-61.225
X108.4Y-50.0
X108.95Y-49.5
X108.95Y-50.5
X109.4Y-48.55
X109.5Y-74.2
X109.6Y-59.55
X109.6Y-61.25
X109.924Y-49.052
X110.428Y-48.536
X110.929Y-49.079
X111.427Y-48.545
X111.943Y-49.094
X112.2Y-67.65
X113.0Y-55.35
X113.45Y-68.25
X113.537Y-49.912
X113.8Y-49.15
X114.237Y-49.912
X114.33Y-51.512
X114.937Y-49.912
X114.95Y-68.75
X114.95Y-69.65
X115.5Y-70.15
X115.587Y-51.012
X115.587Y-51.612
X115.6Y-68.75
X115.637Y-49.662
X115.68Y-52.862
X116.237Y-49.912
X116.28Y-53.562
X116.55Y-74.7
X116.58Y-52.912
X116.75Y-52.012
X116.887Y-51.062
X116.937Y-49.912
X118.05Y-54.3
X119.55Y-55.2
X119.625Y-72.65
X120.55Y-62.5
X120.55Y-63.65
X120.6Y-61.45
X121.15Y-48.6
X121.15Y-55.2
X121.35Y-69.05
X122.125Y-72.65
X122.65Y-54.3
X127.15Y-68.45
X127.65Y-63.15
X128.957Y-68.0
X129.35Y-62.533
T2
X111.5Y-74.1
T4
X93.45Y-76.35
X94.5Y-75.4
X97.8Y-75.35
X108.15Y-47.15
X108.15Y-57.7
X110.1Y-47.15
X110.1Y-57.7
X112.05Y-47.15
X112.15Y-57.75
X114.0Y-47.15
X114.0Y-56.8
X115.95Y-47.15
X115.95Y-56.8
X116.3Y-59.1
X116.3Y-60.9
X116.3Y-62.85
X116.3Y-64.8
X116.3Y-66.75
X116.75Y-69.0
X116.948Y-70.993
X117.892Y-72.83
X117.9Y-47.15
X117.9Y-56.8
X118.05Y-59.1
X118.5Y-61.3
X118.55Y-65.8
X119.0Y-70.2
X119.5Y-74.05
X119.85Y-47.15
X119.85Y-56.8
X119.9Y-59.1
X121.5Y-74.05
X121.8Y-47.15
X121.8Y-56.8
X121.85Y-59.1
X123.1Y-61.3
X123.1Y-65.8
X123.15Y-70.3
X123.25Y-72.5
X123.75Y-47.15
X123.8Y-59.1
X124.0Y-54.35
X125.7Y-47.15
X127.65Y-47.15
X127.65Y-61.35
X127.65Y-70.35
X127.75Y-54.35
X127.95Y-59.1
X128.7Y-72.4
X129.15Y-47.95
X129.45Y-49.7
X129.45Y-51.65
X129.45Y-53.6
X129.55Y-59.1
T5
X90.99Y-47.95
X93.53Y-47.95
X96.07Y-47.95
X98.61Y-47.95
X101.15Y-47.95
X103.69Y-47.95
X106.185Y-78.65
X108.725Y-78.65
X109.75Y-65.9
X113.75Y-65.9
X121.33Y-79.15
X123.87Y-79.15
X126.41Y-79.15
X128.95Y-79.15
T6
X82.0Y-49.58
X82.0Y-52.12
X82.0Y-54.66
X82.0Y-57.2
X82.0Y-59.74
X82.0Y-62.28
X82.0Y-64.82
X82.0Y-67.36
X82.0Y-69.9
X82.0Y-72.44
X82.0Y-74.98
X82.0Y-77.52
X96.46Y-76.755
X99.0Y-76.755
X101.54Y-76.755
T7
X92.35Y-56.6
X126.0Y-57.05
X126.05Y-74.4
T3
X111.65Y-78.1G85X111.65Y-77.3
G05
X118.8Y-77.3G85X118.8Y-78.1
G05
M30
