G04 #@! TF.GenerationSoftware,KiCad,Pcbnew,8.0.1*
G04 #@! TF.CreationDate,2024-06-08T15:54:11-04:00*
G04 #@! TF.ProjectId,SAP Mk3.2,53415020-4d6b-4332-9e32-2e6b69636164,rev?*
G04 #@! TF.SameCoordinates,Original*
G04 #@! TF.FileFunction,Paste,Top*
G04 #@! TF.FilePolarity,Positive*
%FSLAX46Y46*%
G04 Gerber Fmt 4.6, Leading zero omitted, Abs format (unit mm)*
G04 Created by KiCad (PCBNEW 8.0.1) date 2024-06-08 15:54:11*
%MOMM*%
%LPD*%
G01*
G04 APERTURE LIST*
G04 Aperture macros list*
%AMRoundRect*
0 Rectangle with rounded corners*
0 $1 Rounding radius*
0 $2 $3 $4 $5 $6 $7 $8 $9 X,Y pos of 4 corners*
0 Add a 4 corners polygon primitive as box body*
4,1,4,$2,$3,$4,$5,$6,$7,$8,$9,$2,$3,0*
0 Add four circle primitives for the rounded corners*
1,1,$1+$1,$2,$3*
1,1,$1+$1,$4,$5*
1,1,$1+$1,$6,$7*
1,1,$1+$1,$8,$9*
0 Add four rect primitives between the rounded corners*
20,1,$1+$1,$2,$3,$4,$5,0*
20,1,$1+$1,$4,$5,$6,$7,0*
20,1,$1+$1,$6,$7,$8,$9,0*
20,1,$1+$1,$8,$9,$2,$3,0*%
G04 Aperture macros list end*
%ADD10RoundRect,0.125000X-0.125000X-0.125000X0.125000X-0.125000X0.125000X0.125000X-0.125000X0.125000X0*%
%ADD11RoundRect,0.200000X0.200000X0.275000X-0.200000X0.275000X-0.200000X-0.275000X0.200000X-0.275000X0*%
%ADD12RoundRect,0.225000X-0.250000X0.225000X-0.250000X-0.225000X0.250000X-0.225000X0.250000X0.225000X0*%
%ADD13RoundRect,0.200000X-0.275000X0.200000X-0.275000X-0.200000X0.275000X-0.200000X0.275000X0.200000X0*%
%ADD14RoundRect,0.225000X-0.225000X-0.250000X0.225000X-0.250000X0.225000X0.250000X-0.225000X0.250000X0*%
%ADD15RoundRect,0.075000X-0.075000X0.700000X-0.075000X-0.700000X0.075000X-0.700000X0.075000X0.700000X0*%
%ADD16RoundRect,0.075000X-0.700000X0.075000X-0.700000X-0.075000X0.700000X-0.075000X0.700000X0.075000X0*%
%ADD17R,0.400000X1.400000*%
%ADD18R,1.150000X1.450000*%
%ADD19R,1.750000X1.900000*%
%ADD20RoundRect,0.225000X0.250000X-0.225000X0.250000X0.225000X-0.250000X0.225000X-0.250000X-0.225000X0*%
%ADD21R,0.812800X0.254000*%
%ADD22R,1.701800X2.438400*%
%ADD23RoundRect,0.250000X-0.362500X-1.425000X0.362500X-1.425000X0.362500X1.425000X-0.362500X1.425000X0*%
%ADD24RoundRect,0.218750X-0.218750X-0.256250X0.218750X-0.256250X0.218750X0.256250X-0.218750X0.256250X0*%
%ADD25RoundRect,0.200000X0.275000X-0.200000X0.275000X0.200000X-0.275000X0.200000X-0.275000X-0.200000X0*%
%ADD26RoundRect,0.225000X0.225000X0.250000X-0.225000X0.250000X-0.225000X-0.250000X0.225000X-0.250000X0*%
%ADD27RoundRect,0.200000X-0.250000X0.200000X-0.250000X-0.200000X0.250000X-0.200000X0.250000X0.200000X0*%
%ADD28RoundRect,0.218750X0.256250X-0.218750X0.256250X0.218750X-0.256250X0.218750X-0.256250X-0.218750X0*%
%ADD29R,1.050000X0.650000*%
%ADD30R,2.300000X2.300000*%
%ADD31R,1.500000X1.500000*%
G04 APERTURE END LIST*
D10*
X110600000Y-72400000D03*
X112800000Y-72400000D03*
D11*
X97125000Y-72100000D03*
X95475000Y-72100000D03*
D12*
X109500000Y-74175000D03*
X109500000Y-75725000D03*
D13*
X106300000Y-47250000D03*
X106300000Y-48900000D03*
D14*
X102025000Y-74100000D03*
X103575000Y-74100000D03*
D15*
X103600000Y-57775000D03*
X103100000Y-57775000D03*
X102600000Y-57775000D03*
X102100000Y-57775000D03*
X101600000Y-57775000D03*
X101100000Y-57775000D03*
X100600000Y-57775000D03*
X100100000Y-57775000D03*
X99600000Y-57775000D03*
X99100000Y-57775000D03*
X98600000Y-57775000D03*
X98100000Y-57775000D03*
X97600000Y-57775000D03*
X97100000Y-57775000D03*
X96600000Y-57775000D03*
X96100000Y-57775000D03*
D16*
X94175000Y-59700000D03*
X94175000Y-60200000D03*
X94175000Y-60700000D03*
X94175000Y-61200000D03*
X94175000Y-61700000D03*
X94175000Y-62200000D03*
X94175000Y-62700000D03*
X94175000Y-63200000D03*
X94175000Y-63700000D03*
X94175000Y-64200000D03*
X94175000Y-64700000D03*
X94175000Y-65200000D03*
X94175000Y-65700000D03*
X94175000Y-66200000D03*
X94175000Y-66700000D03*
X94175000Y-67200000D03*
D15*
X96100000Y-69125000D03*
X96600000Y-69125000D03*
X97100000Y-69125000D03*
X97600000Y-69125000D03*
X98100000Y-69125000D03*
X98600000Y-69125000D03*
X99100000Y-69125000D03*
X99600000Y-69125000D03*
X100100000Y-69125000D03*
X100600000Y-69125000D03*
X101100000Y-69125000D03*
X101600000Y-69125000D03*
X102100000Y-69125000D03*
X102600000Y-69125000D03*
X103100000Y-69125000D03*
X103600000Y-69125000D03*
D16*
X105525000Y-67200000D03*
X105525000Y-66700000D03*
X105525000Y-66200000D03*
X105525000Y-65700000D03*
X105525000Y-65200000D03*
X105525000Y-64700000D03*
X105525000Y-64200000D03*
X105525000Y-63700000D03*
X105525000Y-63200000D03*
X105525000Y-62700000D03*
X105525000Y-62200000D03*
X105525000Y-61700000D03*
X105525000Y-61200000D03*
X105525000Y-60700000D03*
X105525000Y-60200000D03*
X105525000Y-59700000D03*
D17*
X113925000Y-75050000D03*
X114575000Y-75050000D03*
X115225000Y-75050000D03*
X115875000Y-75050000D03*
X116525000Y-75050000D03*
D18*
X112905000Y-75470000D03*
D19*
X114100000Y-77700000D03*
X116350000Y-77700000D03*
D18*
X117545000Y-75470000D03*
D20*
X92300000Y-67475000D03*
X92300000Y-65925000D03*
D12*
X92300000Y-69025000D03*
X92300000Y-70575000D03*
D21*
X107945600Y-75600001D03*
X107945600Y-75100000D03*
X107945600Y-74600000D03*
X107945600Y-74099999D03*
X105050000Y-74099999D03*
X105050000Y-74600000D03*
X105050000Y-75100000D03*
X105050000Y-75600001D03*
D22*
X106497800Y-74850000D03*
D23*
X86650000Y-77600000D03*
X92575000Y-77600000D03*
D24*
X119650000Y-72650000D03*
X121225000Y-72650000D03*
D25*
X108100000Y-61225000D03*
X108100000Y-59575000D03*
D26*
X100100000Y-55850000D03*
X98550000Y-55850000D03*
D27*
X103450000Y-54500000D03*
X101600000Y-54500000D03*
X101600000Y-55950000D03*
X103450000Y-55950000D03*
D14*
X106375000Y-72200000D03*
X107925000Y-72200000D03*
D13*
X93850000Y-71475000D03*
X93850000Y-73125000D03*
D12*
X97900000Y-50875000D03*
X97900000Y-52425000D03*
D28*
X92300000Y-73637500D03*
X92300000Y-72062500D03*
D29*
X104225000Y-52900000D03*
X100075000Y-52900000D03*
X104225000Y-50750000D03*
X100075000Y-50750000D03*
D25*
X114100000Y-73100000D03*
X114100000Y-71450000D03*
D14*
X98950000Y-74100000D03*
X100500000Y-74100000D03*
D25*
X115650000Y-73100000D03*
X115650000Y-71450000D03*
D30*
X118600000Y-70300000D03*
X123100000Y-70300000D03*
X127600000Y-70300000D03*
X118600000Y-65800000D03*
X123100000Y-65800000D03*
X118600000Y-61300000D03*
X123100000Y-61300000D03*
X127600000Y-61300000D03*
D31*
X129000000Y-65800000D03*
D25*
X109600000Y-61225000D03*
X109600000Y-59575000D03*
M02*
