G04 #@! TF.GenerationSoftware,KiCad,Pcbnew,8.0.1*
G04 #@! TF.CreationDate,2024-06-08T15:54:11-04:00*
G04 #@! TF.ProjectId,SAP Mk3.2,53415020-4d6b-4332-9e32-2e6b69636164,rev?*
G04 #@! TF.SameCoordinates,Original*
G04 #@! TF.FileFunction,Soldermask,Top*
G04 #@! TF.FilePolarity,Negative*
%FSLAX46Y46*%
G04 Gerber Fmt 4.6, Leading zero omitted, Abs format (unit mm)*
G04 Created by KiCad (PCBNEW 8.0.1) date 2024-06-08 15:54:11*
%MOMM*%
%LPD*%
G01*
G04 APERTURE LIST*
G04 APERTURE END LIST*
G36*
X129814542Y-78264893D02*
G01*
X129826870Y-78273130D01*
X129835107Y-78285458D01*
X129838000Y-78300000D01*
X129838000Y-80000000D01*
X129835107Y-80014542D01*
X129826870Y-80026870D01*
X129814542Y-80035107D01*
X129800000Y-80038000D01*
X128100000Y-80038000D01*
X128085458Y-80035107D01*
X128073130Y-80026870D01*
X128064893Y-80014542D01*
X128062000Y-80000000D01*
X128062000Y-78300000D01*
X128064893Y-78285458D01*
X128073130Y-78273130D01*
X128085458Y-78264893D01*
X128100000Y-78262000D01*
X129800000Y-78262000D01*
X129814542Y-78264893D01*
G37*
G36*
X121604407Y-78305462D02*
G01*
X121774000Y-78380969D01*
X121924188Y-78490087D01*
X122048407Y-78628047D01*
X122141228Y-78788818D01*
X122198595Y-78965374D01*
X122218000Y-79150000D01*
X122198595Y-79334626D01*
X122141228Y-79511182D01*
X122048407Y-79671953D01*
X121924188Y-79809913D01*
X121774000Y-79919031D01*
X121604407Y-79994538D01*
X121422821Y-80033135D01*
X121237179Y-80033135D01*
X121055593Y-79994538D01*
X120886000Y-79919031D01*
X120735812Y-79809913D01*
X120611593Y-79671953D01*
X120518772Y-79511182D01*
X120461405Y-79334626D01*
X120442000Y-79150000D01*
X120461405Y-78965374D01*
X120518772Y-78788818D01*
X120611593Y-78628047D01*
X120735812Y-78490087D01*
X120886000Y-78380969D01*
X121055593Y-78305462D01*
X121237179Y-78266865D01*
X121422821Y-78266865D01*
X121604407Y-78305462D01*
G37*
G36*
X124144407Y-78305462D02*
G01*
X124314000Y-78380969D01*
X124464188Y-78490087D01*
X124588407Y-78628047D01*
X124681228Y-78788818D01*
X124738595Y-78965374D01*
X124758000Y-79150000D01*
X124738595Y-79334626D01*
X124681228Y-79511182D01*
X124588407Y-79671953D01*
X124464188Y-79809913D01*
X124314000Y-79919031D01*
X124144407Y-79994538D01*
X123962821Y-80033135D01*
X123777179Y-80033135D01*
X123595593Y-79994538D01*
X123426000Y-79919031D01*
X123275812Y-79809913D01*
X123151593Y-79671953D01*
X123058772Y-79511182D01*
X123001405Y-79334626D01*
X122982000Y-79150000D01*
X123001405Y-78965374D01*
X123058772Y-78788818D01*
X123151593Y-78628047D01*
X123275812Y-78490087D01*
X123426000Y-78380969D01*
X123595593Y-78305462D01*
X123777179Y-78266865D01*
X123962821Y-78266865D01*
X124144407Y-78305462D01*
G37*
G36*
X126684407Y-78305462D02*
G01*
X126854000Y-78380969D01*
X127004188Y-78490087D01*
X127128407Y-78628047D01*
X127221228Y-78788818D01*
X127278595Y-78965374D01*
X127298000Y-79150000D01*
X127278595Y-79334626D01*
X127221228Y-79511182D01*
X127128407Y-79671953D01*
X127004188Y-79809913D01*
X126854000Y-79919031D01*
X126684407Y-79994538D01*
X126502821Y-80033135D01*
X126317179Y-80033135D01*
X126135593Y-79994538D01*
X125966000Y-79919031D01*
X125815812Y-79809913D01*
X125691593Y-79671953D01*
X125598772Y-79511182D01*
X125541405Y-79334626D01*
X125522000Y-79150000D01*
X125541405Y-78965374D01*
X125598772Y-78788818D01*
X125691593Y-78628047D01*
X125815812Y-78490087D01*
X125966000Y-78380969D01*
X126135593Y-78305462D01*
X126317179Y-78266865D01*
X126502821Y-78266865D01*
X126684407Y-78305462D01*
G37*
G36*
X109589542Y-77764893D02*
G01*
X109601870Y-77773130D01*
X109610107Y-77785458D01*
X109613000Y-77800000D01*
X109613000Y-79500000D01*
X109610107Y-79514542D01*
X109601870Y-79526870D01*
X109589542Y-79535107D01*
X109575000Y-79538000D01*
X107875000Y-79538000D01*
X107860458Y-79535107D01*
X107848130Y-79526870D01*
X107839893Y-79514542D01*
X107837000Y-79500000D01*
X107837000Y-77800000D01*
X107839893Y-77785458D01*
X107848130Y-77773130D01*
X107860458Y-77764893D01*
X107875000Y-77762000D01*
X109575000Y-77762000D01*
X109589542Y-77764893D01*
G37*
G36*
X106459407Y-77805462D02*
G01*
X106629000Y-77880969D01*
X106779188Y-77990087D01*
X106903407Y-78128047D01*
X106996228Y-78288818D01*
X107053595Y-78465374D01*
X107073000Y-78650000D01*
X107053595Y-78834626D01*
X106996228Y-79011182D01*
X106903407Y-79171953D01*
X106779188Y-79309913D01*
X106629000Y-79419031D01*
X106459407Y-79494538D01*
X106277821Y-79533135D01*
X106092179Y-79533135D01*
X105910593Y-79494538D01*
X105741000Y-79419031D01*
X105590812Y-79309913D01*
X105466593Y-79171953D01*
X105373772Y-79011182D01*
X105316405Y-78834626D01*
X105297000Y-78650000D01*
X105316405Y-78465374D01*
X105373772Y-78288818D01*
X105466593Y-78128047D01*
X105590812Y-77990087D01*
X105741000Y-77880969D01*
X105910593Y-77805462D01*
X106092179Y-77766865D01*
X106277821Y-77766865D01*
X106459407Y-77805462D01*
G37*
G36*
X87078438Y-75894650D02*
G01*
X87083153Y-75896732D01*
X87085826Y-75897084D01*
X87119270Y-75912679D01*
X87175259Y-75937401D01*
X87250099Y-76012241D01*
X87274830Y-76068251D01*
X87290415Y-76101673D01*
X87290766Y-76104343D01*
X87292850Y-76109062D01*
X87300500Y-76175000D01*
X87300500Y-79025000D01*
X87292850Y-79090938D01*
X87290766Y-79095656D01*
X87290415Y-79098326D01*
X87274838Y-79131730D01*
X87250099Y-79187759D01*
X87175259Y-79262599D01*
X87119230Y-79287338D01*
X87085826Y-79302915D01*
X87083156Y-79303266D01*
X87078438Y-79305350D01*
X87012500Y-79313000D01*
X86287500Y-79313000D01*
X86221562Y-79305350D01*
X86216843Y-79303266D01*
X86214173Y-79302915D01*
X86180751Y-79287330D01*
X86124741Y-79262599D01*
X86049901Y-79187759D01*
X86025179Y-79131770D01*
X86009584Y-79098326D01*
X86009232Y-79095653D01*
X86007150Y-79090938D01*
X85999500Y-79025000D01*
X85999500Y-76175000D01*
X86007150Y-76109062D01*
X86009232Y-76104346D01*
X86009584Y-76101673D01*
X86025187Y-76068210D01*
X86049901Y-76012241D01*
X86124741Y-75937401D01*
X86180710Y-75912687D01*
X86214173Y-75897084D01*
X86216846Y-75896732D01*
X86221562Y-75894650D01*
X86287500Y-75887000D01*
X87012500Y-75887000D01*
X87078438Y-75894650D01*
G37*
G36*
X93003438Y-75894650D02*
G01*
X93008153Y-75896732D01*
X93010826Y-75897084D01*
X93044270Y-75912679D01*
X93100259Y-75937401D01*
X93175099Y-76012241D01*
X93199830Y-76068251D01*
X93215415Y-76101673D01*
X93215766Y-76104343D01*
X93217850Y-76109062D01*
X93225500Y-76175000D01*
X93225500Y-79025000D01*
X93217850Y-79090938D01*
X93215766Y-79095656D01*
X93215415Y-79098326D01*
X93199838Y-79131730D01*
X93175099Y-79187759D01*
X93100259Y-79262599D01*
X93044230Y-79287338D01*
X93010826Y-79302915D01*
X93008156Y-79303266D01*
X93003438Y-79305350D01*
X92937500Y-79313000D01*
X92212500Y-79313000D01*
X92146562Y-79305350D01*
X92141843Y-79303266D01*
X92139173Y-79302915D01*
X92105751Y-79287330D01*
X92049741Y-79262599D01*
X91974901Y-79187759D01*
X91950179Y-79131770D01*
X91934584Y-79098326D01*
X91934232Y-79095653D01*
X91932150Y-79090938D01*
X91924500Y-79025000D01*
X91924500Y-76175000D01*
X91932150Y-76109062D01*
X91934232Y-76104346D01*
X91934584Y-76101673D01*
X91950187Y-76068210D01*
X91974901Y-76012241D01*
X92049741Y-75937401D01*
X92105710Y-75912687D01*
X92139173Y-75897084D01*
X92141846Y-75896732D01*
X92146562Y-75894650D01*
X92212500Y-75887000D01*
X92937500Y-75887000D01*
X93003438Y-75894650D01*
G37*
G36*
X114989542Y-76714893D02*
G01*
X115001870Y-76723130D01*
X115010107Y-76735458D01*
X115013000Y-76750000D01*
X115013000Y-78650000D01*
X115010107Y-78664542D01*
X115001870Y-78676870D01*
X114989542Y-78685107D01*
X114975000Y-78688000D01*
X113225000Y-78688000D01*
X113210458Y-78685107D01*
X113198130Y-78676870D01*
X113189893Y-78664542D01*
X113187000Y-78650000D01*
X113187000Y-76750000D01*
X113189893Y-76735458D01*
X113198130Y-76723130D01*
X113210458Y-76714893D01*
X113225000Y-76712000D01*
X114975000Y-76712000D01*
X114989542Y-76714893D01*
G37*
G36*
X117239542Y-76714893D02*
G01*
X117251870Y-76723130D01*
X117260107Y-76735458D01*
X117263000Y-76750000D01*
X117263000Y-78650000D01*
X117260107Y-78664542D01*
X117251870Y-78676870D01*
X117239542Y-78685107D01*
X117225000Y-78688000D01*
X115475000Y-78688000D01*
X115460458Y-78685107D01*
X115448130Y-78676870D01*
X115439893Y-78664542D01*
X115437000Y-78650000D01*
X115437000Y-76750000D01*
X115439893Y-76735458D01*
X115448130Y-76723130D01*
X115460458Y-76714893D01*
X115475000Y-76712000D01*
X117225000Y-76712000D01*
X117239542Y-76714893D01*
G37*
G36*
X111714537Y-76716817D02*
G01*
X111723486Y-76716817D01*
X111749270Y-76723725D01*
X111813360Y-76736474D01*
X111843611Y-76749004D01*
X111865451Y-76754856D01*
X111885029Y-76766159D01*
X111915279Y-76778689D01*
X111969607Y-76814990D01*
X111992733Y-76828342D01*
X111999063Y-76834672D01*
X112007008Y-76839981D01*
X112085018Y-76917991D01*
X112090326Y-76925935D01*
X112096658Y-76932267D01*
X112110011Y-76955395D01*
X112146310Y-77009720D01*
X112158838Y-77039966D01*
X112170144Y-77059549D01*
X112175996Y-77081392D01*
X112188525Y-77111639D01*
X112201271Y-77175720D01*
X112208183Y-77201514D01*
X112208230Y-77210706D01*
X112210063Y-77219917D01*
X112212995Y-78123853D01*
X112212994Y-78123871D01*
X112213000Y-78125000D01*
X112212755Y-78128736D01*
X112210288Y-78178950D01*
X112209058Y-78185131D01*
X112208183Y-78198486D01*
X112201270Y-78224284D01*
X112188525Y-78288360D01*
X112175997Y-78318604D01*
X112170144Y-78340451D01*
X112158836Y-78360035D01*
X112146310Y-78390279D01*
X112110015Y-78444596D01*
X112096658Y-78467733D01*
X112090324Y-78474066D01*
X112085018Y-78482008D01*
X112007008Y-78560018D01*
X111999066Y-78565324D01*
X111992733Y-78571658D01*
X111969596Y-78585015D01*
X111915279Y-78621310D01*
X111885035Y-78633836D01*
X111865451Y-78645144D01*
X111843604Y-78650997D01*
X111813360Y-78663525D01*
X111749276Y-78676272D01*
X111723486Y-78683183D01*
X111714537Y-78683183D01*
X111705161Y-78685048D01*
X111594839Y-78685048D01*
X111585463Y-78683183D01*
X111576514Y-78683183D01*
X111550724Y-78676272D01*
X111486639Y-78663525D01*
X111456392Y-78650996D01*
X111434549Y-78645144D01*
X111414966Y-78633838D01*
X111384720Y-78621310D01*
X111330395Y-78585011D01*
X111307267Y-78571658D01*
X111300935Y-78565326D01*
X111292991Y-78560018D01*
X111214981Y-78482008D01*
X111209672Y-78474063D01*
X111203342Y-78467733D01*
X111189990Y-78444607D01*
X111153689Y-78390279D01*
X111141159Y-78360029D01*
X111129856Y-78340451D01*
X111124004Y-78318611D01*
X111111474Y-78288360D01*
X111098725Y-78224268D01*
X111091817Y-78198486D01*
X111091769Y-78189297D01*
X111089936Y-78180082D01*
X111087004Y-77276146D01*
X111087005Y-77276109D01*
X111087000Y-77275000D01*
X111087240Y-77271326D01*
X111089711Y-77221049D01*
X111090942Y-77214859D01*
X111091817Y-77201514D01*
X111098724Y-77175733D01*
X111111474Y-77111639D01*
X111124004Y-77081385D01*
X111129856Y-77059549D01*
X111141158Y-77039973D01*
X111153689Y-77009720D01*
X111189994Y-76955384D01*
X111203342Y-76932267D01*
X111209670Y-76925938D01*
X111214981Y-76917991D01*
X111292991Y-76839981D01*
X111300938Y-76834670D01*
X111307267Y-76828342D01*
X111330384Y-76814994D01*
X111384720Y-76778689D01*
X111414973Y-76766158D01*
X111434549Y-76754856D01*
X111456385Y-76749004D01*
X111486639Y-76736474D01*
X111550730Y-76723725D01*
X111576514Y-76716817D01*
X111585463Y-76716817D01*
X111594839Y-76714952D01*
X111705161Y-76714952D01*
X111714537Y-76716817D01*
G37*
G36*
X118864537Y-76716817D02*
G01*
X118873486Y-76716817D01*
X118899270Y-76723725D01*
X118963360Y-76736474D01*
X118993611Y-76749004D01*
X119015451Y-76754856D01*
X119035029Y-76766159D01*
X119065279Y-76778689D01*
X119119607Y-76814990D01*
X119142733Y-76828342D01*
X119149063Y-76834672D01*
X119157008Y-76839981D01*
X119235018Y-76917991D01*
X119240326Y-76925935D01*
X119246658Y-76932267D01*
X119260011Y-76955395D01*
X119296310Y-77009720D01*
X119308838Y-77039966D01*
X119320144Y-77059549D01*
X119325996Y-77081392D01*
X119338525Y-77111639D01*
X119351271Y-77175720D01*
X119358183Y-77201514D01*
X119358230Y-77210706D01*
X119360063Y-77219917D01*
X119362995Y-78123853D01*
X119362994Y-78123871D01*
X119363000Y-78125000D01*
X119362755Y-78128736D01*
X119360288Y-78178950D01*
X119359058Y-78185131D01*
X119358183Y-78198486D01*
X119351270Y-78224284D01*
X119338525Y-78288360D01*
X119325997Y-78318604D01*
X119320144Y-78340451D01*
X119308836Y-78360035D01*
X119296310Y-78390279D01*
X119260015Y-78444596D01*
X119246658Y-78467733D01*
X119240324Y-78474066D01*
X119235018Y-78482008D01*
X119157008Y-78560018D01*
X119149066Y-78565324D01*
X119142733Y-78571658D01*
X119119596Y-78585015D01*
X119065279Y-78621310D01*
X119035035Y-78633836D01*
X119015451Y-78645144D01*
X118993604Y-78650997D01*
X118963360Y-78663525D01*
X118899276Y-78676272D01*
X118873486Y-78683183D01*
X118864537Y-78683183D01*
X118855161Y-78685048D01*
X118744839Y-78685048D01*
X118735463Y-78683183D01*
X118726514Y-78683183D01*
X118700724Y-78676272D01*
X118636639Y-78663525D01*
X118606392Y-78650996D01*
X118584549Y-78645144D01*
X118564966Y-78633838D01*
X118534720Y-78621310D01*
X118480395Y-78585011D01*
X118457267Y-78571658D01*
X118450935Y-78565326D01*
X118442991Y-78560018D01*
X118364981Y-78482008D01*
X118359672Y-78474063D01*
X118353342Y-78467733D01*
X118339990Y-78444607D01*
X118303689Y-78390279D01*
X118291159Y-78360029D01*
X118279856Y-78340451D01*
X118274004Y-78318611D01*
X118261474Y-78288360D01*
X118248725Y-78224268D01*
X118241817Y-78198486D01*
X118241769Y-78189297D01*
X118239936Y-78180082D01*
X118237004Y-77276146D01*
X118237005Y-77276109D01*
X118237000Y-77275000D01*
X118237240Y-77271326D01*
X118239711Y-77221049D01*
X118240942Y-77214859D01*
X118241817Y-77201514D01*
X118248724Y-77175733D01*
X118261474Y-77111639D01*
X118274004Y-77081385D01*
X118279856Y-77059549D01*
X118291158Y-77039973D01*
X118303689Y-77009720D01*
X118339994Y-76955384D01*
X118353342Y-76932267D01*
X118359670Y-76925938D01*
X118364981Y-76917991D01*
X118442991Y-76839981D01*
X118450938Y-76834670D01*
X118457267Y-76828342D01*
X118480384Y-76814994D01*
X118534720Y-76778689D01*
X118564973Y-76766158D01*
X118584549Y-76754856D01*
X118606385Y-76749004D01*
X118636639Y-76736474D01*
X118700730Y-76723725D01*
X118726514Y-76716817D01*
X118735463Y-76716817D01*
X118744839Y-76714952D01*
X118855161Y-76714952D01*
X118864537Y-76716817D01*
G37*
G36*
X83114542Y-76384893D02*
G01*
X83126870Y-76393130D01*
X83135107Y-76405458D01*
X83138000Y-76420000D01*
X83138000Y-78620000D01*
X83135107Y-78634542D01*
X83126870Y-78646870D01*
X83114542Y-78655107D01*
X83100000Y-78658000D01*
X80900000Y-78658000D01*
X80885458Y-78655107D01*
X80873130Y-78646870D01*
X80864893Y-78634542D01*
X80862000Y-78620000D01*
X80862000Y-76420000D01*
X80864893Y-76405458D01*
X80873130Y-76393130D01*
X80885458Y-76384893D01*
X80900000Y-76382000D01*
X83100000Y-76382000D01*
X83114542Y-76384893D01*
G37*
G36*
X102507042Y-75719893D02*
G01*
X102519370Y-75728130D01*
X102527607Y-75740458D01*
X102530500Y-75755000D01*
X102530500Y-77755000D01*
X102527607Y-77769542D01*
X102519370Y-77781870D01*
X102507042Y-77790107D01*
X102492500Y-77793000D01*
X100587500Y-77793000D01*
X100572958Y-77790107D01*
X100560630Y-77781870D01*
X100552393Y-77769542D01*
X100549500Y-77755000D01*
X100549500Y-75755000D01*
X100552393Y-75740458D01*
X100560630Y-75728130D01*
X100572958Y-75719893D01*
X100587500Y-75717000D01*
X102492500Y-75717000D01*
X102507042Y-75719893D01*
G37*
G36*
X96747527Y-75759651D02*
G01*
X96926918Y-75833957D01*
X97088367Y-75941833D01*
X97225667Y-76079133D01*
X97333543Y-76240582D01*
X97407849Y-76419973D01*
X97445730Y-76610414D01*
X97450500Y-76802500D01*
X97445730Y-76899586D01*
X97407849Y-77090027D01*
X97333543Y-77269418D01*
X97225667Y-77430867D01*
X97088367Y-77568167D01*
X96926918Y-77676043D01*
X96747527Y-77750349D01*
X96557086Y-77788230D01*
X96362914Y-77788230D01*
X96172473Y-77750349D01*
X95993082Y-77676043D01*
X95831633Y-77568167D01*
X95694333Y-77430867D01*
X95586457Y-77269418D01*
X95512151Y-77090027D01*
X95474270Y-76899586D01*
X95469500Y-76707500D01*
X95474270Y-76610414D01*
X95512151Y-76419973D01*
X95586457Y-76240582D01*
X95694333Y-76079133D01*
X95831633Y-75941833D01*
X95993082Y-75833957D01*
X96172473Y-75759651D01*
X96362914Y-75721770D01*
X96557086Y-75721770D01*
X96747527Y-75759651D01*
G37*
G36*
X99287527Y-75759651D02*
G01*
X99466918Y-75833957D01*
X99628367Y-75941833D01*
X99765667Y-76079133D01*
X99873543Y-76240582D01*
X99947849Y-76419973D01*
X99985730Y-76610414D01*
X99990500Y-76802500D01*
X99985730Y-76899586D01*
X99947849Y-77090027D01*
X99873543Y-77269418D01*
X99765667Y-77430867D01*
X99628367Y-77568167D01*
X99466918Y-77676043D01*
X99287527Y-77750349D01*
X99097086Y-77788230D01*
X98902914Y-77788230D01*
X98712473Y-77750349D01*
X98533082Y-77676043D01*
X98371633Y-77568167D01*
X98234333Y-77430867D01*
X98126457Y-77269418D01*
X98052151Y-77090027D01*
X98014270Y-76899586D01*
X98009500Y-76707500D01*
X98014270Y-76610414D01*
X98052151Y-76419973D01*
X98126457Y-76240582D01*
X98234333Y-76079133D01*
X98371633Y-75941833D01*
X98533082Y-75833957D01*
X98712473Y-75759651D01*
X98902914Y-75721770D01*
X99097086Y-75721770D01*
X99287527Y-75759651D01*
G37*
G36*
X126325806Y-72481726D02*
G01*
X126595998Y-72540503D01*
X126855074Y-72637133D01*
X127097762Y-72769651D01*
X127319120Y-72935357D01*
X127514643Y-73130880D01*
X127680349Y-73352238D01*
X127812867Y-73594926D01*
X127909497Y-73854002D01*
X127968274Y-74124194D01*
X127988000Y-74400000D01*
X127968274Y-74675806D01*
X127909497Y-74945998D01*
X127812867Y-75205074D01*
X127680349Y-75447762D01*
X127514643Y-75669120D01*
X127319120Y-75864643D01*
X127097762Y-76030349D01*
X126855074Y-76162867D01*
X126595998Y-76259497D01*
X126325806Y-76318274D01*
X126050000Y-76338000D01*
X125774194Y-76318274D01*
X125504002Y-76259497D01*
X125244926Y-76162867D01*
X125002238Y-76030349D01*
X124780880Y-75864643D01*
X124585357Y-75669120D01*
X124419651Y-75447762D01*
X124287133Y-75205074D01*
X124190503Y-74945998D01*
X124131726Y-74675806D01*
X124112000Y-74400000D01*
X124131726Y-74124194D01*
X124190503Y-73854002D01*
X124287133Y-73594926D01*
X124419651Y-73352238D01*
X124585357Y-73130880D01*
X124780880Y-72935357D01*
X125002238Y-72769651D01*
X125244926Y-72637133D01*
X125504002Y-72540503D01*
X125774194Y-72481726D01*
X126050000Y-72462000D01*
X126325806Y-72481726D01*
G37*
G36*
X113494542Y-74709893D02*
G01*
X113506870Y-74718130D01*
X113515107Y-74730458D01*
X113518000Y-74745000D01*
X113518000Y-76195000D01*
X113515107Y-76209542D01*
X113506870Y-76221870D01*
X113494542Y-76230107D01*
X113480000Y-76233000D01*
X112330000Y-76233000D01*
X112315458Y-76230107D01*
X112303130Y-76221870D01*
X112294893Y-76209542D01*
X112292000Y-76195000D01*
X112292000Y-74745000D01*
X112294893Y-74730458D01*
X112303130Y-74718130D01*
X112315458Y-74709893D01*
X112330000Y-74707000D01*
X113480000Y-74707000D01*
X113494542Y-74709893D01*
G37*
G36*
X118134542Y-74709893D02*
G01*
X118146870Y-74718130D01*
X118155107Y-74730458D01*
X118158000Y-74745000D01*
X118158000Y-76195000D01*
X118155107Y-76209542D01*
X118146870Y-76221870D01*
X118134542Y-76230107D01*
X118120000Y-76233000D01*
X116970000Y-76233000D01*
X116955458Y-76230107D01*
X116943130Y-76221870D01*
X116934893Y-76209542D01*
X116932000Y-76195000D01*
X116932000Y-74745000D01*
X116934893Y-74730458D01*
X116943130Y-74718130D01*
X116955458Y-74709893D01*
X116970000Y-74707000D01*
X118120000Y-74707000D01*
X118134542Y-74709893D01*
G37*
G36*
X109756409Y-75238274D02*
G01*
X109816852Y-75246232D01*
X109832057Y-75253322D01*
X109850646Y-75257020D01*
X109875266Y-75273470D01*
X109900407Y-75285194D01*
X109915702Y-75300489D01*
X109935969Y-75314031D01*
X109949510Y-75334297D01*
X109964805Y-75349592D01*
X109976527Y-75374730D01*
X109992980Y-75399354D01*
X109996677Y-75417944D01*
X110003767Y-75433147D01*
X110011722Y-75493577D01*
X110013000Y-75500000D01*
X110013000Y-75950000D01*
X110011722Y-75956424D01*
X110003767Y-76016852D01*
X109996678Y-76032054D01*
X109992980Y-76050646D01*
X109976525Y-76075271D01*
X109964805Y-76100407D01*
X109949512Y-76115699D01*
X109935969Y-76135969D01*
X109915699Y-76149512D01*
X109900407Y-76164805D01*
X109875271Y-76176525D01*
X109850646Y-76192980D01*
X109832054Y-76196678D01*
X109816852Y-76203767D01*
X109756424Y-76211722D01*
X109750000Y-76213000D01*
X109250000Y-76213000D01*
X109243577Y-76211722D01*
X109183147Y-76203767D01*
X109167944Y-76196677D01*
X109149354Y-76192980D01*
X109124730Y-76176527D01*
X109099592Y-76164805D01*
X109084297Y-76149510D01*
X109064031Y-76135969D01*
X109050489Y-76115702D01*
X109035194Y-76100407D01*
X109023470Y-76075266D01*
X109007020Y-76050646D01*
X109003322Y-76032057D01*
X108996232Y-76016852D01*
X108988274Y-75956409D01*
X108987000Y-75950000D01*
X108987000Y-75500000D01*
X108988274Y-75493592D01*
X108996232Y-75433147D01*
X109003322Y-75417940D01*
X109007020Y-75399354D01*
X109023469Y-75374735D01*
X109035194Y-75349592D01*
X109050491Y-75334294D01*
X109064031Y-75314031D01*
X109084294Y-75300491D01*
X109099592Y-75285194D01*
X109124735Y-75273469D01*
X109149354Y-75257020D01*
X109167940Y-75253322D01*
X109183147Y-75246232D01*
X109243592Y-75238274D01*
X109250000Y-75237000D01*
X109750000Y-75237000D01*
X109756409Y-75238274D01*
G37*
G36*
X82311428Y-73885442D02*
G01*
X82507250Y-73961304D01*
X82685798Y-74071856D01*
X82840992Y-74213334D01*
X82967547Y-74380920D01*
X83061153Y-74568907D01*
X83118623Y-74770893D01*
X83138000Y-74980000D01*
X83118623Y-75189107D01*
X83061153Y-75391093D01*
X82967547Y-75579080D01*
X82840992Y-75746666D01*
X82685798Y-75888144D01*
X82507250Y-75998696D01*
X82311428Y-76074558D01*
X82105001Y-76113145D01*
X81894999Y-76113145D01*
X81688572Y-76074558D01*
X81492750Y-75998696D01*
X81314202Y-75888144D01*
X81159008Y-75746666D01*
X81032453Y-75579080D01*
X80938847Y-75391093D01*
X80881377Y-75189107D01*
X80862000Y-74980000D01*
X80881377Y-74770893D01*
X80938847Y-74568907D01*
X81032453Y-74380920D01*
X81159008Y-74213334D01*
X81314202Y-74071856D01*
X81492750Y-73961304D01*
X81688572Y-73885442D01*
X81894999Y-73846855D01*
X82105001Y-73846855D01*
X82311428Y-73885442D01*
G37*
G36*
X107363242Y-73595693D02*
G01*
X107375570Y-73603930D01*
X107383807Y-73616258D01*
X107386700Y-73630800D01*
X107386700Y-76069200D01*
X107383807Y-76083742D01*
X107375570Y-76096070D01*
X107363242Y-76104307D01*
X107348700Y-76107200D01*
X105646900Y-76107200D01*
X105632358Y-76104307D01*
X105620030Y-76096070D01*
X105611793Y-76083742D01*
X105608900Y-76069200D01*
X105608900Y-73630800D01*
X105611793Y-73616258D01*
X105620030Y-73603930D01*
X105632358Y-73595693D01*
X105646900Y-73592800D01*
X107348700Y-73592800D01*
X107363242Y-73595693D01*
G37*
G36*
X114139542Y-74314893D02*
G01*
X114151870Y-74323130D01*
X114160107Y-74335458D01*
X114163000Y-74350000D01*
X114163000Y-75750000D01*
X114160107Y-75764542D01*
X114151870Y-75776870D01*
X114139542Y-75785107D01*
X114125000Y-75788000D01*
X113725000Y-75788000D01*
X113710458Y-75785107D01*
X113698130Y-75776870D01*
X113689893Y-75764542D01*
X113687000Y-75750000D01*
X113687000Y-74350000D01*
X113689893Y-74335458D01*
X113698130Y-74323130D01*
X113710458Y-74314893D01*
X113725000Y-74312000D01*
X114125000Y-74312000D01*
X114139542Y-74314893D01*
G37*
G36*
X114789542Y-74314893D02*
G01*
X114801870Y-74323130D01*
X114810107Y-74335458D01*
X114813000Y-74350000D01*
X114813000Y-75750000D01*
X114810107Y-75764542D01*
X114801870Y-75776870D01*
X114789542Y-75785107D01*
X114775000Y-75788000D01*
X114375000Y-75788000D01*
X114360458Y-75785107D01*
X114348130Y-75776870D01*
X114339893Y-75764542D01*
X114337000Y-75750000D01*
X114337000Y-74350000D01*
X114339893Y-74335458D01*
X114348130Y-74323130D01*
X114360458Y-74314893D01*
X114375000Y-74312000D01*
X114775000Y-74312000D01*
X114789542Y-74314893D01*
G37*
G36*
X115439542Y-74314893D02*
G01*
X115451870Y-74323130D01*
X115460107Y-74335458D01*
X115463000Y-74350000D01*
X115463000Y-75750000D01*
X115460107Y-75764542D01*
X115451870Y-75776870D01*
X115439542Y-75785107D01*
X115425000Y-75788000D01*
X115025000Y-75788000D01*
X115010458Y-75785107D01*
X114998130Y-75776870D01*
X114989893Y-75764542D01*
X114987000Y-75750000D01*
X114987000Y-74350000D01*
X114989893Y-74335458D01*
X114998130Y-74323130D01*
X115010458Y-74314893D01*
X115025000Y-74312000D01*
X115425000Y-74312000D01*
X115439542Y-74314893D01*
G37*
G36*
X116089542Y-74314893D02*
G01*
X116101870Y-74323130D01*
X116110107Y-74335458D01*
X116113000Y-74350000D01*
X116113000Y-75750000D01*
X116110107Y-75764542D01*
X116101870Y-75776870D01*
X116089542Y-75785107D01*
X116075000Y-75788000D01*
X115675000Y-75788000D01*
X115660458Y-75785107D01*
X115648130Y-75776870D01*
X115639893Y-75764542D01*
X115637000Y-75750000D01*
X115637000Y-74350000D01*
X115639893Y-74335458D01*
X115648130Y-74323130D01*
X115660458Y-74314893D01*
X115675000Y-74312000D01*
X116075000Y-74312000D01*
X116089542Y-74314893D01*
G37*
G36*
X116739542Y-74314893D02*
G01*
X116751870Y-74323130D01*
X116760107Y-74335458D01*
X116763000Y-74350000D01*
X116763000Y-75750000D01*
X116760107Y-75764542D01*
X116751870Y-75776870D01*
X116739542Y-75785107D01*
X116725000Y-75788000D01*
X116325000Y-75788000D01*
X116310458Y-75785107D01*
X116298130Y-75776870D01*
X116289893Y-75764542D01*
X116287000Y-75750000D01*
X116287000Y-74350000D01*
X116289893Y-74335458D01*
X116298130Y-74323130D01*
X116310458Y-74314893D01*
X116325000Y-74312000D01*
X116725000Y-74312000D01*
X116739542Y-74314893D01*
G37*
G36*
X105470942Y-75437894D02*
G01*
X105483270Y-75446131D01*
X105491507Y-75458459D01*
X105494400Y-75473001D01*
X105494400Y-75727001D01*
X105491507Y-75741543D01*
X105483270Y-75753871D01*
X105470942Y-75762108D01*
X105456400Y-75765001D01*
X104643600Y-75765001D01*
X104629058Y-75762108D01*
X104616730Y-75753871D01*
X104608493Y-75741543D01*
X104605600Y-75727001D01*
X104605600Y-75473001D01*
X104608493Y-75458459D01*
X104616730Y-75446131D01*
X104629058Y-75437894D01*
X104643600Y-75435001D01*
X105456400Y-75435001D01*
X105470942Y-75437894D01*
G37*
G36*
X108366542Y-75437894D02*
G01*
X108378870Y-75446131D01*
X108387107Y-75458459D01*
X108390000Y-75473001D01*
X108390000Y-75727001D01*
X108387107Y-75741543D01*
X108378870Y-75753871D01*
X108366542Y-75762108D01*
X108352000Y-75765001D01*
X107539200Y-75765001D01*
X107524658Y-75762108D01*
X107512330Y-75753871D01*
X107504093Y-75741543D01*
X107501200Y-75727001D01*
X107501200Y-75473001D01*
X107504093Y-75458459D01*
X107512330Y-75446131D01*
X107524658Y-75437894D01*
X107539200Y-75435001D01*
X108352000Y-75435001D01*
X108366542Y-75437894D01*
G37*
G36*
X105470942Y-74937893D02*
G01*
X105483270Y-74946130D01*
X105491507Y-74958458D01*
X105494400Y-74973000D01*
X105494400Y-75227000D01*
X105491507Y-75241542D01*
X105483270Y-75253870D01*
X105470942Y-75262107D01*
X105456400Y-75265000D01*
X104643600Y-75265000D01*
X104629058Y-75262107D01*
X104616730Y-75253870D01*
X104608493Y-75241542D01*
X104605600Y-75227000D01*
X104605600Y-74973000D01*
X104608493Y-74958458D01*
X104616730Y-74946130D01*
X104629058Y-74937893D01*
X104643600Y-74935000D01*
X105456400Y-74935000D01*
X105470942Y-74937893D01*
G37*
G36*
X108366542Y-74937893D02*
G01*
X108378870Y-74946130D01*
X108387107Y-74958458D01*
X108390000Y-74973000D01*
X108390000Y-75227000D01*
X108387107Y-75241542D01*
X108378870Y-75253870D01*
X108366542Y-75262107D01*
X108352000Y-75265000D01*
X107539200Y-75265000D01*
X107524658Y-75262107D01*
X107512330Y-75253870D01*
X107504093Y-75241542D01*
X107501200Y-75227000D01*
X107501200Y-74973000D01*
X107504093Y-74958458D01*
X107512330Y-74946130D01*
X107524658Y-74937893D01*
X107539200Y-74935000D01*
X108352000Y-74935000D01*
X108366542Y-74937893D01*
G37*
G36*
X105470942Y-74437893D02*
G01*
X105483270Y-74446130D01*
X105491507Y-74458458D01*
X105494400Y-74473000D01*
X105494400Y-74727000D01*
X105491507Y-74741542D01*
X105483270Y-74753870D01*
X105470942Y-74762107D01*
X105456400Y-74765000D01*
X104643600Y-74765000D01*
X104629058Y-74762107D01*
X104616730Y-74753870D01*
X104608493Y-74741542D01*
X104605600Y-74727000D01*
X104605600Y-74473000D01*
X104608493Y-74458458D01*
X104616730Y-74446130D01*
X104629058Y-74437893D01*
X104643600Y-74435000D01*
X105456400Y-74435000D01*
X105470942Y-74437893D01*
G37*
G36*
X108366542Y-74437893D02*
G01*
X108378870Y-74446130D01*
X108387107Y-74458458D01*
X108390000Y-74473000D01*
X108390000Y-74727000D01*
X108387107Y-74741542D01*
X108378870Y-74753870D01*
X108366542Y-74762107D01*
X108352000Y-74765000D01*
X107539200Y-74765000D01*
X107524658Y-74762107D01*
X107512330Y-74753870D01*
X107504093Y-74741542D01*
X107501200Y-74727000D01*
X107501200Y-74473000D01*
X107504093Y-74458458D01*
X107512330Y-74446130D01*
X107524658Y-74437893D01*
X107539200Y-74435000D01*
X108352000Y-74435000D01*
X108366542Y-74437893D01*
G37*
G36*
X109756409Y-73688274D02*
G01*
X109816852Y-73696232D01*
X109832057Y-73703322D01*
X109850646Y-73707020D01*
X109875266Y-73723470D01*
X109900407Y-73735194D01*
X109915702Y-73750489D01*
X109935969Y-73764031D01*
X109949510Y-73784297D01*
X109964805Y-73799592D01*
X109976527Y-73824730D01*
X109992980Y-73849354D01*
X109996677Y-73867944D01*
X110003767Y-73883147D01*
X110011722Y-73943577D01*
X110013000Y-73950000D01*
X110013000Y-74400000D01*
X110011722Y-74406424D01*
X110003767Y-74466852D01*
X109996678Y-74482054D01*
X109992980Y-74500646D01*
X109976525Y-74525271D01*
X109964805Y-74550407D01*
X109949512Y-74565699D01*
X109935969Y-74585969D01*
X109915699Y-74599512D01*
X109900407Y-74614805D01*
X109875271Y-74626525D01*
X109850646Y-74642980D01*
X109832054Y-74646678D01*
X109816852Y-74653767D01*
X109756424Y-74661722D01*
X109750000Y-74663000D01*
X109250000Y-74663000D01*
X109243577Y-74661722D01*
X109183147Y-74653767D01*
X109167944Y-74646677D01*
X109149354Y-74642980D01*
X109124730Y-74626527D01*
X109099592Y-74614805D01*
X109084297Y-74599510D01*
X109064031Y-74585969D01*
X109050489Y-74565702D01*
X109035194Y-74550407D01*
X109023470Y-74525266D01*
X109007020Y-74500646D01*
X109003322Y-74482057D01*
X108996232Y-74466852D01*
X108988274Y-74406409D01*
X108987000Y-74400000D01*
X108987000Y-73950000D01*
X108988274Y-73943592D01*
X108996232Y-73883147D01*
X109003322Y-73867940D01*
X109007020Y-73849354D01*
X109023469Y-73824735D01*
X109035194Y-73799592D01*
X109050491Y-73784294D01*
X109064031Y-73764031D01*
X109084294Y-73750491D01*
X109099592Y-73735194D01*
X109124735Y-73723469D01*
X109149354Y-73707020D01*
X109167940Y-73703322D01*
X109183147Y-73696232D01*
X109243592Y-73688274D01*
X109250000Y-73687000D01*
X109750000Y-73687000D01*
X109756409Y-73688274D01*
G37*
G36*
X99181409Y-73588274D02*
G01*
X99241852Y-73596232D01*
X99257057Y-73603322D01*
X99275646Y-73607020D01*
X99300266Y-73623470D01*
X99325407Y-73635194D01*
X99340702Y-73650489D01*
X99360969Y-73664031D01*
X99374510Y-73684297D01*
X99389805Y-73699592D01*
X99401527Y-73724730D01*
X99417980Y-73749354D01*
X99421677Y-73767944D01*
X99428767Y-73783147D01*
X99436722Y-73843577D01*
X99438000Y-73850000D01*
X99438000Y-74350000D01*
X99436722Y-74356424D01*
X99428767Y-74416852D01*
X99421678Y-74432054D01*
X99417980Y-74450646D01*
X99401525Y-74475271D01*
X99389805Y-74500407D01*
X99374512Y-74515699D01*
X99360969Y-74535969D01*
X99340699Y-74549512D01*
X99325407Y-74564805D01*
X99300271Y-74576525D01*
X99275646Y-74592980D01*
X99257054Y-74596678D01*
X99241852Y-74603767D01*
X99181424Y-74611722D01*
X99175000Y-74613000D01*
X98725000Y-74613000D01*
X98718577Y-74611722D01*
X98658147Y-74603767D01*
X98642944Y-74596677D01*
X98624354Y-74592980D01*
X98599730Y-74576527D01*
X98574592Y-74564805D01*
X98559297Y-74549510D01*
X98539031Y-74535969D01*
X98525489Y-74515702D01*
X98510194Y-74500407D01*
X98498470Y-74475266D01*
X98482020Y-74450646D01*
X98478322Y-74432057D01*
X98471232Y-74416852D01*
X98463274Y-74356409D01*
X98462000Y-74350000D01*
X98462000Y-73850000D01*
X98463274Y-73843592D01*
X98471232Y-73783147D01*
X98478322Y-73767940D01*
X98482020Y-73749354D01*
X98498469Y-73724735D01*
X98510194Y-73699592D01*
X98525491Y-73684294D01*
X98539031Y-73664031D01*
X98559294Y-73650491D01*
X98574592Y-73635194D01*
X98599735Y-73623469D01*
X98624354Y-73607020D01*
X98642940Y-73603322D01*
X98658147Y-73596232D01*
X98718592Y-73588274D01*
X98725000Y-73587000D01*
X99175000Y-73587000D01*
X99181409Y-73588274D01*
G37*
G36*
X100731409Y-73588274D02*
G01*
X100791852Y-73596232D01*
X100807057Y-73603322D01*
X100825646Y-73607020D01*
X100850266Y-73623470D01*
X100875407Y-73635194D01*
X100890702Y-73650489D01*
X100910969Y-73664031D01*
X100924510Y-73684297D01*
X100939805Y-73699592D01*
X100951527Y-73724730D01*
X100967980Y-73749354D01*
X100971677Y-73767944D01*
X100978767Y-73783147D01*
X100986722Y-73843577D01*
X100988000Y-73850000D01*
X100988000Y-74350000D01*
X100986722Y-74356424D01*
X100978767Y-74416852D01*
X100971678Y-74432054D01*
X100967980Y-74450646D01*
X100951525Y-74475271D01*
X100939805Y-74500407D01*
X100924512Y-74515699D01*
X100910969Y-74535969D01*
X100890699Y-74549512D01*
X100875407Y-74564805D01*
X100850271Y-74576525D01*
X100825646Y-74592980D01*
X100807054Y-74596678D01*
X100791852Y-74603767D01*
X100731424Y-74611722D01*
X100725000Y-74613000D01*
X100275000Y-74613000D01*
X100268577Y-74611722D01*
X100208147Y-74603767D01*
X100192944Y-74596677D01*
X100174354Y-74592980D01*
X100149730Y-74576527D01*
X100124592Y-74564805D01*
X100109297Y-74549510D01*
X100089031Y-74535969D01*
X100075489Y-74515702D01*
X100060194Y-74500407D01*
X100048470Y-74475266D01*
X100032020Y-74450646D01*
X100028322Y-74432057D01*
X100021232Y-74416852D01*
X100013274Y-74356409D01*
X100012000Y-74350000D01*
X100012000Y-73850000D01*
X100013274Y-73843592D01*
X100021232Y-73783147D01*
X100028322Y-73767940D01*
X100032020Y-73749354D01*
X100048469Y-73724735D01*
X100060194Y-73699592D01*
X100075491Y-73684294D01*
X100089031Y-73664031D01*
X100109294Y-73650491D01*
X100124592Y-73635194D01*
X100149735Y-73623469D01*
X100174354Y-73607020D01*
X100192940Y-73603322D01*
X100208147Y-73596232D01*
X100268592Y-73588274D01*
X100275000Y-73587000D01*
X100725000Y-73587000D01*
X100731409Y-73588274D01*
G37*
G36*
X102256409Y-73588274D02*
G01*
X102316852Y-73596232D01*
X102332057Y-73603322D01*
X102350646Y-73607020D01*
X102375266Y-73623470D01*
X102400407Y-73635194D01*
X102415702Y-73650489D01*
X102435969Y-73664031D01*
X102449510Y-73684297D01*
X102464805Y-73699592D01*
X102476527Y-73724730D01*
X102492980Y-73749354D01*
X102496677Y-73767944D01*
X102503767Y-73783147D01*
X102511722Y-73843577D01*
X102513000Y-73850000D01*
X102513000Y-74350000D01*
X102511722Y-74356424D01*
X102503767Y-74416852D01*
X102496678Y-74432054D01*
X102492980Y-74450646D01*
X102476525Y-74475271D01*
X102464805Y-74500407D01*
X102449512Y-74515699D01*
X102435969Y-74535969D01*
X102415699Y-74549512D01*
X102400407Y-74564805D01*
X102375271Y-74576525D01*
X102350646Y-74592980D01*
X102332054Y-74596678D01*
X102316852Y-74603767D01*
X102256424Y-74611722D01*
X102250000Y-74613000D01*
X101800000Y-74613000D01*
X101793577Y-74611722D01*
X101733147Y-74603767D01*
X101717944Y-74596677D01*
X101699354Y-74592980D01*
X101674730Y-74576527D01*
X101649592Y-74564805D01*
X101634297Y-74549510D01*
X101614031Y-74535969D01*
X101600489Y-74515702D01*
X101585194Y-74500407D01*
X101573470Y-74475266D01*
X101557020Y-74450646D01*
X101553322Y-74432057D01*
X101546232Y-74416852D01*
X101538274Y-74356409D01*
X101537000Y-74350000D01*
X101537000Y-73850000D01*
X101538274Y-73843592D01*
X101546232Y-73783147D01*
X101553322Y-73767940D01*
X101557020Y-73749354D01*
X101573469Y-73724735D01*
X101585194Y-73699592D01*
X101600491Y-73684294D01*
X101614031Y-73664031D01*
X101634294Y-73650491D01*
X101649592Y-73635194D01*
X101674735Y-73623469D01*
X101699354Y-73607020D01*
X101717940Y-73603322D01*
X101733147Y-73596232D01*
X101793592Y-73588274D01*
X101800000Y-73587000D01*
X102250000Y-73587000D01*
X102256409Y-73588274D01*
G37*
G36*
X103806409Y-73588274D02*
G01*
X103866852Y-73596232D01*
X103882057Y-73603322D01*
X103900646Y-73607020D01*
X103925266Y-73623470D01*
X103950407Y-73635194D01*
X103965702Y-73650489D01*
X103985969Y-73664031D01*
X103999510Y-73684297D01*
X104014805Y-73699592D01*
X104026527Y-73724730D01*
X104042980Y-73749354D01*
X104046677Y-73767944D01*
X104053767Y-73783147D01*
X104061722Y-73843577D01*
X104063000Y-73850000D01*
X104063000Y-74350000D01*
X104061722Y-74356424D01*
X104053767Y-74416852D01*
X104046678Y-74432054D01*
X104042980Y-74450646D01*
X104026525Y-74475271D01*
X104014805Y-74500407D01*
X103999512Y-74515699D01*
X103985969Y-74535969D01*
X103965699Y-74549512D01*
X103950407Y-74564805D01*
X103925271Y-74576525D01*
X103900646Y-74592980D01*
X103882054Y-74596678D01*
X103866852Y-74603767D01*
X103806424Y-74611722D01*
X103800000Y-74613000D01*
X103350000Y-74613000D01*
X103343577Y-74611722D01*
X103283147Y-74603767D01*
X103267944Y-74596677D01*
X103249354Y-74592980D01*
X103224730Y-74576527D01*
X103199592Y-74564805D01*
X103184297Y-74549510D01*
X103164031Y-74535969D01*
X103150489Y-74515702D01*
X103135194Y-74500407D01*
X103123470Y-74475266D01*
X103107020Y-74450646D01*
X103103322Y-74432057D01*
X103096232Y-74416852D01*
X103088274Y-74356409D01*
X103087000Y-74350000D01*
X103087000Y-73850000D01*
X103088274Y-73843592D01*
X103096232Y-73783147D01*
X103103322Y-73767940D01*
X103107020Y-73749354D01*
X103123469Y-73724735D01*
X103135194Y-73699592D01*
X103150491Y-73684294D01*
X103164031Y-73664031D01*
X103184294Y-73650491D01*
X103199592Y-73635194D01*
X103224735Y-73623469D01*
X103249354Y-73607020D01*
X103267940Y-73603322D01*
X103283147Y-73596232D01*
X103343592Y-73588274D01*
X103350000Y-73587000D01*
X103800000Y-73587000D01*
X103806409Y-73588274D01*
G37*
G36*
X105470942Y-73937892D02*
G01*
X105483270Y-73946129D01*
X105491507Y-73958457D01*
X105494400Y-73972999D01*
X105494400Y-74226999D01*
X105491507Y-74241541D01*
X105483270Y-74253869D01*
X105470942Y-74262106D01*
X105456400Y-74264999D01*
X104643600Y-74264999D01*
X104629058Y-74262106D01*
X104616730Y-74253869D01*
X104608493Y-74241541D01*
X104605600Y-74226999D01*
X104605600Y-73972999D01*
X104608493Y-73958457D01*
X104616730Y-73946129D01*
X104629058Y-73937892D01*
X104643600Y-73934999D01*
X105456400Y-73934999D01*
X105470942Y-73937892D01*
G37*
G36*
X108366542Y-73937892D02*
G01*
X108378870Y-73946129D01*
X108387107Y-73958457D01*
X108390000Y-73972999D01*
X108390000Y-74226999D01*
X108387107Y-74241541D01*
X108378870Y-74253869D01*
X108366542Y-74262106D01*
X108352000Y-74264999D01*
X107539200Y-74264999D01*
X107524658Y-74262106D01*
X107512330Y-74253869D01*
X107504093Y-74241541D01*
X107501200Y-74226999D01*
X107501200Y-73972999D01*
X107504093Y-73958457D01*
X107512330Y-73946129D01*
X107524658Y-73937892D01*
X107539200Y-73934999D01*
X108352000Y-73934999D01*
X108366542Y-73937892D01*
G37*
G36*
X92560297Y-73162805D02*
G01*
X92613203Y-73168943D01*
X92631279Y-73176924D01*
X92654504Y-73181544D01*
X92679367Y-73198157D01*
X92700858Y-73207646D01*
X92715535Y-73222323D01*
X92737800Y-73237200D01*
X92752676Y-73259464D01*
X92767353Y-73274141D01*
X92776841Y-73295629D01*
X92793456Y-73320496D01*
X92798076Y-73343723D01*
X92806056Y-73361796D01*
X92812192Y-73414691D01*
X92813000Y-73418750D01*
X92813000Y-73856250D01*
X92812192Y-73860309D01*
X92806056Y-73913203D01*
X92798076Y-73931274D01*
X92793456Y-73954504D01*
X92776839Y-73979372D01*
X92767353Y-74000858D01*
X92752678Y-74015532D01*
X92737800Y-74037800D01*
X92715532Y-74052678D01*
X92700858Y-74067353D01*
X92679372Y-74076839D01*
X92654504Y-74093456D01*
X92631274Y-74098076D01*
X92613203Y-74106056D01*
X92560309Y-74112192D01*
X92556250Y-74113000D01*
X92043750Y-74113000D01*
X92039691Y-74112192D01*
X91986796Y-74106056D01*
X91968723Y-74098076D01*
X91945496Y-74093456D01*
X91920629Y-74076841D01*
X91899141Y-74067353D01*
X91884464Y-74052676D01*
X91862200Y-74037800D01*
X91847323Y-74015535D01*
X91832646Y-74000858D01*
X91823157Y-73979367D01*
X91806544Y-73954504D01*
X91801924Y-73931279D01*
X91793943Y-73913203D01*
X91787805Y-73860297D01*
X91787000Y-73856250D01*
X91787000Y-73418750D01*
X91787804Y-73414703D01*
X91793943Y-73361796D01*
X91801924Y-73343719D01*
X91806544Y-73320496D01*
X91823155Y-73295634D01*
X91832646Y-73274141D01*
X91847325Y-73259461D01*
X91862200Y-73237200D01*
X91884461Y-73222325D01*
X91899141Y-73207646D01*
X91920634Y-73198155D01*
X91945496Y-73181544D01*
X91968719Y-73176924D01*
X91986796Y-73168943D01*
X92039703Y-73162804D01*
X92043750Y-73162000D01*
X92556250Y-73162000D01*
X92560297Y-73162805D01*
G37*
G36*
X82311428Y-71345442D02*
G01*
X82507250Y-71421304D01*
X82685798Y-71531856D01*
X82840992Y-71673334D01*
X82967547Y-71840920D01*
X83061153Y-72028907D01*
X83118623Y-72230893D01*
X83138000Y-72440000D01*
X83118623Y-72649107D01*
X83061153Y-72851093D01*
X82967547Y-73039080D01*
X82840992Y-73206666D01*
X82685798Y-73348144D01*
X82507250Y-73458696D01*
X82311428Y-73534558D01*
X82105001Y-73573145D01*
X81894999Y-73573145D01*
X81688572Y-73534558D01*
X81492750Y-73458696D01*
X81314202Y-73348144D01*
X81159008Y-73206666D01*
X81032453Y-73039080D01*
X80938847Y-72851093D01*
X80881377Y-72649107D01*
X80862000Y-72440000D01*
X80881377Y-72230893D01*
X80938847Y-72028907D01*
X81032453Y-71840920D01*
X81159008Y-71673334D01*
X81314202Y-71531856D01*
X81492750Y-71421304D01*
X81688572Y-71345442D01*
X81894999Y-71306855D01*
X82105001Y-71306855D01*
X82311428Y-71345442D01*
G37*
G36*
X94129047Y-72687805D02*
G01*
X94177661Y-72693445D01*
X94194271Y-72700779D01*
X94216079Y-72705117D01*
X94239425Y-72720716D01*
X94259012Y-72729365D01*
X94272390Y-72742743D01*
X94293291Y-72756709D01*
X94307256Y-72777609D01*
X94320634Y-72790987D01*
X94329281Y-72810572D01*
X94344883Y-72833921D01*
X94349221Y-72855731D01*
X94356554Y-72872338D01*
X94362192Y-72920942D01*
X94363000Y-72925000D01*
X94363000Y-73325000D01*
X94362192Y-73329059D01*
X94356554Y-73377661D01*
X94349221Y-73394266D01*
X94344883Y-73416079D01*
X94329280Y-73439429D01*
X94320634Y-73459012D01*
X94307258Y-73472387D01*
X94293291Y-73493291D01*
X94272387Y-73507258D01*
X94259012Y-73520634D01*
X94239429Y-73529280D01*
X94216079Y-73544883D01*
X94194266Y-73549221D01*
X94177661Y-73556554D01*
X94129059Y-73562192D01*
X94125000Y-73563000D01*
X93575000Y-73563000D01*
X93570942Y-73562192D01*
X93522338Y-73556554D01*
X93505731Y-73549221D01*
X93483921Y-73544883D01*
X93460572Y-73529281D01*
X93440987Y-73520634D01*
X93427609Y-73507256D01*
X93406709Y-73493291D01*
X93392743Y-73472390D01*
X93379365Y-73459012D01*
X93370716Y-73439425D01*
X93355117Y-73416079D01*
X93350779Y-73394271D01*
X93343445Y-73377661D01*
X93337805Y-73329047D01*
X93337000Y-73325000D01*
X93337000Y-72925000D01*
X93337804Y-72920954D01*
X93343445Y-72872338D01*
X93350779Y-72855727D01*
X93355117Y-72833921D01*
X93370715Y-72810576D01*
X93379365Y-72790987D01*
X93392745Y-72777606D01*
X93406709Y-72756709D01*
X93427606Y-72742745D01*
X93440987Y-72729365D01*
X93460576Y-72720715D01*
X93483921Y-72705117D01*
X93505727Y-72700779D01*
X93522338Y-72693445D01*
X93570954Y-72687804D01*
X93575000Y-72687000D01*
X94125000Y-72687000D01*
X94129047Y-72687805D01*
G37*
G36*
X114379047Y-72662805D02*
G01*
X114427661Y-72668445D01*
X114444271Y-72675779D01*
X114466079Y-72680117D01*
X114489425Y-72695716D01*
X114509012Y-72704365D01*
X114522390Y-72717743D01*
X114543291Y-72731709D01*
X114557256Y-72752609D01*
X114570634Y-72765987D01*
X114579281Y-72785572D01*
X114594883Y-72808921D01*
X114599221Y-72830731D01*
X114606554Y-72847338D01*
X114612192Y-72895942D01*
X114613000Y-72900000D01*
X114613000Y-73300000D01*
X114612192Y-73304059D01*
X114606554Y-73352661D01*
X114599221Y-73369266D01*
X114594883Y-73391079D01*
X114579280Y-73414429D01*
X114570634Y-73434012D01*
X114557258Y-73447387D01*
X114543291Y-73468291D01*
X114522387Y-73482258D01*
X114509012Y-73495634D01*
X114489429Y-73504280D01*
X114466079Y-73519883D01*
X114444266Y-73524221D01*
X114427661Y-73531554D01*
X114379059Y-73537192D01*
X114375000Y-73538000D01*
X113825000Y-73538000D01*
X113820942Y-73537192D01*
X113772338Y-73531554D01*
X113755731Y-73524221D01*
X113733921Y-73519883D01*
X113710572Y-73504281D01*
X113690987Y-73495634D01*
X113677609Y-73482256D01*
X113656709Y-73468291D01*
X113642743Y-73447390D01*
X113629365Y-73434012D01*
X113620716Y-73414425D01*
X113605117Y-73391079D01*
X113600779Y-73369271D01*
X113593445Y-73352661D01*
X113587805Y-73304047D01*
X113587000Y-73300000D01*
X113587000Y-72900000D01*
X113587804Y-72895954D01*
X113593445Y-72847338D01*
X113600779Y-72830727D01*
X113605117Y-72808921D01*
X113620715Y-72785576D01*
X113629365Y-72765987D01*
X113642745Y-72752606D01*
X113656709Y-72731709D01*
X113677606Y-72717745D01*
X113690987Y-72704365D01*
X113710576Y-72695715D01*
X113733921Y-72680117D01*
X113755727Y-72675779D01*
X113772338Y-72668445D01*
X113820954Y-72662804D01*
X113825000Y-72662000D01*
X114375000Y-72662000D01*
X114379047Y-72662805D01*
G37*
G36*
X115929047Y-72662805D02*
G01*
X115977661Y-72668445D01*
X115994271Y-72675779D01*
X116016079Y-72680117D01*
X116039425Y-72695716D01*
X116059012Y-72704365D01*
X116072390Y-72717743D01*
X116093291Y-72731709D01*
X116107256Y-72752609D01*
X116120634Y-72765987D01*
X116129281Y-72785572D01*
X116144883Y-72808921D01*
X116149221Y-72830731D01*
X116156554Y-72847338D01*
X116162192Y-72895942D01*
X116163000Y-72900000D01*
X116163000Y-73300000D01*
X116162192Y-73304059D01*
X116156554Y-73352661D01*
X116149221Y-73369266D01*
X116144883Y-73391079D01*
X116129280Y-73414429D01*
X116120634Y-73434012D01*
X116107258Y-73447387D01*
X116093291Y-73468291D01*
X116072387Y-73482258D01*
X116059012Y-73495634D01*
X116039429Y-73504280D01*
X116016079Y-73519883D01*
X115994266Y-73524221D01*
X115977661Y-73531554D01*
X115929059Y-73537192D01*
X115925000Y-73538000D01*
X115375000Y-73538000D01*
X115370942Y-73537192D01*
X115322338Y-73531554D01*
X115305731Y-73524221D01*
X115283921Y-73519883D01*
X115260572Y-73504281D01*
X115240987Y-73495634D01*
X115227609Y-73482256D01*
X115206709Y-73468291D01*
X115192743Y-73447390D01*
X115179365Y-73434012D01*
X115170716Y-73414425D01*
X115155117Y-73391079D01*
X115150779Y-73369271D01*
X115143445Y-73352661D01*
X115137805Y-73304047D01*
X115137000Y-73300000D01*
X115137000Y-72900000D01*
X115137804Y-72895954D01*
X115143445Y-72847338D01*
X115150779Y-72830727D01*
X115155117Y-72808921D01*
X115170715Y-72785576D01*
X115179365Y-72765987D01*
X115192745Y-72752606D01*
X115206709Y-72731709D01*
X115227606Y-72717745D01*
X115240987Y-72704365D01*
X115260576Y-72695715D01*
X115283921Y-72680117D01*
X115305727Y-72675779D01*
X115322338Y-72668445D01*
X115370954Y-72662804D01*
X115375000Y-72662000D01*
X115925000Y-72662000D01*
X115929047Y-72662805D01*
G37*
G36*
X119872797Y-72137805D02*
G01*
X119925703Y-72143943D01*
X119943779Y-72151924D01*
X119967004Y-72156544D01*
X119991867Y-72173157D01*
X120013358Y-72182646D01*
X120028035Y-72197323D01*
X120050300Y-72212200D01*
X120065176Y-72234464D01*
X120079853Y-72249141D01*
X120089341Y-72270629D01*
X120105956Y-72295496D01*
X120110576Y-72318723D01*
X120118556Y-72336796D01*
X120124692Y-72389691D01*
X120125500Y-72393750D01*
X120125500Y-72906250D01*
X120124692Y-72910309D01*
X120118556Y-72963203D01*
X120110576Y-72981274D01*
X120105956Y-73004504D01*
X120089339Y-73029372D01*
X120079853Y-73050858D01*
X120065178Y-73065532D01*
X120050300Y-73087800D01*
X120028032Y-73102678D01*
X120013358Y-73117353D01*
X119991872Y-73126839D01*
X119967004Y-73143456D01*
X119943774Y-73148076D01*
X119925703Y-73156056D01*
X119872809Y-73162192D01*
X119868750Y-73163000D01*
X119431250Y-73163000D01*
X119427191Y-73162192D01*
X119374296Y-73156056D01*
X119356223Y-73148076D01*
X119332996Y-73143456D01*
X119308129Y-73126841D01*
X119286641Y-73117353D01*
X119271964Y-73102676D01*
X119249700Y-73087800D01*
X119234823Y-73065535D01*
X119220146Y-73050858D01*
X119210657Y-73029367D01*
X119194044Y-73004504D01*
X119189424Y-72981279D01*
X119181443Y-72963203D01*
X119175305Y-72910297D01*
X119174500Y-72906250D01*
X119174500Y-72393750D01*
X119175304Y-72389703D01*
X119181443Y-72336796D01*
X119189424Y-72318719D01*
X119194044Y-72295496D01*
X119210655Y-72270634D01*
X119220146Y-72249141D01*
X119234825Y-72234461D01*
X119249700Y-72212200D01*
X119271961Y-72197325D01*
X119286641Y-72182646D01*
X119308134Y-72173155D01*
X119332996Y-72156544D01*
X119356219Y-72151924D01*
X119374296Y-72143943D01*
X119427203Y-72137804D01*
X119431250Y-72137000D01*
X119868750Y-72137000D01*
X119872797Y-72137805D01*
G37*
G36*
X121447797Y-72137805D02*
G01*
X121500703Y-72143943D01*
X121518779Y-72151924D01*
X121542004Y-72156544D01*
X121566867Y-72173157D01*
X121588358Y-72182646D01*
X121603035Y-72197323D01*
X121625300Y-72212200D01*
X121640176Y-72234464D01*
X121654853Y-72249141D01*
X121664341Y-72270629D01*
X121680956Y-72295496D01*
X121685576Y-72318723D01*
X121693556Y-72336796D01*
X121699692Y-72389691D01*
X121700500Y-72393750D01*
X121700500Y-72906250D01*
X121699692Y-72910309D01*
X121693556Y-72963203D01*
X121685576Y-72981274D01*
X121680956Y-73004504D01*
X121664339Y-73029372D01*
X121654853Y-73050858D01*
X121640178Y-73065532D01*
X121625300Y-73087800D01*
X121603032Y-73102678D01*
X121588358Y-73117353D01*
X121566872Y-73126839D01*
X121542004Y-73143456D01*
X121518774Y-73148076D01*
X121500703Y-73156056D01*
X121447809Y-73162192D01*
X121443750Y-73163000D01*
X121006250Y-73163000D01*
X121002191Y-73162192D01*
X120949296Y-73156056D01*
X120931223Y-73148076D01*
X120907996Y-73143456D01*
X120883129Y-73126841D01*
X120861641Y-73117353D01*
X120846964Y-73102676D01*
X120824700Y-73087800D01*
X120809823Y-73065535D01*
X120795146Y-73050858D01*
X120785657Y-73029367D01*
X120769044Y-73004504D01*
X120764424Y-72981279D01*
X120756443Y-72963203D01*
X120750305Y-72910297D01*
X120749500Y-72906250D01*
X120749500Y-72393750D01*
X120750304Y-72389703D01*
X120756443Y-72336796D01*
X120764424Y-72318719D01*
X120769044Y-72295496D01*
X120785655Y-72270634D01*
X120795146Y-72249141D01*
X120809825Y-72234461D01*
X120824700Y-72212200D01*
X120846961Y-72197325D01*
X120861641Y-72182646D01*
X120883134Y-72173155D01*
X120907996Y-72156544D01*
X120931219Y-72151924D01*
X120949296Y-72143943D01*
X121002203Y-72137804D01*
X121006250Y-72137000D01*
X121443750Y-72137000D01*
X121447797Y-72137805D01*
G37*
G36*
X106606409Y-71688274D02*
G01*
X106666852Y-71696232D01*
X106682057Y-71703322D01*
X106700646Y-71707020D01*
X106725266Y-71723470D01*
X106750407Y-71735194D01*
X106765702Y-71750489D01*
X106785969Y-71764031D01*
X106799510Y-71784297D01*
X106814805Y-71799592D01*
X106826527Y-71824730D01*
X106842980Y-71849354D01*
X106846677Y-71867944D01*
X106853767Y-71883147D01*
X106861722Y-71943577D01*
X106863000Y-71950000D01*
X106863000Y-72450000D01*
X106861722Y-72456424D01*
X106853767Y-72516852D01*
X106846678Y-72532054D01*
X106842980Y-72550646D01*
X106826525Y-72575271D01*
X106814805Y-72600407D01*
X106799512Y-72615699D01*
X106785969Y-72635969D01*
X106765699Y-72649512D01*
X106750407Y-72664805D01*
X106725271Y-72676525D01*
X106700646Y-72692980D01*
X106682054Y-72696678D01*
X106666852Y-72703767D01*
X106606424Y-72711722D01*
X106600000Y-72713000D01*
X106150000Y-72713000D01*
X106143577Y-72711722D01*
X106083147Y-72703767D01*
X106067944Y-72696677D01*
X106049354Y-72692980D01*
X106024730Y-72676527D01*
X105999592Y-72664805D01*
X105984297Y-72649510D01*
X105964031Y-72635969D01*
X105950489Y-72615702D01*
X105935194Y-72600407D01*
X105923470Y-72575266D01*
X105907020Y-72550646D01*
X105903322Y-72532057D01*
X105896232Y-72516852D01*
X105888274Y-72456409D01*
X105887000Y-72450000D01*
X105887000Y-71950000D01*
X105888274Y-71943592D01*
X105896232Y-71883147D01*
X105903322Y-71867940D01*
X105907020Y-71849354D01*
X105923469Y-71824735D01*
X105935194Y-71799592D01*
X105950491Y-71784294D01*
X105964031Y-71764031D01*
X105984294Y-71750491D01*
X105999592Y-71735194D01*
X106024735Y-71723469D01*
X106049354Y-71707020D01*
X106067940Y-71703322D01*
X106083147Y-71696232D01*
X106143592Y-71688274D01*
X106150000Y-71687000D01*
X106600000Y-71687000D01*
X106606409Y-71688274D01*
G37*
G36*
X108156409Y-71688274D02*
G01*
X108216852Y-71696232D01*
X108232057Y-71703322D01*
X108250646Y-71707020D01*
X108275266Y-71723470D01*
X108300407Y-71735194D01*
X108315702Y-71750489D01*
X108335969Y-71764031D01*
X108349510Y-71784297D01*
X108364805Y-71799592D01*
X108376527Y-71824730D01*
X108392980Y-71849354D01*
X108396677Y-71867944D01*
X108403767Y-71883147D01*
X108411722Y-71943577D01*
X108413000Y-71950000D01*
X108413000Y-72450000D01*
X108411722Y-72456424D01*
X108403767Y-72516852D01*
X108396678Y-72532054D01*
X108392980Y-72550646D01*
X108376525Y-72575271D01*
X108364805Y-72600407D01*
X108349512Y-72615699D01*
X108335969Y-72635969D01*
X108315699Y-72649512D01*
X108300407Y-72664805D01*
X108275271Y-72676525D01*
X108250646Y-72692980D01*
X108232054Y-72696678D01*
X108216852Y-72703767D01*
X108156424Y-72711722D01*
X108150000Y-72713000D01*
X107700000Y-72713000D01*
X107693577Y-72711722D01*
X107633147Y-72703767D01*
X107617944Y-72696677D01*
X107599354Y-72692980D01*
X107574730Y-72676527D01*
X107549592Y-72664805D01*
X107534297Y-72649510D01*
X107514031Y-72635969D01*
X107500489Y-72615702D01*
X107485194Y-72600407D01*
X107473470Y-72575266D01*
X107457020Y-72550646D01*
X107453322Y-72532057D01*
X107446232Y-72516852D01*
X107438274Y-72456409D01*
X107437000Y-72450000D01*
X107437000Y-71950000D01*
X107438274Y-71943592D01*
X107446232Y-71883147D01*
X107453322Y-71867940D01*
X107457020Y-71849354D01*
X107473469Y-71824735D01*
X107485194Y-71799592D01*
X107500491Y-71784294D01*
X107514031Y-71764031D01*
X107534294Y-71750491D01*
X107549592Y-71735194D01*
X107574735Y-71723469D01*
X107599354Y-71707020D01*
X107617940Y-71703322D01*
X107633147Y-71696232D01*
X107693592Y-71688274D01*
X107700000Y-71687000D01*
X108150000Y-71687000D01*
X108156409Y-71688274D01*
G37*
G36*
X110787377Y-72124408D02*
G01*
X110840258Y-72159742D01*
X110875592Y-72212623D01*
X110888000Y-72275000D01*
X110888000Y-72525000D01*
X110875592Y-72587377D01*
X110840258Y-72640258D01*
X110787377Y-72675592D01*
X110725000Y-72688000D01*
X110475000Y-72688000D01*
X110412623Y-72675592D01*
X110359742Y-72640258D01*
X110324408Y-72587377D01*
X110312000Y-72525000D01*
X110312000Y-72275000D01*
X110324408Y-72212623D01*
X110359742Y-72159742D01*
X110412623Y-72124408D01*
X110475000Y-72112000D01*
X110725000Y-72112000D01*
X110787377Y-72124408D01*
G37*
G36*
X112987377Y-72124408D02*
G01*
X113040258Y-72159742D01*
X113075592Y-72212623D01*
X113088000Y-72275000D01*
X113088000Y-72525000D01*
X113075592Y-72587377D01*
X113040258Y-72640258D01*
X112987377Y-72675592D01*
X112925000Y-72688000D01*
X112675000Y-72688000D01*
X112612623Y-72675592D01*
X112559742Y-72640258D01*
X112524408Y-72587377D01*
X112512000Y-72525000D01*
X112512000Y-72275000D01*
X112524408Y-72212623D01*
X112559742Y-72159742D01*
X112612623Y-72124408D01*
X112675000Y-72112000D01*
X112925000Y-72112000D01*
X112987377Y-72124408D01*
G37*
G36*
X95679047Y-71587805D02*
G01*
X95727661Y-71593445D01*
X95744271Y-71600779D01*
X95766079Y-71605117D01*
X95789425Y-71620716D01*
X95809012Y-71629365D01*
X95822390Y-71642743D01*
X95843291Y-71656709D01*
X95857256Y-71677609D01*
X95870634Y-71690987D01*
X95879281Y-71710572D01*
X95894883Y-71733921D01*
X95899221Y-71755731D01*
X95906554Y-71772338D01*
X95912192Y-71820942D01*
X95913000Y-71825000D01*
X95913000Y-72375000D01*
X95912192Y-72379059D01*
X95906554Y-72427661D01*
X95899221Y-72444266D01*
X95894883Y-72466079D01*
X95879280Y-72489429D01*
X95870634Y-72509012D01*
X95857258Y-72522387D01*
X95843291Y-72543291D01*
X95822387Y-72557258D01*
X95809012Y-72570634D01*
X95789429Y-72579280D01*
X95766079Y-72594883D01*
X95744266Y-72599221D01*
X95727661Y-72606554D01*
X95679059Y-72612192D01*
X95675000Y-72613000D01*
X95275000Y-72613000D01*
X95270942Y-72612192D01*
X95222338Y-72606554D01*
X95205731Y-72599221D01*
X95183921Y-72594883D01*
X95160572Y-72579281D01*
X95140987Y-72570634D01*
X95127609Y-72557256D01*
X95106709Y-72543291D01*
X95092743Y-72522390D01*
X95079365Y-72509012D01*
X95070716Y-72489425D01*
X95055117Y-72466079D01*
X95050779Y-72444271D01*
X95043445Y-72427661D01*
X95037805Y-72379047D01*
X95037000Y-72375000D01*
X95037000Y-71825000D01*
X95037804Y-71820954D01*
X95043445Y-71772338D01*
X95050779Y-71755727D01*
X95055117Y-71733921D01*
X95070715Y-71710576D01*
X95079365Y-71690987D01*
X95092745Y-71677606D01*
X95106709Y-71656709D01*
X95127606Y-71642745D01*
X95140987Y-71629365D01*
X95160576Y-71620715D01*
X95183921Y-71605117D01*
X95205727Y-71600779D01*
X95222338Y-71593445D01*
X95270954Y-71587804D01*
X95275000Y-71587000D01*
X95675000Y-71587000D01*
X95679047Y-71587805D01*
G37*
G36*
X97329047Y-71587805D02*
G01*
X97377661Y-71593445D01*
X97394271Y-71600779D01*
X97416079Y-71605117D01*
X97439425Y-71620716D01*
X97459012Y-71629365D01*
X97472390Y-71642743D01*
X97493291Y-71656709D01*
X97507256Y-71677609D01*
X97520634Y-71690987D01*
X97529281Y-71710572D01*
X97544883Y-71733921D01*
X97549221Y-71755731D01*
X97556554Y-71772338D01*
X97562192Y-71820942D01*
X97563000Y-71825000D01*
X97563000Y-72375000D01*
X97562192Y-72379059D01*
X97556554Y-72427661D01*
X97549221Y-72444266D01*
X97544883Y-72466079D01*
X97529280Y-72489429D01*
X97520634Y-72509012D01*
X97507258Y-72522387D01*
X97493291Y-72543291D01*
X97472387Y-72557258D01*
X97459012Y-72570634D01*
X97439429Y-72579280D01*
X97416079Y-72594883D01*
X97394266Y-72599221D01*
X97377661Y-72606554D01*
X97329059Y-72612192D01*
X97325000Y-72613000D01*
X96925000Y-72613000D01*
X96920942Y-72612192D01*
X96872338Y-72606554D01*
X96855731Y-72599221D01*
X96833921Y-72594883D01*
X96810572Y-72579281D01*
X96790987Y-72570634D01*
X96777609Y-72557256D01*
X96756709Y-72543291D01*
X96742743Y-72522390D01*
X96729365Y-72509012D01*
X96720716Y-72489425D01*
X96705117Y-72466079D01*
X96700779Y-72444271D01*
X96693445Y-72427661D01*
X96687805Y-72379047D01*
X96687000Y-72375000D01*
X96687000Y-71825000D01*
X96687804Y-71820954D01*
X96693445Y-71772338D01*
X96700779Y-71755727D01*
X96705117Y-71733921D01*
X96720715Y-71710576D01*
X96729365Y-71690987D01*
X96742745Y-71677606D01*
X96756709Y-71656709D01*
X96777606Y-71642745D01*
X96790987Y-71629365D01*
X96810576Y-71620715D01*
X96833921Y-71605117D01*
X96855727Y-71600779D01*
X96872338Y-71593445D01*
X96920954Y-71587804D01*
X96925000Y-71587000D01*
X97325000Y-71587000D01*
X97329047Y-71587805D01*
G37*
G36*
X92560297Y-71587805D02*
G01*
X92613203Y-71593943D01*
X92631279Y-71601924D01*
X92654504Y-71606544D01*
X92679367Y-71623157D01*
X92700858Y-71632646D01*
X92715535Y-71647323D01*
X92737800Y-71662200D01*
X92752676Y-71684464D01*
X92767353Y-71699141D01*
X92776841Y-71720629D01*
X92793456Y-71745496D01*
X92798076Y-71768723D01*
X92806056Y-71786796D01*
X92812192Y-71839691D01*
X92813000Y-71843750D01*
X92813000Y-72281250D01*
X92812192Y-72285309D01*
X92806056Y-72338203D01*
X92798076Y-72356274D01*
X92793456Y-72379504D01*
X92776839Y-72404372D01*
X92767353Y-72425858D01*
X92752678Y-72440532D01*
X92737800Y-72462800D01*
X92715532Y-72477678D01*
X92700858Y-72492353D01*
X92679372Y-72501839D01*
X92654504Y-72518456D01*
X92631274Y-72523076D01*
X92613203Y-72531056D01*
X92560309Y-72537192D01*
X92556250Y-72538000D01*
X92043750Y-72538000D01*
X92039691Y-72537192D01*
X91986796Y-72531056D01*
X91968723Y-72523076D01*
X91945496Y-72518456D01*
X91920629Y-72501841D01*
X91899141Y-72492353D01*
X91884464Y-72477676D01*
X91862200Y-72462800D01*
X91847323Y-72440535D01*
X91832646Y-72425858D01*
X91823157Y-72404367D01*
X91806544Y-72379504D01*
X91801924Y-72356279D01*
X91793943Y-72338203D01*
X91787805Y-72285297D01*
X91787000Y-72281250D01*
X91787000Y-71843750D01*
X91787804Y-71839703D01*
X91793943Y-71786796D01*
X91801924Y-71768719D01*
X91806544Y-71745496D01*
X91823155Y-71720634D01*
X91832646Y-71699141D01*
X91847325Y-71684461D01*
X91862200Y-71662200D01*
X91884461Y-71647325D01*
X91899141Y-71632646D01*
X91920634Y-71623155D01*
X91945496Y-71606544D01*
X91968719Y-71601924D01*
X91986796Y-71593943D01*
X92039703Y-71587804D01*
X92043750Y-71587000D01*
X92556250Y-71587000D01*
X92560297Y-71587805D01*
G37*
G36*
X94129047Y-71037805D02*
G01*
X94177661Y-71043445D01*
X94194271Y-71050779D01*
X94216079Y-71055117D01*
X94239425Y-71070716D01*
X94259012Y-71079365D01*
X94272390Y-71092743D01*
X94293291Y-71106709D01*
X94307256Y-71127609D01*
X94320634Y-71140987D01*
X94329281Y-71160572D01*
X94344883Y-71183921D01*
X94349221Y-71205731D01*
X94356554Y-71222338D01*
X94362192Y-71270942D01*
X94363000Y-71275000D01*
X94363000Y-71675000D01*
X94362192Y-71679059D01*
X94356554Y-71727661D01*
X94349221Y-71744266D01*
X94344883Y-71766079D01*
X94329280Y-71789429D01*
X94320634Y-71809012D01*
X94307258Y-71822387D01*
X94293291Y-71843291D01*
X94272387Y-71857258D01*
X94259012Y-71870634D01*
X94239429Y-71879280D01*
X94216079Y-71894883D01*
X94194266Y-71899221D01*
X94177661Y-71906554D01*
X94129059Y-71912192D01*
X94125000Y-71913000D01*
X93575000Y-71913000D01*
X93570942Y-71912192D01*
X93522338Y-71906554D01*
X93505731Y-71899221D01*
X93483921Y-71894883D01*
X93460572Y-71879281D01*
X93440987Y-71870634D01*
X93427609Y-71857256D01*
X93406709Y-71843291D01*
X93392743Y-71822390D01*
X93379365Y-71809012D01*
X93370716Y-71789425D01*
X93355117Y-71766079D01*
X93350779Y-71744271D01*
X93343445Y-71727661D01*
X93337805Y-71679047D01*
X93337000Y-71675000D01*
X93337000Y-71275000D01*
X93337804Y-71270954D01*
X93343445Y-71222338D01*
X93350779Y-71205727D01*
X93355117Y-71183921D01*
X93370715Y-71160576D01*
X93379365Y-71140987D01*
X93392745Y-71127606D01*
X93406709Y-71106709D01*
X93427606Y-71092745D01*
X93440987Y-71079365D01*
X93460576Y-71070715D01*
X93483921Y-71055117D01*
X93505727Y-71050779D01*
X93522338Y-71043445D01*
X93570954Y-71037804D01*
X93575000Y-71037000D01*
X94125000Y-71037000D01*
X94129047Y-71037805D01*
G37*
G36*
X114379047Y-71012805D02*
G01*
X114427661Y-71018445D01*
X114444271Y-71025779D01*
X114466079Y-71030117D01*
X114489425Y-71045716D01*
X114509012Y-71054365D01*
X114522390Y-71067743D01*
X114543291Y-71081709D01*
X114557256Y-71102609D01*
X114570634Y-71115987D01*
X114579281Y-71135572D01*
X114594883Y-71158921D01*
X114599221Y-71180731D01*
X114606554Y-71197338D01*
X114612192Y-71245942D01*
X114613000Y-71250000D01*
X114613000Y-71650000D01*
X114612192Y-71654059D01*
X114606554Y-71702661D01*
X114599221Y-71719266D01*
X114594883Y-71741079D01*
X114579280Y-71764429D01*
X114570634Y-71784012D01*
X114557258Y-71797387D01*
X114543291Y-71818291D01*
X114522387Y-71832258D01*
X114509012Y-71845634D01*
X114489429Y-71854280D01*
X114466079Y-71869883D01*
X114444266Y-71874221D01*
X114427661Y-71881554D01*
X114379059Y-71887192D01*
X114375000Y-71888000D01*
X113825000Y-71888000D01*
X113820942Y-71887192D01*
X113772338Y-71881554D01*
X113755731Y-71874221D01*
X113733921Y-71869883D01*
X113710572Y-71854281D01*
X113690987Y-71845634D01*
X113677609Y-71832256D01*
X113656709Y-71818291D01*
X113642743Y-71797390D01*
X113629365Y-71784012D01*
X113620716Y-71764425D01*
X113605117Y-71741079D01*
X113600779Y-71719271D01*
X113593445Y-71702661D01*
X113587805Y-71654047D01*
X113587000Y-71650000D01*
X113587000Y-71250000D01*
X113587804Y-71245954D01*
X113593445Y-71197338D01*
X113600779Y-71180727D01*
X113605117Y-71158921D01*
X113620715Y-71135576D01*
X113629365Y-71115987D01*
X113642745Y-71102606D01*
X113656709Y-71081709D01*
X113677606Y-71067745D01*
X113690987Y-71054365D01*
X113710576Y-71045715D01*
X113733921Y-71030117D01*
X113755727Y-71025779D01*
X113772338Y-71018445D01*
X113820954Y-71012804D01*
X113825000Y-71012000D01*
X114375000Y-71012000D01*
X114379047Y-71012805D01*
G37*
G36*
X115929047Y-71012805D02*
G01*
X115977661Y-71018445D01*
X115994271Y-71025779D01*
X116016079Y-71030117D01*
X116039425Y-71045716D01*
X116059012Y-71054365D01*
X116072390Y-71067743D01*
X116093291Y-71081709D01*
X116107256Y-71102609D01*
X116120634Y-71115987D01*
X116129281Y-71135572D01*
X116144883Y-71158921D01*
X116149221Y-71180731D01*
X116156554Y-71197338D01*
X116162192Y-71245942D01*
X116163000Y-71250000D01*
X116163000Y-71650000D01*
X116162192Y-71654059D01*
X116156554Y-71702661D01*
X116149221Y-71719266D01*
X116144883Y-71741079D01*
X116129280Y-71764429D01*
X116120634Y-71784012D01*
X116107258Y-71797387D01*
X116093291Y-71818291D01*
X116072387Y-71832258D01*
X116059012Y-71845634D01*
X116039429Y-71854280D01*
X116016079Y-71869883D01*
X115994266Y-71874221D01*
X115977661Y-71881554D01*
X115929059Y-71887192D01*
X115925000Y-71888000D01*
X115375000Y-71888000D01*
X115370942Y-71887192D01*
X115322338Y-71881554D01*
X115305731Y-71874221D01*
X115283921Y-71869883D01*
X115260572Y-71854281D01*
X115240987Y-71845634D01*
X115227609Y-71832256D01*
X115206709Y-71818291D01*
X115192743Y-71797390D01*
X115179365Y-71784012D01*
X115170716Y-71764425D01*
X115155117Y-71741079D01*
X115150779Y-71719271D01*
X115143445Y-71702661D01*
X115137805Y-71654047D01*
X115137000Y-71650000D01*
X115137000Y-71250000D01*
X115137804Y-71245954D01*
X115143445Y-71197338D01*
X115150779Y-71180727D01*
X115155117Y-71158921D01*
X115170715Y-71135576D01*
X115179365Y-71115987D01*
X115192745Y-71102606D01*
X115206709Y-71081709D01*
X115227606Y-71067745D01*
X115240987Y-71054365D01*
X115260576Y-71045715D01*
X115283921Y-71030117D01*
X115305727Y-71025779D01*
X115322338Y-71018445D01*
X115370954Y-71012804D01*
X115375000Y-71012000D01*
X115925000Y-71012000D01*
X115929047Y-71012805D01*
G37*
G36*
X119764542Y-69114893D02*
G01*
X119776870Y-69123130D01*
X119785107Y-69135458D01*
X119788000Y-69150000D01*
X119788000Y-71450000D01*
X119785107Y-71464542D01*
X119776870Y-71476870D01*
X119764542Y-71485107D01*
X119750000Y-71488000D01*
X117450000Y-71488000D01*
X117435458Y-71485107D01*
X117423130Y-71476870D01*
X117414893Y-71464542D01*
X117412000Y-71450000D01*
X117412000Y-69150000D01*
X117414893Y-69135458D01*
X117423130Y-69123130D01*
X117435458Y-69114893D01*
X117450000Y-69112000D01*
X119750000Y-69112000D01*
X119764542Y-69114893D01*
G37*
G36*
X124264542Y-69114893D02*
G01*
X124276870Y-69123130D01*
X124285107Y-69135458D01*
X124288000Y-69150000D01*
X124288000Y-71450000D01*
X124285107Y-71464542D01*
X124276870Y-71476870D01*
X124264542Y-71485107D01*
X124250000Y-71488000D01*
X121950000Y-71488000D01*
X121935458Y-71485107D01*
X121923130Y-71476870D01*
X121914893Y-71464542D01*
X121912000Y-71450000D01*
X121912000Y-69150000D01*
X121914893Y-69135458D01*
X121923130Y-69123130D01*
X121935458Y-69114893D01*
X121950000Y-69112000D01*
X124250000Y-69112000D01*
X124264542Y-69114893D01*
G37*
G36*
X128764542Y-69114893D02*
G01*
X128776870Y-69123130D01*
X128785107Y-69135458D01*
X128788000Y-69150000D01*
X128788000Y-71450000D01*
X128785107Y-71464542D01*
X128776870Y-71476870D01*
X128764542Y-71485107D01*
X128750000Y-71488000D01*
X126450000Y-71488000D01*
X126435458Y-71485107D01*
X126423130Y-71476870D01*
X126414893Y-71464542D01*
X126412000Y-71450000D01*
X126412000Y-69150000D01*
X126414893Y-69135458D01*
X126423130Y-69123130D01*
X126435458Y-69114893D01*
X126450000Y-69112000D01*
X128750000Y-69112000D01*
X128764542Y-69114893D01*
G37*
G36*
X92556409Y-70088274D02*
G01*
X92616852Y-70096232D01*
X92632057Y-70103322D01*
X92650646Y-70107020D01*
X92675266Y-70123470D01*
X92700407Y-70135194D01*
X92715702Y-70150489D01*
X92735969Y-70164031D01*
X92749510Y-70184297D01*
X92764805Y-70199592D01*
X92776527Y-70224730D01*
X92792980Y-70249354D01*
X92796677Y-70267944D01*
X92803767Y-70283147D01*
X92811722Y-70343577D01*
X92813000Y-70350000D01*
X92813000Y-70800000D01*
X92811722Y-70806424D01*
X92803767Y-70866852D01*
X92796678Y-70882054D01*
X92792980Y-70900646D01*
X92776525Y-70925271D01*
X92764805Y-70950407D01*
X92749512Y-70965699D01*
X92735969Y-70985969D01*
X92715699Y-70999512D01*
X92700407Y-71014805D01*
X92675271Y-71026525D01*
X92650646Y-71042980D01*
X92632054Y-71046678D01*
X92616852Y-71053767D01*
X92556424Y-71061722D01*
X92550000Y-71063000D01*
X92050000Y-71063000D01*
X92043577Y-71061722D01*
X91983147Y-71053767D01*
X91967944Y-71046677D01*
X91949354Y-71042980D01*
X91924730Y-71026527D01*
X91899592Y-71014805D01*
X91884297Y-70999510D01*
X91864031Y-70985969D01*
X91850489Y-70965702D01*
X91835194Y-70950407D01*
X91823470Y-70925266D01*
X91807020Y-70900646D01*
X91803322Y-70882057D01*
X91796232Y-70866852D01*
X91788274Y-70806409D01*
X91787000Y-70800000D01*
X91787000Y-70350000D01*
X91788274Y-70343592D01*
X91796232Y-70283147D01*
X91803322Y-70267940D01*
X91807020Y-70249354D01*
X91823469Y-70224735D01*
X91835194Y-70199592D01*
X91850491Y-70184294D01*
X91864031Y-70164031D01*
X91884294Y-70150491D01*
X91899592Y-70135194D01*
X91924735Y-70123469D01*
X91949354Y-70107020D01*
X91967940Y-70103322D01*
X91983147Y-70096232D01*
X92043592Y-70088274D01*
X92050000Y-70087000D01*
X92550000Y-70087000D01*
X92556409Y-70088274D01*
G37*
G36*
X82311428Y-68805442D02*
G01*
X82507250Y-68881304D01*
X82685798Y-68991856D01*
X82840992Y-69133334D01*
X82967547Y-69300920D01*
X83061153Y-69488907D01*
X83118623Y-69690893D01*
X83138000Y-69900000D01*
X83118623Y-70109107D01*
X83061153Y-70311093D01*
X82967547Y-70499080D01*
X82840992Y-70666666D01*
X82685798Y-70808144D01*
X82507250Y-70918696D01*
X82311428Y-70994558D01*
X82105001Y-71033145D01*
X81894999Y-71033145D01*
X81688572Y-70994558D01*
X81492750Y-70918696D01*
X81314202Y-70808144D01*
X81159008Y-70666666D01*
X81032453Y-70499080D01*
X80938847Y-70311093D01*
X80881377Y-70109107D01*
X80862000Y-69900000D01*
X80881377Y-69690893D01*
X80938847Y-69488907D01*
X81032453Y-69300920D01*
X81159008Y-69133334D01*
X81314202Y-68991856D01*
X81492750Y-68881304D01*
X81688572Y-68805442D01*
X81894999Y-68766855D01*
X82105001Y-68766855D01*
X82311428Y-68805442D01*
G37*
G36*
X96218243Y-68320602D02*
G01*
X96254903Y-68345097D01*
X96279398Y-68381757D01*
X96288000Y-68425000D01*
X96288000Y-69825000D01*
X96279398Y-69868243D01*
X96254903Y-69904903D01*
X96218243Y-69929398D01*
X96175000Y-69938000D01*
X96025000Y-69938000D01*
X95981757Y-69929398D01*
X95945097Y-69904903D01*
X95920602Y-69868243D01*
X95912000Y-69825000D01*
X95912000Y-68425000D01*
X95920602Y-68381757D01*
X95945097Y-68345097D01*
X95981757Y-68320602D01*
X96025000Y-68312000D01*
X96175000Y-68312000D01*
X96218243Y-68320602D01*
G37*
G36*
X96718243Y-68320602D02*
G01*
X96754903Y-68345097D01*
X96779398Y-68381757D01*
X96788000Y-68425000D01*
X96788000Y-69825000D01*
X96779398Y-69868243D01*
X96754903Y-69904903D01*
X96718243Y-69929398D01*
X96675000Y-69938000D01*
X96525000Y-69938000D01*
X96481757Y-69929398D01*
X96445097Y-69904903D01*
X96420602Y-69868243D01*
X96412000Y-69825000D01*
X96412000Y-68425000D01*
X96420602Y-68381757D01*
X96445097Y-68345097D01*
X96481757Y-68320602D01*
X96525000Y-68312000D01*
X96675000Y-68312000D01*
X96718243Y-68320602D01*
G37*
G36*
X97218243Y-68320602D02*
G01*
X97254903Y-68345097D01*
X97279398Y-68381757D01*
X97288000Y-68425000D01*
X97288000Y-69825000D01*
X97279398Y-69868243D01*
X97254903Y-69904903D01*
X97218243Y-69929398D01*
X97175000Y-69938000D01*
X97025000Y-69938000D01*
X96981757Y-69929398D01*
X96945097Y-69904903D01*
X96920602Y-69868243D01*
X96912000Y-69825000D01*
X96912000Y-68425000D01*
X96920602Y-68381757D01*
X96945097Y-68345097D01*
X96981757Y-68320602D01*
X97025000Y-68312000D01*
X97175000Y-68312000D01*
X97218243Y-68320602D01*
G37*
G36*
X97718243Y-68320602D02*
G01*
X97754903Y-68345097D01*
X97779398Y-68381757D01*
X97788000Y-68425000D01*
X97788000Y-69825000D01*
X97779398Y-69868243D01*
X97754903Y-69904903D01*
X97718243Y-69929398D01*
X97675000Y-69938000D01*
X97525000Y-69938000D01*
X97481757Y-69929398D01*
X97445097Y-69904903D01*
X97420602Y-69868243D01*
X97412000Y-69825000D01*
X97412000Y-68425000D01*
X97420602Y-68381757D01*
X97445097Y-68345097D01*
X97481757Y-68320602D01*
X97525000Y-68312000D01*
X97675000Y-68312000D01*
X97718243Y-68320602D01*
G37*
G36*
X98218243Y-68320602D02*
G01*
X98254903Y-68345097D01*
X98279398Y-68381757D01*
X98288000Y-68425000D01*
X98288000Y-69825000D01*
X98279398Y-69868243D01*
X98254903Y-69904903D01*
X98218243Y-69929398D01*
X98175000Y-69938000D01*
X98025000Y-69938000D01*
X97981757Y-69929398D01*
X97945097Y-69904903D01*
X97920602Y-69868243D01*
X97912000Y-69825000D01*
X97912000Y-68425000D01*
X97920602Y-68381757D01*
X97945097Y-68345097D01*
X97981757Y-68320602D01*
X98025000Y-68312000D01*
X98175000Y-68312000D01*
X98218243Y-68320602D01*
G37*
G36*
X98718243Y-68320602D02*
G01*
X98754903Y-68345097D01*
X98779398Y-68381757D01*
X98788000Y-68425000D01*
X98788000Y-69825000D01*
X98779398Y-69868243D01*
X98754903Y-69904903D01*
X98718243Y-69929398D01*
X98675000Y-69938000D01*
X98525000Y-69938000D01*
X98481757Y-69929398D01*
X98445097Y-69904903D01*
X98420602Y-69868243D01*
X98412000Y-69825000D01*
X98412000Y-68425000D01*
X98420602Y-68381757D01*
X98445097Y-68345097D01*
X98481757Y-68320602D01*
X98525000Y-68312000D01*
X98675000Y-68312000D01*
X98718243Y-68320602D01*
G37*
G36*
X99218243Y-68320602D02*
G01*
X99254903Y-68345097D01*
X99279398Y-68381757D01*
X99288000Y-68425000D01*
X99288000Y-69825000D01*
X99279398Y-69868243D01*
X99254903Y-69904903D01*
X99218243Y-69929398D01*
X99175000Y-69938000D01*
X99025000Y-69938000D01*
X98981757Y-69929398D01*
X98945097Y-69904903D01*
X98920602Y-69868243D01*
X98912000Y-69825000D01*
X98912000Y-68425000D01*
X98920602Y-68381757D01*
X98945097Y-68345097D01*
X98981757Y-68320602D01*
X99025000Y-68312000D01*
X99175000Y-68312000D01*
X99218243Y-68320602D01*
G37*
G36*
X99718243Y-68320602D02*
G01*
X99754903Y-68345097D01*
X99779398Y-68381757D01*
X99788000Y-68425000D01*
X99788000Y-69825000D01*
X99779398Y-69868243D01*
X99754903Y-69904903D01*
X99718243Y-69929398D01*
X99675000Y-69938000D01*
X99525000Y-69938000D01*
X99481757Y-69929398D01*
X99445097Y-69904903D01*
X99420602Y-69868243D01*
X99412000Y-69825000D01*
X99412000Y-68425000D01*
X99420602Y-68381757D01*
X99445097Y-68345097D01*
X99481757Y-68320602D01*
X99525000Y-68312000D01*
X99675000Y-68312000D01*
X99718243Y-68320602D01*
G37*
G36*
X100218243Y-68320602D02*
G01*
X100254903Y-68345097D01*
X100279398Y-68381757D01*
X100288000Y-68425000D01*
X100288000Y-69825000D01*
X100279398Y-69868243D01*
X100254903Y-69904903D01*
X100218243Y-69929398D01*
X100175000Y-69938000D01*
X100025000Y-69938000D01*
X99981757Y-69929398D01*
X99945097Y-69904903D01*
X99920602Y-69868243D01*
X99912000Y-69825000D01*
X99912000Y-68425000D01*
X99920602Y-68381757D01*
X99945097Y-68345097D01*
X99981757Y-68320602D01*
X100025000Y-68312000D01*
X100175000Y-68312000D01*
X100218243Y-68320602D01*
G37*
G36*
X100718243Y-68320602D02*
G01*
X100754903Y-68345097D01*
X100779398Y-68381757D01*
X100788000Y-68425000D01*
X100788000Y-69825000D01*
X100779398Y-69868243D01*
X100754903Y-69904903D01*
X100718243Y-69929398D01*
X100675000Y-69938000D01*
X100525000Y-69938000D01*
X100481757Y-69929398D01*
X100445097Y-69904903D01*
X100420602Y-69868243D01*
X100412000Y-69825000D01*
X100412000Y-68425000D01*
X100420602Y-68381757D01*
X100445097Y-68345097D01*
X100481757Y-68320602D01*
X100525000Y-68312000D01*
X100675000Y-68312000D01*
X100718243Y-68320602D01*
G37*
G36*
X101218243Y-68320602D02*
G01*
X101254903Y-68345097D01*
X101279398Y-68381757D01*
X101288000Y-68425000D01*
X101288000Y-69825000D01*
X101279398Y-69868243D01*
X101254903Y-69904903D01*
X101218243Y-69929398D01*
X101175000Y-69938000D01*
X101025000Y-69938000D01*
X100981757Y-69929398D01*
X100945097Y-69904903D01*
X100920602Y-69868243D01*
X100912000Y-69825000D01*
X100912000Y-68425000D01*
X100920602Y-68381757D01*
X100945097Y-68345097D01*
X100981757Y-68320602D01*
X101025000Y-68312000D01*
X101175000Y-68312000D01*
X101218243Y-68320602D01*
G37*
G36*
X101718243Y-68320602D02*
G01*
X101754903Y-68345097D01*
X101779398Y-68381757D01*
X101788000Y-68425000D01*
X101788000Y-69825000D01*
X101779398Y-69868243D01*
X101754903Y-69904903D01*
X101718243Y-69929398D01*
X101675000Y-69938000D01*
X101525000Y-69938000D01*
X101481757Y-69929398D01*
X101445097Y-69904903D01*
X101420602Y-69868243D01*
X101412000Y-69825000D01*
X101412000Y-68425000D01*
X101420602Y-68381757D01*
X101445097Y-68345097D01*
X101481757Y-68320602D01*
X101525000Y-68312000D01*
X101675000Y-68312000D01*
X101718243Y-68320602D01*
G37*
G36*
X102218243Y-68320602D02*
G01*
X102254903Y-68345097D01*
X102279398Y-68381757D01*
X102288000Y-68425000D01*
X102288000Y-69825000D01*
X102279398Y-69868243D01*
X102254903Y-69904903D01*
X102218243Y-69929398D01*
X102175000Y-69938000D01*
X102025000Y-69938000D01*
X101981757Y-69929398D01*
X101945097Y-69904903D01*
X101920602Y-69868243D01*
X101912000Y-69825000D01*
X101912000Y-68425000D01*
X101920602Y-68381757D01*
X101945097Y-68345097D01*
X101981757Y-68320602D01*
X102025000Y-68312000D01*
X102175000Y-68312000D01*
X102218243Y-68320602D01*
G37*
G36*
X102718243Y-68320602D02*
G01*
X102754903Y-68345097D01*
X102779398Y-68381757D01*
X102788000Y-68425000D01*
X102788000Y-69825000D01*
X102779398Y-69868243D01*
X102754903Y-69904903D01*
X102718243Y-69929398D01*
X102675000Y-69938000D01*
X102525000Y-69938000D01*
X102481757Y-69929398D01*
X102445097Y-69904903D01*
X102420602Y-69868243D01*
X102412000Y-69825000D01*
X102412000Y-68425000D01*
X102420602Y-68381757D01*
X102445097Y-68345097D01*
X102481757Y-68320602D01*
X102525000Y-68312000D01*
X102675000Y-68312000D01*
X102718243Y-68320602D01*
G37*
G36*
X103218243Y-68320602D02*
G01*
X103254903Y-68345097D01*
X103279398Y-68381757D01*
X103288000Y-68425000D01*
X103288000Y-69825000D01*
X103279398Y-69868243D01*
X103254903Y-69904903D01*
X103218243Y-69929398D01*
X103175000Y-69938000D01*
X103025000Y-69938000D01*
X102981757Y-69929398D01*
X102945097Y-69904903D01*
X102920602Y-69868243D01*
X102912000Y-69825000D01*
X102912000Y-68425000D01*
X102920602Y-68381757D01*
X102945097Y-68345097D01*
X102981757Y-68320602D01*
X103025000Y-68312000D01*
X103175000Y-68312000D01*
X103218243Y-68320602D01*
G37*
G36*
X103718243Y-68320602D02*
G01*
X103754903Y-68345097D01*
X103779398Y-68381757D01*
X103788000Y-68425000D01*
X103788000Y-69825000D01*
X103779398Y-69868243D01*
X103754903Y-69904903D01*
X103718243Y-69929398D01*
X103675000Y-69938000D01*
X103525000Y-69938000D01*
X103481757Y-69929398D01*
X103445097Y-69904903D01*
X103420602Y-69868243D01*
X103412000Y-69825000D01*
X103412000Y-68425000D01*
X103420602Y-68381757D01*
X103445097Y-68345097D01*
X103481757Y-68320602D01*
X103525000Y-68312000D01*
X103675000Y-68312000D01*
X103718243Y-68320602D01*
G37*
G36*
X92556409Y-68538274D02*
G01*
X92616852Y-68546232D01*
X92632057Y-68553322D01*
X92650646Y-68557020D01*
X92675266Y-68573470D01*
X92700407Y-68585194D01*
X92715702Y-68600489D01*
X92735969Y-68614031D01*
X92749510Y-68634297D01*
X92764805Y-68649592D01*
X92776527Y-68674730D01*
X92792980Y-68699354D01*
X92796677Y-68717944D01*
X92803767Y-68733147D01*
X92811722Y-68793577D01*
X92813000Y-68800000D01*
X92813000Y-69250000D01*
X92811722Y-69256424D01*
X92803767Y-69316852D01*
X92796678Y-69332054D01*
X92792980Y-69350646D01*
X92776525Y-69375271D01*
X92764805Y-69400407D01*
X92749512Y-69415699D01*
X92735969Y-69435969D01*
X92715699Y-69449512D01*
X92700407Y-69464805D01*
X92675271Y-69476525D01*
X92650646Y-69492980D01*
X92632054Y-69496678D01*
X92616852Y-69503767D01*
X92556424Y-69511722D01*
X92550000Y-69513000D01*
X92050000Y-69513000D01*
X92043577Y-69511722D01*
X91983147Y-69503767D01*
X91967944Y-69496677D01*
X91949354Y-69492980D01*
X91924730Y-69476527D01*
X91899592Y-69464805D01*
X91884297Y-69449510D01*
X91864031Y-69435969D01*
X91850489Y-69415702D01*
X91835194Y-69400407D01*
X91823470Y-69375266D01*
X91807020Y-69350646D01*
X91803322Y-69332057D01*
X91796232Y-69316852D01*
X91788274Y-69256409D01*
X91787000Y-69250000D01*
X91787000Y-68800000D01*
X91788274Y-68793592D01*
X91796232Y-68733147D01*
X91803322Y-68717940D01*
X91807020Y-68699354D01*
X91823469Y-68674735D01*
X91835194Y-68649592D01*
X91850491Y-68634294D01*
X91864031Y-68614031D01*
X91884294Y-68600491D01*
X91899592Y-68585194D01*
X91924735Y-68573469D01*
X91949354Y-68557020D01*
X91967940Y-68553322D01*
X91983147Y-68546232D01*
X92043592Y-68538274D01*
X92050000Y-68537000D01*
X92550000Y-68537000D01*
X92556409Y-68538274D01*
G37*
G36*
X82311428Y-66265442D02*
G01*
X82507250Y-66341304D01*
X82685798Y-66451856D01*
X82840992Y-66593334D01*
X82967547Y-66760920D01*
X83061153Y-66948907D01*
X83118623Y-67150893D01*
X83138000Y-67360000D01*
X83118623Y-67569107D01*
X83061153Y-67771093D01*
X82967547Y-67959080D01*
X82840992Y-68126666D01*
X82685798Y-68268144D01*
X82507250Y-68378696D01*
X82311428Y-68454558D01*
X82105001Y-68493145D01*
X81894999Y-68493145D01*
X81688572Y-68454558D01*
X81492750Y-68378696D01*
X81314202Y-68268144D01*
X81159008Y-68126666D01*
X81032453Y-67959080D01*
X80938847Y-67771093D01*
X80881377Y-67569107D01*
X80862000Y-67360000D01*
X80881377Y-67150893D01*
X80938847Y-66948907D01*
X81032453Y-66760920D01*
X81159008Y-66593334D01*
X81314202Y-66451856D01*
X81492750Y-66341304D01*
X81688572Y-66265442D01*
X81894999Y-66226855D01*
X82105001Y-66226855D01*
X82311428Y-66265442D01*
G37*
G36*
X92556409Y-66988274D02*
G01*
X92616852Y-66996232D01*
X92632057Y-67003322D01*
X92650646Y-67007020D01*
X92675266Y-67023470D01*
X92700407Y-67035194D01*
X92715702Y-67050489D01*
X92735969Y-67064031D01*
X92749510Y-67084297D01*
X92764805Y-67099592D01*
X92776527Y-67124730D01*
X92792980Y-67149354D01*
X92796677Y-67167944D01*
X92803767Y-67183147D01*
X92811722Y-67243577D01*
X92813000Y-67250000D01*
X92813000Y-67700000D01*
X92811722Y-67706424D01*
X92803767Y-67766852D01*
X92796678Y-67782054D01*
X92792980Y-67800646D01*
X92776525Y-67825271D01*
X92764805Y-67850407D01*
X92749512Y-67865699D01*
X92735969Y-67885969D01*
X92715699Y-67899512D01*
X92700407Y-67914805D01*
X92675271Y-67926525D01*
X92650646Y-67942980D01*
X92632054Y-67946678D01*
X92616852Y-67953767D01*
X92556424Y-67961722D01*
X92550000Y-67963000D01*
X92050000Y-67963000D01*
X92043577Y-67961722D01*
X91983147Y-67953767D01*
X91967944Y-67946677D01*
X91949354Y-67942980D01*
X91924730Y-67926527D01*
X91899592Y-67914805D01*
X91884297Y-67899510D01*
X91864031Y-67885969D01*
X91850489Y-67865702D01*
X91835194Y-67850407D01*
X91823470Y-67825266D01*
X91807020Y-67800646D01*
X91803322Y-67782057D01*
X91796232Y-67766852D01*
X91788274Y-67706409D01*
X91787000Y-67700000D01*
X91787000Y-67250000D01*
X91788274Y-67243592D01*
X91796232Y-67183147D01*
X91803322Y-67167940D01*
X91807020Y-67149354D01*
X91823469Y-67124735D01*
X91835194Y-67099592D01*
X91850491Y-67084294D01*
X91864031Y-67064031D01*
X91884294Y-67050491D01*
X91899592Y-67035194D01*
X91924735Y-67023469D01*
X91949354Y-67007020D01*
X91967940Y-67003322D01*
X91983147Y-66996232D01*
X92043592Y-66988274D01*
X92050000Y-66987000D01*
X92550000Y-66987000D01*
X92556409Y-66988274D01*
G37*
G36*
X94918243Y-67020602D02*
G01*
X94954903Y-67045097D01*
X94979398Y-67081757D01*
X94988000Y-67125000D01*
X94988000Y-67275000D01*
X94979398Y-67318243D01*
X94954903Y-67354903D01*
X94918243Y-67379398D01*
X94875000Y-67388000D01*
X93475000Y-67388000D01*
X93431757Y-67379398D01*
X93395097Y-67354903D01*
X93370602Y-67318243D01*
X93362000Y-67275000D01*
X93362000Y-67125000D01*
X93370602Y-67081757D01*
X93395097Y-67045097D01*
X93431757Y-67020602D01*
X93475000Y-67012000D01*
X94875000Y-67012000D01*
X94918243Y-67020602D01*
G37*
G36*
X106268243Y-67020602D02*
G01*
X106304903Y-67045097D01*
X106329398Y-67081757D01*
X106338000Y-67125000D01*
X106338000Y-67275000D01*
X106329398Y-67318243D01*
X106304903Y-67354903D01*
X106268243Y-67379398D01*
X106225000Y-67388000D01*
X104825000Y-67388000D01*
X104781757Y-67379398D01*
X104745097Y-67354903D01*
X104720602Y-67318243D01*
X104712000Y-67275000D01*
X104712000Y-67125000D01*
X104720602Y-67081757D01*
X104745097Y-67045097D01*
X104781757Y-67020602D01*
X104825000Y-67012000D01*
X106225000Y-67012000D01*
X106268243Y-67020602D01*
G37*
G36*
X119764542Y-64614893D02*
G01*
X119776870Y-64623130D01*
X119785107Y-64635458D01*
X119788000Y-64650000D01*
X119788000Y-66950000D01*
X119785107Y-66964542D01*
X119776870Y-66976870D01*
X119764542Y-66985107D01*
X119750000Y-66988000D01*
X117450000Y-66988000D01*
X117435458Y-66985107D01*
X117423130Y-66976870D01*
X117414893Y-66964542D01*
X117412000Y-66950000D01*
X117412000Y-64650000D01*
X117414893Y-64635458D01*
X117423130Y-64623130D01*
X117435458Y-64614893D01*
X117450000Y-64612000D01*
X119750000Y-64612000D01*
X119764542Y-64614893D01*
G37*
G36*
X124264542Y-64614893D02*
G01*
X124276870Y-64623130D01*
X124285107Y-64635458D01*
X124288000Y-64650000D01*
X124288000Y-66950000D01*
X124285107Y-66964542D01*
X124276870Y-66976870D01*
X124264542Y-66985107D01*
X124250000Y-66988000D01*
X121950000Y-66988000D01*
X121935458Y-66985107D01*
X121923130Y-66976870D01*
X121914893Y-66964542D01*
X121912000Y-66950000D01*
X121912000Y-64650000D01*
X121914893Y-64635458D01*
X121923130Y-64623130D01*
X121935458Y-64614893D01*
X121950000Y-64612000D01*
X124250000Y-64612000D01*
X124264542Y-64614893D01*
G37*
G36*
X94918243Y-66520602D02*
G01*
X94954903Y-66545097D01*
X94979398Y-66581757D01*
X94988000Y-66625000D01*
X94988000Y-66775000D01*
X94979398Y-66818243D01*
X94954903Y-66854903D01*
X94918243Y-66879398D01*
X94875000Y-66888000D01*
X93475000Y-66888000D01*
X93431757Y-66879398D01*
X93395097Y-66854903D01*
X93370602Y-66818243D01*
X93362000Y-66775000D01*
X93362000Y-66625000D01*
X93370602Y-66581757D01*
X93395097Y-66545097D01*
X93431757Y-66520602D01*
X93475000Y-66512000D01*
X94875000Y-66512000D01*
X94918243Y-66520602D01*
G37*
G36*
X106268243Y-66520602D02*
G01*
X106304903Y-66545097D01*
X106329398Y-66581757D01*
X106338000Y-66625000D01*
X106338000Y-66775000D01*
X106329398Y-66818243D01*
X106304903Y-66854903D01*
X106268243Y-66879398D01*
X106225000Y-66888000D01*
X104825000Y-66888000D01*
X104781757Y-66879398D01*
X104745097Y-66854903D01*
X104720602Y-66818243D01*
X104712000Y-66775000D01*
X104712000Y-66625000D01*
X104720602Y-66581757D01*
X104745097Y-66545097D01*
X104781757Y-66520602D01*
X104825000Y-66512000D01*
X106225000Y-66512000D01*
X106268243Y-66520602D01*
G37*
G36*
X110564542Y-65064893D02*
G01*
X110576870Y-65073130D01*
X110585107Y-65085458D01*
X110588000Y-65100000D01*
X110588000Y-66700000D01*
X110585107Y-66714542D01*
X110576870Y-66726870D01*
X110564542Y-66735107D01*
X110550000Y-66738000D01*
X108950000Y-66738000D01*
X108935458Y-66735107D01*
X108923130Y-66726870D01*
X108914893Y-66714542D01*
X108912000Y-66700000D01*
X108912000Y-65100000D01*
X108914893Y-65085458D01*
X108923130Y-65073130D01*
X108935458Y-65064893D01*
X108950000Y-65062000D01*
X110550000Y-65062000D01*
X110564542Y-65064893D01*
G37*
G36*
X114008956Y-65103015D02*
G01*
X114169000Y-65174271D01*
X114310731Y-65277245D01*
X114427956Y-65407436D01*
X114515551Y-65559155D01*
X114569688Y-65725770D01*
X114588000Y-65900000D01*
X114569688Y-66074230D01*
X114515551Y-66240845D01*
X114427956Y-66392564D01*
X114310731Y-66522755D01*
X114169000Y-66625729D01*
X114008956Y-66696985D01*
X113837595Y-66733409D01*
X113662405Y-66733409D01*
X113491044Y-66696985D01*
X113331000Y-66625729D01*
X113189269Y-66522755D01*
X113072044Y-66392564D01*
X112984449Y-66240845D01*
X112930312Y-66074230D01*
X112912000Y-65900000D01*
X112930312Y-65725770D01*
X112984449Y-65559155D01*
X113072044Y-65407436D01*
X113189269Y-65277245D01*
X113331000Y-65174271D01*
X113491044Y-65103015D01*
X113662405Y-65066591D01*
X113837595Y-65066591D01*
X114008956Y-65103015D01*
G37*
G36*
X129764542Y-65014893D02*
G01*
X129776870Y-65023130D01*
X129785107Y-65035458D01*
X129788000Y-65050000D01*
X129788000Y-66550000D01*
X129785107Y-66564542D01*
X129776870Y-66576870D01*
X129764542Y-66585107D01*
X129750000Y-66588000D01*
X128250000Y-66588000D01*
X128235458Y-66585107D01*
X128223130Y-66576870D01*
X128214893Y-66564542D01*
X128212000Y-66550000D01*
X128212000Y-65050000D01*
X128214893Y-65035458D01*
X128223130Y-65023130D01*
X128235458Y-65014893D01*
X128250000Y-65012000D01*
X129750000Y-65012000D01*
X129764542Y-65014893D01*
G37*
G36*
X92556409Y-65438274D02*
G01*
X92616852Y-65446232D01*
X92632057Y-65453322D01*
X92650646Y-65457020D01*
X92675266Y-65473470D01*
X92700407Y-65485194D01*
X92715702Y-65500489D01*
X92735969Y-65514031D01*
X92749510Y-65534297D01*
X92764805Y-65549592D01*
X92776527Y-65574730D01*
X92792980Y-65599354D01*
X92796677Y-65617944D01*
X92803767Y-65633147D01*
X92811722Y-65693577D01*
X92813000Y-65700000D01*
X92813000Y-66150000D01*
X92811722Y-66156424D01*
X92803767Y-66216852D01*
X92796678Y-66232054D01*
X92792980Y-66250646D01*
X92776525Y-66275271D01*
X92764805Y-66300407D01*
X92749512Y-66315699D01*
X92735969Y-66335969D01*
X92715699Y-66349512D01*
X92700407Y-66364805D01*
X92675271Y-66376525D01*
X92650646Y-66392980D01*
X92632054Y-66396678D01*
X92616852Y-66403767D01*
X92556424Y-66411722D01*
X92550000Y-66413000D01*
X92050000Y-66413000D01*
X92043577Y-66411722D01*
X91983147Y-66403767D01*
X91967944Y-66396677D01*
X91949354Y-66392980D01*
X91924730Y-66376527D01*
X91899592Y-66364805D01*
X91884297Y-66349510D01*
X91864031Y-66335969D01*
X91850489Y-66315702D01*
X91835194Y-66300407D01*
X91823470Y-66275266D01*
X91807020Y-66250646D01*
X91803322Y-66232057D01*
X91796232Y-66216852D01*
X91788274Y-66156409D01*
X91787000Y-66150000D01*
X91787000Y-65700000D01*
X91788274Y-65693592D01*
X91796232Y-65633147D01*
X91803322Y-65617940D01*
X91807020Y-65599354D01*
X91823469Y-65574735D01*
X91835194Y-65549592D01*
X91850491Y-65534294D01*
X91864031Y-65514031D01*
X91884294Y-65500491D01*
X91899592Y-65485194D01*
X91924735Y-65473469D01*
X91949354Y-65457020D01*
X91967940Y-65453322D01*
X91983147Y-65446232D01*
X92043592Y-65438274D01*
X92050000Y-65437000D01*
X92550000Y-65437000D01*
X92556409Y-65438274D01*
G37*
G36*
X94918243Y-66020602D02*
G01*
X94954903Y-66045097D01*
X94979398Y-66081757D01*
X94988000Y-66125000D01*
X94988000Y-66275000D01*
X94979398Y-66318243D01*
X94954903Y-66354903D01*
X94918243Y-66379398D01*
X94875000Y-66388000D01*
X93475000Y-66388000D01*
X93431757Y-66379398D01*
X93395097Y-66354903D01*
X93370602Y-66318243D01*
X93362000Y-66275000D01*
X93362000Y-66125000D01*
X93370602Y-66081757D01*
X93395097Y-66045097D01*
X93431757Y-66020602D01*
X93475000Y-66012000D01*
X94875000Y-66012000D01*
X94918243Y-66020602D01*
G37*
G36*
X106268243Y-66020602D02*
G01*
X106304903Y-66045097D01*
X106329398Y-66081757D01*
X106338000Y-66125000D01*
X106338000Y-66275000D01*
X106329398Y-66318243D01*
X106304903Y-66354903D01*
X106268243Y-66379398D01*
X106225000Y-66388000D01*
X104825000Y-66388000D01*
X104781757Y-66379398D01*
X104745097Y-66354903D01*
X104720602Y-66318243D01*
X104712000Y-66275000D01*
X104712000Y-66125000D01*
X104720602Y-66081757D01*
X104745097Y-66045097D01*
X104781757Y-66020602D01*
X104825000Y-66012000D01*
X106225000Y-66012000D01*
X106268243Y-66020602D01*
G37*
G36*
X82311428Y-63725442D02*
G01*
X82507250Y-63801304D01*
X82685798Y-63911856D01*
X82840992Y-64053334D01*
X82967547Y-64220920D01*
X83061153Y-64408907D01*
X83118623Y-64610893D01*
X83138000Y-64820000D01*
X83118623Y-65029107D01*
X83061153Y-65231093D01*
X82967547Y-65419080D01*
X82840992Y-65586666D01*
X82685798Y-65728144D01*
X82507250Y-65838696D01*
X82311428Y-65914558D01*
X82105001Y-65953145D01*
X81894999Y-65953145D01*
X81688572Y-65914558D01*
X81492750Y-65838696D01*
X81314202Y-65728144D01*
X81159008Y-65586666D01*
X81032453Y-65419080D01*
X80938847Y-65231093D01*
X80881377Y-65029107D01*
X80862000Y-64820000D01*
X80881377Y-64610893D01*
X80938847Y-64408907D01*
X81032453Y-64220920D01*
X81159008Y-64053334D01*
X81314202Y-63911856D01*
X81492750Y-63801304D01*
X81688572Y-63725442D01*
X81894999Y-63686855D01*
X82105001Y-63686855D01*
X82311428Y-63725442D01*
G37*
G36*
X94918243Y-65520602D02*
G01*
X94954903Y-65545097D01*
X94979398Y-65581757D01*
X94988000Y-65625000D01*
X94988000Y-65775000D01*
X94979398Y-65818243D01*
X94954903Y-65854903D01*
X94918243Y-65879398D01*
X94875000Y-65888000D01*
X93475000Y-65888000D01*
X93431757Y-65879398D01*
X93395097Y-65854903D01*
X93370602Y-65818243D01*
X93362000Y-65775000D01*
X93362000Y-65625000D01*
X93370602Y-65581757D01*
X93395097Y-65545097D01*
X93431757Y-65520602D01*
X93475000Y-65512000D01*
X94875000Y-65512000D01*
X94918243Y-65520602D01*
G37*
G36*
X106268243Y-65520602D02*
G01*
X106304903Y-65545097D01*
X106329398Y-65581757D01*
X106338000Y-65625000D01*
X106338000Y-65775000D01*
X106329398Y-65818243D01*
X106304903Y-65854903D01*
X106268243Y-65879398D01*
X106225000Y-65888000D01*
X104825000Y-65888000D01*
X104781757Y-65879398D01*
X104745097Y-65854903D01*
X104720602Y-65818243D01*
X104712000Y-65775000D01*
X104712000Y-65625000D01*
X104720602Y-65581757D01*
X104745097Y-65545097D01*
X104781757Y-65520602D01*
X104825000Y-65512000D01*
X106225000Y-65512000D01*
X106268243Y-65520602D01*
G37*
G36*
X94918243Y-65020602D02*
G01*
X94954903Y-65045097D01*
X94979398Y-65081757D01*
X94988000Y-65125000D01*
X94988000Y-65275000D01*
X94979398Y-65318243D01*
X94954903Y-65354903D01*
X94918243Y-65379398D01*
X94875000Y-65388000D01*
X93475000Y-65388000D01*
X93431757Y-65379398D01*
X93395097Y-65354903D01*
X93370602Y-65318243D01*
X93362000Y-65275000D01*
X93362000Y-65125000D01*
X93370602Y-65081757D01*
X93395097Y-65045097D01*
X93431757Y-65020602D01*
X93475000Y-65012000D01*
X94875000Y-65012000D01*
X94918243Y-65020602D01*
G37*
G36*
X106268243Y-65020602D02*
G01*
X106304903Y-65045097D01*
X106329398Y-65081757D01*
X106338000Y-65125000D01*
X106338000Y-65275000D01*
X106329398Y-65318243D01*
X106304903Y-65354903D01*
X106268243Y-65379398D01*
X106225000Y-65388000D01*
X104825000Y-65388000D01*
X104781757Y-65379398D01*
X104745097Y-65354903D01*
X104720602Y-65318243D01*
X104712000Y-65275000D01*
X104712000Y-65125000D01*
X104720602Y-65081757D01*
X104745097Y-65045097D01*
X104781757Y-65020602D01*
X104825000Y-65012000D01*
X106225000Y-65012000D01*
X106268243Y-65020602D01*
G37*
G36*
X94918243Y-64520602D02*
G01*
X94954903Y-64545097D01*
X94979398Y-64581757D01*
X94988000Y-64625000D01*
X94988000Y-64775000D01*
X94979398Y-64818243D01*
X94954903Y-64854903D01*
X94918243Y-64879398D01*
X94875000Y-64888000D01*
X93475000Y-64888000D01*
X93431757Y-64879398D01*
X93395097Y-64854903D01*
X93370602Y-64818243D01*
X93362000Y-64775000D01*
X93362000Y-64625000D01*
X93370602Y-64581757D01*
X93395097Y-64545097D01*
X93431757Y-64520602D01*
X93475000Y-64512000D01*
X94875000Y-64512000D01*
X94918243Y-64520602D01*
G37*
G36*
X106268243Y-64520602D02*
G01*
X106304903Y-64545097D01*
X106329398Y-64581757D01*
X106338000Y-64625000D01*
X106338000Y-64775000D01*
X106329398Y-64818243D01*
X106304903Y-64854903D01*
X106268243Y-64879398D01*
X106225000Y-64888000D01*
X104825000Y-64888000D01*
X104781757Y-64879398D01*
X104745097Y-64854903D01*
X104720602Y-64818243D01*
X104712000Y-64775000D01*
X104712000Y-64625000D01*
X104720602Y-64581757D01*
X104745097Y-64545097D01*
X104781757Y-64520602D01*
X104825000Y-64512000D01*
X106225000Y-64512000D01*
X106268243Y-64520602D01*
G37*
G36*
X94918243Y-64020602D02*
G01*
X94954903Y-64045097D01*
X94979398Y-64081757D01*
X94988000Y-64125000D01*
X94988000Y-64275000D01*
X94979398Y-64318243D01*
X94954903Y-64354903D01*
X94918243Y-64379398D01*
X94875000Y-64388000D01*
X93475000Y-64388000D01*
X93431757Y-64379398D01*
X93395097Y-64354903D01*
X93370602Y-64318243D01*
X93362000Y-64275000D01*
X93362000Y-64125000D01*
X93370602Y-64081757D01*
X93395097Y-64045097D01*
X93431757Y-64020602D01*
X93475000Y-64012000D01*
X94875000Y-64012000D01*
X94918243Y-64020602D01*
G37*
G36*
X106268243Y-64020602D02*
G01*
X106304903Y-64045097D01*
X106329398Y-64081757D01*
X106338000Y-64125000D01*
X106338000Y-64275000D01*
X106329398Y-64318243D01*
X106304903Y-64354903D01*
X106268243Y-64379398D01*
X106225000Y-64388000D01*
X104825000Y-64388000D01*
X104781757Y-64379398D01*
X104745097Y-64354903D01*
X104720602Y-64318243D01*
X104712000Y-64275000D01*
X104712000Y-64125000D01*
X104720602Y-64081757D01*
X104745097Y-64045097D01*
X104781757Y-64020602D01*
X104825000Y-64012000D01*
X106225000Y-64012000D01*
X106268243Y-64020602D01*
G37*
G36*
X94918243Y-63520602D02*
G01*
X94954903Y-63545097D01*
X94979398Y-63581757D01*
X94988000Y-63625000D01*
X94988000Y-63775000D01*
X94979398Y-63818243D01*
X94954903Y-63854903D01*
X94918243Y-63879398D01*
X94875000Y-63888000D01*
X93475000Y-63888000D01*
X93431757Y-63879398D01*
X93395097Y-63854903D01*
X93370602Y-63818243D01*
X93362000Y-63775000D01*
X93362000Y-63625000D01*
X93370602Y-63581757D01*
X93395097Y-63545097D01*
X93431757Y-63520602D01*
X93475000Y-63512000D01*
X94875000Y-63512000D01*
X94918243Y-63520602D01*
G37*
G36*
X106268243Y-63520602D02*
G01*
X106304903Y-63545097D01*
X106329398Y-63581757D01*
X106338000Y-63625000D01*
X106338000Y-63775000D01*
X106329398Y-63818243D01*
X106304903Y-63854903D01*
X106268243Y-63879398D01*
X106225000Y-63888000D01*
X104825000Y-63888000D01*
X104781757Y-63879398D01*
X104745097Y-63854903D01*
X104720602Y-63818243D01*
X104712000Y-63775000D01*
X104712000Y-63625000D01*
X104720602Y-63581757D01*
X104745097Y-63545097D01*
X104781757Y-63520602D01*
X104825000Y-63512000D01*
X106225000Y-63512000D01*
X106268243Y-63520602D01*
G37*
G36*
X82311428Y-61185442D02*
G01*
X82507250Y-61261304D01*
X82685798Y-61371856D01*
X82840992Y-61513334D01*
X82967547Y-61680920D01*
X83061153Y-61868907D01*
X83118623Y-62070893D01*
X83138000Y-62280000D01*
X83118623Y-62489107D01*
X83061153Y-62691093D01*
X82967547Y-62879080D01*
X82840992Y-63046666D01*
X82685798Y-63188144D01*
X82507250Y-63298696D01*
X82311428Y-63374558D01*
X82105001Y-63413145D01*
X81894999Y-63413145D01*
X81688572Y-63374558D01*
X81492750Y-63298696D01*
X81314202Y-63188144D01*
X81159008Y-63046666D01*
X81032453Y-62879080D01*
X80938847Y-62691093D01*
X80881377Y-62489107D01*
X80862000Y-62280000D01*
X80881377Y-62070893D01*
X80938847Y-61868907D01*
X81032453Y-61680920D01*
X81159008Y-61513334D01*
X81314202Y-61371856D01*
X81492750Y-61261304D01*
X81688572Y-61185442D01*
X81894999Y-61146855D01*
X82105001Y-61146855D01*
X82311428Y-61185442D01*
G37*
G36*
X94918243Y-63020602D02*
G01*
X94954903Y-63045097D01*
X94979398Y-63081757D01*
X94988000Y-63125000D01*
X94988000Y-63275000D01*
X94979398Y-63318243D01*
X94954903Y-63354903D01*
X94918243Y-63379398D01*
X94875000Y-63388000D01*
X93475000Y-63388000D01*
X93431757Y-63379398D01*
X93395097Y-63354903D01*
X93370602Y-63318243D01*
X93362000Y-63275000D01*
X93362000Y-63125000D01*
X93370602Y-63081757D01*
X93395097Y-63045097D01*
X93431757Y-63020602D01*
X93475000Y-63012000D01*
X94875000Y-63012000D01*
X94918243Y-63020602D01*
G37*
G36*
X106268243Y-63020602D02*
G01*
X106304903Y-63045097D01*
X106329398Y-63081757D01*
X106338000Y-63125000D01*
X106338000Y-63275000D01*
X106329398Y-63318243D01*
X106304903Y-63354903D01*
X106268243Y-63379398D01*
X106225000Y-63388000D01*
X104825000Y-63388000D01*
X104781757Y-63379398D01*
X104745097Y-63354903D01*
X104720602Y-63318243D01*
X104712000Y-63275000D01*
X104712000Y-63125000D01*
X104720602Y-63081757D01*
X104745097Y-63045097D01*
X104781757Y-63020602D01*
X104825000Y-63012000D01*
X106225000Y-63012000D01*
X106268243Y-63020602D01*
G37*
G36*
X94918243Y-62520602D02*
G01*
X94954903Y-62545097D01*
X94979398Y-62581757D01*
X94988000Y-62625000D01*
X94988000Y-62775000D01*
X94979398Y-62818243D01*
X94954903Y-62854903D01*
X94918243Y-62879398D01*
X94875000Y-62888000D01*
X93475000Y-62888000D01*
X93431757Y-62879398D01*
X93395097Y-62854903D01*
X93370602Y-62818243D01*
X93362000Y-62775000D01*
X93362000Y-62625000D01*
X93370602Y-62581757D01*
X93395097Y-62545097D01*
X93431757Y-62520602D01*
X93475000Y-62512000D01*
X94875000Y-62512000D01*
X94918243Y-62520602D01*
G37*
G36*
X106268243Y-62520602D02*
G01*
X106304903Y-62545097D01*
X106329398Y-62581757D01*
X106338000Y-62625000D01*
X106338000Y-62775000D01*
X106329398Y-62818243D01*
X106304903Y-62854903D01*
X106268243Y-62879398D01*
X106225000Y-62888000D01*
X104825000Y-62888000D01*
X104781757Y-62879398D01*
X104745097Y-62854903D01*
X104720602Y-62818243D01*
X104712000Y-62775000D01*
X104712000Y-62625000D01*
X104720602Y-62581757D01*
X104745097Y-62545097D01*
X104781757Y-62520602D01*
X104825000Y-62512000D01*
X106225000Y-62512000D01*
X106268243Y-62520602D01*
G37*
G36*
X119764542Y-60114893D02*
G01*
X119776870Y-60123130D01*
X119785107Y-60135458D01*
X119788000Y-60150000D01*
X119788000Y-62450000D01*
X119785107Y-62464542D01*
X119776870Y-62476870D01*
X119764542Y-62485107D01*
X119750000Y-62488000D01*
X117450000Y-62488000D01*
X117435458Y-62485107D01*
X117423130Y-62476870D01*
X117414893Y-62464542D01*
X117412000Y-62450000D01*
X117412000Y-60150000D01*
X117414893Y-60135458D01*
X117423130Y-60123130D01*
X117435458Y-60114893D01*
X117450000Y-60112000D01*
X119750000Y-60112000D01*
X119764542Y-60114893D01*
G37*
G36*
X124264542Y-60114893D02*
G01*
X124276870Y-60123130D01*
X124285107Y-60135458D01*
X124288000Y-60150000D01*
X124288000Y-62450000D01*
X124285107Y-62464542D01*
X124276870Y-62476870D01*
X124264542Y-62485107D01*
X124250000Y-62488000D01*
X121950000Y-62488000D01*
X121935458Y-62485107D01*
X121923130Y-62476870D01*
X121914893Y-62464542D01*
X121912000Y-62450000D01*
X121912000Y-60150000D01*
X121914893Y-60135458D01*
X121923130Y-60123130D01*
X121935458Y-60114893D01*
X121950000Y-60112000D01*
X124250000Y-60112000D01*
X124264542Y-60114893D01*
G37*
G36*
X128764542Y-60114893D02*
G01*
X128776870Y-60123130D01*
X128785107Y-60135458D01*
X128788000Y-60150000D01*
X128788000Y-62450000D01*
X128785107Y-62464542D01*
X128776870Y-62476870D01*
X128764542Y-62485107D01*
X128750000Y-62488000D01*
X126450000Y-62488000D01*
X126435458Y-62485107D01*
X126423130Y-62476870D01*
X126414893Y-62464542D01*
X126412000Y-62450000D01*
X126412000Y-60150000D01*
X126414893Y-60135458D01*
X126423130Y-60123130D01*
X126435458Y-60114893D01*
X126450000Y-60112000D01*
X128750000Y-60112000D01*
X128764542Y-60114893D01*
G37*
G36*
X94918243Y-62020602D02*
G01*
X94954903Y-62045097D01*
X94979398Y-62081757D01*
X94988000Y-62125000D01*
X94988000Y-62275000D01*
X94979398Y-62318243D01*
X94954903Y-62354903D01*
X94918243Y-62379398D01*
X94875000Y-62388000D01*
X93475000Y-62388000D01*
X93431757Y-62379398D01*
X93395097Y-62354903D01*
X93370602Y-62318243D01*
X93362000Y-62275000D01*
X93362000Y-62125000D01*
X93370602Y-62081757D01*
X93395097Y-62045097D01*
X93431757Y-62020602D01*
X93475000Y-62012000D01*
X94875000Y-62012000D01*
X94918243Y-62020602D01*
G37*
G36*
X106268243Y-62020602D02*
G01*
X106304903Y-62045097D01*
X106329398Y-62081757D01*
X106338000Y-62125000D01*
X106338000Y-62275000D01*
X106329398Y-62318243D01*
X106304903Y-62354903D01*
X106268243Y-62379398D01*
X106225000Y-62388000D01*
X104825000Y-62388000D01*
X104781757Y-62379398D01*
X104745097Y-62354903D01*
X104720602Y-62318243D01*
X104712000Y-62275000D01*
X104712000Y-62125000D01*
X104720602Y-62081757D01*
X104745097Y-62045097D01*
X104781757Y-62020602D01*
X104825000Y-62012000D01*
X106225000Y-62012000D01*
X106268243Y-62020602D01*
G37*
G36*
X94918243Y-61520602D02*
G01*
X94954903Y-61545097D01*
X94979398Y-61581757D01*
X94988000Y-61625000D01*
X94988000Y-61775000D01*
X94979398Y-61818243D01*
X94954903Y-61854903D01*
X94918243Y-61879398D01*
X94875000Y-61888000D01*
X93475000Y-61888000D01*
X93431757Y-61879398D01*
X93395097Y-61854903D01*
X93370602Y-61818243D01*
X93362000Y-61775000D01*
X93362000Y-61625000D01*
X93370602Y-61581757D01*
X93395097Y-61545097D01*
X93431757Y-61520602D01*
X93475000Y-61512000D01*
X94875000Y-61512000D01*
X94918243Y-61520602D01*
G37*
G36*
X106268243Y-61520602D02*
G01*
X106304903Y-61545097D01*
X106329398Y-61581757D01*
X106338000Y-61625000D01*
X106338000Y-61775000D01*
X106329398Y-61818243D01*
X106304903Y-61854903D01*
X106268243Y-61879398D01*
X106225000Y-61888000D01*
X104825000Y-61888000D01*
X104781757Y-61879398D01*
X104745097Y-61854903D01*
X104720602Y-61818243D01*
X104712000Y-61775000D01*
X104712000Y-61625000D01*
X104720602Y-61581757D01*
X104745097Y-61545097D01*
X104781757Y-61520602D01*
X104825000Y-61512000D01*
X106225000Y-61512000D01*
X106268243Y-61520602D01*
G37*
G36*
X108379047Y-60787805D02*
G01*
X108427661Y-60793445D01*
X108444271Y-60800779D01*
X108466079Y-60805117D01*
X108489425Y-60820716D01*
X108509012Y-60829365D01*
X108522390Y-60842743D01*
X108543291Y-60856709D01*
X108557256Y-60877609D01*
X108570634Y-60890987D01*
X108579281Y-60910572D01*
X108594883Y-60933921D01*
X108599221Y-60955731D01*
X108606554Y-60972338D01*
X108612192Y-61020942D01*
X108613000Y-61025000D01*
X108613000Y-61425000D01*
X108612192Y-61429059D01*
X108606554Y-61477661D01*
X108599221Y-61494266D01*
X108594883Y-61516079D01*
X108579280Y-61539429D01*
X108570634Y-61559012D01*
X108557258Y-61572387D01*
X108543291Y-61593291D01*
X108522387Y-61607258D01*
X108509012Y-61620634D01*
X108489429Y-61629280D01*
X108466079Y-61644883D01*
X108444266Y-61649221D01*
X108427661Y-61656554D01*
X108379059Y-61662192D01*
X108375000Y-61663000D01*
X107825000Y-61663000D01*
X107820942Y-61662192D01*
X107772338Y-61656554D01*
X107755731Y-61649221D01*
X107733921Y-61644883D01*
X107710572Y-61629281D01*
X107690987Y-61620634D01*
X107677609Y-61607256D01*
X107656709Y-61593291D01*
X107642743Y-61572390D01*
X107629365Y-61559012D01*
X107620716Y-61539425D01*
X107605117Y-61516079D01*
X107600779Y-61494271D01*
X107593445Y-61477661D01*
X107587805Y-61429047D01*
X107587000Y-61425000D01*
X107587000Y-61025000D01*
X107587804Y-61020954D01*
X107593445Y-60972338D01*
X107600779Y-60955727D01*
X107605117Y-60933921D01*
X107620715Y-60910576D01*
X107629365Y-60890987D01*
X107642745Y-60877606D01*
X107656709Y-60856709D01*
X107677606Y-60842745D01*
X107690987Y-60829365D01*
X107710576Y-60820715D01*
X107733921Y-60805117D01*
X107755727Y-60800779D01*
X107772338Y-60793445D01*
X107820954Y-60787804D01*
X107825000Y-60787000D01*
X108375000Y-60787000D01*
X108379047Y-60787805D01*
G37*
G36*
X109879047Y-60787805D02*
G01*
X109927661Y-60793445D01*
X109944271Y-60800779D01*
X109966079Y-60805117D01*
X109989425Y-60820716D01*
X110009012Y-60829365D01*
X110022390Y-60842743D01*
X110043291Y-60856709D01*
X110057256Y-60877609D01*
X110070634Y-60890987D01*
X110079281Y-60910572D01*
X110094883Y-60933921D01*
X110099221Y-60955731D01*
X110106554Y-60972338D01*
X110112192Y-61020942D01*
X110113000Y-61025000D01*
X110113000Y-61425000D01*
X110112192Y-61429059D01*
X110106554Y-61477661D01*
X110099221Y-61494266D01*
X110094883Y-61516079D01*
X110079280Y-61539429D01*
X110070634Y-61559012D01*
X110057258Y-61572387D01*
X110043291Y-61593291D01*
X110022387Y-61607258D01*
X110009012Y-61620634D01*
X109989429Y-61629280D01*
X109966079Y-61644883D01*
X109944266Y-61649221D01*
X109927661Y-61656554D01*
X109879059Y-61662192D01*
X109875000Y-61663000D01*
X109325000Y-61663000D01*
X109320942Y-61662192D01*
X109272338Y-61656554D01*
X109255731Y-61649221D01*
X109233921Y-61644883D01*
X109210572Y-61629281D01*
X109190987Y-61620634D01*
X109177609Y-61607256D01*
X109156709Y-61593291D01*
X109142743Y-61572390D01*
X109129365Y-61559012D01*
X109120716Y-61539425D01*
X109105117Y-61516079D01*
X109100779Y-61494271D01*
X109093445Y-61477661D01*
X109087805Y-61429047D01*
X109087000Y-61425000D01*
X109087000Y-61025000D01*
X109087804Y-61020954D01*
X109093445Y-60972338D01*
X109100779Y-60955727D01*
X109105117Y-60933921D01*
X109120715Y-60910576D01*
X109129365Y-60890987D01*
X109142745Y-60877606D01*
X109156709Y-60856709D01*
X109177606Y-60842745D01*
X109190987Y-60829365D01*
X109210576Y-60820715D01*
X109233921Y-60805117D01*
X109255727Y-60800779D01*
X109272338Y-60793445D01*
X109320954Y-60787804D01*
X109325000Y-60787000D01*
X109875000Y-60787000D01*
X109879047Y-60787805D01*
G37*
G36*
X94918243Y-61020602D02*
G01*
X94954903Y-61045097D01*
X94979398Y-61081757D01*
X94988000Y-61125000D01*
X94988000Y-61275000D01*
X94979398Y-61318243D01*
X94954903Y-61354903D01*
X94918243Y-61379398D01*
X94875000Y-61388000D01*
X93475000Y-61388000D01*
X93431757Y-61379398D01*
X93395097Y-61354903D01*
X93370602Y-61318243D01*
X93362000Y-61275000D01*
X93362000Y-61125000D01*
X93370602Y-61081757D01*
X93395097Y-61045097D01*
X93431757Y-61020602D01*
X93475000Y-61012000D01*
X94875000Y-61012000D01*
X94918243Y-61020602D01*
G37*
G36*
X106268243Y-61020602D02*
G01*
X106304903Y-61045097D01*
X106329398Y-61081757D01*
X106338000Y-61125000D01*
X106338000Y-61275000D01*
X106329398Y-61318243D01*
X106304903Y-61354903D01*
X106268243Y-61379398D01*
X106225000Y-61388000D01*
X104825000Y-61388000D01*
X104781757Y-61379398D01*
X104745097Y-61354903D01*
X104720602Y-61318243D01*
X104712000Y-61275000D01*
X104712000Y-61125000D01*
X104720602Y-61081757D01*
X104745097Y-61045097D01*
X104781757Y-61020602D01*
X104825000Y-61012000D01*
X106225000Y-61012000D01*
X106268243Y-61020602D01*
G37*
G36*
X94918243Y-60520602D02*
G01*
X94954903Y-60545097D01*
X94979398Y-60581757D01*
X94988000Y-60625000D01*
X94988000Y-60775000D01*
X94979398Y-60818243D01*
X94954903Y-60854903D01*
X94918243Y-60879398D01*
X94875000Y-60888000D01*
X93475000Y-60888000D01*
X93431757Y-60879398D01*
X93395097Y-60854903D01*
X93370602Y-60818243D01*
X93362000Y-60775000D01*
X93362000Y-60625000D01*
X93370602Y-60581757D01*
X93395097Y-60545097D01*
X93431757Y-60520602D01*
X93475000Y-60512000D01*
X94875000Y-60512000D01*
X94918243Y-60520602D01*
G37*
G36*
X106268243Y-60520602D02*
G01*
X106304903Y-60545097D01*
X106329398Y-60581757D01*
X106338000Y-60625000D01*
X106338000Y-60775000D01*
X106329398Y-60818243D01*
X106304903Y-60854903D01*
X106268243Y-60879398D01*
X106225000Y-60888000D01*
X104825000Y-60888000D01*
X104781757Y-60879398D01*
X104745097Y-60854903D01*
X104720602Y-60818243D01*
X104712000Y-60775000D01*
X104712000Y-60625000D01*
X104720602Y-60581757D01*
X104745097Y-60545097D01*
X104781757Y-60520602D01*
X104825000Y-60512000D01*
X106225000Y-60512000D01*
X106268243Y-60520602D01*
G37*
G36*
X82311428Y-58645442D02*
G01*
X82507250Y-58721304D01*
X82685798Y-58831856D01*
X82840992Y-58973334D01*
X82967547Y-59140920D01*
X83061153Y-59328907D01*
X83118623Y-59530893D01*
X83138000Y-59740000D01*
X83118623Y-59949107D01*
X83061153Y-60151093D01*
X82967547Y-60339080D01*
X82840992Y-60506666D01*
X82685798Y-60648144D01*
X82507250Y-60758696D01*
X82311428Y-60834558D01*
X82105001Y-60873145D01*
X81894999Y-60873145D01*
X81688572Y-60834558D01*
X81492750Y-60758696D01*
X81314202Y-60648144D01*
X81159008Y-60506666D01*
X81032453Y-60339080D01*
X80938847Y-60151093D01*
X80881377Y-59949107D01*
X80862000Y-59740000D01*
X80881377Y-59530893D01*
X80938847Y-59328907D01*
X81032453Y-59140920D01*
X81159008Y-58973334D01*
X81314202Y-58831856D01*
X81492750Y-58721304D01*
X81688572Y-58645442D01*
X81894999Y-58606855D01*
X82105001Y-58606855D01*
X82311428Y-58645442D01*
G37*
G36*
X94918243Y-60020602D02*
G01*
X94954903Y-60045097D01*
X94979398Y-60081757D01*
X94988000Y-60125000D01*
X94988000Y-60275000D01*
X94979398Y-60318243D01*
X94954903Y-60354903D01*
X94918243Y-60379398D01*
X94875000Y-60388000D01*
X93475000Y-60388000D01*
X93431757Y-60379398D01*
X93395097Y-60354903D01*
X93370602Y-60318243D01*
X93362000Y-60275000D01*
X93362000Y-60125000D01*
X93370602Y-60081757D01*
X93395097Y-60045097D01*
X93431757Y-60020602D01*
X93475000Y-60012000D01*
X94875000Y-60012000D01*
X94918243Y-60020602D01*
G37*
G36*
X106268243Y-60020602D02*
G01*
X106304903Y-60045097D01*
X106329398Y-60081757D01*
X106338000Y-60125000D01*
X106338000Y-60275000D01*
X106329398Y-60318243D01*
X106304903Y-60354903D01*
X106268243Y-60379398D01*
X106225000Y-60388000D01*
X104825000Y-60388000D01*
X104781757Y-60379398D01*
X104745097Y-60354903D01*
X104720602Y-60318243D01*
X104712000Y-60275000D01*
X104712000Y-60125000D01*
X104720602Y-60081757D01*
X104745097Y-60045097D01*
X104781757Y-60020602D01*
X104825000Y-60012000D01*
X106225000Y-60012000D01*
X106268243Y-60020602D01*
G37*
G36*
X108379047Y-59137805D02*
G01*
X108427661Y-59143445D01*
X108444271Y-59150779D01*
X108466079Y-59155117D01*
X108489425Y-59170716D01*
X108509012Y-59179365D01*
X108522390Y-59192743D01*
X108543291Y-59206709D01*
X108557256Y-59227609D01*
X108570634Y-59240987D01*
X108579281Y-59260572D01*
X108594883Y-59283921D01*
X108599221Y-59305731D01*
X108606554Y-59322338D01*
X108612192Y-59370942D01*
X108613000Y-59375000D01*
X108613000Y-59775000D01*
X108612192Y-59779059D01*
X108606554Y-59827661D01*
X108599221Y-59844266D01*
X108594883Y-59866079D01*
X108579280Y-59889429D01*
X108570634Y-59909012D01*
X108557258Y-59922387D01*
X108543291Y-59943291D01*
X108522387Y-59957258D01*
X108509012Y-59970634D01*
X108489429Y-59979280D01*
X108466079Y-59994883D01*
X108444266Y-59999221D01*
X108427661Y-60006554D01*
X108379059Y-60012192D01*
X108375000Y-60013000D01*
X107825000Y-60013000D01*
X107820942Y-60012192D01*
X107772338Y-60006554D01*
X107755731Y-59999221D01*
X107733921Y-59994883D01*
X107710572Y-59979281D01*
X107690987Y-59970634D01*
X107677609Y-59957256D01*
X107656709Y-59943291D01*
X107642743Y-59922390D01*
X107629365Y-59909012D01*
X107620716Y-59889425D01*
X107605117Y-59866079D01*
X107600779Y-59844271D01*
X107593445Y-59827661D01*
X107587805Y-59779047D01*
X107587000Y-59775000D01*
X107587000Y-59375000D01*
X107587804Y-59370954D01*
X107593445Y-59322338D01*
X107600779Y-59305727D01*
X107605117Y-59283921D01*
X107620715Y-59260576D01*
X107629365Y-59240987D01*
X107642745Y-59227606D01*
X107656709Y-59206709D01*
X107677606Y-59192745D01*
X107690987Y-59179365D01*
X107710576Y-59170715D01*
X107733921Y-59155117D01*
X107755727Y-59150779D01*
X107772338Y-59143445D01*
X107820954Y-59137804D01*
X107825000Y-59137000D01*
X108375000Y-59137000D01*
X108379047Y-59137805D01*
G37*
G36*
X109879047Y-59137805D02*
G01*
X109927661Y-59143445D01*
X109944271Y-59150779D01*
X109966079Y-59155117D01*
X109989425Y-59170716D01*
X110009012Y-59179365D01*
X110022390Y-59192743D01*
X110043291Y-59206709D01*
X110057256Y-59227609D01*
X110070634Y-59240987D01*
X110079281Y-59260572D01*
X110094883Y-59283921D01*
X110099221Y-59305731D01*
X110106554Y-59322338D01*
X110112192Y-59370942D01*
X110113000Y-59375000D01*
X110113000Y-59775000D01*
X110112192Y-59779059D01*
X110106554Y-59827661D01*
X110099221Y-59844266D01*
X110094883Y-59866079D01*
X110079280Y-59889429D01*
X110070634Y-59909012D01*
X110057258Y-59922387D01*
X110043291Y-59943291D01*
X110022387Y-59957258D01*
X110009012Y-59970634D01*
X109989429Y-59979280D01*
X109966079Y-59994883D01*
X109944266Y-59999221D01*
X109927661Y-60006554D01*
X109879059Y-60012192D01*
X109875000Y-60013000D01*
X109325000Y-60013000D01*
X109320942Y-60012192D01*
X109272338Y-60006554D01*
X109255731Y-59999221D01*
X109233921Y-59994883D01*
X109210572Y-59979281D01*
X109190987Y-59970634D01*
X109177609Y-59957256D01*
X109156709Y-59943291D01*
X109142743Y-59922390D01*
X109129365Y-59909012D01*
X109120716Y-59889425D01*
X109105117Y-59866079D01*
X109100779Y-59844271D01*
X109093445Y-59827661D01*
X109087805Y-59779047D01*
X109087000Y-59775000D01*
X109087000Y-59375000D01*
X109087804Y-59370954D01*
X109093445Y-59322338D01*
X109100779Y-59305727D01*
X109105117Y-59283921D01*
X109120715Y-59260576D01*
X109129365Y-59240987D01*
X109142745Y-59227606D01*
X109156709Y-59206709D01*
X109177606Y-59192745D01*
X109190987Y-59179365D01*
X109210576Y-59170715D01*
X109233921Y-59155117D01*
X109255727Y-59150779D01*
X109272338Y-59143445D01*
X109320954Y-59137804D01*
X109325000Y-59137000D01*
X109875000Y-59137000D01*
X109879047Y-59137805D01*
G37*
G36*
X94918243Y-59520602D02*
G01*
X94954903Y-59545097D01*
X94979398Y-59581757D01*
X94988000Y-59625000D01*
X94988000Y-59775000D01*
X94979398Y-59818243D01*
X94954903Y-59854903D01*
X94918243Y-59879398D01*
X94875000Y-59888000D01*
X93475000Y-59888000D01*
X93431757Y-59879398D01*
X93395097Y-59854903D01*
X93370602Y-59818243D01*
X93362000Y-59775000D01*
X93362000Y-59625000D01*
X93370602Y-59581757D01*
X93395097Y-59545097D01*
X93431757Y-59520602D01*
X93475000Y-59512000D01*
X94875000Y-59512000D01*
X94918243Y-59520602D01*
G37*
G36*
X106268243Y-59520602D02*
G01*
X106304903Y-59545097D01*
X106329398Y-59581757D01*
X106338000Y-59625000D01*
X106338000Y-59775000D01*
X106329398Y-59818243D01*
X106304903Y-59854903D01*
X106268243Y-59879398D01*
X106225000Y-59888000D01*
X104825000Y-59888000D01*
X104781757Y-59879398D01*
X104745097Y-59854903D01*
X104720602Y-59818243D01*
X104712000Y-59775000D01*
X104712000Y-59625000D01*
X104720602Y-59581757D01*
X104745097Y-59545097D01*
X104781757Y-59520602D01*
X104825000Y-59512000D01*
X106225000Y-59512000D01*
X106268243Y-59520602D01*
G37*
G36*
X126275806Y-55131726D02*
G01*
X126545998Y-55190503D01*
X126805074Y-55287133D01*
X127047762Y-55419651D01*
X127269120Y-55585357D01*
X127464643Y-55780880D01*
X127630349Y-56002238D01*
X127762867Y-56244926D01*
X127859497Y-56504002D01*
X127918274Y-56774194D01*
X127938000Y-57050000D01*
X127918274Y-57325806D01*
X127859497Y-57595998D01*
X127762867Y-57855074D01*
X127630349Y-58097762D01*
X127464643Y-58319120D01*
X127269120Y-58514643D01*
X127047762Y-58680349D01*
X126805074Y-58812867D01*
X126545998Y-58909497D01*
X126275806Y-58968274D01*
X126000000Y-58988000D01*
X125724194Y-58968274D01*
X125454002Y-58909497D01*
X125194926Y-58812867D01*
X124952238Y-58680349D01*
X124730880Y-58514643D01*
X124535357Y-58319120D01*
X124369651Y-58097762D01*
X124237133Y-57855074D01*
X124140503Y-57595998D01*
X124081726Y-57325806D01*
X124062000Y-57050000D01*
X124081726Y-56774194D01*
X124140503Y-56504002D01*
X124237133Y-56244926D01*
X124369651Y-56002238D01*
X124535357Y-55780880D01*
X124730880Y-55585357D01*
X124952238Y-55419651D01*
X125194926Y-55287133D01*
X125454002Y-55190503D01*
X125724194Y-55131726D01*
X126000000Y-55112000D01*
X126275806Y-55131726D01*
G37*
G36*
X96218243Y-56970602D02*
G01*
X96254903Y-56995097D01*
X96279398Y-57031757D01*
X96288000Y-57075000D01*
X96288000Y-58475000D01*
X96279398Y-58518243D01*
X96254903Y-58554903D01*
X96218243Y-58579398D01*
X96175000Y-58588000D01*
X96025000Y-58588000D01*
X95981757Y-58579398D01*
X95945097Y-58554903D01*
X95920602Y-58518243D01*
X95912000Y-58475000D01*
X95912000Y-57075000D01*
X95920602Y-57031757D01*
X95945097Y-56995097D01*
X95981757Y-56970602D01*
X96025000Y-56962000D01*
X96175000Y-56962000D01*
X96218243Y-56970602D01*
G37*
G36*
X96718243Y-56970602D02*
G01*
X96754903Y-56995097D01*
X96779398Y-57031757D01*
X96788000Y-57075000D01*
X96788000Y-58475000D01*
X96779398Y-58518243D01*
X96754903Y-58554903D01*
X96718243Y-58579398D01*
X96675000Y-58588000D01*
X96525000Y-58588000D01*
X96481757Y-58579398D01*
X96445097Y-58554903D01*
X96420602Y-58518243D01*
X96412000Y-58475000D01*
X96412000Y-57075000D01*
X96420602Y-57031757D01*
X96445097Y-56995097D01*
X96481757Y-56970602D01*
X96525000Y-56962000D01*
X96675000Y-56962000D01*
X96718243Y-56970602D01*
G37*
G36*
X97218243Y-56970602D02*
G01*
X97254903Y-56995097D01*
X97279398Y-57031757D01*
X97288000Y-57075000D01*
X97288000Y-58475000D01*
X97279398Y-58518243D01*
X97254903Y-58554903D01*
X97218243Y-58579398D01*
X97175000Y-58588000D01*
X97025000Y-58588000D01*
X96981757Y-58579398D01*
X96945097Y-58554903D01*
X96920602Y-58518243D01*
X96912000Y-58475000D01*
X96912000Y-57075000D01*
X96920602Y-57031757D01*
X96945097Y-56995097D01*
X96981757Y-56970602D01*
X97025000Y-56962000D01*
X97175000Y-56962000D01*
X97218243Y-56970602D01*
G37*
G36*
X97718243Y-56970602D02*
G01*
X97754903Y-56995097D01*
X97779398Y-57031757D01*
X97788000Y-57075000D01*
X97788000Y-58475000D01*
X97779398Y-58518243D01*
X97754903Y-58554903D01*
X97718243Y-58579398D01*
X97675000Y-58588000D01*
X97525000Y-58588000D01*
X97481757Y-58579398D01*
X97445097Y-58554903D01*
X97420602Y-58518243D01*
X97412000Y-58475000D01*
X97412000Y-57075000D01*
X97420602Y-57031757D01*
X97445097Y-56995097D01*
X97481757Y-56970602D01*
X97525000Y-56962000D01*
X97675000Y-56962000D01*
X97718243Y-56970602D01*
G37*
G36*
X98218243Y-56970602D02*
G01*
X98254903Y-56995097D01*
X98279398Y-57031757D01*
X98288000Y-57075000D01*
X98288000Y-58475000D01*
X98279398Y-58518243D01*
X98254903Y-58554903D01*
X98218243Y-58579398D01*
X98175000Y-58588000D01*
X98025000Y-58588000D01*
X97981757Y-58579398D01*
X97945097Y-58554903D01*
X97920602Y-58518243D01*
X97912000Y-58475000D01*
X97912000Y-57075000D01*
X97920602Y-57031757D01*
X97945097Y-56995097D01*
X97981757Y-56970602D01*
X98025000Y-56962000D01*
X98175000Y-56962000D01*
X98218243Y-56970602D01*
G37*
G36*
X98718243Y-56970602D02*
G01*
X98754903Y-56995097D01*
X98779398Y-57031757D01*
X98788000Y-57075000D01*
X98788000Y-58475000D01*
X98779398Y-58518243D01*
X98754903Y-58554903D01*
X98718243Y-58579398D01*
X98675000Y-58588000D01*
X98525000Y-58588000D01*
X98481757Y-58579398D01*
X98445097Y-58554903D01*
X98420602Y-58518243D01*
X98412000Y-58475000D01*
X98412000Y-57075000D01*
X98420602Y-57031757D01*
X98445097Y-56995097D01*
X98481757Y-56970602D01*
X98525000Y-56962000D01*
X98675000Y-56962000D01*
X98718243Y-56970602D01*
G37*
G36*
X99218243Y-56970602D02*
G01*
X99254903Y-56995097D01*
X99279398Y-57031757D01*
X99288000Y-57075000D01*
X99288000Y-58475000D01*
X99279398Y-58518243D01*
X99254903Y-58554903D01*
X99218243Y-58579398D01*
X99175000Y-58588000D01*
X99025000Y-58588000D01*
X98981757Y-58579398D01*
X98945097Y-58554903D01*
X98920602Y-58518243D01*
X98912000Y-58475000D01*
X98912000Y-57075000D01*
X98920602Y-57031757D01*
X98945097Y-56995097D01*
X98981757Y-56970602D01*
X99025000Y-56962000D01*
X99175000Y-56962000D01*
X99218243Y-56970602D01*
G37*
G36*
X99718243Y-56970602D02*
G01*
X99754903Y-56995097D01*
X99779398Y-57031757D01*
X99788000Y-57075000D01*
X99788000Y-58475000D01*
X99779398Y-58518243D01*
X99754903Y-58554903D01*
X99718243Y-58579398D01*
X99675000Y-58588000D01*
X99525000Y-58588000D01*
X99481757Y-58579398D01*
X99445097Y-58554903D01*
X99420602Y-58518243D01*
X99412000Y-58475000D01*
X99412000Y-57075000D01*
X99420602Y-57031757D01*
X99445097Y-56995097D01*
X99481757Y-56970602D01*
X99525000Y-56962000D01*
X99675000Y-56962000D01*
X99718243Y-56970602D01*
G37*
G36*
X100218243Y-56970602D02*
G01*
X100254903Y-56995097D01*
X100279398Y-57031757D01*
X100288000Y-57075000D01*
X100288000Y-58475000D01*
X100279398Y-58518243D01*
X100254903Y-58554903D01*
X100218243Y-58579398D01*
X100175000Y-58588000D01*
X100025000Y-58588000D01*
X99981757Y-58579398D01*
X99945097Y-58554903D01*
X99920602Y-58518243D01*
X99912000Y-58475000D01*
X99912000Y-57075000D01*
X99920602Y-57031757D01*
X99945097Y-56995097D01*
X99981757Y-56970602D01*
X100025000Y-56962000D01*
X100175000Y-56962000D01*
X100218243Y-56970602D01*
G37*
G36*
X100718243Y-56970602D02*
G01*
X100754903Y-56995097D01*
X100779398Y-57031757D01*
X100788000Y-57075000D01*
X100788000Y-58475000D01*
X100779398Y-58518243D01*
X100754903Y-58554903D01*
X100718243Y-58579398D01*
X100675000Y-58588000D01*
X100525000Y-58588000D01*
X100481757Y-58579398D01*
X100445097Y-58554903D01*
X100420602Y-58518243D01*
X100412000Y-58475000D01*
X100412000Y-57075000D01*
X100420602Y-57031757D01*
X100445097Y-56995097D01*
X100481757Y-56970602D01*
X100525000Y-56962000D01*
X100675000Y-56962000D01*
X100718243Y-56970602D01*
G37*
G36*
X101218243Y-56970602D02*
G01*
X101254903Y-56995097D01*
X101279398Y-57031757D01*
X101288000Y-57075000D01*
X101288000Y-58475000D01*
X101279398Y-58518243D01*
X101254903Y-58554903D01*
X101218243Y-58579398D01*
X101175000Y-58588000D01*
X101025000Y-58588000D01*
X100981757Y-58579398D01*
X100945097Y-58554903D01*
X100920602Y-58518243D01*
X100912000Y-58475000D01*
X100912000Y-57075000D01*
X100920602Y-57031757D01*
X100945097Y-56995097D01*
X100981757Y-56970602D01*
X101025000Y-56962000D01*
X101175000Y-56962000D01*
X101218243Y-56970602D01*
G37*
G36*
X101718243Y-56970602D02*
G01*
X101754903Y-56995097D01*
X101779398Y-57031757D01*
X101788000Y-57075000D01*
X101788000Y-58475000D01*
X101779398Y-58518243D01*
X101754903Y-58554903D01*
X101718243Y-58579398D01*
X101675000Y-58588000D01*
X101525000Y-58588000D01*
X101481757Y-58579398D01*
X101445097Y-58554903D01*
X101420602Y-58518243D01*
X101412000Y-58475000D01*
X101412000Y-57075000D01*
X101420602Y-57031757D01*
X101445097Y-56995097D01*
X101481757Y-56970602D01*
X101525000Y-56962000D01*
X101675000Y-56962000D01*
X101718243Y-56970602D01*
G37*
G36*
X102218243Y-56970602D02*
G01*
X102254903Y-56995097D01*
X102279398Y-57031757D01*
X102288000Y-57075000D01*
X102288000Y-58475000D01*
X102279398Y-58518243D01*
X102254903Y-58554903D01*
X102218243Y-58579398D01*
X102175000Y-58588000D01*
X102025000Y-58588000D01*
X101981757Y-58579398D01*
X101945097Y-58554903D01*
X101920602Y-58518243D01*
X101912000Y-58475000D01*
X101912000Y-57075000D01*
X101920602Y-57031757D01*
X101945097Y-56995097D01*
X101981757Y-56970602D01*
X102025000Y-56962000D01*
X102175000Y-56962000D01*
X102218243Y-56970602D01*
G37*
G36*
X102718243Y-56970602D02*
G01*
X102754903Y-56995097D01*
X102779398Y-57031757D01*
X102788000Y-57075000D01*
X102788000Y-58475000D01*
X102779398Y-58518243D01*
X102754903Y-58554903D01*
X102718243Y-58579398D01*
X102675000Y-58588000D01*
X102525000Y-58588000D01*
X102481757Y-58579398D01*
X102445097Y-58554903D01*
X102420602Y-58518243D01*
X102412000Y-58475000D01*
X102412000Y-57075000D01*
X102420602Y-57031757D01*
X102445097Y-56995097D01*
X102481757Y-56970602D01*
X102525000Y-56962000D01*
X102675000Y-56962000D01*
X102718243Y-56970602D01*
G37*
G36*
X103218243Y-56970602D02*
G01*
X103254903Y-56995097D01*
X103279398Y-57031757D01*
X103288000Y-57075000D01*
X103288000Y-58475000D01*
X103279398Y-58518243D01*
X103254903Y-58554903D01*
X103218243Y-58579398D01*
X103175000Y-58588000D01*
X103025000Y-58588000D01*
X102981757Y-58579398D01*
X102945097Y-58554903D01*
X102920602Y-58518243D01*
X102912000Y-58475000D01*
X102912000Y-57075000D01*
X102920602Y-57031757D01*
X102945097Y-56995097D01*
X102981757Y-56970602D01*
X103025000Y-56962000D01*
X103175000Y-56962000D01*
X103218243Y-56970602D01*
G37*
G36*
X103718243Y-56970602D02*
G01*
X103754903Y-56995097D01*
X103779398Y-57031757D01*
X103788000Y-57075000D01*
X103788000Y-58475000D01*
X103779398Y-58518243D01*
X103754903Y-58554903D01*
X103718243Y-58579398D01*
X103675000Y-58588000D01*
X103525000Y-58588000D01*
X103481757Y-58579398D01*
X103445097Y-58554903D01*
X103420602Y-58518243D01*
X103412000Y-58475000D01*
X103412000Y-57075000D01*
X103420602Y-57031757D01*
X103445097Y-56995097D01*
X103481757Y-56970602D01*
X103525000Y-56962000D01*
X103675000Y-56962000D01*
X103718243Y-56970602D01*
G37*
G36*
X92625806Y-54681726D02*
G01*
X92895998Y-54740503D01*
X93155074Y-54837133D01*
X93397762Y-54969651D01*
X93619120Y-55135357D01*
X93814643Y-55330880D01*
X93980349Y-55552238D01*
X94112867Y-55794926D01*
X94209497Y-56054002D01*
X94268274Y-56324194D01*
X94288000Y-56600000D01*
X94268274Y-56875806D01*
X94209497Y-57145998D01*
X94112867Y-57405074D01*
X93980349Y-57647762D01*
X93814643Y-57869120D01*
X93619120Y-58064643D01*
X93397762Y-58230349D01*
X93155074Y-58362867D01*
X92895998Y-58459497D01*
X92625806Y-58518274D01*
X92350000Y-58538000D01*
X92074194Y-58518274D01*
X91804002Y-58459497D01*
X91544926Y-58362867D01*
X91302238Y-58230349D01*
X91080880Y-58064643D01*
X90885357Y-57869120D01*
X90719651Y-57647762D01*
X90587133Y-57405074D01*
X90490503Y-57145998D01*
X90431726Y-56875806D01*
X90412000Y-56600000D01*
X90431726Y-56324194D01*
X90490503Y-56054002D01*
X90587133Y-55794926D01*
X90719651Y-55552238D01*
X90885357Y-55330880D01*
X91080880Y-55135357D01*
X91302238Y-54969651D01*
X91544926Y-54837133D01*
X91804002Y-54740503D01*
X92074194Y-54681726D01*
X92350000Y-54662000D01*
X92625806Y-54681726D01*
G37*
G36*
X82311428Y-56105442D02*
G01*
X82507250Y-56181304D01*
X82685798Y-56291856D01*
X82840992Y-56433334D01*
X82967547Y-56600920D01*
X83061153Y-56788907D01*
X83118623Y-56990893D01*
X83138000Y-57200000D01*
X83118623Y-57409107D01*
X83061153Y-57611093D01*
X82967547Y-57799080D01*
X82840992Y-57966666D01*
X82685798Y-58108144D01*
X82507250Y-58218696D01*
X82311428Y-58294558D01*
X82105001Y-58333145D01*
X81894999Y-58333145D01*
X81688572Y-58294558D01*
X81492750Y-58218696D01*
X81314202Y-58108144D01*
X81159008Y-57966666D01*
X81032453Y-57799080D01*
X80938847Y-57611093D01*
X80881377Y-57409107D01*
X80862000Y-57200000D01*
X80881377Y-56990893D01*
X80938847Y-56788907D01*
X81032453Y-56600920D01*
X81159008Y-56433334D01*
X81314202Y-56291856D01*
X81492750Y-56181304D01*
X81688572Y-56105442D01*
X81894999Y-56066855D01*
X82105001Y-56066855D01*
X82311428Y-56105442D01*
G37*
G36*
X101854047Y-55512805D02*
G01*
X101902661Y-55518445D01*
X101919271Y-55525779D01*
X101941079Y-55530117D01*
X101964425Y-55545716D01*
X101984012Y-55554365D01*
X101997390Y-55567743D01*
X102018291Y-55581709D01*
X102032256Y-55602609D01*
X102045634Y-55615987D01*
X102054281Y-55635572D01*
X102069883Y-55658921D01*
X102074221Y-55680731D01*
X102081554Y-55697338D01*
X102087192Y-55745942D01*
X102088000Y-55750000D01*
X102088000Y-56150000D01*
X102087192Y-56154059D01*
X102081554Y-56202661D01*
X102074221Y-56219266D01*
X102069883Y-56241079D01*
X102054280Y-56264429D01*
X102045634Y-56284012D01*
X102032258Y-56297387D01*
X102018291Y-56318291D01*
X101997387Y-56332258D01*
X101984012Y-56345634D01*
X101964429Y-56354280D01*
X101941079Y-56369883D01*
X101919266Y-56374221D01*
X101902661Y-56381554D01*
X101854059Y-56387192D01*
X101850000Y-56388000D01*
X101350000Y-56388000D01*
X101345942Y-56387192D01*
X101297338Y-56381554D01*
X101280731Y-56374221D01*
X101258921Y-56369883D01*
X101235572Y-56354281D01*
X101215987Y-56345634D01*
X101202609Y-56332256D01*
X101181709Y-56318291D01*
X101167743Y-56297390D01*
X101154365Y-56284012D01*
X101145716Y-56264425D01*
X101130117Y-56241079D01*
X101125779Y-56219271D01*
X101118445Y-56202661D01*
X101112805Y-56154047D01*
X101112000Y-56150000D01*
X101112000Y-55750000D01*
X101112804Y-55745954D01*
X101118445Y-55697338D01*
X101125779Y-55680727D01*
X101130117Y-55658921D01*
X101145715Y-55635576D01*
X101154365Y-55615987D01*
X101167745Y-55602606D01*
X101181709Y-55581709D01*
X101202606Y-55567745D01*
X101215987Y-55554365D01*
X101235576Y-55545715D01*
X101258921Y-55530117D01*
X101280727Y-55525779D01*
X101297338Y-55518445D01*
X101345954Y-55512804D01*
X101350000Y-55512000D01*
X101850000Y-55512000D01*
X101854047Y-55512805D01*
G37*
G36*
X103704047Y-55512805D02*
G01*
X103752661Y-55518445D01*
X103769271Y-55525779D01*
X103791079Y-55530117D01*
X103814425Y-55545716D01*
X103834012Y-55554365D01*
X103847390Y-55567743D01*
X103868291Y-55581709D01*
X103882256Y-55602609D01*
X103895634Y-55615987D01*
X103904281Y-55635572D01*
X103919883Y-55658921D01*
X103924221Y-55680731D01*
X103931554Y-55697338D01*
X103937192Y-55745942D01*
X103938000Y-55750000D01*
X103938000Y-56150000D01*
X103937192Y-56154059D01*
X103931554Y-56202661D01*
X103924221Y-56219266D01*
X103919883Y-56241079D01*
X103904280Y-56264429D01*
X103895634Y-56284012D01*
X103882258Y-56297387D01*
X103868291Y-56318291D01*
X103847387Y-56332258D01*
X103834012Y-56345634D01*
X103814429Y-56354280D01*
X103791079Y-56369883D01*
X103769266Y-56374221D01*
X103752661Y-56381554D01*
X103704059Y-56387192D01*
X103700000Y-56388000D01*
X103200000Y-56388000D01*
X103195942Y-56387192D01*
X103147338Y-56381554D01*
X103130731Y-56374221D01*
X103108921Y-56369883D01*
X103085572Y-56354281D01*
X103065987Y-56345634D01*
X103052609Y-56332256D01*
X103031709Y-56318291D01*
X103017743Y-56297390D01*
X103004365Y-56284012D01*
X102995716Y-56264425D01*
X102980117Y-56241079D01*
X102975779Y-56219271D01*
X102968445Y-56202661D01*
X102962805Y-56154047D01*
X102962000Y-56150000D01*
X102962000Y-55750000D01*
X102962804Y-55745954D01*
X102968445Y-55697338D01*
X102975779Y-55680727D01*
X102980117Y-55658921D01*
X102995715Y-55635576D01*
X103004365Y-55615987D01*
X103017745Y-55602606D01*
X103031709Y-55581709D01*
X103052606Y-55567745D01*
X103065987Y-55554365D01*
X103085576Y-55545715D01*
X103108921Y-55530117D01*
X103130727Y-55525779D01*
X103147338Y-55518445D01*
X103195954Y-55512804D01*
X103200000Y-55512000D01*
X103700000Y-55512000D01*
X103704047Y-55512805D01*
G37*
G36*
X98781409Y-55338274D02*
G01*
X98841852Y-55346232D01*
X98857057Y-55353322D01*
X98875646Y-55357020D01*
X98900266Y-55373470D01*
X98925407Y-55385194D01*
X98940702Y-55400489D01*
X98960969Y-55414031D01*
X98974510Y-55434297D01*
X98989805Y-55449592D01*
X99001527Y-55474730D01*
X99017980Y-55499354D01*
X99021677Y-55517944D01*
X99028767Y-55533147D01*
X99036722Y-55593577D01*
X99038000Y-55600000D01*
X99038000Y-56100000D01*
X99036722Y-56106424D01*
X99028767Y-56166852D01*
X99021678Y-56182054D01*
X99017980Y-56200646D01*
X99001525Y-56225271D01*
X98989805Y-56250407D01*
X98974512Y-56265699D01*
X98960969Y-56285969D01*
X98940699Y-56299512D01*
X98925407Y-56314805D01*
X98900271Y-56326525D01*
X98875646Y-56342980D01*
X98857054Y-56346678D01*
X98841852Y-56353767D01*
X98781424Y-56361722D01*
X98775000Y-56363000D01*
X98325000Y-56363000D01*
X98318577Y-56361722D01*
X98258147Y-56353767D01*
X98242944Y-56346677D01*
X98224354Y-56342980D01*
X98199730Y-56326527D01*
X98174592Y-56314805D01*
X98159297Y-56299510D01*
X98139031Y-56285969D01*
X98125489Y-56265702D01*
X98110194Y-56250407D01*
X98098470Y-56225266D01*
X98082020Y-56200646D01*
X98078322Y-56182057D01*
X98071232Y-56166852D01*
X98063274Y-56106409D01*
X98062000Y-56100000D01*
X98062000Y-55600000D01*
X98063274Y-55593592D01*
X98071232Y-55533147D01*
X98078322Y-55517940D01*
X98082020Y-55499354D01*
X98098469Y-55474735D01*
X98110194Y-55449592D01*
X98125491Y-55434294D01*
X98139031Y-55414031D01*
X98159294Y-55400491D01*
X98174592Y-55385194D01*
X98199735Y-55373469D01*
X98224354Y-55357020D01*
X98242940Y-55353322D01*
X98258147Y-55346232D01*
X98318592Y-55338274D01*
X98325000Y-55337000D01*
X98775000Y-55337000D01*
X98781409Y-55338274D01*
G37*
G36*
X100331409Y-55338274D02*
G01*
X100391852Y-55346232D01*
X100407057Y-55353322D01*
X100425646Y-55357020D01*
X100450266Y-55373470D01*
X100475407Y-55385194D01*
X100490702Y-55400489D01*
X100510969Y-55414031D01*
X100524510Y-55434297D01*
X100539805Y-55449592D01*
X100551527Y-55474730D01*
X100567980Y-55499354D01*
X100571677Y-55517944D01*
X100578767Y-55533147D01*
X100586722Y-55593577D01*
X100588000Y-55600000D01*
X100588000Y-56100000D01*
X100586722Y-56106424D01*
X100578767Y-56166852D01*
X100571678Y-56182054D01*
X100567980Y-56200646D01*
X100551525Y-56225271D01*
X100539805Y-56250407D01*
X100524512Y-56265699D01*
X100510969Y-56285969D01*
X100490699Y-56299512D01*
X100475407Y-56314805D01*
X100450271Y-56326525D01*
X100425646Y-56342980D01*
X100407054Y-56346678D01*
X100391852Y-56353767D01*
X100331424Y-56361722D01*
X100325000Y-56363000D01*
X99875000Y-56363000D01*
X99868577Y-56361722D01*
X99808147Y-56353767D01*
X99792944Y-56346677D01*
X99774354Y-56342980D01*
X99749730Y-56326527D01*
X99724592Y-56314805D01*
X99709297Y-56299510D01*
X99689031Y-56285969D01*
X99675489Y-56265702D01*
X99660194Y-56250407D01*
X99648470Y-56225266D01*
X99632020Y-56200646D01*
X99628322Y-56182057D01*
X99621232Y-56166852D01*
X99613274Y-56106409D01*
X99612000Y-56100000D01*
X99612000Y-55600000D01*
X99613274Y-55593592D01*
X99621232Y-55533147D01*
X99628322Y-55517940D01*
X99632020Y-55499354D01*
X99648469Y-55474735D01*
X99660194Y-55449592D01*
X99675491Y-55434294D01*
X99689031Y-55414031D01*
X99709294Y-55400491D01*
X99724592Y-55385194D01*
X99749735Y-55373469D01*
X99774354Y-55357020D01*
X99792940Y-55353322D01*
X99808147Y-55346232D01*
X99868592Y-55338274D01*
X99875000Y-55337000D01*
X100325000Y-55337000D01*
X100331409Y-55338274D01*
G37*
G36*
X82311428Y-53565442D02*
G01*
X82507250Y-53641304D01*
X82685798Y-53751856D01*
X82840992Y-53893334D01*
X82967547Y-54060920D01*
X83061153Y-54248907D01*
X83118623Y-54450893D01*
X83138000Y-54660000D01*
X83118623Y-54869107D01*
X83061153Y-55071093D01*
X82967547Y-55259080D01*
X82840992Y-55426666D01*
X82685798Y-55568144D01*
X82507250Y-55678696D01*
X82311428Y-55754558D01*
X82105001Y-55793145D01*
X81894999Y-55793145D01*
X81688572Y-55754558D01*
X81492750Y-55678696D01*
X81314202Y-55568144D01*
X81159008Y-55426666D01*
X81032453Y-55259080D01*
X80938847Y-55071093D01*
X80881377Y-54869107D01*
X80862000Y-54660000D01*
X80881377Y-54450893D01*
X80938847Y-54248907D01*
X81032453Y-54060920D01*
X81159008Y-53893334D01*
X81314202Y-53751856D01*
X81492750Y-53641304D01*
X81688572Y-53565442D01*
X81894999Y-53526855D01*
X82105001Y-53526855D01*
X82311428Y-53565442D01*
G37*
G36*
X101854047Y-54062805D02*
G01*
X101902661Y-54068445D01*
X101919271Y-54075779D01*
X101941079Y-54080117D01*
X101964425Y-54095716D01*
X101984012Y-54104365D01*
X101997390Y-54117743D01*
X102018291Y-54131709D01*
X102032256Y-54152609D01*
X102045634Y-54165987D01*
X102054281Y-54185572D01*
X102069883Y-54208921D01*
X102074221Y-54230731D01*
X102081554Y-54247338D01*
X102087192Y-54295942D01*
X102088000Y-54300000D01*
X102088000Y-54700000D01*
X102087192Y-54704059D01*
X102081554Y-54752661D01*
X102074221Y-54769266D01*
X102069883Y-54791079D01*
X102054280Y-54814429D01*
X102045634Y-54834012D01*
X102032258Y-54847387D01*
X102018291Y-54868291D01*
X101997387Y-54882258D01*
X101984012Y-54895634D01*
X101964429Y-54904280D01*
X101941079Y-54919883D01*
X101919266Y-54924221D01*
X101902661Y-54931554D01*
X101854059Y-54937192D01*
X101850000Y-54938000D01*
X101350000Y-54938000D01*
X101345942Y-54937192D01*
X101297338Y-54931554D01*
X101280731Y-54924221D01*
X101258921Y-54919883D01*
X101235572Y-54904281D01*
X101215987Y-54895634D01*
X101202609Y-54882256D01*
X101181709Y-54868291D01*
X101167743Y-54847390D01*
X101154365Y-54834012D01*
X101145716Y-54814425D01*
X101130117Y-54791079D01*
X101125779Y-54769271D01*
X101118445Y-54752661D01*
X101112805Y-54704047D01*
X101112000Y-54700000D01*
X101112000Y-54300000D01*
X101112804Y-54295954D01*
X101118445Y-54247338D01*
X101125779Y-54230727D01*
X101130117Y-54208921D01*
X101145715Y-54185576D01*
X101154365Y-54165987D01*
X101167745Y-54152606D01*
X101181709Y-54131709D01*
X101202606Y-54117745D01*
X101215987Y-54104365D01*
X101235576Y-54095715D01*
X101258921Y-54080117D01*
X101280727Y-54075779D01*
X101297338Y-54068445D01*
X101345954Y-54062804D01*
X101350000Y-54062000D01*
X101850000Y-54062000D01*
X101854047Y-54062805D01*
G37*
G36*
X103704047Y-54062805D02*
G01*
X103752661Y-54068445D01*
X103769271Y-54075779D01*
X103791079Y-54080117D01*
X103814425Y-54095716D01*
X103834012Y-54104365D01*
X103847390Y-54117743D01*
X103868291Y-54131709D01*
X103882256Y-54152609D01*
X103895634Y-54165987D01*
X103904281Y-54185572D01*
X103919883Y-54208921D01*
X103924221Y-54230731D01*
X103931554Y-54247338D01*
X103937192Y-54295942D01*
X103938000Y-54300000D01*
X103938000Y-54700000D01*
X103937192Y-54704059D01*
X103931554Y-54752661D01*
X103924221Y-54769266D01*
X103919883Y-54791079D01*
X103904280Y-54814429D01*
X103895634Y-54834012D01*
X103882258Y-54847387D01*
X103868291Y-54868291D01*
X103847387Y-54882258D01*
X103834012Y-54895634D01*
X103814429Y-54904280D01*
X103791079Y-54919883D01*
X103769266Y-54924221D01*
X103752661Y-54931554D01*
X103704059Y-54937192D01*
X103700000Y-54938000D01*
X103200000Y-54938000D01*
X103195942Y-54937192D01*
X103147338Y-54931554D01*
X103130731Y-54924221D01*
X103108921Y-54919883D01*
X103085572Y-54904281D01*
X103065987Y-54895634D01*
X103052609Y-54882256D01*
X103031709Y-54868291D01*
X103017743Y-54847390D01*
X103004365Y-54834012D01*
X102995716Y-54814425D01*
X102980117Y-54791079D01*
X102975779Y-54769271D01*
X102968445Y-54752661D01*
X102962805Y-54704047D01*
X102962000Y-54700000D01*
X102962000Y-54300000D01*
X102962804Y-54295954D01*
X102968445Y-54247338D01*
X102975779Y-54230727D01*
X102980117Y-54208921D01*
X102995715Y-54185576D01*
X103004365Y-54165987D01*
X103017745Y-54152606D01*
X103031709Y-54131709D01*
X103052606Y-54117745D01*
X103065987Y-54104365D01*
X103085576Y-54095715D01*
X103108921Y-54080117D01*
X103130727Y-54075779D01*
X103147338Y-54068445D01*
X103195954Y-54062804D01*
X103200000Y-54062000D01*
X103700000Y-54062000D01*
X103704047Y-54062805D01*
G37*
G36*
X100614542Y-52539893D02*
G01*
X100626870Y-52548130D01*
X100635107Y-52560458D01*
X100638000Y-52575000D01*
X100638000Y-53225000D01*
X100635107Y-53239542D01*
X100626870Y-53251870D01*
X100614542Y-53260107D01*
X100600000Y-53263000D01*
X99550000Y-53263000D01*
X99535458Y-53260107D01*
X99523130Y-53251870D01*
X99514893Y-53239542D01*
X99512000Y-53225000D01*
X99512000Y-52575000D01*
X99514893Y-52560458D01*
X99523130Y-52548130D01*
X99535458Y-52539893D01*
X99550000Y-52537000D01*
X100600000Y-52537000D01*
X100614542Y-52539893D01*
G37*
G36*
X104764542Y-52539893D02*
G01*
X104776870Y-52548130D01*
X104785107Y-52560458D01*
X104788000Y-52575000D01*
X104788000Y-53225000D01*
X104785107Y-53239542D01*
X104776870Y-53251870D01*
X104764542Y-53260107D01*
X104750000Y-53263000D01*
X103700000Y-53263000D01*
X103685458Y-53260107D01*
X103673130Y-53251870D01*
X103664893Y-53239542D01*
X103662000Y-53225000D01*
X103662000Y-52575000D01*
X103664893Y-52560458D01*
X103673130Y-52548130D01*
X103685458Y-52539893D01*
X103700000Y-52537000D01*
X104750000Y-52537000D01*
X104764542Y-52539893D01*
G37*
G36*
X82311428Y-51025442D02*
G01*
X82507250Y-51101304D01*
X82685798Y-51211856D01*
X82840992Y-51353334D01*
X82967547Y-51520920D01*
X83061153Y-51708907D01*
X83118623Y-51910893D01*
X83138000Y-52120000D01*
X83118623Y-52329107D01*
X83061153Y-52531093D01*
X82967547Y-52719080D01*
X82840992Y-52886666D01*
X82685798Y-53028144D01*
X82507250Y-53138696D01*
X82311428Y-53214558D01*
X82105001Y-53253145D01*
X81894999Y-53253145D01*
X81688572Y-53214558D01*
X81492750Y-53138696D01*
X81314202Y-53028144D01*
X81159008Y-52886666D01*
X81032453Y-52719080D01*
X80938847Y-52531093D01*
X80881377Y-52329107D01*
X80862000Y-52120000D01*
X80881377Y-51910893D01*
X80938847Y-51708907D01*
X81032453Y-51520920D01*
X81159008Y-51353334D01*
X81314202Y-51211856D01*
X81492750Y-51101304D01*
X81688572Y-51025442D01*
X81894999Y-50986855D01*
X82105001Y-50986855D01*
X82311428Y-51025442D01*
G37*
G36*
X98156409Y-51938274D02*
G01*
X98216852Y-51946232D01*
X98232057Y-51953322D01*
X98250646Y-51957020D01*
X98275266Y-51973470D01*
X98300407Y-51985194D01*
X98315702Y-52000489D01*
X98335969Y-52014031D01*
X98349510Y-52034297D01*
X98364805Y-52049592D01*
X98376527Y-52074730D01*
X98392980Y-52099354D01*
X98396677Y-52117944D01*
X98403767Y-52133147D01*
X98411722Y-52193577D01*
X98413000Y-52200000D01*
X98413000Y-52650000D01*
X98411722Y-52656424D01*
X98403767Y-52716852D01*
X98396678Y-52732054D01*
X98392980Y-52750646D01*
X98376525Y-52775271D01*
X98364805Y-52800407D01*
X98349512Y-52815699D01*
X98335969Y-52835969D01*
X98315699Y-52849512D01*
X98300407Y-52864805D01*
X98275271Y-52876525D01*
X98250646Y-52892980D01*
X98232054Y-52896678D01*
X98216852Y-52903767D01*
X98156424Y-52911722D01*
X98150000Y-52913000D01*
X97650000Y-52913000D01*
X97643577Y-52911722D01*
X97583147Y-52903767D01*
X97567944Y-52896677D01*
X97549354Y-52892980D01*
X97524730Y-52876527D01*
X97499592Y-52864805D01*
X97484297Y-52849510D01*
X97464031Y-52835969D01*
X97450489Y-52815702D01*
X97435194Y-52800407D01*
X97423470Y-52775266D01*
X97407020Y-52750646D01*
X97403322Y-52732057D01*
X97396232Y-52716852D01*
X97388274Y-52656409D01*
X97387000Y-52650000D01*
X97387000Y-52200000D01*
X97388274Y-52193592D01*
X97396232Y-52133147D01*
X97403322Y-52117940D01*
X97407020Y-52099354D01*
X97423469Y-52074735D01*
X97435194Y-52049592D01*
X97450491Y-52034294D01*
X97464031Y-52014031D01*
X97484294Y-52000491D01*
X97499592Y-51985194D01*
X97524735Y-51973469D01*
X97549354Y-51957020D01*
X97567940Y-51953322D01*
X97583147Y-51946232D01*
X97643592Y-51938274D01*
X97650000Y-51937000D01*
X98150000Y-51937000D01*
X98156409Y-51938274D01*
G37*
G36*
X98156409Y-50388274D02*
G01*
X98216852Y-50396232D01*
X98232057Y-50403322D01*
X98250646Y-50407020D01*
X98275266Y-50423470D01*
X98300407Y-50435194D01*
X98315702Y-50450489D01*
X98335969Y-50464031D01*
X98349510Y-50484297D01*
X98364805Y-50499592D01*
X98376527Y-50524730D01*
X98392980Y-50549354D01*
X98396677Y-50567944D01*
X98403767Y-50583147D01*
X98411722Y-50643577D01*
X98413000Y-50650000D01*
X98413000Y-51100000D01*
X98411722Y-51106424D01*
X98403767Y-51166852D01*
X98396678Y-51182054D01*
X98392980Y-51200646D01*
X98376525Y-51225271D01*
X98364805Y-51250407D01*
X98349512Y-51265699D01*
X98335969Y-51285969D01*
X98315699Y-51299512D01*
X98300407Y-51314805D01*
X98275271Y-51326525D01*
X98250646Y-51342980D01*
X98232054Y-51346678D01*
X98216852Y-51353767D01*
X98156424Y-51361722D01*
X98150000Y-51363000D01*
X97650000Y-51363000D01*
X97643577Y-51361722D01*
X97583147Y-51353767D01*
X97567944Y-51346677D01*
X97549354Y-51342980D01*
X97524730Y-51326527D01*
X97499592Y-51314805D01*
X97484297Y-51299510D01*
X97464031Y-51285969D01*
X97450489Y-51265702D01*
X97435194Y-51250407D01*
X97423470Y-51225266D01*
X97407020Y-51200646D01*
X97403322Y-51182057D01*
X97396232Y-51166852D01*
X97388274Y-51106409D01*
X97387000Y-51100000D01*
X97387000Y-50650000D01*
X97388274Y-50643592D01*
X97396232Y-50583147D01*
X97403322Y-50567940D01*
X97407020Y-50549354D01*
X97423469Y-50524735D01*
X97435194Y-50499592D01*
X97450491Y-50484294D01*
X97464031Y-50464031D01*
X97484294Y-50450491D01*
X97499592Y-50435194D01*
X97524735Y-50423469D01*
X97549354Y-50407020D01*
X97567940Y-50403322D01*
X97583147Y-50396232D01*
X97643592Y-50388274D01*
X97650000Y-50387000D01*
X98150000Y-50387000D01*
X98156409Y-50388274D01*
G37*
G36*
X100614542Y-50389893D02*
G01*
X100626870Y-50398130D01*
X100635107Y-50410458D01*
X100638000Y-50425000D01*
X100638000Y-51075000D01*
X100635107Y-51089542D01*
X100626870Y-51101870D01*
X100614542Y-51110107D01*
X100600000Y-51113000D01*
X99550000Y-51113000D01*
X99535458Y-51110107D01*
X99523130Y-51101870D01*
X99514893Y-51089542D01*
X99512000Y-51075000D01*
X99512000Y-50425000D01*
X99514893Y-50410458D01*
X99523130Y-50398130D01*
X99535458Y-50389893D01*
X99550000Y-50387000D01*
X100600000Y-50387000D01*
X100614542Y-50389893D01*
G37*
G36*
X104764542Y-50389893D02*
G01*
X104776870Y-50398130D01*
X104785107Y-50410458D01*
X104788000Y-50425000D01*
X104788000Y-51075000D01*
X104785107Y-51089542D01*
X104776870Y-51101870D01*
X104764542Y-51110107D01*
X104750000Y-51113000D01*
X103700000Y-51113000D01*
X103685458Y-51110107D01*
X103673130Y-51101870D01*
X103664893Y-51089542D01*
X103662000Y-51075000D01*
X103662000Y-50425000D01*
X103664893Y-50410458D01*
X103673130Y-50398130D01*
X103685458Y-50389893D01*
X103700000Y-50387000D01*
X104750000Y-50387000D01*
X104764542Y-50389893D01*
G37*
G36*
X82311428Y-48485442D02*
G01*
X82507250Y-48561304D01*
X82685798Y-48671856D01*
X82840992Y-48813334D01*
X82967547Y-48980920D01*
X83061153Y-49168907D01*
X83118623Y-49370893D01*
X83138000Y-49580000D01*
X83118623Y-49789107D01*
X83061153Y-49991093D01*
X82967547Y-50179080D01*
X82840992Y-50346666D01*
X82685798Y-50488144D01*
X82507250Y-50598696D01*
X82311428Y-50674558D01*
X82105001Y-50713145D01*
X81894999Y-50713145D01*
X81688572Y-50674558D01*
X81492750Y-50598696D01*
X81314202Y-50488144D01*
X81159008Y-50346666D01*
X81032453Y-50179080D01*
X80938847Y-49991093D01*
X80881377Y-49789107D01*
X80862000Y-49580000D01*
X80881377Y-49370893D01*
X80938847Y-49168907D01*
X81032453Y-48980920D01*
X81159008Y-48813334D01*
X81314202Y-48671856D01*
X81492750Y-48561304D01*
X81688572Y-48485442D01*
X81894999Y-48446855D01*
X82105001Y-48446855D01*
X82311428Y-48485442D01*
G37*
G36*
X106579047Y-48462805D02*
G01*
X106627661Y-48468445D01*
X106644271Y-48475779D01*
X106666079Y-48480117D01*
X106689425Y-48495716D01*
X106709012Y-48504365D01*
X106722390Y-48517743D01*
X106743291Y-48531709D01*
X106757256Y-48552609D01*
X106770634Y-48565987D01*
X106779281Y-48585572D01*
X106794883Y-48608921D01*
X106799221Y-48630731D01*
X106806554Y-48647338D01*
X106812192Y-48695942D01*
X106813000Y-48700000D01*
X106813000Y-49100000D01*
X106812192Y-49104059D01*
X106806554Y-49152661D01*
X106799221Y-49169266D01*
X106794883Y-49191079D01*
X106779280Y-49214429D01*
X106770634Y-49234012D01*
X106757258Y-49247387D01*
X106743291Y-49268291D01*
X106722387Y-49282258D01*
X106709012Y-49295634D01*
X106689429Y-49304280D01*
X106666079Y-49319883D01*
X106644266Y-49324221D01*
X106627661Y-49331554D01*
X106579059Y-49337192D01*
X106575000Y-49338000D01*
X106025000Y-49338000D01*
X106020942Y-49337192D01*
X105972338Y-49331554D01*
X105955731Y-49324221D01*
X105933921Y-49319883D01*
X105910572Y-49304281D01*
X105890987Y-49295634D01*
X105877609Y-49282256D01*
X105856709Y-49268291D01*
X105842743Y-49247390D01*
X105829365Y-49234012D01*
X105820716Y-49214425D01*
X105805117Y-49191079D01*
X105800779Y-49169271D01*
X105793445Y-49152661D01*
X105787805Y-49104047D01*
X105787000Y-49100000D01*
X105787000Y-48700000D01*
X105787804Y-48695954D01*
X105793445Y-48647338D01*
X105800779Y-48630727D01*
X105805117Y-48608921D01*
X105820715Y-48585576D01*
X105829365Y-48565987D01*
X105842745Y-48552606D01*
X105856709Y-48531709D01*
X105877606Y-48517745D01*
X105890987Y-48504365D01*
X105910576Y-48495715D01*
X105933921Y-48480117D01*
X105955727Y-48475779D01*
X105972338Y-48468445D01*
X106020954Y-48462804D01*
X106025000Y-48462000D01*
X106575000Y-48462000D01*
X106579047Y-48462805D01*
G37*
G36*
X104554542Y-47064893D02*
G01*
X104566870Y-47073130D01*
X104575107Y-47085458D01*
X104578000Y-47100000D01*
X104578000Y-48800000D01*
X104575107Y-48814542D01*
X104566870Y-48826870D01*
X104554542Y-48835107D01*
X104540000Y-48838000D01*
X102840000Y-48838000D01*
X102825458Y-48835107D01*
X102813130Y-48826870D01*
X102804893Y-48814542D01*
X102802000Y-48800000D01*
X102802000Y-47100000D01*
X102804893Y-47085458D01*
X102813130Y-47073130D01*
X102825458Y-47064893D01*
X102840000Y-47062000D01*
X104540000Y-47062000D01*
X104554542Y-47064893D01*
G37*
G36*
X91264407Y-47105462D02*
G01*
X91434000Y-47180969D01*
X91584188Y-47290087D01*
X91708407Y-47428047D01*
X91801228Y-47588818D01*
X91858595Y-47765374D01*
X91878000Y-47950000D01*
X91858595Y-48134626D01*
X91801228Y-48311182D01*
X91708407Y-48471953D01*
X91584188Y-48609913D01*
X91434000Y-48719031D01*
X91264407Y-48794538D01*
X91082821Y-48833135D01*
X90897179Y-48833135D01*
X90715593Y-48794538D01*
X90546000Y-48719031D01*
X90395812Y-48609913D01*
X90271593Y-48471953D01*
X90178772Y-48311182D01*
X90121405Y-48134626D01*
X90102000Y-47950000D01*
X90121405Y-47765374D01*
X90178772Y-47588818D01*
X90271593Y-47428047D01*
X90395812Y-47290087D01*
X90546000Y-47180969D01*
X90715593Y-47105462D01*
X90897179Y-47066865D01*
X91082821Y-47066865D01*
X91264407Y-47105462D01*
G37*
G36*
X93804407Y-47105462D02*
G01*
X93974000Y-47180969D01*
X94124188Y-47290087D01*
X94248407Y-47428047D01*
X94341228Y-47588818D01*
X94398595Y-47765374D01*
X94418000Y-47950000D01*
X94398595Y-48134626D01*
X94341228Y-48311182D01*
X94248407Y-48471953D01*
X94124188Y-48609913D01*
X93974000Y-48719031D01*
X93804407Y-48794538D01*
X93622821Y-48833135D01*
X93437179Y-48833135D01*
X93255593Y-48794538D01*
X93086000Y-48719031D01*
X92935812Y-48609913D01*
X92811593Y-48471953D01*
X92718772Y-48311182D01*
X92661405Y-48134626D01*
X92642000Y-47950000D01*
X92661405Y-47765374D01*
X92718772Y-47588818D01*
X92811593Y-47428047D01*
X92935812Y-47290087D01*
X93086000Y-47180969D01*
X93255593Y-47105462D01*
X93437179Y-47066865D01*
X93622821Y-47066865D01*
X93804407Y-47105462D01*
G37*
G36*
X96344407Y-47105462D02*
G01*
X96514000Y-47180969D01*
X96664188Y-47290087D01*
X96788407Y-47428047D01*
X96881228Y-47588818D01*
X96938595Y-47765374D01*
X96958000Y-47950000D01*
X96938595Y-48134626D01*
X96881228Y-48311182D01*
X96788407Y-48471953D01*
X96664188Y-48609913D01*
X96514000Y-48719031D01*
X96344407Y-48794538D01*
X96162821Y-48833135D01*
X95977179Y-48833135D01*
X95795593Y-48794538D01*
X95626000Y-48719031D01*
X95475812Y-48609913D01*
X95351593Y-48471953D01*
X95258772Y-48311182D01*
X95201405Y-48134626D01*
X95182000Y-47950000D01*
X95201405Y-47765374D01*
X95258772Y-47588818D01*
X95351593Y-47428047D01*
X95475812Y-47290087D01*
X95626000Y-47180969D01*
X95795593Y-47105462D01*
X95977179Y-47066865D01*
X96162821Y-47066865D01*
X96344407Y-47105462D01*
G37*
G36*
X98884407Y-47105462D02*
G01*
X99054000Y-47180969D01*
X99204188Y-47290087D01*
X99328407Y-47428047D01*
X99421228Y-47588818D01*
X99478595Y-47765374D01*
X99498000Y-47950000D01*
X99478595Y-48134626D01*
X99421228Y-48311182D01*
X99328407Y-48471953D01*
X99204188Y-48609913D01*
X99054000Y-48719031D01*
X98884407Y-48794538D01*
X98702821Y-48833135D01*
X98517179Y-48833135D01*
X98335593Y-48794538D01*
X98166000Y-48719031D01*
X98015812Y-48609913D01*
X97891593Y-48471953D01*
X97798772Y-48311182D01*
X97741405Y-48134626D01*
X97722000Y-47950000D01*
X97741405Y-47765374D01*
X97798772Y-47588818D01*
X97891593Y-47428047D01*
X98015812Y-47290087D01*
X98166000Y-47180969D01*
X98335593Y-47105462D01*
X98517179Y-47066865D01*
X98702821Y-47066865D01*
X98884407Y-47105462D01*
G37*
G36*
X101424407Y-47105462D02*
G01*
X101594000Y-47180969D01*
X101744188Y-47290087D01*
X101868407Y-47428047D01*
X101961228Y-47588818D01*
X102018595Y-47765374D01*
X102038000Y-47950000D01*
X102018595Y-48134626D01*
X101961228Y-48311182D01*
X101868407Y-48471953D01*
X101744188Y-48609913D01*
X101594000Y-48719031D01*
X101424407Y-48794538D01*
X101242821Y-48833135D01*
X101057179Y-48833135D01*
X100875593Y-48794538D01*
X100706000Y-48719031D01*
X100555812Y-48609913D01*
X100431593Y-48471953D01*
X100338772Y-48311182D01*
X100281405Y-48134626D01*
X100262000Y-47950000D01*
X100281405Y-47765374D01*
X100338772Y-47588818D01*
X100431593Y-47428047D01*
X100555812Y-47290087D01*
X100706000Y-47180969D01*
X100875593Y-47105462D01*
X101057179Y-47066865D01*
X101242821Y-47066865D01*
X101424407Y-47105462D01*
G37*
G36*
X106579047Y-46812805D02*
G01*
X106627661Y-46818445D01*
X106644271Y-46825779D01*
X106666079Y-46830117D01*
X106689425Y-46845716D01*
X106709012Y-46854365D01*
X106722390Y-46867743D01*
X106743291Y-46881709D01*
X106757256Y-46902609D01*
X106770634Y-46915987D01*
X106779281Y-46935572D01*
X106794883Y-46958921D01*
X106799221Y-46980731D01*
X106806554Y-46997338D01*
X106812192Y-47045942D01*
X106813000Y-47050000D01*
X106813000Y-47450000D01*
X106812192Y-47454059D01*
X106806554Y-47502661D01*
X106799221Y-47519266D01*
X106794883Y-47541079D01*
X106779280Y-47564429D01*
X106770634Y-47584012D01*
X106757258Y-47597387D01*
X106743291Y-47618291D01*
X106722387Y-47632258D01*
X106709012Y-47645634D01*
X106689429Y-47654280D01*
X106666079Y-47669883D01*
X106644266Y-47674221D01*
X106627661Y-47681554D01*
X106579059Y-47687192D01*
X106575000Y-47688000D01*
X106025000Y-47688000D01*
X106020942Y-47687192D01*
X105972338Y-47681554D01*
X105955731Y-47674221D01*
X105933921Y-47669883D01*
X105910572Y-47654281D01*
X105890987Y-47645634D01*
X105877609Y-47632256D01*
X105856709Y-47618291D01*
X105842743Y-47597390D01*
X105829365Y-47584012D01*
X105820716Y-47564425D01*
X105805117Y-47541079D01*
X105800779Y-47519271D01*
X105793445Y-47502661D01*
X105787805Y-47454047D01*
X105787000Y-47450000D01*
X105787000Y-47050000D01*
X105787804Y-47045954D01*
X105793445Y-46997338D01*
X105800779Y-46980727D01*
X105805117Y-46958921D01*
X105820715Y-46935576D01*
X105829365Y-46915987D01*
X105842745Y-46902606D01*
X105856709Y-46881709D01*
X105877606Y-46867745D01*
X105890987Y-46854365D01*
X105910576Y-46845715D01*
X105933921Y-46830117D01*
X105955727Y-46825779D01*
X105972338Y-46818445D01*
X106020954Y-46812804D01*
X106025000Y-46812000D01*
X106575000Y-46812000D01*
X106579047Y-46812805D01*
G37*
M02*
