G04 #@! TF.GenerationSoftware,KiCad,Pcbnew,8.0.1*
G04 #@! TF.CreationDate,2024-06-08T15:54:11-04:00*
G04 #@! TF.ProjectId,SAP Mk3.2,53415020-4d6b-4332-9e32-2e6b69636164,rev?*
G04 #@! TF.SameCoordinates,Original*
G04 #@! TF.FileFunction,Legend,Top*
G04 #@! TF.FilePolarity,Positive*
%FSLAX46Y46*%
G04 Gerber Fmt 4.6, Leading zero omitted, Abs format (unit mm)*
G04 Created by KiCad (PCBNEW 8.0.1) date 2024-06-08 15:54:11*
%MOMM*%
%LPD*%
G01*
G04 APERTURE LIST*
G04 Aperture macros list*
%AMRoundRect*
0 Rectangle with rounded corners*
0 $1 Rounding radius*
0 $2 $3 $4 $5 $6 $7 $8 $9 X,Y pos of 4 corners*
0 Add a 4 corners polygon primitive as box body*
4,1,4,$2,$3,$4,$5,$6,$7,$8,$9,$2,$3,0*
0 Add four circle primitives for the rounded corners*
1,1,$1+$1,$2,$3*
1,1,$1+$1,$4,$5*
1,1,$1+$1,$6,$7*
1,1,$1+$1,$8,$9*
0 Add four rect primitives between the rounded corners*
20,1,$1+$1,$2,$3,$4,$5,0*
20,1,$1+$1,$4,$5,$6,$7,0*
20,1,$1+$1,$6,$7,$8,$9,0*
20,1,$1+$1,$8,$9,$2,$3,0*%
G04 Aperture macros list end*
%ADD10C,0.200000*%
%ADD11C,0.000000*%
%ADD12C,0.300000*%
%ADD13C,0.150000*%
%ADD14C,0.120000*%
%ADD15C,0.152400*%
%ADD16RoundRect,0.038000X1.100000X-1.100000X1.100000X1.100000X-1.100000X1.100000X-1.100000X-1.100000X0*%
%ADD17C,2.276000*%
%ADD18RoundRect,0.144000X-0.144000X-0.144000X0.144000X-0.144000X0.144000X0.144000X-0.144000X0.144000X0*%
%ADD19RoundRect,0.219000X0.219000X0.294000X-0.219000X0.294000X-0.219000X-0.294000X0.219000X-0.294000X0*%
%ADD20RoundRect,0.244000X-0.269000X0.244000X-0.269000X-0.244000X0.269000X-0.244000X0.269000X0.244000X0*%
%ADD21RoundRect,0.219000X-0.294000X0.219000X-0.294000X-0.219000X0.294000X-0.219000X0.294000X0.219000X0*%
%ADD22RoundRect,0.244000X-0.244000X-0.269000X0.244000X-0.269000X0.244000X0.269000X-0.244000X0.269000X0*%
%ADD23RoundRect,0.094000X-0.094000X0.719000X-0.094000X-0.719000X0.094000X-0.719000X0.094000X0.719000X0*%
%ADD24RoundRect,0.094000X-0.719000X0.094000X-0.719000X-0.094000X0.719000X-0.094000X0.719000X0.094000X0*%
%ADD25RoundRect,0.038000X-0.200000X-0.700000X0.200000X-0.700000X0.200000X0.700000X-0.200000X0.700000X0*%
%ADD26O,1.126000X1.976000*%
%ADD27RoundRect,0.038000X-0.575000X-0.725000X0.575000X-0.725000X0.575000X0.725000X-0.575000X0.725000X0*%
%ADD28RoundRect,0.038000X-0.875000X-0.950000X0.875000X-0.950000X0.875000X0.950000X-0.875000X0.950000X0*%
%ADD29RoundRect,0.244000X0.269000X-0.244000X0.269000X0.244000X-0.269000X0.244000X-0.269000X-0.244000X0*%
%ADD30RoundRect,0.038000X0.406400X0.127000X-0.406400X0.127000X-0.406400X-0.127000X0.406400X-0.127000X0*%
%ADD31RoundRect,0.038000X0.850900X1.219200X-0.850900X1.219200X-0.850900X-1.219200X0.850900X-1.219200X0*%
%ADD32RoundRect,0.038000X-0.850000X0.850000X-0.850000X-0.850000X0.850000X-0.850000X0.850000X0.850000X0*%
%ADD33O,1.776000X1.776000*%
%ADD34RoundRect,0.265511X-0.384989X-1.447489X0.384989X-1.447489X0.384989X1.447489X-0.384989X1.447489X0*%
%ADD35RoundRect,0.237750X-0.237750X-0.275250X0.237750X-0.275250X0.237750X0.275250X-0.237750X0.275250X0*%
%ADD36RoundRect,0.219000X0.294000X-0.219000X0.294000X0.219000X-0.294000X0.219000X-0.294000X-0.219000X0*%
%ADD37C,2.676000*%
%ADD38C,3.876000*%
%ADD39RoundRect,0.244000X0.244000X0.269000X-0.244000X0.269000X-0.244000X-0.269000X0.244000X-0.269000X0*%
%ADD40RoundRect,0.219000X-0.269000X0.219000X-0.269000X-0.219000X0.269000X-0.219000X0.269000X0.219000X0*%
%ADD41RoundRect,0.038000X-0.800000X-0.800000X0.800000X-0.800000X0.800000X0.800000X-0.800000X0.800000X0*%
%ADD42C,1.676000*%
%ADD43RoundRect,0.038000X0.952500X1.000000X-0.952500X1.000000X-0.952500X-1.000000X0.952500X-1.000000X0*%
%ADD44O,1.981000X2.076000*%
%ADD45RoundRect,0.237750X0.275250X-0.237750X0.275250X0.237750X-0.275250X0.237750X-0.275250X-0.237750X0*%
%ADD46RoundRect,0.038000X0.525000X0.325000X-0.525000X0.325000X-0.525000X-0.325000X0.525000X-0.325000X0*%
%ADD47RoundRect,0.038000X1.150000X-1.150000X1.150000X1.150000X-1.150000X1.150000X-1.150000X-1.150000X0*%
%ADD48RoundRect,0.038000X0.750000X-0.750000X0.750000X0.750000X-0.750000X0.750000X-0.750000X-0.750000X0*%
G04 APERTURE END LIST*
D10*
X120929197Y-77604980D02*
X120929197Y-76504980D01*
X120929197Y-76504980D02*
X121405387Y-76504980D01*
X121405387Y-76504980D02*
X121524435Y-76557361D01*
X121524435Y-76557361D02*
X121583958Y-76609742D01*
X121583958Y-76609742D02*
X121643482Y-76714504D01*
X121643482Y-76714504D02*
X121643482Y-76871647D01*
X121643482Y-76871647D02*
X121583958Y-76976409D01*
X121583958Y-76976409D02*
X121524435Y-77028790D01*
X121524435Y-77028790D02*
X121405387Y-77081171D01*
X121405387Y-77081171D02*
X120929197Y-77081171D01*
X122060149Y-76504980D02*
X122357768Y-77604980D01*
X122357768Y-77604980D02*
X122595863Y-76819266D01*
X122595863Y-76819266D02*
X122833958Y-77604980D01*
X122833958Y-77604980D02*
X123131578Y-76504980D01*
X123607768Y-77604980D02*
X123607768Y-76504980D01*
X123607768Y-76504980D02*
X124024434Y-77290695D01*
X124024434Y-77290695D02*
X124441101Y-76504980D01*
X124441101Y-76504980D02*
X124441101Y-77604980D01*
X125810148Y-77185933D02*
X125869672Y-77133552D01*
X125869672Y-77133552D02*
X125988720Y-77081171D01*
X125988720Y-77081171D02*
X126226815Y-77185933D01*
X126226815Y-77185933D02*
X126345862Y-77133552D01*
X126345862Y-77133552D02*
X126405386Y-77081171D01*
X128607767Y-77185933D02*
X128667291Y-77133552D01*
X128667291Y-77133552D02*
X128786339Y-77081171D01*
X128786339Y-77081171D02*
X129024434Y-77185933D01*
X129024434Y-77185933D02*
X129143481Y-77133552D01*
X129143481Y-77133552D02*
X129203005Y-77081171D01*
D11*
G36*
X113147104Y-47930970D02*
G01*
X113293564Y-47936377D01*
X113439415Y-47945379D01*
X113584627Y-47957971D01*
X113729167Y-47974147D01*
X113873004Y-47993900D01*
X114016108Y-48017224D01*
X114158446Y-48044112D01*
X114299987Y-48074558D01*
X114440700Y-48108555D01*
X114580553Y-48146098D01*
X114719516Y-48187179D01*
X114857556Y-48231793D01*
X114994642Y-48279932D01*
X115130743Y-48331591D01*
X115265827Y-48386764D01*
X115394948Y-48443212D01*
X115522390Y-48502609D01*
X115648129Y-48564940D01*
X115772137Y-48630185D01*
X115894390Y-48698327D01*
X116014862Y-48769350D01*
X116133526Y-48843235D01*
X116250357Y-48919965D01*
X116365329Y-48999523D01*
X116478417Y-49081892D01*
X116589595Y-49167053D01*
X116698836Y-49254990D01*
X116806116Y-49345685D01*
X116911408Y-49439120D01*
X117014686Y-49535278D01*
X117115925Y-49634142D01*
X117214789Y-49735380D01*
X117310947Y-49838654D01*
X117404383Y-49943940D01*
X117495077Y-50051212D01*
X117583014Y-50160445D01*
X117668175Y-50271614D01*
X117750544Y-50384694D01*
X117830102Y-50499660D01*
X117906832Y-50616486D01*
X117980717Y-50735147D01*
X118051740Y-50855618D01*
X118119882Y-50977874D01*
X118185127Y-51101889D01*
X118247458Y-51227639D01*
X118306855Y-51355098D01*
X118363303Y-51484241D01*
X118438943Y-51672116D01*
X118507797Y-51861927D01*
X118569851Y-52053590D01*
X118625092Y-52247018D01*
X118673505Y-52442127D01*
X118715077Y-52638831D01*
X118749793Y-52837044D01*
X118777640Y-53036683D01*
X118778090Y-53041403D01*
X118778278Y-53046081D01*
X118778210Y-53050711D01*
X118777894Y-53055285D01*
X118777334Y-53059797D01*
X118776537Y-53064239D01*
X118775510Y-53068604D01*
X118774259Y-53072886D01*
X118772790Y-53077076D01*
X118771109Y-53081168D01*
X118769223Y-53085155D01*
X118767139Y-53089029D01*
X118764861Y-53092784D01*
X118762398Y-53096412D01*
X118759754Y-53099906D01*
X118756937Y-53103259D01*
X118753952Y-53106464D01*
X118750806Y-53109514D01*
X118747505Y-53112402D01*
X118744056Y-53115120D01*
X118740464Y-53117662D01*
X118736737Y-53120020D01*
X118732880Y-53122188D01*
X118728899Y-53124157D01*
X118724802Y-53125922D01*
X118720593Y-53127474D01*
X118716281Y-53128807D01*
X118711870Y-53129913D01*
X118707367Y-53130786D01*
X118702779Y-53131419D01*
X118698111Y-53131804D01*
X118693370Y-53131933D01*
X118464109Y-53131933D01*
X118460147Y-53131842D01*
X118456227Y-53131571D01*
X118452353Y-53131124D01*
X118448529Y-53130504D01*
X118444761Y-53129715D01*
X118441052Y-53128762D01*
X118437407Y-53127647D01*
X118433831Y-53126375D01*
X118430327Y-53124949D01*
X118426901Y-53123374D01*
X118423556Y-53121652D01*
X118420298Y-53119788D01*
X118417130Y-53117785D01*
X118414057Y-53115647D01*
X118411085Y-53113378D01*
X118408216Y-53110982D01*
X118405455Y-53108462D01*
X118402808Y-53105822D01*
X118400278Y-53103066D01*
X118397870Y-53100198D01*
X118395588Y-53097221D01*
X118393437Y-53094139D01*
X118391422Y-53090956D01*
X118389546Y-53087676D01*
X118387814Y-53084302D01*
X118386231Y-53080838D01*
X118384801Y-53077288D01*
X118383529Y-53073656D01*
X118382418Y-53069945D01*
X118381474Y-53066160D01*
X118380701Y-53062303D01*
X118380104Y-53058379D01*
X118342523Y-52810295D01*
X118293830Y-52565986D01*
X118234296Y-52325722D01*
X118164188Y-52089772D01*
X118083776Y-51858403D01*
X117993329Y-51631886D01*
X117893114Y-51410489D01*
X117783402Y-51194481D01*
X117664461Y-50984130D01*
X117536560Y-50779706D01*
X117399968Y-50581478D01*
X117254954Y-50389714D01*
X117101786Y-50204684D01*
X116940734Y-50026656D01*
X116772066Y-49855898D01*
X116596052Y-49692681D01*
X116412959Y-49537273D01*
X116223058Y-49389942D01*
X116026616Y-49250958D01*
X115823904Y-49120589D01*
X115615188Y-48999104D01*
X115400740Y-48886773D01*
X115180827Y-48783864D01*
X114955718Y-48690646D01*
X114725682Y-48607388D01*
X114490989Y-48534358D01*
X114251906Y-48471826D01*
X114008703Y-48420061D01*
X113761649Y-48379331D01*
X113511012Y-48349905D01*
X113257062Y-48332053D01*
X113000067Y-48326042D01*
X112743072Y-48332053D01*
X112489122Y-48349905D01*
X112238485Y-48379331D01*
X111991431Y-48420061D01*
X111748227Y-48471826D01*
X111509144Y-48534358D01*
X111274450Y-48607388D01*
X111044414Y-48690646D01*
X110819304Y-48783864D01*
X110599390Y-48886773D01*
X110384940Y-48999104D01*
X110176223Y-49120589D01*
X109973509Y-49250958D01*
X109777065Y-49389942D01*
X109587161Y-49537273D01*
X109404066Y-49692681D01*
X109228048Y-49855898D01*
X109059376Y-50026656D01*
X108898320Y-50204684D01*
X108745147Y-50389714D01*
X108600128Y-50581478D01*
X108463530Y-50779706D01*
X108335623Y-50984130D01*
X108216675Y-51194481D01*
X108106956Y-51410489D01*
X108006734Y-51631886D01*
X107916278Y-51858403D01*
X107835857Y-52089772D01*
X107765739Y-52325722D01*
X107706194Y-52565986D01*
X107657491Y-52810295D01*
X107619897Y-53058379D01*
X107619311Y-53062303D01*
X107618549Y-53066160D01*
X107617613Y-53069945D01*
X107616510Y-53073656D01*
X107615244Y-53077288D01*
X107613819Y-53080838D01*
X107612240Y-53084302D01*
X107610511Y-53087676D01*
X107608637Y-53090956D01*
X107606622Y-53094139D01*
X107604472Y-53097221D01*
X107602189Y-53100198D01*
X107599780Y-53103066D01*
X107597248Y-53105822D01*
X107594598Y-53108462D01*
X107591835Y-53110982D01*
X107588963Y-53113378D01*
X107585986Y-53115647D01*
X107582910Y-53117785D01*
X107579738Y-53119788D01*
X107576476Y-53121652D01*
X107573127Y-53123374D01*
X107569697Y-53124949D01*
X107566189Y-53126375D01*
X107562609Y-53127647D01*
X107558960Y-53128762D01*
X107555248Y-53129715D01*
X107551477Y-53130504D01*
X107547651Y-53131124D01*
X107543776Y-53131571D01*
X107539854Y-53131842D01*
X107535892Y-53131933D01*
X107535892Y-53131801D01*
X107306763Y-53131801D01*
X107302023Y-53131672D01*
X107297355Y-53131288D01*
X107292767Y-53130658D01*
X107288264Y-53129787D01*
X107283853Y-53128683D01*
X107279540Y-53127353D01*
X107275332Y-53125804D01*
X107271235Y-53124044D01*
X107267254Y-53122078D01*
X107263397Y-53119915D01*
X107259669Y-53117561D01*
X107256078Y-53115023D01*
X107252629Y-53112309D01*
X107249328Y-53109425D01*
X107246182Y-53106379D01*
X107243197Y-53103177D01*
X107240380Y-53099826D01*
X107237736Y-53096334D01*
X107235272Y-53092708D01*
X107232995Y-53088955D01*
X107230910Y-53085081D01*
X107229025Y-53081094D01*
X107227344Y-53077001D01*
X107225875Y-53072809D01*
X107224624Y-53068525D01*
X107223597Y-53064156D01*
X107222800Y-53059709D01*
X107222240Y-53055191D01*
X107221923Y-53050609D01*
X107221856Y-53045971D01*
X107222044Y-53041282D01*
X107222493Y-53036551D01*
X107250341Y-52836874D01*
X107285057Y-52638643D01*
X107326629Y-52441936D01*
X107375042Y-52246836D01*
X107430283Y-52053423D01*
X107492337Y-51861776D01*
X107561191Y-51671978D01*
X107636831Y-51484109D01*
X107693279Y-51354987D01*
X107752677Y-51227545D01*
X107815007Y-51101806D01*
X107880252Y-50977797D01*
X107948394Y-50855544D01*
X108019417Y-50735073D01*
X108093302Y-50616408D01*
X108170032Y-50499577D01*
X108249591Y-50384605D01*
X108331959Y-50271517D01*
X108417120Y-50160340D01*
X108505057Y-50051098D01*
X108595752Y-49943819D01*
X108689187Y-49838527D01*
X108785345Y-49735249D01*
X108884209Y-49634010D01*
X108985447Y-49535146D01*
X109088721Y-49438987D01*
X109194007Y-49345552D01*
X109301279Y-49254858D01*
X109410512Y-49166921D01*
X109521682Y-49081760D01*
X109634762Y-48999391D01*
X109749727Y-48919833D01*
X109866553Y-48843103D01*
X109985214Y-48769217D01*
X110105685Y-48698195D01*
X110227941Y-48630052D01*
X110351956Y-48564807D01*
X110477706Y-48502477D01*
X110605165Y-48443079D01*
X110734308Y-48386632D01*
X110869392Y-48331482D01*
X111005493Y-48279844D01*
X111142579Y-48231722D01*
X111280619Y-48187123D01*
X111419581Y-48146055D01*
X111559434Y-48108523D01*
X111700147Y-48074534D01*
X111841688Y-48044095D01*
X111984026Y-48017213D01*
X112127129Y-47993893D01*
X112270967Y-47974143D01*
X112415507Y-47957969D01*
X112560719Y-47945378D01*
X112706570Y-47936376D01*
X112853030Y-47930970D01*
X113000067Y-47929167D01*
X113147104Y-47930970D01*
G37*
G36*
X114431370Y-49159446D02*
G01*
X114435572Y-49160064D01*
X114439524Y-49160987D01*
X114443220Y-49162209D01*
X114446656Y-49163725D01*
X114449828Y-49165532D01*
X114452730Y-49167624D01*
X114455358Y-49169997D01*
X114457708Y-49172646D01*
X114459774Y-49175565D01*
X114461553Y-49178752D01*
X114463038Y-49182200D01*
X114464227Y-49185906D01*
X114465113Y-49189864D01*
X114465692Y-49194069D01*
X114465960Y-49198518D01*
X114465912Y-49203205D01*
X114465543Y-49208126D01*
X114464849Y-49213276D01*
X114463825Y-49218650D01*
X114462466Y-49224243D01*
X114460768Y-49230052D01*
X114458725Y-49236070D01*
X114456334Y-49242294D01*
X113789981Y-50883372D01*
X113779719Y-50910651D01*
X113769550Y-50941292D01*
X113759741Y-50974251D01*
X113750558Y-51008488D01*
X113742268Y-51042960D01*
X113735138Y-51076626D01*
X113729434Y-51108444D01*
X113725422Y-51137372D01*
X113468248Y-53414773D01*
X113467178Y-53428694D01*
X113467021Y-53443240D01*
X113467739Y-53458293D01*
X113469296Y-53473734D01*
X113471655Y-53489445D01*
X113474780Y-53505307D01*
X113478634Y-53521202D01*
X113483180Y-53537011D01*
X113488382Y-53552615D01*
X113494203Y-53567896D01*
X113500607Y-53582735D01*
X113507557Y-53597013D01*
X113515015Y-53610613D01*
X113522947Y-53623415D01*
X113531315Y-53635301D01*
X113540081Y-53646152D01*
X113926770Y-54091577D01*
X113931376Y-54096630D01*
X113936231Y-54101469D01*
X113946635Y-54110493D01*
X113957876Y-54118627D01*
X113969851Y-54125851D01*
X113982454Y-54132142D01*
X113995579Y-54137479D01*
X114009123Y-54141840D01*
X114022979Y-54145205D01*
X114037042Y-54147550D01*
X114051209Y-54148856D01*
X114065373Y-54149101D01*
X114079430Y-54148262D01*
X114093275Y-54146318D01*
X114106802Y-54143249D01*
X114119906Y-54139032D01*
X114126267Y-54136486D01*
X114132483Y-54133645D01*
X114170981Y-54114860D01*
X114197494Y-54102684D01*
X114227339Y-54090205D01*
X114259494Y-54077774D01*
X114292937Y-54065747D01*
X114326647Y-54054477D01*
X114359602Y-54044316D01*
X114390780Y-54035619D01*
X114419160Y-54028739D01*
X115658204Y-53757673D01*
X115686608Y-53750896D01*
X115717857Y-53742401D01*
X115750926Y-53732530D01*
X115784790Y-53721623D01*
X115796536Y-53717572D01*
X116047867Y-53717572D01*
X116048199Y-53719606D01*
X116048933Y-53721564D01*
X116050068Y-53723441D01*
X116051602Y-53725234D01*
X116053534Y-53726939D01*
X116055865Y-53728552D01*
X116058592Y-53730070D01*
X116061714Y-53731488D01*
X116065232Y-53732802D01*
X116069143Y-53734010D01*
X116073447Y-53735107D01*
X116078143Y-53736090D01*
X116083230Y-53736954D01*
X116088706Y-53737696D01*
X116094572Y-53738312D01*
X116107466Y-53739152D01*
X116758341Y-53765875D01*
X116787548Y-53766622D01*
X116819977Y-53766615D01*
X116854545Y-53765908D01*
X116890170Y-53764552D01*
X116925770Y-53762601D01*
X116960264Y-53760108D01*
X116992568Y-53757125D01*
X117021602Y-53753704D01*
X117263960Y-53721028D01*
X117270519Y-53720052D01*
X117276676Y-53718964D01*
X117282432Y-53717767D01*
X117287785Y-53716465D01*
X117292735Y-53715064D01*
X117297282Y-53713566D01*
X117301425Y-53711977D01*
X117305163Y-53710300D01*
X117308496Y-53708539D01*
X117311423Y-53706700D01*
X117313943Y-53704786D01*
X117316057Y-53702801D01*
X117317763Y-53700750D01*
X117319062Y-53698636D01*
X117319951Y-53696464D01*
X117320432Y-53694239D01*
X117320503Y-53691964D01*
X117320164Y-53689643D01*
X117319414Y-53687281D01*
X117318253Y-53684883D01*
X117316679Y-53682451D01*
X117314694Y-53679991D01*
X117312295Y-53677507D01*
X117309483Y-53675003D01*
X117306256Y-53672483D01*
X117302615Y-53669951D01*
X117298559Y-53667411D01*
X117294087Y-53664869D01*
X117289199Y-53662327D01*
X117283893Y-53659790D01*
X117278170Y-53657263D01*
X117272030Y-53654750D01*
X117177839Y-53617576D01*
X117164610Y-53612672D01*
X117150411Y-53607998D01*
X117135372Y-53603571D01*
X117119623Y-53599415D01*
X117103296Y-53595548D01*
X117086520Y-53591991D01*
X117069426Y-53588766D01*
X117052144Y-53585892D01*
X117034805Y-53583390D01*
X117017539Y-53581281D01*
X117000476Y-53579585D01*
X116983747Y-53578323D01*
X116967483Y-53577515D01*
X116951813Y-53577181D01*
X116936869Y-53577343D01*
X116922780Y-53578021D01*
X116340299Y-53617972D01*
X116326243Y-53619180D01*
X116311397Y-53620894D01*
X116295888Y-53623085D01*
X116279842Y-53625720D01*
X116246649Y-53632195D01*
X116212836Y-53640066D01*
X116179420Y-53649077D01*
X116147418Y-53658975D01*
X116132265Y-53664177D01*
X116117847Y-53669506D01*
X116104290Y-53674929D01*
X116091723Y-53680414D01*
X116091723Y-53680415D01*
X116085917Y-53683147D01*
X116080526Y-53685859D01*
X116075550Y-53688548D01*
X116070989Y-53691208D01*
X116066840Y-53693837D01*
X116063104Y-53696431D01*
X116059779Y-53698986D01*
X116056865Y-53701499D01*
X116054359Y-53703965D01*
X116052262Y-53706380D01*
X116050572Y-53708742D01*
X116049289Y-53711046D01*
X116048411Y-53713288D01*
X116047937Y-53715464D01*
X116047867Y-53717572D01*
X115796536Y-53717572D01*
X115818425Y-53710022D01*
X115850805Y-53698067D01*
X115880907Y-53686100D01*
X115907705Y-53674461D01*
X116061692Y-53604082D01*
X116074628Y-53598446D01*
X116088545Y-53592871D01*
X116118803Y-53582039D01*
X116151434Y-53571851D01*
X116185402Y-53562575D01*
X116219674Y-53554478D01*
X116253216Y-53547825D01*
X116284994Y-53542884D01*
X116299898Y-53541138D01*
X116313973Y-53539921D01*
X116939183Y-53496264D01*
X116953274Y-53495560D01*
X116968223Y-53495369D01*
X116983899Y-53495671D01*
X117000172Y-53496446D01*
X117016911Y-53497674D01*
X117033985Y-53499334D01*
X117051263Y-53501406D01*
X117068614Y-53503871D01*
X117085908Y-53506708D01*
X117103014Y-53509897D01*
X117119801Y-53513417D01*
X117136139Y-53517249D01*
X117151895Y-53521373D01*
X117166941Y-53525767D01*
X117181144Y-53530413D01*
X117194374Y-53535290D01*
X117507378Y-53657792D01*
X117513574Y-53660397D01*
X117519460Y-53663222D01*
X117525033Y-53666257D01*
X117530293Y-53669493D01*
X117535236Y-53672920D01*
X117539861Y-53676529D01*
X117544165Y-53680311D01*
X117548146Y-53684256D01*
X117551803Y-53688356D01*
X117555132Y-53692600D01*
X117558132Y-53696979D01*
X117560800Y-53701484D01*
X117563135Y-53706107D01*
X117565134Y-53710836D01*
X117566795Y-53715664D01*
X117568116Y-53720581D01*
X117569095Y-53725577D01*
X117569730Y-53730643D01*
X117570018Y-53735770D01*
X117569957Y-53740948D01*
X117569545Y-53746169D01*
X117568781Y-53751422D01*
X117567661Y-53756699D01*
X117566184Y-53761990D01*
X117564347Y-53767286D01*
X117562149Y-53772577D01*
X117559587Y-53777855D01*
X117556659Y-53783109D01*
X117553363Y-53788331D01*
X117549697Y-53793511D01*
X117545658Y-53798641D01*
X117541245Y-53803709D01*
X117345056Y-54018286D01*
X117325735Y-54040218D01*
X117305017Y-54065153D01*
X117283548Y-54092224D01*
X117261977Y-54120564D01*
X117240951Y-54149308D01*
X117221119Y-54177588D01*
X117203129Y-54204538D01*
X117187629Y-54229291D01*
X117095951Y-54381824D01*
X117088398Y-54393728D01*
X117079890Y-54405962D01*
X117070521Y-54418435D01*
X117060385Y-54431056D01*
X117049574Y-54443733D01*
X117038182Y-54456376D01*
X117026302Y-54468893D01*
X117014029Y-54481192D01*
X117001454Y-54493183D01*
X116988673Y-54504775D01*
X116975777Y-54515875D01*
X116962861Y-54526393D01*
X116950017Y-54536237D01*
X116937340Y-54545316D01*
X116924923Y-54553540D01*
X116912858Y-54560815D01*
X116801072Y-54624580D01*
X116711147Y-54676124D01*
X116676987Y-54695850D01*
X116656345Y-54707924D01*
X116648388Y-54713350D01*
X116637166Y-54721990D01*
X116623197Y-54733399D01*
X116606999Y-54747132D01*
X116589090Y-54762743D01*
X116569987Y-54779789D01*
X116550207Y-54797824D01*
X116530270Y-54816403D01*
X115824230Y-55481036D01*
X115813804Y-55490560D01*
X115802445Y-55500377D01*
X115790263Y-55510414D01*
X115777370Y-55520596D01*
X115749895Y-55541093D01*
X115720910Y-55561271D01*
X115691305Y-55580532D01*
X115661970Y-55598276D01*
X115647682Y-55606392D01*
X115633795Y-55613905D01*
X115620420Y-55620740D01*
X115607669Y-55626822D01*
X114759414Y-56015760D01*
X114746477Y-56021372D01*
X114732556Y-56026828D01*
X114717781Y-56032100D01*
X114702281Y-56037160D01*
X114686185Y-56041978D01*
X114669624Y-56046527D01*
X114635622Y-56054703D01*
X114601310Y-56061458D01*
X114584361Y-56064232D01*
X114567724Y-56066566D01*
X114551526Y-56068430D01*
X114535898Y-56069797D01*
X114520969Y-56070638D01*
X114506869Y-56070925D01*
X112191633Y-56070925D01*
X112177604Y-56071334D01*
X112162886Y-56072533D01*
X112147601Y-56074483D01*
X112131872Y-56077143D01*
X112115821Y-56080472D01*
X112099571Y-56084431D01*
X112083244Y-56088979D01*
X112066964Y-56094076D01*
X112050853Y-56099681D01*
X112035034Y-56105755D01*
X112019628Y-56112256D01*
X112004760Y-56119145D01*
X111990552Y-56126381D01*
X111977125Y-56133925D01*
X111964604Y-56141735D01*
X111953111Y-56149771D01*
X109165461Y-58220796D01*
X109160021Y-58224667D01*
X109154668Y-58228147D01*
X109149410Y-58231240D01*
X109144252Y-58233948D01*
X109139201Y-58236275D01*
X109134263Y-58238225D01*
X109129445Y-58239800D01*
X109124752Y-58241005D01*
X109120192Y-58241843D01*
X109115770Y-58242317D01*
X109111493Y-58242431D01*
X109107367Y-58242188D01*
X109103398Y-58241591D01*
X109099594Y-58240644D01*
X109095960Y-58239350D01*
X109092502Y-58237713D01*
X109089227Y-58235736D01*
X109086142Y-58233422D01*
X109083252Y-58230775D01*
X109080564Y-58227799D01*
X109078085Y-58224497D01*
X109075820Y-58220871D01*
X109073776Y-58216927D01*
X109071960Y-58212666D01*
X109070377Y-58208093D01*
X109069034Y-58203210D01*
X109067938Y-58198022D01*
X109067094Y-58192532D01*
X109066510Y-58186742D01*
X109066191Y-58180657D01*
X109066144Y-58174280D01*
X109066374Y-58167615D01*
X109073783Y-58029899D01*
X109074026Y-58023237D01*
X109074017Y-58016894D01*
X109073760Y-58010874D01*
X109073261Y-58005178D01*
X109072526Y-57999810D01*
X109071562Y-57994772D01*
X109070372Y-57990067D01*
X109068964Y-57985697D01*
X109068232Y-57983876D01*
X109187696Y-57983876D01*
X109187821Y-57989563D01*
X109188197Y-57994935D01*
X109188819Y-57999987D01*
X109189680Y-58004718D01*
X109190776Y-58009124D01*
X109192101Y-58013202D01*
X109193651Y-58016949D01*
X109195418Y-58020363D01*
X109197399Y-58023441D01*
X109199588Y-58026180D01*
X109201979Y-58028576D01*
X109204568Y-58030627D01*
X109207348Y-58032331D01*
X109210314Y-58033684D01*
X109213462Y-58034683D01*
X109216785Y-58035325D01*
X109220279Y-58035609D01*
X109223938Y-58035529D01*
X109227756Y-58035085D01*
X109231729Y-58034273D01*
X109235850Y-58033090D01*
X109240116Y-58031533D01*
X109244519Y-58029599D01*
X109249055Y-58027286D01*
X109253719Y-58024590D01*
X109258505Y-58021509D01*
X109263408Y-58018039D01*
X109268423Y-58014179D01*
X109273543Y-58009924D01*
X109952294Y-57424609D01*
X110089295Y-57424609D01*
X110089336Y-57424996D01*
X110089710Y-57425117D01*
X110090416Y-57424971D01*
X110092820Y-57423875D01*
X110096547Y-57421706D01*
X110101592Y-57418460D01*
X110107953Y-57414133D01*
X110115625Y-57408723D01*
X110134894Y-57394635D01*
X111918847Y-56068146D01*
X111994237Y-56012386D01*
X112017428Y-55995407D01*
X112023861Y-55990782D01*
X112026268Y-55989168D01*
X112035638Y-55983695D01*
X112060251Y-55968796D01*
X112068300Y-55963866D01*
X112258916Y-55963866D01*
X112258993Y-55966384D01*
X112259465Y-55968796D01*
X112260332Y-55971096D01*
X112261592Y-55973279D01*
X112263244Y-55975343D01*
X112265287Y-55977281D01*
X112267719Y-55979090D01*
X112270540Y-55980765D01*
X112273748Y-55982301D01*
X112277341Y-55983695D01*
X112281319Y-55984941D01*
X112285680Y-55986036D01*
X112290423Y-55986975D01*
X112295547Y-55987752D01*
X112301050Y-55988365D01*
X112306931Y-55988808D01*
X112313189Y-55989078D01*
X112319823Y-55989168D01*
X114229983Y-55989170D01*
X114242810Y-55988947D01*
X114254002Y-55988294D01*
X114258984Y-55987812D01*
X114263556Y-55987231D01*
X114267718Y-55986554D01*
X114271469Y-55985782D01*
X114274809Y-55984919D01*
X114277737Y-55983967D01*
X114280253Y-55982930D01*
X114282357Y-55981810D01*
X114284047Y-55980609D01*
X114285324Y-55979331D01*
X114286188Y-55977977D01*
X114286637Y-55976552D01*
X114286671Y-55975058D01*
X114286291Y-55973496D01*
X114285494Y-55971871D01*
X114284282Y-55970185D01*
X114282653Y-55968440D01*
X114280608Y-55966640D01*
X114278145Y-55964786D01*
X114275264Y-55962883D01*
X114271965Y-55960931D01*
X114268247Y-55958936D01*
X114264111Y-55956898D01*
X114259555Y-55954821D01*
X114249182Y-55950560D01*
X114237127Y-55946174D01*
X113092009Y-55552210D01*
X113078683Y-55548185D01*
X113064583Y-55544980D01*
X113049831Y-55542581D01*
X113034549Y-55540975D01*
X113018860Y-55540149D01*
X113002885Y-55540087D01*
X112986746Y-55540777D01*
X112970566Y-55542205D01*
X112954466Y-55544357D01*
X112938569Y-55547219D01*
X112922997Y-55550778D01*
X112907872Y-55555019D01*
X112893316Y-55559929D01*
X112879450Y-55565495D01*
X112866398Y-55571701D01*
X112854281Y-55578536D01*
X112300112Y-55919848D01*
X112294515Y-55923399D01*
X112289331Y-55926905D01*
X112284559Y-55930362D01*
X112280199Y-55933765D01*
X112276248Y-55937111D01*
X112272705Y-55940393D01*
X112269570Y-55943609D01*
X112266840Y-55946753D01*
X112264515Y-55949821D01*
X112262594Y-55952808D01*
X112261074Y-55955711D01*
X112259956Y-55958525D01*
X112259237Y-55961244D01*
X112258916Y-55963866D01*
X112068300Y-55963866D01*
X112140171Y-55919848D01*
X112530431Y-55679606D01*
X112541247Y-55672762D01*
X112550482Y-55666528D01*
X112558142Y-55660919D01*
X112564234Y-55655948D01*
X112568764Y-55651631D01*
X112570445Y-55649722D01*
X112571739Y-55647982D01*
X112572644Y-55646413D01*
X112573164Y-55645016D01*
X112573297Y-55643793D01*
X112573046Y-55642746D01*
X112572411Y-55641877D01*
X112571392Y-55641188D01*
X112569991Y-55640680D01*
X112568209Y-55640356D01*
X112566045Y-55640217D01*
X112563501Y-55640265D01*
X112557277Y-55640929D01*
X112549541Y-55642363D01*
X112540302Y-55644581D01*
X112529564Y-55647598D01*
X112517335Y-55651428D01*
X112033544Y-55809781D01*
X112020233Y-55814442D01*
X112006271Y-55819851D01*
X111991777Y-55825942D01*
X111976865Y-55832649D01*
X111961653Y-55839907D01*
X111946256Y-55847651D01*
X111930792Y-55855815D01*
X111915375Y-55864335D01*
X111900122Y-55873144D01*
X111885150Y-55882178D01*
X111870575Y-55891371D01*
X111856513Y-55900659D01*
X111843081Y-55909975D01*
X111830394Y-55919255D01*
X111818569Y-55928432D01*
X111807722Y-55937443D01*
X110128809Y-57387095D01*
X110110877Y-57402872D01*
X110103935Y-57409194D01*
X110098338Y-57414467D01*
X110094084Y-57418687D01*
X110091167Y-57421851D01*
X110089586Y-57423955D01*
X110089295Y-57424609D01*
X109952294Y-57424609D01*
X110178815Y-57229271D01*
X110188805Y-57219826D01*
X110198068Y-57209373D01*
X110206577Y-57198022D01*
X110214302Y-57185879D01*
X110221215Y-57173055D01*
X110227286Y-57159657D01*
X110232488Y-57145793D01*
X110236792Y-57131574D01*
X110240168Y-57117106D01*
X110242589Y-57102498D01*
X110244025Y-57087860D01*
X110244448Y-57073299D01*
X110243829Y-57058924D01*
X110242140Y-57044844D01*
X110239352Y-57031167D01*
X110235436Y-57018001D01*
X110095075Y-56616231D01*
X110092736Y-56609977D01*
X110090240Y-56604088D01*
X110087593Y-56598565D01*
X110084804Y-56593409D01*
X110081879Y-56588621D01*
X110078826Y-56584202D01*
X110075652Y-56580154D01*
X110072366Y-56576476D01*
X110068973Y-56573170D01*
X110065482Y-56570237D01*
X110061900Y-56567677D01*
X110058235Y-56565493D01*
X110054493Y-56563684D01*
X110050683Y-56562251D01*
X110046811Y-56561197D01*
X110042885Y-56560520D01*
X110038913Y-56560223D01*
X110034902Y-56560307D01*
X110030859Y-56560772D01*
X110026792Y-56561619D01*
X110022708Y-56562849D01*
X110018614Y-56564463D01*
X110014519Y-56566463D01*
X110010428Y-56568848D01*
X110006351Y-56571621D01*
X110002294Y-56574781D01*
X109998264Y-56578331D01*
X109994270Y-56582270D01*
X109990318Y-56586600D01*
X109986415Y-56591322D01*
X109982570Y-56596436D01*
X109978790Y-56601944D01*
X109284656Y-57658690D01*
X109277177Y-57670642D01*
X109269752Y-57683595D01*
X109262426Y-57697427D01*
X109255243Y-57712011D01*
X109248249Y-57727225D01*
X109241488Y-57742945D01*
X109235005Y-57759045D01*
X109228845Y-57775404D01*
X109223052Y-57791895D01*
X109217671Y-57808396D01*
X109212747Y-57824782D01*
X109208325Y-57840929D01*
X109204450Y-57856714D01*
X109201165Y-57872012D01*
X109198517Y-57886698D01*
X109196549Y-57900651D01*
X109188877Y-57964944D01*
X109188218Y-57971563D01*
X109187826Y-57977875D01*
X109187696Y-57983876D01*
X109068232Y-57983876D01*
X109067343Y-57981665D01*
X109065515Y-57977974D01*
X109063486Y-57974626D01*
X109061260Y-57971624D01*
X109058845Y-57968970D01*
X109056245Y-57966667D01*
X109053467Y-57964718D01*
X109050516Y-57963125D01*
X109047398Y-57961891D01*
X109044119Y-57961018D01*
X109040684Y-57960510D01*
X109037099Y-57960368D01*
X109033370Y-57960596D01*
X109029503Y-57961196D01*
X109025503Y-57962170D01*
X109021377Y-57963522D01*
X109017129Y-57965253D01*
X109012766Y-57967367D01*
X109008293Y-57969866D01*
X109003716Y-57972752D01*
X108999042Y-57976029D01*
X108994275Y-57979698D01*
X108989421Y-57983764D01*
X108984486Y-57988227D01*
X108663017Y-58289588D01*
X108653462Y-58298170D01*
X108644705Y-58305273D01*
X108640632Y-58308276D01*
X108636768Y-58310915D01*
X108633115Y-58313192D01*
X108629675Y-58315110D01*
X108626453Y-58316670D01*
X108623449Y-58317875D01*
X108620668Y-58318726D01*
X108618113Y-58319226D01*
X108615785Y-58319376D01*
X108613689Y-58319178D01*
X108611826Y-58318636D01*
X108610200Y-58317749D01*
X108608813Y-58316522D01*
X108607669Y-58314955D01*
X108606770Y-58313050D01*
X108606119Y-58310810D01*
X108605719Y-58308237D01*
X108605573Y-58305332D01*
X108605683Y-58302098D01*
X108606053Y-58298536D01*
X108606685Y-58294649D01*
X108607583Y-58290439D01*
X108608749Y-58285908D01*
X108610186Y-58281057D01*
X108613883Y-58270405D01*
X108618699Y-58258500D01*
X108674791Y-58127795D01*
X108677293Y-58121569D01*
X108679421Y-58115420D01*
X108681179Y-58109358D01*
X108682573Y-58103390D01*
X108683607Y-58097524D01*
X108684288Y-58091768D01*
X108684620Y-58086129D01*
X108684607Y-58080615D01*
X108684257Y-58075234D01*
X108683573Y-58069995D01*
X108682561Y-58064904D01*
X108681226Y-58059969D01*
X108679572Y-58055200D01*
X108677606Y-58050602D01*
X108675333Y-58046184D01*
X108672757Y-58041955D01*
X108669884Y-58037921D01*
X108666719Y-58034090D01*
X108663266Y-58030471D01*
X108659532Y-58027072D01*
X108655522Y-58023899D01*
X108651239Y-58020961D01*
X108646691Y-58018266D01*
X108641881Y-58015821D01*
X108636816Y-58013634D01*
X108631499Y-58011714D01*
X108625937Y-58010068D01*
X108620135Y-58008703D01*
X108614097Y-58007628D01*
X108607829Y-58006851D01*
X108601335Y-58006378D01*
X108594622Y-58006219D01*
X108502018Y-58006219D01*
X108495338Y-58006079D01*
X108490601Y-58005769D01*
X108825208Y-58005769D01*
X108825320Y-58006367D01*
X108825677Y-58006724D01*
X108826271Y-58006846D01*
X108827099Y-58006737D01*
X108829430Y-58005843D01*
X108832625Y-58004076D01*
X108836640Y-58001471D01*
X108841430Y-57998062D01*
X108846952Y-57993883D01*
X108860012Y-57983356D01*
X108875463Y-57970166D01*
X108892952Y-57954588D01*
X108912122Y-57936899D01*
X109028936Y-57827360D01*
X109038946Y-57817487D01*
X109049037Y-57806593D01*
X109059141Y-57794791D01*
X109069192Y-57782192D01*
X109079121Y-57768907D01*
X109088860Y-57755049D01*
X109098343Y-57740729D01*
X109107501Y-57726059D01*
X109116266Y-57711150D01*
X109124572Y-57696113D01*
X109132351Y-57681062D01*
X109139534Y-57666106D01*
X109146054Y-57651358D01*
X109151844Y-57636930D01*
X109156836Y-57622932D01*
X109160963Y-57609477D01*
X109217399Y-57407271D01*
X109318253Y-57407271D01*
X109318328Y-57410313D01*
X109318592Y-57412977D01*
X109319042Y-57415264D01*
X109319675Y-57417172D01*
X109320491Y-57418700D01*
X109321485Y-57419848D01*
X109322656Y-57420613D01*
X109324002Y-57420994D01*
X109325520Y-57420992D01*
X109327207Y-57420604D01*
X109329062Y-57419829D01*
X109331081Y-57418666D01*
X109333263Y-57417114D01*
X109335606Y-57415172D01*
X109338106Y-57412839D01*
X109340761Y-57410113D01*
X109343570Y-57406994D01*
X109346529Y-57403480D01*
X109349636Y-57399570D01*
X109356287Y-57390558D01*
X109363502Y-57379950D01*
X109945141Y-56494578D01*
X110158971Y-56494578D01*
X110159009Y-56501021D01*
X110159372Y-56507492D01*
X110160065Y-56513980D01*
X110161094Y-56520476D01*
X110162464Y-56526968D01*
X110164180Y-56533446D01*
X110166248Y-56539899D01*
X110310842Y-56953839D01*
X110313217Y-56960137D01*
X110315820Y-56966129D01*
X110318643Y-56971815D01*
X110321677Y-56977192D01*
X110324911Y-56982256D01*
X110328338Y-56987006D01*
X110331947Y-56991440D01*
X110335730Y-56995554D01*
X110339677Y-56999347D01*
X110343779Y-57002816D01*
X110348027Y-57005959D01*
X110352412Y-57008773D01*
X110356924Y-57011256D01*
X110361555Y-57013405D01*
X110366294Y-57015219D01*
X110371134Y-57016694D01*
X110376064Y-57017829D01*
X110381076Y-57018620D01*
X110386160Y-57019066D01*
X110391307Y-57019165D01*
X110396509Y-57018913D01*
X110401754Y-57018308D01*
X110407035Y-57017348D01*
X110412343Y-57016031D01*
X110417667Y-57014354D01*
X110423000Y-57012314D01*
X110428331Y-57009910D01*
X110433651Y-57007139D01*
X110438952Y-57003999D01*
X110444223Y-57000486D01*
X110449457Y-56996599D01*
X110454643Y-56992336D01*
X111630319Y-55977395D01*
X111639860Y-55968788D01*
X111647855Y-55960843D01*
X111651276Y-55957126D01*
X111654315Y-55953583D01*
X111656975Y-55950216D01*
X111659256Y-55947030D01*
X111661160Y-55944025D01*
X111662688Y-55941207D01*
X111663843Y-55938576D01*
X111664626Y-55936137D01*
X111665039Y-55933891D01*
X111665082Y-55931843D01*
X111664759Y-55929994D01*
X111664070Y-55928347D01*
X111663017Y-55926906D01*
X111661602Y-55925674D01*
X111659826Y-55924652D01*
X111657691Y-55923845D01*
X111655198Y-55923254D01*
X111652350Y-55922883D01*
X111649148Y-55922735D01*
X111645593Y-55922812D01*
X111641687Y-55923117D01*
X111637431Y-55923653D01*
X111632828Y-55924424D01*
X111627879Y-55925431D01*
X111616949Y-55928168D01*
X111604654Y-55931886D01*
X110248401Y-56374006D01*
X110242010Y-56376265D01*
X110235813Y-56378820D01*
X110229816Y-56381660D01*
X110224024Y-56384774D01*
X110218442Y-56388152D01*
X110213075Y-56391782D01*
X110207929Y-56395655D01*
X110203008Y-56399759D01*
X110198319Y-56404083D01*
X110193865Y-56408618D01*
X110189653Y-56413352D01*
X110185688Y-56418274D01*
X110181975Y-56423375D01*
X110178519Y-56428643D01*
X110175325Y-56434068D01*
X110172399Y-56439638D01*
X110169746Y-56445344D01*
X110167371Y-56451174D01*
X110165279Y-56457119D01*
X110163476Y-56463166D01*
X110161966Y-56469306D01*
X110160756Y-56475528D01*
X110159849Y-56481821D01*
X110159253Y-56488175D01*
X110158971Y-56494578D01*
X109945141Y-56494578D01*
X109962386Y-56468328D01*
X109970438Y-56456867D01*
X109979545Y-56445307D01*
X109989605Y-56433727D01*
X110000517Y-56422203D01*
X110012178Y-56410815D01*
X110024487Y-56399639D01*
X110037342Y-56388754D01*
X110050641Y-56378237D01*
X110064283Y-56368167D01*
X110078166Y-56358621D01*
X110092188Y-56349678D01*
X110106247Y-56341415D01*
X110120242Y-56333909D01*
X110134071Y-56327240D01*
X110147632Y-56321485D01*
X110160824Y-56316721D01*
X111713398Y-55809383D01*
X111719857Y-55807102D01*
X111726256Y-55804508D01*
X111738837Y-55798426D01*
X111751072Y-55791226D01*
X111762894Y-55782995D01*
X111774232Y-55773823D01*
X111785019Y-55763800D01*
X111795186Y-55753012D01*
X111804663Y-55741550D01*
X111813382Y-55729502D01*
X111821274Y-55716957D01*
X111828271Y-55704003D01*
X111834302Y-55690729D01*
X111839301Y-55677225D01*
X111843198Y-55663578D01*
X111845923Y-55649878D01*
X111846826Y-55643035D01*
X111847410Y-55636213D01*
X111865798Y-55343055D01*
X111866078Y-55336371D01*
X111866056Y-55329939D01*
X111865736Y-55323764D01*
X111865128Y-55317849D01*
X111864237Y-55312200D01*
X111863070Y-55306821D01*
X111861635Y-55301715D01*
X111859938Y-55296887D01*
X111857986Y-55292342D01*
X111855787Y-55288083D01*
X111853346Y-55284115D01*
X111850671Y-55280443D01*
X111847769Y-55277070D01*
X111844647Y-55274000D01*
X111841311Y-55271239D01*
X111837769Y-55268790D01*
X111834027Y-55266658D01*
X111830093Y-55264846D01*
X111825972Y-55263360D01*
X111821673Y-55262204D01*
X111817202Y-55261381D01*
X111812566Y-55260896D01*
X111807771Y-55260754D01*
X111802826Y-55260958D01*
X111797735Y-55261513D01*
X111792508Y-55262424D01*
X111787150Y-55263694D01*
X111781668Y-55265328D01*
X111776069Y-55267329D01*
X111770361Y-55269704D01*
X111764550Y-55272455D01*
X111758642Y-55275587D01*
X109682192Y-56436711D01*
X109670248Y-56443939D01*
X109658278Y-56452262D01*
X109646360Y-56461583D01*
X109634571Y-56471801D01*
X109622989Y-56482820D01*
X109611689Y-56494540D01*
X109600751Y-56506863D01*
X109590249Y-56519691D01*
X109580263Y-56532925D01*
X109570868Y-56546467D01*
X109562142Y-56560218D01*
X109554163Y-56574079D01*
X109547006Y-56587954D01*
X109540750Y-56601742D01*
X109535471Y-56615346D01*
X109531247Y-56628667D01*
X109326460Y-57363148D01*
X109323210Y-57375538D01*
X109320791Y-57386459D01*
X109319888Y-57391365D01*
X109319184Y-57395901D01*
X109318679Y-57400065D01*
X109318369Y-57403855D01*
X109318253Y-57407271D01*
X109217399Y-57407271D01*
X109298943Y-57115103D01*
X109302261Y-57102731D01*
X109304882Y-57091910D01*
X109306816Y-57082646D01*
X109308077Y-57074942D01*
X109308678Y-57068803D01*
X109308733Y-57066322D01*
X109308629Y-57064234D01*
X109308365Y-57062539D01*
X109307943Y-57061238D01*
X109307365Y-57060332D01*
X109306633Y-57059821D01*
X109305747Y-57059706D01*
X109304710Y-57059987D01*
X109303523Y-57060665D01*
X109302187Y-57061740D01*
X109300704Y-57063214D01*
X109299076Y-57065085D01*
X109295390Y-57070027D01*
X109291140Y-57076568D01*
X109286339Y-57084715D01*
X109280998Y-57094472D01*
X109275131Y-57105842D01*
X108895189Y-57862153D01*
X108871389Y-57909872D01*
X108850342Y-57952493D01*
X108834355Y-57985365D01*
X108828981Y-57996692D01*
X108825736Y-58003838D01*
X108825208Y-58005769D01*
X108490601Y-58005769D01*
X108488943Y-58005661D01*
X108482836Y-58004974D01*
X108477021Y-58004024D01*
X108471502Y-58002817D01*
X108466282Y-58001362D01*
X108461364Y-57999665D01*
X108456752Y-57997732D01*
X108452449Y-57995571D01*
X108448459Y-57993189D01*
X108444786Y-57990592D01*
X108441433Y-57987788D01*
X108438404Y-57984783D01*
X108435701Y-57981585D01*
X108433329Y-57978200D01*
X108431292Y-57974635D01*
X108429591Y-57970897D01*
X108428232Y-57966993D01*
X108427218Y-57962931D01*
X108426551Y-57958716D01*
X108426236Y-57954356D01*
X108426276Y-57949858D01*
X108426675Y-57945228D01*
X108427437Y-57940475D01*
X108428563Y-57935603D01*
X108430059Y-57930622D01*
X108431928Y-57925536D01*
X108432335Y-57924595D01*
X108537472Y-57924595D01*
X108651772Y-57924595D01*
X108657657Y-57924441D01*
X108663621Y-57923981D01*
X108669652Y-57923224D01*
X108675740Y-57922178D01*
X108681874Y-57920850D01*
X108688042Y-57919247D01*
X108694234Y-57917378D01*
X108700439Y-57915250D01*
X108712842Y-57910248D01*
X108725163Y-57904301D01*
X108737314Y-57897471D01*
X108749205Y-57889819D01*
X108760750Y-57881406D01*
X108771858Y-57872293D01*
X108782443Y-57862540D01*
X108792415Y-57852209D01*
X108801687Y-57841362D01*
X108810169Y-57830058D01*
X108814087Y-57824254D01*
X108817774Y-57818359D01*
X108821220Y-57812381D01*
X108824413Y-57806327D01*
X109229358Y-57000274D01*
X109235009Y-56988776D01*
X109239714Y-56978695D01*
X109243482Y-56970035D01*
X109246322Y-56962802D01*
X109248244Y-56957002D01*
X109248863Y-56954640D01*
X109249257Y-56952639D01*
X109249425Y-56950999D01*
X109249369Y-56949720D01*
X109249090Y-56948803D01*
X109248590Y-56948250D01*
X109247869Y-56948059D01*
X109246929Y-56948233D01*
X109245770Y-56948772D01*
X109244394Y-56949677D01*
X109242803Y-56950948D01*
X109240996Y-56952585D01*
X109236743Y-56956964D01*
X109231645Y-56962819D01*
X109225710Y-56970155D01*
X109218947Y-56978978D01*
X109211366Y-56989293D01*
X108613805Y-57817307D01*
X108583832Y-57858962D01*
X108559466Y-57893077D01*
X108543186Y-57916129D01*
X108538853Y-57922405D01*
X108537472Y-57924595D01*
X108432335Y-57924595D01*
X108434173Y-57920354D01*
X108436797Y-57915082D01*
X108439805Y-57909728D01*
X108443200Y-57904298D01*
X108446985Y-57898798D01*
X109414037Y-56554451D01*
X109422502Y-56543187D01*
X109431907Y-56531581D01*
X109442152Y-56519720D01*
X109453139Y-56507694D01*
X109464769Y-56495590D01*
X109476942Y-56483497D01*
X109489560Y-56471503D01*
X109502524Y-56459697D01*
X109515733Y-56448167D01*
X109529091Y-56437001D01*
X109542496Y-56426287D01*
X109555852Y-56416115D01*
X109569057Y-56406572D01*
X109582014Y-56397747D01*
X109594623Y-56389728D01*
X109606786Y-56382604D01*
X111709827Y-55207854D01*
X111715595Y-55204489D01*
X111720968Y-55201047D01*
X111725947Y-55197535D01*
X111730532Y-55193959D01*
X111734724Y-55190328D01*
X111738524Y-55186648D01*
X111741932Y-55182926D01*
X111744948Y-55179170D01*
X111747573Y-55175386D01*
X111749809Y-55171582D01*
X111751654Y-55167766D01*
X111753110Y-55163943D01*
X111754178Y-55160122D01*
X111754857Y-55156309D01*
X111755149Y-55152511D01*
X111755054Y-55148736D01*
X111754572Y-55144991D01*
X111753705Y-55141284D01*
X111752452Y-55137620D01*
X111750815Y-55134007D01*
X111748794Y-55130453D01*
X111746388Y-55126965D01*
X111743600Y-55123549D01*
X111740429Y-55120213D01*
X111736877Y-55116964D01*
X111732943Y-55113809D01*
X111728628Y-55110756D01*
X111723933Y-55107811D01*
X111718858Y-55104982D01*
X111713403Y-55102275D01*
X111707571Y-55099698D01*
X111701360Y-55097259D01*
X111407937Y-54988251D01*
X111401714Y-54985777D01*
X111395819Y-54983101D01*
X111390256Y-54980231D01*
X111385024Y-54977176D01*
X111380127Y-54973944D01*
X111375566Y-54970544D01*
X111371342Y-54966985D01*
X111367458Y-54963276D01*
X111363915Y-54959426D01*
X111360716Y-54955443D01*
X111357861Y-54951336D01*
X111355352Y-54947114D01*
X111353192Y-54942785D01*
X111351382Y-54938359D01*
X111349924Y-54933844D01*
X111348820Y-54929249D01*
X111348070Y-54924582D01*
X111347679Y-54919853D01*
X111347646Y-54915070D01*
X111347973Y-54910243D01*
X111348664Y-54905378D01*
X111349718Y-54900487D01*
X111351138Y-54895577D01*
X111352614Y-54891518D01*
X111501851Y-54891518D01*
X111502079Y-54896301D01*
X111502646Y-54901059D01*
X111503550Y-54905782D01*
X111504791Y-54910463D01*
X111506365Y-54915092D01*
X111508270Y-54919660D01*
X111510505Y-54924158D01*
X111513068Y-54928577D01*
X111515957Y-54932910D01*
X111519170Y-54937145D01*
X111522704Y-54941276D01*
X111526558Y-54945292D01*
X111530729Y-54949186D01*
X111535217Y-54952947D01*
X111540018Y-54956568D01*
X111545131Y-54960039D01*
X111550554Y-54963351D01*
X111556284Y-54966496D01*
X111562321Y-54969465D01*
X111849791Y-55103475D01*
X111855932Y-55106508D01*
X111861974Y-55109845D01*
X111873732Y-55117380D01*
X111885005Y-55125984D01*
X111895737Y-55135562D01*
X111905871Y-55146016D01*
X111915350Y-55157251D01*
X111924115Y-55169170D01*
X111932109Y-55181676D01*
X111939276Y-55194674D01*
X111945558Y-55208067D01*
X111950897Y-55221759D01*
X111955236Y-55235654D01*
X111958517Y-55249654D01*
X111960684Y-55263665D01*
X111961679Y-55277589D01*
X111961719Y-55284488D01*
X111961445Y-55291330D01*
X111941601Y-55607374D01*
X111941335Y-55614081D01*
X111941400Y-55620603D01*
X111941789Y-55626934D01*
X111942494Y-55633070D01*
X111943507Y-55639002D01*
X111944821Y-55644727D01*
X111946428Y-55650237D01*
X111948321Y-55655526D01*
X111950492Y-55660589D01*
X111952934Y-55665420D01*
X111955638Y-55670011D01*
X111958598Y-55674358D01*
X111961805Y-55678455D01*
X111965253Y-55682295D01*
X111968933Y-55685872D01*
X111972838Y-55689180D01*
X111976961Y-55692214D01*
X111981294Y-55694966D01*
X111985829Y-55697432D01*
X111990558Y-55699605D01*
X111995475Y-55701479D01*
X112000571Y-55703048D01*
X112005839Y-55704306D01*
X112011271Y-55705247D01*
X112016860Y-55705865D01*
X112022599Y-55706154D01*
X112028479Y-55706108D01*
X112034493Y-55705721D01*
X112040633Y-55704987D01*
X112046893Y-55703899D01*
X112053263Y-55702452D01*
X112059737Y-55700640D01*
X112677408Y-55511727D01*
X112683723Y-55509719D01*
X112689624Y-55507666D01*
X112695109Y-55505573D01*
X112700180Y-55503444D01*
X112704836Y-55501284D01*
X112709077Y-55499095D01*
X112712903Y-55496884D01*
X112716316Y-55494653D01*
X112719314Y-55492408D01*
X112721898Y-55490152D01*
X112724068Y-55487890D01*
X112725825Y-55485626D01*
X112727169Y-55483365D01*
X112728099Y-55481110D01*
X112728616Y-55478866D01*
X112728720Y-55476637D01*
X112728411Y-55474427D01*
X112727690Y-55472241D01*
X112726556Y-55470083D01*
X112725010Y-55467957D01*
X112723052Y-55465868D01*
X112720682Y-55463819D01*
X112717901Y-55461815D01*
X112714707Y-55459860D01*
X112711103Y-55457959D01*
X112707087Y-55456116D01*
X112702660Y-55454335D01*
X112697822Y-55452619D01*
X112692573Y-55450975D01*
X112686914Y-55449405D01*
X112680844Y-55447914D01*
X112674365Y-55446507D01*
X112493125Y-55409334D01*
X112479396Y-55406193D01*
X112465029Y-55402267D01*
X112450141Y-55397612D01*
X112434850Y-55392286D01*
X112419274Y-55386348D01*
X112403530Y-55379854D01*
X112387737Y-55372862D01*
X112372012Y-55365429D01*
X112356473Y-55357614D01*
X112341237Y-55349473D01*
X112326424Y-55341064D01*
X112321588Y-55338145D01*
X112632561Y-55338145D01*
X112632781Y-55340037D01*
X112633419Y-55341922D01*
X112634474Y-55343796D01*
X112635946Y-55345656D01*
X112637835Y-55347498D01*
X112640141Y-55349319D01*
X112642865Y-55351114D01*
X112646005Y-55352881D01*
X112649562Y-55354615D01*
X112653536Y-55356313D01*
X112657927Y-55357972D01*
X112662735Y-55359587D01*
X112667961Y-55361156D01*
X112673603Y-55362675D01*
X112679662Y-55364139D01*
X112686139Y-55365545D01*
X112827823Y-55394914D01*
X112856379Y-55401198D01*
X112887966Y-55408747D01*
X112921538Y-55417275D01*
X112956047Y-55426498D01*
X112990443Y-55436131D01*
X113023681Y-55445888D01*
X113054710Y-55455483D01*
X113082484Y-55464632D01*
X114429213Y-55925933D01*
X114435659Y-55927956D01*
X114442069Y-55929615D01*
X114448432Y-55930914D01*
X114454740Y-55931859D01*
X114460983Y-55932457D01*
X114467154Y-55932713D01*
X114473241Y-55932631D01*
X114479238Y-55932219D01*
X114485134Y-55931481D01*
X114490920Y-55930424D01*
X114496588Y-55929052D01*
X114502127Y-55927373D01*
X114507530Y-55925390D01*
X114512787Y-55923110D01*
X114517889Y-55920539D01*
X114522826Y-55917681D01*
X114527590Y-55914544D01*
X114532172Y-55911132D01*
X114536563Y-55907451D01*
X114540753Y-55903507D01*
X114544733Y-55899305D01*
X114548495Y-55894851D01*
X114552029Y-55890151D01*
X114555327Y-55885210D01*
X114558378Y-55880034D01*
X114561174Y-55874629D01*
X114563706Y-55868999D01*
X114565856Y-55863435D01*
X114663021Y-55863435D01*
X114663221Y-55869388D01*
X114663720Y-55875100D01*
X114664515Y-55880566D01*
X114665597Y-55885781D01*
X114666960Y-55890739D01*
X114668597Y-55895437D01*
X114670503Y-55899869D01*
X114672670Y-55904031D01*
X114675092Y-55907917D01*
X114677763Y-55911523D01*
X114680675Y-55914843D01*
X114683822Y-55917873D01*
X114687198Y-55920608D01*
X114690796Y-55923043D01*
X114694610Y-55925174D01*
X114698633Y-55926994D01*
X114702858Y-55928500D01*
X114707278Y-55929686D01*
X114711888Y-55930548D01*
X114716681Y-55931080D01*
X114721650Y-55931278D01*
X114726788Y-55931137D01*
X114732090Y-55930653D01*
X114737548Y-55929819D01*
X114743155Y-55928631D01*
X114748906Y-55927085D01*
X114754794Y-55925175D01*
X114760812Y-55922896D01*
X114766954Y-55920244D01*
X115462940Y-55602083D01*
X115468938Y-55599212D01*
X115474532Y-55596283D01*
X115479721Y-55593303D01*
X115484506Y-55590276D01*
X115488887Y-55587210D01*
X115492865Y-55584109D01*
X115496439Y-55580980D01*
X115499612Y-55577828D01*
X115502382Y-55574659D01*
X115504750Y-55571480D01*
X115506717Y-55568296D01*
X115508284Y-55565113D01*
X115509449Y-55561937D01*
X115510215Y-55558773D01*
X115510581Y-55555627D01*
X115510548Y-55552507D01*
X115510116Y-55549416D01*
X115509286Y-55546361D01*
X115508058Y-55543349D01*
X115506432Y-55540384D01*
X115504409Y-55537473D01*
X115501989Y-55534621D01*
X115499173Y-55531835D01*
X115495961Y-55529120D01*
X115492353Y-55526482D01*
X115488351Y-55523927D01*
X115483953Y-55521461D01*
X115479162Y-55519090D01*
X115473976Y-55516820D01*
X115468397Y-55514655D01*
X115462425Y-55512603D01*
X115456060Y-55510670D01*
X114864320Y-55341469D01*
X114857787Y-55339778D01*
X114851290Y-55338448D01*
X114844839Y-55337473D01*
X114838443Y-55336846D01*
X114832111Y-55336562D01*
X114825853Y-55336614D01*
X114819677Y-55336996D01*
X114813594Y-55337702D01*
X114807613Y-55338727D01*
X114801742Y-55340064D01*
X114795992Y-55341707D01*
X114790371Y-55343650D01*
X114784889Y-55345887D01*
X114779555Y-55348411D01*
X114774378Y-55351218D01*
X114769368Y-55354301D01*
X114764533Y-55357653D01*
X114759884Y-55361269D01*
X114755430Y-55365142D01*
X114751180Y-55369268D01*
X114747142Y-55373638D01*
X114743327Y-55378248D01*
X114739744Y-55383092D01*
X114736402Y-55388163D01*
X114733311Y-55393455D01*
X114730479Y-55398963D01*
X114727916Y-55404679D01*
X114725631Y-55410599D01*
X114723634Y-55416716D01*
X114721933Y-55423024D01*
X114720539Y-55429517D01*
X114719461Y-55436189D01*
X114664295Y-55844177D01*
X114663552Y-55850825D01*
X114663130Y-55857246D01*
X114663021Y-55863435D01*
X114565856Y-55863435D01*
X114565965Y-55863152D01*
X114567942Y-55857092D01*
X114569628Y-55850826D01*
X114571013Y-55844358D01*
X114572088Y-55837694D01*
X114629106Y-55415154D01*
X114630843Y-55401788D01*
X114632384Y-55388773D01*
X114633725Y-55376177D01*
X114634866Y-55364069D01*
X114635805Y-55352517D01*
X114636540Y-55341591D01*
X114637069Y-55331358D01*
X114637390Y-55321888D01*
X114637502Y-55313249D01*
X114637403Y-55305509D01*
X114637092Y-55298738D01*
X114636565Y-55293003D01*
X114635823Y-55288374D01*
X114635370Y-55286495D01*
X114634862Y-55284918D01*
X114634300Y-55283652D01*
X114633682Y-55282705D01*
X114633009Y-55282086D01*
X114632280Y-55281804D01*
X114596298Y-55276115D01*
X114444295Y-55252171D01*
X114328271Y-55233915D01*
X114857688Y-55233915D01*
X114857884Y-55236346D01*
X114858491Y-55238774D01*
X114859508Y-55241194D01*
X114860935Y-55243602D01*
X114862773Y-55245994D01*
X114865021Y-55248364D01*
X114867681Y-55250708D01*
X114870750Y-55253023D01*
X114874231Y-55255302D01*
X114878122Y-55257542D01*
X114882423Y-55259738D01*
X114887136Y-55261885D01*
X114892259Y-55263979D01*
X114897793Y-55266016D01*
X114903737Y-55267990D01*
X114910093Y-55269898D01*
X115558587Y-55455107D01*
X115572047Y-55458336D01*
X115586110Y-55460552D01*
X115600660Y-55461781D01*
X115615584Y-55462052D01*
X115630766Y-55461393D01*
X115646093Y-55459832D01*
X115661450Y-55457397D01*
X115676723Y-55454115D01*
X115691798Y-55450014D01*
X115706560Y-55445123D01*
X115720894Y-55439469D01*
X115734688Y-55433080D01*
X115747825Y-55425985D01*
X115760193Y-55418210D01*
X115771676Y-55409784D01*
X115782160Y-55400735D01*
X116352337Y-54864293D01*
X116361477Y-54855239D01*
X116365463Y-54850941D01*
X116369064Y-54846799D01*
X116372280Y-54842818D01*
X116375114Y-54839002D01*
X116377567Y-54835353D01*
X116379642Y-54831875D01*
X116381341Y-54828571D01*
X116382666Y-54825446D01*
X116383618Y-54822502D01*
X116384200Y-54819744D01*
X116384413Y-54817174D01*
X116384260Y-54814796D01*
X116383743Y-54812614D01*
X116382863Y-54810631D01*
X116381623Y-54808851D01*
X116380024Y-54807277D01*
X116378069Y-54805913D01*
X116375759Y-54804762D01*
X116373097Y-54803828D01*
X116370084Y-54803114D01*
X116366723Y-54802624D01*
X116363015Y-54802361D01*
X116358963Y-54802329D01*
X116354568Y-54802531D01*
X116349832Y-54802971D01*
X116344758Y-54803653D01*
X116339347Y-54804579D01*
X116333602Y-54805754D01*
X116321116Y-54808862D01*
X114910357Y-55198329D01*
X114903989Y-55200189D01*
X114898031Y-55202118D01*
X114892483Y-55204113D01*
X114887345Y-55206168D01*
X114882617Y-55208280D01*
X114878299Y-55210443D01*
X114874392Y-55212654D01*
X114870895Y-55214907D01*
X114867808Y-55217197D01*
X114865131Y-55219522D01*
X114862865Y-55221875D01*
X114861009Y-55224253D01*
X114859563Y-55226650D01*
X114858528Y-55229062D01*
X114857903Y-55231486D01*
X114857688Y-55233915D01*
X114328271Y-55233915D01*
X113694333Y-55134167D01*
X113680336Y-55132233D01*
X113665421Y-55130645D01*
X113649720Y-55129400D01*
X113633366Y-55128493D01*
X113599230Y-55127677D01*
X113564076Y-55128164D01*
X113528965Y-55129923D01*
X113494959Y-55132921D01*
X113478703Y-55134874D01*
X113463121Y-55137124D01*
X113448346Y-55139668D01*
X113434512Y-55142502D01*
X112685742Y-55309851D01*
X112679290Y-55311366D01*
X112673256Y-55312931D01*
X112667638Y-55314544D01*
X112662438Y-55316199D01*
X112657654Y-55317895D01*
X112653288Y-55319627D01*
X112649339Y-55321392D01*
X112645806Y-55323185D01*
X112642691Y-55325004D01*
X112639993Y-55326845D01*
X112637711Y-55328704D01*
X112635847Y-55330577D01*
X112634400Y-55332462D01*
X112633370Y-55334353D01*
X112632757Y-55336249D01*
X112632561Y-55338145D01*
X112321588Y-55338145D01*
X112312150Y-55332445D01*
X112298533Y-55323674D01*
X112285691Y-55314807D01*
X112273743Y-55305903D01*
X112262805Y-55297018D01*
X111719748Y-54834395D01*
X111714467Y-54830101D01*
X111709024Y-54826076D01*
X111703431Y-54822319D01*
X111697702Y-54818832D01*
X111691847Y-54815613D01*
X111685879Y-54812663D01*
X111679810Y-54809983D01*
X111673653Y-54807572D01*
X111667418Y-54805431D01*
X111661119Y-54803560D01*
X111654768Y-54801960D01*
X111648376Y-54800629D01*
X111641955Y-54799569D01*
X111635519Y-54798780D01*
X111634931Y-54798732D01*
X111829292Y-54798732D01*
X111829569Y-54801433D01*
X111830223Y-54804299D01*
X111831256Y-54807327D01*
X111832671Y-54810513D01*
X111834470Y-54813852D01*
X111836653Y-54817342D01*
X111839224Y-54820978D01*
X111842184Y-54824756D01*
X111845535Y-54828672D01*
X111849278Y-54832722D01*
X111853417Y-54836903D01*
X111857953Y-54841210D01*
X111862888Y-54845640D01*
X112278019Y-55209044D01*
X112288831Y-55217765D01*
X112300652Y-55225946D01*
X112313365Y-55233560D01*
X112326853Y-55240575D01*
X112340999Y-55246963D01*
X112355686Y-55252693D01*
X112370798Y-55257736D01*
X112386217Y-55262061D01*
X112401827Y-55265638D01*
X112417510Y-55268439D01*
X112433151Y-55270433D01*
X112448632Y-55271590D01*
X112463836Y-55271880D01*
X112478646Y-55271274D01*
X112492946Y-55269742D01*
X112506619Y-55267253D01*
X113236207Y-55103741D01*
X113242658Y-55102228D01*
X113248692Y-55100668D01*
X113254307Y-55099064D01*
X113259505Y-55097421D01*
X113264285Y-55095741D01*
X113268648Y-55094029D01*
X113272593Y-55092286D01*
X113276120Y-55090517D01*
X113279230Y-55088726D01*
X113281922Y-55086916D01*
X113284196Y-55085090D01*
X113286053Y-55083251D01*
X113287492Y-55081404D01*
X113288514Y-55079551D01*
X113289119Y-55077697D01*
X113289306Y-55075844D01*
X113289075Y-55073996D01*
X113288428Y-55072156D01*
X113287363Y-55070329D01*
X113285880Y-55068517D01*
X113283980Y-55066724D01*
X113281663Y-55064953D01*
X113278929Y-55063208D01*
X113275777Y-55061492D01*
X113272208Y-55059809D01*
X113268222Y-55058163D01*
X113263819Y-55056556D01*
X113258998Y-55054992D01*
X113253761Y-55053474D01*
X113248106Y-55052007D01*
X113242035Y-55050594D01*
X113235546Y-55049237D01*
X113172186Y-55036724D01*
X113763138Y-55036724D01*
X113763406Y-55039562D01*
X113764074Y-55042334D01*
X113765139Y-55045033D01*
X113766602Y-55047655D01*
X113768460Y-55050193D01*
X113770714Y-55052644D01*
X113773362Y-55055000D01*
X113776403Y-55057258D01*
X113779837Y-55059412D01*
X113783663Y-55061456D01*
X113787880Y-55063386D01*
X113792486Y-55065195D01*
X113797481Y-55066879D01*
X113802864Y-55068432D01*
X113808635Y-55069850D01*
X113814792Y-55071125D01*
X113821334Y-55072255D01*
X114527109Y-55183247D01*
X114578472Y-55191102D01*
X114621599Y-55197370D01*
X114638664Y-55199707D01*
X114651976Y-55201405D01*
X114660973Y-55202384D01*
X114663677Y-55202578D01*
X114665090Y-55202563D01*
X114666127Y-55201824D01*
X114667730Y-55199897D01*
X114672494Y-55192725D01*
X114679112Y-55181538D01*
X114687315Y-55166827D01*
X114696832Y-55149083D01*
X114707394Y-55128799D01*
X114718732Y-55106465D01*
X114730574Y-55082574D01*
X114730715Y-55082287D01*
X114840163Y-55082287D01*
X114840233Y-55086027D01*
X114840608Y-55089496D01*
X114841285Y-55092692D01*
X114842258Y-55095611D01*
X114843525Y-55098248D01*
X114845082Y-55100601D01*
X114846924Y-55102666D01*
X114849049Y-55104438D01*
X114851452Y-55105916D01*
X114854130Y-55107094D01*
X114857079Y-55107970D01*
X114860295Y-55108539D01*
X114863773Y-55108798D01*
X114867512Y-55108744D01*
X114871506Y-55108373D01*
X114875752Y-55107681D01*
X114880246Y-55106665D01*
X114884985Y-55105320D01*
X114889964Y-55103645D01*
X114895180Y-55101634D01*
X114900629Y-55099284D01*
X114906307Y-55096592D01*
X114912211Y-55093554D01*
X115078857Y-55004650D01*
X115268481Y-55004650D01*
X115268653Y-55005646D01*
X115269219Y-55006485D01*
X115270177Y-55007166D01*
X115271527Y-55007687D01*
X115273269Y-55008046D01*
X115275401Y-55008241D01*
X115277923Y-55008272D01*
X115284133Y-55007829D01*
X115291895Y-55006704D01*
X115301202Y-55004883D01*
X115312049Y-55002352D01*
X115324431Y-54999097D01*
X116365699Y-54711363D01*
X116372082Y-54709478D01*
X116378086Y-54707450D01*
X116383709Y-54705283D01*
X116388951Y-54702986D01*
X116393810Y-54700564D01*
X116398287Y-54698024D01*
X116402380Y-54695372D01*
X116406089Y-54692615D01*
X116409412Y-54689759D01*
X116412349Y-54686811D01*
X116414900Y-54683777D01*
X116417063Y-54680663D01*
X116418837Y-54677476D01*
X116420223Y-54674223D01*
X116421218Y-54670909D01*
X116421823Y-54667542D01*
X116422036Y-54664127D01*
X116421858Y-54660672D01*
X116421286Y-54657182D01*
X116420320Y-54653664D01*
X116418960Y-54650125D01*
X116417205Y-54646570D01*
X116415053Y-54643007D01*
X116412505Y-54639442D01*
X116409559Y-54635881D01*
X116406214Y-54632331D01*
X116402471Y-54628798D01*
X116398327Y-54625289D01*
X116393783Y-54621809D01*
X116388837Y-54618366D01*
X116383488Y-54614966D01*
X116377737Y-54611616D01*
X116303389Y-54570076D01*
X116291022Y-54563832D01*
X116277813Y-54558395D01*
X116263882Y-54553767D01*
X116249346Y-54549949D01*
X116234326Y-54546943D01*
X116218941Y-54544750D01*
X116203310Y-54543371D01*
X116187551Y-54542807D01*
X116171785Y-54543061D01*
X116156131Y-54544133D01*
X116140707Y-54546025D01*
X116125632Y-54548738D01*
X116111027Y-54552273D01*
X116097010Y-54556632D01*
X116083700Y-54561817D01*
X116071217Y-54567827D01*
X115313583Y-54972111D01*
X115302361Y-54978250D01*
X115292752Y-54983862D01*
X115284750Y-54988930D01*
X115278350Y-54993442D01*
X115273546Y-54997384D01*
X115271741Y-54999137D01*
X115270332Y-55000741D01*
X115269320Y-55002196D01*
X115268703Y-55003500D01*
X115268481Y-55004650D01*
X115078857Y-55004650D01*
X115984506Y-54521500D01*
X116421585Y-54521500D01*
X116421614Y-54523809D01*
X116422045Y-54526215D01*
X116422878Y-54528715D01*
X116424115Y-54531304D01*
X116425756Y-54533979D01*
X116427803Y-54536735D01*
X116430257Y-54539568D01*
X116433118Y-54542475D01*
X116436388Y-54545450D01*
X116440068Y-54548490D01*
X116444159Y-54551591D01*
X116448662Y-54554748D01*
X116453578Y-54557958D01*
X116458908Y-54561217D01*
X116464653Y-54564520D01*
X116485555Y-54576162D01*
X116497913Y-54582413D01*
X116511095Y-54587821D01*
X116524983Y-54592387D01*
X116539460Y-54596111D01*
X116554406Y-54598994D01*
X116569703Y-54601037D01*
X116585234Y-54602240D01*
X116600880Y-54602603D01*
X116616523Y-54602128D01*
X116632044Y-54600815D01*
X116647326Y-54598664D01*
X116662251Y-54595676D01*
X116676699Y-54591852D01*
X116690553Y-54587192D01*
X116703695Y-54581697D01*
X116716007Y-54575368D01*
X116725665Y-54569943D01*
X116731385Y-54566588D01*
X116736691Y-54563272D01*
X116741582Y-54559999D01*
X116746060Y-54556774D01*
X116750127Y-54553602D01*
X116753782Y-54550485D01*
X116757029Y-54547429D01*
X116759866Y-54544438D01*
X116762297Y-54541516D01*
X116764321Y-54538668D01*
X116765940Y-54535897D01*
X116767155Y-54533209D01*
X116767968Y-54530606D01*
X116768378Y-54528095D01*
X116768388Y-54525678D01*
X116767998Y-54523360D01*
X116767210Y-54521146D01*
X116766025Y-54519040D01*
X116764443Y-54517046D01*
X116762466Y-54515168D01*
X116760096Y-54513411D01*
X116757332Y-54511778D01*
X116754177Y-54510275D01*
X116750631Y-54508906D01*
X116746695Y-54507674D01*
X116742372Y-54506584D01*
X116737660Y-54505641D01*
X116732563Y-54504848D01*
X116727081Y-54504210D01*
X116721215Y-54503731D01*
X116714966Y-54503416D01*
X116708335Y-54503269D01*
X116481454Y-54501153D01*
X116474824Y-54501176D01*
X116468577Y-54501366D01*
X116462715Y-54501719D01*
X116457237Y-54502231D01*
X116452147Y-54502898D01*
X116447443Y-54503716D01*
X116443128Y-54504681D01*
X116439203Y-54505789D01*
X116435669Y-54507035D01*
X116432526Y-54508415D01*
X116429776Y-54509926D01*
X116427420Y-54511563D01*
X116425459Y-54513322D01*
X116423894Y-54515200D01*
X116422726Y-54517191D01*
X116421956Y-54519293D01*
X116421585Y-54521500D01*
X115984506Y-54521500D01*
X116014464Y-54505517D01*
X116020359Y-54502173D01*
X116026013Y-54498572D01*
X116031420Y-54494725D01*
X116036580Y-54490645D01*
X116041487Y-54486342D01*
X116046138Y-54481827D01*
X116050531Y-54477113D01*
X116054662Y-54472211D01*
X116058528Y-54467132D01*
X116062125Y-54461887D01*
X116065451Y-54456488D01*
X116068501Y-54450946D01*
X116071272Y-54445273D01*
X116073762Y-54439481D01*
X116075966Y-54433579D01*
X116077882Y-54427581D01*
X116079506Y-54421497D01*
X116080834Y-54415339D01*
X116081865Y-54409118D01*
X116082593Y-54402845D01*
X116083017Y-54396533D01*
X116083132Y-54390192D01*
X116082935Y-54383834D01*
X116082876Y-54383096D01*
X116362576Y-54383096D01*
X116362835Y-54386527D01*
X116363469Y-54389826D01*
X116364474Y-54392988D01*
X116365849Y-54396006D01*
X116367592Y-54398876D01*
X116369700Y-54401592D01*
X116372171Y-54404147D01*
X116375003Y-54406536D01*
X116378193Y-54408753D01*
X116381740Y-54410792D01*
X116385641Y-54412648D01*
X116389894Y-54414314D01*
X116394496Y-54415785D01*
X116399446Y-54417055D01*
X116404742Y-54418119D01*
X116410380Y-54418970D01*
X116416359Y-54419603D01*
X116422676Y-54420011D01*
X116429330Y-54420190D01*
X116834539Y-54423894D01*
X116841409Y-54423807D01*
X116848365Y-54423426D01*
X116855396Y-54422759D01*
X116862488Y-54421813D01*
X116876807Y-54419112D01*
X116891218Y-54415380D01*
X116905621Y-54410676D01*
X116919911Y-54405056D01*
X116933988Y-54398579D01*
X116947748Y-54391301D01*
X116961090Y-54383281D01*
X116973911Y-54374576D01*
X116986109Y-54365243D01*
X116997581Y-54355340D01*
X117008225Y-54344925D01*
X117013205Y-54339544D01*
X117017940Y-54334055D01*
X117022416Y-54328468D01*
X117026621Y-54322788D01*
X117030543Y-54317024D01*
X117034168Y-54311181D01*
X117110633Y-54181800D01*
X117125948Y-54156954D01*
X117143780Y-54129927D01*
X117163485Y-54101588D01*
X117184418Y-54072808D01*
X117205934Y-54044455D01*
X117227388Y-54017401D01*
X117248135Y-53992513D01*
X117267531Y-53970663D01*
X117356694Y-53873958D01*
X117361122Y-53868988D01*
X117365153Y-53864128D01*
X117368792Y-53859382D01*
X117372040Y-53854757D01*
X117374900Y-53850256D01*
X117377375Y-53845885D01*
X117379468Y-53841649D01*
X117381181Y-53837553D01*
X117382517Y-53833601D01*
X117383478Y-53829800D01*
X117384068Y-53826154D01*
X117384288Y-53822668D01*
X117384142Y-53819347D01*
X117383632Y-53816196D01*
X117382761Y-53813220D01*
X117381532Y-53810425D01*
X117379947Y-53807814D01*
X117378009Y-53805394D01*
X117375720Y-53803170D01*
X117373083Y-53801146D01*
X117370102Y-53799327D01*
X117366778Y-53797718D01*
X117363114Y-53796326D01*
X117359113Y-53795153D01*
X117354777Y-53794207D01*
X117350110Y-53793490D01*
X117345113Y-53793010D01*
X117339790Y-53792770D01*
X117334143Y-53792776D01*
X117328175Y-53793033D01*
X117321889Y-53793545D01*
X117315287Y-53794318D01*
X117046470Y-53830566D01*
X117032612Y-53832844D01*
X117018151Y-53835969D01*
X117003205Y-53839886D01*
X116987892Y-53844541D01*
X116972328Y-53849880D01*
X116956631Y-53855846D01*
X116940919Y-53862385D01*
X116925307Y-53869443D01*
X116909915Y-53876965D01*
X116894858Y-53884895D01*
X116880254Y-53893179D01*
X116866221Y-53901762D01*
X116852875Y-53910589D01*
X116840334Y-53919605D01*
X116828715Y-53928756D01*
X116818135Y-53937987D01*
X116394272Y-54329173D01*
X116389464Y-54333785D01*
X116385059Y-54338342D01*
X116381055Y-54342836D01*
X116377450Y-54347262D01*
X116374241Y-54351615D01*
X116371426Y-54355889D01*
X116369004Y-54360077D01*
X116366971Y-54364175D01*
X116365326Y-54368176D01*
X116364066Y-54372074D01*
X116363189Y-54375864D01*
X116362693Y-54379540D01*
X116362576Y-54383096D01*
X116082876Y-54383096D01*
X116082423Y-54377469D01*
X116081593Y-54371111D01*
X116080441Y-54364770D01*
X116078964Y-54358457D01*
X116077159Y-54352183D01*
X116075022Y-54345962D01*
X116072550Y-54339802D01*
X116069739Y-54333717D01*
X116066588Y-54327717D01*
X115855715Y-53950554D01*
X115852282Y-53944751D01*
X115848636Y-53939251D01*
X115844789Y-53934056D01*
X115840752Y-53929166D01*
X115836533Y-53924584D01*
X115832145Y-53920311D01*
X115827597Y-53916349D01*
X115822900Y-53912700D01*
X115818065Y-53909365D01*
X115813101Y-53906347D01*
X115808020Y-53903647D01*
X115802832Y-53901266D01*
X115797547Y-53899207D01*
X115792176Y-53897471D01*
X115786730Y-53896060D01*
X115781218Y-53894975D01*
X115775652Y-53894219D01*
X115770041Y-53893792D01*
X115764397Y-53893697D01*
X115758730Y-53893936D01*
X115753050Y-53894510D01*
X115747367Y-53895421D01*
X115741693Y-53896670D01*
X115736038Y-53898260D01*
X115730412Y-53900191D01*
X115724826Y-53902467D01*
X115719290Y-53905088D01*
X115713815Y-53908056D01*
X115708411Y-53911373D01*
X115703089Y-53915040D01*
X115697859Y-53919060D01*
X115692731Y-53923434D01*
X115269530Y-54303508D01*
X115259206Y-54313116D01*
X115248578Y-54323663D01*
X115237726Y-54335043D01*
X115226730Y-54347150D01*
X115215670Y-54359878D01*
X115204627Y-54373120D01*
X115193681Y-54386772D01*
X115182913Y-54400726D01*
X115172401Y-54414877D01*
X115162227Y-54429119D01*
X115152471Y-54443346D01*
X115143213Y-54457452D01*
X115134533Y-54471331D01*
X115126512Y-54484877D01*
X115119229Y-54497983D01*
X115112765Y-54510544D01*
X114853870Y-55037065D01*
X114851027Y-55043074D01*
X114848523Y-55048846D01*
X114846353Y-55054376D01*
X114844515Y-55059661D01*
X114843005Y-55064698D01*
X114841818Y-55069482D01*
X114840952Y-55074011D01*
X114840401Y-55078280D01*
X114840163Y-55082287D01*
X114730715Y-55082287D01*
X114985766Y-54562138D01*
X114988598Y-54556105D01*
X114991072Y-54550263D01*
X114993190Y-54544616D01*
X114994958Y-54539170D01*
X114996379Y-54533929D01*
X114997458Y-54528898D01*
X114998199Y-54524081D01*
X114998606Y-54519484D01*
X114998684Y-54515111D01*
X114998436Y-54510967D01*
X114997868Y-54507057D01*
X114996983Y-54503386D01*
X114995786Y-54499957D01*
X114994280Y-54496777D01*
X114992471Y-54493850D01*
X114990362Y-54491180D01*
X114987958Y-54488772D01*
X114985263Y-54486632D01*
X114982281Y-54484764D01*
X114979016Y-54483172D01*
X114975473Y-54481862D01*
X114971656Y-54480838D01*
X114967570Y-54480105D01*
X114963218Y-54479668D01*
X114958604Y-54479532D01*
X114953734Y-54479701D01*
X114948611Y-54480180D01*
X114943239Y-54480973D01*
X114937624Y-54482087D01*
X114931768Y-54483525D01*
X114925677Y-54485292D01*
X114919355Y-54487393D01*
X114549997Y-54617832D01*
X114522579Y-54627942D01*
X114492383Y-54639824D01*
X114460402Y-54653042D01*
X114427627Y-54667160D01*
X114395050Y-54681744D01*
X114363663Y-54696358D01*
X114334460Y-54710565D01*
X114308432Y-54723930D01*
X113807576Y-54989705D01*
X113801755Y-54992913D01*
X113796346Y-54996133D01*
X113791348Y-54999361D01*
X113786761Y-55002590D01*
X113782583Y-55005816D01*
X113778815Y-55009034D01*
X113775454Y-55012237D01*
X113772499Y-55015421D01*
X113769951Y-55018581D01*
X113767808Y-55021710D01*
X113766069Y-55024805D01*
X113764734Y-55027858D01*
X113763800Y-55030866D01*
X113763269Y-55033823D01*
X113763138Y-55036724D01*
X113172186Y-55036724D01*
X111893182Y-54784124D01*
X111886655Y-54782931D01*
X111880468Y-54781978D01*
X111874624Y-54781261D01*
X111869124Y-54780777D01*
X111863971Y-54780521D01*
X111859166Y-54780490D01*
X111854711Y-54780679D01*
X111850609Y-54781085D01*
X111846861Y-54781704D01*
X111843470Y-54782532D01*
X111840436Y-54783565D01*
X111837762Y-54784798D01*
X111835451Y-54786229D01*
X111833503Y-54787853D01*
X111831922Y-54789666D01*
X111830708Y-54791665D01*
X111829863Y-54793844D01*
X111829391Y-54796202D01*
X111829292Y-54798732D01*
X111634931Y-54798732D01*
X111629078Y-54798261D01*
X111622646Y-54798014D01*
X111616234Y-54798038D01*
X111609853Y-54798334D01*
X111603518Y-54798901D01*
X111597239Y-54799740D01*
X111591028Y-54800851D01*
X111584898Y-54802235D01*
X111578861Y-54803891D01*
X111572929Y-54805819D01*
X111567114Y-54808021D01*
X111561428Y-54810495D01*
X111555883Y-54813243D01*
X111550492Y-54816264D01*
X111545266Y-54819559D01*
X111540218Y-54823128D01*
X111535360Y-54826970D01*
X111530703Y-54831087D01*
X111526335Y-54835389D01*
X111522332Y-54839782D01*
X111518693Y-54844256D01*
X111515415Y-54848802D01*
X111512496Y-54853412D01*
X111509935Y-54858077D01*
X111507730Y-54862788D01*
X111505878Y-54867536D01*
X111504377Y-54872311D01*
X111503227Y-54877106D01*
X111502423Y-54881912D01*
X111501965Y-54886719D01*
X111501851Y-54891518D01*
X111352614Y-54891518D01*
X111352927Y-54890657D01*
X111355085Y-54885735D01*
X111357614Y-54880822D01*
X111360516Y-54875924D01*
X111363793Y-54871052D01*
X111367447Y-54866214D01*
X111371479Y-54861418D01*
X111375891Y-54856674D01*
X111380685Y-54851990D01*
X111451991Y-54785447D01*
X111456801Y-54780730D01*
X111461261Y-54775889D01*
X111465372Y-54770934D01*
X111469135Y-54765875D01*
X111472550Y-54760722D01*
X111475619Y-54755487D01*
X111478343Y-54750179D01*
X111480723Y-54744808D01*
X111482759Y-54739386D01*
X111484452Y-54733922D01*
X111485805Y-54728427D01*
X111486816Y-54722911D01*
X111487488Y-54717385D01*
X111487822Y-54711858D01*
X111487818Y-54706342D01*
X111487478Y-54700846D01*
X111486802Y-54695382D01*
X111485791Y-54689958D01*
X111484446Y-54684587D01*
X111482769Y-54679278D01*
X111480760Y-54674041D01*
X111478420Y-54668887D01*
X111475751Y-54663826D01*
X111472752Y-54658869D01*
X111469426Y-54654025D01*
X111465772Y-54649306D01*
X111461793Y-54644722D01*
X111457489Y-54640283D01*
X111452861Y-54635999D01*
X111447909Y-54631881D01*
X111442636Y-54627939D01*
X111437042Y-54624183D01*
X109669890Y-53500366D01*
X109664284Y-53496611D01*
X109659001Y-53492671D01*
X109654043Y-53488557D01*
X109649410Y-53484278D01*
X109645103Y-53479846D01*
X109641123Y-53475269D01*
X109637471Y-53470559D01*
X109634148Y-53465726D01*
X109631154Y-53460780D01*
X109628491Y-53455732D01*
X109626159Y-53450591D01*
X109624160Y-53445369D01*
X109622493Y-53440075D01*
X109621161Y-53434720D01*
X109620164Y-53429315D01*
X109619503Y-53423868D01*
X109619178Y-53418392D01*
X109619192Y-53412895D01*
X109619544Y-53407389D01*
X109619593Y-53406995D01*
X109759261Y-53406995D01*
X109759582Y-53412474D01*
X109760240Y-53417924D01*
X109761234Y-53423332D01*
X109762562Y-53428689D01*
X109764224Y-53433985D01*
X109766218Y-53439209D01*
X109768544Y-53444351D01*
X109771201Y-53449400D01*
X109774188Y-53454347D01*
X109777504Y-53459181D01*
X109781149Y-53463891D01*
X109785120Y-53468468D01*
X109789418Y-53472901D01*
X109794041Y-53477180D01*
X109798989Y-53481294D01*
X109804260Y-53485234D01*
X109809853Y-53488989D01*
X111124304Y-54325337D01*
X111135168Y-54332123D01*
X111144739Y-54337802D01*
X111153007Y-54342386D01*
X111159966Y-54345883D01*
X111162952Y-54347228D01*
X111165608Y-54348305D01*
X111167933Y-54349115D01*
X111169926Y-54349661D01*
X111171586Y-54349942D01*
X111172912Y-54349961D01*
X111173903Y-54349718D01*
X111174558Y-54349215D01*
X111174876Y-54348453D01*
X111174856Y-54347434D01*
X111174498Y-54346158D01*
X111173800Y-54344627D01*
X111172762Y-54342843D01*
X111171382Y-54340805D01*
X111169659Y-54338516D01*
X111167594Y-54335978D01*
X111162428Y-54330155D01*
X111155877Y-54323347D01*
X111147934Y-54315564D01*
X111138591Y-54306816D01*
X110032368Y-53288699D01*
X110027259Y-53284218D01*
X110021963Y-53280027D01*
X110016492Y-53276125D01*
X110010859Y-53272514D01*
X110005076Y-53269192D01*
X109999155Y-53266159D01*
X109993109Y-53263417D01*
X109986950Y-53260963D01*
X109980692Y-53258800D01*
X109974346Y-53256926D01*
X109967925Y-53255341D01*
X109961442Y-53254046D01*
X109954909Y-53253039D01*
X109948338Y-53252323D01*
X109941742Y-53251895D01*
X109935133Y-53251757D01*
X109928525Y-53251907D01*
X109921929Y-53252347D01*
X109915358Y-53253076D01*
X109908825Y-53254094D01*
X109902342Y-53255401D01*
X109895921Y-53256997D01*
X109889575Y-53258881D01*
X109883316Y-53261054D01*
X109877158Y-53263516D01*
X109871112Y-53266267D01*
X109865191Y-53269307D01*
X109859408Y-53272635D01*
X109853774Y-53276251D01*
X109848303Y-53280156D01*
X109843008Y-53284350D01*
X109837899Y-53288832D01*
X109795433Y-53328122D01*
X109790598Y-53332826D01*
X109786113Y-53337654D01*
X109781978Y-53342595D01*
X109778191Y-53347639D01*
X109774751Y-53352776D01*
X109771658Y-53357996D01*
X109768910Y-53363288D01*
X109766507Y-53368643D01*
X109764448Y-53374049D01*
X109762732Y-53379496D01*
X109761357Y-53384975D01*
X109760324Y-53390474D01*
X109759631Y-53395984D01*
X109759277Y-53401494D01*
X109759261Y-53406995D01*
X109619593Y-53406995D01*
X109620235Y-53401884D01*
X109621267Y-53396389D01*
X109622640Y-53390916D01*
X109624355Y-53385475D01*
X109626413Y-53380076D01*
X109628815Y-53374729D01*
X109631562Y-53369444D01*
X109634655Y-53364233D01*
X109638095Y-53359105D01*
X109641882Y-53354070D01*
X109646017Y-53349140D01*
X109650502Y-53344323D01*
X109655337Y-53339631D01*
X109785612Y-53219279D01*
X110109972Y-53219279D01*
X110110094Y-53222728D01*
X110110595Y-53226303D01*
X110111477Y-53229998D01*
X110112743Y-53233806D01*
X110114395Y-53237723D01*
X110116435Y-53241743D01*
X110118865Y-53245861D01*
X110121689Y-53250070D01*
X110124907Y-53254365D01*
X110128522Y-53258741D01*
X110132536Y-53263191D01*
X110136953Y-53267711D01*
X110141773Y-53272295D01*
X111441142Y-54466888D01*
X111446093Y-54471307D01*
X111450897Y-54475338D01*
X111455550Y-54478983D01*
X111460048Y-54482244D01*
X111464387Y-54485126D01*
X111468563Y-54487628D01*
X111472571Y-54489756D01*
X111476408Y-54491509D01*
X111480069Y-54492893D01*
X111483550Y-54493908D01*
X111486846Y-54494557D01*
X111489955Y-54494843D01*
X111492871Y-54494768D01*
X111495591Y-54494335D01*
X111498111Y-54493547D01*
X111500425Y-54492405D01*
X111502531Y-54490912D01*
X111504423Y-54489071D01*
X111506099Y-54486884D01*
X111507553Y-54484354D01*
X111508781Y-54481483D01*
X111509780Y-54478274D01*
X111510545Y-54474729D01*
X111511073Y-54470851D01*
X111511358Y-54466642D01*
X111511397Y-54462105D01*
X111511186Y-54457242D01*
X111510720Y-54452056D01*
X111509996Y-54446549D01*
X111509008Y-54440723D01*
X111507754Y-54434582D01*
X111506229Y-54428127D01*
X111229343Y-53330371D01*
X111227518Y-53323796D01*
X111225373Y-53317299D01*
X111222919Y-53310888D01*
X111220166Y-53304570D01*
X111217126Y-53298356D01*
X111213808Y-53292252D01*
X111206382Y-53280410D01*
X111197973Y-53269113D01*
X111188666Y-53258427D01*
X111178545Y-53248419D01*
X111170349Y-53241422D01*
X111311446Y-53241422D01*
X111311484Y-53250536D01*
X111311959Y-53260412D01*
X111312873Y-53270982D01*
X111314226Y-53282182D01*
X111316021Y-53293945D01*
X111318257Y-53306206D01*
X111320938Y-53318899D01*
X111324064Y-53331959D01*
X111626350Y-54527081D01*
X111628184Y-54533686D01*
X111630330Y-54540275D01*
X111635517Y-54553361D01*
X111641828Y-54566262D01*
X111649181Y-54578896D01*
X111657493Y-54591186D01*
X111666681Y-54603051D01*
X111676662Y-54614413D01*
X111687354Y-54625192D01*
X111698673Y-54635309D01*
X111710538Y-54644685D01*
X111722865Y-54653241D01*
X111735572Y-54660896D01*
X111748575Y-54667573D01*
X111761793Y-54673191D01*
X111775142Y-54677672D01*
X111781840Y-54679461D01*
X111788540Y-54680936D01*
X113382125Y-54995261D01*
X113388765Y-54996408D01*
X113395285Y-54997199D01*
X113401677Y-54997641D01*
X113407935Y-54997740D01*
X113414051Y-54997504D01*
X113420018Y-54996940D01*
X113425827Y-54996053D01*
X113431472Y-54994852D01*
X113436945Y-54993343D01*
X113442238Y-54991532D01*
X113447345Y-54989427D01*
X113452258Y-54987034D01*
X113456969Y-54984360D01*
X113461471Y-54981413D01*
X113465756Y-54978198D01*
X113469818Y-54974723D01*
X113473648Y-54970995D01*
X113477239Y-54967019D01*
X113480584Y-54962805D01*
X113483676Y-54958357D01*
X113486506Y-54953683D01*
X113489068Y-54948789D01*
X113491353Y-54943683D01*
X113493355Y-54938372D01*
X113495067Y-54932861D01*
X113496480Y-54927159D01*
X113497587Y-54921272D01*
X113498381Y-54915206D01*
X113498855Y-54908968D01*
X113499000Y-54902566D01*
X113498810Y-54896007D01*
X113498277Y-54889296D01*
X113385776Y-53806859D01*
X113477227Y-53806859D01*
X113477356Y-53812786D01*
X113477713Y-53819057D01*
X113478302Y-53825670D01*
X113587045Y-54873421D01*
X113587901Y-54880084D01*
X113589048Y-54886502D01*
X113590478Y-54892671D01*
X113592183Y-54898587D01*
X113594155Y-54904244D01*
X113596385Y-54909639D01*
X113598865Y-54914766D01*
X113601587Y-54919622D01*
X113604541Y-54924201D01*
X113607721Y-54928500D01*
X113611116Y-54932514D01*
X113614720Y-54936238D01*
X113618524Y-54939668D01*
X113622518Y-54942800D01*
X113626696Y-54945628D01*
X113631049Y-54948149D01*
X113635567Y-54950358D01*
X113640244Y-54952251D01*
X113645070Y-54953822D01*
X113650037Y-54955068D01*
X113655137Y-54955984D01*
X113660362Y-54956566D01*
X113665703Y-54956809D01*
X113671151Y-54956709D01*
X113676699Y-54956260D01*
X113682338Y-54955460D01*
X113688060Y-54954302D01*
X113693856Y-54952784D01*
X113699718Y-54950899D01*
X113705638Y-54948644D01*
X113711607Y-54946015D01*
X113717617Y-54943006D01*
X114215695Y-54679084D01*
X114221561Y-54675785D01*
X114227103Y-54672294D01*
X114232320Y-54668621D01*
X114237211Y-54664776D01*
X114241774Y-54660768D01*
X114246007Y-54656608D01*
X114249910Y-54652304D01*
X114253481Y-54647867D01*
X114256718Y-54643306D01*
X114259621Y-54638632D01*
X114262188Y-54633853D01*
X114264417Y-54628980D01*
X114266308Y-54624022D01*
X114267859Y-54618989D01*
X114269068Y-54613891D01*
X114269934Y-54608738D01*
X114270457Y-54603538D01*
X114270633Y-54598303D01*
X114270463Y-54593042D01*
X114269945Y-54587764D01*
X114269077Y-54582479D01*
X114267858Y-54577197D01*
X114266287Y-54571928D01*
X114264362Y-54566681D01*
X114262082Y-54561467D01*
X114259445Y-54556294D01*
X114256451Y-54551173D01*
X114253098Y-54546114D01*
X114249385Y-54541125D01*
X114245309Y-54536217D01*
X114240871Y-54531400D01*
X114236068Y-54526684D01*
X114084594Y-54384868D01*
X114063437Y-54364670D01*
X114040259Y-54341900D01*
X114015816Y-54317334D01*
X113990865Y-54291751D01*
X113971618Y-54271630D01*
X114136398Y-54271630D01*
X114136482Y-54276783D01*
X114136916Y-54281962D01*
X114137703Y-54287158D01*
X114138844Y-54292360D01*
X114140341Y-54297560D01*
X114142194Y-54302747D01*
X114144406Y-54307912D01*
X114146978Y-54313047D01*
X114149911Y-54318140D01*
X114153208Y-54323184D01*
X114156869Y-54328168D01*
X114160896Y-54333082D01*
X114165290Y-54337918D01*
X114170054Y-54342666D01*
X114320867Y-54485805D01*
X114331291Y-54494863D01*
X114342693Y-54503217D01*
X114354960Y-54510845D01*
X114367979Y-54517723D01*
X114381637Y-54523826D01*
X114395820Y-54529130D01*
X114410416Y-54533613D01*
X114425311Y-54537250D01*
X114440392Y-54540017D01*
X114455546Y-54541891D01*
X114470659Y-54542847D01*
X114485619Y-54542862D01*
X114500313Y-54541912D01*
X114514626Y-54539973D01*
X114528447Y-54537022D01*
X114541662Y-54533034D01*
X114980870Y-54378782D01*
X114994096Y-54373841D01*
X115007953Y-54368144D01*
X115022326Y-54361756D01*
X115037100Y-54354746D01*
X115052162Y-54347181D01*
X115067397Y-54339128D01*
X115082692Y-54330656D01*
X115097931Y-54321830D01*
X115113002Y-54312719D01*
X115127790Y-54303391D01*
X115142180Y-54293912D01*
X115156059Y-54284350D01*
X115169313Y-54274773D01*
X115181826Y-54265248D01*
X115193486Y-54255842D01*
X115204178Y-54246622D01*
X115559910Y-53928064D01*
X115564796Y-53923576D01*
X115569284Y-53919218D01*
X115573378Y-53914995D01*
X115577078Y-53910909D01*
X115580387Y-53906965D01*
X115583307Y-53903166D01*
X115585840Y-53899517D01*
X115587987Y-53896021D01*
X115589752Y-53892681D01*
X115591135Y-53889503D01*
X115592139Y-53886489D01*
X115592766Y-53883644D01*
X115593019Y-53880971D01*
X115592898Y-53878474D01*
X115592406Y-53876156D01*
X115592289Y-53875867D01*
X115929146Y-53875867D01*
X115929346Y-53880872D01*
X115929896Y-53886015D01*
X115930803Y-53891288D01*
X115932069Y-53896686D01*
X115933700Y-53902201D01*
X115935700Y-53907825D01*
X115938072Y-53913553D01*
X115940822Y-53919375D01*
X115943953Y-53925287D01*
X116138290Y-54273081D01*
X116141734Y-54278882D01*
X116145384Y-54284377D01*
X116149232Y-54289565D01*
X116153267Y-54294445D01*
X116157479Y-54299013D01*
X116161856Y-54303270D01*
X116166389Y-54307213D01*
X116171068Y-54310840D01*
X116175881Y-54314150D01*
X116180819Y-54317141D01*
X116185872Y-54319811D01*
X116191029Y-54322159D01*
X116196279Y-54324183D01*
X116201613Y-54325882D01*
X116207020Y-54327253D01*
X116212489Y-54328296D01*
X116218011Y-54329008D01*
X116223575Y-54329387D01*
X116229170Y-54329433D01*
X116234787Y-54329143D01*
X116240415Y-54328516D01*
X116246043Y-54327550D01*
X116251661Y-54326243D01*
X116257260Y-54324594D01*
X116262828Y-54322601D01*
X116268355Y-54320262D01*
X116273831Y-54317576D01*
X116279246Y-54314541D01*
X116284589Y-54311156D01*
X116289849Y-54307418D01*
X116295017Y-54303326D01*
X116300083Y-54298878D01*
X116692592Y-53936664D01*
X116697400Y-53932058D01*
X116701806Y-53927496D01*
X116705812Y-53922984D01*
X116709420Y-53918528D01*
X116712632Y-53914136D01*
X116715450Y-53909811D01*
X116717877Y-53905562D01*
X116719914Y-53901393D01*
X116721564Y-53897312D01*
X116722829Y-53893323D01*
X116723711Y-53889434D01*
X116724213Y-53885650D01*
X116724336Y-53881978D01*
X116724083Y-53878423D01*
X116723456Y-53874993D01*
X116722456Y-53871692D01*
X116721087Y-53868527D01*
X116719351Y-53865504D01*
X116717249Y-53862630D01*
X116714784Y-53859910D01*
X116711958Y-53857350D01*
X116708773Y-53854958D01*
X116705231Y-53852738D01*
X116701335Y-53850697D01*
X116697087Y-53848841D01*
X116692488Y-53847176D01*
X116687542Y-53845708D01*
X116682250Y-53844445D01*
X116676614Y-53843390D01*
X116670636Y-53842551D01*
X116664320Y-53841935D01*
X116657666Y-53841546D01*
X116011554Y-53815220D01*
X116004870Y-53815088D01*
X115998437Y-53815257D01*
X115992260Y-53815720D01*
X115986343Y-53816471D01*
X115980691Y-53817502D01*
X115975308Y-53818806D01*
X115970198Y-53820376D01*
X115965366Y-53822204D01*
X115960816Y-53824285D01*
X115956552Y-53826610D01*
X115952579Y-53829172D01*
X115948900Y-53831965D01*
X115945521Y-53834982D01*
X115942446Y-53838214D01*
X115939678Y-53841656D01*
X115937223Y-53845300D01*
X115935085Y-53849138D01*
X115933267Y-53853165D01*
X115931775Y-53857372D01*
X115930613Y-53861753D01*
X115929784Y-53866301D01*
X115929294Y-53871008D01*
X115929146Y-53875867D01*
X115592289Y-53875867D01*
X115591545Y-53874023D01*
X115590316Y-53872077D01*
X115588723Y-53870323D01*
X115586767Y-53868764D01*
X115584450Y-53867404D01*
X115581774Y-53866247D01*
X115578741Y-53865296D01*
X115575353Y-53864556D01*
X115571612Y-53864031D01*
X115567520Y-53863724D01*
X115563079Y-53863638D01*
X115558291Y-53863779D01*
X115553159Y-53864149D01*
X115547683Y-53864753D01*
X115541866Y-53865594D01*
X115535711Y-53866676D01*
X115529219Y-53868004D01*
X114453026Y-54102954D01*
X114424602Y-54109823D01*
X114393390Y-54118488D01*
X114360406Y-54128601D01*
X114326671Y-54139814D01*
X114293203Y-54151776D01*
X114261020Y-54164141D01*
X114231140Y-54176558D01*
X114204583Y-54188679D01*
X114193205Y-54194102D01*
X114187227Y-54197168D01*
X114181574Y-54200430D01*
X114176245Y-54203880D01*
X114171244Y-54207507D01*
X114166571Y-54211302D01*
X114162228Y-54215257D01*
X114158217Y-54219360D01*
X114154538Y-54223603D01*
X114151195Y-54227976D01*
X114148187Y-54232470D01*
X114145516Y-54237076D01*
X114143185Y-54241783D01*
X114141194Y-54246582D01*
X114139545Y-54251464D01*
X114138239Y-54256420D01*
X114137279Y-54261439D01*
X114136664Y-54266512D01*
X114136398Y-54271630D01*
X113971618Y-54271630D01*
X113966162Y-54265925D01*
X113942463Y-54240635D01*
X113920525Y-54216655D01*
X113901105Y-54194765D01*
X113551591Y-53793788D01*
X113547146Y-53788855D01*
X113542793Y-53784325D01*
X113538537Y-53780196D01*
X113534383Y-53776465D01*
X113530335Y-53773131D01*
X113526398Y-53770192D01*
X113522577Y-53767645D01*
X113518876Y-53765488D01*
X113515300Y-53763720D01*
X113511853Y-53762339D01*
X113508541Y-53761342D01*
X113505368Y-53760727D01*
X113502339Y-53760494D01*
X113499458Y-53760638D01*
X113496730Y-53761159D01*
X113494160Y-53762055D01*
X113491752Y-53763323D01*
X113489511Y-53764961D01*
X113487442Y-53766968D01*
X113485550Y-53769341D01*
X113483838Y-53772079D01*
X113482313Y-53775179D01*
X113480977Y-53778640D01*
X113479837Y-53782459D01*
X113478897Y-53786634D01*
X113478161Y-53791164D01*
X113477634Y-53796046D01*
X113477322Y-53801278D01*
X113477227Y-53806859D01*
X113385776Y-53806859D01*
X113376966Y-53722087D01*
X113376093Y-53715310D01*
X113374896Y-53708554D01*
X113373383Y-53701829D01*
X113371563Y-53695144D01*
X113369446Y-53688511D01*
X113367041Y-53681939D01*
X113364357Y-53675439D01*
X113361403Y-53669019D01*
X113354722Y-53656464D01*
X113347073Y-53644354D01*
X113338527Y-53632770D01*
X113329159Y-53621793D01*
X113319043Y-53611502D01*
X113308251Y-53601979D01*
X113296857Y-53593303D01*
X113284934Y-53585556D01*
X113278798Y-53582055D01*
X113272557Y-53578816D01*
X113266221Y-53575850D01*
X113259798Y-53573166D01*
X113253299Y-53570774D01*
X113246731Y-53568685D01*
X113240105Y-53566908D01*
X113233429Y-53565453D01*
X111491810Y-53228903D01*
X111464997Y-53223835D01*
X111438591Y-53219116D01*
X111413270Y-53214846D01*
X111389713Y-53211127D01*
X111368600Y-53208058D01*
X111350609Y-53205742D01*
X111336419Y-53204278D01*
X111330962Y-53203898D01*
X111326709Y-53203768D01*
X111324952Y-53203936D01*
X111323301Y-53204433D01*
X111321756Y-53205252D01*
X111320318Y-53206384D01*
X111318987Y-53207821D01*
X111317762Y-53209556D01*
X111315636Y-53213882D01*
X111313940Y-53219298D01*
X111312675Y-53225736D01*
X111311843Y-53233133D01*
X111311446Y-53241422D01*
X111170349Y-53241422D01*
X111167695Y-53239156D01*
X111156200Y-53230706D01*
X111144144Y-53223135D01*
X111131612Y-53216510D01*
X111118689Y-53210899D01*
X111105459Y-53206369D01*
X111098755Y-53204530D01*
X111092007Y-53202986D01*
X111085223Y-53201746D01*
X111078416Y-53200818D01*
X111071596Y-53200210D01*
X111064772Y-53199932D01*
X110176698Y-53184983D01*
X110170045Y-53184989D01*
X110163727Y-53185226D01*
X110157748Y-53185690D01*
X110152110Y-53186374D01*
X110146815Y-53187273D01*
X110141865Y-53188381D01*
X110137263Y-53189693D01*
X110133011Y-53191202D01*
X110129111Y-53192904D01*
X110125565Y-53194793D01*
X110122376Y-53196864D01*
X110119546Y-53199110D01*
X110117077Y-53201526D01*
X110114971Y-53204106D01*
X110113231Y-53206845D01*
X110111859Y-53209738D01*
X110110857Y-53212778D01*
X110110227Y-53215960D01*
X110109972Y-53219279D01*
X109785612Y-53219279D01*
X109789084Y-53216071D01*
X109798918Y-53206249D01*
X109808350Y-53195362D01*
X109817335Y-53183523D01*
X109825830Y-53170846D01*
X109833794Y-53157445D01*
X109841181Y-53143432D01*
X109847950Y-53128921D01*
X109854056Y-53114025D01*
X109859457Y-53098858D01*
X109864109Y-53083533D01*
X109867970Y-53068163D01*
X109870996Y-53052863D01*
X109873143Y-53037744D01*
X109874369Y-53022921D01*
X109874630Y-53008507D01*
X109873883Y-52994615D01*
X109757174Y-51746369D01*
X109851610Y-51746369D01*
X109851659Y-51752314D01*
X109851938Y-51758601D01*
X109852451Y-51765228D01*
X109964502Y-52969215D01*
X109965304Y-52975974D01*
X109966439Y-52982652D01*
X109967896Y-52989241D01*
X109969668Y-52995733D01*
X109971745Y-53002118D01*
X109974116Y-53008388D01*
X109976774Y-53014535D01*
X109979709Y-53020550D01*
X109982912Y-53026425D01*
X109986373Y-53032150D01*
X109990083Y-53037718D01*
X109994033Y-53043120D01*
X109998213Y-53048347D01*
X110002615Y-53053390D01*
X110007228Y-53058242D01*
X110012044Y-53062894D01*
X110017054Y-53067336D01*
X110022248Y-53071562D01*
X110027616Y-53075561D01*
X110033150Y-53079326D01*
X110038841Y-53082847D01*
X110044678Y-53086117D01*
X110050653Y-53089127D01*
X110056757Y-53091868D01*
X110062980Y-53094331D01*
X110069312Y-53096509D01*
X110075746Y-53098393D01*
X110082270Y-53099973D01*
X110088877Y-53101242D01*
X110095557Y-53102191D01*
X110102300Y-53102811D01*
X110109097Y-53103094D01*
X111037123Y-53118043D01*
X111043789Y-53118025D01*
X111050141Y-53117752D01*
X111056179Y-53117230D01*
X111061897Y-53116466D01*
X111067294Y-53115464D01*
X111072367Y-53114233D01*
X111077113Y-53112777D01*
X111081529Y-53111104D01*
X111085613Y-53109218D01*
X111089360Y-53107127D01*
X111092770Y-53104837D01*
X111095838Y-53102353D01*
X111098562Y-53099682D01*
X111100939Y-53096830D01*
X111102966Y-53093804D01*
X111104641Y-53090609D01*
X111105960Y-53087251D01*
X111106922Y-53083738D01*
X111107522Y-53080074D01*
X111107758Y-53076266D01*
X111107627Y-53072321D01*
X111107127Y-53068244D01*
X111106255Y-53064042D01*
X111105007Y-53059721D01*
X111103381Y-53055286D01*
X111101374Y-53050745D01*
X111098984Y-53046104D01*
X111097515Y-53043598D01*
X111339673Y-53043598D01*
X111339975Y-53049238D01*
X111340609Y-53054783D01*
X111341570Y-53060224D01*
X111342855Y-53065553D01*
X111344459Y-53070759D01*
X111346377Y-53075834D01*
X111348604Y-53080769D01*
X111351138Y-53085555D01*
X111353972Y-53090181D01*
X111357102Y-53094640D01*
X111360525Y-53098921D01*
X111364235Y-53103016D01*
X111368229Y-53106916D01*
X111372501Y-53110610D01*
X111377047Y-53114090D01*
X111381863Y-53117348D01*
X111386945Y-53120372D01*
X111392287Y-53123155D01*
X111397885Y-53125688D01*
X111403736Y-53127960D01*
X111409834Y-53129963D01*
X111416174Y-53131687D01*
X111422754Y-53133124D01*
X113172973Y-53470997D01*
X113179525Y-53472142D01*
X113185786Y-53473001D01*
X113191752Y-53473578D01*
X113197421Y-53473879D01*
X113202789Y-53473910D01*
X113207852Y-53473674D01*
X113212609Y-53473178D01*
X113217054Y-53472425D01*
X113221187Y-53471423D01*
X113225002Y-53470175D01*
X113228498Y-53468686D01*
X113231671Y-53466962D01*
X113234518Y-53465009D01*
X113237035Y-53462830D01*
X113239220Y-53460431D01*
X113241069Y-53457817D01*
X113242580Y-53454994D01*
X113243749Y-53451966D01*
X113244572Y-53448739D01*
X113245048Y-53445318D01*
X113245172Y-53441707D01*
X113244942Y-53437912D01*
X113244354Y-53433938D01*
X113243405Y-53429790D01*
X113242092Y-53425474D01*
X113240413Y-53420993D01*
X113238363Y-53416354D01*
X113235939Y-53411562D01*
X113233139Y-53406621D01*
X113229960Y-53401538D01*
X113226398Y-53396316D01*
X113222449Y-53390961D01*
X112056563Y-51865902D01*
X112052367Y-51860668D01*
X112048069Y-51855806D01*
X112043678Y-51851313D01*
X112039203Y-51847191D01*
X112034653Y-51843438D01*
X112030037Y-51840052D01*
X112025365Y-51837035D01*
X112020644Y-51834383D01*
X112015884Y-51832098D01*
X112011095Y-51830178D01*
X112006284Y-51828622D01*
X112001462Y-51827430D01*
X111996636Y-51826600D01*
X111991817Y-51826133D01*
X111987012Y-51826026D01*
X111982232Y-51826281D01*
X111977484Y-51826894D01*
X111972778Y-51827867D01*
X111968124Y-51829198D01*
X111963529Y-51830886D01*
X111959003Y-51832931D01*
X111954555Y-51835331D01*
X111950193Y-51838087D01*
X111945928Y-51841196D01*
X111941767Y-51844660D01*
X111937721Y-51848476D01*
X111933797Y-51852644D01*
X111930005Y-51857163D01*
X111926353Y-51862032D01*
X111922852Y-51867251D01*
X111919509Y-51872819D01*
X111916334Y-51878734D01*
X111352639Y-52990117D01*
X111349751Y-52996191D01*
X111347235Y-53002254D01*
X111345087Y-53008296D01*
X111343302Y-53014308D01*
X111341877Y-53020282D01*
X111340805Y-53026206D01*
X111340084Y-53032073D01*
X111339708Y-53037874D01*
X111339673Y-53043598D01*
X111097515Y-53043598D01*
X111096207Y-53041368D01*
X111093040Y-53036543D01*
X111089481Y-53031637D01*
X111085527Y-53026654D01*
X111081176Y-53021602D01*
X109928386Y-51732155D01*
X109923878Y-51727272D01*
X109919459Y-51722792D01*
X109915133Y-51718712D01*
X109910907Y-51715030D01*
X109906785Y-51711745D01*
X109902772Y-51708854D01*
X109898872Y-51706355D01*
X109895090Y-51704246D01*
X109891432Y-51702525D01*
X109887902Y-51701190D01*
X109884505Y-51700239D01*
X109881245Y-51699669D01*
X109878128Y-51699479D01*
X109875159Y-51699667D01*
X109872342Y-51700230D01*
X109869682Y-51701166D01*
X109867184Y-51702474D01*
X109864853Y-51704151D01*
X109862694Y-51706195D01*
X109860711Y-51708604D01*
X109858910Y-51711376D01*
X109857295Y-51714509D01*
X109855871Y-51718000D01*
X109854642Y-51721849D01*
X109853615Y-51726052D01*
X109852793Y-51730608D01*
X109852182Y-51735514D01*
X109851786Y-51740768D01*
X109851610Y-51746369D01*
X109757174Y-51746369D01*
X109743179Y-51596689D01*
X109742723Y-51589924D01*
X109742615Y-51583230D01*
X109742643Y-51582454D01*
X109933680Y-51582454D01*
X109933812Y-51586628D01*
X109934314Y-51590917D01*
X109935187Y-51595314D01*
X109936436Y-51599812D01*
X109938063Y-51604404D01*
X109940070Y-51609084D01*
X109942461Y-51613845D01*
X109945238Y-51618680D01*
X109948405Y-51623582D01*
X109951964Y-51628545D01*
X109955917Y-51633561D01*
X109960269Y-51638625D01*
X110938302Y-52731751D01*
X110946992Y-52741180D01*
X110954845Y-52749135D01*
X110961845Y-52755625D01*
X110967979Y-52760661D01*
X110970715Y-52762637D01*
X110973229Y-52764254D01*
X110975518Y-52765512D01*
X110977581Y-52766414D01*
X110979415Y-52766960D01*
X110981019Y-52767152D01*
X110982391Y-52766991D01*
X110983529Y-52766478D01*
X110984431Y-52765614D01*
X110985094Y-52764402D01*
X110985518Y-52762842D01*
X110985701Y-52760935D01*
X110985639Y-52758684D01*
X110985332Y-52756088D01*
X110984777Y-52753150D01*
X110983973Y-52749871D01*
X110981609Y-52742294D01*
X110978225Y-52733368D01*
X110973804Y-52723103D01*
X110968332Y-52711510D01*
X110439827Y-51633466D01*
X110433211Y-51621419D01*
X110425434Y-51609774D01*
X110416594Y-51598588D01*
X110415532Y-51597433D01*
X110532346Y-51597433D01*
X110532630Y-51602511D01*
X110533262Y-51607749D01*
X110534245Y-51613142D01*
X110535585Y-51618683D01*
X110537286Y-51624366D01*
X110539352Y-51630183D01*
X110541789Y-51636129D01*
X110544602Y-51642197D01*
X111170077Y-52917092D01*
X111173151Y-52923028D01*
X111176339Y-52928584D01*
X111179635Y-52933759D01*
X111183031Y-52938553D01*
X111186520Y-52942967D01*
X111190093Y-52946999D01*
X111193744Y-52950650D01*
X111197465Y-52953921D01*
X111201248Y-52956810D01*
X111205086Y-52959317D01*
X111208972Y-52961444D01*
X111212897Y-52963189D01*
X111216855Y-52964553D01*
X111220837Y-52965535D01*
X111224837Y-52966135D01*
X111228847Y-52966354D01*
X111232859Y-52966191D01*
X111236866Y-52965646D01*
X111240860Y-52964719D01*
X111244834Y-52963411D01*
X111248781Y-52961720D01*
X111252692Y-52959647D01*
X111256560Y-52957192D01*
X111260378Y-52954355D01*
X111264138Y-52951135D01*
X111267833Y-52947533D01*
X111271456Y-52943548D01*
X111274998Y-52939181D01*
X111278452Y-52934431D01*
X111281811Y-52929299D01*
X111285067Y-52923784D01*
X111288213Y-52917885D01*
X111825449Y-51858494D01*
X111837360Y-51834426D01*
X111848333Y-51811307D01*
X111858138Y-51789689D01*
X111866542Y-51770123D01*
X111873316Y-51753162D01*
X111875850Y-51746288D01*
X112098012Y-51746288D01*
X112098284Y-51751480D01*
X112098911Y-51756736D01*
X112099895Y-51762047D01*
X112101239Y-51767404D01*
X112102946Y-51772798D01*
X112105020Y-51778220D01*
X112107463Y-51783662D01*
X112110279Y-51789114D01*
X112113469Y-51794567D01*
X112117039Y-51800014D01*
X112120989Y-51805445D01*
X113274572Y-53312908D01*
X113278684Y-53318123D01*
X113282730Y-53322930D01*
X113286706Y-53327330D01*
X113290607Y-53331325D01*
X113294428Y-53334917D01*
X113298165Y-53338108D01*
X113301812Y-53340899D01*
X113305366Y-53343292D01*
X113308820Y-53345288D01*
X113312170Y-53346890D01*
X113315412Y-53348100D01*
X113318540Y-53348918D01*
X113321550Y-53349346D01*
X113324436Y-53349387D01*
X113327195Y-53349042D01*
X113329821Y-53348313D01*
X113332309Y-53347201D01*
X113334655Y-53345708D01*
X113336854Y-53343836D01*
X113338901Y-53341587D01*
X113340791Y-53338962D01*
X113342519Y-53335964D01*
X113344080Y-53332593D01*
X113345471Y-53328851D01*
X113346685Y-53324741D01*
X113347718Y-53320264D01*
X113348565Y-53315421D01*
X113349222Y-53310215D01*
X113349683Y-53304647D01*
X113349944Y-53298718D01*
X113350000Y-53292432D01*
X113349846Y-53285788D01*
X113280922Y-51516652D01*
X113280483Y-51509926D01*
X113279719Y-51503370D01*
X113278638Y-51496990D01*
X113277248Y-51490793D01*
X113275559Y-51484785D01*
X113273577Y-51478972D01*
X113271313Y-51473361D01*
X113268774Y-51467958D01*
X113267469Y-51465544D01*
X113371670Y-51465544D01*
X113371675Y-51479478D01*
X113422871Y-52813772D01*
X113423462Y-52826566D01*
X113424185Y-52837664D01*
X113425031Y-52847065D01*
X113425990Y-52854768D01*
X113427053Y-52860773D01*
X113428208Y-52865078D01*
X113428818Y-52866594D01*
X113429447Y-52867684D01*
X113430095Y-52868350D01*
X113430759Y-52868590D01*
X113431440Y-52868406D01*
X113432135Y-52867796D01*
X113432844Y-52866760D01*
X113433564Y-52865300D01*
X113435038Y-52861102D01*
X113436545Y-52855202D01*
X113438076Y-52847599D01*
X113439621Y-52838292D01*
X113441171Y-52827281D01*
X113442715Y-52814566D01*
X113620515Y-51236855D01*
X113621151Y-51230227D01*
X113621524Y-51223912D01*
X113621639Y-51217914D01*
X113621502Y-51212235D01*
X113621119Y-51206877D01*
X113620494Y-51201844D01*
X113619633Y-51197139D01*
X113618541Y-51192763D01*
X113617224Y-51188720D01*
X113615687Y-51185012D01*
X113613935Y-51181643D01*
X113611974Y-51178615D01*
X113609809Y-51175930D01*
X113607445Y-51173592D01*
X113604888Y-51171603D01*
X113602143Y-51169965D01*
X113599216Y-51168683D01*
X113596111Y-51167758D01*
X113592835Y-51167192D01*
X113589392Y-51166990D01*
X113585788Y-51167153D01*
X113582028Y-51167685D01*
X113578118Y-51168588D01*
X113574062Y-51169864D01*
X113569867Y-51171517D01*
X113565538Y-51173549D01*
X113561079Y-51175963D01*
X113556497Y-51178762D01*
X113551797Y-51181949D01*
X113546983Y-51185526D01*
X113542062Y-51189495D01*
X113537039Y-51193860D01*
X113464940Y-51258816D01*
X113454946Y-51268517D01*
X113445284Y-51279290D01*
X113436003Y-51291022D01*
X113427150Y-51303601D01*
X113418774Y-51316912D01*
X113410920Y-51330844D01*
X113403638Y-51345284D01*
X113396975Y-51360118D01*
X113390979Y-51375235D01*
X113385697Y-51390521D01*
X113381177Y-51405864D01*
X113377467Y-51421150D01*
X113374613Y-51436268D01*
X113372665Y-51451103D01*
X113371670Y-51465544D01*
X113267469Y-51465544D01*
X113265969Y-51462770D01*
X113262906Y-51457803D01*
X113259594Y-51453063D01*
X113256042Y-51448556D01*
X113252258Y-51444290D01*
X113248250Y-51440270D01*
X113244027Y-51436502D01*
X113239597Y-51432994D01*
X113234970Y-51429751D01*
X113230153Y-51426780D01*
X113225155Y-51424088D01*
X113219984Y-51421680D01*
X113214649Y-51419563D01*
X113209159Y-51417743D01*
X113203522Y-51416227D01*
X113197746Y-51415021D01*
X113191840Y-51414132D01*
X113185812Y-51413565D01*
X113179672Y-51413327D01*
X113173427Y-51413426D01*
X113167086Y-51413866D01*
X113160658Y-51414654D01*
X113154150Y-51415797D01*
X113147572Y-51417301D01*
X112168746Y-51667597D01*
X112162280Y-51669411D01*
X112156105Y-51671475D01*
X112150223Y-51673779D01*
X112144637Y-51676315D01*
X112139352Y-51679073D01*
X112134369Y-51682045D01*
X112129692Y-51685223D01*
X112125324Y-51688596D01*
X112121267Y-51692157D01*
X112117526Y-51695897D01*
X112114102Y-51699806D01*
X112110999Y-51703876D01*
X112108220Y-51708098D01*
X112105768Y-51712464D01*
X112103646Y-51716963D01*
X112101856Y-51721589D01*
X112100403Y-51726330D01*
X112099289Y-51731180D01*
X112098517Y-51736129D01*
X112098091Y-51741167D01*
X112098012Y-51746288D01*
X111875850Y-51746288D01*
X111876019Y-51745830D01*
X111878227Y-51739357D01*
X111879913Y-51733810D01*
X111881046Y-51729260D01*
X111881598Y-51725775D01*
X111881648Y-51724453D01*
X111881541Y-51723424D01*
X111881184Y-51722526D01*
X111880492Y-51721596D01*
X111878136Y-51719646D01*
X111874542Y-51717590D01*
X111869779Y-51715447D01*
X111863918Y-51713234D01*
X111857026Y-51710967D01*
X111840431Y-51706342D01*
X111820550Y-51701711D01*
X111797937Y-51697212D01*
X111773147Y-51692982D01*
X111746735Y-51689160D01*
X110617495Y-51540729D01*
X110610851Y-51539997D01*
X110604443Y-51539581D01*
X110598274Y-51539476D01*
X110592349Y-51539674D01*
X110586673Y-51540170D01*
X110581251Y-51540956D01*
X110576087Y-51542027D01*
X110571186Y-51543375D01*
X110566553Y-51544995D01*
X110562192Y-51546880D01*
X110558108Y-51549022D01*
X110554305Y-51551417D01*
X110550789Y-51554057D01*
X110547564Y-51556936D01*
X110544635Y-51560047D01*
X110542005Y-51563384D01*
X110539681Y-51566941D01*
X110537667Y-51570710D01*
X110535967Y-51574686D01*
X110534586Y-51578861D01*
X110533529Y-51583230D01*
X110532800Y-51587786D01*
X110532404Y-51592523D01*
X110532346Y-51597433D01*
X110415532Y-51597433D01*
X110406789Y-51587920D01*
X110396116Y-51577827D01*
X110384674Y-51568367D01*
X110372560Y-51559598D01*
X110359873Y-51551577D01*
X110346709Y-51544363D01*
X110333168Y-51538012D01*
X110319346Y-51532582D01*
X110305342Y-51528133D01*
X110291253Y-51524720D01*
X110277178Y-51522402D01*
X110263214Y-51521237D01*
X110249459Y-51521282D01*
X110004190Y-51533453D01*
X109997536Y-51533915D01*
X109991195Y-51534627D01*
X109985168Y-51535582D01*
X109979459Y-51536773D01*
X109974071Y-51538194D01*
X109969007Y-51539837D01*
X109964269Y-51541697D01*
X109959860Y-51543766D01*
X109955783Y-51546037D01*
X109952042Y-51548504D01*
X109948638Y-51551160D01*
X109945575Y-51553998D01*
X109942856Y-51557012D01*
X109940483Y-51560195D01*
X109938459Y-51563539D01*
X109936787Y-51567039D01*
X109935471Y-51570687D01*
X109934512Y-51574477D01*
X109933914Y-51578401D01*
X109933680Y-51582454D01*
X109742643Y-51582454D01*
X109742848Y-51576614D01*
X109743413Y-51570086D01*
X109744303Y-51563655D01*
X109745511Y-51557329D01*
X109747028Y-51551116D01*
X109748847Y-51545027D01*
X109750960Y-51539069D01*
X109753360Y-51533251D01*
X109756038Y-51527583D01*
X109758987Y-51522072D01*
X109762200Y-51516729D01*
X109765668Y-51511560D01*
X109769385Y-51506577D01*
X109773341Y-51501786D01*
X109777531Y-51497197D01*
X109781945Y-51492819D01*
X109786576Y-51488661D01*
X109791416Y-51484730D01*
X109796459Y-51481037D01*
X109801695Y-51477590D01*
X109807118Y-51474398D01*
X109812719Y-51471469D01*
X109818491Y-51468812D01*
X109824427Y-51466436D01*
X109830518Y-51464350D01*
X109836756Y-51462563D01*
X109843135Y-51461083D01*
X109849646Y-51459920D01*
X109856282Y-51459081D01*
X109863035Y-51458576D01*
X110254883Y-51439659D01*
X110268798Y-51438471D01*
X110283186Y-51436284D01*
X110297933Y-51433154D01*
X110312930Y-51429135D01*
X110328065Y-51424283D01*
X110343226Y-51418653D01*
X110358303Y-51412300D01*
X110373185Y-51405279D01*
X110381402Y-51400976D01*
X110553157Y-51400976D01*
X110553500Y-51405441D01*
X110554200Y-51409793D01*
X110555253Y-51414024D01*
X110556657Y-51418128D01*
X110558408Y-51422096D01*
X110560504Y-51425920D01*
X110562942Y-51429594D01*
X110565719Y-51433109D01*
X110568831Y-51436459D01*
X110572276Y-51439634D01*
X110576051Y-51442628D01*
X110580153Y-51445434D01*
X110584578Y-51448043D01*
X110589325Y-51450447D01*
X110594389Y-51452640D01*
X110599768Y-51454614D01*
X110605459Y-51456361D01*
X110611459Y-51457873D01*
X110617765Y-51459143D01*
X110624374Y-51460164D01*
X111782455Y-51612299D01*
X111789149Y-51613004D01*
X111795708Y-51613361D01*
X111802125Y-51613379D01*
X111808392Y-51613065D01*
X111814503Y-51612425D01*
X111820449Y-51611467D01*
X111826225Y-51610198D01*
X111831822Y-51608626D01*
X111837234Y-51606757D01*
X111842453Y-51604600D01*
X111847473Y-51602160D01*
X111852285Y-51599446D01*
X111856884Y-51596465D01*
X111861260Y-51593224D01*
X111865408Y-51589729D01*
X111869321Y-51585990D01*
X111872990Y-51582011D01*
X111876409Y-51577802D01*
X111879571Y-51573369D01*
X111882468Y-51568719D01*
X111885093Y-51563860D01*
X111887440Y-51558799D01*
X111888449Y-51556224D01*
X112168046Y-51556224D01*
X112168338Y-51558803D01*
X112168992Y-51561185D01*
X112170003Y-51563367D01*
X112171372Y-51565345D01*
X112173095Y-51567115D01*
X112175170Y-51568672D01*
X112177595Y-51570014D01*
X112180367Y-51571136D01*
X112183485Y-51572033D01*
X112186946Y-51572704D01*
X112190748Y-51573143D01*
X112194889Y-51573346D01*
X112199367Y-51573310D01*
X112204178Y-51573030D01*
X112209322Y-51572504D01*
X112214796Y-51571727D01*
X112220597Y-51570694D01*
X112226723Y-51569403D01*
X112233173Y-51567849D01*
X113167284Y-51328666D01*
X113180855Y-51324875D01*
X113195047Y-51320290D01*
X113209745Y-51314974D01*
X113224833Y-51308989D01*
X113240195Y-51302398D01*
X113255714Y-51295261D01*
X113271274Y-51287642D01*
X113286760Y-51279602D01*
X113302055Y-51271205D01*
X113317044Y-51262511D01*
X113331609Y-51253584D01*
X113345636Y-51244485D01*
X113359008Y-51235277D01*
X113371608Y-51226022D01*
X113383322Y-51216782D01*
X113394032Y-51207619D01*
X113555692Y-51062892D01*
X113565995Y-51053264D01*
X113576514Y-51042659D01*
X113587173Y-51031184D01*
X113597895Y-51018948D01*
X113608607Y-51006059D01*
X113619230Y-50992624D01*
X113629691Y-50978752D01*
X113639912Y-50964550D01*
X113649819Y-50950126D01*
X113659336Y-50935588D01*
X113668386Y-50921045D01*
X113676894Y-50906604D01*
X113684785Y-50892373D01*
X113691981Y-50878459D01*
X113698409Y-50864972D01*
X113703991Y-50852019D01*
X114250885Y-49505025D01*
X114255475Y-49493017D01*
X114257365Y-49487498D01*
X114258989Y-49482305D01*
X114260349Y-49477438D01*
X114261449Y-49472902D01*
X114262291Y-49468696D01*
X114262878Y-49464823D01*
X114263213Y-49461284D01*
X114263298Y-49458082D01*
X114263137Y-49455219D01*
X114262731Y-49452696D01*
X114262084Y-49450514D01*
X114261199Y-49448676D01*
X114260077Y-49447184D01*
X114258723Y-49446039D01*
X114257139Y-49445244D01*
X114255327Y-49444799D01*
X114253291Y-49444707D01*
X114251032Y-49444970D01*
X114248555Y-49445590D01*
X114245861Y-49446568D01*
X114242953Y-49447905D01*
X114239834Y-49449605D01*
X114236508Y-49451669D01*
X114232976Y-49454098D01*
X114229241Y-49456894D01*
X114225306Y-49460059D01*
X114221175Y-49463596D01*
X114216849Y-49467505D01*
X114207625Y-49476450D01*
X112198115Y-51506598D01*
X112193511Y-51511375D01*
X112189297Y-51516007D01*
X112185471Y-51520490D01*
X112182030Y-51524819D01*
X112178973Y-51528990D01*
X112176297Y-51533000D01*
X112173999Y-51536845D01*
X112172079Y-51540520D01*
X112170532Y-51544023D01*
X112169358Y-51547348D01*
X112168554Y-51550493D01*
X112168117Y-51553453D01*
X112168046Y-51556224D01*
X111888449Y-51556224D01*
X111889500Y-51553542D01*
X111891267Y-51548098D01*
X111892733Y-51542474D01*
X111893891Y-51536677D01*
X111894735Y-51530713D01*
X111895256Y-51524591D01*
X111895448Y-51518317D01*
X111895304Y-51511900D01*
X111894816Y-51505345D01*
X111893977Y-51498660D01*
X111885472Y-51442059D01*
X112062133Y-51442059D01*
X112062205Y-51446940D01*
X112062511Y-51451482D01*
X112063047Y-51455684D01*
X112063808Y-51459544D01*
X112064789Y-51463060D01*
X112065986Y-51466228D01*
X112067396Y-51469047D01*
X112069013Y-51471514D01*
X112070834Y-51473627D01*
X112072853Y-51475384D01*
X112075067Y-51476783D01*
X112077471Y-51477821D01*
X112080062Y-51478495D01*
X112082834Y-51478804D01*
X112085783Y-51478746D01*
X112088905Y-51478317D01*
X112092196Y-51477516D01*
X112095651Y-51476341D01*
X112099266Y-51474788D01*
X112103037Y-51472856D01*
X112106959Y-51470543D01*
X112111027Y-51467846D01*
X112115239Y-51464763D01*
X112119589Y-51461291D01*
X112124072Y-51457428D01*
X112128686Y-51453173D01*
X112133424Y-51448522D01*
X114160265Y-49401441D01*
X114169109Y-49392137D01*
X114176452Y-49383588D01*
X114179566Y-49379604D01*
X114182310Y-49375817D01*
X114184687Y-49372231D01*
X114186699Y-49368848D01*
X114188347Y-49365671D01*
X114189633Y-49362703D01*
X114190559Y-49359947D01*
X114191128Y-49357406D01*
X114191341Y-49355083D01*
X114191201Y-49352981D01*
X114190708Y-49351102D01*
X114189865Y-49349450D01*
X114188675Y-49348028D01*
X114187138Y-49346837D01*
X114185257Y-49345882D01*
X114183034Y-49345165D01*
X114180470Y-49344689D01*
X114177568Y-49344458D01*
X114174330Y-49344473D01*
X114170757Y-49344737D01*
X114166852Y-49345255D01*
X114162616Y-49346028D01*
X114158052Y-49347060D01*
X114153160Y-49348353D01*
X114142406Y-49351735D01*
X114130367Y-49356197D01*
X112446691Y-50022815D01*
X112434039Y-50028440D01*
X112421485Y-50035231D01*
X112409105Y-50043098D01*
X112396976Y-50051948D01*
X112385173Y-50061690D01*
X112373772Y-50072231D01*
X112362850Y-50083479D01*
X112352482Y-50095344D01*
X112342746Y-50107732D01*
X112333717Y-50120553D01*
X112325471Y-50133714D01*
X112318085Y-50147124D01*
X112311634Y-50160690D01*
X112306195Y-50174320D01*
X112301844Y-50187924D01*
X112298657Y-50201409D01*
X112065426Y-51412671D01*
X112064265Y-51419206D01*
X112063360Y-51425415D01*
X112062706Y-51431294D01*
X112062298Y-51436844D01*
X112062133Y-51442059D01*
X111885472Y-51442059D01*
X111692893Y-50160398D01*
X111691783Y-50153824D01*
X111690467Y-50147597D01*
X111688951Y-50141718D01*
X111687241Y-50136190D01*
X111685346Y-50131014D01*
X111683272Y-50126192D01*
X111681025Y-50121726D01*
X111678612Y-50117618D01*
X111676040Y-50113870D01*
X111673315Y-50110483D01*
X111670445Y-50107460D01*
X111667436Y-50104802D01*
X111664295Y-50102510D01*
X111661029Y-50100588D01*
X111657644Y-50099036D01*
X111654148Y-50097857D01*
X111650546Y-50097053D01*
X111646846Y-50096624D01*
X111643055Y-50096574D01*
X111639179Y-50096903D01*
X111635225Y-50097615D01*
X111631200Y-50098710D01*
X111627110Y-50100190D01*
X111622962Y-50102058D01*
X111618764Y-50104314D01*
X111614521Y-50106962D01*
X111610241Y-50110003D01*
X111605930Y-50113438D01*
X111601595Y-50117269D01*
X111597243Y-50121499D01*
X111592881Y-50126130D01*
X111588515Y-50131162D01*
X110577939Y-51341366D01*
X110573770Y-51346591D01*
X110569994Y-51351795D01*
X110566608Y-51356970D01*
X110563607Y-51362108D01*
X110560990Y-51367202D01*
X110558754Y-51372243D01*
X110556895Y-51377225D01*
X110555410Y-51382140D01*
X110554297Y-51386980D01*
X110553552Y-51391738D01*
X110553173Y-51396406D01*
X110553157Y-51400976D01*
X110381402Y-51400976D01*
X110387759Y-51397646D01*
X110401915Y-51389456D01*
X110415542Y-51380764D01*
X110428528Y-51371626D01*
X110440762Y-51362095D01*
X110452133Y-51352229D01*
X110462530Y-51342082D01*
X110471841Y-51331709D01*
X111509786Y-50088463D01*
X111776200Y-50088463D01*
X111776356Y-50094820D01*
X111776851Y-50101338D01*
X111777692Y-50108010D01*
X111953375Y-51275088D01*
X111955514Y-51287743D01*
X111957847Y-51298720D01*
X111959079Y-51303579D01*
X111960351Y-51308019D01*
X111961660Y-51312039D01*
X111963003Y-51315639D01*
X111964378Y-51318820D01*
X111965782Y-51321580D01*
X111967211Y-51323921D01*
X111968663Y-51325842D01*
X111970134Y-51327344D01*
X111971623Y-51328425D01*
X111973126Y-51329086D01*
X111974641Y-51329327D01*
X111976164Y-51329148D01*
X111977693Y-51328549D01*
X111979224Y-51327529D01*
X111980756Y-51326089D01*
X111982284Y-51324229D01*
X111983807Y-51321949D01*
X111985321Y-51319248D01*
X111986824Y-51316127D01*
X111988313Y-51312585D01*
X111989784Y-51308622D01*
X111991235Y-51304239D01*
X111992663Y-51299436D01*
X111995439Y-51288566D01*
X111998090Y-51276013D01*
X112204729Y-50204187D01*
X112205842Y-50197482D01*
X112206606Y-50190795D01*
X112207028Y-50184134D01*
X112207113Y-50177510D01*
X112206870Y-50170933D01*
X112206304Y-50164413D01*
X112205422Y-50157960D01*
X112204231Y-50151584D01*
X112202738Y-50145295D01*
X112200948Y-50139102D01*
X112198870Y-50133016D01*
X112196509Y-50127047D01*
X112193872Y-50121205D01*
X112190966Y-50115499D01*
X112187797Y-50109940D01*
X112184373Y-50104538D01*
X112180699Y-50099302D01*
X112176783Y-50094243D01*
X112172631Y-50089371D01*
X112168250Y-50084695D01*
X112163646Y-50080226D01*
X112158826Y-50075973D01*
X112153797Y-50071947D01*
X112148565Y-50068158D01*
X112143138Y-50064615D01*
X112137521Y-50061328D01*
X112131722Y-50058308D01*
X112125746Y-50055564D01*
X112119602Y-50053107D01*
X112113295Y-50050946D01*
X112106831Y-50049092D01*
X112100219Y-50047553D01*
X111887626Y-50003897D01*
X111881007Y-50002700D01*
X111874522Y-50001856D01*
X111868179Y-50001359D01*
X111861985Y-50001203D01*
X111855948Y-50001381D01*
X111850073Y-50001885D01*
X111844369Y-50002710D01*
X111838842Y-50003850D01*
X111833499Y-50005296D01*
X111828348Y-50007042D01*
X111823395Y-50009083D01*
X111818647Y-50011411D01*
X111814112Y-50014019D01*
X111809796Y-50016901D01*
X111805707Y-50020050D01*
X111801852Y-50023460D01*
X111798237Y-50027123D01*
X111794870Y-50031034D01*
X111791758Y-50035185D01*
X111788908Y-50039571D01*
X111786326Y-50044183D01*
X111784021Y-50049016D01*
X111781998Y-50054063D01*
X111780266Y-50059317D01*
X111778830Y-50064772D01*
X111777699Y-50070420D01*
X111776879Y-50076256D01*
X111776377Y-50082272D01*
X111776200Y-50088463D01*
X111509786Y-50088463D01*
X111600157Y-49980217D01*
X111609454Y-49970015D01*
X111619811Y-49960369D01*
X111631116Y-49951318D01*
X111643261Y-49942901D01*
X111656136Y-49935155D01*
X111669630Y-49928121D01*
X111683633Y-49921835D01*
X111698036Y-49916337D01*
X111712730Y-49911665D01*
X111727603Y-49907859D01*
X111742546Y-49904955D01*
X111757450Y-49902994D01*
X111772204Y-49902013D01*
X111786698Y-49902052D01*
X111800824Y-49903148D01*
X111814470Y-49905340D01*
X112148109Y-49974000D01*
X112161932Y-49976466D01*
X112176622Y-49978368D01*
X112192052Y-49979716D01*
X112208089Y-49980521D01*
X112224605Y-49980796D01*
X112241469Y-49980550D01*
X112258551Y-49979797D01*
X112275721Y-49978547D01*
X112292849Y-49976812D01*
X112309806Y-49974603D01*
X112326461Y-49971932D01*
X112342683Y-49968809D01*
X112358344Y-49965247D01*
X112373313Y-49961257D01*
X112387459Y-49956851D01*
X112400654Y-49952039D01*
X114383045Y-49168343D01*
X114389292Y-49166013D01*
X114395331Y-49164029D01*
X114401156Y-49162386D01*
X114406764Y-49161081D01*
X114412149Y-49160108D01*
X114417307Y-49159463D01*
X114422233Y-49159141D01*
X114426922Y-49159137D01*
X114431370Y-49159446D01*
G37*
G36*
X118464241Y-54368200D02*
G01*
X118693371Y-54368200D01*
X118698111Y-54368329D01*
X118702779Y-54368713D01*
X118707367Y-54369344D01*
X118711870Y-54370214D01*
X118716280Y-54371318D01*
X118720593Y-54372648D01*
X118724801Y-54374197D01*
X118728899Y-54375957D01*
X118732879Y-54377923D01*
X118736737Y-54380086D01*
X118740464Y-54382440D01*
X118744056Y-54384978D01*
X118747505Y-54387692D01*
X118750806Y-54390576D01*
X118753952Y-54393622D01*
X118756936Y-54396824D01*
X118759754Y-54400174D01*
X118762397Y-54403666D01*
X118764861Y-54407292D01*
X118767138Y-54411046D01*
X118769223Y-54414919D01*
X118771109Y-54418906D01*
X118772789Y-54422999D01*
X118774258Y-54427191D01*
X118775510Y-54431475D01*
X118776537Y-54435844D01*
X118777333Y-54440292D01*
X118777893Y-54444810D01*
X118778210Y-54449391D01*
X118778278Y-54454030D01*
X118778090Y-54458719D01*
X118777640Y-54463450D01*
X118749793Y-54663088D01*
X118715077Y-54861302D01*
X118673505Y-55058006D01*
X118625091Y-55253115D01*
X118569851Y-55446543D01*
X118507796Y-55638206D01*
X118438942Y-55828017D01*
X118363303Y-56015892D01*
X118306855Y-56145011D01*
X118247458Y-56272450D01*
X118185127Y-56398183D01*
X118119882Y-56522184D01*
X118051740Y-56644429D01*
X117980717Y-56764892D01*
X117906832Y-56883549D01*
X117830102Y-57000373D01*
X117750544Y-57115340D01*
X117668175Y-57228425D01*
X117583014Y-57339602D01*
X117495077Y-57448846D01*
X117404383Y-57556132D01*
X117310947Y-57661435D01*
X117214789Y-57764729D01*
X117115925Y-57865990D01*
X117014688Y-57964876D01*
X116911413Y-58061050D01*
X116806127Y-58154497D01*
X116698855Y-58245198D01*
X116589622Y-58333137D01*
X116478453Y-58418298D01*
X116365373Y-58500663D01*
X116250407Y-58580216D01*
X116133582Y-58656940D01*
X116014921Y-58730817D01*
X115894450Y-58801832D01*
X115772194Y-58869966D01*
X115648178Y-58935204D01*
X115522429Y-58997528D01*
X115394970Y-59056922D01*
X115265827Y-59113368D01*
X115130743Y-59168517D01*
X114994642Y-59220156D01*
X114857556Y-59268278D01*
X114719516Y-59312876D01*
X114580553Y-59353945D01*
X114440700Y-59391477D01*
X114299987Y-59425466D01*
X114158446Y-59455904D01*
X114016108Y-59482787D01*
X113873004Y-59506106D01*
X113729167Y-59525856D01*
X113584627Y-59542030D01*
X113439415Y-59554621D01*
X113293564Y-59563623D01*
X113147104Y-59569029D01*
X113000067Y-59570833D01*
X112853030Y-59569029D01*
X112706570Y-59563623D01*
X112560718Y-59554621D01*
X112415505Y-59542028D01*
X112270963Y-59525852D01*
X112127122Y-59506100D01*
X111984015Y-59482776D01*
X111841672Y-59455888D01*
X111700123Y-59425442D01*
X111559402Y-59391445D01*
X111419538Y-59353902D01*
X111280563Y-59312821D01*
X111142508Y-59268207D01*
X111005404Y-59220068D01*
X110869283Y-59168408D01*
X110734176Y-59113236D01*
X110605054Y-59056788D01*
X110477612Y-58997391D01*
X110351873Y-58935060D01*
X110227864Y-58869815D01*
X110105611Y-58801673D01*
X109985140Y-58730650D01*
X109866475Y-58656765D01*
X109749644Y-58580035D01*
X109634672Y-58500477D01*
X109521584Y-58418108D01*
X109410407Y-58332947D01*
X109301165Y-58245010D01*
X109193886Y-58154316D01*
X109088594Y-58060880D01*
X108985316Y-57964722D01*
X108884077Y-57865858D01*
X108785213Y-57764621D01*
X108689054Y-57661346D01*
X108595619Y-57556060D01*
X108504925Y-57448788D01*
X108416988Y-57339555D01*
X108331827Y-57228386D01*
X108249458Y-57115306D01*
X108169900Y-57000340D01*
X108093170Y-56883515D01*
X108019284Y-56764854D01*
X107948262Y-56644383D01*
X107880119Y-56522127D01*
X107814874Y-56398111D01*
X107752544Y-56272362D01*
X107693146Y-56144903D01*
X107636699Y-56015760D01*
X107561059Y-55827885D01*
X107492205Y-55638073D01*
X107430151Y-55446411D01*
X107374910Y-55252983D01*
X107326497Y-55057874D01*
X107284925Y-54861170D01*
X107250208Y-54662956D01*
X107222361Y-54463317D01*
X107221911Y-54458597D01*
X107221723Y-54453919D01*
X107221791Y-54449289D01*
X107222108Y-54444715D01*
X107222668Y-54440203D01*
X107223464Y-54435761D01*
X107224492Y-54431396D01*
X107225743Y-54427114D01*
X107227212Y-54422924D01*
X107228892Y-54418832D01*
X107230778Y-54414845D01*
X107232863Y-54410971D01*
X107235140Y-54407217D01*
X107237604Y-54403589D01*
X107240247Y-54400094D01*
X107243065Y-54396741D01*
X107246049Y-54393536D01*
X107249195Y-54390486D01*
X107252496Y-54387598D01*
X107255946Y-54384880D01*
X107259537Y-54382338D01*
X107263265Y-54379980D01*
X107267122Y-54377813D01*
X107271102Y-54375843D01*
X107275200Y-54374079D01*
X107279408Y-54372527D01*
X107283721Y-54371194D01*
X107288132Y-54370087D01*
X107292634Y-54369214D01*
X107297223Y-54368581D01*
X107301890Y-54368197D01*
X107306631Y-54368067D01*
X107536025Y-54368067D01*
X107539986Y-54368158D01*
X107543907Y-54368429D01*
X107547781Y-54368877D01*
X107551604Y-54369497D01*
X107555372Y-54370285D01*
X107559081Y-54371239D01*
X107562726Y-54372353D01*
X107566303Y-54373625D01*
X107569807Y-54375051D01*
X107573233Y-54376627D01*
X107576577Y-54378349D01*
X107579836Y-54380213D01*
X107583004Y-54382216D01*
X107586076Y-54384353D01*
X107589049Y-54386622D01*
X107591918Y-54389019D01*
X107594678Y-54391539D01*
X107597325Y-54394178D01*
X107599855Y-54396934D01*
X107602263Y-54399803D01*
X107604545Y-54402780D01*
X107606696Y-54405862D01*
X107608712Y-54409044D01*
X107610587Y-54412325D01*
X107612319Y-54415699D01*
X107613902Y-54419162D01*
X107615332Y-54422712D01*
X107616605Y-54426344D01*
X107617715Y-54430055D01*
X107618659Y-54433841D01*
X107619432Y-54437697D01*
X107620030Y-54441621D01*
X107657611Y-54689705D01*
X107706303Y-54934014D01*
X107765838Y-55174278D01*
X107835945Y-55410229D01*
X107916357Y-55641597D01*
X108006805Y-55868114D01*
X108107019Y-56089511D01*
X108216731Y-56305520D01*
X108335672Y-56515870D01*
X108463573Y-56720294D01*
X108600165Y-56918522D01*
X108745180Y-57110286D01*
X108898347Y-57295316D01*
X109059400Y-57473345D01*
X109228067Y-57644102D01*
X109404082Y-57807319D01*
X109587175Y-57962728D01*
X109777076Y-58110059D01*
X109973517Y-58249043D01*
X110176230Y-58379412D01*
X110384945Y-58500896D01*
X110599394Y-58613227D01*
X110819307Y-58716136D01*
X111044416Y-58809354D01*
X111274452Y-58892613D01*
X111509145Y-58965642D01*
X111748228Y-59028174D01*
X111991431Y-59079939D01*
X112238485Y-59120669D01*
X112489122Y-59150095D01*
X112743072Y-59167948D01*
X113000067Y-59173958D01*
X113257062Y-59167948D01*
X113511012Y-59150095D01*
X113761649Y-59120669D01*
X114008703Y-59079939D01*
X114251906Y-59028174D01*
X114490989Y-58965642D01*
X114725684Y-58892613D01*
X114955720Y-58809354D01*
X115180830Y-58716136D01*
X115400744Y-58613227D01*
X115615194Y-58500896D01*
X115823911Y-58379412D01*
X116026625Y-58249043D01*
X116223069Y-58110059D01*
X116412973Y-57962728D01*
X116596068Y-57807319D01*
X116772086Y-57644102D01*
X116940758Y-57473345D01*
X117101814Y-57295316D01*
X117254986Y-57110286D01*
X117400006Y-56918522D01*
X117536604Y-56720294D01*
X117664511Y-56515870D01*
X117783458Y-56305519D01*
X117893178Y-56089511D01*
X117993400Y-55868114D01*
X118083856Y-55641597D01*
X118164277Y-55410228D01*
X118234395Y-55174277D01*
X118293940Y-54934013D01*
X118342643Y-54689705D01*
X118380236Y-54441620D01*
X118380822Y-54437697D01*
X118381585Y-54433840D01*
X118382520Y-54430054D01*
X118383623Y-54426344D01*
X118384890Y-54422711D01*
X118386315Y-54419162D01*
X118387894Y-54415698D01*
X118389623Y-54412324D01*
X118391497Y-54409044D01*
X118393511Y-54405861D01*
X118395662Y-54402779D01*
X118397944Y-54399802D01*
X118400354Y-54396934D01*
X118402885Y-54394178D01*
X118405535Y-54391538D01*
X118408298Y-54389018D01*
X118411171Y-54386622D01*
X118414147Y-54384353D01*
X118417223Y-54382215D01*
X118420395Y-54380212D01*
X118423658Y-54378348D01*
X118427006Y-54376626D01*
X118430437Y-54375050D01*
X118433944Y-54373625D01*
X118437525Y-54372352D01*
X118441173Y-54371238D01*
X118444885Y-54370284D01*
X118448657Y-54369496D01*
X118452482Y-54368876D01*
X118456358Y-54368429D01*
X118460279Y-54368157D01*
X118464241Y-54368066D01*
X118464241Y-54368200D01*
G37*
D10*
X116788094Y-48909656D02*
X116930951Y-48957275D01*
X116930951Y-48957275D02*
X117169046Y-48957275D01*
X117169046Y-48957275D02*
X117264284Y-48909656D01*
X117264284Y-48909656D02*
X117311903Y-48862036D01*
X117311903Y-48862036D02*
X117359522Y-48766798D01*
X117359522Y-48766798D02*
X117359522Y-48671560D01*
X117359522Y-48671560D02*
X117311903Y-48576322D01*
X117311903Y-48576322D02*
X117264284Y-48528703D01*
X117264284Y-48528703D02*
X117169046Y-48481084D01*
X117169046Y-48481084D02*
X116978570Y-48433465D01*
X116978570Y-48433465D02*
X116883332Y-48385846D01*
X116883332Y-48385846D02*
X116835713Y-48338227D01*
X116835713Y-48338227D02*
X116788094Y-48242989D01*
X116788094Y-48242989D02*
X116788094Y-48147751D01*
X116788094Y-48147751D02*
X116835713Y-48052513D01*
X116835713Y-48052513D02*
X116883332Y-48004894D01*
X116883332Y-48004894D02*
X116978570Y-47957275D01*
X116978570Y-47957275D02*
X117216665Y-47957275D01*
X117216665Y-47957275D02*
X117359522Y-48004894D01*
X117788094Y-48290608D02*
X117788094Y-49290608D01*
X117788094Y-48338227D02*
X117883332Y-48290608D01*
X117883332Y-48290608D02*
X118073808Y-48290608D01*
X118073808Y-48290608D02*
X118169046Y-48338227D01*
X118169046Y-48338227D02*
X118216665Y-48385846D01*
X118216665Y-48385846D02*
X118264284Y-48481084D01*
X118264284Y-48481084D02*
X118264284Y-48766798D01*
X118264284Y-48766798D02*
X118216665Y-48862036D01*
X118216665Y-48862036D02*
X118169046Y-48909656D01*
X118169046Y-48909656D02*
X118073808Y-48957275D01*
X118073808Y-48957275D02*
X117883332Y-48957275D01*
X117883332Y-48957275D02*
X117788094Y-48909656D01*
X119121427Y-48957275D02*
X119121427Y-48433465D01*
X119121427Y-48433465D02*
X119073808Y-48338227D01*
X119073808Y-48338227D02*
X118978570Y-48290608D01*
X118978570Y-48290608D02*
X118788094Y-48290608D01*
X118788094Y-48290608D02*
X118692856Y-48338227D01*
X119121427Y-48909656D02*
X119026189Y-48957275D01*
X119026189Y-48957275D02*
X118788094Y-48957275D01*
X118788094Y-48957275D02*
X118692856Y-48909656D01*
X118692856Y-48909656D02*
X118645237Y-48814417D01*
X118645237Y-48814417D02*
X118645237Y-48719179D01*
X118645237Y-48719179D02*
X118692856Y-48623941D01*
X118692856Y-48623941D02*
X118788094Y-48576322D01*
X118788094Y-48576322D02*
X119026189Y-48576322D01*
X119026189Y-48576322D02*
X119121427Y-48528703D01*
X119597618Y-48957275D02*
X119597618Y-48290608D01*
X119597618Y-48481084D02*
X119645237Y-48385846D01*
X119645237Y-48385846D02*
X119692856Y-48338227D01*
X119692856Y-48338227D02*
X119788094Y-48290608D01*
X119788094Y-48290608D02*
X119883332Y-48290608D01*
X120216666Y-48957275D02*
X120216666Y-48290608D01*
X120216666Y-48481084D02*
X120264285Y-48385846D01*
X120264285Y-48385846D02*
X120311904Y-48338227D01*
X120311904Y-48338227D02*
X120407142Y-48290608D01*
X120407142Y-48290608D02*
X120502380Y-48290608D01*
X120978571Y-48957275D02*
X120883333Y-48909656D01*
X120883333Y-48909656D02*
X120835714Y-48862036D01*
X120835714Y-48862036D02*
X120788095Y-48766798D01*
X120788095Y-48766798D02*
X120788095Y-48481084D01*
X120788095Y-48481084D02*
X120835714Y-48385846D01*
X120835714Y-48385846D02*
X120883333Y-48338227D01*
X120883333Y-48338227D02*
X120978571Y-48290608D01*
X120978571Y-48290608D02*
X121121428Y-48290608D01*
X121121428Y-48290608D02*
X121216666Y-48338227D01*
X121216666Y-48338227D02*
X121264285Y-48385846D01*
X121264285Y-48385846D02*
X121311904Y-48481084D01*
X121311904Y-48481084D02*
X121311904Y-48766798D01*
X121311904Y-48766798D02*
X121264285Y-48862036D01*
X121264285Y-48862036D02*
X121216666Y-48909656D01*
X121216666Y-48909656D02*
X121121428Y-48957275D01*
X121121428Y-48957275D02*
X120978571Y-48957275D01*
X121645238Y-48290608D02*
X121835714Y-48957275D01*
X121835714Y-48957275D02*
X122026190Y-48481084D01*
X122026190Y-48481084D02*
X122216666Y-48957275D01*
X122216666Y-48957275D02*
X122407142Y-48290608D01*
X122645238Y-47957275D02*
X123216666Y-47957275D01*
X122930952Y-48957275D02*
X122930952Y-47957275D01*
X123550000Y-48957275D02*
X123550000Y-47957275D01*
X123978571Y-48957275D02*
X123978571Y-48433465D01*
X123978571Y-48433465D02*
X123930952Y-48338227D01*
X123930952Y-48338227D02*
X123835714Y-48290608D01*
X123835714Y-48290608D02*
X123692857Y-48290608D01*
X123692857Y-48290608D02*
X123597619Y-48338227D01*
X123597619Y-48338227D02*
X123550000Y-48385846D01*
X124835714Y-48909656D02*
X124740476Y-48957275D01*
X124740476Y-48957275D02*
X124550000Y-48957275D01*
X124550000Y-48957275D02*
X124454762Y-48909656D01*
X124454762Y-48909656D02*
X124407143Y-48814417D01*
X124407143Y-48814417D02*
X124407143Y-48433465D01*
X124407143Y-48433465D02*
X124454762Y-48338227D01*
X124454762Y-48338227D02*
X124550000Y-48290608D01*
X124550000Y-48290608D02*
X124740476Y-48290608D01*
X124740476Y-48290608D02*
X124835714Y-48338227D01*
X124835714Y-48338227D02*
X124883333Y-48433465D01*
X124883333Y-48433465D02*
X124883333Y-48528703D01*
X124883333Y-48528703D02*
X124407143Y-48623941D01*
X125311905Y-48957275D02*
X125311905Y-47957275D01*
X125311905Y-47957275D02*
X125883333Y-48957275D01*
X125883333Y-48957275D02*
X125883333Y-47957275D01*
X126740476Y-48909656D02*
X126645238Y-48957275D01*
X126645238Y-48957275D02*
X126454762Y-48957275D01*
X126454762Y-48957275D02*
X126359524Y-48909656D01*
X126359524Y-48909656D02*
X126311905Y-48814417D01*
X126311905Y-48814417D02*
X126311905Y-48433465D01*
X126311905Y-48433465D02*
X126359524Y-48338227D01*
X126359524Y-48338227D02*
X126454762Y-48290608D01*
X126454762Y-48290608D02*
X126645238Y-48290608D01*
X126645238Y-48290608D02*
X126740476Y-48338227D01*
X126740476Y-48338227D02*
X126788095Y-48433465D01*
X126788095Y-48433465D02*
X126788095Y-48528703D01*
X126788095Y-48528703D02*
X126311905Y-48623941D01*
X127216667Y-48957275D02*
X127216667Y-48290608D01*
X127216667Y-48481084D02*
X127264286Y-48385846D01*
X127264286Y-48385846D02*
X127311905Y-48338227D01*
X127311905Y-48338227D02*
X127407143Y-48290608D01*
X127407143Y-48290608D02*
X127502381Y-48290608D01*
X128264286Y-48957275D02*
X128264286Y-47957275D01*
X128264286Y-48909656D02*
X128169048Y-48957275D01*
X128169048Y-48957275D02*
X127978572Y-48957275D01*
X127978572Y-48957275D02*
X127883334Y-48909656D01*
X127883334Y-48909656D02*
X127835715Y-48862036D01*
X127835715Y-48862036D02*
X127788096Y-48766798D01*
X127788096Y-48766798D02*
X127788096Y-48481084D01*
X127788096Y-48481084D02*
X127835715Y-48385846D01*
X127835715Y-48385846D02*
X127883334Y-48338227D01*
X127883334Y-48338227D02*
X127978572Y-48290608D01*
X127978572Y-48290608D02*
X128169048Y-48290608D01*
X128169048Y-48290608D02*
X128264286Y-48338227D01*
X120835714Y-49662457D02*
X120883333Y-49614838D01*
X120883333Y-49614838D02*
X120978571Y-49567219D01*
X120978571Y-49567219D02*
X121216666Y-49567219D01*
X121216666Y-49567219D02*
X121311904Y-49614838D01*
X121311904Y-49614838D02*
X121359523Y-49662457D01*
X121359523Y-49662457D02*
X121407142Y-49757695D01*
X121407142Y-49757695D02*
X121407142Y-49852933D01*
X121407142Y-49852933D02*
X121359523Y-49995790D01*
X121359523Y-49995790D02*
X120788095Y-50567219D01*
X120788095Y-50567219D02*
X121407142Y-50567219D01*
X122026190Y-49567219D02*
X122121428Y-49567219D01*
X122121428Y-49567219D02*
X122216666Y-49614838D01*
X122216666Y-49614838D02*
X122264285Y-49662457D01*
X122264285Y-49662457D02*
X122311904Y-49757695D01*
X122311904Y-49757695D02*
X122359523Y-49948171D01*
X122359523Y-49948171D02*
X122359523Y-50186266D01*
X122359523Y-50186266D02*
X122311904Y-50376742D01*
X122311904Y-50376742D02*
X122264285Y-50471980D01*
X122264285Y-50471980D02*
X122216666Y-50519600D01*
X122216666Y-50519600D02*
X122121428Y-50567219D01*
X122121428Y-50567219D02*
X122026190Y-50567219D01*
X122026190Y-50567219D02*
X121930952Y-50519600D01*
X121930952Y-50519600D02*
X121883333Y-50471980D01*
X121883333Y-50471980D02*
X121835714Y-50376742D01*
X121835714Y-50376742D02*
X121788095Y-50186266D01*
X121788095Y-50186266D02*
X121788095Y-49948171D01*
X121788095Y-49948171D02*
X121835714Y-49757695D01*
X121835714Y-49757695D02*
X121883333Y-49662457D01*
X121883333Y-49662457D02*
X121930952Y-49614838D01*
X121930952Y-49614838D02*
X122026190Y-49567219D01*
X122740476Y-49662457D02*
X122788095Y-49614838D01*
X122788095Y-49614838D02*
X122883333Y-49567219D01*
X122883333Y-49567219D02*
X123121428Y-49567219D01*
X123121428Y-49567219D02*
X123216666Y-49614838D01*
X123216666Y-49614838D02*
X123264285Y-49662457D01*
X123264285Y-49662457D02*
X123311904Y-49757695D01*
X123311904Y-49757695D02*
X123311904Y-49852933D01*
X123311904Y-49852933D02*
X123264285Y-49995790D01*
X123264285Y-49995790D02*
X122692857Y-50567219D01*
X122692857Y-50567219D02*
X123311904Y-50567219D01*
X124169047Y-49900552D02*
X124169047Y-50567219D01*
X123930952Y-49519600D02*
X123692857Y-50233885D01*
X123692857Y-50233885D02*
X124311904Y-50233885D01*
D12*
X85983082Y-54930114D02*
X86054510Y-54834876D01*
X86054510Y-54834876D02*
X86197368Y-54739638D01*
X86197368Y-54739638D02*
X86554510Y-54739638D01*
X86554510Y-54739638D02*
X86697368Y-54834876D01*
X86697368Y-54834876D02*
X86768796Y-54930114D01*
X86768796Y-54930114D02*
X86840225Y-55120590D01*
X86840225Y-55120590D02*
X86840225Y-55311066D01*
X86840225Y-55311066D02*
X86768796Y-55596780D01*
X86768796Y-55596780D02*
X85911653Y-56739638D01*
X85911653Y-56739638D02*
X86840225Y-56739638D01*
X86747368Y-65706304D02*
X86747368Y-67039638D01*
X86390225Y-64944400D02*
X86033082Y-66372971D01*
X86033082Y-66372971D02*
X86961653Y-66372971D01*
D10*
X124867219Y-70444612D02*
X125581504Y-70444612D01*
X125581504Y-70444612D02*
X125724361Y-70492231D01*
X125724361Y-70492231D02*
X125819600Y-70587469D01*
X125819600Y-70587469D02*
X125867219Y-70730326D01*
X125867219Y-70730326D02*
X125867219Y-70825564D01*
X125867219Y-69492231D02*
X125867219Y-69968421D01*
X125867219Y-69968421D02*
X124867219Y-69968421D01*
X125771980Y-68587469D02*
X125819600Y-68635088D01*
X125819600Y-68635088D02*
X125867219Y-68777945D01*
X125867219Y-68777945D02*
X125867219Y-68873183D01*
X125867219Y-68873183D02*
X125819600Y-69016040D01*
X125819600Y-69016040D02*
X125724361Y-69111278D01*
X125724361Y-69111278D02*
X125629123Y-69158897D01*
X125629123Y-69158897D02*
X125438647Y-69206516D01*
X125438647Y-69206516D02*
X125295790Y-69206516D01*
X125295790Y-69206516D02*
X125105314Y-69158897D01*
X125105314Y-69158897D02*
X125010076Y-69111278D01*
X125010076Y-69111278D02*
X124914838Y-69016040D01*
X124914838Y-69016040D02*
X124867219Y-68873183D01*
X124867219Y-68873183D02*
X124867219Y-68777945D01*
X124867219Y-68777945D02*
X124914838Y-68635088D01*
X124914838Y-68635088D02*
X124962457Y-68587469D01*
X124867219Y-67873183D02*
X125581504Y-67873183D01*
X125581504Y-67873183D02*
X125724361Y-67920802D01*
X125724361Y-67920802D02*
X125819600Y-68016040D01*
X125819600Y-68016040D02*
X125867219Y-68158897D01*
X125867219Y-68158897D02*
X125867219Y-68254135D01*
X125867219Y-66920802D02*
X125867219Y-67396992D01*
X125867219Y-67396992D02*
X124867219Y-67396992D01*
X125771980Y-66016040D02*
X125819600Y-66063659D01*
X125819600Y-66063659D02*
X125867219Y-66206516D01*
X125867219Y-66206516D02*
X125867219Y-66301754D01*
X125867219Y-66301754D02*
X125819600Y-66444611D01*
X125819600Y-66444611D02*
X125724361Y-66539849D01*
X125724361Y-66539849D02*
X125629123Y-66587468D01*
X125629123Y-66587468D02*
X125438647Y-66635087D01*
X125438647Y-66635087D02*
X125295790Y-66635087D01*
X125295790Y-66635087D02*
X125105314Y-66587468D01*
X125105314Y-66587468D02*
X125010076Y-66539849D01*
X125010076Y-66539849D02*
X124914838Y-66444611D01*
X124914838Y-66444611D02*
X124867219Y-66301754D01*
X124867219Y-66301754D02*
X124867219Y-66206516D01*
X124867219Y-66206516D02*
X124914838Y-66063659D01*
X124914838Y-66063659D02*
X124962457Y-66016040D01*
X124867219Y-65301754D02*
X125581504Y-65301754D01*
X125581504Y-65301754D02*
X125724361Y-65349373D01*
X125724361Y-65349373D02*
X125819600Y-65444611D01*
X125819600Y-65444611D02*
X125867219Y-65587468D01*
X125867219Y-65587468D02*
X125867219Y-65682706D01*
X125867219Y-64349373D02*
X125867219Y-64825563D01*
X125867219Y-64825563D02*
X124867219Y-64825563D01*
X125771980Y-63444611D02*
X125819600Y-63492230D01*
X125819600Y-63492230D02*
X125867219Y-63635087D01*
X125867219Y-63635087D02*
X125867219Y-63730325D01*
X125867219Y-63730325D02*
X125819600Y-63873182D01*
X125819600Y-63873182D02*
X125724361Y-63968420D01*
X125724361Y-63968420D02*
X125629123Y-64016039D01*
X125629123Y-64016039D02*
X125438647Y-64063658D01*
X125438647Y-64063658D02*
X125295790Y-64063658D01*
X125295790Y-64063658D02*
X125105314Y-64016039D01*
X125105314Y-64016039D02*
X125010076Y-63968420D01*
X125010076Y-63968420D02*
X124914838Y-63873182D01*
X124914838Y-63873182D02*
X124867219Y-63730325D01*
X124867219Y-63730325D02*
X124867219Y-63635087D01*
X124867219Y-63635087D02*
X124914838Y-63492230D01*
X124914838Y-63492230D02*
X124962457Y-63444611D01*
X124867219Y-62730325D02*
X125581504Y-62730325D01*
X125581504Y-62730325D02*
X125724361Y-62777944D01*
X125724361Y-62777944D02*
X125819600Y-62873182D01*
X125819600Y-62873182D02*
X125867219Y-63016039D01*
X125867219Y-63016039D02*
X125867219Y-63111277D01*
X125867219Y-61777944D02*
X125867219Y-62254134D01*
X125867219Y-62254134D02*
X124867219Y-62254134D01*
X125771980Y-60873182D02*
X125819600Y-60920801D01*
X125819600Y-60920801D02*
X125867219Y-61063658D01*
X125867219Y-61063658D02*
X125867219Y-61158896D01*
X125867219Y-61158896D02*
X125819600Y-61301753D01*
X125819600Y-61301753D02*
X125724361Y-61396991D01*
X125724361Y-61396991D02*
X125629123Y-61444610D01*
X125629123Y-61444610D02*
X125438647Y-61492229D01*
X125438647Y-61492229D02*
X125295790Y-61492229D01*
X125295790Y-61492229D02*
X125105314Y-61444610D01*
X125105314Y-61444610D02*
X125010076Y-61396991D01*
X125010076Y-61396991D02*
X124914838Y-61301753D01*
X124914838Y-61301753D02*
X124867219Y-61158896D01*
X124867219Y-61158896D02*
X124867219Y-61063658D01*
X124867219Y-61063658D02*
X124914838Y-60920801D01*
X124914838Y-60920801D02*
X124962457Y-60873182D01*
D12*
X85961653Y-59889638D02*
X86890225Y-59889638D01*
X86890225Y-59889638D02*
X86390225Y-60651542D01*
X86390225Y-60651542D02*
X86604510Y-60651542D01*
X86604510Y-60651542D02*
X86747368Y-60746780D01*
X86747368Y-60746780D02*
X86818796Y-60842019D01*
X86818796Y-60842019D02*
X86890225Y-61032495D01*
X86890225Y-61032495D02*
X86890225Y-61508685D01*
X86890225Y-61508685D02*
X86818796Y-61699161D01*
X86818796Y-61699161D02*
X86747368Y-61794400D01*
X86747368Y-61794400D02*
X86604510Y-61889638D01*
X86604510Y-61889638D02*
X86175939Y-61889638D01*
X86175939Y-61889638D02*
X86033082Y-61794400D01*
X86033082Y-61794400D02*
X85961653Y-61699161D01*
X86918796Y-70189638D02*
X86204510Y-70189638D01*
X86204510Y-70189638D02*
X86133082Y-71142019D01*
X86133082Y-71142019D02*
X86204510Y-71046780D01*
X86204510Y-71046780D02*
X86347368Y-70951542D01*
X86347368Y-70951542D02*
X86704510Y-70951542D01*
X86704510Y-70951542D02*
X86847368Y-71046780D01*
X86847368Y-71046780D02*
X86918796Y-71142019D01*
X86918796Y-71142019D02*
X86990225Y-71332495D01*
X86990225Y-71332495D02*
X86990225Y-71808685D01*
X86990225Y-71808685D02*
X86918796Y-71999161D01*
X86918796Y-71999161D02*
X86847368Y-72094400D01*
X86847368Y-72094400D02*
X86704510Y-72189638D01*
X86704510Y-72189638D02*
X86347368Y-72189638D01*
X86347368Y-72189638D02*
X86204510Y-72094400D01*
X86204510Y-72094400D02*
X86133082Y-71999161D01*
X86940225Y-51589638D02*
X86083082Y-51589638D01*
X86511653Y-51589638D02*
X86511653Y-49589638D01*
X86511653Y-49589638D02*
X86368796Y-49875352D01*
X86368796Y-49875352D02*
X86225939Y-50065828D01*
X86225939Y-50065828D02*
X86083082Y-50161066D01*
X86947368Y-73900828D02*
X86661653Y-73900828D01*
X86661653Y-73900828D02*
X86518796Y-73972257D01*
X86518796Y-73972257D02*
X86447368Y-74043685D01*
X86447368Y-74043685D02*
X86304510Y-74257971D01*
X86304510Y-74257971D02*
X86233082Y-74543685D01*
X86233082Y-74543685D02*
X86233082Y-75115114D01*
X86233082Y-75115114D02*
X86304510Y-75257971D01*
X86304510Y-75257971D02*
X86375939Y-75329400D01*
X86375939Y-75329400D02*
X86518796Y-75400828D01*
X86518796Y-75400828D02*
X86804510Y-75400828D01*
X86804510Y-75400828D02*
X86947368Y-75329400D01*
X86947368Y-75329400D02*
X87018796Y-75257971D01*
X87018796Y-75257971D02*
X87090225Y-75115114D01*
X87090225Y-75115114D02*
X87090225Y-74757971D01*
X87090225Y-74757971D02*
X87018796Y-74615114D01*
X87018796Y-74615114D02*
X86947368Y-74543685D01*
X86947368Y-74543685D02*
X86804510Y-74472257D01*
X86804510Y-74472257D02*
X86518796Y-74472257D01*
X86518796Y-74472257D02*
X86375939Y-74543685D01*
X86375939Y-74543685D02*
X86304510Y-74615114D01*
X86304510Y-74615114D02*
X86233082Y-74757971D01*
D13*
X107869048Y-65973866D02*
X108630953Y-65973866D01*
X108250000Y-66354819D02*
X108250000Y-65592914D01*
D14*
X78840000Y-48019000D02*
X85160000Y-48019000D01*
X78840000Y-79080000D02*
X78840000Y-48019000D01*
X78840000Y-79080000D02*
X85160000Y-79080000D01*
X79300000Y-79080000D02*
X79300000Y-48019000D01*
X84600000Y-79080000D02*
X84600000Y-48019000D01*
X84660000Y-79320000D02*
X85400000Y-79320000D01*
X85160000Y-79080000D02*
X85160000Y-48019000D01*
X85400000Y-79320000D02*
X85400000Y-78820000D01*
X110090000Y-71550000D02*
X110090000Y-73250000D01*
X110090000Y-71550000D02*
X112750000Y-71550000D01*
X110090000Y-73250000D02*
X112750000Y-73250000D01*
X96537258Y-71577500D02*
X96062742Y-71577500D01*
X96537258Y-72622500D02*
X96062742Y-72622500D01*
X108990000Y-74809420D02*
X108990000Y-75090580D01*
X110010000Y-74809420D02*
X110010000Y-75090580D01*
X105777500Y-47837742D02*
X105777500Y-48312258D01*
X106822500Y-47837742D02*
X106822500Y-48312258D01*
X102659420Y-73590000D02*
X102940580Y-73590000D01*
X102659420Y-74610000D02*
X102940580Y-74610000D01*
X94740000Y-58340000D02*
X95690000Y-58340000D01*
X94740000Y-59290000D02*
X94740000Y-58340000D01*
X94740000Y-67610000D02*
X94740000Y-68560000D01*
X94740000Y-68560000D02*
X95690000Y-68560000D01*
X104960000Y-58340000D02*
X104010000Y-58340000D01*
X104960000Y-59290000D02*
X104960000Y-58340000D01*
X104960000Y-67610000D02*
X104960000Y-68560000D01*
X104960000Y-68560000D02*
X104010000Y-68560000D01*
X104480000Y-58065000D02*
X104010000Y-57725000D01*
X104480000Y-57385000D01*
X104480000Y-58065000D01*
G36*
X104480000Y-58065000D02*
G01*
X104010000Y-57725000D01*
X104480000Y-57385000D01*
X104480000Y-58065000D01*
G37*
X111415000Y-74790000D02*
X112075000Y-74790000D01*
X111415000Y-76520000D02*
X111415000Y-74790000D01*
X111415000Y-79090000D02*
X111415000Y-78880000D01*
X113465000Y-74090000D02*
X113465000Y-74480000D01*
X113465000Y-74090000D02*
X113915000Y-74090000D01*
X119035000Y-74790000D02*
X118385000Y-74790000D01*
X119035000Y-76520000D02*
X119035000Y-74790000D01*
X119035000Y-79090000D02*
X119035000Y-78880000D01*
X91790000Y-66840580D02*
X91790000Y-66559420D01*
X92810000Y-66840580D02*
X92810000Y-66559420D01*
X91790000Y-69659420D02*
X91790000Y-69940580D01*
X92810000Y-69659420D02*
X92810000Y-69940580D01*
D15*
X104821400Y-73173600D02*
X104821400Y-73640259D01*
X104821400Y-76059741D02*
X104821400Y-76526400D01*
X104821400Y-76526400D02*
X108174200Y-76526400D01*
X108174200Y-73173600D02*
X104821400Y-73173600D01*
X108174200Y-73640259D02*
X108174200Y-73173600D01*
X108174200Y-76526400D02*
X108174200Y-76059741D01*
X109004400Y-75600000D02*
G75*
G02*
X108801200Y-75600000I-101600J0D01*
G01*
X108801200Y-75600000D02*
G75*
G02*
X109004400Y-75600000I101600J0D01*
G01*
D14*
X87435436Y-75890000D02*
X91789564Y-75890000D01*
X87435436Y-79310000D02*
X91789564Y-79310000D01*
X118952500Y-71915000D02*
X118952500Y-73385000D01*
X118952500Y-73385000D02*
X121237500Y-73385000D01*
X121237500Y-71915000D02*
X118952500Y-71915000D01*
X107577500Y-60637258D02*
X107577500Y-60162742D01*
X108622500Y-60637258D02*
X108622500Y-60162742D01*
X99465580Y-55340000D02*
X99184420Y-55340000D01*
X99465580Y-56360000D02*
X99184420Y-56360000D01*
X101165000Y-55055000D02*
X101165000Y-55395000D01*
X102205000Y-54115000D02*
X102845000Y-54115000D01*
X102205000Y-56335000D02*
X102845000Y-56335000D01*
X103885000Y-55065000D02*
X103885000Y-55395000D01*
X104085000Y-54845000D02*
X104085000Y-54155000D01*
X104084999Y-54845000D02*
G75*
G02*
X103885000Y-55065000I-320001J90001D01*
G01*
X116500000Y-65900000D02*
G75*
G02*
X107000000Y-65900000I-4750000J0D01*
G01*
X107000000Y-65900000D02*
G75*
G02*
X116500000Y-65900000I4750000J0D01*
G01*
X107009420Y-71690000D02*
X107290580Y-71690000D01*
X107009420Y-72710000D02*
X107290580Y-72710000D01*
X93327500Y-72062742D02*
X93327500Y-72537258D01*
X94372500Y-72062742D02*
X94372500Y-72537258D01*
X97390000Y-51509420D02*
X97390000Y-51790580D01*
X98410000Y-51509420D02*
X98410000Y-51790580D01*
X93880000Y-80025000D02*
X93880000Y-75384000D01*
X97149000Y-80025000D02*
X97149000Y-78515000D01*
X100850000Y-80025000D02*
X100850000Y-78515000D01*
X104120000Y-75384000D02*
X93880000Y-75384000D01*
X104120000Y-78515000D02*
X93880000Y-78515000D01*
X104120000Y-80025000D02*
X93880000Y-80025000D01*
X104120000Y-80025000D02*
X104120000Y-75384000D01*
X91565000Y-72050000D02*
X91565000Y-74335000D01*
X91565000Y-74335000D02*
X93035000Y-74335000D01*
X93035000Y-74335000D02*
X93035000Y-72050000D01*
X99950000Y-50125000D02*
X99950000Y-50245000D01*
X99950000Y-51255000D02*
X99950000Y-52395000D01*
X99950000Y-53405000D02*
X99950000Y-53525000D01*
X99950000Y-53525000D02*
X104350000Y-53525000D01*
X104350000Y-50125000D02*
X99950000Y-50125000D01*
X104350000Y-50245000D02*
X104350000Y-50125000D01*
X104350000Y-52395000D02*
X104350000Y-51255000D01*
X104350000Y-53525000D02*
X104350000Y-53405000D01*
X113577500Y-72512258D02*
X113577500Y-72037742D01*
X114622500Y-72512258D02*
X114622500Y-72037742D01*
X99584420Y-73590000D02*
X99865580Y-73590000D01*
X99584420Y-74610000D02*
X99865580Y-74610000D01*
D12*
X104855000Y-77320000D02*
X104855000Y-79980000D01*
X107455000Y-77320000D02*
X104855000Y-77320000D01*
X107455000Y-77320000D02*
X107455000Y-79980000D01*
X107455000Y-79980000D02*
X104855000Y-79980000D01*
D14*
X115127500Y-72512258D02*
X115127500Y-72037742D01*
X116172500Y-72512258D02*
X116172500Y-72037742D01*
X109077500Y-60637258D02*
X109077500Y-60162742D01*
X110122500Y-60637258D02*
X110122500Y-60162742D01*
X89660000Y-46620000D02*
X89660000Y-49280000D01*
X102420000Y-46620000D02*
X89660000Y-46620000D01*
X102420000Y-46620000D02*
X102420000Y-49280000D01*
X102420000Y-49280000D02*
X89660000Y-49280000D01*
X103690000Y-46620000D02*
X105020000Y-46620000D01*
X105020000Y-46620000D02*
X105020000Y-47950000D01*
%LPC*%
D16*
X82000000Y-77520000D03*
D17*
X82000000Y-74980000D03*
X82000000Y-72440000D03*
X82000000Y-69900000D03*
X82000000Y-67360000D03*
X82000000Y-64820000D03*
X82000000Y-62280000D03*
X82000000Y-59740000D03*
X82000000Y-57200000D03*
X82000000Y-54660000D03*
X82000000Y-52120000D03*
X82000000Y-49580000D03*
D18*
X110600000Y-72400000D03*
X112800000Y-72400000D03*
D19*
X97125000Y-72100000D03*
X95475000Y-72100000D03*
D20*
X109500000Y-74175000D03*
X109500000Y-75725000D03*
D21*
X106300000Y-47250000D03*
X106300000Y-48900000D03*
D22*
X102025000Y-74100000D03*
X103575000Y-74100000D03*
D23*
X103600000Y-57775000D03*
X103100000Y-57775000D03*
X102600000Y-57775000D03*
X102100000Y-57775000D03*
X101600000Y-57775000D03*
X101100000Y-57775000D03*
X100600000Y-57775000D03*
X100100000Y-57775000D03*
X99600000Y-57775000D03*
X99100000Y-57775000D03*
X98600000Y-57775000D03*
X98100000Y-57775000D03*
X97600000Y-57775000D03*
X97100000Y-57775000D03*
X96600000Y-57775000D03*
X96100000Y-57775000D03*
D24*
X94175000Y-59700000D03*
X94175000Y-60200000D03*
X94175000Y-60700000D03*
X94175000Y-61200000D03*
X94175000Y-61700000D03*
X94175000Y-62200000D03*
X94175000Y-62700000D03*
X94175000Y-63200000D03*
X94175000Y-63700000D03*
X94175000Y-64200000D03*
X94175000Y-64700000D03*
X94175000Y-65200000D03*
X94175000Y-65700000D03*
X94175000Y-66200000D03*
X94175000Y-66700000D03*
X94175000Y-67200000D03*
D23*
X96100000Y-69125000D03*
X96600000Y-69125000D03*
X97100000Y-69125000D03*
X97600000Y-69125000D03*
X98100000Y-69125000D03*
X98600000Y-69125000D03*
X99100000Y-69125000D03*
X99600000Y-69125000D03*
X100100000Y-69125000D03*
X100600000Y-69125000D03*
X101100000Y-69125000D03*
X101600000Y-69125000D03*
X102100000Y-69125000D03*
X102600000Y-69125000D03*
X103100000Y-69125000D03*
X103600000Y-69125000D03*
D24*
X105525000Y-67200000D03*
X105525000Y-66700000D03*
X105525000Y-66200000D03*
X105525000Y-65700000D03*
X105525000Y-65200000D03*
X105525000Y-64700000D03*
X105525000Y-64200000D03*
X105525000Y-63700000D03*
X105525000Y-63200000D03*
X105525000Y-62700000D03*
X105525000Y-62200000D03*
X105525000Y-61700000D03*
X105525000Y-61200000D03*
X105525000Y-60700000D03*
X105525000Y-60200000D03*
X105525000Y-59700000D03*
D25*
X113925000Y-75050000D03*
X114575000Y-75050000D03*
X115225000Y-75050000D03*
X115875000Y-75050000D03*
X116525000Y-75050000D03*
D26*
X111650000Y-77700000D03*
D27*
X112905000Y-75470000D03*
D28*
X114100000Y-77700000D03*
X116350000Y-77700000D03*
D27*
X117545000Y-75470000D03*
D26*
X118800000Y-77700000D03*
D29*
X92300000Y-67475000D03*
X92300000Y-65925000D03*
D20*
X92300000Y-69025000D03*
X92300000Y-70575000D03*
D30*
X107945600Y-75600001D03*
X107945600Y-75100000D03*
X107945600Y-74600000D03*
X107945600Y-74099999D03*
X105050000Y-74099999D03*
X105050000Y-74600000D03*
X105050000Y-75100000D03*
X105050000Y-75600001D03*
D31*
X106497800Y-74850000D03*
D32*
X128950000Y-79150000D03*
D33*
X126410000Y-79150000D03*
X123870000Y-79150000D03*
X121330000Y-79150000D03*
D34*
X86650000Y-77600000D03*
X92575000Y-77600000D03*
D35*
X119650000Y-72650000D03*
X121225000Y-72650000D03*
D36*
X108100000Y-61225000D03*
X108100000Y-59575000D03*
D37*
X126000000Y-57050000D03*
D38*
X126000000Y-57050000D03*
D39*
X100100000Y-55850000D03*
X98550000Y-55850000D03*
D40*
X103450000Y-54500000D03*
X101600000Y-54500000D03*
X101600000Y-55950000D03*
X103450000Y-55950000D03*
D41*
X109750000Y-65900000D03*
D42*
X113750000Y-65900000D03*
D22*
X106375000Y-72200000D03*
X107925000Y-72200000D03*
D37*
X92350000Y-56600000D03*
D38*
X92350000Y-56600000D03*
D37*
X126050000Y-74400000D03*
D38*
X126050000Y-74400000D03*
D21*
X93850000Y-71475000D03*
X93850000Y-73125000D03*
D20*
X97900000Y-50875000D03*
X97900000Y-52425000D03*
D43*
X101540000Y-76755000D03*
D44*
X99000000Y-76755000D03*
X96460000Y-76755000D03*
D45*
X92300000Y-73637500D03*
X92300000Y-72062500D03*
D46*
X104225000Y-52900000D03*
X100075000Y-52900000D03*
X104225000Y-50750000D03*
X100075000Y-50750000D03*
D36*
X114100000Y-73100000D03*
X114100000Y-71450000D03*
D22*
X98950000Y-74100000D03*
X100500000Y-74100000D03*
D32*
X108725000Y-78650000D03*
D33*
X106185000Y-78650000D03*
D36*
X115650000Y-73100000D03*
X115650000Y-71450000D03*
D47*
X118600000Y-70300000D03*
X123100000Y-70300000D03*
X127600000Y-70300000D03*
X118600000Y-65800000D03*
X123100000Y-65800000D03*
X118600000Y-61300000D03*
X123100000Y-61300000D03*
X127600000Y-61300000D03*
D48*
X129000000Y-65800000D03*
D36*
X109600000Y-61225000D03*
X109600000Y-59575000D03*
D32*
X103690000Y-47950000D03*
D33*
X101150000Y-47950000D03*
X98610000Y-47950000D03*
X96070000Y-47950000D03*
X93530000Y-47950000D03*
X90990000Y-47950000D03*
%LPD*%
M02*
