G04 #@! TF.GenerationSoftware,KiCad,Pcbnew,8.0.1*
G04 #@! TF.CreationDate,2024-06-08T15:54:11-04:00*
G04 #@! TF.ProjectId,SAP Mk3.2,53415020-4d6b-4332-9e32-2e6b69636164,rev?*
G04 #@! TF.SameCoordinates,Original*
G04 #@! TF.FileFunction,Copper,L8,Bot*
G04 #@! TF.FilePolarity,Positive*
%FSLAX46Y46*%
G04 Gerber Fmt 4.6, Leading zero omitted, Abs format (unit mm)*
G04 Created by KiCad (PCBNEW 8.0.1) date 2024-06-08 15:54:11*
%MOMM*%
%LPD*%
G01*
G04 APERTURE LIST*
G04 Aperture macros list*
%AMRoundRect*
0 Rectangle with rounded corners*
0 $1 Rounding radius*
0 $2 $3 $4 $5 $6 $7 $8 $9 X,Y pos of 4 corners*
0 Add a 4 corners polygon primitive as box body*
4,1,4,$2,$3,$4,$5,$6,$7,$8,$9,$2,$3,0*
0 Add four circle primitives for the rounded corners*
1,1,$1+$1,$2,$3*
1,1,$1+$1,$4,$5*
1,1,$1+$1,$6,$7*
1,1,$1+$1,$8,$9*
0 Add four rect primitives between the rounded corners*
20,1,$1+$1,$2,$3,$4,$5,0*
20,1,$1+$1,$4,$5,$6,$7,0*
20,1,$1+$1,$6,$7,$8,$9,0*
20,1,$1+$1,$8,$9,$2,$3,0*%
G04 Aperture macros list end*
G04 #@! TA.AperFunction,SMDPad,CuDef*
%ADD10RoundRect,0.218750X-0.381250X0.218750X-0.381250X-0.218750X0.381250X-0.218750X0.381250X0.218750X0*%
G04 #@! TD*
G04 #@! TA.AperFunction,ComponentPad*
%ADD11R,2.200000X2.200000*%
G04 #@! TD*
G04 #@! TA.AperFunction,ComponentPad*
%ADD12C,2.200000*%
G04 #@! TD*
G04 #@! TA.AperFunction,ComponentPad*
%ADD13O,1.050000X1.900000*%
G04 #@! TD*
G04 #@! TA.AperFunction,ComponentPad*
%ADD14R,1.700000X1.700000*%
G04 #@! TD*
G04 #@! TA.AperFunction,ComponentPad*
%ADD15O,1.700000X1.700000*%
G04 #@! TD*
G04 #@! TA.AperFunction,ComponentPad*
%ADD16C,2.600000*%
G04 #@! TD*
G04 #@! TA.AperFunction,ConnectorPad*
%ADD17C,3.800000*%
G04 #@! TD*
G04 #@! TA.AperFunction,ComponentPad*
%ADD18R,1.600000X1.600000*%
G04 #@! TD*
G04 #@! TA.AperFunction,ComponentPad*
%ADD19C,1.600000*%
G04 #@! TD*
G04 #@! TA.AperFunction,ComponentPad*
%ADD20R,1.905000X2.000000*%
G04 #@! TD*
G04 #@! TA.AperFunction,ComponentPad*
%ADD21O,1.905000X2.000000*%
G04 #@! TD*
G04 #@! TA.AperFunction,SMDPad,CuDef*
%ADD22RoundRect,0.200000X-0.275000X0.200000X-0.275000X-0.200000X0.275000X-0.200000X0.275000X0.200000X0*%
G04 #@! TD*
G04 #@! TA.AperFunction,SMDPad,CuDef*
%ADD23RoundRect,0.225000X0.225000X0.250000X-0.225000X0.250000X-0.225000X-0.250000X0.225000X-0.250000X0*%
G04 #@! TD*
G04 #@! TA.AperFunction,SMDPad,CuDef*
%ADD24RoundRect,0.112500X0.237500X-0.112500X0.237500X0.112500X-0.237500X0.112500X-0.237500X-0.112500X0*%
G04 #@! TD*
G04 #@! TA.AperFunction,SMDPad,CuDef*
%ADD25RoundRect,0.100000X0.100000X-0.130000X0.100000X0.130000X-0.100000X0.130000X-0.100000X-0.130000X0*%
G04 #@! TD*
G04 #@! TA.AperFunction,SMDPad,CuDef*
%ADD26R,1.000000X1.000000*%
G04 #@! TD*
G04 #@! TA.AperFunction,SMDPad,CuDef*
%ADD27R,2.200000X1.050000*%
G04 #@! TD*
G04 #@! TA.AperFunction,SMDPad,CuDef*
%ADD28RoundRect,0.200000X-0.200000X-0.275000X0.200000X-0.275000X0.200000X0.275000X-0.200000X0.275000X0*%
G04 #@! TD*
G04 #@! TA.AperFunction,SMDPad,CuDef*
%ADD29RoundRect,0.225000X-0.225000X-0.250000X0.225000X-0.250000X0.225000X0.250000X-0.225000X0.250000X0*%
G04 #@! TD*
G04 #@! TA.AperFunction,SMDPad,CuDef*
%ADD30RoundRect,0.225000X0.250000X-0.225000X0.250000X0.225000X-0.250000X0.225000X-0.250000X-0.225000X0*%
G04 #@! TD*
G04 #@! TA.AperFunction,SMDPad,CuDef*
%ADD31R,0.550000X0.950000*%
G04 #@! TD*
G04 #@! TA.AperFunction,SMDPad,CuDef*
%ADD32R,0.990000X0.410000*%
G04 #@! TD*
G04 #@! TA.AperFunction,SMDPad,CuDef*
%ADD33R,1.725000X0.990000*%
G04 #@! TD*
G04 #@! TA.AperFunction,SMDPad,CuDef*
%ADD34R,0.760000X0.410000*%
G04 #@! TD*
G04 #@! TA.AperFunction,SMDPad,CuDef*
%ADD35RoundRect,0.200000X0.200000X0.275000X-0.200000X0.275000X-0.200000X-0.275000X0.200000X-0.275000X0*%
G04 #@! TD*
G04 #@! TA.AperFunction,SMDPad,CuDef*
%ADD36RoundRect,0.062500X0.062500X-0.350000X0.062500X0.350000X-0.062500X0.350000X-0.062500X-0.350000X0*%
G04 #@! TD*
G04 #@! TA.AperFunction,SMDPad,CuDef*
%ADD37RoundRect,0.062500X0.350000X-0.062500X0.350000X0.062500X-0.350000X0.062500X-0.350000X-0.062500X0*%
G04 #@! TD*
G04 #@! TA.AperFunction,HeatsinkPad*
%ADD38R,2.600000X2.600000*%
G04 #@! TD*
G04 #@! TA.AperFunction,SMDPad,CuDef*
%ADD39RoundRect,0.200000X0.275000X-0.200000X0.275000X0.200000X-0.275000X0.200000X-0.275000X-0.200000X0*%
G04 #@! TD*
G04 #@! TA.AperFunction,SMDPad,CuDef*
%ADD40RoundRect,0.250000X0.650000X-1.000000X0.650000X1.000000X-0.650000X1.000000X-0.650000X-1.000000X0*%
G04 #@! TD*
G04 #@! TA.AperFunction,SMDPad,CuDef*
%ADD41R,0.575000X0.350000*%
G04 #@! TD*
G04 #@! TA.AperFunction,SMDPad,CuDef*
%ADD42R,0.350000X0.575000*%
G04 #@! TD*
G04 #@! TA.AperFunction,SMDPad,CuDef*
%ADD43R,0.600000X0.600000*%
G04 #@! TD*
G04 #@! TA.AperFunction,SMDPad,CuDef*
%ADD44R,3.000000X5.000000*%
G04 #@! TD*
G04 #@! TA.AperFunction,SMDPad,CuDef*
%ADD45RoundRect,0.225000X-0.250000X0.225000X-0.250000X-0.225000X0.250000X-0.225000X0.250000X0.225000X0*%
G04 #@! TD*
G04 #@! TA.AperFunction,SMDPad,CuDef*
%ADD46RoundRect,0.147500X-0.172500X0.147500X-0.172500X-0.147500X0.172500X-0.147500X0.172500X0.147500X0*%
G04 #@! TD*
G04 #@! TA.AperFunction,SMDPad,CuDef*
%ADD47R,0.304800X0.457200*%
G04 #@! TD*
G04 #@! TA.AperFunction,SMDPad,CuDef*
%ADD48R,0.457200X0.304800*%
G04 #@! TD*
G04 #@! TA.AperFunction,SMDPad,CuDef*
%ADD49RoundRect,0.150000X0.650000X0.150000X-0.650000X0.150000X-0.650000X-0.150000X0.650000X-0.150000X0*%
G04 #@! TD*
G04 #@! TA.AperFunction,SMDPad,CuDef*
%ADD50R,1.295400X0.838200*%
G04 #@! TD*
G04 #@! TA.AperFunction,SMDPad,CuDef*
%ADD51RoundRect,0.150000X-0.150000X0.325000X-0.150000X-0.325000X0.150000X-0.325000X0.150000X0.325000X0*%
G04 #@! TD*
G04 #@! TA.AperFunction,SMDPad,CuDef*
%ADD52RoundRect,0.150000X-0.325000X0.150000X-0.325000X-0.150000X0.325000X-0.150000X0.325000X0.150000X0*%
G04 #@! TD*
G04 #@! TA.AperFunction,SMDPad,CuDef*
%ADD53R,1.400000X1.200000*%
G04 #@! TD*
G04 #@! TA.AperFunction,SMDPad,CuDef*
%ADD54R,0.600000X0.300000*%
G04 #@! TD*
G04 #@! TA.AperFunction,SMDPad,CuDef*
%ADD55R,0.300000X0.625000*%
G04 #@! TD*
G04 #@! TA.AperFunction,ViaPad*
%ADD56C,0.800000*%
G04 #@! TD*
G04 #@! TA.AperFunction,ViaPad*
%ADD57C,0.350000*%
G04 #@! TD*
G04 #@! TA.AperFunction,ViaPad*
%ADD58C,0.580000*%
G04 #@! TD*
G04 #@! TA.AperFunction,ViaPad*
%ADD59C,0.600000*%
G04 #@! TD*
G04 #@! TA.AperFunction,Conductor*
%ADD60C,0.250000*%
G04 #@! TD*
G04 #@! TA.AperFunction,Conductor*
%ADD61C,0.188000*%
G04 #@! TD*
G04 #@! TA.AperFunction,Conductor*
%ADD62C,0.500000*%
G04 #@! TD*
G04 #@! TA.AperFunction,Conductor*
%ADD63C,1.500000*%
G04 #@! TD*
G04 #@! TA.AperFunction,Conductor*
%ADD64C,1.000000*%
G04 #@! TD*
G04 #@! TA.AperFunction,Conductor*
%ADD65C,0.300000*%
G04 #@! TD*
G04 #@! TA.AperFunction,Conductor*
%ADD66C,0.750000*%
G04 #@! TD*
G04 #@! TA.AperFunction,Conductor*
%ADD67C,0.400000*%
G04 #@! TD*
G04 APERTURE END LIST*
D10*
X107000000Y-51187500D03*
X107000000Y-53312500D03*
D11*
X82000000Y-77520000D03*
D12*
X82000000Y-74980000D03*
X82000000Y-72440000D03*
X82000000Y-69900000D03*
X82000000Y-67360000D03*
X82000000Y-64820000D03*
X82000000Y-62280000D03*
X82000000Y-59740000D03*
X82000000Y-57200000D03*
X82000000Y-54660000D03*
X82000000Y-52120000D03*
X82000000Y-49580000D03*
D13*
X111650000Y-77700000D03*
X118800000Y-77700000D03*
D14*
X128950000Y-79150000D03*
D15*
X126410000Y-79150000D03*
X123870000Y-79150000D03*
X121330000Y-79150000D03*
D16*
X126000000Y-57050000D03*
D17*
X126000000Y-57050000D03*
D18*
X109750000Y-65900000D03*
D19*
X113750000Y-65900000D03*
D16*
X92350000Y-56600000D03*
D17*
X92350000Y-56600000D03*
D16*
X126050000Y-74400000D03*
D17*
X126050000Y-74400000D03*
D20*
X101540000Y-76755000D03*
D21*
X99000000Y-76755000D03*
X96460000Y-76755000D03*
D14*
X108725000Y-78650000D03*
D15*
X106185000Y-78650000D03*
D14*
X103690000Y-47950000D03*
D15*
X101150000Y-47950000D03*
X98610000Y-47950000D03*
X96070000Y-47950000D03*
X93530000Y-47950000D03*
X90990000Y-47950000D03*
D22*
X87600000Y-57925000D03*
X87600000Y-59575000D03*
D23*
X109500000Y-74500000D03*
X107950000Y-74500000D03*
D24*
X98850000Y-68650000D03*
X98850000Y-67350000D03*
X100850000Y-68000000D03*
D23*
X103875000Y-67100000D03*
X102325000Y-67100000D03*
D25*
X115674651Y-54127500D03*
X115674651Y-53487500D03*
D26*
X124429651Y-51112500D03*
D27*
X125929651Y-52587500D03*
D26*
X127429651Y-51112500D03*
D27*
X125929651Y-49637500D03*
D28*
X84450000Y-54850000D03*
X86100000Y-54850000D03*
D29*
X101475000Y-52463996D03*
X103025000Y-52463996D03*
D30*
X97500000Y-63425000D03*
X97500000Y-61875000D03*
D31*
X113450000Y-70050000D03*
X112200000Y-70050000D03*
X110950000Y-70050000D03*
X109700000Y-70050000D03*
X109700000Y-67900000D03*
X110950000Y-67900000D03*
X112200000Y-67900000D03*
X113450000Y-67900000D03*
D28*
X84450000Y-56400000D03*
X86100000Y-56400000D03*
X84450000Y-57950000D03*
X86100000Y-57950000D03*
D30*
X105250000Y-52790108D03*
X105250000Y-51240108D03*
D32*
X87442500Y-71452500D03*
X87442500Y-72112500D03*
X87442500Y-72772500D03*
X87442500Y-73432500D03*
D33*
X85450000Y-73050000D03*
D34*
X84457500Y-73432500D03*
X84457500Y-72772500D03*
D33*
X85450000Y-71835000D03*
D34*
X84457500Y-72112500D03*
X84457500Y-71452500D03*
D35*
X121275000Y-72650000D03*
X119625000Y-72650000D03*
D28*
X84450000Y-75200000D03*
X86100000Y-75200000D03*
D25*
X114924651Y-54132500D03*
X114924651Y-53492500D03*
D22*
X107950000Y-68150000D03*
X107950000Y-69800000D03*
D28*
X84450000Y-49400000D03*
X86100000Y-49400000D03*
D32*
X87442500Y-61252500D03*
X87442500Y-61912500D03*
X87442500Y-62572500D03*
X87442500Y-63232500D03*
D33*
X85450000Y-62850000D03*
D34*
X84457500Y-63232500D03*
X84457500Y-62572500D03*
D33*
X85450000Y-61635000D03*
D34*
X84457500Y-61912500D03*
X84457500Y-61252500D03*
D28*
X84450000Y-64950000D03*
X86100000Y-64950000D03*
D36*
X111924434Y-52687500D03*
X111424434Y-52687500D03*
X110924434Y-52687500D03*
X110424434Y-52687500D03*
X109924434Y-52687500D03*
X109424434Y-52687500D03*
D37*
X108736934Y-52000000D03*
X108736934Y-51500000D03*
X108736934Y-51000000D03*
X108736934Y-50500000D03*
X108736934Y-50000000D03*
X108736934Y-49500000D03*
D36*
X109424434Y-48812500D03*
X109924434Y-48812500D03*
X110424434Y-48812500D03*
X110924434Y-48812500D03*
X111424434Y-48812500D03*
X111924434Y-48812500D03*
D37*
X112611934Y-49500000D03*
X112611934Y-50000000D03*
X112611934Y-50500000D03*
X112611934Y-51000000D03*
X112611934Y-51500000D03*
X112611934Y-52000000D03*
D38*
X110674434Y-50750000D03*
D28*
X84450000Y-69700000D03*
X86100000Y-69700000D03*
D30*
X100150000Y-60225000D03*
X100150000Y-58675000D03*
D28*
X84450000Y-76750000D03*
X86100000Y-76750000D03*
D39*
X87600000Y-76775000D03*
X87600000Y-75125000D03*
D40*
X90150000Y-78000000D03*
X90150000Y-74000000D03*
D23*
X100750000Y-61750000D03*
X99200000Y-61750000D03*
D30*
X94900000Y-51650000D03*
X94900000Y-50100000D03*
D41*
X98762500Y-58700000D03*
X98762500Y-59200000D03*
X98762500Y-59700000D03*
X98762500Y-60200000D03*
D42*
X98100000Y-60362500D03*
X97600000Y-60362500D03*
X97100000Y-60362500D03*
D41*
X96437500Y-60200000D03*
X96437500Y-59700000D03*
X96437500Y-59200000D03*
X96437500Y-58700000D03*
D42*
X97100000Y-58537500D03*
X97600000Y-58537500D03*
X98100000Y-58537500D03*
D30*
X95950000Y-63425000D03*
X95950000Y-61875000D03*
D23*
X109500000Y-76050000D03*
X107950000Y-76050000D03*
X114554651Y-55312500D03*
X113004651Y-55312500D03*
D22*
X87600000Y-68125000D03*
X87600000Y-69775000D03*
D32*
X87450000Y-51130000D03*
X87450000Y-51790000D03*
X87450000Y-52450000D03*
X87450000Y-53110000D03*
D33*
X85457500Y-52727500D03*
D34*
X84465000Y-53110000D03*
X84465000Y-52450000D03*
D33*
X85457500Y-51512500D03*
D34*
X84465000Y-51790000D03*
X84465000Y-51130000D03*
D43*
X118029651Y-54312500D03*
X118029651Y-52712500D03*
X118029651Y-51112500D03*
X118029651Y-49512500D03*
X119529651Y-48612500D03*
X121129651Y-48612500D03*
X122629651Y-49512500D03*
X122629651Y-51112500D03*
X122629651Y-52712500D03*
X122629651Y-54312500D03*
X121129651Y-55212500D03*
X119529651Y-55212500D03*
D44*
X120329651Y-51912500D03*
D39*
X87600000Y-66525000D03*
X87600000Y-64875000D03*
D22*
X87600000Y-47825000D03*
X87600000Y-49475000D03*
D39*
X87600000Y-56425000D03*
X87600000Y-54775000D03*
D28*
X101425000Y-55550000D03*
X103075000Y-55550000D03*
X84425000Y-47850000D03*
X86075000Y-47850000D03*
X84450000Y-66500000D03*
X86100000Y-66500000D03*
X84450000Y-68150000D03*
X86100000Y-68150000D03*
D45*
X103800000Y-59475000D03*
X103800000Y-61025000D03*
X115250000Y-68350000D03*
X115250000Y-69900000D03*
D28*
X84450000Y-59500000D03*
X86100000Y-59500000D03*
D46*
X113796964Y-52177500D03*
X113796964Y-53147500D03*
D23*
X103025000Y-54000000D03*
X101475000Y-54000000D03*
D45*
X102250000Y-59475000D03*
X102250000Y-61025000D03*
D47*
X98450001Y-52600000D03*
X97950000Y-52600000D03*
X97450000Y-52600000D03*
X96949999Y-52600000D03*
D48*
X96425001Y-52075002D03*
X96425001Y-51575001D03*
X96425001Y-51075001D03*
X96425001Y-50575000D03*
D47*
X96949999Y-50050002D03*
X97450000Y-50050002D03*
X97950000Y-50050002D03*
X98450001Y-50050002D03*
D48*
X98974999Y-50575000D03*
X98974999Y-51075001D03*
X98974999Y-51575001D03*
X98974999Y-52075002D03*
D49*
X97000000Y-67640000D03*
X97000000Y-68910000D03*
X97000000Y-70180000D03*
X97000000Y-71450000D03*
X89800000Y-71450000D03*
X89800000Y-70180000D03*
X89800000Y-68910000D03*
X89800000Y-67640000D03*
D50*
X120143100Y-70199999D03*
X120143100Y-69100001D03*
X120143100Y-68000001D03*
X120143100Y-66900000D03*
X120143100Y-65800000D03*
X120143100Y-64700000D03*
X120143100Y-63599999D03*
X120143100Y-62499999D03*
X120143100Y-61399999D03*
X128956900Y-61400001D03*
X128956900Y-62499999D03*
X128956900Y-63599999D03*
X128956900Y-64700000D03*
X128956900Y-65800000D03*
X128956900Y-66900000D03*
X128956900Y-68000001D03*
X128956900Y-69100001D03*
X128956900Y-70200001D03*
D51*
X95950000Y-54550000D03*
X96750000Y-54550000D03*
X97550000Y-54550000D03*
X98350000Y-54550000D03*
X99150000Y-54550000D03*
X99950000Y-54550000D03*
D52*
X99950000Y-55550000D03*
D51*
X99950000Y-56550000D03*
X99150000Y-56550000D03*
X98350000Y-56550000D03*
X97550000Y-56550000D03*
X96750000Y-56550000D03*
X95950000Y-56550000D03*
D52*
X95950000Y-55550000D03*
D53*
X108839184Y-54615108D03*
X111039184Y-54615108D03*
X111039184Y-56215108D03*
X108839184Y-56215108D03*
D22*
X103850000Y-63850000D03*
X103850000Y-65500000D03*
D54*
X114887217Y-52012500D03*
X114887217Y-51512500D03*
X114887217Y-51012500D03*
X114887217Y-50512500D03*
D55*
X115587217Y-50200000D03*
D54*
X116287217Y-50512500D03*
X116287217Y-51012500D03*
X116287217Y-51512500D03*
X116287217Y-52012500D03*
D55*
X115587217Y-52325000D03*
D56*
X94500000Y-75400000D03*
D57*
X107950000Y-69800000D03*
D56*
X93450000Y-76350000D03*
D57*
X120550000Y-63650000D03*
X92300000Y-67500000D03*
X121150000Y-48600000D03*
X108950000Y-50500000D03*
X103800000Y-59475000D03*
X108100000Y-59600000D03*
X103250000Y-55850000D03*
X92300000Y-72100000D03*
X97150000Y-53750000D03*
X103850000Y-65500000D03*
X120550000Y-62500000D03*
X103875000Y-67100000D03*
X99950000Y-54550000D03*
X118050000Y-54300000D03*
X113000000Y-55350000D03*
X108400000Y-50000000D03*
X97950000Y-52000000D03*
X101450000Y-53700000D03*
X109600000Y-59550000D03*
X114950000Y-69650000D03*
D56*
X97800000Y-75350000D03*
D57*
X121150000Y-55200000D03*
X101450000Y-52450000D03*
X95500000Y-72100000D03*
X102250000Y-59475000D03*
X115500000Y-70150000D03*
X95950000Y-63425000D03*
X100200000Y-59950000D03*
X97500000Y-63425000D03*
X99250000Y-62050000D03*
X120600000Y-61450000D03*
D58*
X129350000Y-62532872D03*
D57*
X107950000Y-76050000D03*
X121350000Y-69050000D03*
X119625000Y-72650000D03*
X103900000Y-62100000D03*
X102350000Y-66100000D03*
X101550000Y-66400000D03*
X99100000Y-71450000D03*
X99000000Y-72300000D03*
X98300000Y-72300000D03*
X100000000Y-71450000D03*
X88500000Y-53400000D03*
X88500000Y-50900000D03*
X88500000Y-63500000D03*
X88500000Y-61000000D03*
X88500000Y-71200000D03*
X88500000Y-73700000D03*
X99750000Y-67850000D03*
X103850000Y-63850000D03*
X110929123Y-49079013D03*
X95650000Y-70800000D03*
X108100000Y-61225000D03*
X97150000Y-59700000D03*
X127150000Y-68450000D03*
X113450000Y-68250000D03*
X99050000Y-52550000D03*
X98000000Y-59300000D03*
X128956900Y-68000001D03*
X112200000Y-67650000D03*
X109600000Y-61250000D03*
X88250000Y-55600000D03*
X88250000Y-75950000D03*
X88250000Y-68950000D03*
X88250000Y-65750000D03*
X88250000Y-58700000D03*
X88250000Y-48650000D03*
X108950000Y-49500000D03*
X113800000Y-49150000D03*
X106050000Y-56800000D03*
X109400000Y-48550000D03*
X100050000Y-51500000D03*
X98900000Y-63200000D03*
X104650000Y-56200000D03*
X109924018Y-49052010D03*
X102300000Y-56500000D03*
X110428070Y-48535956D03*
X106750000Y-56800000D03*
X111427175Y-48544957D03*
X108000000Y-63200000D03*
X94700000Y-69000000D03*
X97000000Y-66650000D03*
X111943229Y-49094015D03*
X107000000Y-64200000D03*
X93650000Y-70250000D03*
D56*
X125700000Y-47150000D03*
X116300000Y-59100000D03*
D57*
X102300000Y-54450000D03*
D56*
X112050000Y-47150000D03*
D57*
X84400000Y-47850000D03*
X116279651Y-53562500D03*
X106950000Y-74000000D03*
X87800000Y-76800000D03*
D56*
X124000000Y-54350000D03*
D57*
X84450000Y-76700000D03*
X98850000Y-67350000D03*
X106050000Y-48650000D03*
D56*
X108150000Y-47150000D03*
D57*
X116237217Y-49912500D03*
D56*
X129550000Y-59100000D03*
X121500000Y-74050000D03*
D57*
X103050000Y-52450000D03*
X87450000Y-53200000D03*
X87450000Y-61150000D03*
D56*
X129450000Y-49700000D03*
X121850000Y-59100000D03*
X123750000Y-47150000D03*
X116300000Y-60900000D03*
D57*
X114237217Y-49912500D03*
D56*
X129150000Y-47950000D03*
D57*
X96850000Y-52700000D03*
X97750000Y-55550000D03*
D56*
X123250000Y-72500000D03*
D57*
X102325000Y-67100000D03*
X115587217Y-51612500D03*
D56*
X129450000Y-53600000D03*
D57*
X113537217Y-49912500D03*
X93850000Y-71450000D03*
D56*
X114000000Y-47150000D03*
D57*
X114937217Y-49912500D03*
D56*
X128700000Y-72400000D03*
D57*
X87600000Y-57950000D03*
D56*
X116300000Y-64800000D03*
X123150000Y-70300000D03*
D57*
X116750000Y-52012500D03*
X106050000Y-74800000D03*
X103800000Y-61025000D03*
X97500000Y-61875000D03*
X109500000Y-74200000D03*
X127650000Y-63150000D03*
X106950000Y-75600000D03*
D56*
X117892124Y-72830290D03*
X119900000Y-59100000D03*
X117900000Y-47150000D03*
D57*
X92300000Y-70600000D03*
D56*
X127650000Y-70350000D03*
X121800000Y-56800000D03*
X119000000Y-70199999D03*
X116300000Y-62850000D03*
X121800000Y-47150000D03*
D57*
X87650000Y-68100000D03*
X87450000Y-73500000D03*
X84450000Y-56400000D03*
D56*
X110100000Y-57700000D03*
D57*
X102850000Y-53800000D03*
X84450000Y-57950000D03*
X94900000Y-51650000D03*
X115637217Y-49662500D03*
X87450000Y-63300000D03*
D56*
X123100000Y-65800000D03*
D57*
X102250000Y-61025000D03*
D56*
X127950000Y-59100000D03*
D57*
X114329651Y-51512500D03*
D56*
X117900000Y-56800000D03*
X127650000Y-61350000D03*
X118500000Y-61300000D03*
X116750000Y-69000000D03*
D57*
X100200000Y-59000000D03*
X100050000Y-52500000D03*
D56*
X114000000Y-56800000D03*
D57*
X84450000Y-68150000D03*
X106050000Y-74000000D03*
D56*
X115950000Y-56800000D03*
X119500000Y-74050000D03*
D57*
X115587217Y-51012500D03*
X87450000Y-51000000D03*
D56*
X116948011Y-70992822D03*
D57*
X106050000Y-75600000D03*
D56*
X118550000Y-65800000D03*
D57*
X116550000Y-74700000D03*
D56*
X118050000Y-59100000D03*
X112150000Y-57750000D03*
D57*
X96800000Y-49900000D03*
X98850000Y-55550000D03*
X100800000Y-62050000D03*
X115679651Y-52862500D03*
X116579651Y-52912500D03*
D56*
X116300000Y-66750000D03*
X119850000Y-47150000D03*
X123800000Y-59100000D03*
D57*
X87650000Y-66500000D03*
X95950000Y-61875000D03*
D56*
X127650000Y-47150000D03*
D57*
X92300000Y-65950000D03*
D56*
X119850000Y-56800000D03*
D57*
X106950000Y-74800000D03*
X116937217Y-49912500D03*
X107750000Y-50500000D03*
X115600000Y-68750000D03*
X87600000Y-47800000D03*
X114950000Y-68750000D03*
D56*
X129450000Y-51650000D03*
D57*
X98300000Y-55550000D03*
D56*
X110100000Y-47150000D03*
D57*
X84450000Y-66500000D03*
X122125000Y-72650000D03*
X87600000Y-56450000D03*
X87450000Y-71400000D03*
X97150000Y-60450000D03*
D56*
X127750000Y-54350000D03*
X108150000Y-57700000D03*
X115950000Y-47150000D03*
D57*
X97950000Y-50600000D03*
X116887217Y-51062500D03*
D56*
X123100000Y-61300000D03*
D57*
X119550000Y-55200000D03*
X107950000Y-75100000D03*
D59*
X111500000Y-74100000D03*
D57*
X122650000Y-54300000D03*
D60*
X112152800Y-47852800D02*
X112611934Y-48311934D01*
X107647200Y-47852800D02*
X112152800Y-47852800D01*
X112611934Y-48311934D02*
X112611934Y-49500000D01*
X104100000Y-50000000D02*
X105500000Y-50000000D01*
X102600000Y-51500000D02*
X104100000Y-50000000D01*
X105500000Y-50000000D02*
X107647200Y-47852800D01*
X100050000Y-51500000D02*
X102600000Y-51500000D01*
X119000000Y-70199999D02*
X120143100Y-70199999D01*
X112705250Y-51500000D02*
G75*
G02*
X113412382Y-51792868I50J-1000000D01*
G01*
X112705250Y-51500000D02*
X112611934Y-51500000D01*
X113796964Y-52177500D02*
X113412357Y-51792893D01*
X113961964Y-52012500D02*
X113796964Y-52177500D01*
X114887217Y-52012500D02*
X113961964Y-52012500D01*
X108736934Y-51000000D02*
X107187500Y-51000000D01*
X107187500Y-51000000D02*
X107000000Y-51187500D01*
X95950000Y-54075001D02*
X96275001Y-53750000D01*
X95847200Y-58222200D02*
X95700000Y-58369400D01*
X99950000Y-54550000D02*
X100925000Y-54550000D01*
X98650000Y-61750000D02*
X99200000Y-61750000D01*
X99600000Y-53750000D02*
X101225000Y-53750000D01*
X102250000Y-59475000D02*
X103800000Y-59475000D01*
X98974999Y-50575000D02*
X98968597Y-50581402D01*
X97100000Y-58294400D02*
X97027800Y-58222200D01*
X108736934Y-50500000D02*
X108736934Y-50000000D01*
X97852800Y-60952800D02*
X98650000Y-61750000D01*
X95950000Y-54550000D02*
X95950000Y-54075001D01*
X95700000Y-58369400D02*
X95700000Y-60030600D01*
X92160000Y-67640000D02*
X92300000Y-67500000D01*
X95700000Y-60030600D02*
X95869400Y-60200000D01*
X101436004Y-52463996D02*
X100886004Y-52463996D01*
X100200000Y-59950000D02*
X100150000Y-60225000D01*
X112200000Y-70050000D02*
X115100000Y-70050000D01*
X100925000Y-54550000D02*
X101475000Y-54000000D01*
X96622200Y-60952800D02*
X97852800Y-60952800D01*
X96437500Y-60768100D02*
X96622200Y-60952800D01*
X101225000Y-53750000D02*
X101175000Y-53700000D01*
X98100000Y-60605600D02*
X98194400Y-60700000D01*
X101475000Y-52463996D02*
X101463996Y-52463996D01*
X96275001Y-53750000D02*
X97150000Y-53750000D01*
X98100000Y-60362500D02*
X98100000Y-60605600D01*
X97150000Y-53750000D02*
X99600000Y-53750000D01*
X98968597Y-50581402D02*
X98646007Y-50581402D01*
X97027800Y-58222200D02*
X95847200Y-58222200D01*
X95869400Y-60200000D02*
X96437500Y-60200000D01*
X97100000Y-58537500D02*
X97100000Y-58294400D01*
X101450000Y-53700000D02*
X101450000Y-53975000D01*
X97950000Y-52600000D02*
X97950000Y-52000000D01*
X97950000Y-51277409D02*
X97950000Y-52000000D01*
X99675000Y-60700000D02*
X100200000Y-59950000D01*
X100886004Y-52463996D02*
X99600000Y-53750000D01*
X115100000Y-70050000D02*
X115250000Y-69900000D01*
X101450000Y-53975000D02*
X101475000Y-54000000D01*
X101175000Y-53700000D02*
X101450000Y-53700000D01*
X98646007Y-50581402D02*
X97950000Y-51277409D01*
X101450000Y-52450000D02*
X101436004Y-52463996D01*
X96437500Y-60200000D02*
X96437500Y-60768100D01*
X98194400Y-60700000D02*
X99675000Y-60700000D01*
X101463996Y-52463996D02*
X101450000Y-52450000D01*
X89800000Y-67640000D02*
X92160000Y-67640000D01*
X103850000Y-67075000D02*
X103875000Y-67100000D01*
D61*
X122879651Y-51112500D02*
X124429651Y-51112500D01*
D62*
X123979651Y-51112500D02*
X124229651Y-51112500D01*
D60*
X97450000Y-49563403D02*
X97186597Y-49300000D01*
X97450000Y-50050002D02*
X97450000Y-49563403D01*
X97186597Y-49300000D02*
X95300000Y-49300000D01*
X94900000Y-49700000D02*
X94900000Y-50100000D01*
X95300000Y-49300000D02*
X94900000Y-49700000D01*
X121350000Y-67209200D02*
X121040800Y-66900000D01*
X121350000Y-69050000D02*
X121350000Y-67209200D01*
X121040800Y-66900000D02*
X120143100Y-66900000D01*
D63*
X90150000Y-74000000D02*
X102550000Y-74000000D01*
X102550000Y-74000000D02*
X106185000Y-77635000D01*
X106185000Y-77635000D02*
X106185000Y-78650000D01*
D61*
X118029651Y-49862500D02*
X118029651Y-49512500D01*
X117644344Y-50247807D02*
X118029651Y-49862500D01*
X116287217Y-50512500D02*
X116315417Y-50540700D01*
X116315417Y-50540700D02*
X116937237Y-50540700D01*
X117644344Y-50247807D02*
G75*
G02*
X116937237Y-50540726I-707144J707107D01*
G01*
X114887217Y-51012500D02*
X112624434Y-51012500D01*
X118029651Y-52479651D02*
X118029651Y-52712500D01*
X117355393Y-51805393D02*
X118029651Y-52479651D01*
X116287217Y-51512500D02*
X116648286Y-51512500D01*
X117355393Y-51805393D02*
G75*
G03*
X116648286Y-51512510I-707093J-707107D01*
G01*
X114887217Y-50512500D02*
X112624434Y-50512500D01*
D60*
X84450000Y-54850000D02*
X82190000Y-54850000D01*
D64*
X84252500Y-52727500D02*
X82320000Y-54660000D01*
D60*
X82190000Y-54850000D02*
X82000000Y-54660000D01*
D64*
X85457500Y-52727500D02*
X84252500Y-52727500D01*
X82320000Y-54660000D02*
X82000000Y-54660000D01*
D60*
X84450000Y-64950000D02*
X82130000Y-64950000D01*
D64*
X85450000Y-62850000D02*
X84250000Y-62850000D01*
X84250000Y-62850000D02*
X82280000Y-64820000D01*
X82280000Y-64820000D02*
X82000000Y-64820000D01*
D60*
X82130000Y-64950000D02*
X82000000Y-64820000D01*
X82200000Y-69700000D02*
X82000000Y-69900000D01*
X84450000Y-69700000D02*
X82200000Y-69700000D01*
D64*
X85450000Y-71835000D02*
X84235000Y-71835000D01*
X84235000Y-71835000D02*
X82300000Y-69900000D01*
X82300000Y-69900000D02*
X82000000Y-69900000D01*
D60*
X84450000Y-49400000D02*
X84450000Y-49450000D01*
X84450000Y-49400000D02*
X82180000Y-49400000D01*
D64*
X82390000Y-49580000D02*
X82000000Y-49580000D01*
D60*
X82180000Y-49400000D02*
X82000000Y-49580000D01*
D64*
X85457500Y-51512500D02*
X84322500Y-51512500D01*
X84322500Y-51512500D02*
X82390000Y-49580000D01*
X84250000Y-73050000D02*
X82320000Y-74980000D01*
D60*
X84450000Y-75200000D02*
X82220000Y-75200000D01*
D64*
X82320000Y-74980000D02*
X82000000Y-74980000D01*
D60*
X82220000Y-75200000D02*
X82000000Y-74980000D01*
D64*
X85450000Y-73050000D02*
X84250000Y-73050000D01*
X82340000Y-59740000D02*
X82000000Y-59740000D01*
D60*
X84450000Y-59500000D02*
X82240000Y-59500000D01*
X82240000Y-59500000D02*
X82000000Y-59740000D01*
D64*
X85450000Y-61635000D02*
X84235000Y-61635000D01*
X84235000Y-61635000D02*
X82340000Y-59740000D01*
D60*
X122597200Y-77997200D02*
X120072200Y-75472200D01*
X116322200Y-75472200D02*
X112922200Y-72072200D01*
X126410000Y-79150000D02*
X125257200Y-77997200D01*
X112922200Y-72072200D02*
X99722200Y-72072200D01*
X120072200Y-75472200D02*
X116322200Y-75472200D01*
X99722200Y-72072200D02*
X99100000Y-71450000D01*
X125257200Y-77997200D02*
X122597200Y-77997200D01*
X119800000Y-75900000D02*
X123050000Y-79150000D01*
X99000000Y-72300000D02*
X99200000Y-72500000D01*
X99200000Y-72500000D02*
X112450000Y-72500000D01*
X123050000Y-79150000D02*
X123870000Y-79150000D01*
X112450000Y-72500000D02*
X115850000Y-75900000D01*
X115850000Y-75900000D02*
X119800000Y-75900000D01*
X119450000Y-76350000D02*
X121330000Y-78230000D01*
X98947200Y-72947200D02*
X112047200Y-72947200D01*
X112047200Y-72947200D02*
X115450000Y-76350000D01*
X121330000Y-78230000D02*
X121330000Y-79150000D01*
X115450000Y-76350000D02*
X119450000Y-76350000D01*
X98300000Y-72300000D02*
X98947200Y-72947200D01*
X117527409Y-75000000D02*
X114171809Y-71644400D01*
X122700000Y-77400000D02*
X120300000Y-75000000D01*
X127200000Y-77400000D02*
X128950000Y-79150000D01*
X114171809Y-71644400D02*
X100194400Y-71644400D01*
X120300000Y-75000000D02*
X117527409Y-75000000D01*
X122700000Y-77400000D02*
X127200000Y-77400000D01*
X100194400Y-71644400D02*
X100000000Y-71450000D01*
X108400000Y-65900000D02*
X109750000Y-65900000D01*
X100850000Y-68000000D02*
X106300000Y-68000000D01*
X106300000Y-68000000D02*
X108400000Y-65900000D01*
X88500000Y-52850000D02*
X88500000Y-53400000D01*
X88100000Y-52450000D02*
X88500000Y-52850000D01*
X88500000Y-53400000D02*
X88500000Y-53900000D01*
X87625000Y-54775000D02*
X87600000Y-54775000D01*
X88500000Y-53900000D02*
X87625000Y-54775000D01*
X87450000Y-52450000D02*
X88100000Y-52450000D01*
X88500000Y-50900000D02*
X88500000Y-50375000D01*
X87450000Y-51790000D02*
X88060000Y-51790000D01*
X88500000Y-50375000D02*
X87600000Y-49475000D01*
X88060000Y-51790000D02*
X88500000Y-51350000D01*
X88500000Y-51350000D02*
X88500000Y-50900000D01*
X88500000Y-63500000D02*
X88500000Y-63975000D01*
X88072500Y-62572500D02*
X88500000Y-63000000D01*
X88500000Y-63975000D02*
X87600000Y-64875000D01*
X87442500Y-62572500D02*
X88072500Y-62572500D01*
X88500000Y-63000000D02*
X88500000Y-63500000D01*
X87600000Y-59575000D02*
X88500000Y-60475000D01*
X88500000Y-61000000D02*
X88500000Y-61500000D01*
X88500000Y-60475000D02*
X88500000Y-61000000D01*
X88500000Y-61500000D02*
X88087500Y-61912500D01*
X88087500Y-61912500D02*
X87442500Y-61912500D01*
X88500000Y-71200000D02*
X88500000Y-71700000D01*
X87600000Y-69775000D02*
X87625000Y-69775000D01*
X87625000Y-69775000D02*
X88500000Y-70650000D01*
X88500000Y-71700000D02*
X88087500Y-72112500D01*
X88087500Y-72112500D02*
X87442500Y-72112500D01*
X88500000Y-70650000D02*
X88500000Y-71200000D01*
X88500000Y-73200000D02*
X88500000Y-73700000D01*
X87442500Y-72772500D02*
X88072500Y-72772500D01*
X88500000Y-74225000D02*
X87600000Y-75125000D01*
X88500000Y-73700000D02*
X88500000Y-74225000D01*
X88072500Y-72772500D02*
X88500000Y-73200000D01*
X99750000Y-67850000D02*
X99400000Y-67850000D01*
X99400000Y-67850000D02*
X98850000Y-68400000D01*
X98850000Y-68400000D02*
X98850000Y-68650000D01*
X101425000Y-55550000D02*
X99950000Y-55550000D01*
X109700000Y-67900000D02*
X109700000Y-68650000D01*
X109700000Y-68650000D02*
X109700000Y-69000000D01*
X109700000Y-69000000D02*
X109700000Y-69350000D01*
X108000000Y-68150000D02*
X107950000Y-68150000D01*
X108850000Y-69000000D02*
X108000000Y-68150000D01*
X109700000Y-69350000D02*
X109700000Y-70050000D01*
X109350000Y-69000000D02*
X108850000Y-69000000D01*
X109700000Y-69000000D02*
X109350000Y-69000000D01*
X109700000Y-69350000D02*
X109350000Y-69000000D01*
X109700000Y-68650000D02*
X109350000Y-69000000D01*
X95650000Y-70800000D02*
X95650000Y-69460001D01*
X96200001Y-68910000D02*
X97000000Y-68910000D01*
X95650000Y-69460001D02*
X96200001Y-68910000D01*
X97281200Y-57755600D02*
X96036088Y-57755600D01*
X95840244Y-53250000D02*
X98286600Y-53250000D01*
X127800001Y-69100001D02*
X128956900Y-69100001D01*
X95325000Y-55399999D02*
X95300000Y-55374999D01*
X95300000Y-55800000D02*
X95550000Y-55550000D01*
X97150000Y-59700000D02*
X97150000Y-59472591D01*
X95475001Y-55550000D02*
X95300000Y-55374999D01*
X98450001Y-53086599D02*
X98450001Y-52600000D01*
X95300000Y-55800000D02*
X95325000Y-55775000D01*
X95300000Y-53790244D02*
X95840244Y-53250000D01*
X95300000Y-55374999D02*
X95300000Y-53790244D01*
X95325000Y-55775000D02*
X95325000Y-55399999D01*
X98286600Y-53250000D02*
X98450001Y-53086599D01*
X97600000Y-58074400D02*
X97281200Y-57755600D01*
X96036088Y-57755600D02*
X95300000Y-57019512D01*
X97600000Y-58537500D02*
X97600000Y-58074400D01*
X95550000Y-55550000D02*
X95950000Y-55550000D01*
X97150000Y-59472591D02*
X97600000Y-59022591D01*
X97600000Y-59022591D02*
X97600000Y-58537500D01*
X95950000Y-55550000D02*
X95475001Y-55550000D01*
X95300000Y-57019512D02*
X95300000Y-55800000D01*
X127150000Y-68450000D02*
X127800001Y-69100001D01*
X98100000Y-58537500D02*
X98100000Y-57969400D01*
X98974999Y-52474999D02*
X99050000Y-52550000D01*
X95950000Y-56869512D02*
X95950000Y-56550000D01*
X96408288Y-57327800D02*
X95950000Y-56869512D01*
X97458400Y-57327800D02*
X96408288Y-57327800D01*
X98974999Y-52075002D02*
X98974999Y-52474999D01*
X98100000Y-59200000D02*
X98100000Y-58537500D01*
X98100000Y-57969400D02*
X97458400Y-57327800D01*
X98000000Y-59300000D02*
X98100000Y-59200000D01*
X86100000Y-55600000D02*
X86100000Y-56400000D01*
X86100000Y-54850000D02*
X86100000Y-55600000D01*
X86100000Y-55600000D02*
X88250000Y-55600000D01*
X86100000Y-75950000D02*
X86100000Y-76750000D01*
X86100000Y-75200000D02*
X86100000Y-75950000D01*
X86100000Y-75950000D02*
X88250000Y-75950000D01*
X86100000Y-68950000D02*
X86100000Y-68150000D01*
X86100000Y-69700000D02*
X86100000Y-68950000D01*
X86100000Y-68950000D02*
X88250000Y-68950000D01*
X86100000Y-65750000D02*
X86100000Y-66500000D01*
X86100000Y-64950000D02*
X86100000Y-65750000D01*
X86100000Y-65750000D02*
X88250000Y-65750000D01*
X86100000Y-57950000D02*
X86100000Y-58700000D01*
X86100000Y-58700000D02*
X86100000Y-59500000D01*
X86100000Y-58700000D02*
X88250000Y-58700000D01*
X86100000Y-48650000D02*
X86100000Y-47875000D01*
X86100000Y-47875000D02*
X86075000Y-47850000D01*
X86100000Y-48650000D02*
X88250000Y-48650000D01*
X86100000Y-49400000D02*
X86100000Y-48650000D01*
X119529651Y-48612500D02*
X114337500Y-48612500D01*
X114337500Y-48612500D02*
X113800000Y-49150000D01*
X104350000Y-56500000D02*
X102300000Y-56500000D01*
X104650000Y-56200000D02*
X104350000Y-56500000D01*
X93127409Y-71450000D02*
X89800000Y-71450000D01*
X94650000Y-69050000D02*
X94650000Y-69927409D01*
X94650000Y-69927409D02*
X93127409Y-71450000D01*
X94700000Y-69000000D02*
X94650000Y-69050000D01*
X97000000Y-66650000D02*
X97000000Y-67640000D01*
X89859000Y-70121000D02*
X89800000Y-70180000D01*
X93650000Y-70250000D02*
X93521000Y-70121000D01*
X93521000Y-70121000D02*
X89859000Y-70121000D01*
X108839184Y-56215108D02*
X108239184Y-56215108D01*
X108239184Y-56215108D02*
X107789184Y-55765108D01*
X108239184Y-53465108D02*
X109134892Y-53465108D01*
X109424434Y-53175566D02*
X109424434Y-52687500D01*
X109134892Y-53465108D02*
X109424434Y-53175566D01*
X107789184Y-55765108D02*
X107789184Y-53915108D01*
X107789184Y-53915108D02*
X108239184Y-53465108D01*
X111039184Y-56215108D02*
X110089184Y-56215108D01*
X110233584Y-53515108D02*
X110527670Y-53515108D01*
X110089184Y-56215108D02*
X109939184Y-56065108D01*
X109939184Y-56065108D02*
X109939184Y-53809508D01*
X110527670Y-53515108D02*
X110924434Y-53118344D01*
X109939184Y-53809508D02*
X110233584Y-53515108D01*
X110924434Y-53118344D02*
X110924434Y-52687500D01*
X120329651Y-51912500D02*
X119529651Y-51112500D01*
X96750000Y-56075001D02*
X96750000Y-56550000D01*
X128956900Y-63599999D02*
X128059200Y-63599999D01*
X98350000Y-54550000D02*
X98350000Y-55500000D01*
X111424434Y-50000000D02*
X110674434Y-50750000D01*
X97150000Y-60450000D02*
X97237500Y-60362500D01*
D65*
X116287217Y-51012500D02*
X116837217Y-51012500D01*
D60*
X100150000Y-58950000D02*
X100200000Y-59000000D01*
X111424434Y-52687500D02*
X111424434Y-51500000D01*
X97750000Y-55550000D02*
X98850000Y-55550000D01*
X109500000Y-76050000D02*
X109300000Y-76250000D01*
X109300000Y-76250000D02*
X109300000Y-78075000D01*
X128956900Y-61400001D02*
X127700001Y-61400001D01*
X109300000Y-78075000D02*
X108725000Y-78650000D01*
X114850000Y-68750000D02*
X114950000Y-68750000D01*
X97275001Y-55550000D02*
X96750000Y-56075001D01*
D65*
X116837217Y-51012500D02*
X116887217Y-51062500D01*
D60*
X97000000Y-71450000D02*
X93850000Y-71450000D01*
X127650000Y-63190799D02*
X127650000Y-63150000D01*
X96750000Y-54550000D02*
X96750000Y-55024999D01*
X97950000Y-50050002D02*
X97950000Y-50600000D01*
X127700001Y-61400001D02*
X127650000Y-61350000D01*
X98762500Y-58950000D02*
X98762500Y-59200000D01*
X112611934Y-50000000D02*
X111424434Y-50000000D01*
X98762500Y-58950000D02*
X100150000Y-58950000D01*
X112271000Y-68729000D02*
X114871000Y-68729000D01*
X110950000Y-70050000D02*
X112271000Y-68729000D01*
X109924434Y-51500000D02*
X110674434Y-50750000D01*
X97275001Y-55550000D02*
X97750000Y-55550000D01*
X98350000Y-55500000D02*
X98300000Y-55550000D01*
X98762500Y-58700000D02*
X98762500Y-58950000D01*
X114871000Y-68729000D02*
X114850000Y-68750000D01*
X114950000Y-68650000D02*
X115250000Y-68350000D01*
X96750000Y-55024999D02*
X97275001Y-55550000D01*
D66*
X122629651Y-52712500D02*
X121129651Y-52712500D01*
D60*
X99150000Y-55250000D02*
X98850000Y-55550000D01*
X114950000Y-68750000D02*
X114950000Y-68650000D01*
X97100000Y-60362500D02*
X97150000Y-60450000D01*
X109924434Y-52687500D02*
X109924434Y-51500000D01*
X103800000Y-61025000D02*
X102250000Y-61025000D01*
D66*
X119529651Y-51112500D02*
X118029651Y-51112500D01*
D60*
X127650000Y-63150000D02*
X127650000Y-61350000D01*
X121275000Y-72650000D02*
X122125000Y-72650000D01*
X102300000Y-54450000D02*
X102575000Y-54450000D01*
X97237500Y-60362500D02*
X97600000Y-60362500D01*
X108736934Y-51500000D02*
X109924434Y-51500000D01*
X99150000Y-54550000D02*
X99150000Y-55250000D01*
X128059200Y-63599999D02*
X127650000Y-63190799D01*
X98762500Y-59700000D02*
X98762500Y-59200000D01*
X102575000Y-54450000D02*
X103025000Y-54000000D01*
D65*
X116287217Y-52012500D02*
X116750000Y-52012500D01*
D60*
X111424434Y-51500000D02*
X110674434Y-50750000D01*
D67*
X108750000Y-73500000D02*
X110100000Y-73500000D01*
X107950000Y-74300000D02*
X108750000Y-73500000D01*
X110700000Y-74100000D02*
X111500000Y-74100000D01*
X107950000Y-75100000D02*
X107950000Y-74500000D01*
X107950000Y-74500000D02*
X107950000Y-74300000D01*
X110100000Y-73500000D02*
X110700000Y-74100000D01*
D63*
X95215000Y-78000000D02*
X90150000Y-78000000D01*
X96460000Y-76755000D02*
X95215000Y-78000000D01*
G04 #@! TA.AperFunction,Conductor*
G36*
X113039866Y-51981407D02*
G01*
X113059377Y-52000153D01*
X113125304Y-52083661D01*
X113275992Y-52274533D01*
X113291027Y-52301230D01*
X113292403Y-52304913D01*
X113298664Y-52339557D01*
X113298664Y-52363169D01*
X113298665Y-52363180D01*
X113304910Y-52410621D01*
X113304910Y-52410622D01*
X113304911Y-52410624D01*
X113353467Y-52514754D01*
X113434710Y-52595997D01*
X113538840Y-52644553D01*
X113538847Y-52644553D01*
X113546107Y-52646670D01*
X113545125Y-52650039D01*
X113586851Y-52669930D01*
X113596424Y-52680413D01*
X113779651Y-52912500D01*
X114288643Y-52912500D01*
X114346834Y-52931407D01*
X114358646Y-52941496D01*
X114679650Y-53262499D01*
X114679651Y-53262500D01*
X115780651Y-53262500D01*
X115838842Y-53281407D01*
X115874806Y-53330907D01*
X115879651Y-53361500D01*
X115879651Y-53613500D01*
X115860744Y-53671691D01*
X115811244Y-53707655D01*
X115780651Y-53712500D01*
X113773278Y-53712500D01*
X113715087Y-53693593D01*
X113700213Y-53680302D01*
X112998222Y-52912500D01*
X112281240Y-52128301D01*
X112255930Y-52072598D01*
X112268195Y-52012654D01*
X112313352Y-51971368D01*
X112354306Y-51962500D01*
X112981675Y-51962500D01*
X113039866Y-51981407D01*
G37*
G04 #@! TD.AperFunction*
G04 #@! TA.AperFunction,Conductor*
G36*
X112144670Y-52331407D02*
G01*
X112159026Y-52344135D01*
X113403198Y-53684012D01*
X113428938Y-53739520D01*
X113429651Y-53751377D01*
X113429651Y-55213500D01*
X113410744Y-55271691D01*
X113361244Y-55307655D01*
X113330651Y-55312500D01*
X112678651Y-55312500D01*
X112620460Y-55293593D01*
X112584496Y-55244093D01*
X112579651Y-55213500D01*
X112579651Y-54062502D01*
X112579651Y-54062500D01*
X111849451Y-53088900D01*
X111829662Y-53031003D01*
X111829651Y-53029500D01*
X111829651Y-52411500D01*
X111848558Y-52353309D01*
X111898058Y-52317345D01*
X111928651Y-52312500D01*
X112086479Y-52312500D01*
X112144670Y-52331407D01*
G37*
G04 #@! TD.AperFunction*
G04 #@! TA.AperFunction,Conductor*
G36*
X128253523Y-46750751D02*
G01*
X128484806Y-46767293D01*
X128498787Y-46769304D01*
X128721881Y-46817836D01*
X128735433Y-46821815D01*
X128872649Y-46872992D01*
X128949366Y-46901606D01*
X128962205Y-46907469D01*
X129162607Y-47016898D01*
X129174483Y-47024530D01*
X129251842Y-47082440D01*
X129357263Y-47161357D01*
X129367939Y-47170607D01*
X129529392Y-47332060D01*
X129538642Y-47342736D01*
X129675467Y-47525513D01*
X129683103Y-47537395D01*
X129792526Y-47737786D01*
X129798394Y-47750636D01*
X129878184Y-47964566D01*
X129882163Y-47978118D01*
X129930695Y-48201212D01*
X129932706Y-48215193D01*
X129949248Y-48446475D01*
X129949500Y-48453538D01*
X129949500Y-54701000D01*
X129930593Y-54759191D01*
X129881093Y-54795155D01*
X129850500Y-54800000D01*
X123800000Y-54800000D01*
X123800000Y-54800001D01*
X123800000Y-57151000D01*
X123781093Y-57209191D01*
X123731593Y-57245155D01*
X123701000Y-57250000D01*
X112899999Y-57250000D01*
X112854906Y-58106781D01*
X112832967Y-58163898D01*
X112781645Y-58197210D01*
X112756654Y-58200576D01*
X104849409Y-58249386D01*
X104791103Y-58230838D01*
X104754834Y-58181561D01*
X104749798Y-58150589D01*
X104749709Y-58106781D01*
X104747057Y-56800001D01*
X105691081Y-56800001D01*
X105696255Y-56832668D01*
X105708648Y-56910912D01*
X105759628Y-57010967D01*
X105839033Y-57090372D01*
X105939088Y-57141352D01*
X106034834Y-57156516D01*
X106049999Y-57158919D01*
X106050000Y-57158919D01*
X106050001Y-57158919D01*
X106063341Y-57156805D01*
X106160912Y-57141352D01*
X106260967Y-57090372D01*
X106329998Y-57021340D01*
X106384513Y-56993565D01*
X106444945Y-57003136D01*
X106470000Y-57021339D01*
X106539033Y-57090372D01*
X106639088Y-57141352D01*
X106734834Y-57156516D01*
X106749999Y-57158919D01*
X106750000Y-57158919D01*
X106750001Y-57158919D01*
X106763341Y-57156805D01*
X106860912Y-57141352D01*
X106960967Y-57090372D01*
X107040372Y-57010967D01*
X107091352Y-56910912D01*
X107108919Y-56800000D01*
X107091352Y-56689088D01*
X107040372Y-56589033D01*
X106960967Y-56509628D01*
X106960964Y-56509626D01*
X106912879Y-56485126D01*
X106860912Y-56458648D01*
X106805456Y-56449864D01*
X106750001Y-56441081D01*
X106749999Y-56441081D01*
X106639088Y-56458648D01*
X106539035Y-56509626D01*
X106539033Y-56509627D01*
X106539033Y-56509628D01*
X106470001Y-56578659D01*
X106415487Y-56606435D01*
X106355055Y-56596864D01*
X106329999Y-56578660D01*
X106260967Y-56509628D01*
X106260964Y-56509626D01*
X106212879Y-56485126D01*
X106160912Y-56458648D01*
X106105456Y-56449864D01*
X106050001Y-56441081D01*
X106049999Y-56441081D01*
X105939088Y-56458648D01*
X105839035Y-56509626D01*
X105759626Y-56589035D01*
X105708648Y-56689088D01*
X105691081Y-56799998D01*
X105691081Y-56800001D01*
X104747057Y-56800001D01*
X104746670Y-56609474D01*
X104765459Y-56551248D01*
X104800726Y-56521066D01*
X104860963Y-56490374D01*
X104860962Y-56490374D01*
X104860967Y-56490372D01*
X104940372Y-56410967D01*
X104991352Y-56310912D01*
X105008919Y-56200000D01*
X105008396Y-56196700D01*
X105004692Y-56173316D01*
X104991352Y-56089088D01*
X104940372Y-55989033D01*
X104860967Y-55909628D01*
X104860964Y-55909626D01*
X104799062Y-55878086D01*
X104755798Y-55834821D01*
X104745008Y-55790081D01*
X104740860Y-53746014D01*
X104740860Y-53512809D01*
X104759767Y-53454618D01*
X104809267Y-53418654D01*
X104870157Y-53418560D01*
X106429121Y-53919753D01*
X106429127Y-53919754D01*
X106429132Y-53919756D01*
X106441555Y-53922707D01*
X106456828Y-53926336D01*
X106487128Y-53931087D01*
X106515522Y-53933300D01*
X106515529Y-53933300D01*
X107386884Y-53933300D01*
X107445075Y-53952207D01*
X107481039Y-54001707D01*
X107485884Y-54032300D01*
X107485884Y-55805040D01*
X107500558Y-55859801D01*
X107505458Y-55878086D01*
X107506554Y-55882177D01*
X107546484Y-55951339D01*
X107546486Y-55951341D01*
X107931888Y-56336744D01*
X107959665Y-56391260D01*
X107960884Y-56406747D01*
X107960884Y-56832664D01*
X107960885Y-56832674D01*
X107971228Y-56884675D01*
X107971229Y-56884678D01*
X108010368Y-56943253D01*
X108010637Y-56943655D01*
X108030296Y-56956791D01*
X108069611Y-56983061D01*
X108069612Y-56983061D01*
X108069615Y-56983063D01*
X108121623Y-56993408D01*
X109556744Y-56993407D01*
X109556748Y-56993406D01*
X109556750Y-56993406D01*
X109573757Y-56990023D01*
X109608753Y-56983063D01*
X109667731Y-56943655D01*
X109707139Y-56884677D01*
X109717484Y-56832669D01*
X109717483Y-56511343D01*
X109736390Y-56453155D01*
X109785890Y-56417190D01*
X109847075Y-56417190D01*
X109886484Y-56441339D01*
X109902953Y-56457808D01*
X109972115Y-56497738D01*
X109972117Y-56497738D01*
X109972118Y-56497739D01*
X110010684Y-56508073D01*
X110049251Y-56518407D01*
X110049253Y-56518408D01*
X110049254Y-56518408D01*
X110061885Y-56518408D01*
X110120076Y-56537315D01*
X110156040Y-56586815D01*
X110160885Y-56617408D01*
X110160885Y-56832674D01*
X110171228Y-56884675D01*
X110171229Y-56884678D01*
X110210368Y-56943253D01*
X110210637Y-56943655D01*
X110230296Y-56956791D01*
X110269611Y-56983061D01*
X110269612Y-56983061D01*
X110269615Y-56983063D01*
X110321623Y-56993408D01*
X111756744Y-56993407D01*
X111756748Y-56993406D01*
X111756750Y-56993406D01*
X111773757Y-56990023D01*
X111808753Y-56983063D01*
X111867731Y-56943655D01*
X111907139Y-56884677D01*
X111917484Y-56832669D01*
X111917483Y-55597548D01*
X111916825Y-55594241D01*
X111907139Y-55545540D01*
X111907138Y-55545537D01*
X111867732Y-55486563D01*
X111867731Y-55486561D01*
X111867462Y-55486381D01*
X111808756Y-55447154D01*
X111808753Y-55447153D01*
X111808751Y-55447152D01*
X111808749Y-55447152D01*
X111756754Y-55436809D01*
X111756746Y-55436808D01*
X111756745Y-55436808D01*
X111756744Y-55436808D01*
X110341484Y-55436808D01*
X110283293Y-55417901D01*
X110247329Y-55368401D01*
X110242484Y-55337808D01*
X110242484Y-53976147D01*
X110261391Y-53917956D01*
X110271480Y-53906143D01*
X110330219Y-53847404D01*
X110384736Y-53819627D01*
X110400223Y-53818408D01*
X110567601Y-53818408D01*
X110567601Y-53818407D01*
X110644739Y-53797738D01*
X110679791Y-53777501D01*
X110693513Y-53769579D01*
X110693514Y-53769578D01*
X110713901Y-53757808D01*
X111167134Y-53304575D01*
X111207064Y-53235413D01*
X111213577Y-53211107D01*
X111227734Y-53158274D01*
X111227734Y-52647570D01*
X111227734Y-52639596D01*
X111227733Y-52639582D01*
X111227733Y-52411500D01*
X111246640Y-52353309D01*
X111296140Y-52317345D01*
X111326733Y-52312500D01*
X111522134Y-52312500D01*
X111580325Y-52331407D01*
X111616289Y-52380907D01*
X111621134Y-52411500D01*
X111621134Y-53061215D01*
X111621135Y-53061222D01*
X111635104Y-53131455D01*
X111635105Y-53131457D01*
X111688324Y-53211103D01*
X111688327Y-53211107D01*
X111688330Y-53211109D01*
X111721687Y-53233398D01*
X111745885Y-53256313D01*
X112376551Y-54097200D01*
X112396340Y-54155097D01*
X112396351Y-54156600D01*
X112396351Y-54905123D01*
X112391506Y-54935713D01*
X112391309Y-54936316D01*
X112376351Y-55030759D01*
X112376351Y-55594240D01*
X112376352Y-55594241D01*
X112391307Y-55688676D01*
X112391309Y-55688680D01*
X112449308Y-55802509D01*
X112539642Y-55892843D01*
X112653469Y-55950841D01*
X112653471Y-55950842D01*
X112747912Y-55965800D01*
X113261389Y-55965799D01*
X113261391Y-55965799D01*
X113261391Y-55965798D01*
X113316998Y-55956991D01*
X113355827Y-55950843D01*
X113355828Y-55950842D01*
X113355831Y-55950842D01*
X113469660Y-55892843D01*
X113559994Y-55802509D01*
X113617993Y-55688680D01*
X113632951Y-55594239D01*
X113632951Y-55530056D01*
X119051351Y-55530056D01*
X119051352Y-55530066D01*
X119061695Y-55582067D01*
X119061696Y-55582070D01*
X119100835Y-55640645D01*
X119101104Y-55641047D01*
X119120763Y-55654183D01*
X119160078Y-55680453D01*
X119160079Y-55680453D01*
X119160082Y-55680455D01*
X119212090Y-55690800D01*
X119847211Y-55690799D01*
X119847215Y-55690798D01*
X119847217Y-55690798D01*
X119864224Y-55687415D01*
X119899220Y-55680455D01*
X119958198Y-55641047D01*
X119997606Y-55582069D01*
X120007951Y-55530061D01*
X120007951Y-55530056D01*
X120651351Y-55530056D01*
X120651352Y-55530066D01*
X120661695Y-55582067D01*
X120661696Y-55582070D01*
X120700835Y-55640645D01*
X120701104Y-55641047D01*
X120720763Y-55654183D01*
X120760078Y-55680453D01*
X120760079Y-55680453D01*
X120760082Y-55680455D01*
X120812090Y-55690800D01*
X121447211Y-55690799D01*
X121447215Y-55690798D01*
X121447217Y-55690798D01*
X121464224Y-55687415D01*
X121499220Y-55680455D01*
X121558198Y-55641047D01*
X121597606Y-55582069D01*
X121607951Y-55530061D01*
X121607950Y-54894940D01*
X121597606Y-54842931D01*
X121597603Y-54842927D01*
X121562772Y-54790799D01*
X121558198Y-54783953D01*
X121552963Y-54780455D01*
X121499223Y-54744546D01*
X121499220Y-54744545D01*
X121499218Y-54744544D01*
X121499216Y-54744544D01*
X121447221Y-54734201D01*
X121447213Y-54734200D01*
X121447212Y-54734200D01*
X121447211Y-54734200D01*
X120812094Y-54734200D01*
X120812084Y-54734201D01*
X120760083Y-54744544D01*
X120760080Y-54744545D01*
X120701106Y-54783951D01*
X120701102Y-54783955D01*
X120661697Y-54842927D01*
X120661695Y-54842934D01*
X120651352Y-54894929D01*
X120651351Y-54894939D01*
X120651351Y-55530056D01*
X120007951Y-55530056D01*
X120007950Y-54894940D01*
X119997606Y-54842931D01*
X119997603Y-54842927D01*
X119962772Y-54790799D01*
X119958198Y-54783953D01*
X119952963Y-54780455D01*
X119899223Y-54744546D01*
X119899220Y-54744545D01*
X119899218Y-54744544D01*
X119899216Y-54744544D01*
X119847221Y-54734201D01*
X119847213Y-54734200D01*
X119847212Y-54734200D01*
X119847211Y-54734200D01*
X119212094Y-54734200D01*
X119212084Y-54734201D01*
X119160083Y-54744544D01*
X119160080Y-54744545D01*
X119101106Y-54783951D01*
X119101102Y-54783955D01*
X119061697Y-54842927D01*
X119061695Y-54842934D01*
X119051352Y-54894929D01*
X119051351Y-54894939D01*
X119051351Y-55530056D01*
X113632951Y-55530056D01*
X113632950Y-55030762D01*
X113617993Y-54936320D01*
X113617993Y-54936318D01*
X113617796Y-54935711D01*
X113612951Y-54905121D01*
X113612951Y-54630056D01*
X117551351Y-54630056D01*
X117551352Y-54630066D01*
X117561695Y-54682067D01*
X117561696Y-54682070D01*
X117574345Y-54701000D01*
X117601104Y-54741047D01*
X117606338Y-54744544D01*
X117660078Y-54780453D01*
X117660079Y-54780453D01*
X117660082Y-54780455D01*
X117712090Y-54790800D01*
X118347211Y-54790799D01*
X118347215Y-54790798D01*
X118347217Y-54790798D01*
X118364224Y-54787415D01*
X118399220Y-54780455D01*
X118458198Y-54741047D01*
X118497606Y-54682069D01*
X118507951Y-54630061D01*
X118507951Y-54630056D01*
X122151351Y-54630056D01*
X122151352Y-54630066D01*
X122161695Y-54682067D01*
X122161696Y-54682070D01*
X122174345Y-54701000D01*
X122201104Y-54741047D01*
X122206338Y-54744544D01*
X122260078Y-54780453D01*
X122260079Y-54780453D01*
X122260082Y-54780455D01*
X122312090Y-54790800D01*
X122947211Y-54790799D01*
X122947215Y-54790798D01*
X122947217Y-54790798D01*
X122964224Y-54787415D01*
X122999220Y-54780455D01*
X123058198Y-54741047D01*
X123097606Y-54682069D01*
X123107951Y-54630061D01*
X123107950Y-53994940D01*
X123097606Y-53942931D01*
X123097603Y-53942927D01*
X123066113Y-53895799D01*
X123058198Y-53883953D01*
X123057929Y-53883773D01*
X122999223Y-53844546D01*
X122999220Y-53844545D01*
X122999218Y-53844544D01*
X122999216Y-53844544D01*
X122947221Y-53834201D01*
X122947213Y-53834200D01*
X122947212Y-53834200D01*
X122947211Y-53834200D01*
X122312094Y-53834200D01*
X122312084Y-53834201D01*
X122260083Y-53844544D01*
X122260080Y-53844545D01*
X122201106Y-53883951D01*
X122201102Y-53883955D01*
X122161697Y-53942927D01*
X122161695Y-53942934D01*
X122151352Y-53994929D01*
X122151351Y-53994939D01*
X122151351Y-54630056D01*
X118507951Y-54630056D01*
X118507950Y-53994940D01*
X118497606Y-53942931D01*
X118497603Y-53942927D01*
X118466113Y-53895799D01*
X118458198Y-53883953D01*
X118457929Y-53883773D01*
X118399223Y-53844546D01*
X118399220Y-53844545D01*
X118399218Y-53844544D01*
X118399216Y-53844544D01*
X118347221Y-53834201D01*
X118347213Y-53834200D01*
X118347212Y-53834200D01*
X118347211Y-53834200D01*
X117712094Y-53834200D01*
X117712084Y-53834201D01*
X117660083Y-53844544D01*
X117660080Y-53844545D01*
X117601106Y-53883951D01*
X117601102Y-53883955D01*
X117561697Y-53942927D01*
X117561695Y-53942934D01*
X117551352Y-53994929D01*
X117551351Y-53994939D01*
X117551351Y-54630056D01*
X113612951Y-54630056D01*
X113612951Y-53986321D01*
X113631858Y-53928130D01*
X113681358Y-53892166D01*
X113727438Y-53888540D01*
X113773275Y-53895800D01*
X113773278Y-53895800D01*
X114738146Y-53895800D01*
X114752379Y-53897701D01*
X114752433Y-53897243D01*
X114759830Y-53898101D01*
X114783095Y-53900800D01*
X115066207Y-53900800D01*
X115089472Y-53898101D01*
X115089471Y-53898101D01*
X115096869Y-53897243D01*
X115096922Y-53897701D01*
X115111156Y-53895800D01*
X115816207Y-53895800D01*
X115839472Y-53893101D01*
X115934653Y-53851074D01*
X115952950Y-53832775D01*
X115964771Y-53822682D01*
X115968470Y-53819995D01*
X115968470Y-53819994D01*
X115968485Y-53819984D01*
X115988782Y-53802859D01*
X115992452Y-53796949D01*
X116006550Y-53779176D01*
X116008225Y-53777502D01*
X116014500Y-53763287D01*
X116020966Y-53751044D01*
X116035072Y-53728334D01*
X116035073Y-53728333D01*
X116047824Y-53689083D01*
X116049859Y-53683761D01*
X116050249Y-53682325D01*
X116050252Y-53682321D01*
X116050252Y-53682315D01*
X116050803Y-53680295D01*
X116052176Y-53675694D01*
X116053980Y-53670141D01*
X116053981Y-53670136D01*
X116062951Y-53613503D01*
X116062951Y-53361506D01*
X116062951Y-53361500D01*
X116060695Y-53332828D01*
X116055850Y-53302235D01*
X116023099Y-53223166D01*
X116023095Y-53223160D01*
X116023093Y-53223157D01*
X116020282Y-53219288D01*
X116009807Y-53201082D01*
X116008225Y-53197498D01*
X115999928Y-53189201D01*
X115989838Y-53177386D01*
X115987142Y-53173676D01*
X115987135Y-53173666D01*
X115974148Y-53158274D01*
X115970010Y-53153369D01*
X115964097Y-53149696D01*
X115946332Y-53135604D01*
X115934654Y-53123927D01*
X115934653Y-53123926D01*
X115839472Y-53081899D01*
X115839469Y-53081898D01*
X115816213Y-53079200D01*
X115816207Y-53079200D01*
X115533095Y-53079200D01*
X114796583Y-53079200D01*
X114738392Y-53060293D01*
X114726580Y-53050204D01*
X114488269Y-52811894D01*
X114488258Y-52811883D01*
X114477694Y-52802117D01*
X114465882Y-52792028D01*
X114465880Y-52792027D01*
X114465881Y-52792027D01*
X114403474Y-52757077D01*
X114345282Y-52738170D01*
X114345285Y-52738170D01*
X114288646Y-52729200D01*
X114288643Y-52729200D01*
X114265022Y-52729200D01*
X114206831Y-52710293D01*
X114170867Y-52660793D01*
X114170867Y-52599607D01*
X114195019Y-52560196D01*
X114211113Y-52544102D01*
X114240461Y-52514754D01*
X114240463Y-52514748D01*
X114245427Y-52507661D01*
X114245662Y-52507825D01*
X114253363Y-52495915D01*
X114286414Y-52457605D01*
X114291386Y-52452255D01*
X114338802Y-52404908D01*
X114345113Y-52399135D01*
X114388160Y-52363066D01*
X114396203Y-52356999D01*
X114420122Y-52340799D01*
X114422463Y-52339212D01*
X114481245Y-52322235D01*
X114515867Y-52329718D01*
X114517645Y-52330454D01*
X114517647Y-52330454D01*
X114517648Y-52330455D01*
X114569656Y-52340800D01*
X115204777Y-52340799D01*
X115204781Y-52340798D01*
X115204783Y-52340798D01*
X115221790Y-52337415D01*
X115256786Y-52330455D01*
X115283657Y-52312500D01*
X116037217Y-52312500D01*
X116037217Y-52712500D01*
X116037218Y-52712500D01*
X116437216Y-52712500D01*
X116437217Y-52712500D01*
X116437217Y-52312500D01*
X116037217Y-52312500D01*
X115283657Y-52312500D01*
X115315764Y-52291047D01*
X115355172Y-52232069D01*
X115365517Y-52180061D01*
X115365516Y-51844940D01*
X115365238Y-51843544D01*
X115356145Y-51797825D01*
X115355172Y-51792931D01*
X115354144Y-51791393D01*
X115335468Y-51763442D01*
X115315764Y-51733953D01*
X115312057Y-51731476D01*
X115256789Y-51694546D01*
X115256786Y-51694545D01*
X115256784Y-51694544D01*
X115256782Y-51694544D01*
X115204787Y-51684201D01*
X115204779Y-51684200D01*
X115204778Y-51684200D01*
X115204777Y-51684200D01*
X114569660Y-51684200D01*
X114569650Y-51684201D01*
X114517650Y-51694544D01*
X114508639Y-51698277D01*
X114507864Y-51696405D01*
X114465684Y-51709200D01*
X114052106Y-51709200D01*
X114039184Y-51708353D01*
X114007639Y-51704200D01*
X114007529Y-51704200D01*
X113996085Y-51703536D01*
X113990372Y-51702871D01*
X113976557Y-51701263D01*
X113969652Y-51701314D01*
X113939236Y-51696760D01*
X113886100Y-51680056D01*
X115808917Y-51680056D01*
X115808918Y-51680066D01*
X115819261Y-51732067D01*
X115819262Y-51732070D01*
X115840524Y-51763890D01*
X115858670Y-51791047D01*
X115863784Y-51794464D01*
X115917644Y-51830453D01*
X115917645Y-51830453D01*
X115917648Y-51830455D01*
X115969656Y-51840800D01*
X116549397Y-51840799D01*
X116565520Y-51842121D01*
X116566052Y-51842208D01*
X116567660Y-51842474D01*
X116571691Y-51841874D01*
X116586247Y-51840799D01*
X116604773Y-51840799D01*
X116604777Y-51840799D01*
X116604781Y-51840798D01*
X116604783Y-51840798D01*
X116622078Y-51837358D01*
X116656786Y-51830455D01*
X116656787Y-51830454D01*
X116656788Y-51830454D01*
X116685791Y-51811074D01*
X116744678Y-51794464D01*
X116750496Y-51794865D01*
X116761256Y-51795924D01*
X116780556Y-51797825D01*
X116799585Y-51801610D01*
X116917443Y-51837360D01*
X116935362Y-51844782D01*
X117043984Y-51902839D01*
X117060117Y-51913618D01*
X117157429Y-51993478D01*
X117159014Y-51994779D01*
X117166214Y-52001304D01*
X117483559Y-52318649D01*
X117511336Y-52373166D01*
X117512069Y-52378852D01*
X117519640Y-52454949D01*
X117519747Y-52456100D01*
X117528630Y-52557379D01*
X117528706Y-52558290D01*
X117537675Y-52672675D01*
X117537730Y-52673411D01*
X117545824Y-52787542D01*
X117547655Y-52803462D01*
X117548912Y-52811332D01*
X117548585Y-52811384D01*
X117551351Y-52831143D01*
X117551351Y-53030056D01*
X117551352Y-53030066D01*
X117561695Y-53082067D01*
X117561696Y-53082070D01*
X117597467Y-53135604D01*
X117601104Y-53141047D01*
X117603879Y-53142901D01*
X117660078Y-53180453D01*
X117660079Y-53180453D01*
X117660082Y-53180455D01*
X117712090Y-53190800D01*
X118347211Y-53190799D01*
X118347215Y-53190798D01*
X118347217Y-53190798D01*
X118364224Y-53187415D01*
X118399220Y-53180455D01*
X118458198Y-53141047D01*
X118497606Y-53082069D01*
X118507951Y-53030061D01*
X118507950Y-52394940D01*
X118503619Y-52373166D01*
X118499670Y-52353309D01*
X118497606Y-52342931D01*
X118496181Y-52340799D01*
X118471892Y-52304447D01*
X118458198Y-52283953D01*
X118436342Y-52269349D01*
X118399223Y-52244546D01*
X118399220Y-52244545D01*
X118399218Y-52244544D01*
X118399216Y-52244544D01*
X118347222Y-52234201D01*
X118347212Y-52234200D01*
X118347211Y-52234200D01*
X118274496Y-52234200D01*
X118238023Y-52227237D01*
X118214212Y-52217801D01*
X118202691Y-52212352D01*
X118154320Y-52185541D01*
X118144880Y-52179590D01*
X118090822Y-52141087D01*
X118083278Y-52135141D01*
X118024238Y-52083761D01*
X118018293Y-52078137D01*
X117956397Y-52014493D01*
X117942998Y-52005404D01*
X117928568Y-51993478D01*
X117590040Y-51654950D01*
X117590032Y-51654940D01*
X117576939Y-51641847D01*
X117576926Y-51641822D01*
X117547942Y-51612839D01*
X117547943Y-51612839D01*
X117477138Y-51542036D01*
X117477134Y-51542033D01*
X117477133Y-51542032D01*
X117323008Y-51430056D01*
X122151351Y-51430056D01*
X122151352Y-51430066D01*
X122161695Y-51482067D01*
X122161696Y-51482070D01*
X122194037Y-51530470D01*
X122201104Y-51541047D01*
X122203457Y-51542619D01*
X122260078Y-51580453D01*
X122260079Y-51580453D01*
X122260082Y-51580455D01*
X122312090Y-51590800D01*
X122947211Y-51590799D01*
X122947215Y-51590798D01*
X122947217Y-51590798D01*
X122964224Y-51587415D01*
X122999220Y-51580455D01*
X123058198Y-51541047D01*
X123058200Y-51541043D01*
X123059101Y-51540143D01*
X123067052Y-51533452D01*
X123066992Y-51533383D01*
X123070668Y-51530211D01*
X123070670Y-51530208D01*
X123070674Y-51530206D01*
X123113206Y-51485521D01*
X123119963Y-51479066D01*
X123157758Y-51446236D01*
X123166617Y-51439381D01*
X123197767Y-51417990D01*
X123209166Y-51411240D01*
X123232657Y-51399385D01*
X123246827Y-51393565D01*
X123259168Y-51389582D01*
X123289568Y-51384800D01*
X123605235Y-51384800D01*
X123663426Y-51403707D01*
X123675238Y-51413796D01*
X123721256Y-51459813D01*
X123719267Y-51461801D01*
X123747266Y-51502513D01*
X123751351Y-51530658D01*
X123751351Y-51630055D01*
X123751352Y-51630066D01*
X123761695Y-51682067D01*
X123761696Y-51682070D01*
X123780807Y-51710671D01*
X123801104Y-51741047D01*
X123820763Y-51754183D01*
X123860078Y-51780453D01*
X123860079Y-51780453D01*
X123860082Y-51780455D01*
X123912090Y-51790800D01*
X124947211Y-51790799D01*
X124947215Y-51790798D01*
X124947217Y-51790798D01*
X124964224Y-51787415D01*
X124999220Y-51780455D01*
X125058198Y-51741047D01*
X125097606Y-51682069D01*
X125107951Y-51630061D01*
X125107950Y-50594940D01*
X125107182Y-50591081D01*
X125101086Y-50560428D01*
X125097606Y-50542931D01*
X125097603Y-50542927D01*
X125058199Y-50483955D01*
X125058198Y-50483953D01*
X125057929Y-50483773D01*
X124999223Y-50444546D01*
X124999220Y-50444545D01*
X124999218Y-50444544D01*
X124999216Y-50444544D01*
X124947221Y-50434201D01*
X124947213Y-50434200D01*
X124947212Y-50434200D01*
X124947211Y-50434200D01*
X123912094Y-50434200D01*
X123912084Y-50434201D01*
X123860083Y-50444544D01*
X123860080Y-50444545D01*
X123801106Y-50483951D01*
X123801102Y-50483955D01*
X123761697Y-50542927D01*
X123761695Y-50542934D01*
X123751352Y-50594928D01*
X123751351Y-50594940D01*
X123751351Y-50694339D01*
X123732444Y-50752530D01*
X123720679Y-50764610D01*
X123721256Y-50765187D01*
X123675239Y-50811204D01*
X123620722Y-50838981D01*
X123605235Y-50840200D01*
X123289573Y-50840200D01*
X123259160Y-50835413D01*
X123246840Y-50831436D01*
X123232649Y-50825606D01*
X123231817Y-50825186D01*
X123209176Y-50813759D01*
X123197751Y-50806995D01*
X123174523Y-50791044D01*
X123166629Y-50785623D01*
X123157750Y-50778754D01*
X123147413Y-50769775D01*
X123119956Y-50745925D01*
X123113188Y-50739457D01*
X123070661Y-50694780D01*
X123070234Y-50694339D01*
X123068604Y-50692653D01*
X123068424Y-50692470D01*
X123064625Y-50689309D01*
X123064803Y-50689095D01*
X123060150Y-50685257D01*
X122999223Y-50644547D01*
X122999222Y-50644546D01*
X122999220Y-50644545D01*
X122999216Y-50644544D01*
X122947221Y-50634201D01*
X122947213Y-50634200D01*
X122947212Y-50634200D01*
X122947211Y-50634200D01*
X122312094Y-50634200D01*
X122312084Y-50634201D01*
X122260083Y-50644544D01*
X122260080Y-50644545D01*
X122201106Y-50683951D01*
X122201102Y-50683955D01*
X122161697Y-50742927D01*
X122161695Y-50742934D01*
X122151352Y-50794929D01*
X122151351Y-50794939D01*
X122151351Y-51430056D01*
X117323008Y-51430056D01*
X117315120Y-51424325D01*
X117136681Y-51333408D01*
X117136676Y-51333406D01*
X116946213Y-51271524D01*
X116744573Y-51239590D01*
X116744842Y-51237885D01*
X116698677Y-51220021D01*
X116688556Y-51212183D01*
X116688552Y-51212180D01*
X116688550Y-51212179D01*
X116684128Y-51209484D01*
X116666060Y-51200050D01*
X116656880Y-51194608D01*
X116656787Y-51194546D01*
X116656788Y-51194546D01*
X116656786Y-51194545D01*
X116656783Y-51194544D01*
X116656782Y-51194544D01*
X116604788Y-51184201D01*
X116604778Y-51184200D01*
X116604777Y-51184200D01*
X116590925Y-51184200D01*
X116582209Y-51183442D01*
X116582209Y-51183447D01*
X116576231Y-51183132D01*
X116564008Y-51183969D01*
X116557250Y-51184200D01*
X115969660Y-51184200D01*
X115969650Y-51184201D01*
X115917649Y-51194544D01*
X115917646Y-51194545D01*
X115858672Y-51233951D01*
X115858668Y-51233955D01*
X115819263Y-51292927D01*
X115819261Y-51292934D01*
X115808918Y-51344929D01*
X115808917Y-51344939D01*
X115808917Y-51680056D01*
X113886100Y-51680056D01*
X113884201Y-51679459D01*
X113875970Y-51676465D01*
X113824074Y-51654940D01*
X113796684Y-51643579D01*
X113789274Y-51640140D01*
X113707602Y-51598064D01*
X113701044Y-51594363D01*
X113616988Y-51542619D01*
X113611253Y-51538808D01*
X113527419Y-51478784D01*
X113525020Y-51477096D01*
X113524672Y-51476855D01*
X113524670Y-51476854D01*
X113520202Y-51474962D01*
X113473991Y-51434859D01*
X113460179Y-51375253D01*
X113484039Y-51318912D01*
X113536459Y-51287356D01*
X113558809Y-51284800D01*
X114390407Y-51284800D01*
X114415143Y-51289106D01*
X114415398Y-51288093D01*
X114420108Y-51289277D01*
X114420110Y-51289277D01*
X114420115Y-51289279D01*
X114425141Y-51290029D01*
X114435548Y-51292159D01*
X114436968Y-51292530D01*
X114446563Y-51295566D01*
X114450603Y-51297074D01*
X114459203Y-51300755D01*
X114466191Y-51304147D01*
X114473715Y-51308212D01*
X114487722Y-51316579D01*
X114487724Y-51316580D01*
X114505118Y-51325742D01*
X114505121Y-51325743D01*
X114505128Y-51325747D01*
X114507413Y-51326798D01*
X114510324Y-51328106D01*
X114510337Y-51328108D01*
X114512127Y-51328657D01*
X114516489Y-51330224D01*
X114517646Y-51330454D01*
X114517648Y-51330455D01*
X114569656Y-51340800D01*
X114574839Y-51340799D01*
X114591787Y-51342260D01*
X114596762Y-51343125D01*
X114605695Y-51342502D01*
X114605697Y-51342501D01*
X114605702Y-51342501D01*
X114607539Y-51342190D01*
X114624074Y-51340799D01*
X115204773Y-51340799D01*
X115204777Y-51340799D01*
X115204781Y-51340798D01*
X115204783Y-51340798D01*
X115221790Y-51337415D01*
X115256786Y-51330455D01*
X115315764Y-51291047D01*
X115355172Y-51232069D01*
X115365517Y-51180061D01*
X115365516Y-50844940D01*
X115365433Y-50844525D01*
X115353270Y-50783367D01*
X115356866Y-50782651D01*
X115353632Y-50741704D01*
X115353269Y-50741632D01*
X115353525Y-50740342D01*
X115353452Y-50739413D01*
X115354117Y-50737366D01*
X115355170Y-50732071D01*
X115355172Y-50732069D01*
X115365517Y-50680061D01*
X115365516Y-50344940D01*
X115365238Y-50343544D01*
X115355232Y-50293232D01*
X115355172Y-50292931D01*
X115355169Y-50292927D01*
X115329452Y-50254438D01*
X115315764Y-50233953D01*
X115309047Y-50229465D01*
X115256789Y-50194546D01*
X115256786Y-50194545D01*
X115256784Y-50194544D01*
X115256782Y-50194544D01*
X115204788Y-50184201D01*
X115204778Y-50184200D01*
X115204777Y-50184200D01*
X114579929Y-50184200D01*
X114570452Y-50183745D01*
X114563974Y-50183122D01*
X114555114Y-50184421D01*
X114555113Y-50184422D01*
X114544919Y-50188051D01*
X114531036Y-50191881D01*
X114517650Y-50194544D01*
X114517643Y-50194546D01*
X114517540Y-50194616D01*
X114495772Y-50205551D01*
X114487733Y-50208414D01*
X114487708Y-50208426D01*
X114473710Y-50216786D01*
X114466186Y-50220850D01*
X114459201Y-50224241D01*
X114450580Y-50227932D01*
X114446558Y-50229433D01*
X114436979Y-50232464D01*
X114435552Y-50232837D01*
X114425152Y-50234967D01*
X114420119Y-50235719D01*
X114416271Y-50236612D01*
X114416185Y-50236244D01*
X114390666Y-50240200D01*
X113189091Y-50240200D01*
X113160017Y-50235834D01*
X113157546Y-50235075D01*
X113157544Y-50235074D01*
X113157542Y-50235074D01*
X113144709Y-50233764D01*
X113139006Y-50233013D01*
X113123540Y-50230519D01*
X113118008Y-50229465D01*
X113101998Y-50225939D01*
X113096686Y-50224613D01*
X113080025Y-50219960D01*
X113074954Y-50218395D01*
X113072139Y-50217443D01*
X113065078Y-50213965D01*
X113064898Y-50214402D01*
X113055889Y-50210670D01*
X112985655Y-50196700D01*
X112328651Y-50196700D01*
X112270460Y-50177793D01*
X112234496Y-50128293D01*
X112229651Y-50097700D01*
X112229651Y-49902299D01*
X112248558Y-49844108D01*
X112298058Y-49808144D01*
X112328646Y-49803299D01*
X112560472Y-49803299D01*
X112560482Y-49803300D01*
X112572004Y-49803300D01*
X112663387Y-49803300D01*
X112663395Y-49803299D01*
X112985650Y-49803299D01*
X112985652Y-49803299D01*
X113055890Y-49789329D01*
X113135541Y-49736107D01*
X113188763Y-49656456D01*
X113202734Y-49586219D01*
X113202733Y-49413782D01*
X113188763Y-49343544D01*
X113135541Y-49263893D01*
X113131080Y-49260912D01*
X113055892Y-49210672D01*
X113055890Y-49210671D01*
X113055887Y-49210670D01*
X113055886Y-49210670D01*
X112994919Y-49198542D01*
X112941535Y-49168645D01*
X112932940Y-49150000D01*
X113441081Y-49150000D01*
X113458648Y-49260912D01*
X113485126Y-49312879D01*
X113509625Y-49360963D01*
X113509628Y-49360967D01*
X113589033Y-49440372D01*
X113689088Y-49491352D01*
X113784834Y-49506516D01*
X113799999Y-49508919D01*
X113800000Y-49508919D01*
X113800001Y-49508919D01*
X113813341Y-49506805D01*
X113910912Y-49491352D01*
X114010967Y-49440372D01*
X114090372Y-49360967D01*
X114141352Y-49260912D01*
X114141352Y-49260905D01*
X114143759Y-49253503D01*
X114146155Y-49254281D01*
X114167430Y-49212500D01*
X114879651Y-49212500D01*
X114879651Y-49612500D01*
X114879652Y-49612500D01*
X115279650Y-49612500D01*
X115279651Y-49612500D01*
X115279651Y-49212500D01*
X115929651Y-49212500D01*
X115929651Y-49612500D01*
X115929652Y-49612500D01*
X116329650Y-49612500D01*
X116329651Y-49612500D01*
X116329651Y-49212500D01*
X115929651Y-49212500D01*
X115279651Y-49212500D01*
X114879651Y-49212500D01*
X114167430Y-49212500D01*
X114168468Y-49210461D01*
X114434135Y-48944796D01*
X114488651Y-48917019D01*
X114504138Y-48915800D01*
X117530250Y-48915800D01*
X117588441Y-48934707D01*
X117624405Y-48984207D01*
X117624405Y-49045393D01*
X117605969Y-49075477D01*
X117606521Y-49075846D01*
X117561697Y-49142927D01*
X117561695Y-49142934D01*
X117551352Y-49194928D01*
X117551351Y-49194940D01*
X117551351Y-49811972D01*
X117550228Y-49826408D01*
X117550209Y-49826971D01*
X117550980Y-49835890D01*
X117554647Y-49848517D01*
X117556672Y-49856814D01*
X117561873Y-49882965D01*
X117554680Y-49943726D01*
X117534779Y-49972279D01*
X117489210Y-50017849D01*
X117489200Y-50017857D01*
X117489201Y-50017858D01*
X117455234Y-50051826D01*
X117448036Y-50058350D01*
X117349055Y-50139585D01*
X117332919Y-50150367D01*
X117224308Y-50208425D01*
X117206379Y-50215852D01*
X117088527Y-50251607D01*
X117069492Y-50255394D01*
X116942332Y-50267923D01*
X116932625Y-50268400D01*
X116791218Y-50268400D01*
X116733027Y-50249493D01*
X116721214Y-50239404D01*
X116715765Y-50233955D01*
X116715764Y-50233953D01*
X116709047Y-50229465D01*
X116656789Y-50194546D01*
X116656786Y-50194545D01*
X116656784Y-50194544D01*
X116656782Y-50194544D01*
X116604787Y-50184201D01*
X116604779Y-50184200D01*
X116604778Y-50184200D01*
X116604777Y-50184200D01*
X115969660Y-50184200D01*
X115969650Y-50184201D01*
X115917649Y-50194544D01*
X115917646Y-50194545D01*
X115858672Y-50233951D01*
X115858668Y-50233955D01*
X115819263Y-50292927D01*
X115819261Y-50292934D01*
X115808918Y-50344929D01*
X115808917Y-50344939D01*
X115808917Y-50680056D01*
X115808918Y-50680066D01*
X115819261Y-50732067D01*
X115819262Y-50732070D01*
X115839595Y-50762500D01*
X115858670Y-50791047D01*
X115861490Y-50792931D01*
X115917644Y-50830453D01*
X115917645Y-50830453D01*
X115917648Y-50830455D01*
X115969656Y-50840800D01*
X116558235Y-50840799D01*
X116579563Y-50843123D01*
X116582410Y-50843752D01*
X116591365Y-50843789D01*
X116661565Y-50830127D01*
X116673651Y-50825178D01*
X116682954Y-50821902D01*
X116684762Y-50821365D01*
X116716780Y-50817346D01*
X116717990Y-50817393D01*
X116721406Y-50817493D01*
X116721863Y-50817502D01*
X116721863Y-50817501D01*
X116721868Y-50817502D01*
X116736646Y-50814715D01*
X116754993Y-50813000D01*
X116879780Y-50813000D01*
X116879800Y-50813001D01*
X116889231Y-50813001D01*
X116889233Y-50813002D01*
X116896212Y-50813001D01*
X116896293Y-50813027D01*
X116937247Y-50813025D01*
X116937247Y-50813026D01*
X117037380Y-50813022D01*
X117235179Y-50781687D01*
X117235184Y-50781685D01*
X117235186Y-50781685D01*
X117285955Y-50765187D01*
X117425641Y-50719795D01*
X117604076Y-50628871D01*
X117766091Y-50511153D01*
X117836894Y-50440347D01*
X117870845Y-50406396D01*
X117917613Y-50359627D01*
X118048418Y-50228822D01*
X118053848Y-50223786D01*
X118071813Y-50208340D01*
X118078615Y-50199650D01*
X118086554Y-50190686D01*
X118257447Y-50019795D01*
X118311964Y-49992018D01*
X118327450Y-49990799D01*
X118347207Y-49990799D01*
X118347211Y-49990799D01*
X118347215Y-49990798D01*
X118347217Y-49990798D01*
X118364224Y-49987415D01*
X118399220Y-49980455D01*
X118458198Y-49941047D01*
X118497606Y-49882069D01*
X118507951Y-49830061D01*
X118507951Y-49830056D01*
X122151351Y-49830056D01*
X122151352Y-49830066D01*
X122161695Y-49882067D01*
X122161696Y-49882070D01*
X122191218Y-49926252D01*
X122201104Y-49941047D01*
X122220763Y-49954183D01*
X122260078Y-49980453D01*
X122260079Y-49980453D01*
X122260082Y-49980455D01*
X122312090Y-49990800D01*
X122947211Y-49990799D01*
X122947215Y-49990798D01*
X122947217Y-49990798D01*
X122964224Y-49987415D01*
X122999220Y-49980455D01*
X123058198Y-49941047D01*
X123097606Y-49882069D01*
X123107951Y-49830061D01*
X123107950Y-49194940D01*
X123106215Y-49186218D01*
X123099012Y-49150000D01*
X123097606Y-49142931D01*
X123097603Y-49142927D01*
X123062772Y-49090799D01*
X123058198Y-49083953D01*
X123052963Y-49080455D01*
X122999223Y-49044546D01*
X122999220Y-49044545D01*
X122999218Y-49044544D01*
X122999216Y-49044544D01*
X122947221Y-49034201D01*
X122947213Y-49034200D01*
X122947212Y-49034200D01*
X122947211Y-49034200D01*
X122312094Y-49034200D01*
X122312084Y-49034201D01*
X122260083Y-49044544D01*
X122260080Y-49044545D01*
X122201106Y-49083951D01*
X122201102Y-49083955D01*
X122161697Y-49142927D01*
X122161695Y-49142934D01*
X122151352Y-49194929D01*
X122151351Y-49194939D01*
X122151351Y-49830056D01*
X118507951Y-49830056D01*
X118507950Y-49194940D01*
X118506215Y-49186218D01*
X118499012Y-49150000D01*
X118497606Y-49142931D01*
X118497603Y-49142927D01*
X118452781Y-49075846D01*
X118454051Y-49074997D01*
X118431271Y-49030287D01*
X118440842Y-48969855D01*
X118484107Y-48926590D01*
X118529052Y-48915800D01*
X118968097Y-48915800D01*
X119026288Y-48934707D01*
X119059562Y-48976917D01*
X119061696Y-48982069D01*
X119101104Y-49041047D01*
X119117903Y-49052272D01*
X119160078Y-49080453D01*
X119160079Y-49080453D01*
X119160082Y-49080455D01*
X119212090Y-49090800D01*
X119847211Y-49090799D01*
X119847215Y-49090798D01*
X119847217Y-49090798D01*
X119864224Y-49087415D01*
X119899220Y-49080455D01*
X119958198Y-49041047D01*
X119997606Y-48982069D01*
X120007951Y-48930061D01*
X120007951Y-48930056D01*
X120651351Y-48930056D01*
X120651352Y-48930066D01*
X120661695Y-48982067D01*
X120661696Y-48982070D01*
X120693914Y-49030287D01*
X120701104Y-49041047D01*
X120717903Y-49052272D01*
X120760078Y-49080453D01*
X120760079Y-49080453D01*
X120760082Y-49080455D01*
X120812090Y-49090800D01*
X121447211Y-49090799D01*
X121447215Y-49090798D01*
X121447217Y-49090798D01*
X121464224Y-49087415D01*
X121499220Y-49080455D01*
X121558198Y-49041047D01*
X121597606Y-48982069D01*
X121607951Y-48930061D01*
X121607950Y-48294940D01*
X121607884Y-48294610D01*
X121598631Y-48248083D01*
X121597606Y-48242931D01*
X121597603Y-48242927D01*
X121559591Y-48186038D01*
X121558198Y-48183953D01*
X121547845Y-48177035D01*
X121499223Y-48144546D01*
X121499220Y-48144545D01*
X121499218Y-48144544D01*
X121499216Y-48144544D01*
X121447221Y-48134201D01*
X121447213Y-48134200D01*
X121447212Y-48134200D01*
X121447211Y-48134200D01*
X120812094Y-48134200D01*
X120812084Y-48134201D01*
X120760083Y-48144544D01*
X120760080Y-48144545D01*
X120701106Y-48183951D01*
X120701102Y-48183955D01*
X120661697Y-48242927D01*
X120661695Y-48242934D01*
X120651352Y-48294929D01*
X120651351Y-48294939D01*
X120651351Y-48930056D01*
X120007951Y-48930056D01*
X120007950Y-48294940D01*
X120007884Y-48294610D01*
X119998631Y-48248083D01*
X119997606Y-48242931D01*
X119997603Y-48242927D01*
X119959591Y-48186038D01*
X119958198Y-48183953D01*
X119947845Y-48177035D01*
X119899223Y-48144546D01*
X119899220Y-48144545D01*
X119899218Y-48144544D01*
X119899216Y-48144544D01*
X119847221Y-48134201D01*
X119847213Y-48134200D01*
X119847212Y-48134200D01*
X119847211Y-48134200D01*
X119212094Y-48134200D01*
X119212084Y-48134201D01*
X119160083Y-48144544D01*
X119160080Y-48144545D01*
X119101106Y-48183951D01*
X119101102Y-48183955D01*
X119061696Y-48242930D01*
X119059562Y-48248083D01*
X119019827Y-48294610D01*
X118968097Y-48309200D01*
X114297567Y-48309200D01*
X114220434Y-48329868D01*
X114220433Y-48329869D01*
X114220431Y-48329869D01*
X114220431Y-48329870D01*
X114153445Y-48368544D01*
X114151266Y-48369802D01*
X113739556Y-48781511D01*
X113695721Y-48803851D01*
X113696498Y-48806240D01*
X113689089Y-48808647D01*
X113589035Y-48859626D01*
X113509626Y-48939035D01*
X113458648Y-49039088D01*
X113442201Y-49142931D01*
X113441081Y-49150000D01*
X112932940Y-49150000D01*
X112915920Y-49113080D01*
X112915234Y-49101445D01*
X112915234Y-48272003D01*
X112915233Y-48272001D01*
X112908824Y-48248083D01*
X112894564Y-48194865D01*
X112884271Y-48177037D01*
X112854635Y-48125704D01*
X112339031Y-47610100D01*
X112269869Y-47570170D01*
X112269866Y-47570169D01*
X112269865Y-47570168D01*
X112192732Y-47549500D01*
X112192730Y-47549500D01*
X107607270Y-47549500D01*
X107550800Y-47564631D01*
X107530130Y-47570170D01*
X107530129Y-47570170D01*
X107530127Y-47570171D01*
X107530126Y-47570171D01*
X107460971Y-47610098D01*
X106419004Y-48652065D01*
X106364487Y-48679842D01*
X106304055Y-48670271D01*
X106260790Y-48627006D01*
X106250000Y-48582061D01*
X106250000Y-46849500D01*
X106268907Y-46791309D01*
X106318407Y-46755345D01*
X106349000Y-46750500D01*
X128202405Y-46750500D01*
X128246462Y-46750500D01*
X128253523Y-46750751D01*
G37*
G04 #@! TD.AperFunction*
G04 #@! TA.AperFunction,Conductor*
G36*
X110080325Y-52331407D02*
G01*
X110116289Y-52380907D01*
X110121134Y-52411500D01*
X110121134Y-53061215D01*
X110121135Y-53061222D01*
X110137007Y-53141019D01*
X110133447Y-53141726D01*
X110136862Y-53185105D01*
X110104892Y-53237273D01*
X110090098Y-53247729D01*
X110047354Y-53272407D01*
X110047353Y-53272408D01*
X109696484Y-53623277D01*
X109673892Y-53662408D01*
X109673891Y-53662408D01*
X109656554Y-53692438D01*
X109656552Y-53692442D01*
X109635884Y-53769575D01*
X109635884Y-55337808D01*
X109616977Y-55395999D01*
X109567477Y-55431963D01*
X109536884Y-55436808D01*
X108191484Y-55436808D01*
X108133293Y-55417901D01*
X108097329Y-55368401D01*
X108092484Y-55337808D01*
X108092484Y-54081747D01*
X108111391Y-54023556D01*
X108121480Y-54011743D01*
X108335819Y-53797404D01*
X108390336Y-53769627D01*
X108405823Y-53768408D01*
X109174823Y-53768408D01*
X109174823Y-53768407D01*
X109251961Y-53747738D01*
X109284628Y-53728878D01*
X109321123Y-53707808D01*
X109667134Y-53361797D01*
X109707064Y-53292635D01*
X109707066Y-53292628D01*
X109710750Y-53278880D01*
X109710750Y-53278878D01*
X109727734Y-53215496D01*
X109727734Y-52647570D01*
X109727734Y-52639596D01*
X109727733Y-52639582D01*
X109727733Y-52411500D01*
X109746640Y-52353309D01*
X109796140Y-52317345D01*
X109826733Y-52312500D01*
X110022134Y-52312500D01*
X110080325Y-52331407D01*
G37*
G04 #@! TD.AperFunction*
G04 #@! TA.AperFunction,Conductor*
G36*
X109111745Y-48175007D02*
G01*
X109147709Y-48224507D01*
X109147709Y-48285693D01*
X109123559Y-48325101D01*
X109109628Y-48339033D01*
X109109626Y-48339035D01*
X109059424Y-48437565D01*
X109058648Y-48439088D01*
X109041081Y-48550000D01*
X109058648Y-48660912D01*
X109109628Y-48760967D01*
X109110344Y-48762372D01*
X109121134Y-48807317D01*
X109121134Y-49052272D01*
X109102227Y-49110463D01*
X109052727Y-49146427D01*
X109006647Y-49150053D01*
X108950001Y-49141081D01*
X108950000Y-49141081D01*
X108839086Y-49158648D01*
X108785581Y-49185910D01*
X108740637Y-49196700D01*
X108363218Y-49196700D01*
X108363211Y-49196701D01*
X108292978Y-49210670D01*
X108292976Y-49210671D01*
X108213330Y-49263890D01*
X108213324Y-49263896D01*
X108160106Y-49343541D01*
X108160106Y-49343542D01*
X108160105Y-49343544D01*
X108146135Y-49413776D01*
X108146134Y-49413781D01*
X108146134Y-49586215D01*
X108146135Y-49586223D01*
X108162007Y-49666019D01*
X108159863Y-49666445D01*
X108163638Y-49714388D01*
X108137378Y-49761283D01*
X108109626Y-49789034D01*
X108058648Y-49889088D01*
X108041081Y-49999998D01*
X108041081Y-50000001D01*
X108043198Y-50013369D01*
X108058648Y-50110912D01*
X108076409Y-50145770D01*
X108109476Y-50210670D01*
X108109628Y-50210967D01*
X108137378Y-50238717D01*
X108165154Y-50293232D01*
X108160371Y-50333656D01*
X108162008Y-50333982D01*
X108160106Y-50343542D01*
X108160105Y-50343544D01*
X108148418Y-50402300D01*
X108146134Y-50413781D01*
X108146134Y-50586217D01*
X108146310Y-50587994D01*
X108146134Y-50588791D01*
X108146135Y-50591081D01*
X108145632Y-50591081D01*
X108133199Y-50647758D01*
X108087464Y-50688402D01*
X108047787Y-50696700D01*
X107711721Y-50696700D01*
X107653530Y-50677793D01*
X107641719Y-50667705D01*
X107617540Y-50643527D01*
X107617539Y-50643526D01*
X107617536Y-50643524D01*
X107617534Y-50643523D01*
X107505481Y-50586428D01*
X107505476Y-50586426D01*
X107505475Y-50586426D01*
X107474482Y-50581517D01*
X107412499Y-50571700D01*
X106587500Y-50571700D01*
X106587498Y-50571701D01*
X106494529Y-50586424D01*
X106494521Y-50586426D01*
X106382465Y-50643523D01*
X106382463Y-50643524D01*
X106293524Y-50732463D01*
X106293523Y-50732465D01*
X106236428Y-50844518D01*
X106236426Y-50844525D01*
X106221700Y-50937499D01*
X106221700Y-51437499D01*
X106221701Y-51437501D01*
X106236424Y-51530470D01*
X106236426Y-51530478D01*
X106293173Y-51641847D01*
X106293526Y-51642539D01*
X106382461Y-51731474D01*
X106382463Y-51731475D01*
X106382465Y-51731476D01*
X106494518Y-51788571D01*
X106494520Y-51788571D01*
X106494525Y-51788574D01*
X106587503Y-51803300D01*
X107412496Y-51803299D01*
X107412499Y-51803299D01*
X107412500Y-51803298D01*
X107458985Y-51795936D01*
X107505470Y-51788575D01*
X107505472Y-51788574D01*
X107505475Y-51788574D01*
X107505475Y-51788573D01*
X107505478Y-51788573D01*
X107560513Y-51760530D01*
X107617539Y-51731474D01*
X107706474Y-51642539D01*
X107763574Y-51530475D01*
X107778003Y-51439374D01*
X107778300Y-51437499D01*
X107778300Y-51402300D01*
X107797207Y-51344109D01*
X107846707Y-51308145D01*
X107877300Y-51303300D01*
X108788387Y-51303300D01*
X108788395Y-51303299D01*
X109030651Y-51303299D01*
X109088842Y-51322206D01*
X109124806Y-51371706D01*
X109129651Y-51402299D01*
X109129651Y-51597700D01*
X109110744Y-51655891D01*
X109061244Y-51691855D01*
X109030651Y-51696700D01*
X108363218Y-51696700D01*
X108363211Y-51696701D01*
X108292978Y-51710670D01*
X108292976Y-51710671D01*
X108213330Y-51763890D01*
X108213326Y-51763894D01*
X108166275Y-51834310D01*
X108138875Y-51861680D01*
X107847020Y-52056250D01*
X107840184Y-52060418D01*
X107464111Y-52269349D01*
X107416032Y-52281808D01*
X106309489Y-52281808D01*
X106295321Y-52280789D01*
X106044669Y-52244544D01*
X105662277Y-52189248D01*
X105631500Y-52179477D01*
X105626181Y-52176766D01*
X105626178Y-52176765D01*
X105531741Y-52161808D01*
X105531739Y-52161808D01*
X105479632Y-52161808D01*
X105465464Y-52160789D01*
X105422699Y-52154605D01*
X104918492Y-52081695D01*
X104911564Y-52081492D01*
X104876643Y-52080473D01*
X104876641Y-52080473D01*
X104848291Y-52082897D01*
X104788702Y-52069015D01*
X104748653Y-52022757D01*
X104740860Y-51984257D01*
X104740860Y-50402300D01*
X104759767Y-50344109D01*
X104809267Y-50308145D01*
X104839860Y-50303300D01*
X105539931Y-50303300D01*
X105539931Y-50303299D01*
X105617069Y-50282630D01*
X105641671Y-50268426D01*
X105653116Y-50261818D01*
X105702873Y-50248554D01*
X106250000Y-50250000D01*
X106250000Y-50249999D01*
X106250000Y-49719939D01*
X106268907Y-49661748D01*
X106278996Y-49649935D01*
X107743835Y-48185096D01*
X107798352Y-48157319D01*
X107813839Y-48156100D01*
X109053554Y-48156100D01*
X109111745Y-48175007D01*
G37*
G04 #@! TD.AperFunction*
G04 #@! TA.AperFunction,Conductor*
G36*
X109088842Y-51934015D02*
G01*
X109124806Y-51983515D01*
X109129651Y-52014108D01*
X109129651Y-52034694D01*
X109110744Y-52092885D01*
X109101610Y-52103728D01*
X107529153Y-53720034D01*
X107475024Y-53748559D01*
X107458194Y-53750000D01*
X106515522Y-53750000D01*
X106485222Y-53745249D01*
X104847793Y-53218830D01*
X104798181Y-53183020D01*
X104779093Y-53124888D01*
X104779093Y-52361089D01*
X104798000Y-52302898D01*
X104847500Y-52266934D01*
X104892259Y-52263108D01*
X105952642Y-52416443D01*
X106289183Y-52465108D01*
X106289184Y-52465108D01*
X107489183Y-52465108D01*
X107489184Y-52465108D01*
X107939184Y-52215108D01*
X108364244Y-51931735D01*
X108419159Y-51915108D01*
X109030651Y-51915108D01*
X109088842Y-51934015D01*
G37*
G04 #@! TD.AperFunction*
G04 #@! TA.AperFunction,Conductor*
G36*
X113420438Y-51627634D02*
G01*
X113420749Y-51627849D01*
X113512511Y-51693551D01*
X113512513Y-51693552D01*
X113512532Y-51693565D01*
X113614083Y-51756080D01*
X113614093Y-51756085D01*
X113614098Y-51756088D01*
X113715684Y-51808425D01*
X113715689Y-51808427D01*
X113715693Y-51808429D01*
X113733633Y-51815870D01*
X113817271Y-51850562D01*
X113817283Y-51850565D01*
X113817291Y-51850569D01*
X113874956Y-51868697D01*
X113906716Y-51878682D01*
X113913580Y-51884432D01*
X113914368Y-51893352D01*
X113914034Y-51894278D01*
X113799904Y-52172904D01*
X113793597Y-52179261D01*
X113792466Y-52179667D01*
X113487470Y-52271977D01*
X113478559Y-52271094D01*
X113473122Y-52264875D01*
X113435979Y-52165463D01*
X113394995Y-52065969D01*
X113354010Y-51976674D01*
X113313026Y-51897580D01*
X113275814Y-51835028D01*
X113274530Y-51826167D01*
X113276138Y-51822553D01*
X113404211Y-51630861D01*
X113411655Y-51625887D01*
X113420438Y-51627634D01*
G37*
G04 #@! TD.AperFunction*
G04 #@! TA.AperFunction,Conductor*
G36*
X114002870Y-51890642D02*
G01*
X114057267Y-51903900D01*
X114145071Y-51915100D01*
X114227986Y-51916043D01*
X114232870Y-51916099D01*
X114232870Y-51916098D01*
X114232875Y-51916099D01*
X114232880Y-51916098D01*
X114232888Y-51916098D01*
X114320669Y-51906900D01*
X114320668Y-51906900D01*
X114320679Y-51906899D01*
X114394260Y-51890642D01*
X114403076Y-51892203D01*
X114408207Y-51899542D01*
X114408483Y-51902066D01*
X114408483Y-52130375D01*
X114405056Y-52138648D01*
X114402153Y-52140770D01*
X114344975Y-52170310D01*
X114281481Y-52213314D01*
X114281472Y-52213321D01*
X114217975Y-52266525D01*
X114217969Y-52266530D01*
X114154481Y-52329925D01*
X114154475Y-52329931D01*
X114098178Y-52395188D01*
X114090179Y-52399213D01*
X114082203Y-52396832D01*
X113804180Y-52183795D01*
X113799697Y-52176043D01*
X113801210Y-52168579D01*
X113965056Y-51889993D01*
X113972203Y-51884601D01*
X113977911Y-51884559D01*
X114002870Y-51890642D01*
G37*
G04 #@! TD.AperFunction*
G04 #@! TA.AperFunction,Conductor*
G36*
X122937717Y-50820979D02*
G01*
X122937892Y-50821157D01*
X122989651Y-50875534D01*
X123049651Y-50927652D01*
X123109648Y-50968851D01*
X123169649Y-50999133D01*
X123169656Y-50999136D01*
X123188931Y-51005356D01*
X123221546Y-51015884D01*
X123228365Y-51021685D01*
X123229651Y-51027017D01*
X123229651Y-51197982D01*
X123226224Y-51206255D01*
X123221545Y-51209116D01*
X123169656Y-51225862D01*
X123169649Y-51225865D01*
X123109648Y-51256147D01*
X123049651Y-51297346D01*
X122989652Y-51349464D01*
X122937905Y-51403828D01*
X122929718Y-51407457D01*
X122921363Y-51404236D01*
X122921171Y-51404048D01*
X122722964Y-51206500D01*
X122636964Y-51120785D01*
X122633524Y-51112519D01*
X122636936Y-51104241D01*
X122921172Y-50820950D01*
X122929449Y-50817538D01*
X122937717Y-50820979D01*
G37*
G04 #@! TD.AperFunction*
G04 #@! TA.AperFunction,Conductor*
G36*
X118037150Y-49521546D02*
G01*
X118038389Y-49523007D01*
X118237848Y-49801529D01*
X118239879Y-49810250D01*
X118235148Y-49817853D01*
X118233732Y-49818722D01*
X118180438Y-49846424D01*
X118115162Y-49892714D01*
X118049884Y-49951368D01*
X117984610Y-50022380D01*
X117927486Y-50095342D01*
X117919688Y-50099743D01*
X117911061Y-50097341D01*
X117910001Y-50096402D01*
X117788622Y-49975023D01*
X117785596Y-49969785D01*
X117775062Y-49930567D01*
X117775055Y-49930543D01*
X117763704Y-49893379D01*
X117752353Y-49861318D01*
X117741002Y-49834358D01*
X117733599Y-49820104D01*
X117732828Y-49811184D01*
X117735708Y-49806442D01*
X118020605Y-49521545D01*
X118028877Y-49518119D01*
X118037150Y-49521546D01*
G37*
G04 #@! TD.AperFunction*
G04 #@! TA.AperFunction,Conductor*
G36*
X116592522Y-50384538D02*
G01*
X116617217Y-50400881D01*
X116647217Y-50417376D01*
X116671266Y-50427904D01*
X116677219Y-50430511D01*
X116677221Y-50430511D01*
X116707217Y-50440285D01*
X116707227Y-50440287D01*
X116707234Y-50440289D01*
X116720955Y-50443222D01*
X116727963Y-50444721D01*
X116735337Y-50449801D01*
X116737217Y-50456162D01*
X116737217Y-50622538D01*
X116733790Y-50630811D01*
X116725517Y-50634238D01*
X116725065Y-50634229D01*
X116707220Y-50633539D01*
X116677215Y-50635740D01*
X116677206Y-50635741D01*
X116647226Y-50641296D01*
X116647213Y-50641300D01*
X116617227Y-50650215D01*
X116617212Y-50650220D01*
X116592122Y-50660491D01*
X116583167Y-50660454D01*
X116582472Y-50660135D01*
X116308631Y-50523669D01*
X116302754Y-50516912D01*
X116303377Y-50507979D01*
X116309163Y-50502477D01*
X116581385Y-50383573D01*
X116590337Y-50383403D01*
X116592522Y-50384538D01*
G37*
G04 #@! TD.AperFunction*
G04 #@! TA.AperFunction,Conductor*
G36*
X114592942Y-50865353D02*
G01*
X114867203Y-51002028D01*
X114873080Y-51008785D01*
X114872457Y-51017718D01*
X114867203Y-51022972D01*
X114592942Y-51159646D01*
X114584009Y-51160269D01*
X114581724Y-51159218D01*
X114557223Y-51144582D01*
X114527221Y-51130020D01*
X114497220Y-51118821D01*
X114497206Y-51118816D01*
X114467217Y-51110980D01*
X114447189Y-51107989D01*
X114439512Y-51103377D01*
X114437217Y-51096417D01*
X114437217Y-50928582D01*
X114440644Y-50920309D01*
X114447187Y-50917010D01*
X114467217Y-50914019D01*
X114497217Y-50906179D01*
X114527217Y-50894980D01*
X114557217Y-50880420D01*
X114581724Y-50865780D01*
X114590584Y-50864480D01*
X114592942Y-50865353D01*
G37*
G04 #@! TD.AperFunction*
G04 #@! TA.AperFunction,Conductor*
G36*
X112995477Y-50885014D02*
G01*
X113023419Y-50894467D01*
X113054923Y-50903265D01*
X113086426Y-50910204D01*
X113117930Y-50915282D01*
X113138923Y-50917426D01*
X113146805Y-50921675D01*
X113149434Y-50929065D01*
X113149434Y-51094793D01*
X113146007Y-51103066D01*
X113137734Y-51106493D01*
X113137728Y-51106493D01*
X113111949Y-51106480D01*
X113111918Y-51106480D01*
X113074427Y-51108320D01*
X113074412Y-51108321D01*
X113036952Y-51112017D01*
X113036947Y-51112017D01*
X113036934Y-51112019D01*
X113009974Y-51116016D01*
X112999412Y-51117582D01*
X112965095Y-51124374D01*
X112958899Y-51123919D01*
X112644297Y-51011881D01*
X112637653Y-51005877D01*
X112637200Y-50996934D01*
X112643204Y-50990290D01*
X112644797Y-50989672D01*
X112988318Y-50884907D01*
X112995477Y-50885014D01*
G37*
G04 #@! TD.AperFunction*
G04 #@! TA.AperFunction,Conductor*
G36*
X117824993Y-52142289D02*
G01*
X117825108Y-52142405D01*
X117895066Y-52214340D01*
X117973295Y-52282420D01*
X118051524Y-52338139D01*
X118051528Y-52338141D01*
X118051529Y-52338142D01*
X118129753Y-52381499D01*
X118195257Y-52407457D01*
X118201686Y-52413691D01*
X118201824Y-52422644D01*
X118201021Y-52424285D01*
X118032845Y-52708995D01*
X118025687Y-52714375D01*
X118025612Y-52714394D01*
X117743176Y-52785086D01*
X117734318Y-52783770D01*
X117728985Y-52776577D01*
X117728665Y-52774572D01*
X117720500Y-52659425D01*
X117711350Y-52542738D01*
X117711346Y-52542685D01*
X117702206Y-52438478D01*
X117702205Y-52438474D01*
X117702200Y-52438410D01*
X117693050Y-52346443D01*
X117693048Y-52346433D01*
X117693041Y-52346354D01*
X117684545Y-52272450D01*
X117687004Y-52263840D01*
X117687886Y-52262850D01*
X117808448Y-52142288D01*
X117816720Y-52138862D01*
X117824993Y-52142289D01*
G37*
G04 #@! TD.AperFunction*
G04 #@! TA.AperFunction,Conductor*
G36*
X116593157Y-51368701D02*
G01*
X116605379Y-51380567D01*
X116605381Y-51380568D01*
X116605385Y-51380572D01*
X116623554Y-51395007D01*
X116641723Y-51406238D01*
X116659892Y-51414265D01*
X116659901Y-51414267D01*
X116659903Y-51414268D01*
X116669176Y-51416730D01*
X116676294Y-51422164D01*
X116677873Y-51428277D01*
X116674400Y-51598377D01*
X116670805Y-51606578D01*
X116665873Y-51609400D01*
X116656825Y-51611947D01*
X116656822Y-51611948D01*
X116639414Y-51619946D01*
X116622027Y-51631027D01*
X116604609Y-51645226D01*
X116593169Y-51656587D01*
X116584884Y-51659985D01*
X116579706Y-51658756D01*
X116307260Y-51522967D01*
X116301384Y-51516210D01*
X116302008Y-51507277D01*
X116307270Y-51502020D01*
X116579802Y-51366617D01*
X116588735Y-51366006D01*
X116593157Y-51368701D01*
G37*
G04 #@! TD.AperFunction*
G04 #@! TA.AperFunction,Conductor*
G36*
X114592942Y-50365353D02*
G01*
X114867203Y-50502028D01*
X114873080Y-50508785D01*
X114872457Y-50517718D01*
X114867203Y-50522972D01*
X114592942Y-50659646D01*
X114584009Y-50660269D01*
X114581724Y-50659218D01*
X114557223Y-50644582D01*
X114527221Y-50630020D01*
X114497220Y-50618821D01*
X114497206Y-50618816D01*
X114467217Y-50610980D01*
X114447189Y-50607989D01*
X114439512Y-50603377D01*
X114437217Y-50596417D01*
X114437217Y-50428582D01*
X114440644Y-50420309D01*
X114447187Y-50417010D01*
X114467217Y-50414019D01*
X114497217Y-50406179D01*
X114527217Y-50394980D01*
X114557217Y-50380420D01*
X114581724Y-50365780D01*
X114590584Y-50364480D01*
X114592942Y-50365353D01*
G37*
G04 #@! TD.AperFunction*
G04 #@! TA.AperFunction,Conductor*
G36*
X112995477Y-50385014D02*
G01*
X113023419Y-50394467D01*
X113054923Y-50403265D01*
X113086426Y-50410204D01*
X113117930Y-50415282D01*
X113138923Y-50417426D01*
X113146805Y-50421675D01*
X113149434Y-50429065D01*
X113149434Y-50594793D01*
X113146007Y-50603066D01*
X113137734Y-50606493D01*
X113137728Y-50606493D01*
X113111949Y-50606480D01*
X113111918Y-50606480D01*
X113074427Y-50608320D01*
X113074412Y-50608321D01*
X113036952Y-50612017D01*
X113036947Y-50612017D01*
X113036934Y-50612019D01*
X113009974Y-50616016D01*
X112999412Y-50617582D01*
X112965095Y-50624374D01*
X112958899Y-50623919D01*
X112644297Y-50511881D01*
X112637653Y-50505877D01*
X112637200Y-50496934D01*
X112643204Y-50490290D01*
X112644797Y-50489672D01*
X112988318Y-50384907D01*
X112995477Y-50385014D01*
G37*
G04 #@! TD.AperFunction*
M02*
